<svg width="945" height="663" viewBox="0 0 945 663" fill="none" xmlns="http://www.w3.org/2000/svg">
<g opacity="0.05" clip-path="url(#clip0_577_13471)">
<path d="M59.2867 660.974C59.2867 660.974 -78.9718 494.071 -11.4026 322.248C32.6446 210.248 197.858 148.877 291.095 210.248C330.805 236.387 458.211 211.129 526.236 102.914C658.427 -107.373 1119.78 20.3358 1035.79 343.201C995.139 499.443 1159.49 505.124 1075.75 661.304L59.2867 660.974Z" fill="#EBF3FA"/>
<path d="M161.63 386.284C161.63 386.284 147.686 369.982 160.771 359.625C160.771 359.625 170.328 353.829 178.122 354.299C178.122 354.299 167.081 372.854 170.653 374.699C174.225 376.545 181.469 353.133 181.469 353.133C181.469 353.133 203.219 351.019 210.215 354.389C210.215 354.389 191.622 369.636 195.54 370.542C199.457 371.449 219.539 356.486 219.539 356.486C219.539 356.486 239.78 359.938 238.699 372.314C237.618 384.689 230.646 388.508 227.579 388.183C224.513 387.853 206.581 380.994 206.191 383.511C205.8 386.028 216.595 394.255 224.155 394.638C224.155 394.638 209.882 410.412 200.399 405.86C190.915 401.308 190.105 394.094 184.194 391.388C178.283 388.681 173.235 388.689 175.676 391.45C178.118 394.21 188.819 396.892 192.198 402.886C195.577 408.88 198.611 412.921 188.798 411.442C178.986 409.963 163.036 402.766 162.333 394.527C161.63 386.284 161.63 386.284 161.63 386.284Z" fill="#C8DBF4"/>
<path d="M228.746 372.652C228.746 372.652 173.769 370.531 161.625 386.284C161.625 386.284 158.941 394.342 150.678 401.683L149.392 405.202C149.392 405.202 158.92 395.133 162.328 394.528C162.328 394.528 156.997 375.004 228.746 372.652Z" fill="#C8DBF4"/>
<path d="M150.683 401.683C150.683 401.683 138.881 410.429 138.062 426.055L140.204 426.249C140.204 426.249 143.974 410.092 150.785 403.772C157.597 397.453 150.683 401.683 150.683 401.683Z" fill="#C8DBF4"/>
<path d="M112.875 365.785C112.875 365.785 135.057 353.335 124.706 336.445C124.706 336.445 116.427 326.071 107.552 323.406C107.552 323.406 112.283 348.598 107.552 349.191C102.82 349.784 104.3 320.737 104.3 320.737C104.3 320.737 80.9343 309.473 71.7672 310.363C71.7672 310.363 86.2578 334.962 81.5263 334.368C76.7947 333.775 60.5283 308.88 60.5283 308.88C60.5283 308.88 36.5747 304.435 32.727 318.66C28.8834 332.885 35.0948 340 38.6424 340.89C42.19 341.78 64.9639 341.483 64.3719 344.445C63.78 347.407 48.4015 352.153 39.8263 349.483C39.8263 349.483 49.2894 372.895 61.7122 371.713C74.1351 370.527 77.9787 362.823 85.6658 362.23C93.3571 361.636 98.9725 363.713 95.1289 365.785C91.2853 367.861 78.2705 366.465 72.0591 371.758C65.8477 377.048 60.8202 380.311 72.3551 382.68C83.89 385.052 104.592 383.569 108.732 374.679C112.875 365.785 112.875 365.785 112.875 365.785Z" fill="#C8DBF4"/>
<path d="M43.6738 323.105C43.6738 323.105 105.78 343.259 112.879 365.785C112.879 365.785 112.583 375.862 118.795 387.421V391.867C118.795 391.867 112.287 376.752 108.74 374.675C108.735 374.675 122.634 355.115 43.6738 323.105Z" fill="#C8DBF4"/>
<path d="M118.79 387.422C118.79 387.422 128.369 401.998 122.909 419.741L120.447 419.078C120.447 419.078 122.84 399.534 117.828 389.705C112.813 379.875 118.79 387.422 118.79 387.422Z" fill="#C8DBF4"/>
<path d="M148.167 348.618C148.167 348.618 118.927 332.21 132.575 309.939C132.575 309.939 143.489 296.266 155.184 292.747C155.184 292.747 148.948 325.956 155.184 326.739C161.42 327.521 159.472 289.233 159.472 289.233C159.472 289.233 190.27 274.386 202.355 275.56C202.355 275.56 183.253 307.986 189.489 307.207C195.725 306.425 217.167 273.608 217.167 273.608C217.167 273.608 248.746 267.745 253.81 286.502C258.875 305.259 250.69 314.631 246.012 315.805C241.334 316.975 211.317 316.588 212.094 320.493C212.875 324.399 233.145 330.652 244.45 327.134C244.45 327.134 231.974 357.999 215.6 356.437C199.227 354.876 194.158 344.717 184.021 343.934C173.884 343.151 166.476 345.887 171.545 348.622C176.614 351.358 193.768 349.52 201.953 356.495C210.137 363.469 216.768 367.766 201.562 370.893C186.356 374.02 159.069 372.063 153.61 360.343C148.167 348.618 148.167 348.618 148.167 348.618Z" fill="#D4E4F8"/>
<path d="M239.39 292.355C239.39 292.355 157.523 318.923 148.167 348.613C148.167 348.613 148.558 361.895 140.369 377.134V382.996C140.369 382.996 148.944 363.069 153.622 360.338C153.622 360.338 135.301 334.553 239.39 292.355Z" fill="#D4E4F8"/>
<path d="M140.369 377.139C140.369 377.139 127.745 396.353 134.943 419.74L138.19 418.867C138.19 418.867 135.037 393.106 141.643 380.15C148.245 367.19 140.369 377.139 140.369 377.139Z" fill="#D4E4F8"/>
<path d="M147.18 470.458C178.813 470.458 204.452 444.759 204.452 413.059H89.9043C89.9043 444.759 115.547 470.458 147.18 470.458Z" fill="#D4E4F8"/>
<path d="M205.245 473.379H89.1152C89.1152 469.469 92.2805 466.297 96.1817 466.297H198.179C202.08 466.297 205.245 469.469 205.245 473.379Z" fill="#D4E4F8"/>
<path d="M205.755 413.059H88.0215V414.818H205.755V413.059Z" fill="#9FC1F4"/>
<path d="M442.713 659.784L442.996 659.78C445.311 659.739 447.099 657.84 446.881 655.66L431.441 501.145L417.97 502.347L440.139 657.695C440.312 658.907 441.418 659.805 442.713 659.784Z" fill="#8CB4F4"/>
<path d="M294.054 659.784L293.77 659.78C291.456 659.739 289.667 657.84 289.885 655.66L305.325 501.145L318.796 502.347L296.627 657.695C296.458 658.907 295.348 659.805 294.054 659.784Z" fill="#8CB4F4"/>
<path d="M551.629 659.784L551.912 659.78C554.227 659.739 556.015 657.84 555.797 655.66L540.357 501.145L526.886 502.347L549.055 657.695C549.228 658.907 550.334 659.805 551.629 659.784Z" fill="#8CB4F4"/>
<path d="M298.654 478.668L271.247 343.045C267.728 324.683 282.914 307.892 302.625 308.345L355.478 309.556C373.709 309.972 389.56 322.203 394.629 339.757L434.721 478.668H298.654Z" fill="#8CB4F4"/>
<path d="M315.233 478.668L287.826 343.045C284.308 324.683 299.493 307.892 319.204 308.345L372.057 309.556C390.288 309.972 406.139 322.203 411.208 339.757L451.3 478.668H315.233Z" fill="#8CB4F4"/>
<path d="M306.292 503.402H515.392C519.593 503.402 523.03 499.958 523.03 495.748V486.322C523.03 482.112 519.593 478.668 515.392 478.668H298.654V495.748C298.654 499.958 302.091 503.402 306.292 503.402Z" fill="#8CB4F4"/>
<path d="M404.417 503.403H537.713C541.096 503.403 543.867 500.626 543.867 497.235V484.831C543.867 481.441 541.096 478.664 537.713 478.664H404.417C401.033 478.664 398.263 481.441 398.263 484.831V497.235C398.263 500.63 401.029 503.403 404.417 503.403Z" fill="#8CB4F4"/>
<path d="M236.265 476.9V481.527C236.265 483.146 235.743 484.468 235.102 484.468H66.6165C65.9793 484.468 65.4531 483.146 65.4531 481.527V476.9C65.4531 475.281 65.9752 473.959 66.6165 473.959H235.102C235.739 473.959 236.265 475.286 236.265 476.9Z" fill="#9ABFE2"/>
<path d="M236.265 476.9V481.527C236.265 483.146 235.784 484.468 235.2 484.468H101.439C100.851 484.468 100.374 483.146 100.374 481.527V476.9C100.374 475.281 100.855 473.959 101.439 473.959H235.196C235.784 473.959 236.265 475.286 236.265 476.9Z" fill="#BAD4F4"/>
<path d="M193.62 484.473H74.0078V659.191H193.62V484.473Z" fill="#C8DBF4"/>
<path d="M227.139 484.473H107.527V659.191H227.139V484.473Z" fill="#DFEBFD"/>
<path d="M220.714 649.541H113.957V489.406H220.714V649.541ZM115.108 648.388H219.559V490.564H115.108V648.388Z" fill="#B7D3F3"/>
<path d="M220.139 542.381H114.532V543.534H220.139V542.381Z" fill="#B7D3F3"/>
<path d="M220.14 596.387H114.533V597.54H220.14V596.387Z" fill="#B7D3F3"/>
<path d="M178.155 499.734H158.559C157.609 499.734 156.828 498.956 156.828 498C156.828 497.048 157.605 496.266 158.559 496.266H178.155C179.105 496.266 179.886 497.044 179.886 498C179.886 498.956 179.109 499.734 178.155 499.734Z" fill="#B7D3F3"/>
<path d="M178.155 552.547H158.559C157.609 552.547 156.828 551.768 156.828 550.813C156.828 549.861 157.605 549.078 158.559 549.078H178.155C179.105 549.078 179.886 549.857 179.886 550.813C179.886 551.764 179.109 552.547 178.155 552.547Z" fill="#B7D3F3"/>
<path d="M178.155 607.598H158.559C157.609 607.598 156.828 606.819 156.828 605.863C156.828 604.912 157.605 604.129 158.559 604.129H178.155C179.105 604.129 179.886 604.908 179.886 605.863C179.886 606.819 179.109 607.598 178.155 607.598Z" fill="#B7D3F3"/>
<path d="M705.829 170.327H630.014C626.532 170.327 623.688 167.472 623.688 163.987V90.6526C623.688 87.1633 626.536 84.3125 630.014 84.3125H705.829C709.311 84.3125 712.156 87.1674 712.156 90.6526V163.987C712.156 167.472 709.311 170.327 705.829 170.327Z" fill="#C0D8FB"/>
<path d="M702.545 166.603H633.298C630.121 166.603 627.519 163.995 627.519 160.811V93.8293C627.519 90.6448 630.121 88.0371 633.298 88.0371H702.545C705.722 88.0371 708.325 90.6448 708.325 93.8293V160.811C708.325 163.995 705.722 166.603 702.545 166.603Z" fill="#DFEBFD"/>
<path d="M667.919 97.7216C668.932 97.7216 669.753 96.899 669.753 95.8842C669.753 94.8695 668.932 94.0469 667.919 94.0469C666.907 94.0469 666.086 94.8695 666.086 95.8842C666.086 96.899 666.907 97.7216 667.919 97.7216Z" fill="#B7D3F3"/>
<path d="M680.876 98.484C681.37 97.5983 682.484 97.2769 683.367 97.7713C684.251 98.2657 684.572 99.3821 684.079 100.268C683.585 101.154 682.471 101.475 681.587 100.981C680.704 100.486 680.383 99.3697 680.876 98.484Z" fill="#B7D3F3"/>
<path d="M693.546 108.57C694.397 108.022 695.531 108.265 696.078 109.118C696.625 109.971 696.382 111.108 695.531 111.656C694.68 112.204 693.546 111.96 692.999 111.108C692.448 110.259 692.695 109.122 693.546 108.57Z" fill="#B7D3F3"/>
<path d="M699.82 124.182C700.831 124.182 701.653 125.006 701.653 126.019C701.653 127.032 700.831 127.856 699.82 127.856C698.808 127.856 697.986 127.032 697.986 126.019C697.99 125.006 698.808 124.182 699.82 124.182Z" fill="#B7D3F3"/>
<path d="M696.616 142.301C697.332 143.018 697.332 144.18 696.616 144.897C695.901 145.613 694.742 145.613 694.027 144.897C693.311 144.18 693.311 143.018 694.027 142.301C694.742 141.584 695.901 141.584 696.616 142.301Z" fill="#B7D3F3"/>
<path d="M685.107 153.864C685.822 154.581 685.822 155.742 685.107 156.459C684.391 157.176 683.232 157.176 682.517 156.459C681.802 155.742 681.802 154.581 682.517 153.864C683.232 153.147 684.391 153.147 685.107 153.864Z" fill="#B7D3F3"/>
<path d="M666.086 159.826C666.086 158.812 666.908 157.988 667.919 157.988C668.931 157.988 669.753 158.812 669.753 159.826C669.753 160.839 668.931 161.663 667.919 161.663C666.908 161.663 666.086 160.839 666.086 159.826Z" fill="#B7D3F3"/>
<path d="M654.905 98.484C654.411 97.5983 653.297 97.2769 652.414 97.7713C651.53 98.2657 651.209 99.3821 651.702 100.268C652.196 101.154 653.31 101.475 654.194 100.981C655.082 100.486 655.398 99.3697 654.905 98.484Z" fill="#B7D3F3"/>
<path d="M642.239 108.568C641.388 108.02 640.254 108.263 639.707 109.116C639.16 109.969 639.403 111.106 640.254 111.654C641.105 112.202 642.239 111.959 642.786 111.106C643.333 110.257 643.086 109.12 642.239 108.568Z" fill="#B7D3F3"/>
<path d="M635.962 124.182C634.951 124.182 634.129 125.006 634.129 126.019C634.129 127.032 634.951 127.856 635.962 127.856C636.974 127.856 637.796 127.032 637.796 126.019C637.796 125.006 636.974 124.182 635.962 124.182Z" fill="#B7D3F3"/>
<path d="M639.164 142.299C638.449 143.016 638.449 144.178 639.164 144.895C639.88 145.612 641.039 145.612 641.754 144.895C642.469 144.178 642.469 143.016 641.754 142.299C641.043 141.583 639.88 141.583 639.164 142.299Z" fill="#B7D3F3"/>
<path d="M651.97 156.999C652.983 156.999 653.804 156.176 653.804 155.162C653.804 154.147 652.983 153.324 651.97 153.324C650.958 153.324 650.137 154.147 650.137 155.162C650.137 156.176 650.958 156.999 651.97 156.999Z" fill="#B7D3F3"/>
<path d="M667.426 126.021C667.426 125.008 668.248 124.184 669.259 124.184C670.27 124.184 671.093 125.008 671.093 126.021C671.093 127.034 670.27 127.858 669.259 127.858C668.248 127.858 667.426 127.034 667.426 126.021Z" fill="#B7D3F3"/>
<path d="M669.51 103.074H669.009V126.021H669.51V103.074Z" fill="#B7D3F3"/>
<path d="M680.71 115.825L668.571 125.375L669.498 126.558L681.637 117.008L680.71 115.825Z" fill="#B7D3F3"/>
<path d="M480.812 450.286C469.499 470.015 455.271 477.632 455.271 477.632H396.08C396.08 477.632 489.44 435.232 480.812 450.286Z" fill="#233862"/>
<path d="M553.816 646.308C553.175 652.533 561.816 654.139 571.834 654.749C581.852 655.359 578.801 657.381 592.511 660.022C606.22 662.663 611.766 658.955 612.781 657.105C613.686 655.466 607.326 652.817 600.552 649.826C599.697 649.451 598.846 649.068 597.991 648.685C590.365 645.228 586.143 638.295 580.24 631.848C574.65 625.743 569.482 606.327 569.482 606.327L550.86 602.133C550.86 602.133 555.917 619.612 557.656 627.069C558.679 631.456 557.047 636.33 555.604 640.038C554.823 642.048 554.038 644.112 553.816 646.308Z" fill="#FFB27D"/>
<path d="M571.833 654.743C581.851 655.352 578.801 657.375 592.511 660.016C606.22 662.657 611.766 658.949 612.781 657.099C613.685 655.46 607.326 652.811 600.551 649.82L600.444 649.935C600.444 649.935 590.751 653.12 579.636 649.96C570.575 647.389 561.848 641.852 555.604 640.027C554.827 642.046 554.042 644.11 553.82 646.302C553.178 652.526 561.815 654.133 571.833 654.743Z" fill="#0F2549"/>
<path d="M525.599 430.073C515.577 423.021 449.286 410.452 415.458 406.814L378.066 374.285C378.066 374.285 346.241 421.525 345.986 457.667C345.867 474.52 353.611 476.193 353.615 476.197C353.615 476.197 473.482 477.087 478.736 477.631C487.336 478.521 498.681 499.992 501.514 519.548C504.35 539.104 554.333 618.642 554.333 618.642C554.333 618.642 564.758 621.987 569.576 621.707C574.76 621.402 577.161 619.664 577.161 619.664C577.161 619.664 548.2 445.975 525.599 430.073Z" fill="#233862"/>
<path d="M522.812 646.308C522.171 652.533 530.812 654.139 540.83 654.749C550.848 655.359 547.798 657.381 561.507 660.022C575.217 662.663 580.762 658.955 581.778 657.105C582.682 655.466 576.323 652.817 569.548 649.826C568.697 649.451 567.842 649.068 566.987 648.685C559.361 645.228 555.14 638.295 549.237 631.848C543.646 625.743 538.479 606.327 538.479 606.327L519.853 602.133C519.853 602.133 524.909 619.612 526.648 627.069C527.671 631.456 526.039 636.33 524.596 640.038C523.819 642.048 523.034 644.112 522.812 646.308Z" fill="#FFB27D"/>
<path d="M540.83 654.743C550.848 655.352 547.798 657.375 561.507 660.016C575.217 662.657 580.762 658.949 581.777 657.099C582.682 655.46 576.322 652.811 569.548 649.82L569.441 649.935C569.441 649.935 559.748 653.12 548.632 649.96C539.572 647.389 530.845 641.852 524.6 640.027C523.823 642.046 523.038 644.11 522.816 646.302C522.171 652.526 530.812 654.133 540.83 654.743Z" fill="#233862"/>
<path d="M494.32 430.073C485.614 423.948 459.428 419.198 430.525 415.671C422.534 414.695 415.973 408.874 414.02 401.046L346.788 374.285C346.788 374.285 314.962 421.525 314.707 457.667C314.588 474.52 322.333 476.193 322.337 476.197C322.337 476.197 442.204 477.087 447.457 477.631C456.057 478.521 467.403 499.992 470.235 519.548C473.072 539.104 523.055 618.642 523.055 618.642C523.055 618.642 533.48 621.987 538.298 621.707C543.481 621.402 545.882 619.664 545.882 619.664C545.882 619.664 516.922 445.975 494.32 430.073Z" fill="#2B478B"/>
<path d="M404.36 178.006C395.123 173.145 381.064 172.485 378.778 172.181C351.45 168.502 335.002 208.298 334.032 220.356C332.248 242.581 320.516 245.972 304.003 259.892C270.89 287.803 280.6 320.237 298.708 332.287C309.573 339.517 328.721 332.287 328.721 332.287C328.992 332.476 381.092 303.099 406.773 288.927C445.274 283.44 427.902 190.394 404.36 178.006Z" fill="#233862"/>
<path d="M398.658 275.232C398.777 275.294 386.514 280.884 377.66 277.951C369.331 275.203 361.998 262.638 362.113 262.618C365.726 262.095 369.401 258.519 370.429 237.344L372.028 237.747L398.941 244.565C398.941 244.565 397.877 253.11 397.437 261.188C397.071 267.973 397.145 274.429 398.658 275.232Z" fill="#FFB27D"/>
<path d="M398.945 244.567C398.945 244.567 398.945 246.326 397.938 254.273C382.716 250.425 376.007 245.366 371.271 239.578L398.945 244.567Z" fill="#ED975D"/>
<path d="M404.689 245.646C404.689 245.646 369.101 251.454 365.833 229.188C362.565 206.921 355.774 192.675 378.355 188.024C400.94 183.377 406.612 191.221 409.506 198.385C412.4 205.549 413.86 243.561 404.689 245.646Z" fill="#FFB27D"/>
<path d="M404.722 187.088C404.722 187.088 388.558 212.655 374.133 218.711C359.704 224.767 352.617 221.693 352.617 221.693C352.617 221.693 359.182 211.72 360.892 198.327C361.398 194.38 363.963 190.994 367.65 189.515C378.001 185.358 398.029 178.808 404.722 187.088Z" fill="#233862"/>
<path d="M390.522 189.561C390.522 189.561 399.994 194.426 403.895 198.991C407.66 203.391 412.01 215.338 411.697 220.701C411.697 220.701 416.371 194.995 406.637 186.158C396.319 176.79 390.522 189.561 390.522 189.561Z" fill="#233862"/>
<path d="M427.129 329.629C426.048 402.126 426.833 386.974 418.92 393.854C417.012 395.51 411.652 396.499 404.598 396.964C382.416 398.439 343.425 394.777 341.941 390.669C336.823 376.457 340.436 372.04 336.169 350.276C335.725 347.961 335.175 345.456 334.529 342.729C330.969 327.783 327.508 322.695 340.132 298.686C351.585 276.934 365.048 259.265 366.121 259.899C396.331 277.873 397.367 262.808 397.367 262.808C397.367 262.808 427.659 294.27 427.129 329.629Z" fill="white"/>
<path d="M397.363 262.809C397.363 262.809 428.285 268.061 431.935 281.475C435.585 294.888 457.068 373.743 457.068 373.743C457.068 373.743 441.267 376.589 433.966 369.273C426.665 361.956 408.561 301.393 408.561 301.393L397.363 262.809Z" fill="white"/>
<path d="M404.598 396.969C382.416 398.444 343.425 394.781 341.941 390.674C336.824 376.461 340.437 372.045 336.17 350.281L346.87 320.088C346.87 320.088 345.103 353.708 354.993 362.553C364.876 371.394 395.501 379.625 400.311 387.012C402.629 390.555 404.154 394.11 404.598 396.969Z" fill="#EBF3FF"/>
<path d="M379.186 382.827C379.186 382.827 401.071 377.945 404.598 379.889C408.13 381.834 416.758 388.924 417.839 391.391C418.921 393.859 409.98 389.521 407.069 388.738C405.186 388.232 400.229 389.958 397.775 390.777C387.448 394.23 381.118 392.454 381.118 392.454L379.186 382.827Z" fill="#FFB27D"/>
<path d="M366.117 259.9C366.117 259.9 335.146 261.713 324.972 275.934C310.654 295.947 282.248 381.245 298.527 392.619C316.861 405.431 381.964 395.972 381.964 395.972C381.964 395.972 384.13 385.826 381.117 380.915C378.104 376.004 329.116 368.074 326.855 365.808C324.594 363.543 355.116 321.625 355.116 314.828C355.116 308.03 366.117 259.9 366.117 259.9Z" fill="white"/>
<path d="M405.658 385.994C405.658 385.994 410.242 391.922 411.746 392.631C413.251 393.339 414.221 393.162 414.221 393.162L411.13 387.588L405.658 385.994Z" fill="#FFB27D"/>
<path d="M404.598 379.891L417.929 386.379C417.929 386.379 417.362 387.31 415.721 387.236C414.081 387.162 409.938 385.642 409.938 385.642L404.598 379.891Z" fill="#FFB27D"/>
<path d="M453.71 395.274H391.793C391.793 392.543 394.005 390.326 396.73 390.326H453.71V395.274Z" fill="#ED7D2B"/>
<path d="M453.529 327.695H549.257L526.294 395.274H429.949L453.529 327.695Z" fill="#ED7D2B"/>
<path d="M550.667 327.695L527.704 395.274H431.355L454.939 327.695H550.667Z" fill="#F99746"/>
<path d="M499.056 360.859C498.46 363.442 495.891 365.535 493.313 365.535C490.736 365.535 489.129 363.442 489.725 360.859C490.321 358.276 492.89 356.184 495.468 356.184C498.045 356.184 499.652 358.276 499.056 360.859Z" fill="white"/>
<path d="M370.392 410.475H789.895C791.659 410.475 793.089 409.041 793.089 407.274V398.474C793.089 396.707 791.659 395.273 789.895 395.273H370.392C368.629 395.273 367.198 396.707 367.198 398.474V407.274C367.198 409.041 368.629 410.475 370.392 410.475Z" fill="#182D4F"/>
<path d="M800.164 660.912L800.345 660.892C802.495 660.624 804.016 658.704 803.744 656.599L766.361 403.01L752.676 403.401L796.661 658.362C796.941 659.993 798.487 661.122 800.164 660.912Z" fill="#182D4F"/>
<path d="M356.341 660.912L356.16 660.892C354.011 660.624 352.49 658.704 352.761 656.599L390.144 403.01L403.829 403.401L359.844 658.362C359.568 659.993 358.023 661.122 356.341 660.912Z" fill="#182D4F"/>
<path d="M442.885 660.912L442.704 660.892C440.554 660.624 439.033 658.704 439.305 656.599L476.688 403.01L490.373 403.401L446.388 658.362C446.108 659.993 444.562 661.122 442.885 660.912Z" fill="#182D4F"/>
<path d="M663.43 660.706H737.609C741.177 656.343 739.862 640.244 739.323 634.983C739.212 633.924 739.134 633.306 739.134 633.306C739.134 633.306 713.803 613.001 710.322 628.548C710.215 629.034 710.087 629.512 709.947 629.982C705.565 644.524 685.899 651.132 674.545 652.974C667.166 654.181 664.437 658.024 663.43 660.706Z" fill="#233862"/>
<path d="M865.842 419.148C863.166 419.148 738.773 442.552 718.199 468.078C707.922 480.828 706.393 628.089 706.393 628.089C706.393 628.089 719.107 643.888 746.572 634.713C746.572 634.713 766.706 533.959 765.222 503.404C764.811 494.954 850.213 502.18 865.842 498.126C881.471 494.073 919.665 459.995 911.25 443.397C902.835 426.795 865.842 419.148 865.842 419.148Z" fill="#233862"/>
<path d="M718.732 383.088C718.732 383.088 693.64 383.426 687.708 385.976C681.776 388.526 669.736 394.376 672.959 395.274C676.182 396.172 691.552 394.903 694.873 395.414C698.195 395.925 702.289 395.274 704.324 395.274C706.359 395.274 715.847 395.274 715.847 395.274L718.732 383.088Z" fill="#FFB27D"/>
<path d="M689.398 322.743C689.398 322.743 680.844 316.617 672.536 315.427C667.796 314.747 663.192 313.902 660.409 312.918C652.743 310.211 637.405 296.39 638.568 294.771C642.289 289.576 660.195 300.571 663.32 299.389C666.444 298.206 657.314 291.702 660.487 289.411C662.148 288.216 666.029 294.206 669.198 294.808C673.49 295.623 676.844 301.696 678.139 302.013C680.655 302.631 691.672 310.841 691.672 310.841L689.398 322.743Z" fill="#FFB27D"/>
<path d="M853.452 251.201C853.452 251.201 834.353 257.133 815.534 309.066C796.714 360.998 789.57 363.804 782.729 365.839C775.889 367.878 715.847 379.858 715.847 379.858V395.269H808.36C808.36 395.269 843.051 362.197 853.452 339.934C863.852 317.676 853.452 251.201 853.452 251.201Z" fill="#ED7D2B"/>
<path d="M630.646 660.706H704.826C708.394 656.343 707.079 640.244 706.54 634.983C706.429 633.924 706.351 633.306 706.351 633.306C706.351 633.306 681.02 613.001 677.538 628.548C677.431 629.034 677.304 629.512 677.164 629.982C672.782 644.524 653.116 651.132 641.762 652.974C634.383 654.181 631.654 658.024 630.646 660.706Z" fill="#1B3051"/>
<path d="M829.19 419.148C826.51 419.148 702.121 442.552 681.546 468.078C671.269 480.828 669.74 628.089 669.74 628.089C669.74 628.089 682.459 643.888 709.919 634.713C709.919 634.713 730.054 533.959 728.57 503.404C728.159 494.954 813.561 502.18 829.19 498.126C844.819 494.073 883.013 459.995 874.598 443.397C866.179 426.795 829.19 419.148 829.19 419.148Z" fill="#2B478B"/>
<path d="M836.972 267.659C845.921 266.917 855.302 264.528 863.413 261.891C873.55 258.596 881.718 253.776 876.456 244.494C871.606 235.937 863.75 216.822 864.28 200.986L845.42 216.221L832.607 226.565C832.607 226.565 832.66 232.666 834.062 243.357C834.317 245.306 834.617 247.411 834.97 249.656C835.254 251.473 834.424 253.285 832.866 254.253C832.767 254.315 832.672 254.373 832.578 254.435C826.202 258.443 829.478 268.281 836.972 267.659Z" fill="#FFB27D"/>
<path d="M832.607 224.048C832.607 224.048 831.953 226.265 833.079 234.442C844.503 232.576 855.179 223.443 855.179 223.443C849.362 221.844 847.249 215.545 842.916 216.134L832.607 224.048Z" fill="#ED975D"/>
<path d="M822.037 225.914C822.037 225.914 865.973 233.231 870.1 205.736C874.224 178.246 882.675 160.675 854.796 154.842C826.916 149.008 819.879 158.677 816.278 167.518C812.672 176.355 810.716 223.302 822.037 225.914Z" fill="#FFB27D"/>
<path d="M809.815 155.349C807.928 161.97 812.976 170.032 821.453 172.689C834.036 176.627 831.253 192.097 836.918 191.886C842.578 191.676 844.864 182.996 849.92 189.93C854.232 195.845 846.332 202.857 846.874 206.103C847.807 211.673 856.514 223.068 864.357 222.495C872.201 221.923 886.88 184.562 883.945 173.002C881.01 161.442 869.266 149.252 858.15 147.571C847.034 145.891 831.598 150.698 828.034 150.698C824.47 150.698 810.835 151.773 809.815 155.349Z" fill="#2B478B"/>
<path d="M911.838 289.359C905.487 263.743 887.934 236.866 876.066 236.887C855.841 236.924 826.769 242.275 815.033 271.294C806.388 292.667 794.857 415.61 807.888 424.351C837.679 444.34 906.736 485.141 919.003 443.533C930.246 405.405 922.859 333.818 911.838 289.359Z" fill="#F99746"/>
<path d="M862.718 263.866C856.95 248.825 838.341 243.626 825.651 253.521C818.786 258.873 810.383 266.494 800.23 277.329C762.488 317.607 754.818 317.355 747.731 316.523C740.644 315.691 680.758 302.953 680.758 302.953C680.758 302.953 677.691 305.219 675.886 308.885C673.477 313.779 674.69 317.116 674.69 317.116C672.343 315.596 695.918 331.881 707.65 338.374C723.148 346.947 746.497 354.988 755.796 358.041C758.431 358.906 761.276 358.865 763.886 357.922C777.69 352.937 824.044 334.765 861.781 303.241C871.721 294.932 868.066 277.811 862.718 263.866Z" fill="#F99746"/>
<path d="M878.1 237.133L873.521 226.797C873.521 226.797 832.536 230.146 825.646 253.521C825.651 253.521 857.419 237.636 878.1 237.133Z" fill="white"/>
<path d="M898.141 659.784L898.425 659.78C900.739 659.739 902.527 657.84 902.309 655.66L886.873 501.145L873.402 502.347L895.572 657.695C895.74 658.907 896.846 659.805 898.141 659.784Z" fill="#8CB4F4"/>
<path d="M748.96 659.784L748.676 659.78C746.362 659.739 744.574 657.84 744.791 655.66L760.232 501.145L773.703 502.347L751.533 657.695C751.36 658.907 750.255 659.805 748.96 659.784Z" fill="#73A2E5"/>
<path d="M973.241 479.253L987.892 350.201C989.811 331.605 983.604 313.392 956.822 311.983L909.708 309.108C881.784 307.954 869.18 331.243 865.645 349.171L837.675 491.031L973.241 479.253Z" fill="#8CB4F4"/>
<path d="M965.369 503.402H756.269C752.067 503.402 748.631 499.958 748.631 495.748V486.322C748.631 482.112 752.067 478.668 756.269 478.668H973.006V495.748C973.006 499.958 969.57 503.402 965.369 503.402Z" fill="#73A2E5"/>
<path d="M967.075 503.402H843.612C840.348 503.402 837.68 500.729 837.68 497.458V484.613C837.68 481.342 840.348 478.668 843.612 478.668H973.007V497.458C973.007 500.729 970.339 503.402 967.075 503.402Z" fill="#8CB4F4"/>
</g>
<defs>
<clipPath id="clip0_577_13471">
<rect width="945" height="663" fill="white"/>
</clipPath>
</defs>
</svg>
