<svg id="eye-crossed" width="21" height="19" viewBox="0 0 21 19" xmlns="http://www.w3.org/2000/svg">
<path d="M2.71409 0.294092C2.62085 0.200853 2.51016 0.126892 2.38834 0.076432C2.26652 0.0259717 2.13595 0 2.00409 0C1.87223 0 1.74166 0.0259717 1.61984 0.076432C1.49802 0.126892 1.38733 0.200853 1.29409 0.294092C1.10579 0.482395 1 0.73779 1 1.00409C1 1.27039 1.10579 1.52579 1.29409 1.71409L6.92409 7.34409C6.5679 8.00671 6.43468 8.76646 6.54418 9.51074C6.65368 10.255 7.00008 10.9442 7.53203 11.4762C8.06398 12.0081 8.75317 12.3545 9.49744 12.464C10.2417 12.5735 11.0015 12.4403 11.6641 12.0841L17.2941 17.7141C17.3871 17.8078 17.4977 17.8822 17.6195 17.933C17.7414 17.9838 17.8721 18.0099 18.0041 18.0099C18.1361 18.0099 18.2668 17.9838 18.3887 17.933C18.5105 17.8822 18.6211 17.8078 18.7141 17.7141C18.8078 17.6211 18.8822 17.5105 18.933 17.3887C18.9838 17.2668 19.0099 17.1361 19.0099 17.0041C19.0099 16.8721 18.9838 16.7414 18.933 16.6195C18.8822 16.4977 18.8078 16.3871 18.7141 16.2941L2.71409 0.294092ZM10.0041 10.5041C9.60627 10.5041 9.22474 10.3461 8.94343 10.0648C8.66213 9.78345 8.50409 9.40192 8.50409 9.00409V8.93409L10.0641 10.4941L10.0041 10.5041Z"/>
<path d="M10.224 14.003C5.92397 14.103 3.10397 10.413 2.22397 9.00305C2.85044 8.00374 3.60334 7.08951 4.46397 6.28305L3.00397 4.87305C1.8753 5.93652 0.908383 7.15948 0.133975 8.50305C0.0462063 8.65507 0 8.82751 0 9.00305C0 9.17858 0.0462063 9.35103 0.133975 9.50305C0.763975 10.593 4.13398 16.003 10.024 16.003H10.274C11.3815 15.9702 12.4747 15.7434 13.504 15.333L11.924 13.753C11.3683 13.8992 10.7982 13.9831 10.224 14.003Z"/>
<path d="M19.8739 8.50427C19.2339 7.39427 15.7039 1.82427 9.73391 2.00427C8.62636 2.03712 7.53314 2.26389 6.50391 2.67427L8.08391 4.25427C8.63954 4.1081 9.20972 4.02425 9.78391 4.00427C14.0739 3.89427 16.8939 7.59427 17.7839 9.00427C17.142 10.0066 16.3722 10.9209 15.4939 11.7243L17.0039 13.1343C18.1467 12.0736 19.1273 10.8505 19.9139 9.50427C19.9957 9.34876 20.035 9.17446 20.028 8.9989C20.021 8.82335 19.9678 8.65275 19.8739 8.50427Z"/>
</svg>
