<svg id="eye-opened" width="21" height="15" viewBox="0 0 21 15" xmlns="http://www.w3.org/2000/svg">
<path d="M19.874 6.50427C19.234 5.39427 15.714 -0.175734 9.73397 0.00426608C4.20397 0.144266 1.00397 5.00427 0.133975 6.50427C0.0462063 6.65629 0 6.82873 0 7.00427C0 7.1798 0.0462063 7.35225 0.133975 7.50427C0.763975 8.59427 4.13398 14.0043 10.024 14.0043H10.274C15.804 13.8643 19.014 9.00427 19.874 7.50427C19.9617 7.35225 20.0079 7.1798 20.0079 7.00427C20.0079 6.82873 19.9617 6.65629 19.874 6.50427ZM10.224 12.0043C5.91398 12.1043 3.10397 8.41427 2.22397 7.00427C3.22397 5.39427 5.83397 2.10427 9.83397 2.00427C14.124 1.89427 16.944 5.59427 17.834 7.00427C16.804 8.61427 14.224 11.9043 10.224 12.0043Z"/>
<path d="M10.0039 3.50391C9.31167 3.50391 8.63498 3.70918 8.05941 4.09376C7.48384 4.47835 7.03524 5.02497 6.77033 5.66451C6.50542 6.30406 6.43611 7.00779 6.57116 7.68672C6.70621 8.36566 7.03955 8.9893 7.52903 9.47878C8.01852 9.96826 8.64216 10.3016 9.32109 10.4367C10 10.5717 10.7038 10.5024 11.3433 10.2375C11.9828 9.97258 12.5295 9.52397 12.9141 8.9484C13.2986 8.37283 13.5039 7.69614 13.5039 7.00391C13.5039 6.07565 13.1352 5.18541 12.4788 4.52903C11.8224 3.87266 10.9322 3.50391 10.0039 3.50391ZM10.0039 8.50391C9.70724 8.50391 9.41723 8.41593 9.17055 8.25111C8.92388 8.08629 8.73162 7.85202 8.61809 7.57793C8.50456 7.30384 8.47485 7.00224 8.53273 6.71127C8.59061 6.4203 8.73347 6.15302 8.94325 5.94325C9.15303 5.73347 9.4203 5.59061 9.71127 5.53273C10.0022 5.47485 10.3038 5.50456 10.5779 5.61809C10.852 5.73162 11.0863 5.92388 11.2511 6.17055C11.4159 6.41723 11.5039 6.70723 11.5039 7.00391C11.5039 7.40173 11.3459 7.78326 11.0646 8.06457C10.7833 8.34587 10.4017 8.50391 10.0039 8.50391Z"/>
</svg>
