<svg width="14" height="13" viewBox="0 0 14 13" fill="none" xmlns="http://www.w3.org/2000/svg">
<path d="M13.125 5.57209L2.7475 5.57209L5.92375 1.52388C5.99729 1.43 6.05268 1.32166 6.08677 1.20506C6.12085 1.08845 6.13295 0.965868 6.12239 0.844301C6.10106 0.598784 5.98869 0.372315 5.81 0.214716C5.63131 0.0571153 5.40094 -0.0187065 5.16957 0.00392991C4.93819 0.0265663 4.72477 0.145807 4.57625 0.33542L0.201249 5.90635C0.171814 5.95066 0.145493 5.99721 0.122499 6.04562C0.122499 6.09205 0.0787491 6.1199 0.0612491 6.16633C0.0215887 6.27279 0.000822443 6.38611 -5.68197e-07 6.50058C0.000822463 6.61505 0.0215887 6.72838 0.0612492 6.83484C0.0612492 6.88126 0.104999 6.90912 0.122499 6.95554C0.145493 7.00395 0.171814 7.0505 0.20125 7.09481L4.57625 12.6657C4.65852 12.7706 4.76154 12.8548 4.87799 12.9126C4.99444 12.9704 5.12145 13.0002 5.25 13C5.45445 13.0004 5.65258 12.9249 5.81 12.7864C5.8986 12.7085 5.97184 12.6128 6.02552 12.5047C6.07921 12.3967 6.11228 12.2785 6.12284 12.1569C6.13341 12.0353 6.12126 11.9127 6.0871 11.796C6.05294 11.6794 5.99743 11.5711 5.92375 11.4773L2.7475 7.42907L13.125 7.42907C13.3571 7.42907 13.5796 7.33125 13.7437 7.15712C13.9078 6.983 14 6.74683 14 6.50058C14 6.25433 13.9078 6.01817 13.7437 5.84404C13.5796 5.66992 13.3571 5.57209 13.125 5.57209Z" fill="currentColor"/>
</svg>
