<svg width="39" height="39" viewBox="0 0 39 39" fill="none" xmlns="http://www.w3.org/2000/svg">
<circle cx="19.5" cy="19.5" r="19.5" fill="#E7E7FD"/>
<g clip-path="url(#clip0_423_14320)">
<path opacity="0.99" fill-rule="evenodd" clip-rule="evenodd" d="M28.9814 13.5808C28.9814 13.6056 28.9814 13.6303 28.9814 13.6551C28.4412 14.3995 27.8041 15.0551 27.0703 15.6219C27.1064 18.8176 26.055 21.5885 23.916 23.9344C21.7375 26.1361 19.0903 27.2247 15.9746 27.2C13.8095 27.2058 11.8117 26.6368 9.98145 25.493C9.98145 25.4682 9.98145 25.4435 9.98145 25.4187C12.0782 25.6495 13.9708 25.1361 15.6592 23.8787C13.8779 23.7106 12.6904 22.7891 12.0967 21.114C12.6449 21.2155 13.1892 21.1969 13.7295 21.0584C11.9927 20.5586 10.9969 19.4144 10.7422 17.6258C10.7115 17.4758 10.7177 17.3274 10.7607 17.1805C11.2824 17.4685 11.8391 17.6232 12.4307 17.6443C11.2249 16.7475 10.6744 15.5414 10.7793 14.0262C10.8349 13.4759 11.0019 12.9626 11.2803 12.4861C11.305 12.4614 11.3298 12.4614 11.3545 12.4861C13.4166 14.9583 16.0637 16.3004 19.2959 16.5125C19.0088 14.6193 19.6768 13.1783 21.2998 12.1892C22.8374 11.4916 24.2847 11.64 25.6416 12.6346C25.7591 12.7521 25.8766 12.8696 25.9941 12.9871C26.863 12.7965 27.6794 12.4749 28.4434 12.0222C28.2046 12.9175 27.6913 13.6164 26.9033 14.1189C27.2177 14.1116 27.5269 14.0621 27.8311 13.9705C28.2219 13.8588 28.6053 13.7289 28.9814 13.5808Z" fill="#5D5FEF"/>
</g>
<defs>
<clipPath id="clip0_423_14320">
<rect width="19" height="19" fill="white" transform="translate(10 10)"/>
</clipPath>
</defs>
</svg>
