<svg width="39" height="39" viewBox="0 0 39 39" fill="none" xmlns="http://www.w3.org/2000/svg">
<circle cx="19.5" cy="19.5" r="19.5" fill="#E7E7FD"/>
<path opacity="0.977" fill-rule="evenodd" clip-rule="evenodd" d="M13.3583 11.8747C14.5254 11.7873 15.2491 12.3068 15.5292 13.4333C15.6048 14.532 15.1162 15.2309 14.0634 15.5299C12.9126 15.6402 12.1889 15.1392 11.8925 14.027C11.8041 12.9103 12.2927 12.1929 13.3583 11.8747Z" fill="#5D5FEF"/>
<path opacity="0.987" fill-rule="evenodd" clip-rule="evenodd" d="M23.0068 16.6604C23.8809 16.6123 24.7097 16.7793 25.4932 17.1614C26.0856 17.5439 26.5 18.0696 26.7363 18.7386C26.9316 19.329 27.043 19.9352 27.0703 20.5569C27.0889 22.734 27.0951 24.911 27.0889 27.0882C26.0251 27.0882 24.9613 27.0882 23.8975 27.0882C23.9037 25.1213 23.8975 23.1545 23.8789 21.1878C23.7649 19.7992 23.0289 19.2487 21.6709 19.5364C21.0428 19.7565 20.6655 20.1957 20.5391 20.8538C20.5052 21.0132 20.4805 21.174 20.4648 21.3362C20.4463 23.2535 20.4401 25.1708 20.4463 27.0882C19.3825 27.0882 18.3187 27.0882 17.2549 27.0882C17.2549 23.6989 17.2549 20.3095 17.2549 16.9202C18.2692 16.9202 19.2835 16.9202 20.2979 16.9202C20.2917 17.3781 20.2979 17.8357 20.3164 18.2932C20.7724 17.529 21.4341 17.028 22.3018 16.7903C22.5407 16.7387 22.7757 16.6954 23.0068 16.6604Z" fill="#5D5FEF"/>
<path opacity="0.986" fill-rule="evenodd" clip-rule="evenodd" d="M12.0967 16.9219C13.1605 16.9219 14.2243 16.9219 15.2881 16.9219C15.2881 20.3112 15.2881 23.7005 15.2881 27.0898C14.2243 27.0898 13.1605 27.0898 12.0967 27.0898C12.0967 23.7005 12.0967 20.3112 12.0967 16.9219Z" fill="#5D5FEF"/>
</svg>
