<svg width="37" height="37" viewBox="0 0 37 37" fill="none" xmlns="http://www.w3.org/2000/svg">
<circle cx="18.5" cy="18.5" r="18.5" fill="#F9F9FB"/>
<path d="M18.5 9.75C16.1794 9.75 13.9538 10.6719 12.3128 12.3128C10.6719 13.9538 9.75 16.1794 9.75 18.5C9.75 20.8206 10.6719 23.0462 12.3128 24.6872C13.9538 26.3281 16.1794 27.25 18.5 27.25C20.8206 27.25 23.0462 26.3281 24.6872 24.6872C26.3281 23.0462 27.25 20.8206 27.25 18.5C27.25 16.1794 26.3281 13.9538 24.6872 12.3128C23.0462 10.6719 20.8206 9.75 18.5 9.75Z" fill="#0288D1"/>
<path d="M14.125 16.3125H15.875V22.875H14.125V16.3125ZM14.9947 15.4375H14.9851C14.4627 15.4375 14.125 15.0481 14.125 14.5621C14.125 14.0655 14.4732 13.6875 15.0048 13.6875C15.5372 13.6875 15.8649 14.0655 15.875 14.5621C15.875 15.0481 15.5372 15.4375 14.9947 15.4375ZM23.3125 18.7188C23.3125 17.3896 22.2354 16.3125 20.9062 16.3125C20.0916 16.3125 19.3728 16.7185 18.9375 17.338V16.3125H17.1875V22.875H18.9375V19.375C18.9375 18.6501 19.5251 18.0625 20.25 18.0625C20.9749 18.0625 21.5625 18.6501 21.5625 19.375V22.875H23.3125C23.3125 22.875 23.3125 18.9029 23.3125 18.7188Z" fill="white"/>
</svg>
