<svg width="37" height="37" viewBox="0 0 37 37" fill="none" xmlns="http://www.w3.org/2000/svg">
<circle cx="18.5" cy="18.5" r="18.5" fill="#F9F9FB"/>
<path d="M27.0798 16.7863H26.375V16.75H18.5V20.25H23.4451C22.7236 22.2874 20.7851 23.75 18.5 23.75C15.6007 23.75 13.25 21.3993 13.25 18.5C13.25 15.6007 15.6007 13.25 18.5 13.25C19.8383 13.25 21.0559 13.7549 21.9829 14.5796L24.4579 12.1046C22.8951 10.6482 20.8048 9.75 18.5 9.75C13.6678 9.75 9.75 13.6678 9.75 18.5C9.75 23.3322 13.6678 27.25 18.5 27.25C23.3322 27.25 27.25 23.3322 27.25 18.5C27.25 17.9133 27.1896 17.3406 27.0798 16.7863Z" fill="#FFC107"/>
<path d="M10.7588 14.4273L13.6336 16.5356C14.4115 14.6098 16.2954 13.25 18.4999 13.25C19.8382 13.25 21.0558 13.7549 21.9829 14.5796L24.4578 12.1046C22.895 10.6482 20.8047 9.75 18.4999 9.75C15.139 9.75 12.2244 11.6474 10.7588 14.4273Z" fill="#FF3D00"/>
<path d="M18.4996 27.2498C20.7598 27.2498 22.8134 26.3849 24.3661 24.9783L21.658 22.6867C20.7795 23.3521 19.6875 23.7498 18.4996 23.7498C16.2238 23.7498 14.2913 22.2986 13.5633 20.2734L10.71 22.4719C12.1581 25.3056 15.099 27.2498 18.4996 27.2498Z" fill="#4CAF50"/>
<path d="M27.0798 16.7863H26.375V16.75H18.5V20.25H23.4451C23.0986 21.2287 22.469 22.0726 21.657 22.6873C21.6574 22.6869 21.6579 22.6869 21.6583 22.6864L24.3664 24.9781C24.1748 25.1522 27.25 22.875 27.25 18.5C27.25 17.9133 27.1896 17.3406 27.0798 16.7863Z" fill="#1976D2"/>
</svg>
