<svg width="39" height="39" viewBox="0 0 39 39" fill="none" xmlns="http://www.w3.org/2000/svg">
<circle cx="19.5" cy="19.5" r="19.5" fill="#E7E7FD"/>
<g clip-path="url(#clip0_423_14322)">
<path opacity="0.99" fill-rule="evenodd" clip-rule="evenodd" d="M21.1885 9.98047C21.8441 9.98047 22.4997 9.98047 23.1553 9.98047C23.57 10.0212 23.9906 10.0584 24.417 10.0918C24.417 11.1061 24.417 12.1204 24.417 13.1348C23.6492 13.1234 22.8823 13.142 22.1162 13.1904C21.3986 13.3144 21.0213 13.7412 20.9844 14.4707C20.9658 15.287 20.9596 16.1034 20.9658 16.9199C22.0791 16.9199 23.1924 16.9199 24.3057 16.9199C24.1635 18.0572 24.0274 19.1952 23.8975 20.334C22.9203 20.334 21.943 20.334 20.9658 20.334C20.9658 23.2162 20.9658 26.0983 20.9658 28.9805C19.7907 28.9805 18.6156 28.9805 17.4404 28.9805C17.4404 26.0983 17.4404 23.2162 17.4404 20.334C16.4756 20.334 15.5107 20.334 14.5459 20.334C14.5459 19.196 14.5459 18.058 14.5459 16.9199C15.5107 16.9199 16.4756 16.9199 17.4404 16.9199C17.4262 15.8306 17.4447 14.742 17.4961 13.6543C17.8111 11.5024 19.0419 10.2778 21.1885 9.98047Z" fill="#5D5FEF"/>
</g>
<defs>
<clipPath id="clip0_423_14322">
<rect width="19" height="19" fill="white" transform="translate(10 10)"/>
</clipPath>
</defs>
</svg>
