<svg id="letter-b" width="9" height="10" viewBox="0 0 9 10" fill="none" xmlns="http://www.w3.org/2000/svg">
<path d="M0.994 10V0.199999H5.236C5.88 0.199999 6.44 0.307333 6.916 0.521999C7.392 0.736666 7.76067 1.04 8.022 1.432C8.28333 1.81467 8.414 2.26733 8.414 2.79C8.414 3.266 8.29267 3.686 8.05 4.05C7.80733 4.414 7.46667 4.70333 7.028 4.918C7.57867 5.114 8.008 5.41267 8.316 5.814C8.63333 6.206 8.792 6.668 8.792 7.2C8.792 7.76933 8.652 8.264 8.372 8.684C8.092 9.104 7.7 9.43067 7.196 9.664C6.692 9.888 6.09933 10 5.418 10H0.994ZM2.464 4.358H5.152C5.70267 4.358 6.14133 4.22733 6.468 3.966C6.79467 3.70467 6.958 3.35 6.958 2.902C6.958 2.454 6.79467 2.09933 6.468 1.838C6.14133 1.57667 5.70267 1.446 5.152 1.446H2.464V4.358ZM2.464 8.754H5.306C5.922 8.754 6.40733 8.60933 6.762 8.32C7.126 8.03067 7.308 7.63867 7.308 7.144C7.308 6.65867 7.126 6.27133 6.762 5.982C6.40733 5.68333 5.922 5.534 5.306 5.534H2.464V8.754Z"/>
</svg>
