<svg id="letter-i" width="8" height="10" viewBox="0 0 8 10" xmlns="http://www.w3.org/2000/svg">
<path d="M2.14844 0.046875L1.9502 1.14746H4.21973L2.87305 8.90625H0.610352L0.418945 10H6.26367L6.45508 8.90625H4.1377L5.48438 1.14746H7.79492L7.99316 0.046875H2.14844Z"/>
<path d="M2.14844 0.046875V-0.139542H1.9926L1.96497 0.0138288L2.14844 0.046875ZM1.9502 1.14746L1.76673 1.11441L1.7272 1.33388H1.9502V1.14746ZM4.21973 1.14746L4.4034 1.17934L4.44129 0.961044H4.21973V1.14746ZM2.87305 8.90625V9.09267H3.0299L3.05672 8.93813L2.87305 8.90625ZM0.610352 8.90625V8.71983H0.453725L0.426725 8.87411L0.610352 8.90625ZM0.418945 10L0.235319 9.96786L0.197072 10.1864H0.418945V10ZM6.26367 10V10.1864H6.4203L6.4473 10.0321L6.26367 10ZM6.45508 8.90625L6.6387 8.93839L6.67695 8.71983H6.45508V8.90625ZM4.1377 8.90625L3.95402 8.87437L3.91614 9.09267H4.1377V8.90625ZM5.48438 1.14746V0.961044H5.32753L5.3007 1.11558L5.48438 1.14746ZM7.79492 1.14746V1.33388H7.95076L7.97839 1.18051L7.79492 1.14746ZM7.99316 0.046875L8.17663 0.0799212L8.21616 -0.139542H7.99316V0.046875ZM1.96497 0.0138288L1.76673 1.11441L2.13366 1.18051L2.3319 0.0799212L1.96497 0.0138288ZM1.9502 1.33388H4.21973V0.961044H1.9502V1.33388ZM4.03606 1.11558L2.68938 8.87437L3.05672 8.93813L4.4034 1.17934L4.03606 1.11558ZM2.87305 8.71983H0.610352V9.09267H2.87305V8.71983ZM0.426725 8.87411L0.235319 9.96786L0.602572 10.0321L0.793978 8.93839L0.426725 8.87411ZM0.418945 10.1864H6.26367V9.81358H0.418945V10.1864ZM6.4473 10.0321L6.6387 8.93839L6.27145 8.87411L6.08005 9.96786L6.4473 10.0321ZM6.45508 8.71983H4.1377V9.09267H6.45508V8.71983ZM4.32137 8.93813L5.66805 1.17934L5.3007 1.11558L3.95402 8.87437L4.32137 8.93813ZM5.48438 1.33388H7.79492V0.961044H5.48438V1.33388ZM7.97839 1.18051L8.17663 0.0799212L7.8097 0.0138288L7.61146 1.11441L7.97839 1.18051ZM7.99316 -0.139542H2.14844V0.233292H7.99316V-0.139542Z"/>
</svg>
