<svg width="34" height="34" viewBox="0 0 34 34" fill="none" xmlns="http://www.w3.org/2000/svg">
<circle cx="17" cy="17" r="17" fill="#5D5FEF"/>
<mask id="mask0_1524_11349" style="mask-type:alpha" maskUnits="userSpaceOnUse" x="0" y="0" width="34" height="34">
<circle cx="17" cy="17" r="17" fill="#D9D9D9"/>
</mask>
<g mask="url(#mask0_1524_11349)">
<path d="M20.4727 24.8381V18.5385L21.6743 18.2578V20.4787C22.0368 20.1816 22.4643 20.0331 22.9555 20.0331C23.3885 20.0331 23.7804 20.1426 24.1311 20.3607C24.4819 20.5789 24.7614 20.8717 24.969 21.2391C25.1766 21.6066 25.2807 22.0173 25.2807 22.4722C25.2807 22.927 25.1752 23.3385 24.9649 23.7052C24.7546 24.0726 24.4703 24.364 24.114 24.5787C23.7571 24.794 23.3597 24.902 22.9205 24.902C22.6924 24.902 22.4704 24.8686 22.2539 24.8018C22.0374 24.735 21.8388 24.6384 21.6572 24.5104V24.8381H20.4727ZM22.7623 23.8459C23.0137 23.8459 23.2405 23.7855 23.4419 23.664C23.644 23.5425 23.803 23.379 23.9201 23.1722C24.0373 22.9661 24.0955 22.7323 24.0955 22.4715C24.0955 22.2106 24.0373 21.9754 23.9201 21.7665C23.803 21.5568 23.644 21.3934 23.4419 21.2747C23.2398 21.156 23.0137 21.097 22.7623 21.097C22.5396 21.097 22.3368 21.1347 22.1525 21.2107C21.9682 21.2868 21.8086 21.4005 21.6743 21.5518V23.3996C21.8031 23.5389 21.9621 23.6484 22.1525 23.7273C22.3423 23.8061 22.5458 23.8459 22.7623 23.8459Z" fill="#FCFCFF"/>
<path d="M17.0959 24.9295C16.6396 24.9295 16.2272 24.82 15.8586 24.6019C15.49 24.3837 15.1975 24.0895 14.981 23.7192C14.7645 23.3489 14.6562 22.9339 14.6562 22.4727C14.6562 22.0114 14.7631 21.5942 14.9762 21.2211C15.19 20.848 15.4818 20.5524 15.8538 20.3335C16.2251 20.1153 16.639 20.0059 17.0952 20.0059C17.5515 20.0059 17.9653 20.1153 18.3367 20.3335C18.708 20.5517 19.0005 20.848 19.2143 21.2211C19.428 21.5942 19.5342 22.0114 19.5342 22.4727C19.5342 22.9339 19.4273 23.3496 19.2143 23.7192C19.0005 24.0895 18.71 24.3837 18.3414 24.6019C17.9735 24.82 17.5584 24.9295 17.0959 24.9295ZM17.0959 23.8464C17.3357 23.8464 17.5508 23.786 17.7406 23.6645C17.9304 23.5429 18.0825 23.3781 18.1969 23.1684C18.3113 22.9588 18.3682 22.7271 18.3682 22.4719C18.3682 22.2111 18.3113 21.9773 18.1969 21.7712C18.0825 21.5651 17.9304 21.3995 17.7406 21.2751C17.5501 21.1508 17.3357 21.0889 17.0959 21.0889C16.8616 21.0889 16.6485 21.1515 16.4553 21.2751C16.2621 21.3995 16.11 21.5651 15.9991 21.7712C15.8881 21.9773 15.8326 22.2111 15.8326 22.4719C15.8326 22.7271 15.8881 22.9588 15.9991 23.1684C16.11 23.3781 16.2621 23.5429 16.4553 23.6645C16.6485 23.7853 16.8623 23.8464 17.0959 23.8464Z" fill="#FCFCFF"/>
<path d="M11.3246 24.9284C10.7108 24.9284 10.1901 24.7677 9.76327 24.4458C9.33644 24.1246 9.02952 23.6633 8.8418 23.0628L10.0174 22.5987C10.1462 22.9868 10.3168 23.2725 10.5306 23.4544C10.7443 23.6363 11.0088 23.7273 11.3246 23.7273C11.7049 23.7273 12.0104 23.6001 12.2413 23.3449C12.4722 23.0898 12.588 22.7501 12.588 22.3258V18.8221L13.8602 18.4668V22.3621C13.8602 22.878 13.7547 23.3286 13.5444 23.7138C13.334 24.099 13.0388 24.3982 12.6585 24.61C12.2783 24.8218 11.8337 24.9284 11.3246 24.9284Z" fill="#FCFCFF"/>
<path d="M26.5572 12.9376C26.4944 12.7057 26.3868 12.5018 26.2381 12.3321C26.0881 12.161 25.8899 12.028 25.6481 11.9358C25.413 11.8462 25.1249 11.8008 24.7906 11.8008C24.5059 11.8008 24.237 11.8235 23.9919 11.8676C23.7402 11.9131 23.5618 11.9605 23.4462 12.012L23.3319 12.0634L23.4726 13.0599C23.4726 13.0599 23.8895 12.9075 24.0725 12.8727C24.2562 12.838 24.4755 12.82 24.7232 12.82C24.901 12.82 25.0437 12.8447 25.148 12.8941C25.2504 12.9423 25.3284 13.0037 25.3859 13.0819C25.446 13.1635 25.4863 13.255 25.5094 13.3606C25.5352 13.4769 25.5477 13.5959 25.5477 13.7141V13.7315C25.5101 13.7242 25.4698 13.7162 25.4255 13.7081C25.3436 13.6928 25.2584 13.6807 25.1712 13.672C25.082 13.6627 24.9934 13.6587 24.9095 13.6587C24.6506 13.6587 24.3989 13.6861 24.163 13.7395C23.9205 13.795 23.7032 13.8826 23.5189 14.0008C23.3273 14.1238 23.1734 14.2876 23.0617 14.488C22.9494 14.6892 22.8926 14.9305 22.8926 15.2038C22.8926 15.4845 22.9408 15.7298 23.0353 15.9336C23.1317 16.1414 23.2691 16.3112 23.4436 16.4388C23.6127 16.5625 23.8142 16.6534 24.0428 16.7095C24.2634 16.7636 24.5065 16.791 24.7668 16.791C24.9446 16.791 25.1269 16.7837 25.3086 16.769C25.4909 16.7543 26.649 16.4602 26.649 16.4602V13.6714C26.647 13.4067 26.6167 13.1601 26.5572 12.9376ZM25.5471 14.6885V15.7572C25.4863 15.7659 25.4182 15.7719 25.3429 15.7765C25.2035 15.7846 25.0403 15.7892 24.858 15.7892C24.5799 15.7892 24.3612 15.7411 24.2079 15.6469C24.0791 15.5674 24.0163 15.4197 24.0163 15.1951C24.0163 15.0782 24.0408 14.9906 24.091 14.9265C24.1491 14.8516 24.2205 14.7941 24.3083 14.7507C24.4015 14.7046 24.5065 14.6738 24.6208 14.6591C24.7457 14.6431 24.8653 14.6351 24.9763 14.6351C25.1474 14.6351 25.294 14.6444 25.4116 14.6631C25.4691 14.6712 25.5134 14.6805 25.5471 14.6885Z" fill="#FCFCFF"/>
<path d="M20.8363 16.6933C20.3273 16.6933 19.943 16.574 19.6826 16.3337C19.4223 16.0942 19.2921 15.7439 19.2921 15.2826V12.9168H18.3535V11.8792H19.2921V10.6689L20.4938 10.3867V11.8792H21.801V12.9168H20.4938V15.0282C20.4938 15.2464 20.5404 15.4027 20.6342 15.4966C20.7274 15.5911 20.8918 15.638 21.1255 15.638C21.2426 15.638 21.3495 15.6302 21.4454 15.6152C21.542 15.6003 21.6489 15.5712 21.7654 15.5285V16.5569C21.6427 16.5995 21.4893 16.6329 21.305 16.6571C21.1214 16.6813 20.9651 16.6933 20.8363 16.6933Z" fill="#FCFCFF"/>
<path d="M14.8991 16.7109C14.5483 16.7109 14.2366 16.6306 13.9646 16.47C13.6926 16.3093 13.4789 16.0862 13.324 15.8012C13.1692 15.5155 13.0918 15.1879 13.0918 14.8176V12.0914L14.2935 11.8071V14.6357C14.2935 14.9391 14.3798 15.1815 14.5524 15.3634C14.7251 15.5454 14.9573 15.6363 15.2499 15.6363C15.4486 15.6363 15.6288 15.5951 15.7898 15.5134C15.9508 15.4316 16.0837 15.3144 16.1892 15.163V11.3097L17.3908 11.0254V16.6199H16.1892V16.2376C15.8384 16.5531 15.4081 16.7109 14.8991 16.7109Z" fill="#FCFCFF"/>
<path d="M10.9216 13.9903C11.284 13.839 11.5738 13.608 11.7903 13.2988C12.0068 12.9897 12.115 12.6315 12.115 12.225C12.115 11.837 12.026 11.4937 11.8471 11.1966C11.669 10.8996 11.4203 10.6672 11.1017 10.5002C10.7825 10.3332 10.4159 10.25 10.0008 10.25H7V11.9407V12.8142V16.6206L8.27225 16.3164V12.5086V11.6351V11.3878H9.88636C10.1727 11.3878 10.4022 11.4667 10.5749 11.6245C10.7475 11.7822 10.8339 11.9883 10.8339 12.2435C10.8339 12.4986 10.7475 12.7047 10.5749 12.8625C10.4022 13.0203 10.1727 13.0991 9.88636 13.0991H9.09575V14.1822H9.65822L10.8599 16.6213H12.2815L10.9216 13.9903Z" fill="#FCFCFF"/>
</g>
</svg>
