<svg width="128" height="23" viewBox="0 0 128 23" fill="none" xmlns="http://www.w3.org/2000/svg">
<path d="M111.167 22.4165V0.956316L115.326 0V7.56579C116.58 6.55379 118.059 6.04779 119.759 6.04779C121.258 6.04779 122.614 6.42063 123.828 7.1639C125.042 7.90716 126.009 8.90463 126.728 10.1563C127.446 11.408 127.806 12.8074 127.806 14.3568C127.806 15.9063 127.441 17.3081 126.713 18.5574C125.986 19.8091 125.002 20.8017 123.769 21.5328C122.533 22.2664 121.158 22.6344 119.638 22.6344C118.849 22.6344 118.081 22.5206 117.331 22.2931C116.582 22.0655 115.895 21.7362 115.266 21.3004V22.4165H111.167ZM119.091 19.0367C119.961 19.0367 120.746 18.8309 121.443 18.4169C122.142 18.0029 122.692 17.4461 123.098 16.7416C123.503 16.0395 123.705 15.2429 123.705 14.3544C123.705 13.4659 123.503 12.6645 123.098 11.9527C122.692 11.2385 122.142 10.6817 121.443 10.2774C120.743 9.87305 119.961 9.67211 119.091 9.67211C118.32 9.67211 117.618 9.80042 116.981 10.0595C116.343 10.3185 115.79 10.7059 115.326 11.2216V17.5163C115.771 17.9908 116.321 18.3637 116.981 18.6324C117.637 18.9012 118.342 19.0367 119.091 19.0367Z" fill="white"/>
<path d="M99.485 22.7262C97.9059 22.7262 96.4786 22.3533 95.203 21.6101C93.9275 20.8668 92.9151 19.8645 92.1658 18.6031C91.4166 17.3418 91.042 15.9279 91.042 14.3566C91.042 12.7853 91.4119 11.3642 92.1492 10.0931C92.889 8.82207 93.899 7.81491 95.1864 7.06923C96.4715 6.32597 97.9036 5.95312 99.4826 5.95312C101.062 5.95312 102.494 6.32597 103.779 7.06923C105.064 7.81249 106.076 8.82207 106.816 10.0931C107.556 11.3642 107.923 12.7853 107.923 14.3566C107.923 15.9279 107.553 17.3442 106.816 18.6031C106.076 19.8645 105.071 20.8668 103.795 21.6101C102.522 22.3533 101.085 22.7262 99.485 22.7262ZM99.485 19.0365C100.315 19.0365 101.059 18.8307 101.716 18.4167C102.373 18.0027 102.899 17.441 103.295 16.7268C103.691 16.0126 103.888 15.2233 103.888 14.3542C103.888 13.4657 103.691 12.6691 103.295 11.967C102.899 11.2649 102.373 10.7008 101.716 10.2771C101.057 9.85344 100.315 9.64281 99.485 9.64281C98.6741 9.64281 97.9368 9.85586 97.2681 10.2771C96.5995 10.7008 96.0732 11.2649 95.6891 11.967C95.305 12.6691 95.1129 13.4657 95.1129 14.3542C95.1129 15.2233 95.305 16.0126 95.6891 16.7268C96.0732 17.441 96.5995 18.0027 97.2681 18.4167C97.9368 18.8283 98.6765 19.0365 99.485 19.0365Z" fill="white"/>
<path d="M79.5094 22.7271C77.385 22.7271 75.583 22.1799 74.1059 21.0832C72.6288 19.9888 71.5666 18.4176 70.917 16.3718L74.9856 14.7908C75.4313 16.1127 76.0217 17.086 76.7614 17.7058C77.5012 18.3256 78.4163 18.6355 79.5094 18.6355C80.8252 18.6355 81.8827 18.2021 82.6817 17.3329C83.4807 16.4638 83.8814 15.3065 83.8814 13.8612V1.92537L88.2843 0.714844V13.9846C88.2843 15.7423 87.9192 17.2773 87.1913 18.5895C86.4634 19.9017 85.4415 20.921 84.1256 21.6424C82.8097 22.3639 81.271 22.7271 79.5094 22.7271Z" fill="white"/>
<path d="M67.7767 8.81938C67.5515 7.97928 67.165 7.24086 66.6316 6.62591C66.0934 6.00612 65.3821 5.52433 64.5143 5.19022C63.6702 4.8658 62.6365 4.70117 61.4368 4.70117C60.4149 4.70117 59.4499 4.78349 58.5703 4.94328C57.6669 5.10791 57.0268 5.2798 56.6119 5.46622L56.2017 5.65265L56.7067 9.26243C56.7067 9.26243 58.2028 8.71043 58.8595 8.58454C59.5187 8.45865 60.3058 8.39328 61.1949 8.39328C61.8327 8.39328 62.3449 8.48286 62.7195 8.66201C63.087 8.83633 63.3667 9.05907 63.573 9.34233C63.7888 9.6377 63.9334 9.96938 64.0164 10.3519C64.1089 10.7732 64.1539 11.2041 64.1539 11.6326V11.6956C64.0188 11.669 63.8741 11.6399 63.7153 11.6109C63.4213 11.5552 63.1154 11.5116 62.8025 11.4801C62.4824 11.4462 62.1647 11.4317 61.8636 11.4317C60.9341 11.4317 60.0308 11.531 59.1844 11.7246C58.3142 11.9256 57.5342 12.2428 56.8727 12.6713C56.1851 13.1168 55.6327 13.7099 55.232 14.4362C54.8289 15.165 54.625 16.039 54.625 17.0292C54.625 18.046 54.7981 18.9345 55.1371 19.673C55.4833 20.4259 55.9764 21.0409 56.6024 21.5033C57.2093 21.9512 57.9325 22.2804 58.7528 22.4838C59.5448 22.6799 60.4173 22.7792 61.3514 22.7792C61.9892 22.7792 62.6436 22.7525 63.2956 22.6993C63.95 22.646 68.1063 21.5808 68.1063 21.5808V11.4777C68.0992 10.519 67.9901 9.62559 67.7767 8.81938ZM64.1515 15.1625V19.0338C63.9334 19.0653 63.6892 19.0871 63.4189 19.104C62.9186 19.1331 62.333 19.15 61.6786 19.15C60.6804 19.15 59.8957 18.9757 59.3456 18.6343C58.8833 18.3462 58.658 17.8112 58.658 16.9977C58.658 16.574 58.7457 16.2569 58.9259 16.0244C59.1346 15.7533 59.3906 15.5451 59.706 15.3877C60.0403 15.2206 60.4173 15.1093 60.8274 15.056C61.2756 14.9979 61.7047 14.9689 62.103 14.9689C62.7171 14.9689 63.2435 15.0028 63.6655 15.0705C63.8718 15.0996 64.0306 15.1335 64.1515 15.1625Z" fill="white"/>
<path d="M47.8844 22.9493C46.1227 22.9493 44.7926 22.5425 43.8917 21.7242C42.9907 20.9083 42.5402 19.7147 42.5402 18.1435V10.0838H39.292V6.54905H42.5402V2.426L46.6989 1.46484V6.54905H51.2227V10.0838H46.6989V17.2767C46.6989 18.02 46.8601 18.5526 47.1849 18.8722C47.5074 19.1942 48.0764 19.354 48.8849 19.354C49.2903 19.354 49.6602 19.3274 49.9921 19.2765C50.3265 19.2257 50.6963 19.1264 51.0994 18.9812V22.4844C50.675 22.6297 50.1439 22.7435 49.5061 22.8258C48.8707 22.9081 48.3301 22.9493 47.8844 22.9493Z" fill="white"/>
<path d="M27.3376 22.7258C26.1237 22.7258 25.0449 22.4523 24.1036 21.9051C23.1623 21.3579 22.4226 20.5977 21.8868 19.6269C21.3509 18.6536 21.083 17.5375 21.083 16.2762V6.989L25.2417 6.02058V15.6564C25.2417 16.6902 25.5404 17.5157 26.1379 18.1355C26.7354 18.7553 27.5391 19.0652 28.5515 19.0652C29.2391 19.0652 29.8627 18.9248 30.4199 18.6464C30.977 18.3679 31.437 17.9685 31.8021 17.4528V4.32584L35.9608 3.35742V22.4159H31.8021V21.1134C30.5882 22.1884 29.0992 22.7258 27.3376 22.7258Z" fill="white"/>
<path d="M13.5714 13.742C14.8256 13.2263 15.8286 12.4395 16.5778 11.3863C17.327 10.3332 17.7016 9.11295 17.7016 7.72811C17.7016 6.40621 17.3934 5.23684 16.7746 4.22484C16.1581 3.21284 15.2975 2.42116 14.195 1.85221C13.0901 1.28326 11.8216 1 10.3848 1H0V6.75968V9.73516V22.7023L4.40288 21.6661V8.69411V5.71863V4.87611H9.98887C10.9799 4.87611 11.7742 5.14484 12.3717 5.68232C12.9692 6.21979 13.2679 6.92189 13.2679 7.79105C13.2679 8.66021 12.9692 9.36232 12.3717 9.89979C11.7742 10.4373 10.9799 10.706 9.98887 10.706H7.25278V14.3957H9.19934L13.358 22.7047H18.2778L13.5714 13.742Z" fill="white"/>
</svg>
