<svg id="marked-list" width="19" height="12" viewBox="0 0 19 12" xmlns="http://www.w3.org/2000/svg">
<path d="M1.94141 2C2.49369 2 2.94141 1.55228 2.94141 1C2.94141 0.447715 2.49369 0 1.94141 0C1.38912 0 0.941406 0.447715 0.941406 1C0.941406 1.55228 1.38912 2 1.94141 2Z"/>
<path d="M1.94141 7C2.49369 7 2.94141 6.55228 2.94141 6C2.94141 5.44772 2.49369 5 1.94141 5C1.38912 5 0.941406 5.44772 0.941406 6C0.941406 6.55228 1.38912 7 1.94141 7Z"/>
<path d="M1.94141 12C2.49369 12 2.94141 11.5523 2.94141 11C2.94141 10.4477 2.49369 10 1.94141 10C1.38912 10 0.941406 10.4477 0.941406 11C0.941406 11.5523 1.38912 12 1.94141 12Z"/>
<path d="M18.0014 5H5.88141C5.36226 5 4.94141 5.42085 4.94141 5.94V6.06C4.94141 6.57915 5.36226 7 5.88141 7H18.0014C18.5206 7 18.9414 6.57915 18.9414 6.06V5.94C18.9414 5.42085 18.5206 5 18.0014 5Z"/>
<path d="M18.0014 10H5.88141C5.36226 10 4.94141 10.4209 4.94141 10.94V11.06C4.94141 11.5791 5.36226 12 5.88141 12H18.0014C18.5206 12 18.9414 11.5791 18.9414 11.06V10.94C18.9414 10.4209 18.5206 10 18.0014 10Z"/>
<path d="M18.0014 0H5.88141C5.36226 0 4.94141 0.420852 4.94141 0.94V1.06C4.94141 1.57915 5.36226 2 5.88141 2H18.0014C18.5206 2 18.9414 1.57915 18.9414 1.06V0.94C18.9414 0.420852 18.5206 0 18.0014 0Z"/>
</svg>
