<svg width="28" height="28" viewBox="0 0 28 28" fill="none" xmlns="http://www.w3.org/2000/svg">
<path fill-rule="evenodd" clip-rule="evenodd" d="M28 14C28 21.732 21.732 28 14 28C6.26801 28 0 21.732 0 14C0 6.26801 6.26801 0 14 0C21.732 0 28 6.26801 28 14ZM6.64488 8.88649C6.81598 9.04432 6.90337 9.27612 6.88017 9.51063V17.9544C6.93095 18.259 6.83712 18.5701 6.62745 18.7925L4.66667 21.2267V21.5477H10.2266V21.2267L8.26579 18.7925C8.05458 18.5705 7.95495 18.2614 7.99564 17.9544V10.6519L12.8758 21.5477H13.4423L17.634 10.6519V19.3364C17.634 19.5682 17.634 19.6128 17.4858 19.7644L15.9782 21.2623V21.5833H23.2985V21.2623L21.8431 19.8001C21.7147 19.6998 21.6509 19.5351 21.6776 19.3721V8.62791C21.6509 8.46488 21.7147 8.30015 21.8431 8.19993L23.3333 6.73765V6.41667H18.1743L14.4967 15.8056L10.3137 6.41667H4.90196V6.73765L6.64488 8.88649Z" fill="#303030"/>
</svg>
