<svg id="pencil" width="14" height="14" viewBox="0 0 14 14" xmlns="http://www.w3.org/2000/svg">
<path d="M13.4788 2.88236L11.0813 0.476179C10.7684 0.181198 10.3584 0.0119427 9.9292 0.000608358C9.50005 -0.010726 9.08171 0.136652 8.75378 0.414707L0.878687 8.31823C0.595854 8.60448 0.419749 8.97967 0.379932 9.38081L0.00367762 13.0428C-0.00810967 13.1714 0.00852022 13.3011 0.0523817 13.4225C0.0962432 13.5439 0.166256 13.6542 0.25743 13.7453C0.339191 13.8267 0.436157 13.8911 0.542766 13.9348C0.649375 13.9785 0.76353 14.0007 0.878687 14H0.957438L4.60623 13.6663C5.00593 13.6263 5.37977 13.4496 5.66499 13.1657L13.5401 5.2622C13.8457 4.93813 14.0109 4.50567 13.9994 4.05958C13.988 3.61349 13.8007 3.19017 13.4788 2.88236ZM4.44873 11.9099L1.8237 12.1558L2.05995 9.52132L7.00376 4.62114L9.36628 6.9922L4.44873 11.9099ZM10.5038 5.81545L8.15877 3.46195L9.86504 1.70562L12.2538 4.10302L10.5038 5.81545Z"/>
</svg>
