<svg width="28" height="28" viewBox="0 0 28 28" fill="none" xmlns="http://www.w3.org/2000/svg">
<mask id="mask0_573_11252" style="mask-type:alpha" maskUnits="userSpaceOnUse" x="0" y="0" width="28" height="28">
<circle cx="14" cy="14" r="14" fill="#D9D9D9"/>
</mask>
<g mask="url(#mask0_573_11252)">
<path fill-rule="evenodd" clip-rule="evenodd" d="M28 13.7414C28.023 32.6965 -0.0158619 32.8092 6.73309e-06 13.7414C0.0153392 -4.68224 27.9778 -4.47839 28 13.7414ZM16.6487 5.28657C16.7652 5.35332 16.8684 5.44458 16.9583 5.56041C18.429 7.54048 19.9081 9.51439 21.3957 11.4822C21.0006 11.7986 20.5993 12.1066 20.1917 12.4064C18.6438 10.3298 17.0959 8.25315 15.5479 6.17655C15.9196 5.87861 16.2866 5.58191 16.6487 5.28657ZM13.7592 7.81959C15.7702 9.3978 17.7539 11.018 19.7101 12.6802C19.7318 12.7766 19.7089 12.8679 19.6413 12.9541C19.4006 13.2394 19.1598 13.5246 18.919 13.8098C18.8221 13.8314 18.7304 13.8086 18.6438 13.7414C16.7175 12.144 14.7912 10.5466 12.8649 8.94918C13.1553 8.56437 13.4534 8.18784 13.7592 7.81959ZM11.4889 11.1057C13.8493 12.1087 16.1884 13.1699 18.5062 14.2891C18.5762 14.3609 18.5877 14.4408 18.5406 14.5287C18.3383 14.9083 18.1549 15.2963 17.9902 15.6925C15.6326 14.5987 13.2821 13.4919 10.9386 12.3722C11.1507 11.9616 11.3341 11.5394 11.4889 11.1057ZM10.1818 14.5971C12.6738 15.1547 15.1735 15.691 17.6806 16.2059C17.7191 16.2556 17.742 16.3126 17.7494 16.3771C17.6466 16.8093 17.5548 17.2428 17.4742 17.6778C14.9191 17.1648 12.3737 16.6171 9.83782 16.0348C9.96158 15.5556 10.0763 15.0763 10.1818 14.5971ZM6.53558 16.5825C7.04006 16.5825 7.54462 16.5825 8.0491 16.5825C8.0491 18.1342 8.0491 19.686 8.0491 21.2377C11.7412 21.2377 15.4333 21.2377 19.1254 21.2377C19.1254 19.686 19.1254 18.1342 19.1254 16.5825C19.6299 16.5825 20.1344 16.5825 20.6389 16.5825C20.6389 18.6363 20.6389 20.6901 20.6389 22.7439C15.9378 22.7439 11.2367 22.7439 6.53558 22.7439C6.53558 20.6901 6.53558 18.6363 6.53558 16.5825ZM9.70022 18.0886C12.2916 18.0886 14.8829 18.0886 17.4742 18.0886C17.4742 18.5906 17.4742 19.0927 17.4742 19.5947C14.8829 19.5947 12.2916 19.5947 9.70022 19.5947C9.70022 19.0927 9.70022 18.5906 9.70022 18.0886Z" fill="#303030"/>
</g>
</svg>
