<svg width="81" height="81" viewBox="0 0 81 81" fill="none" xmlns="http://www.w3.org/2000/svg">
<circle cx="40.5" cy="40.5" r="40.5" fill="#DFF1E4"/>
<circle cx="40.5" cy="40.5" r="29.5" fill="#5BB282"/>
<path d="M36.2308 51C35.9914 50.9993 35.7548 50.9517 35.5356 50.8603C35.3164 50.7689 35.1193 50.6356 34.9565 50.4686L26.4732 41.8833C26.156 41.5618 25.9862 41.1336 26.0009 40.693C26.0156 40.2523 26.2138 39.8353 26.5517 39.5336C26.8897 39.2319 27.3397 39.0703 27.8029 39.0843C28.2662 39.0983 28.7045 39.2868 29.0217 39.6083L36.2133 46.8983L50.8934 31.6208C51.0424 31.4443 51.2277 31.2987 51.438 31.1928C51.6483 31.087 51.8792 31.0231 52.1163 31.0052C52.3535 30.9873 52.592 31.0157 52.8173 31.0887C53.0425 31.1617 53.2496 31.2777 53.426 31.4296C53.6024 31.5815 53.7443 31.7661 53.8429 31.9721C53.9416 32.1781 53.9949 32.4011 53.9997 32.6274C54.0044 32.8537 53.9605 33.0785 53.8706 33.2881C53.7807 33.4976 53.6467 33.6875 53.4768 33.846L37.5225 50.452C37.3613 50.622 37.1649 50.7584 36.9456 50.8527C36.7263 50.947 36.4889 50.9972 36.2482 51H36.2308Z" fill="white"/>
</svg>
