<svg width="1083" height="587" viewBox="0 0 1083 587" fill="none" xmlns="http://www.w3.org/2000/svg">
<g opacity="0.05">
<path d="M134.828 585.206C134.828 585.206 12.4195 437.435 72.2423 285.309C111.24 186.147 257.512 131.811 340.06 186.147C375.218 209.29 488.018 186.927 548.244 91.117C665.28 -95.0651 1073.74 18.0047 999.378 303.86C963.39 442.191 1108.9 447.221 1034.76 585.498L134.828 585.206Z" fill="#EBF3FA"/>
<path d="M225.438 342.004C225.438 342.004 213.093 327.571 224.677 318.402C224.677 318.402 233.139 313.27 240.04 313.686C240.04 313.686 230.264 330.114 233.427 331.748C236.59 333.382 243.002 312.653 243.002 312.653C243.002 312.653 262.259 310.782 268.454 313.766C268.454 313.766 251.992 327.265 255.46 328.067C258.929 328.87 276.708 315.622 276.708 315.622C276.708 315.622 294.629 318.679 293.672 329.636C292.715 340.593 286.542 343.974 283.827 343.686C281.112 343.394 265.236 337.321 264.89 339.55C264.545 341.778 274.102 349.062 280.795 349.401C280.795 349.401 268.159 363.367 259.762 359.337C251.366 355.306 250.649 348.92 245.415 346.523C240.182 344.127 235.712 344.134 237.874 346.578C240.036 349.022 249.51 351.396 252.502 356.703C255.493 362.01 258.179 365.588 249.492 364.279C240.804 362.97 226.683 356.598 226.06 349.303C225.438 342.004 225.438 342.004 225.438 342.004Z" fill="#C8DBF4"/>
<path d="M284.86 329.936C284.86 329.936 236.185 328.058 225.434 342.005C225.434 342.005 223.057 349.14 215.742 355.639L214.603 358.754C214.603 358.754 223.039 349.84 226.056 349.304C226.056 349.304 221.336 332.019 284.86 329.936Z" fill="#C8DBF4"/>
<path d="M215.746 355.64C215.746 355.64 205.297 363.383 204.572 377.218L206.468 377.389C206.468 377.389 209.806 363.084 215.837 357.489C221.867 351.894 215.746 355.64 215.746 355.64Z" fill="#C8DBF4"/>
<path d="M182.272 323.854C182.272 323.854 201.911 312.832 192.747 297.878C192.747 297.878 185.417 288.693 177.559 286.334C177.559 286.334 181.748 308.637 177.559 309.163C173.37 309.688 174.68 283.97 174.68 283.97C174.68 283.97 153.993 273.998 145.877 274.786C145.877 274.786 158.706 296.565 154.517 296.039C150.328 295.514 135.927 273.473 135.927 273.473C135.927 273.473 114.719 269.537 111.313 282.132C107.91 294.726 113.409 301.025 116.55 301.813C119.691 302.601 139.854 302.338 139.33 304.961C138.806 307.583 125.19 311.785 117.598 309.422C117.598 309.422 125.976 330.15 136.975 329.103C147.974 328.053 151.376 321.232 158.182 320.707C164.992 320.182 169.964 322.02 166.561 323.854C163.158 325.693 151.635 324.456 146.136 329.143C140.636 333.827 136.185 336.715 146.398 338.812C156.61 340.913 174.939 339.6 178.604 331.729C182.272 323.854 182.272 323.854 182.272 323.854Z" fill="#C8DBF4"/>
<path d="M121.005 286.066C121.005 286.066 175.991 303.91 182.276 323.854C182.276 323.854 182.014 332.775 187.513 343.01V346.945C187.513 346.945 181.752 333.563 178.611 331.725C178.608 331.725 190.913 314.407 121.005 286.066Z" fill="#C8DBF4"/>
<path d="M187.51 343.011C187.51 343.011 195.99 355.916 191.157 371.625L188.977 371.038C188.977 371.038 191.095 353.735 186.658 345.032C182.218 336.329 187.51 343.011 187.51 343.011Z" fill="#C8DBF4"/>
<path d="M213.518 308.657C213.518 308.657 187.63 294.129 199.713 274.411C199.713 274.411 209.376 262.305 219.731 259.19C219.731 259.19 214.209 288.592 219.731 289.285C225.252 289.978 223.527 256.079 223.527 256.079C223.527 256.079 250.794 242.934 261.494 243.973C261.494 243.973 244.581 272.682 250.102 271.993C255.624 271.3 274.607 242.244 274.607 242.244C274.607 242.244 302.566 237.054 307.05 253.661C311.534 270.268 304.288 278.565 300.146 279.605C296.004 280.641 269.428 280.298 270.116 283.756C270.808 287.213 288.754 292.75 298.763 289.635C298.763 289.635 287.717 316.962 273.221 315.579C258.724 314.197 254.237 305.202 245.262 304.509C236.287 303.816 229.728 306.238 234.216 308.66C238.703 311.082 253.891 309.455 261.137 315.63C268.384 321.805 274.254 325.61 260.792 328.378C247.329 331.146 223.17 329.414 218.337 319.037C213.518 308.657 213.518 308.657 213.518 308.657Z" fill="#D4E4F8"/>
<path d="M294.282 258.844C294.282 258.844 221.801 282.366 213.517 308.653C213.517 308.653 213.863 320.412 206.613 333.904V339.094C206.613 339.094 214.205 321.452 218.347 319.033C218.347 319.033 202.126 296.204 294.282 258.844Z" fill="#D4E4F8"/>
<path d="M206.614 333.908C206.614 333.908 195.437 350.919 201.81 371.626L204.685 370.853C204.685 370.853 201.893 348.045 207.742 336.574C213.587 325.099 206.614 333.908 206.614 333.908Z" fill="#D4E4F8"/>
<path d="M212.644 416.53C240.65 416.53 263.35 393.778 263.35 365.711H161.935C161.935 393.778 184.638 416.53 212.644 416.53Z" fill="#D4E4F8"/>
<path d="M264.053 419.116H161.236C161.236 415.654 164.039 412.846 167.493 412.846H257.796C261.25 412.846 264.053 415.654 264.053 419.116Z" fill="#D4E4F8"/>
<path d="M264.503 365.711H160.268V367.268H264.503V365.711Z" fill="#9FC1F4"/>
<path d="M474.296 584.154L474.547 584.15C476.596 584.114 478.179 582.432 477.986 580.503L464.316 443.699L452.39 444.764L472.018 582.305C472.17 583.377 473.149 584.172 474.296 584.154Z" fill="#8CB4F4"/>
<path d="M342.679 584.154L342.428 584.15C340.379 584.114 338.796 582.432 338.989 580.503L352.659 443.699L364.585 444.764L344.957 582.305C344.808 583.377 343.826 584.172 342.679 584.154Z" fill="#8CB4F4"/>
<path d="M570.725 584.154L570.976 584.15C573.025 584.114 574.609 582.432 574.416 580.503L560.746 443.699L548.819 444.764L568.447 582.305C568.6 583.377 569.579 584.172 570.725 584.154Z" fill="#8CB4F4"/>
<path d="M346.752 423.799L322.488 303.722C319.372 287.466 332.817 272.599 350.268 273L397.062 274.072C413.203 274.441 427.237 285.27 431.724 300.812L467.221 423.799H346.752Z" fill="#8CB4F4"/>
<path d="M361.43 423.799L337.165 303.722C334.05 287.466 347.494 272.599 364.946 273L411.739 274.072C427.881 274.441 441.915 285.27 446.402 300.812L481.898 423.799H361.43Z" fill="#8CB4F4"/>
<path d="M353.515 445.698H538.643C542.363 445.698 545.405 442.649 545.405 438.921V430.576C545.405 426.848 542.363 423.799 538.643 423.799H346.753V438.921C346.753 442.649 349.796 445.698 353.515 445.698Z" fill="#8CB4F4"/>
<path d="M440.39 445.698H558.405C561.401 445.698 563.854 443.239 563.854 440.237V429.255C563.854 426.253 561.401 423.795 558.405 423.795H440.39C437.395 423.795 434.942 426.253 434.942 429.255V440.237C434.942 443.243 437.391 445.698 440.39 445.698Z" fill="#8CB4F4"/>
<path d="M291.516 422.233V426.329C291.516 427.763 291.054 428.933 290.487 428.933H141.317C140.753 428.933 140.287 427.763 140.287 426.329V422.233C140.287 420.8 140.749 419.629 141.317 419.629H290.487C291.051 419.629 291.516 420.803 291.516 422.233Z" fill="#9ABFE2"/>
<path d="M291.516 422.233V426.329C291.516 427.763 291.09 428.933 290.573 428.933H172.147C171.626 428.933 171.204 427.763 171.204 426.329V422.233C171.204 420.8 171.63 419.629 172.147 419.629H290.569C291.09 419.629 291.516 420.803 291.516 422.233Z" fill="#BAD4F4"/>
<path d="M253.76 428.938H147.861V583.628H253.76V428.938Z" fill="#C8DBF4"/>
<path d="M283.437 428.938H177.538V583.628H283.437V428.938Z" fill="#DFEBFD"/>
<path d="M277.749 575.083H183.23V433.305H277.749V575.083ZM184.25 574.062H276.726V434.33H184.25V574.062Z" fill="#B7D3F3"/>
<path d="M277.239 480.207H183.739V481.228H277.239V480.207Z" fill="#B7D3F3"/>
<path d="M277.24 528.021H183.74V529.043H277.24V528.021Z" fill="#B7D3F3"/>
<path d="M240.068 442.448H222.719C221.878 442.448 221.187 441.759 221.187 440.912C221.187 440.07 221.874 439.377 222.719 439.377H240.068C240.909 439.377 241.601 440.066 241.601 440.912C241.601 441.759 240.913 442.448 240.068 442.448Z" fill="#B7D3F3"/>
<path d="M240.068 489.208H222.719C221.878 489.208 221.187 488.519 221.187 487.672C221.187 486.83 221.874 486.137 222.719 486.137H240.068C240.909 486.137 241.601 486.826 241.601 487.672C241.601 488.515 240.913 489.208 240.068 489.208Z" fill="#B7D3F3"/>
<path d="M240.068 537.948H222.719C221.878 537.948 221.187 537.259 221.187 536.413C221.187 535.57 221.874 534.877 222.719 534.877H240.068C240.909 534.877 241.601 535.566 241.601 536.413C241.601 537.259 240.913 537.948 240.068 537.948Z" fill="#B7D3F3"/>
<path d="M707.248 150.803H640.125C637.042 150.803 634.523 148.275 634.523 145.189V80.2618C634.523 77.1724 637.046 74.6484 640.125 74.6484H707.248C710.331 74.6484 712.85 77.1761 712.85 80.2618V145.189C712.85 148.275 710.331 150.803 707.248 150.803Z" fill="#C0D8FB"/>
<path d="M704.34 147.505H643.033C640.219 147.505 637.916 145.196 637.916 142.377V83.0736C637.916 80.2541 640.219 77.9453 643.033 77.9453H704.34C707.154 77.9453 709.458 80.2541 709.458 83.0736V142.377C709.458 145.196 707.154 147.505 704.34 147.505Z" fill="#DFEBFD"/>
<path d="M673.684 86.5211C674.581 86.5211 675.307 85.7928 675.307 84.8943C675.307 83.9959 674.581 83.2676 673.684 83.2676C672.788 83.2676 672.061 83.9959 672.061 84.8943C672.061 85.7928 672.788 86.5211 673.684 86.5211Z" fill="#B7D3F3"/>
<path d="M685.156 87.196C685.593 86.4118 686.579 86.1273 687.361 86.565C688.144 87.0027 688.428 87.9911 687.991 88.7753C687.554 89.5595 686.568 89.844 685.785 89.4063C685.003 88.9686 684.719 87.9802 685.156 87.196Z" fill="#B7D3F3"/>
<path d="M696.373 96.1263C697.126 95.6412 698.131 95.8564 698.615 96.6114C699.099 97.3664 698.884 98.3731 698.131 98.8582C697.377 99.3433 696.373 99.1281 695.889 98.3731C695.401 97.6218 695.619 96.6151 696.373 96.1263Z" fill="#B7D3F3"/>
<path d="M701.927 109.947C702.823 109.947 703.551 110.677 703.551 111.574C703.551 112.471 702.823 113.201 701.927 113.201C701.032 113.201 700.304 112.471 700.304 111.574C700.308 110.677 701.032 109.947 701.927 109.947Z" fill="#B7D3F3"/>
<path d="M699.092 125.99C699.725 126.624 699.725 127.653 699.092 128.288C698.458 128.922 697.432 128.922 696.799 128.288C696.165 127.653 696.165 126.624 696.799 125.99C697.432 125.355 698.458 125.355 699.092 125.99Z" fill="#B7D3F3"/>
<path d="M688.901 136.228C689.534 136.863 689.534 137.891 688.901 138.526C688.268 139.16 687.242 139.16 686.608 138.526C685.975 137.891 685.975 136.863 686.608 136.228C687.242 135.593 688.268 135.593 688.901 136.228Z" fill="#B7D3F3"/>
<path d="M672.061 141.506C672.061 140.608 672.789 139.879 673.684 139.879C674.58 139.879 675.307 140.608 675.307 141.506C675.307 142.403 674.58 143.132 673.684 143.132C672.789 143.132 672.061 142.403 672.061 141.506Z" fill="#B7D3F3"/>
<path d="M662.162 87.196C661.725 86.4118 660.739 86.1273 659.956 86.565C659.174 87.0027 658.89 87.9911 659.327 88.7753C659.763 89.5595 660.75 89.844 661.532 89.4063C662.318 88.9686 662.599 87.9802 662.162 87.196Z" fill="#B7D3F3"/>
<path d="M650.948 96.1244C650.195 95.6393 649.19 95.8544 648.706 96.6095C648.222 97.3645 648.437 98.3712 649.19 98.8563C649.944 99.3414 650.948 99.1262 651.432 98.3712C651.916 97.6198 651.698 96.6131 650.948 96.1244Z" fill="#B7D3F3"/>
<path d="M645.391 109.947C644.496 109.947 643.768 110.677 643.768 111.574C643.768 112.471 644.496 113.201 645.391 113.201C646.286 113.201 647.014 112.471 647.014 111.574C647.014 110.677 646.286 109.947 645.391 109.947Z" fill="#B7D3F3"/>
<path d="M648.226 125.99C647.593 126.624 647.593 127.653 648.226 128.288C648.859 128.922 649.886 128.922 650.519 128.288C651.152 127.653 651.152 126.624 650.519 125.99C649.889 125.355 648.859 125.355 648.226 125.99Z" fill="#B7D3F3"/>
<path d="M659.564 139.003C660.46 139.003 661.187 138.275 661.187 137.377C661.187 136.478 660.46 135.75 659.564 135.75C658.667 135.75 657.94 136.478 657.94 137.377C657.94 138.275 658.667 139.003 659.564 139.003Z" fill="#B7D3F3"/>
<path d="M673.248 111.576C673.248 110.679 673.975 109.949 674.871 109.949C675.766 109.949 676.494 110.679 676.494 111.576C676.494 112.473 675.766 113.203 674.871 113.203C673.975 113.203 673.248 112.473 673.248 111.576Z" fill="#B7D3F3"/>
<path d="M675.093 91.2598H674.649V111.576H675.093V91.2598Z" fill="#B7D3F3"/>
<path d="M685.009 102.549L674.262 111.004L675.082 112.051L685.829 103.596L685.009 102.549Z" fill="#B7D3F3"/>
<path d="M508.028 398.669C498.012 416.136 485.415 422.881 485.415 422.881H433.01C433.01 422.881 515.667 385.341 508.028 398.669Z" fill="#233862"/>
<path d="M572.662 572.223C572.094 577.734 579.745 579.156 588.614 579.696C597.484 580.236 594.783 582.027 606.921 584.365C619.059 586.703 623.969 583.42 624.868 581.782C625.668 580.331 620.038 577.985 614.04 575.337C613.283 575.006 612.53 574.666 611.773 574.327C605.021 571.267 601.283 565.128 596.057 559.42C591.107 554.015 586.532 536.824 586.532 536.824L570.045 533.111C570.045 533.111 574.522 548.587 576.062 555.189C576.968 559.074 575.523 563.389 574.245 566.671C573.554 568.451 572.859 570.278 572.662 572.223Z" fill="#FFB27D"/>
<path d="M588.614 579.691C597.483 580.23 594.783 582.021 606.921 584.359C619.058 586.697 623.968 583.415 624.867 581.777C625.668 580.325 620.037 577.98 614.04 575.332L613.945 575.434C613.945 575.434 605.363 578.254 595.522 575.456C587.5 573.18 579.773 568.278 574.245 566.662C573.557 568.449 572.862 570.277 572.665 572.217C572.098 577.728 579.744 579.151 588.614 579.691Z" fill="#0F2549"/>
<path d="M547.68 380.774C538.807 374.53 480.116 363.402 450.166 360.181L417.061 331.381C417.061 331.381 388.884 373.206 388.658 405.204C388.553 420.126 395.41 421.607 395.413 421.611C395.413 421.611 501.538 422.398 506.19 422.88C513.803 423.668 523.848 442.678 526.356 459.992C528.867 477.307 573.12 547.727 573.12 547.727C573.12 547.727 582.35 550.689 586.616 550.441C591.205 550.171 593.331 548.632 593.331 548.632C593.331 548.632 567.69 394.853 547.68 380.774Z" fill="#233862"/>
<path d="M545.213 572.223C544.645 577.734 552.295 579.156 561.165 579.696C570.034 580.236 567.334 582.027 579.472 584.365C591.609 586.703 596.519 583.42 597.418 581.782C598.219 580.331 592.588 577.985 586.59 575.337C585.837 575.006 585.08 574.666 584.323 574.327C577.572 571.267 573.834 565.128 568.608 559.42C563.658 554.015 559.083 536.824 559.083 536.824L542.592 533.111C542.592 533.111 547.069 548.587 548.608 555.189C549.515 559.074 548.07 563.389 546.792 566.671C546.104 568.451 545.409 570.278 545.213 572.223Z" fill="#FFB27D"/>
<path d="M561.164 579.691C570.034 580.23 567.333 582.021 579.471 584.359C591.609 586.697 596.519 583.415 597.418 581.777C598.218 580.325 592.588 577.98 586.59 575.332L586.496 575.434C586.496 575.434 577.914 578.254 568.072 575.456C560.051 573.18 552.324 568.278 546.796 566.662C546.108 568.449 545.413 570.277 545.216 572.217C544.645 577.728 552.295 579.151 561.164 579.691Z" fill="#233862"/>
<path d="M519.988 380.774C512.279 375.35 489.095 371.145 463.506 368.023C456.431 367.158 450.622 362.005 448.893 355.074L389.369 331.381C389.369 331.381 361.192 373.206 360.966 405.204C360.861 420.126 367.717 421.607 367.721 421.611C367.721 421.611 473.846 422.398 478.497 422.88C486.111 423.668 496.156 442.678 498.664 459.992C501.175 477.307 545.428 547.727 545.428 547.727C545.428 547.727 554.658 550.689 558.923 550.441C563.513 550.171 565.638 548.632 565.638 548.632C565.638 548.632 539.998 394.853 519.988 380.774Z" fill="#2B478B"/>
<path d="M440.34 157.602C432.162 153.298 419.715 152.714 417.691 152.444C393.496 149.187 378.934 184.421 378.075 195.097C376.495 214.775 366.108 217.777 351.488 230.101C322.172 254.812 330.768 283.529 346.801 294.197C356.42 300.598 373.373 294.197 373.373 294.197C373.613 294.365 419.74 268.355 442.476 255.808C476.564 250.95 461.183 168.569 440.34 157.602Z" fill="#233862"/>
<path d="M435.292 243.682C435.398 243.737 424.541 248.686 416.701 246.089C409.328 243.656 402.835 232.532 402.937 232.514C406.136 232.05 409.39 228.884 410.299 210.137L411.715 210.494L435.543 216.531C435.543 216.531 434.601 224.095 434.211 231.248C433.887 237.255 433.953 242.971 435.292 243.682Z" fill="#FFB27D"/>
<path d="M435.546 216.532C435.546 216.532 435.546 218.09 434.654 225.126C421.177 221.719 415.238 217.24 411.045 212.115L435.546 216.532Z" fill="#ED975D"/>
<path d="M440.631 217.488C440.631 217.488 409.124 222.631 406.23 202.916C403.337 183.202 397.324 170.589 417.316 166.471C437.312 162.357 442.334 169.302 444.896 175.645C447.459 181.987 448.751 215.642 440.631 217.488Z" fill="#FFB27D"/>
<path d="M440.66 165.643C440.66 165.643 426.35 188.279 413.579 193.641C400.804 199.003 394.529 196.282 394.529 196.282C394.529 196.282 400.342 187.451 401.856 175.594C402.303 172.099 404.574 169.101 407.839 167.792C417.003 164.111 434.735 158.312 440.66 165.643Z" fill="#233862"/>
<path d="M428.089 167.832C428.089 167.832 436.474 172.14 439.928 176.181C443.262 180.076 447.113 190.654 446.836 195.403C446.836 195.403 450.974 172.643 442.356 164.819C433.221 156.525 428.089 167.832 428.089 167.832Z" fill="#233862"/>
<path d="M460.499 291.845C459.541 356.032 460.237 342.617 453.23 348.708C451.542 350.174 446.796 351.049 440.55 351.462C420.911 352.767 386.391 349.525 385.077 345.888C380.546 333.305 383.745 329.395 379.967 310.125C379.574 308.076 379.086 305.858 378.515 303.443C375.363 290.21 372.298 285.706 383.475 264.449C393.615 245.19 405.534 229.547 406.484 230.108C433.231 246.022 434.148 232.683 434.148 232.683C434.148 232.683 460.968 260.539 460.499 291.845Z" fill="white"/>
<path d="M434.146 232.684C434.146 232.684 461.522 237.334 464.754 249.21C467.986 261.086 487.006 330.901 487.006 330.901C487.006 330.901 473.016 333.421 466.552 326.944C460.088 320.466 444.06 266.845 444.06 266.845L434.146 232.684Z" fill="white"/>
<path d="M440.551 351.464C420.912 352.77 386.392 349.528 385.078 345.891C380.546 333.308 383.746 329.398 379.968 310.128L389.441 283.396C389.441 283.396 387.876 313.163 396.633 320.994C405.383 328.821 432.497 336.109 436.755 342.649C438.808 345.785 440.158 348.933 440.551 351.464Z" fill="#EBF3FF"/>
<path d="M418.052 338.943C418.052 338.943 437.429 334.621 440.551 336.343C443.678 338.064 451.317 344.341 452.274 346.526C453.231 348.711 445.315 344.87 442.739 344.177C441.072 343.729 436.682 345.257 434.51 345.983C425.367 349.039 419.762 347.467 419.762 347.467L418.052 338.943Z" fill="#FFB27D"/>
<path d="M406.481 230.109C406.481 230.109 379.061 231.714 370.054 244.305C357.377 262.024 332.228 337.544 346.64 347.614C362.873 358.958 420.512 350.583 420.512 350.583C420.512 350.583 422.43 341.6 419.762 337.252C417.094 332.904 373.722 325.883 371.72 323.877C369.719 321.871 396.742 284.759 396.742 278.74C396.742 272.722 406.481 230.109 406.481 230.109Z" fill="white"/>
<path d="M441.49 341.748C441.49 341.748 445.548 346.997 446.88 347.624C448.212 348.251 449.071 348.095 449.071 348.095L446.334 343.16L441.49 341.748Z" fill="#FFB27D"/>
<path d="M440.551 336.344L452.354 342.088C452.354 342.088 451.852 342.913 450.399 342.847C448.947 342.781 445.279 341.436 445.279 341.436L440.551 336.344Z" fill="#FFB27D"/>
<path d="M484.033 349.963H429.214C429.214 347.544 431.172 345.582 433.585 345.582H484.033V349.963V349.963Z" fill="#ED7D2B"/>
<path d="M483.873 290.131H568.626L548.296 349.963H462.997L483.873 290.131Z" fill="#ED7D2B"/>
<path d="M569.875 290.131L549.544 349.963H464.241L485.121 290.131H569.875Z" fill="#F99746"/>
<path d="M524.181 319.493C523.653 321.78 521.378 323.633 519.096 323.633C516.814 323.633 515.391 321.78 515.919 319.493C516.447 317.206 518.721 315.354 521.003 315.354C523.285 315.354 524.708 317.206 524.181 319.493Z" fill="white"/>
<path d="M410.266 363.422H781.676C783.237 363.422 784.504 362.153 784.504 360.588V352.797C784.504 351.232 783.237 349.963 781.676 349.963H410.266C408.705 349.963 407.438 351.232 407.438 352.797V360.588C407.438 362.153 408.705 363.422 410.266 363.422Z" fill="#182D4F"/>
<path d="M790.768 585.151L790.928 585.133C792.832 584.896 794.178 583.196 793.938 581.333L760.84 356.812L748.724 357.159L787.667 582.894C787.914 584.338 789.283 585.337 790.768 585.151Z" fill="#182D4F"/>
<path d="M397.827 585.151L397.667 585.133C395.763 584.896 394.416 583.196 394.657 581.333L427.754 356.812L439.87 357.159L400.928 582.894C400.684 584.338 399.315 585.337 397.827 585.151Z" fill="#182D4F"/>
<path d="M474.449 585.151L474.289 585.133C472.385 584.896 471.039 583.196 471.279 581.333L504.376 356.812L516.492 357.159L477.55 582.894C477.302 584.338 475.934 585.337 474.449 585.151Z" fill="#182D4F"/>
<path d="M669.709 584.969H735.385C738.544 581.107 737.379 566.852 736.902 562.195C736.804 561.257 736.735 560.71 736.735 560.71C736.735 560.71 714.308 542.732 711.226 556.497C711.131 556.928 711.018 557.351 710.894 557.767C707.015 570.642 689.603 576.493 679.551 578.123C673.018 579.192 670.601 582.595 669.709 584.969Z" fill="#233862"/>
<path d="M848.917 371.102C846.547 371.102 736.416 391.823 718.2 414.422C709.101 425.711 707.747 556.091 707.747 556.091C707.747 556.091 719.004 570.079 743.32 561.956C743.32 561.956 761.146 472.751 759.832 445.698C759.468 438.218 835.079 444.615 848.917 441.026C862.754 437.437 896.569 407.266 889.119 392.57C881.669 377.871 848.917 371.102 848.917 371.102Z" fill="#233862"/>
<path d="M718.672 339.174C718.672 339.174 696.456 339.473 691.205 341.731C685.953 343.988 675.293 349.168 678.146 349.963C680.999 350.758 694.608 349.635 697.548 350.087C700.489 350.539 704.114 349.963 705.916 349.963C707.717 349.963 716.117 349.963 716.117 349.963L718.672 339.174Z" fill="#FFB27D"/>
<path d="M692.701 285.748C692.701 285.748 685.127 280.324 677.772 279.27C673.575 278.668 669.499 277.921 667.035 277.049C660.248 274.653 646.669 262.416 647.699 260.982C650.992 256.383 666.846 266.118 669.612 265.071C672.378 264.024 664.295 258.265 667.104 256.237C668.575 255.179 672.011 260.482 674.817 261.015C678.616 261.737 681.586 267.113 682.733 267.394C684.96 267.941 694.714 275.211 694.714 275.211L692.701 285.748Z" fill="#FFB27D"/>
<path d="M837.947 222.406C837.947 222.406 821.037 227.659 804.376 273.638C787.714 319.617 781.388 322.101 775.332 323.903C769.276 325.708 716.117 336.315 716.117 336.315V349.96H798.025C798.025 349.96 828.739 320.678 837.947 300.968C847.155 281.261 837.947 222.406 837.947 222.406Z" fill="#ED7D2B"/>
<path d="M640.685 584.969H706.36C709.519 581.107 708.354 566.852 707.877 562.195C707.779 561.257 707.71 560.71 707.71 560.71C707.71 560.71 685.283 542.732 682.201 556.497C682.106 556.928 681.993 557.351 681.869 557.767C677.99 570.642 660.578 576.493 650.526 578.123C643.993 579.192 641.576 582.595 640.685 584.969Z" fill="#1B3051"/>
<path d="M816.466 371.102C814.093 371.102 703.965 391.823 685.749 414.422C676.65 425.711 675.296 556.091 675.296 556.091C675.296 556.091 686.557 570.079 710.869 561.956C710.869 561.956 728.695 472.751 727.382 445.698C727.018 438.218 802.629 444.615 816.466 441.026C830.304 437.437 864.118 407.266 856.668 392.57C849.215 377.871 816.466 371.102 816.466 371.102Z" fill="#2B478B"/>
<path d="M823.356 236.977C831.28 236.32 839.585 234.205 846.766 231.871C855.741 228.953 862.973 224.685 858.314 216.468C854.019 208.892 847.064 191.968 847.534 177.947L830.836 191.435L819.491 200.594C819.491 200.594 819.538 205.996 820.78 215.461C821.005 217.186 821.271 219.05 821.584 221.038C821.835 222.646 821.1 224.251 819.72 225.108C819.633 225.163 819.549 225.214 819.466 225.269C813.821 228.818 816.722 237.528 823.356 236.977Z" fill="#FFB27D"/>
<path d="M819.491 198.365C819.491 198.365 818.913 200.328 819.91 207.568C830.024 205.915 839.476 197.829 839.476 197.829C834.326 196.414 832.455 190.837 828.619 191.359L819.491 198.365Z" fill="#ED975D"/>
<path d="M810.133 200.019C810.133 200.019 849.033 206.496 852.687 182.154C856.337 157.814 863.82 142.258 839.137 137.093C814.454 131.929 808.223 140.489 805.034 148.317C801.843 156.14 800.11 197.706 810.133 200.019Z" fill="#FFB27D"/>
<path d="M799.313 137.542C797.642 143.403 802.112 150.541 809.617 152.894C820.757 156.381 818.293 170.077 823.308 169.891C828.32 169.705 830.344 162.02 834.82 168.158C838.638 173.396 831.643 179.604 832.123 182.478C832.95 187.409 840.658 197.498 847.602 196.991C854.546 196.484 867.543 163.406 864.945 153.171C862.346 142.936 851.948 132.144 842.107 130.656C832.265 129.167 818.599 133.424 815.443 133.424C812.288 133.424 800.216 134.376 799.313 137.542Z" fill="#2B478B"/>
<path d="M889.639 256.19C884.016 233.51 868.475 209.714 857.968 209.732C840.061 209.765 814.323 214.503 803.932 240.196C796.278 259.118 786.069 367.968 797.606 375.708C823.982 393.405 885.122 429.529 895.983 392.69C905.937 358.933 899.396 295.552 889.639 256.19Z" fill="#F99746"/>
<path d="M846.151 233.619C841.044 220.302 824.568 215.699 813.333 224.46C807.255 229.198 799.816 235.946 790.826 245.538C757.412 281.199 750.62 280.977 744.346 280.24C738.071 279.503 685.051 268.225 685.051 268.225C685.051 268.225 682.336 270.231 680.738 273.477C678.605 277.811 679.679 280.765 679.679 280.765C677.601 279.419 698.473 293.837 708.861 299.586C722.582 307.176 743.254 314.296 751.487 316.998C753.82 317.764 756.338 317.728 758.649 316.893C770.871 312.479 811.91 296.391 845.321 268.481C854.121 261.124 850.886 245.965 846.151 233.619Z" fill="#F99746"/>
<path d="M859.769 209.95L855.715 200.799C855.715 200.799 819.429 203.764 813.329 224.46C813.333 224.46 841.459 210.395 859.769 209.95Z" fill="white"/>
<path d="M947.868 584.154L948.119 584.15C950.168 584.114 951.751 582.432 951.558 580.503L937.888 443.699L925.961 444.764L945.589 582.305C945.739 583.377 946.721 584.172 947.868 584.154Z" fill="#8CB4F4"/>
<path d="M877.513 584.154L877.764 584.15C879.813 584.114 881.396 582.432 881.203 580.503L867.537 443.699L855.61 444.764L875.238 582.305C875.387 583.377 876.366 584.172 877.513 584.154Z" fill="#8CB4F4"/>
<path d="M745.434 584.154L745.183 584.15C743.134 584.114 741.551 582.432 741.743 580.503L755.413 443.699L767.34 444.764L747.712 582.305C747.559 583.377 746.58 584.172 745.434 584.154Z" fill="#73A2E5"/>
<path d="M944.003 424.317L956.974 310.058C958.674 293.594 953.178 277.468 929.466 276.221L887.754 273.675C863.031 272.654 851.872 293.273 848.742 309.146L823.979 434.745L944.003 424.317Z" fill="#8CB4F4"/>
<path d="M937.033 445.698H751.905C748.185 445.698 745.143 442.649 745.143 438.921V430.576C745.143 426.848 748.185 423.799 751.905 423.799H943.795V438.921C943.795 442.649 940.752 445.698 937.033 445.698Z" fill="#73A2E5"/>
<path d="M938.544 445.698H829.235C826.345 445.698 823.983 443.331 823.983 440.435V429.062C823.983 426.166 826.345 423.799 829.235 423.799H943.796V440.435C943.796 443.331 941.434 445.698 938.544 445.698Z" fill="#8CB4F4"/>
</g>
</svg>
