<svg id="box" width="14" height="14" viewBox="0 0 14 14" xmlns="http://www.w3.org/2000/svg">
<path d="M13.9862 2.33333C13.9862 1.71449 13.7404 1.121 13.3028 0.683418C12.8652 0.245833 12.2717 0 11.6529 0H2.31952C1.84973 0.00278162 1.39172 0.147309 1.00543 0.41467C0.619131 0.682032 0.322537 1.05977 0.154454 1.49847C-0.0136298 1.93717 -0.0453731 2.41639 0.0633772 2.87342C0.172128 3.33046 0.416306 3.74402 0.763963 4.06V11.6667C0.763963 12.2855 1.0098 12.879 1.44738 13.3166C1.88497 13.7542 2.47846 14 3.0973 14H10.8751C11.4939 14 12.0874 13.7542 12.525 13.3166C12.9626 12.879 13.2084 12.2855 13.2084 11.6667V4.06C13.4515 3.84255 13.6464 3.57653 13.7803 3.27912C13.9143 2.98171 13.9844 2.65952 13.9862 2.33333ZM2.31952 1.55556H11.6529C11.8591 1.55556 12.057 1.6375 12.2028 1.78336C12.3487 1.92922 12.4306 2.12705 12.4306 2.33333C12.4306 2.53961 12.3487 2.73744 12.2028 2.88331C12.057 3.02917 11.8591 3.11111 11.6529 3.11111H2.31952C2.11324 3.11111 1.91541 3.02917 1.76955 2.88331C1.62369 2.73744 1.54174 2.53961 1.54174 2.33333C1.54174 2.12705 1.62369 1.92922 1.76955 1.78336C1.91541 1.6375 2.11324 1.55556 2.31952 1.55556ZM11.6529 11.6667C11.6529 11.8729 11.5709 12.0708 11.425 12.2166C11.2792 12.3625 11.0814 12.4444 10.8751 12.4444H3.0973C2.89102 12.4444 2.69319 12.3625 2.54732 12.2166C2.40146 12.0708 2.31952 11.8729 2.31952 11.6667V4.66667H11.6529V11.6667Z"/>
<path d="M8.64332 7H5.32999C4.95627 7 4.65332 7.30295 4.65332 7.67667V7.87889C4.65332 8.2526 4.95627 8.55556 5.32999 8.55556H8.64332C9.01703 8.55556 9.31999 8.2526 9.31999 7.87889V7.67667C9.31999 7.30295 9.01703 7 8.64332 7Z"/>
</svg>
