<svg width="42" height="42" viewBox="0 0 42 42" fill="none" xmlns="http://www.w3.org/2000/svg">
<circle opacity="0.3" cx="21" cy="21" r="21" fill="#D9D9D9"/>
<path d="M14 23H25.86L22.23 27.36C22.146 27.4611 22.0826 27.5778 22.0437 27.7034C22.0047 27.829 21.9909 27.961 22.003 28.0919C22.0274 28.3564 22.1558 28.6003 22.36 28.77C22.5642 28.9397 22.8275 29.0214 23.0919 28.997C23.3563 28.9726 23.6003 28.8442 23.77 28.64L28.77 22.64C28.8036 22.5923 28.8337 22.5421 28.86 22.49C28.86 22.44 28.91 22.41 28.93 22.36C28.9753 22.2453 28.9991 22.1233 29 22C28.9991 21.8767 28.9753 21.7547 28.93 21.64C28.93 21.59 28.88 21.56 28.86 21.51C28.8337 21.4579 28.8036 21.4077 28.77 21.36L23.77 15.36C23.676 15.2471 23.5582 15.1563 23.4252 15.0941C23.2921 15.0319 23.1469 14.9998 23 15C22.7663 14.9995 22.5399 15.0809 22.36 15.23C22.2587 15.314 22.175 15.4171 22.1137 15.5334C22.0523 15.6497 22.0145 15.7771 22.0025 15.908C21.9904 16.039 22.0043 16.1711 22.0433 16.2967C22.0824 16.4223 22.1458 16.539 22.23 16.64L25.86 21H14C13.7348 21 13.4804 21.1054 13.2929 21.2929C13.1054 21.4804 13 21.7348 13 22C13 22.2652 13.1054 22.5196 13.2929 22.7071C13.4804 22.8946 13.7348 23 14 23Z" fill="#6B6B6B"/>
</svg>
