<svg width="28" height="28" viewBox="0 0 28 28" fill="none" xmlns="http://www.w3.org/2000/svg">
<path d="M14.0249 0.105469C6.3082 0.105469 0.0507812 6.46841 0.0507812 14.3181C0.0507812 20.5978 4.05478 25.9253 9.60711 27.8047C10.3055 27.9363 10.5619 27.4964 10.5619 27.121C10.5619 26.7821 10.5489 25.6625 10.5429 24.4748C6.65531 25.3346 5.83498 22.7979 5.83498 22.7979C5.19931 21.1551 4.28341 20.7183 4.28341 20.7183C3.01554 19.8361 4.37898 19.8543 4.37898 19.8543C5.78222 19.9543 6.52109 21.3189 6.52109 21.3189C7.76744 23.4917 9.79015 22.8636 10.5876 22.5004C10.713 21.582 11.0751 20.9546 11.4748 20.5999C8.37095 20.2405 5.10814 19.0218 5.10814 13.5758C5.10814 12.0241 5.65402 10.7562 6.54794 9.76086C6.40285 9.40264 5.92453 7.9573 6.68331 5.99958C6.68331 5.99958 7.85676 5.61759 10.5272 7.45645C11.6419 7.14154 12.8373 6.98361 14.0249 6.9782C15.2124 6.98361 16.4088 7.14154 17.5256 7.45645C20.1927 5.61759 21.3646 5.99958 21.3646 5.99958C22.1252 7.9573 21.6466 9.40264 21.5016 9.76086C22.3976 10.7562 22.9397 12.0241 22.9397 13.5758C22.9397 19.0347 19.6707 20.2367 16.559 20.5886C17.0602 21.0296 17.5068 21.8946 17.5068 23.2206C17.5068 25.1221 17.4906 26.6526 17.4906 27.121C17.4906 27.4992 17.7422 27.9424 18.4505 27.8028C23.9998 25.9213 27.9987 20.5956 27.9987 14.3181C27.9987 6.46841 21.7422 0.105469 14.0249 0.105469Z" fill="#303030"/>
<path d="M5.34299 20.5124C5.31222 20.5833 5.20299 20.6042 5.10349 20.5557C5.00213 20.5094 4.94521 20.4131 4.97807 20.3423C5.00815 20.2696 5.11761 20.2495 5.21873 20.2978C5.32032 20.3444 5.37817 20.4416 5.34299 20.5124Z" fill="#303030"/>
<path d="M5.90939 21.1539C5.84275 21.2167 5.71247 21.1875 5.62407 21.0882C5.53266 20.9891 5.51554 20.8566 5.58311 20.7928C5.65184 20.73 5.77818 20.7594 5.86982 20.8585C5.96123 20.9587 5.97904 21.0903 5.90939 21.1539Z" fill="#303030"/>
<path d="M6.46013 21.9725C6.37452 22.033 6.23452 21.9763 6.14797 21.8499C6.06235 21.7235 6.06235 21.5719 6.14982 21.5112C6.2366 21.4505 6.37452 21.5051 6.46222 21.6305C6.54761 21.7588 6.54761 21.9106 6.46013 21.9725Z" fill="#303030"/>
<path d="M7.21578 22.764C7.13918 22.8499 6.97604 22.8269 6.85663 22.7096C6.73445 22.595 6.70044 22.4324 6.77726 22.3465C6.85478 22.2603 7.01885 22.2846 7.13918 22.4009C7.26044 22.5152 7.29746 22.679 7.21578 22.764Z" fill="#303030"/>
<path d="M8.25641 23.2225C8.22262 23.3339 8.0655 23.3845 7.90722 23.3372C7.74917 23.2884 7.64573 23.1581 7.67766 23.0455C7.71052 22.9335 7.86834 22.8808 8.02778 22.9314C8.1856 22.9799 8.28927 23.1093 8.25641 23.2225Z" fill="#303030"/>
<path d="M9.4003 23.307C9.40423 23.4243 9.27002 23.5215 9.10387 23.5233C8.9368 23.5273 8.80166 23.4325 8.7998 23.3172C8.7998 23.1988 8.93101 23.1025 9.09809 23.0997C9.26423 23.0964 9.4003 23.1905 9.4003 23.307Z" fill="#303030"/>
<path d="M10.4649 23.1234C10.4848 23.2378 10.3694 23.3553 10.2044 23.3863C10.0422 23.4167 9.89198 23.3461 9.87139 23.2327C9.85125 23.1154 9.96881 22.998 10.1308 22.9676C10.296 22.9385 10.4439 23.0072 10.4649 23.1234Z" fill="#303030"/>
</svg>
