<svg width="19" height="21" viewBox="0 0 19 21" fill="none" xmlns="http://www.w3.org/2000/svg">
<path d="M17.5342 13.2292L15.7342 11.4192V6.95918C15.7582 5.30301 15.1821 3.69409 14.1124 2.42952C13.0426 1.16494 11.5515 0.330117 9.91423 0.0791814C8.96405 -0.0459515 7.9981 0.0329963 7.08084 0.310757C6.16358 0.588517 5.3161 1.0587 4.59496 1.68994C3.87381 2.32118 3.29558 3.09896 2.89884 3.97138C2.5021 4.84379 2.29598 5.79079 2.29423 6.74918V11.4192L0.494233 13.2292C0.268139 13.459 0.114817 13.7505 0.0534335 14.067C-0.00794978 14.3835 0.0253295 14.7111 0.149111 15.0088C0.272892 15.3065 0.481684 15.5612 0.749384 15.7409C1.01708 15.9206 1.33182 16.0174 1.65423 16.0192H5.01423V16.3592C5.06094 17.3744 5.50819 18.3297 6.25796 19.0157C7.00773 19.7018 7.99889 20.0626 9.01423 20.0192C10.0296 20.0626 11.0207 19.7018 11.7705 19.0157C12.5203 18.3297 12.9675 17.3744 13.0142 16.3592V16.0192H16.3742C16.6967 16.0174 17.0114 15.9206 17.2791 15.7409C17.5468 15.5612 17.7556 15.3065 17.8794 15.0088C18.0031 14.7111 18.0364 14.3835 17.975 14.067C17.9136 13.7505 17.7603 13.459 17.5342 13.2292ZM11.0142 16.3592C10.9588 16.8402 10.7199 17.2812 10.3473 17.5905C9.97473 17.8997 9.49722 18.0533 9.01423 18.0192C8.53125 18.0533 8.05373 17.8997 7.68116 17.5905C7.30859 17.2812 7.06969 16.8402 7.01423 16.3592V16.0192H11.0142V16.3592ZM2.52423 14.0192L3.70423 12.8392C3.8914 12.6531 4.0399 12.4319 4.14116 12.1881C4.24242 11.9444 4.29444 11.6831 4.29423 11.4192V6.74918C4.29478 6.07458 4.43962 5.4079 4.71903 4.79389C4.99844 4.17988 5.40596 3.63273 5.91423 3.18918C6.41565 2.73486 7.00981 2.39493 7.65557 2.19291C8.30134 1.9909 8.9833 1.93162 9.65423 2.01918C10.8107 2.20696 11.8604 2.80619 12.6101 3.70656C13.3598 4.60693 13.759 5.74782 13.7342 6.91918V11.4192C13.7327 11.6824 13.7832 11.9433 13.8827 12.187C13.9822 12.4307 14.1289 12.6523 14.3142 12.8392L15.5042 14.0192H2.52423Z" fill="#6B6B6B"/>
<circle cx="15" cy="3" r="3" fill="#EB5757"/>
</svg>
