<svg width="28" height="28" viewBox="0 0 28 28" fill="none" xmlns="http://www.w3.org/2000/svg">
<path fill-rule="evenodd" clip-rule="evenodd" d="M14 0C6.26801 0 0 6.26801 0 14C0 21.732 6.26801 28 14 28C21.732 28 28 21.732 28 14C28 6.26801 21.732 0 14 0ZM19.8343 9.18712C20.4768 9.36344 20.9829 9.88296 21.1546 10.5427C21.4667 11.7384 21.4667 14.2333 21.4667 14.2333C21.4667 14.2333 21.4667 16.7281 21.1546 17.924C20.9829 18.5837 20.4768 19.1032 19.8343 19.2796C18.6698 19.6 14 19.6 14 19.6C14 19.6 9.3302 19.6 8.16566 19.2796C7.5231 19.1032 7.01706 18.5837 6.84533 17.924C6.53334 16.7281 6.53334 14.2333 6.53334 14.2333C6.53334 14.2333 6.53334 11.7384 6.84533 10.5427C7.01706 9.88296 7.5231 9.36344 8.16566 9.18712C9.3302 8.86667 14 8.86667 14 8.86667C14 8.86667 18.6698 8.86667 19.8343 9.18712Z" fill="#2F80ED"/>
<path d="M12.6 16.8V12.1333L16.3333 14.4667L12.6 16.8Z" fill="#2F80ED"/>
</svg>
