<svg width="24" height="24" viewBox="0 0 24 24" fill="none" xmlns="http://www.w3.org/2000/svg">
<path d="M20.3 13.4305C20.048 13.352 19.7752 13.3763 19.5411 13.498C19.3069 13.6198 19.1304 13.8292 19.05 14.0805C18.5776 15.525 17.6566 16.7811 16.421 17.666C15.1854 18.5508 13.6997 19.0184 12.18 19.0005C10.3003 19.0219 8.48894 18.297 7.14297 16.9848C5.79701 15.6726 5.02635 13.8801 5 12.0005C5.02635 10.121 5.79701 8.32853 7.14297 7.01631C8.48894 5.70409 10.3003 4.97918 12.18 5.00055C13.8776 4.99645 15.5229 5.58735 16.83 6.67055L14.66 6.31055C14.5299 6.28915 14.3969 6.29367 14.2686 6.32385C14.1403 6.35403 14.0193 6.40928 13.9124 6.48641C13.8055 6.56355 13.715 6.66105 13.6459 6.77331C13.5768 6.88557 13.5307 7.01037 13.51 7.14055C13.4886 7.2706 13.4931 7.4036 13.5233 7.5319C13.5535 7.6602 13.6087 7.78127 13.6859 7.88814C13.763 7.99501 13.8605 8.08558 13.9728 8.15464C14.085 8.2237 14.2098 8.26989 14.34 8.29055L18.58 8.99055H18.75C18.866 8.99041 18.981 8.97011 19.09 8.93055C19.1266 8.91664 19.1605 8.89632 19.19 8.87055C19.2617 8.84389 19.3291 8.80682 19.39 8.76055L19.48 8.65055C19.48 8.60055 19.57 8.56055 19.61 8.50055C19.65 8.44055 19.61 8.40055 19.66 8.36055C19.6876 8.30231 19.711 8.24215 19.73 8.18055L20.48 4.18055C20.505 4.04922 20.5038 3.91427 20.4766 3.7834C20.4494 3.65253 20.3967 3.52829 20.3215 3.41779C20.2462 3.30729 20.15 3.21268 20.0382 3.13938C19.9264 3.06607 19.8013 3.0155 19.67 2.99055C19.5387 2.9656 19.4037 2.96675 19.2729 2.99396C19.142 3.02116 19.0177 3.07387 18.9072 3.14909C18.6841 3.30099 18.5304 3.53533 18.48 3.80055L18.21 5.25055C16.536 3.79979 14.3952 3.00098 12.18 3.00055C9.76993 2.97921 7.44984 3.91484 5.7288 5.60213C4.00777 7.28941 3.02639 9.59053 3 12.0005C3.02639 14.4106 4.00777 16.7117 5.7288 18.399C7.44984 20.0863 9.76993 21.0219 12.18 21.0005C14.1331 21.0306 16.0443 20.4327 17.6321 19.2949C19.2199 18.1572 20.4005 16.5397 21 14.6805C21.0379 14.5525 21.0498 14.4182 21.035 14.2855C21.0202 14.1528 20.9789 14.0244 20.9137 13.9079C20.8485 13.7914 20.7605 13.6891 20.6551 13.6071C20.5497 13.5251 20.429 13.4651 20.3 13.4305Z" fill="#6B6B6B"/>
</svg>
