<svg width="18" height="18" viewBox="0 0 18 18" xmlns="http://www.w3.org/2000/svg">
<path fill-rule="evenodd" clip-rule="evenodd" d="M8.29707 0.00707158C6.11682 0.207596 4.13189 1.12083 2.646 2.60706C1.23718 4.01622 0.357646 5.79204 0.049075 7.85035C-0.0297584 8.37612 -0.0103847 9.74924 0.0840534 10.3314C0.506542 12.9357 1.90473 15.1117 4.07007 16.5346C4.9128 17.0884 6.13753 17.5989 7.11703 17.8046C8.6576 18.1282 10.2585 18.0487 11.742 17.5749C12.513 17.3286 13.469 16.8769 13.8889 16.5604C14.5113 16.0912 14.2438 15.0965 13.4666 14.9901C13.2537 14.961 13.0443 15.027 12.7087 15.229C11.1957 16.1398 9.31169 16.4572 7.53973 16.0997C5.98251 15.7855 4.47136 14.8847 3.4423 13.657C2.59735 12.649 2.0663 11.4792 1.82801 10.1011C1.74276 9.60805 1.7422 8.37499 1.82702 7.88554C2.2792 5.27637 3.95588 3.19849 6.37016 2.25538C8.26706 1.51438 10.3375 1.60071 12.1894 2.49807C14.2926 3.51716 15.7207 5.41837 16.1585 7.7819C16.226 8.14628 16.2369 8.33347 16.2407 9.18765C16.2435 9.82452 16.2589 10.2059 16.2843 10.2659C16.3458 10.4111 16.5366 10.6097 16.6949 10.6931C16.896 10.7992 17.2749 10.7994 17.4756 10.6936C17.6899 10.5806 17.866 10.3655 17.9369 10.1305C17.9878 9.96141 17.9986 9.77968 17.9999 9.06447C18.0017 8.13301 17.9725 7.83106 17.8071 7.06803C17.0776 3.70273 14.4585 1.03404 11.0975 0.231139C10.402 0.0649976 9.99393 0.0162567 9.19531 0.00393949C8.78846 -0.00235988 8.38425 -0.000952195 8.29707 0.00707158ZM12.207 5.74601C12.0709 5.79274 11.739 6.10884 9.85581 7.98577L7.66309 10.1711L6.82646 9.33827C5.92858 8.44446 5.8178 8.36282 5.50077 8.36141C5.24951 8.36028 5.07307 8.42507 4.89071 8.58541C4.68436 8.76689 4.6001 8.9513 4.59958 9.22284C4.5988 9.60629 4.64132 9.66098 5.95961 10.9718C6.83925 11.8465 7.19386 12.1765 7.31077 12.2291C7.51853 12.3228 7.80684 12.323 8.01527 12.2296C8.253 12.123 13.2003 7.18543 13.3199 6.93536C13.5297 6.49644 13.3406 5.97648 12.8959 5.76959C12.6878 5.67277 12.4447 5.66443 12.207 5.74601Z"/>
</svg>
