<svg width="17" height="13" viewBox="0 0 17 13" fill="none" xmlns="http://www.w3.org/2000/svg">
<path d="M5.86009 13.0009C5.72297 13.0004 5.58741 12.9718 5.46183 12.9168C5.33624 12.8617 5.22333 12.7814 5.13009 12.6809L0.270086 7.51089C0.0884125 7.31728 -0.00890928 7.05943 -0.000470147 6.79407C0.00796899 6.5287 0.121478 6.27756 0.315086 6.09589C0.508694 5.91421 0.766542 5.81689 1.03191 5.82533C1.29727 5.83377 1.54841 5.94728 1.73009 6.14089L5.85009 10.5309L14.2601 1.33089C14.3454 1.22461 14.4516 1.1369 14.5721 1.07315C14.6926 1.0094 14.8248 0.970951 14.9607 0.960166C15.0966 0.949382 15.2332 0.966489 15.3622 1.01044C15.4912 1.05439 15.6099 1.12425 15.711 1.21573C15.812 1.30722 15.8933 1.41839 15.9498 1.54243C16.0063 1.66647 16.0369 1.80075 16.0396 1.93703C16.0423 2.0733 16.0172 2.2087 15.9657 2.3349C15.9141 2.4611 15.8374 2.57543 15.7401 2.67089L6.60009 12.6709C6.50773 12.7732 6.3952 12.8554 6.26958 12.9122C6.14395 12.969 6.00794 12.9992 5.87009 13.0009H5.86009Z" fill="#FCFCFF"/>
</svg>
