<svg width="18" height="18" viewBox="0 0 18 18" xmlns="http://www.w3.org/2000/svg">
<path fill-rule="evenodd" clip-rule="evenodd" d="M8.29145 0.0111842C6.11268 0.211662 4.12909 1.12469 2.64421 2.61058C1.23634 4.01941 0.357403 5.79483 0.0490418 7.85267C-0.0297383 8.37832 -0.0103777 9.75113 0.0839964 10.3331C0.506198 12.9369 1.90344 15.1123 4.06732 16.5349C4.90947 17.0886 6.13337 17.5989 7.11221 17.8046C8.65173 18.1282 10.2515 18.0487 11.7341 17.5749C12.5045 17.3288 13.4599 16.8771 13.8794 16.5607C14.5014 16.0916 14.2341 15.0972 13.4575 14.9908C13.2448 14.9617 13.0354 15.0277 12.7001 15.2296C11.1881 16.1403 9.30538 16.4575 7.53462 16.1001C6.99341 15.9909 6.24644 15.7285 5.73071 15.4663C4.56851 14.8756 3.64445 14.0525 2.9306 12.9719C1.67114 11.0655 1.39823 8.54776 2.22039 6.41998C2.63273 5.35281 3.37019 4.28959 4.19774 3.56927C5.71976 2.24442 7.74805 1.58729 9.70456 1.78512C12.5696 2.07479 14.9854 4.00442 15.8741 6.71306C16.1716 7.61972 16.2682 8.34225 16.232 9.3901C16.2092 10.0536 16.2114 10.0908 16.2853 10.2624C16.3807 10.4842 16.5899 10.6691 16.8238 10.7386C17.044 10.8039 17.1054 10.8036 17.3338 10.7358C17.5573 10.6694 17.7824 10.4766 17.8721 10.2746C18.0182 9.94552 18.0451 8.57785 17.9218 7.7429C17.6317 5.77956 16.7469 4.00889 15.366 2.6287C13.997 1.26029 12.248 0.379701 10.2979 0.0768726C9.94055 0.0213875 8.64254 -0.0211147 8.29145 0.0111842ZM6.27185 5.73836C5.931 5.8652 5.68597 6.21116 5.68734 6.56367C5.68871 6.91656 5.74563 6.99281 6.78769 8.03739L7.74414 8.99615L6.78966 9.95491C6.26471 10.4822 5.80794 10.9677 5.7746 11.0337C5.68122 11.2189 5.66499 11.5331 5.73884 11.7264C5.87208 12.0751 6.1998 12.3031 6.56659 12.3023C6.91533 12.3015 6.99358 12.243 8.03592 11.203L8.99487 10.2463L9.95438 11.2025C10.9973 12.2419 11.077 12.3015 11.4243 12.3023C11.7911 12.3031 12.1189 12.0751 12.2521 11.7264C12.3259 11.5331 12.3097 11.2189 12.2163 11.0337C12.183 10.9677 11.7262 10.4822 11.2013 9.95491L10.2468 8.99615L11.2013 8.03739C11.7262 7.51005 12.1833 7.02391 12.2171 6.95706C12.2508 6.89021 12.2862 6.73924 12.2956 6.62155C12.3268 6.23382 12.1013 5.88395 11.7287 5.74174C11.5336 5.66725 11.22 5.68312 11.034 5.77685C10.968 5.81017 10.4823 6.26672 9.9547 6.79142L8.99547 7.74543L8.03624 6.79142C7.50865 6.26672 7.02227 5.80982 6.95539 5.77608C6.79135 5.69339 6.4442 5.67422 6.27185 5.73836Z"/>
</svg>
