<svg width="13" height="13" viewBox="0 0 13 13" fill="none" xmlns="http://www.w3.org/2000/svg">
<path d="M7.4158 6.49823L11.7158 2.20823C11.9041 2.01993 12.0099 1.76453 12.0099 1.49823C12.0099 1.23193 11.9041 0.976536 11.7158 0.788232C11.5275 0.599929 11.2721 0.494141 11.0058 0.494141C10.7395 0.494141 10.4841 0.599929 10.2958 0.788232L6.0058 5.08823L1.7158 0.788232C1.52749 0.599929 1.2721 0.494141 1.0058 0.494141C0.739497 0.494141 0.484102 0.599929 0.295798 0.788232C0.107495 0.976536 0.0017066 1.23193 0.0017066 1.49823C0.0017066 1.76453 0.107495 2.01993 0.295798 2.20823L4.5958 6.49823L0.295798 10.7882C0.20207 10.8812 0.127676 10.9918 0.0769072 11.1137C0.0261385 11.2355 0 11.3662 0 11.4982C0 11.6302 0.0261385 11.7609 0.0769072 11.8828C0.127676 12.0047 0.20207 12.1153 0.295798 12.2082C0.388761 12.302 0.499362 12.3764 0.621222 12.4271C0.743081 12.4779 0.873786 12.504 1.0058 12.504C1.13781 12.504 1.26852 12.4779 1.39038 12.4271C1.51223 12.3764 1.62284 12.302 1.7158 12.2082L6.0058 7.90823L10.2958 12.2082C10.3888 12.302 10.4994 12.3764 10.6212 12.4271C10.7431 12.4779 10.8738 12.504 11.0058 12.504C11.1378 12.504 11.2685 12.4779 11.3904 12.4271C11.5122 12.3764 11.6228 12.302 11.7158 12.2082C11.8095 12.1153 11.8839 12.0047 11.9347 11.8828C11.9855 11.7609 12.0116 11.6302 12.0116 11.4982C12.0116 11.3662 11.9855 11.2355 11.9347 11.1137C11.8839 10.9918 11.8095 10.8812 11.7158 10.7882L7.4158 6.49823Z" fill="currentcolor"/>
</svg>
