<svg width="14" height="13" viewBox="0 0 14 13" fill="none" xmlns="http://www.w3.org/2000/svg">
<path d="M0.875 7.42791H11.2525L8.07625 11.4761C8.00271 11.57 7.94732 11.6783 7.91323 11.7949C7.87915 11.9115 7.86704 12.0341 7.87761 12.1557C7.89894 12.4012 8.01131 12.6277 8.19 12.7853C8.36869 12.9429 8.59906 13.0187 8.83043 12.9961C9.06181 12.9734 9.27523 12.8542 9.42375 12.6646L13.7987 7.09365C13.8282 7.04934 13.8545 7.00279 13.8775 6.95438C13.8775 6.90795 13.9213 6.8801 13.9388 6.83367C13.9784 6.72722 13.9992 6.61389 14 6.49942C13.9992 6.38495 13.9784 6.27162 13.9388 6.16516C13.9388 6.11874 13.895 6.09089 13.8775 6.04446C13.8545 5.99605 13.8282 5.9495 13.7987 5.90519L9.42375 0.334258C9.34148 0.229447 9.23846 0.145159 9.12201 0.0873876C9.00556 0.029616 8.87855 -0.000219747 8.75 1.77374e-06C8.54555 -0.000422093 8.34742 0.075134 8.19 0.213554C8.1014 0.2915 8.02816 0.387227 7.97448 0.495254C7.92079 0.603281 7.88772 0.721485 7.87716 0.843096C7.86659 0.964706 7.87874 1.08733 7.9129 1.20396C7.94706 1.32058 8.00257 1.4289 8.07625 1.52272L11.2525 5.57093H0.875C0.642936 5.57093 0.420376 5.66875 0.256282 5.84288C0.0921874 6.017 0 6.25317 0 6.49942C0 6.74567 0.0921874 6.98183 0.256282 7.15596C0.420376 7.33008 0.642936 7.42791 0.875 7.42791Z" fill="currentColor"/>
</svg>
