<svg width="15" height="15" viewBox="0 0 15 15" xmlns="http://www.w3.org/2000/svg">
<circle id="circle" cx="7.5" cy="7.5" r="7.5"/>
<path id="path" d="M8.32171 7.4995L10.8276 4.99906C10.9374 4.88931 10.999 4.74045 10.999 4.58524C10.999 4.43002 10.9374 4.28117 10.8276 4.17141C10.7179 4.06166 10.569 4 10.4139 4C10.2587 4 10.1098 4.06166 10.0001 4.17141L7.5 6.67768L4.99992 4.17141C4.89018 4.06166 4.74134 4 4.58615 4C4.43096 4 4.28212 4.06166 4.17238 4.17141C4.06264 4.28117 4.00099 4.43002 4.00099 4.58524C4.00099 4.74045 4.06264 4.88931 4.17238 4.99906L6.67829 7.4995L4.17238 9.99994C4.11776 10.0541 4.07441 10.1186 4.04482 10.1896C4.01523 10.2606 4 10.3368 4 10.4138C4 10.4907 4.01523 10.5669 4.04482 10.6379C4.07441 10.7089 4.11776 10.7734 4.17238 10.8276C4.22656 10.8822 4.29101 10.9256 4.36203 10.9552C4.43305 10.9848 4.50922 11 4.58615 11C4.66308 11 4.73925 10.9848 4.81027 10.9552C4.88129 10.9256 4.94574 10.8822 4.99992 10.8276L7.5 8.32133L10.0001 10.8276C10.0543 10.8822 10.1187 10.9256 10.1897 10.9552C10.2607 10.9848 10.3369 11 10.4139 11C10.4908 11 10.567 10.9848 10.638 10.9552C10.709 10.9256 10.7734 10.8822 10.8276 10.8276C10.8822 10.7734 10.9256 10.7089 10.9552 10.6379C10.9848 10.5669 11 10.4907 11 10.4138C11 10.3368 10.9848 10.2606 10.9552 10.1896C10.9256 10.1186 10.8822 10.0541 10.8276 9.99994L8.32171 7.4995Z" fill="currentColor"/>
</svg>
