<svg width="124" height="27" viewBox="0 0 124 27" fill="none" xmlns="http://www.w3.org/2000/svg">
<path opacity="0.349" fill-rule="evenodd" clip-rule="evenodd" d="M117.346 27H6.23077C2.78931 27 0 24.2107 0 20.7692V6.23077C0 2.78931 2.78931 0 6.23077 0H117.346C120.788 0 123.577 2.78931 123.577 6.23077V20.7692C123.577 24.2107 120.788 27 117.346 27ZM122.538 6.23077C122.538 3.36358 120.213 1.03846 117.346 1.03846H6.23077C3.36358 1.03846 1.03846 3.36358 1.03846 6.23077V20.7692C1.03846 23.6364 3.36358 25.9615 6.23077 25.9615H117.346C120.213 25.9615 122.538 23.6364 122.538 20.7692V6.23077Z" fill="#424770"/>
<path opacity="0.502" fill-rule="evenodd" clip-rule="evenodd" d="M63.0334 19.146H61.6782L62.727 16.5561L60.6397 11.289H62.0718L63.3833 14.8738L64.7053 11.289H66.1373L63.0334 19.146ZM57.8307 16.8842C57.3613 16.8842 56.8794 16.7098 56.4433 16.3702V16.7534H55.0445V8.89535H56.4433V11.6608C56.8794 11.3326 57.3613 11.1582 57.8307 11.1582C59.2949 11.1582 60.3001 12.3378 60.3001 14.0212C60.3001 15.7035 59.2949 16.8842 57.8307 16.8842ZM57.5358 12.3597C57.1536 12.3597 56.7704 12.5237 56.4433 12.8519V15.1905C56.7704 15.5176 57.1536 15.6817 57.5358 15.6817C58.3229 15.6817 58.8691 15.0046 58.8691 14.0212C58.8691 13.0378 58.3229 12.3597 57.5358 12.3597ZM49.3818 16.3702C48.956 16.7098 48.4752 16.8842 47.9944 16.8842C46.5405 16.8842 45.5249 15.7035 45.5249 14.0212C45.5249 12.3378 46.5405 11.1582 47.9944 11.1582C48.4752 11.1582 48.956 11.3326 49.3818 11.6608V8.89535H50.792V16.7534H49.3818V16.3702ZM49.3818 12.8519C49.065 12.5237 48.6829 12.3597 48.3007 12.3597C47.5021 12.3597 46.9559 13.0378 46.9559 14.0212C46.9559 15.0046 47.5021 15.6817 48.3007 15.6817C48.6829 15.6817 49.065 15.5176 49.3818 15.1905V12.8519ZM41.0543 14.4033C41.1416 15.2341 41.7979 15.8022 42.7148 15.8022C43.2185 15.8022 43.7751 15.6163 44.3431 15.2881V16.4585C43.7211 16.742 43.098 16.8842 42.4853 16.8842C40.8352 16.8842 39.6773 15.6817 39.6773 13.9776C39.6773 12.3275 40.8134 11.1582 42.3763 11.1582C43.8083 11.1582 44.7803 12.2838 44.7803 13.8893C44.7803 14.043 44.7803 14.2175 44.7585 14.4033H41.0543ZM42.3223 12.2392C41.6442 12.2392 41.1198 12.7428 41.0543 13.4968H43.4366C43.3929 12.7532 42.9454 12.2392 42.3223 12.2392ZM37.3709 13.1032V16.7534H35.9721V11.289H37.3709V11.8352C37.7645 11.398 38.2453 11.1582 38.7147 11.1582C38.8684 11.1582 39.021 11.1685 39.1737 11.2122V12.4583C39.021 12.4147 38.8466 12.3929 38.6825 12.3929C38.2235 12.3929 37.7313 12.6442 37.3709 13.1032ZM31.1308 14.4033C31.218 15.2341 31.8733 15.8022 32.7913 15.8022C33.2939 15.8022 33.8516 15.6163 34.4196 15.2881V16.4585C33.7965 16.742 33.1735 16.8842 32.5618 16.8842C30.9117 16.8842 29.7538 15.6817 29.7538 13.9776C29.7538 12.3275 30.8899 11.1582 32.4528 11.1582C33.8838 11.1582 34.8568 12.2838 34.8568 13.8893C34.8568 14.043 34.8568 14.2175 34.835 14.4033H31.1308ZM32.3977 12.2392C31.7206 12.2392 31.1962 12.7428 31.1308 13.4968H33.513C33.4694 12.7532 33.0208 12.2392 32.3977 12.2392ZM26.2448 16.7534L25.1295 13.0378L24.0256 16.7534H22.7691L20.8895 11.289H22.2883L23.3922 15.0046L24.4961 11.289H25.763L26.8669 15.0046L27.9708 11.289H29.3696L27.5014 16.7534H26.2448ZM17.6973 16.8842C16.0471 16.8842 14.8778 15.6931 14.8778 14.0212C14.8778 12.3378 16.0471 11.1582 17.6973 11.1582C19.3474 11.1582 20.5063 12.3378 20.5063 14.0212C20.5063 15.6931 19.3474 16.8842 17.6973 16.8842ZM17.6973 12.3275C16.8779 12.3275 16.3099 13.016 16.3099 14.0212C16.3099 15.0264 16.8779 15.7149 17.6973 15.7149C18.5062 15.7149 19.0743 15.0264 19.0743 14.0212C19.0743 13.016 18.5062 12.3275 17.6973 12.3275ZM11.5548 14.0534H10.2982V16.7534H8.89941V9.23389H11.5548C13.0855 9.23389 14.1779 10.2287 14.1779 11.6493C14.1779 13.07 13.0855 14.0534 11.5548 14.0534ZM11.3585 10.371H10.2982V12.9173H11.3585C12.1675 12.9173 12.7355 12.4033 12.7355 11.6493C12.7355 10.885 12.1675 10.371 11.3585 10.371ZM115.388 14.5913H109.616C109.748 15.9735 110.76 16.3806 111.91 16.3806C113.08 16.3806 114.002 16.1334 114.806 15.7284V18.1034C114.005 18.5478 112.947 18.8677 111.538 18.8677C108.665 18.8677 106.653 17.0691 106.653 13.5134C106.653 10.5102 108.36 8.12585 111.165 8.12585C113.966 8.12585 115.428 10.5091 115.428 13.529C115.428 13.8145 115.402 14.4324 115.388 14.5913ZM111.146 10.5299C110.409 10.5299 109.59 11.0865 109.59 12.4147H112.639C112.639 11.0875 111.87 10.5299 111.146 10.5299ZM101.88 18.8677C100.848 18.8677 100.218 18.4326 99.7939 18.1221L99.7876 21.4587L96.8394 22.0859L96.8384 8.32212H99.4346L99.5883 9.05008C99.9953 8.67 100.742 8.12585 101.898 8.12585C103.968 8.12585 105.919 9.99092 105.919 13.4241C105.919 17.1708 103.989 18.8677 101.88 18.8677ZM101.193 10.7376C100.517 10.7376 100.092 10.9847 99.7845 11.3222L99.8022 15.7035C100.089 16.014 100.501 16.2632 101.193 16.2632C102.283 16.2632 103.014 15.0763 103.014 13.4885C103.014 11.9463 102.272 10.7376 101.193 10.7376ZM92.5766 8.32212H95.5362V18.6569H92.5766V8.32212ZM92.5766 5.02189L95.5362 4.39258V6.79454L92.5766 7.42385V5.02189ZM89.4207 11.6504V18.6569H86.4735V8.32212H89.0229L89.2078 9.19339C89.8984 7.92439 91.2764 8.18192 91.6689 8.32316V11.0335C91.2941 10.912 90.1175 10.7355 89.4207 11.6504ZM83.1006 15.0316C83.1006 16.769 84.9615 16.2279 85.3385 16.0773V18.4772C84.9459 18.6932 84.2336 18.8677 83.2699 18.8677C81.5201 18.8677 80.2064 17.579 80.2064 15.8333L80.2199 6.37396L83.0985 5.76127L83.1006 8.32212H85.3395V10.8362H83.1006V15.0316ZM79.4255 15.5342C79.4255 17.6568 77.7359 18.8677 75.2841 18.8677C74.2674 18.8677 73.1563 18.6704 72.0597 18.1989V15.3837C73.0493 15.9216 74.31 16.3255 75.2872 16.3255C75.9446 16.3255 76.4181 16.149 76.4181 15.6038C76.4181 14.1967 71.9361 14.7263 71.9361 11.4624C71.9361 9.37512 73.5301 8.12585 75.9217 8.12585C76.8989 8.12585 77.8751 8.27539 78.8523 8.66481V11.4427C77.955 10.9577 76.8158 10.6836 75.9196 10.6836C75.3018 10.6836 74.9175 10.8622 74.9175 11.3222C74.9175 12.6494 79.4255 12.018 79.4255 15.5342Z" fill="#424770"/>
</svg>
