<svg width="14" height="14" viewBox="0 0 14 14" fill="none" xmlns="http://www.w3.org/2000/svg">
<path d="M13.417 13.02L13.4179 13.0209C13.4439 13.0467 13.4646 13.0774 13.4787 13.1112C13.4927 13.1451 13.5 13.1813 13.5 13.218C13.5 13.2546 13.4927 13.2909 13.4787 13.3247C13.4646 13.3585 13.4439 13.3892 13.4179 13.415L13.415 13.4179C13.3892 13.4439 13.3585 13.4646 13.3247 13.4787C13.2909 13.4927 13.2546 13.5 13.218 13.5C13.1813 13.5 13.1451 13.4927 13.1112 13.4787C13.0774 13.4646 13.0467 13.4439 13.0209 13.4179L13.02 13.417L10.3842 10.7734L10.0707 10.4589L9.72138 10.7331C8.72298 11.5168 7.49008 11.942 6.22084 11.9404H6.22022C5.08887 11.9404 3.98292 11.605 3.04224 10.9764C2.10155 10.3479 1.36838 9.45449 0.935428 8.40925C0.502479 7.36402 0.389199 6.21387 0.609915 5.10426C0.830631 3.99465 1.37543 2.9754 2.17542 2.17542C2.9754 1.37543 3.99465 0.830631 5.10426 0.609915C6.21387 0.389199 7.36402 0.502479 8.40925 0.935428C9.45449 1.36838 10.3479 2.10155 10.9764 3.04224C11.605 3.98292 11.9404 5.08887 11.9404 6.22022V6.22084C11.942 7.49008 11.5168 8.72298 10.7331 9.72138L10.4589 10.0707L10.7734 10.3842L13.417 13.02ZM1.92554 3.35061C1.35799 4.20002 1.05506 5.19865 1.05506 6.22022C1.05506 7.59011 1.59924 8.90389 2.5679 9.87254C3.53655 10.8412 4.85033 11.3854 6.22022 11.3854C7.24179 11.3854 8.24042 11.0825 9.08983 10.5149C9.93924 9.94734 10.6013 9.14065 10.9922 8.19684C11.3831 7.25303 11.4854 6.21449 11.2861 5.21255C11.0868 4.2106 10.5949 3.29026 9.87254 2.5679C9.15018 1.84554 8.22984 1.3536 7.22789 1.1543C6.22595 0.955005 5.18741 1.05729 4.2436 1.44823C3.29979 1.83917 2.4931 2.5012 1.92554 3.35061Z" fill="#BDBDBD" stroke="#BDBDBD"/>
</svg>
