<svg id="letter-u" width="10" height="15" viewBox="0 0 10 15" xmlns="http://www.w3.org/2000/svg">
<path d="M5.08263 10.154C4.2333 10.154 3.49597 9.97667 2.87063 9.622C2.2453 9.26733 1.76463 8.768 1.42863 8.124C1.09263 7.47067 0.924633 6.70067 0.924633 5.814V0.199999H2.39463V5.814C2.39463 6.42067 2.50197 6.948 2.71663 7.396C2.94063 7.844 3.2533 8.18933 3.65463 8.432C4.0653 8.67467 4.5413 8.796 5.08263 8.796C5.64263 8.796 6.1233 8.67467 6.52463 8.432C6.92597 8.18933 7.23397 7.844 7.44863 7.396C7.67263 6.948 7.78463 6.42067 7.78463 5.814V0.199999H9.25463V5.814C9.25463 6.70067 9.08197 7.47067 8.73663 8.124C8.40063 8.768 7.91997 9.26733 7.29463 9.622C6.6693 9.97667 5.93197 10.154 5.08263 10.154Z"/>
<path d="M0.0986328 13.5H10.0806V14.9H0.0986328V13.5Z"/>
<rect y="13.5" width="10" height="1.5"/>
</svg>
