<svg id="logo2" width="36" height="27" viewBox="0 0 36 27" xmlns="http://www.w3.org/2000/svg">
<path d="M24.25 26.7097V15.3705L26.413 14.8652V18.8628C27.0654 18.3281 27.8349 18.0608 28.7191 18.0608C29.4985 18.0608 30.2039 18.2578 30.8353 18.6505C31.4667 19.0432 31.9698 19.5703 32.3435 20.2316C32.7171 20.893 32.9046 21.6324 32.9046 22.4511C32.9046 23.2698 32.7146 24.0105 32.3361 24.6706C31.9575 25.3319 31.4457 25.8564 30.8044 26.2428C30.1619 26.6304 29.4467 26.8248 28.6562 26.8248C28.2456 26.8248 27.846 26.7647 27.4563 26.6444C27.0666 26.5242 26.709 26.3502 26.3822 26.1199V26.7097H24.25ZM28.3713 24.9239C28.8239 24.9239 29.2321 24.8151 29.5947 24.5964C29.9585 24.3776 30.2446 24.0834 30.4554 23.7111C30.6663 23.3402 30.7711 22.9193 30.7711 22.4498C30.7711 21.9803 30.6663 21.5569 30.4554 21.1808C30.2446 20.8034 29.9585 20.5092 29.5947 20.2956C29.2309 20.082 28.8239 19.9758 28.3713 19.9758C27.9705 19.9758 27.6055 20.0436 27.2738 20.1805C26.9421 20.3173 26.6547 20.522 26.413 20.7945V24.1205C26.6449 24.3712 26.931 24.5682 27.2738 24.7102C27.6154 24.8522 27.9816 24.9239 28.3713 24.9239Z"/>
<path d="M18.1736 26.8723C17.3523 26.8723 16.6099 26.6753 15.9465 26.2826C15.283 25.8899 14.7564 25.3603 14.3668 24.6938C13.9771 24.0273 13.7822 23.2802 13.7822 22.45C13.7822 21.6198 13.9746 20.8689 14.3581 20.1973C14.7429 19.5257 15.2682 18.9935 15.9379 18.5995C16.6062 18.2068 17.3511 18.0098 18.1724 18.0098C18.9937 18.0098 19.7386 18.2068 20.4069 18.5995C21.0753 18.9922 21.6019 19.5257 21.9867 20.1973C22.3714 20.8689 22.5626 21.6198 22.5626 22.45C22.5626 23.2802 22.3702 24.0286 21.9867 24.6938C21.6019 25.3603 21.079 25.8899 20.4156 26.2826C19.7534 26.6753 19.006 26.8723 18.1736 26.8723ZM18.1736 24.9228C18.6053 24.9228 18.9925 24.814 19.3341 24.5953C19.6757 24.3765 19.9494 24.0797 20.1554 23.7024C20.3613 23.325 20.4637 22.908 20.4637 22.4487C20.4637 21.9792 20.3613 21.5584 20.1554 21.1874C19.9494 20.8164 19.6757 20.5183 19.3341 20.2945C18.9912 20.0706 18.6053 19.9593 18.1736 19.9593C17.7519 19.9593 17.3684 20.0719 17.0206 20.2945C16.6728 20.5183 16.3991 20.8164 16.1993 21.1874C15.9995 21.5584 15.8996 21.9792 15.8996 22.4487C15.8996 22.908 15.9995 23.325 16.1993 23.7024C16.3991 24.0797 16.6728 24.3765 17.0206 24.5953C17.3684 24.8127 17.7531 24.9228 18.1736 24.9228Z"/>
<path d="M7.78452 26.873C6.67958 26.873 5.74235 26.5839 4.97407 26.0044C4.20579 25.4262 3.65332 24.596 3.31543 23.515L5.43159 22.6797C5.66343 23.3781 5.9705 23.8924 6.35525 24.2199C6.74001 24.5473 7.21602 24.7111 7.78452 24.7111C8.46895 24.7111 9.01895 24.4821 9.43454 24.0229C9.85013 23.5636 10.0585 22.9521 10.0585 22.1884V15.8818L12.3486 15.2422V22.2537C12.3486 23.1824 12.1587 23.9934 11.7801 24.6868C11.4015 25.3801 10.87 25.9187 10.1856 26.2999C9.50113 26.6811 8.70079 26.873 7.78452 26.873Z"/>
<path d="M35.2028 5.28841C35.0898 4.87099 34.896 4.50409 34.6284 4.19854C34.3585 3.89058 34.0017 3.65119 33.5665 3.48518C33.1431 3.32399 32.6246 3.24219 32.0229 3.24219C31.5104 3.24219 31.0264 3.28309 30.5852 3.36248C30.1321 3.44428 29.8111 3.52969 29.603 3.62232L29.3972 3.71495L29.6505 5.50855C29.6505 5.50855 30.4009 5.23428 30.7303 5.17173C31.0609 5.10917 31.4557 5.07669 31.9016 5.07669C32.2215 5.07669 32.4784 5.1212 32.6663 5.21022C32.8506 5.29683 32.9909 5.4075 33.0944 5.54825C33.2026 5.69501 33.2751 5.85981 33.3167 6.04988C33.3631 6.2592 33.3857 6.47332 33.3857 6.68624V6.71752C33.3179 6.70429 33.2454 6.68985 33.1657 6.67542C33.0183 6.64775 32.8649 6.6261 32.7079 6.61046C32.5473 6.59362 32.388 6.5864 32.237 6.5864C31.7708 6.5864 31.3177 6.63572 30.8932 6.73196C30.4568 6.8318 30.0656 6.98939 29.7338 7.20231C29.3889 7.42365 29.1118 7.71838 28.9109 8.07926C28.7087 8.44135 28.6064 8.87562 28.6064 9.36763C28.6064 9.87287 28.6933 10.3144 28.8633 10.6813C29.0369 11.0554 29.2843 11.3609 29.5982 11.5907C29.9026 11.8132 30.2653 11.9768 30.6768 12.0779C31.074 12.1753 31.5116 12.2246 31.9801 12.2246C32.3 12.2246 32.6282 12.2114 32.9552 12.1849C33.2834 12.1585 35.3681 11.6292 35.3681 11.6292V6.60926C35.3645 6.13289 35.3098 5.689 35.2028 5.28841ZM33.3845 8.44015V10.3637C33.2751 10.3793 33.1526 10.3901 33.0171 10.3986C32.7662 10.413 32.4724 10.4214 32.1442 10.4214C31.6436 10.4214 31.25 10.3348 30.9741 10.1652C30.7422 10.022 30.6292 9.75618 30.6292 9.35199C30.6292 9.14147 30.6732 8.98389 30.7636 8.8684C30.8682 8.73367 30.9967 8.63022 31.1548 8.55203C31.3225 8.46902 31.5116 8.41369 31.7173 8.38722C31.9421 8.35835 32.1573 8.34391 32.3571 8.34391C32.6651 8.34391 32.9291 8.36076 33.1407 8.39444C33.2442 8.40887 33.3239 8.42571 33.3845 8.44015Z"/>
<path d="M24.9056 12.0453C23.9894 12.0453 23.2975 11.8304 22.8289 11.398C22.3603 10.9669 22.126 10.3362 22.126 9.50601V5.24744H20.4365V3.37975H22.126V1.20122L24.289 0.693359V3.37975H26.642V5.24744H24.289V9.04805C24.289 9.44077 24.3729 9.7222 24.5418 9.89106C24.7095 10.0612 25.0055 10.1456 25.426 10.1456C25.6369 10.1456 25.8293 10.1316 26.0019 10.1047C26.1758 10.0778 26.3682 10.0254 26.5778 9.94863V11.7997C26.3571 11.8764 26.0809 11.9366 25.7491 11.9801C25.4186 12.0235 25.1375 12.0453 24.9056 12.0453Z"/>
<path d="M14.219 12.0796C13.5876 12.0796 13.0265 11.935 12.5369 11.6459C12.0473 11.3568 11.6626 10.9551 11.3839 10.4422C11.1052 9.92791 10.9658 9.33818 10.9658 8.6717V3.76456L13.1288 3.25286V8.34422C13.1288 8.89045 13.2842 9.32667 13.595 9.65416C13.9058 9.98164 14.3238 10.1454 14.8504 10.1454C15.208 10.1454 15.5323 10.0712 15.8221 9.92407C16.1119 9.77696 16.3512 9.56589 16.5411 9.29341V2.3574L18.7041 1.8457V11.9158H16.5411V11.2276C15.9097 11.7956 15.1353 12.0796 14.219 12.0796Z"/>
<path d="M7.05881 7.18183C7.71117 6.90936 8.23281 6.49361 8.6225 5.93714C9.01219 5.38067 9.20703 4.73594 9.20703 4.00421C9.20703 3.30575 9.04671 2.68788 8.72485 2.15316C8.40422 1.61844 7.95657 1.20013 7.38314 0.89951C6.80847 0.598889 6.14871 0.449219 5.40139 0.449219H0V3.49252V5.0647V11.9163L2.29004 11.3688V4.51463V2.94245V2.49727H5.19545C5.71092 2.49727 6.12404 2.63927 6.43481 2.92326C6.74557 3.20725 6.90096 3.57823 6.90096 4.03747C6.90096 4.49672 6.74557 4.8677 6.43481 5.15169C6.12404 5.43568 5.71092 5.57767 5.19545 5.57767H3.77234V7.52723H4.78479L6.94782 11.9176H9.5067L7.05881 7.18183Z"/>
</svg>
