<svg id="logo" width="128" height="23" viewBox="0 0 128 23" xmlns="http://www.w3.org/2000/svg">
<path d="M111.167 22.4165V0.956316L115.326 0V7.56579C116.58 6.55379 118.059 6.04779 119.759 6.04779C121.258 6.04779 122.614 6.42063 123.828 7.1639C125.042 7.90716 126.009 8.90463 126.728 10.1563C127.446 11.408 127.806 12.8074 127.806 14.3568C127.806 15.9063 127.441 17.3081 126.713 18.5574C125.986 19.8091 125.002 20.8017 123.769 21.5328C122.533 22.2664 121.158 22.6344 119.638 22.6344C118.849 22.6344 118.081 22.5206 117.331 22.2931C116.582 22.0655 115.895 21.7362 115.266 21.3004V22.4165H111.167ZM119.091 19.0367C119.961 19.0367 120.746 18.8309 121.443 18.4169C122.142 18.0029 122.692 17.4461 123.098 16.7416C123.503 16.0395 123.705 15.2429 123.705 14.3544C123.705 13.4659 123.503 12.6645 123.098 11.9527C122.692 11.2385 122.142 10.6817 121.443 10.2774C120.743 9.87305 119.961 9.67211 119.091 9.67211C118.32 9.67211 117.618 9.80042 116.981 10.0595C116.343 10.3185 115.79 10.7059 115.326 11.2216V17.5163C115.771 17.9908 116.321 18.3637 116.981 18.6324C117.637 18.9012 118.342 19.0367 119.091 19.0367Z"/>
<path d="M99.484 22.7262C97.905 22.7262 96.4776 22.3533 95.2021 21.6101C93.9265 20.8668 92.9141 19.8645 92.1648 18.6031C91.4156 17.3418 91.041 15.9279 91.041 14.3566C91.041 12.7853 91.4109 11.3642 92.1483 10.0931C92.888 8.82207 93.898 7.81491 95.1855 7.06923C96.4705 6.32597 97.9026 5.95312 99.4816 5.95312C101.061 5.95312 102.493 6.32597 103.778 7.06923C105.063 7.81249 106.075 8.82207 106.815 10.0931C107.555 11.3642 107.922 12.7853 107.922 14.3566C107.922 15.9279 107.552 17.3442 106.815 18.6031C106.075 19.8645 105.07 20.8668 103.794 21.6101C102.521 22.3533 101.084 22.7262 99.484 22.7262ZM99.484 19.0365C100.314 19.0365 101.058 18.8307 101.715 18.4167C102.372 18.0027 102.898 17.441 103.294 16.7268C103.69 16.0126 103.887 15.2233 103.887 14.3542C103.887 13.4657 103.69 12.6691 103.294 11.967C102.898 11.2649 102.372 10.7008 101.715 10.2771C101.056 9.85344 100.314 9.64281 99.484 9.64281C98.6732 9.64281 97.9358 9.85586 97.2672 10.2771C96.5986 10.7008 96.0722 11.2649 95.6881 11.967C95.304 12.6691 95.112 13.4657 95.112 14.3542C95.112 15.2233 95.304 16.0126 95.6881 16.7268C96.0722 17.441 96.5986 18.0027 97.2672 18.4167C97.9358 18.8283 98.6755 19.0365 99.484 19.0365Z"/>
<path d="M79.5084 22.7271C77.384 22.7271 75.5821 22.1799 74.105 21.0832C72.6278 19.9888 71.5657 18.4176 70.916 16.3718L74.9846 14.7908C75.4303 16.1127 76.0207 17.086 76.7604 17.7058C77.5002 18.3256 78.4154 18.6355 79.5084 18.6355C80.8243 18.6355 81.8817 18.2021 82.6807 17.333C83.4797 16.4638 83.8804 15.3065 83.8804 13.8612V1.92537L88.2833 0.714844V13.9846C88.2833 15.7423 87.9182 17.2773 87.1903 18.5895C86.4624 19.9017 85.4405 20.9209 84.1246 21.6424C82.8088 22.3639 81.27 22.7271 79.5084 22.7271Z"/>
<path d="M67.7767 8.81938C67.5515 7.97928 67.165 7.24086 66.6316 6.62591C66.0934 6.00612 65.3821 5.52433 64.5143 5.19022C63.6702 4.8658 62.6365 4.70117 61.4368 4.70117C60.4149 4.70117 59.4499 4.78349 58.5703 4.94328C57.6669 5.10791 57.0268 5.2798 56.6119 5.46622L56.2017 5.65265L56.7067 9.26243C56.7067 9.26243 58.2028 8.71043 58.8595 8.58454C59.5187 8.45865 60.3058 8.39328 61.1949 8.39328C61.8327 8.39328 62.3449 8.48286 62.7195 8.66201C63.087 8.83633 63.3667 9.05907 63.573 9.34233C63.7888 9.6377 63.9334 9.96938 64.0164 10.3519C64.1089 10.7732 64.1539 11.2041 64.1539 11.6326V11.6956C64.0188 11.669 63.8741 11.6399 63.7153 11.6109C63.4213 11.5552 63.1154 11.5116 62.8025 11.4801C62.4824 11.4462 62.1647 11.4317 61.8636 11.4317C60.9341 11.4317 60.0308 11.531 59.1844 11.7246C58.3142 11.9256 57.5342 12.2428 56.8727 12.6713C56.1851 13.1168 55.6327 13.7099 55.232 14.4362C54.8289 15.165 54.625 16.039 54.625 17.0292C54.625 18.046 54.7981 18.9345 55.1371 19.673C55.4833 20.4259 55.9764 21.0409 56.6024 21.5033C57.2093 21.9512 57.9325 22.2804 58.7528 22.4838C59.5448 22.6799 60.4173 22.7792 61.3514 22.7792C61.9892 22.7792 62.6436 22.7525 63.2956 22.6993C63.95 22.646 68.1063 21.5808 68.1063 21.5808V11.4777C68.0992 10.519 67.9901 9.62559 67.7767 8.81938ZM64.1515 15.1625V19.0338C63.9334 19.0653 63.6892 19.0871 63.4189 19.104C62.9186 19.1331 62.333 19.15 61.6786 19.15C60.6804 19.15 59.8957 18.9757 59.3456 18.6343C58.8833 18.3462 58.658 17.8112 58.658 16.9977C58.658 16.574 58.7457 16.2569 58.9259 16.0244C59.1346 15.7533 59.3906 15.5451 59.706 15.3877C60.0403 15.2206 60.4173 15.1093 60.8274 15.056C61.2756 14.9979 61.7047 14.9689 62.103 14.9689C62.7171 14.9689 63.2435 15.0028 63.6655 15.0705C63.8718 15.0996 64.0306 15.1335 64.1515 15.1625Z"/>
<path d="M47.8834 22.6641C46.1218 22.6641 44.7917 22.2574 43.8907 21.4391C42.9897 20.6232 42.5392 19.4296 42.5392 17.8583V9.79864H39.291V6.2639H42.5392V2.14085L46.6979 1.17969V6.2639H51.2217V9.79864H46.6979V16.9916C46.6979 17.7348 46.8591 18.2675 47.184 18.5871C47.5064 18.9091 48.0754 19.0688 48.8839 19.0688C49.2894 19.0688 49.6592 19.0422 49.9912 18.9914C50.3255 18.9405 50.6953 18.8413 51.0984 18.696V22.1993C50.674 22.3445 50.1429 22.4583 49.5051 22.5406C48.8697 22.6229 48.3291 22.6641 47.8834 22.6641Z"/>
<path d="M27.3386 22.7258C26.1247 22.7258 25.0459 22.4523 24.1046 21.9051C23.1633 21.3579 22.4236 20.5977 21.8877 19.6269C21.3519 18.6536 21.084 17.5375 21.084 16.2762V6.989L25.2427 6.02058V15.6564C25.2427 16.6902 25.5414 17.5157 26.1389 18.1355C26.7364 18.7553 27.5401 19.0652 28.5525 19.0652C29.2401 19.0652 29.8637 18.9248 30.4208 18.6464C30.978 18.3679 31.438 17.9685 31.8031 17.4528V4.32584L35.9618 3.35742V22.4159H31.8031V21.1134C30.5892 22.1884 29.1002 22.7258 27.3386 22.7258Z"/>
<path d="M13.5714 13.4568C14.8256 12.9412 15.8286 12.1543 16.5778 11.1012C17.327 10.048 17.7016 8.82779 17.7016 7.44295C17.7016 6.12105 17.3934 4.95169 16.7746 3.93969C16.1581 2.92769 15.2975 2.136 14.195 1.56705C13.0901 0.998107 11.8216 0.714844 10.3848 0.714844H0V6.47453V9.45V22.4172L4.40288 21.381V8.40895V5.43348V4.59095H9.98887C10.9799 4.59095 11.7742 4.85969 12.3717 5.39716C12.9692 5.93463 13.2679 6.63674 13.2679 7.5059C13.2679 8.37505 12.9692 9.07716 12.3717 9.61463C11.7742 10.1521 10.9799 10.4208 9.98887 10.4208H7.25278V14.1105H9.19934L13.358 22.4196H18.2778L13.5714 13.4568Z"/>
</svg>
