<svg id="map-marker" width="9" height="11" viewBox="0 0 9 11" xmlns="http://www.w3.org/2000/svg">
<path fill-rule="evenodd" clip-rule="evenodd" d="M4.39922 4.95078C3.94437 4.95078 3.57422 4.58063 3.57422 4.12578C3.57422 3.67093 3.94437 3.30078 4.39922 3.30078C4.85407 3.30078 5.22422 3.67093 5.22422 4.12578C5.22422 4.58063 4.85407 4.95078 4.39922 4.95078ZM4.39961 2.19922C3.33811 2.19922 2.47461 3.06272 2.47461 4.12422C2.47461 5.18572 3.33811 6.04922 4.39961 6.04922C5.46111 6.04922 6.32461 5.18572 6.32461 4.12422C6.32461 3.06272 5.46111 2.19922 4.39961 2.19922ZM4.39964 9.70673C3.47839 8.83553 1.09964 6.38968 1.09964 4.35853C1.09964 2.56278 2.57969 1.10143 4.39964 1.10143C6.21959 1.10143 7.69964 2.56278 7.69964 4.35853C7.69964 6.38968 5.32089 8.83553 4.39964 9.70673ZM4.4 0C1.97395 0 0 1.95415 0 4.3571C0 7.36835 3.87695 10.7255 4.04195 10.8669C4.14535 10.9555 4.2724 11 4.4 11C4.5276 11 4.65465 10.9555 4.75805 10.8669C4.92305 10.7255 8.8 7.36835 8.8 4.3571C8.8 1.95415 6.82605 0 4.4 0Z"/>
</svg>
