<svg xmlns="http://www.w3.org/2000/svg" xmlns:xlink="http://www.w3.org/1999/xlink" viewBox="0 0 580.93 186"><defs><style>.cls-1{fill:#c1272d;}.cls-2{fill:url(#Безымянный_градиент_53);}.cls-3{font-size:127px;fill:#333;font-family:Rockwell-Regular, Rockwell;}.cls-4,.cls-5{fill:#f2f2f2;}.cls-4{letter-spacing:-0.04em;}</style><linearGradient id="Безымянный_градиент_53" y1="96.73" x2="609.27" y2="96.73" gradientUnits="userSpaceOnUse"><stop offset="0.19" stop-color="#fff"/><stop offset="0.58" stop-color="#6c6c6c"/><stop offset="1"/></linearGradient></defs><g id="Слой_2" data-name="Слой 2"><g id="Слой_1-2" data-name="Слой 1"><rect class="cls-1" x="298.93" width="282" height="186" rx="18.36"/><path class="cls-2" d="M74.29,64.28a22.84,22.84,0,0,1-5.08,15.1q-5.1,6.11-14.21,8.4l16.5,33.8H82.91v11.66H62L41.3,89.71H28.22v31.87h11.9v11.66H1.43V121.58H14.08V51.44H1.43V39.79H40.25q18,0,26,5.89T74.29,64.28ZM59.72,64q0-6.51-4.1-9.55t-13-3H28.22V78H41.8q9.11,0,13.51-3.17T59.72,64Z"/><path class="cls-2" d="M118.38,123.19q8.63,0,18.67-8.37V79.54H125.51V68.06h24.37v53.77H161v11.41h-24v-7.51q-11.3,8.62-21.46,8.62-9.18,0-13.55-5.45t-4.37-18.11V79.54H88.55V68.06h22v45.4q0,5,1.83,7.38T118.38,123.19Z"/><path class="cls-2" d="M201.29,68.06V79.54H189.38V113.7c0,3.56.39,5.86,1.15,6.92a4.56,4.56,0,0,0,3.94,1.58,20.65,20.65,0,0,0,6.82-1.18v11.6a36.45,36.45,0,0,1-9.61,1.73q-8.07,0-11.6-4.06t-3.53-13.92V79.54h-8.5V68.06h8.5V58.2l12.83-11.72V68.06Z"/><path class="cls-2" d="M265.6,91.07v30.76h10.91v11.41h-22.2v-8q-9.3,9.12-20.71,9.11a22.41,22.41,0,0,1-19-10.26,19.56,19.56,0,0,1,.31-21.33,21.64,21.64,0,0,1,9-7.41,26.83,26.83,0,0,1,11.35-2.61A31.09,31.09,0,0,1,253,98.33v-7c0-5.09-1.08-8.72-3.23-10.92s-5.68-3.28-10.6-3.28A18.16,18.16,0,0,0,230.47,79a15.06,15.06,0,0,0-5.8,5.74l-12.28-3a27.45,27.45,0,0,1,11.22-11.57,35,35,0,0,1,16.81-3.81q13.08,0,19.13,6T265.6,91.07Zm-30.27,33.42q9.43,0,17.68-7.87V109q-8.37-6.51-16.75-6.51a13,13,0,0,0-8.77,3.19,10.72,10.72,0,0,0-.47,15.75A11.55,11.55,0,0,0,235.33,124.49Z"/><path class="cls-2" d="M377.09,51.44v82.67q0,15.62-5.52,22t-17.86,6.42a38.26,38.26,0,0,1-10.78-1.49V147.87a39.73,39.73,0,0,0,9.79,1.37q4.35,0,6.48-1.4a7.37,7.37,0,0,0,3-4.43,34.12,34.12,0,0,0,.84-8.62V51.44h-12V39.79h38V51.44Z"/><path class="cls-2" d="M459.26,100.74a34.22,34.22,0,0,1-4.53,17.37,33.77,33.77,0,0,1-29.64,17,34.44,34.44,0,0,1-17.67-4.59,32.36,32.36,0,0,1-12.25-12.46,35.23,35.23,0,0,1-4.37-17.37A35.74,35.74,0,0,1,395.17,83a31.59,31.59,0,0,1,12.18-12.25,35.39,35.39,0,0,1,17.74-4.43A33.27,33.27,0,0,1,442.52,71a34.39,34.39,0,0,1,16.74,29.73Zm-34.17,22a19.47,19.47,0,0,0,10.48-3,20.68,20.68,0,0,0,7.44-8,23,23,0,0,0,2.67-11A22.78,22.78,0,0,0,443,89.89a21.44,21.44,0,0,0-7.44-8.09,19.79,19.79,0,0,0-21.08-.06A21.2,21.2,0,0,0,407,89.83a23.19,23.19,0,0,0,0,21.83,20.82,20.82,0,0,0,7.57,8.06A19.77,19.77,0,0,0,425.09,122.7Z"/><path class="cls-2" d="M514.26,66.33a29.91,29.91,0,0,1,16.25,4.56,31.51,31.51,0,0,1,11.32,12.3,35.64,35.64,0,0,1,4.06,16.75,36.47,36.47,0,0,1-4.12,17.18,32.75,32.75,0,0,1-11.38,12.55,29.36,29.36,0,0,1-16.25,4.68,32.43,32.43,0,0,1-13.55-2.91,24.62,24.62,0,0,1-10.08-8v9.8h-24V121.83h11.54V51.07H466.51V39.79h24V77.37Q500.31,66.33,514.26,66.33Zm-2.66,56.61a18.68,18.68,0,0,0,10.85-3.28,22.07,22.07,0,0,0,7.38-8.62,25.63,25.63,0,0,0,2.6-11.35,22.73,22.73,0,0,0-2.66-10.91,20.5,20.5,0,0,0-7.38-7.88A19.92,19.92,0,0,0,511.72,78a19.32,19.32,0,0,0-10.67,3,21,21,0,0,0-7.37,8.25,25,25,0,0,0-2.67,11.6A23.22,23.22,0,0,0,493.74,112a20.72,20.72,0,0,0,7.44,8A19.43,19.43,0,0,0,511.6,122.94Z"/><text class="cls-3" transform="translate(0 133.24)">Ruta<tspan class="cls-1" x="278.93" y="0" xml:space="preserve">  </tspan><tspan class="cls-4" x="347.76" y="0">J</tspan><tspan class="cls-5" x="385.96" y="0">ob</tspan></text></g></g></svg>