<svg width="51" height="51" viewBox="0 0 51 51" fill="none" xmlns="http://www.w3.org/2000/svg">
<g clip-path="url(#clip0_3462_28594)">
<path d="M0.323242 13.6252H50.3231V9.80742C50.3231 9.33135 49.9371 8.94531 49.461 8.94531H1.18535C0.709277 8.94531 0.323242 9.33135 0.323242 9.80742V13.6252Z" fill="#73AF00"/>
<path d="M50.3231 13.625H0.323242V18.305H50.3231V13.625Z" fill="#F5F5F5"/>
<path d="M50.3231 18.3047H0.323242V22.9847H50.3231V18.3047Z" fill="#73AF00"/>
<path d="M50.3231 22.9844H0.323242V27.6643H50.3231V22.9844Z" fill="#F5F5F5"/>
<path d="M50.3231 27.6641H0.323242V32.344H50.3231V27.6641Z" fill="#73AF00"/>
<path d="M50.3231 32.3438H0.323242V37.0237H50.3231V32.3438Z" fill="#F5F5F5"/>
<path d="M1.18535 41.7033H49.4611C49.9372 41.7033 50.3232 41.3173 50.3232 40.8412V37.0234H0.323242V40.8412C0.323242 41.3174 0.709277 41.7033 1.18535 41.7033Z" fill="#73AF00"/>
<path d="M1.18535 22.9847H24.4611C24.9372 22.9847 25.3232 22.5987 25.3232 22.1226V9.80742C25.3232 9.33135 24.9372 8.94531 24.4611 8.94531H1.18535C0.709277 8.94531 0.323242 9.33135 0.323242 9.80742V22.1226C0.323242 22.5987 0.709277 22.9847 1.18535 22.9847Z" fill="#FF4B55"/>
<path d="M13.5799 21.8757H12.19C12.0636 21.8757 11.9504 21.797 11.9066 21.6784L11.459 20.4702C11.2843 19.9985 11.2059 19.4966 11.2284 18.9942L11.3842 15.5044C11.3882 15.4158 11.4451 15.3384 11.5284 15.3081C11.6713 15.2561 11.8227 15.362 11.8227 15.5143V17.1034C11.8227 17.1479 11.8587 17.1839 11.9032 17.1839C11.946 17.1839 11.9814 17.1503 11.9835 17.1074L12.1084 14.5735C12.1135 14.4705 12.1909 14.3858 12.2928 14.3712C12.4192 14.3531 12.5334 14.4486 12.5382 14.5763L12.6245 16.9387C12.6262 16.9861 12.6682 17.0219 12.7153 17.0159C12.7551 17.011 12.7853 16.9775 12.7861 16.9372L12.8379 14.3121C12.8408 14.1688 12.9818 14.0693 13.1178 14.1146C13.2011 14.1424 13.2587 14.2184 13.2629 14.3061L13.3911 16.9594C13.3924 16.9889 13.4097 17.0153 13.4361 17.0285C13.4894 17.0553 13.5525 17.0177 13.5542 16.9579L13.6185 14.9021C13.6234 14.7468 13.786 14.6477 13.9262 14.7145C13.997 14.7482 14.0439 14.8178 14.0485 14.8961L14.1981 17.4193L14.5984 18.587C14.6209 18.6526 14.713 18.6538 14.7369 18.5888C14.8502 18.2793 15.1076 17.7014 15.5204 17.4469C15.5936 17.4019 15.6873 17.4076 15.7561 17.4592C15.8572 17.5351 15.869 17.6813 15.7826 17.7734C15.5813 17.9876 15.2878 18.4379 15.309 19.2296C15.3118 19.3304 15.2826 19.4294 15.223 19.5108L14.0951 21.0516C13.9822 21.2059 13.9097 21.386 13.8844 21.5756L13.8793 21.6134C13.8596 21.7636 13.7315 21.8757 13.5799 21.8757Z" fill="#F5F5F5"/>
<path d="M12.8887 10.1254L13.1152 10.8045L13.831 10.81C13.8865 10.8104 13.9094 10.8812 13.8648 10.9142L13.2889 11.3394L13.5048 12.0219C13.5215 12.0748 13.4614 12.1186 13.4162 12.0863L12.8338 11.6699L12.2514 12.0863C12.2063 12.1185 12.1461 12.0747 12.1628 12.0219L12.3787 11.3394L11.8029 10.9142C11.7582 10.8812 11.7812 10.8104 11.8367 10.81L12.5525 10.8045L12.7789 10.1254C12.7966 10.0728 12.8711 10.0728 12.8887 10.1254Z" fill="#F5F5F5"/>
<path d="M9.52151 11.1021L9.74798 11.7812L10.4638 11.7866C10.5193 11.787 10.5422 11.8578 10.4976 11.8908L9.92171 12.316L10.1376 12.9985C10.1543 13.0515 10.0942 13.0952 10.049 13.0629L9.46663 12.6466L8.88421 13.0629C8.83909 13.0951 8.77893 13.0514 8.79563 12.9985L9.01155 12.316L8.43567 11.8908C8.39104 11.8578 8.41399 11.787 8.46946 11.7866L9.18528 11.7812L9.41175 11.1021C9.42962 11.0493 9.50393 11.0493 9.52151 11.1021Z" fill="#F5F5F5"/>
<path d="M16.3379 11.1021L16.5644 11.7812L17.2802 11.7866C17.3357 11.787 17.3586 11.8578 17.314 11.8908L16.7381 12.316L16.954 12.9985C16.9707 13.0515 16.9106 13.0952 16.8655 13.0629L16.283 12.6466L15.7006 13.0629C15.6555 13.0951 15.5953 13.0514 15.612 12.9985L15.828 12.316L15.2521 11.8908C15.2075 11.8578 15.2304 11.787 15.2859 11.7866L16.0017 11.7812L16.2282 11.1021C16.246 11.0493 16.3203 11.0493 16.3379 11.1021Z" fill="#F5F5F5"/>
<path d="M18.5967 13.6703L18.8232 14.3494L19.539 14.3549C19.5945 14.3553 19.6174 14.4261 19.5728 14.4591L18.9969 14.8843L19.2128 15.5668C19.2295 15.6197 19.1694 15.6635 19.1242 15.6312L18.5418 15.2149L17.9594 15.6312C17.9143 15.6634 17.8541 15.6196 17.8708 15.5668L18.0867 14.8843L17.5109 14.4591C17.4662 14.4261 17.4892 14.3553 17.5447 14.3549L18.2605 14.3494L18.4869 13.6703C18.5048 13.6177 18.5791 13.6177 18.5967 13.6703Z" fill="#F5F5F5"/>
<path d="M7.07522 13.6703L7.30169 14.3494L8.01751 14.3549C8.07297 14.3553 8.09592 14.4261 8.05129 14.4591L7.47542 14.8843L7.69133 15.5668C7.70803 15.6197 7.64788 15.6635 7.60276 15.6312L7.02034 15.2149L6.43792 15.6312C6.3928 15.6634 6.33265 15.6196 6.34934 15.5668L6.56526 14.8843L5.98938 14.4591C5.94476 14.4261 5.9677 14.3553 6.02317 14.3549L6.73899 14.3494L6.96546 13.6703C6.98313 13.6177 7.05764 13.6177 7.07522 13.6703Z" fill="#F5F5F5"/>
<path d="M19.2461 17.0395L19.4726 17.7186L20.1884 17.724C20.2439 17.7244 20.2668 17.7952 20.2222 17.8282L19.6463 18.2534L19.8622 18.936C19.8789 18.9889 19.8188 19.0326 19.7737 19.0003L19.1912 18.584L18.6088 19.0003C18.5637 19.0325 18.5035 18.9888 18.5202 18.936L18.7362 18.2534L18.1603 17.8282C18.1157 17.7952 18.1386 17.7244 18.1941 17.724L18.9099 17.7186L19.1364 17.0395C19.154 16.9868 19.2285 16.9868 19.2461 17.0395Z" fill="#F5F5F5"/>
<path d="M6.19729 17.0395L6.42376 17.7186L7.13957 17.724C7.19504 17.7244 7.21799 17.7952 7.17336 17.8282L6.59749 18.2534L6.8134 18.936C6.8301 18.9889 6.76995 19.0326 6.72483 19.0003L6.14241 18.584L5.55999 19.0003C5.51487 19.0325 5.45472 18.9888 5.47141 18.936L5.68733 18.2534L5.11145 17.8282C5.06683 17.7952 5.08978 17.7244 5.14524 17.724L5.86106 17.7186L6.08753 17.0395C6.1053 16.9868 6.17971 16.9868 6.19729 17.0395Z" fill="#F5F5F5"/>
</g>
<defs>
<clipPath id="clip0_3462_28594">
<rect width="50" height="50" fill="white" transform="translate(0.324219 0.324219)"/>
</clipPath>
</defs>
</svg>
