<svg width="51" height="51" viewBox="0 0 51 51" fill="none" xmlns="http://www.w3.org/2000/svg">
<g clip-path="url(#clip0_3462_28560)">
<path d="M17.4187 41.7039H1.61406C1.13799 41.7039 0.751953 41.3179 0.751953 40.8418V9.80742C0.751953 9.33135 1.13799 8.94531 1.61406 8.94531H17.4187V41.7039Z" fill="#464655"/>
<path d="M34.0859 8.94531H17.4189V41.7041H34.0859V8.94531Z" fill="#FF4B55"/>
<path d="M49.8895 41.7039H34.085V8.94531H49.8895C50.3656 8.94531 50.7517 9.33135 50.7517 9.80742V40.8418C50.7517 41.318 50.3656 41.7039 49.8895 41.7039Z" fill="#73AF00"/>
<path d="M28.0024 27.0156H23.5029L23.7529 26.5156H27.7524L28.0024 27.0156Z" fill="#F5F5F5"/>
<path d="M28.0024 23.0156H23.5029L23.7529 23.5156H27.7524L28.0024 23.0156Z" fill="#F5F5F5"/>
<path d="M27.0026 23.2655H24.5029L25.0029 22.7656H26.5027L27.0026 23.2655Z" fill="#F5F5F5"/>
<path d="M24.5028 25.7656H23.7529V26.2656H24.5028V25.7656Z" fill="#F5F5F5"/>
<path d="M24.5028 25.0156H23.7529V25.5156H24.5028V25.0156Z" fill="#F5F5F5"/>
<path d="M24.5028 23.7656H23.7529V24.2656H24.5028V23.7656Z" fill="#F5F5F5"/>
<path d="M24.5028 24.5156H23.7529V24.7656H24.5028V24.5156Z" fill="#F5F5F5"/>
<path d="M27.7528 25.7656H27.0029V26.2656H27.7528V25.7656Z" fill="#F5F5F5"/>
<path d="M27.7528 25.0156H27.0029V25.5156H27.7528V25.0156Z" fill="#F5F5F5"/>
<path d="M27.7528 23.7656H27.0029V24.2656H27.7528V23.7656Z" fill="#F5F5F5"/>
<path d="M27.7528 24.5156H27.0029V24.7656H27.7528V24.5156Z" fill="#F5F5F5"/>
<path d="M24.5029 21.7656H24.0029V22.7655H24.5029V21.7656Z" fill="#F5F5F5"/>
<path d="M24.5029 21.5156H24.0029V21.2656C24.0029 21.1275 24.1148 21.0156 24.2529 21.0156C24.391 21.0156 24.5029 21.1275 24.5029 21.2656V21.5156Z" fill="#F5F5F5"/>
<path d="M27.5029 21.7656H27.0029V22.7655H27.5029V21.7656Z" fill="#F5F5F5"/>
<path d="M27.5029 21.5156H27.0029V21.2656C27.0029 21.1275 27.1148 21.0156 27.2529 21.0156C27.391 21.0156 27.5029 21.1275 27.5029 21.2656V21.5156Z" fill="#F5F5F5"/>
<path d="M25.7528 23.7656C25.2006 23.7656 24.7529 24.2133 24.7529 24.7655V26.2654H26.7527V24.7655C26.7527 24.2133 26.3052 23.7656 25.7528 23.7656Z" fill="#F5F5F5"/>
<path d="M24.0977 25.3403L22.7366 23.7525C22.7454 23.7269 22.7529 23.7005 22.7529 23.6719C22.7529 23.5338 22.641 23.4219 22.5029 23.4219C22.3648 23.4219 22.2529 23.5338 22.2529 23.6719C22.2529 23.81 22.3648 23.9219 22.5029 23.9219C22.518 23.9219 22.5311 23.9158 22.5453 23.9134L22.6861 24.0777L22.0029 25.6718L22.7528 26.4217L23.4004 24.9109L23.9079 25.503L24.0977 25.3403ZM22.8815 25.8625L22.2832 25.2642L22.5531 24.6342L23.1515 25.2325L22.8815 25.8625Z" fill="#F5F5F5"/>
<path d="M27.6038 25.503L28.1113 24.9109L28.7589 26.4217L29.5088 25.6718L28.8256 24.0777L28.9664 23.9134C28.9808 23.9159 28.9937 23.9219 29.0088 23.9219C29.1469 23.9219 29.2588 23.81 29.2588 23.6719C29.2588 23.5338 29.1469 23.4219 29.0088 23.4219C28.8707 23.4219 28.7588 23.5338 28.7588 23.6719C28.7588 23.7006 28.7662 23.727 28.7751 23.7525L27.4141 25.3403L27.6038 25.503ZM28.3602 25.2327L28.9585 24.6344L29.2284 25.2644L28.6301 25.8627L28.3602 25.2327Z" fill="#F5F5F5"/>
<path d="M26.0357 21.3091C25.9572 21.2859 25.8871 21.2431 25.8428 21.1743C25.8132 21.1283 25.783 21.0761 25.7528 21.0156C25.7227 21.0761 25.6925 21.1283 25.6629 21.1743C25.6185 21.2432 25.5484 21.286 25.4699 21.3091C25.0558 21.4311 24.7529 21.8118 24.7529 22.2654C24.7529 22.3522 24.7675 22.4351 24.7883 22.5154H26.7174C26.7382 22.4351 26.7527 22.3522 26.7527 22.2654C26.7526 21.8118 26.4499 21.4311 26.0357 21.3091Z" fill="#F5F5F5"/>
<path d="M20.0248 24.986C20.0121 24.8307 20.0039 24.6741 20.0039 24.5154C20.0039 24.1943 20.033 23.8785 20.0846 23.5687C20.1566 23.6186 20.2321 23.6734 20.3105 23.7351C20.2739 23.9914 20.2538 24.2518 20.2538 24.5154C20.2538 24.7002 20.2633 24.8829 20.2812 25.0631L20.8096 25.2218C20.7766 24.9903 20.7537 24.7558 20.7537 24.5154C20.7537 24.3959 20.7608 24.2778 20.7703 24.1602C21.0463 24.4662 21.2641 24.8359 21.2641 25.2445C21.2641 25.255 22.0661 24.0571 20.6079 22.7344L20.5975 23.2968L19.7576 23.288C19.6819 23.2872 19.6153 23.3409 19.6021 23.4154C19.5383 23.7747 19.5039 24.1421 19.5039 24.5154C19.5039 24.6216 19.5067 24.7271 19.5119 24.8319L20.0248 24.986Z" fill="#F5F5F5"/>
<path d="M22.243 19.9633C22.3522 19.879 22.3724 19.7221 22.288 19.6127C22.2034 19.5033 22.0466 19.4836 21.9373 19.5678C20.806 20.4415 20.0296 21.6419 19.6934 22.9865L20.2086 22.9932C20.5329 21.8031 21.2345 20.7423 22.243 19.9633Z" fill="#F5F5F5"/>
<path d="M21.908 20.587C21.3644 21.1194 20.9528 21.7461 20.6729 22.4267C20.8274 22.5538 20.9541 22.6821 21.0593 22.8097C21.3112 22.1157 21.7125 21.4785 22.2579 20.9444C22.3565 20.8477 22.3582 20.6895 22.2616 20.591C22.1646 20.4921 22.0066 20.4903 21.908 20.587Z" fill="#F5F5F5"/>
<path d="M21.039 27.7928C20.6683 27.2608 20.385 26.6644 20.2091 26.0236L20.4997 26.1305C20.6812 26.7151 20.9567 27.2589 21.3095 27.7434L21.8612 27.6424C21.5497 27.2552 21.2937 26.8217 21.1066 26.3535L21.4328 26.4733C21.6189 26.882 21.8572 27.2578 22.1413 27.5912L22.7154 27.486C22.4896 27.2556 22.2922 26.9961 22.1221 26.7162L21.7895 26.051C21.6867 25.8455 21.5038 25.6916 21.2838 25.6257L20.4969 25.3892L20.3149 25.3346L20.053 25.2558L19.532 25.0992L19.2539 25.0156L19.426 25.532C19.4638 25.6454 19.5402 25.74 19.6396 25.8021C19.7987 26.5575 20.0937 27.2633 20.499 27.8919L21.039 27.7928Z" fill="#F5F5F5"/>
<path d="M30.9091 23.2968L30.8987 22.7344C29.4405 24.0571 30.2425 25.255 30.2425 25.2445C30.2425 24.8359 30.4603 24.4662 30.7363 24.1602C30.7458 24.2778 30.7529 24.396 30.7529 24.5154C30.7529 24.7559 30.73 24.9904 30.697 25.2218L31.2254 25.0631C31.2433 24.8829 31.2528 24.7003 31.2528 24.5154C31.2528 24.2517 31.2327 23.9913 31.196 23.7351C31.2744 23.6735 31.35 23.6186 31.4219 23.5687C31.4736 23.8784 31.5026 24.1944 31.5026 24.5154C31.5026 24.674 31.4944 24.8307 31.4817 24.986L31.9945 24.8319C31.9998 24.7271 32.0025 24.6216 32.0025 24.5154C32.0025 24.1421 31.968 23.7747 31.9043 23.4154C31.891 23.3408 31.8244 23.2872 31.7488 23.288L30.9091 23.2968Z" fill="#F5F5F5"/>
<path d="M31.2976 22.9932L31.8128 22.9866C31.4765 21.6419 30.7002 20.4415 29.5689 19.5678C29.4596 19.4835 29.3028 19.5034 29.2182 19.6127C29.1338 19.7221 29.1539 19.8791 29.2632 19.9633C30.2717 20.7422 30.9732 21.8031 31.2976 22.9932Z" fill="#F5F5F5"/>
<path d="M30.8338 22.4268C30.5537 21.7461 30.1423 21.1194 29.5987 20.587C29.5 20.4903 29.342 20.4921 29.2452 20.5909C29.1485 20.6895 29.1503 20.8477 29.2489 20.9443C29.7944 21.4784 30.1956 22.1155 30.4476 22.8097C30.5526 22.6821 30.6791 22.5538 30.8338 22.4268Z" fill="#F5F5F5"/>
<path d="M31.9744 25.0995L31.4534 25.2561L31.1915 25.3349L31.0096 25.3895L30.2227 25.626C30.0026 25.692 29.8196 25.8459 29.717 26.0513L29.3844 26.7165C29.2144 26.9964 29.0168 27.2559 28.791 27.4863L29.3651 27.5915C29.6492 27.2581 29.8876 26.8824 30.0736 26.4736L30.3998 26.3538C30.2127 26.822 29.9566 27.2556 29.6452 27.6427L30.197 27.7437C30.5499 27.2591 30.8252 26.7154 31.0067 26.1308L31.2974 26.0239C31.1215 26.6646 30.8382 27.2612 30.4675 27.7931L31.0074 27.8919C31.4127 27.2631 31.7076 26.5574 31.8668 25.8021C31.9662 25.7399 32.0427 25.6453 32.0805 25.532L32.2525 25.0156L31.9744 25.0995Z" fill="#F5F5F5"/>
<path d="M28.3584 27.8629L28.3455 27.8743C27.6183 28.4356 26.715 28.7651 25.7533 28.7651C24.7916 28.7651 23.8884 28.4356 23.1611 27.8743L23.1482 27.8629C23.0538 27.7591 22.9119 27.7126 22.7744 27.7403L20.2539 28.2652L20.8132 28.7554C20.9628 28.8866 21.155 28.9477 21.3461 28.9365C21.7962 29.3847 22.3131 29.7657 22.8815 30.0617L22.7178 30.3639C23.6208 30.855 24.6551 31.1342 25.7533 31.1342C26.8516 31.1342 27.8857 30.855 28.7889 30.3639L28.6251 30.0617C29.1936 29.7657 29.7104 29.3846 30.1605 28.9365C30.3517 28.9477 30.5439 28.8865 30.6936 28.7554L31.2528 28.2652L28.7323 27.7403C28.5947 27.7126 28.4527 27.7592 28.3584 27.8629ZM23.1204 29.6204C22.6673 29.3846 22.2524 29.0869 21.8791 28.7444L22.1218 28.6287C22.4607 28.9287 22.8336 29.1914 23.2388 29.4016L23.1204 29.6204ZM29.6271 28.7446C29.2539 29.087 28.839 29.3846 28.3858 29.6206L28.2674 29.4019C28.6726 29.1917 29.0453 28.929 29.3844 28.629L29.6271 28.7446ZM25.7531 29.515C24.5625 29.515 23.4716 29.0926 22.6126 28.3946L22.862 28.2757C23.673 28.9004 24.6809 29.265 25.7529 29.265C26.825 29.265 27.8329 28.9004 28.6438 28.2757L28.8933 28.3946C28.0349 29.0928 26.9437 29.515 25.7531 29.515Z" fill="#F5F5F5"/>
<path d="M23.0098 27.5088C23.1171 27.5996 23.2284 27.6855 23.3444 27.7654H28.161C28.2771 27.6855 28.3884 27.5996 28.4957 27.5088L28.2525 27.2656H23.2531L23.0098 27.5088Z" fill="#F5F5F5"/>
</g>
<defs>
<clipPath id="clip0_3462_28560">
<rect width="50" height="50" fill="white" transform="translate(0.751953 0.324219)"/>
</clipPath>
</defs>
</svg>
