<svg width="51" height="51" viewBox="0 0 51 51" fill="none" xmlns="http://www.w3.org/2000/svg">
<g clip-path="url(#clip0_3462_28556)">
<path d="M49.3165 41.7038H1.04082C0.564745 41.7038 0.178711 41.3178 0.178711 40.8417V9.80742C0.178711 9.33135 0.564745 8.94531 1.04082 8.94531H49.3166C49.7927 8.94531 50.1787 9.33135 50.1787 9.80742V40.8417C50.1786 41.3179 49.7926 41.7038 49.3165 41.7038Z" fill="#4173CD"/>
<path d="M50.1786 21.0142H22.5924V8.94531H13.9718V21.0142H0.178711V29.6349H13.9718V41.7038H22.5924V29.6349H50.1786V21.0142Z" fill="#FFE15A"/>
<path d="M50.1786 23.6005H20.0062V8.94531H16.558V23.6005H0.178711V27.0487H16.558V41.7038H20.0062V27.0487H50.1786V23.6005Z" fill="#FF4B55"/>
</g>
<defs>
<clipPath id="clip0_3462_28556">
<rect width="50" height="50" fill="white" transform="translate(0.179688 0.324219)"/>
</clipPath>
</defs>
</svg>
