<svg width="51" height="51" viewBox="0 0 51 51" fill="none" xmlns="http://www.w3.org/2000/svg">
<g clip-path="url(#clip0_3462_28553)">
<path d="M49.7472 41.7038H1.47148C0.995409 41.7038 0.609375 41.3178 0.609375 40.8417V9.80742C0.609375 9.33135 0.995409 8.94531 1.47148 8.94531H49.7473C50.2233 8.94531 50.6094 9.33135 50.6094 9.80742V40.8417C50.6093 41.3179 50.2232 41.7038 49.7472 41.7038Z" fill="#FF4B55"/>
<path d="M35.0391 29.4046C34.5676 29.1084 34.2848 29.5797 34.2848 29.5797L32.9109 29.7414L33.5978 29.1622C34.0962 29.2026 34.1635 29.0545 34.2982 28.8524C34.4329 28.6504 34.9986 28.7447 34.9986 28.7447C34.9177 28.1251 34.1365 28.4753 34.1365 28.4753C33.5034 28.4079 33.3957 28.9198 33.3957 28.9198L32.4124 29.6741L30.2484 29.0329C30.4728 28.7856 30.6491 28.542 30.6748 28.3944C30.7178 28.1466 29.0764 27.7298 28.5735 27.209C28.0707 26.6881 27.8911 25.8621 28.1246 25.6465C28.358 25.431 28.5556 26.0416 28.807 26.5445C29.0584 27.0474 29.5255 27.4424 29.8307 27.1911C30.136 26.9397 29.5075 26.5626 29.2201 26.0237C28.9328 25.4849 29.4356 25.2873 29.6691 25.3412C29.9026 25.3951 30.0463 26.5087 30.6031 27.0833C31.1597 27.658 31.6627 27.5502 31.7166 27.191C31.7705 26.8318 30.7977 26.3892 30.6001 26.0839C30.4025 25.7786 30.3515 25.1795 30.6749 25.1616C30.9981 25.1436 32.1835 26.9102 33.1893 27.5862C34.2848 28.3225 35.1648 27.4604 35.0213 27.1012C34.8776 26.742 34.213 26.8857 33.4408 26.688C32.6685 26.4905 31.8783 25.4488 31.6448 24.8742C31.4113 24.2995 31.6044 24.2995 31.7391 24.3534C31.8738 24.4073 32.3857 25.1616 33.369 25.7408C34.3523 26.32 35.0392 25.7677 35.1201 25.6331C35.2009 25.4984 35.5116 24.8937 34.5004 25.0359C33.3511 25.1975 32.6955 24.5151 32.2241 24.1514C31.7526 23.7878 31.564 23.2893 31.7796 23.0873C31.9951 22.8852 32.7045 23.7966 33.782 24.0841C34.7718 24.3479 35.1739 23.9224 35.1468 23.5318C35.1199 23.1412 34.8909 23.3028 33.7729 23.1951C32.6549 23.0874 31.8737 22.0367 31.8333 21.9693C31.7928 21.9019 31.8063 21.5248 32.372 21.8884C32.9378 22.2521 33.948 22.4676 34.5407 22.4407C35.1334 22.4137 35.2545 21.619 34.9717 21.4843C34.6889 21.3497 34.6215 21.5517 33.975 21.6864C33.3284 21.8211 32.1162 21.1611 31.8198 20.8512C31.5234 20.5414 31.8467 20.3394 31.9949 20.3663C32.143 20.3931 33.1129 20.959 33.975 20.932C34.8371 20.9051 35.2007 20.1103 35.1738 19.8678C35.1468 19.6254 34.9044 19.4233 34.5407 19.6658C34.177 19.9083 33.6921 20.1911 32.8839 20.0564C32.0757 19.9218 31.6986 19.3829 31.8064 19.1809C31.9141 18.9789 32.6954 19.3291 33.9346 19.1944C35.1739 19.0597 35.2277 17.9686 35.1065 17.7531C34.9853 17.5376 34.6889 17.605 34.2713 17.9956C33.8538 18.3862 33.0456 18.4671 32.4126 18.4671C31.7795 18.4671 31.766 18.1573 31.8603 17.9418C31.9547 17.7262 32.6281 17.7802 33.571 17.4838C34.5138 17.1875 35.0526 16.4331 35.2008 15.9617C35.3491 15.4903 34.9853 15.1265 34.8372 15.1265C34.689 15.1265 34.7833 14.911 34.1368 15.8404C33.4902 16.7698 31.793 17.1335 31.793 17.1335C31.6718 16.9045 31.4833 16.8237 31.4833 16.8237C30.3383 17.0527 28.9573 18.0413 28.9573 18.0413C28.9573 18.0413 29.2008 18.8221 28.8966 19.4307C28.5049 20.2141 27.1623 19.7248 27.5274 18.4876C27.8314 17.4573 29.0081 16.8345 30.0021 16.7228C30.9961 16.6113 31.0467 16.236 31.0467 16.236C31.0467 16.236 30.003 16.5759 29.9843 16.1094C30.1999 16.1531 30.5175 16.1722 31.0569 16.1244C31.8582 16.0535 32.3045 15.4854 31.9495 15.3638C31.5945 15.2421 31.7466 15.6072 31.1381 15.8912C30.704 16.0937 30.2484 16.0025 30.0204 15.9333C30.231 15.4733 31.1177 15.7086 31.1177 15.7086C31.1279 14.9073 30.0647 15.1939 30.0647 15.1939C29.5978 14.1881 26.8678 15.3556 26.8678 15.3556L27.5144 15.8764C25.934 16.7563 25.6106 18.4265 25.6106 18.4265C25.6106 18.4265 25.2874 16.7563 23.7068 15.8763L24.3534 15.3555C24.3534 15.3555 21.6234 14.188 21.1565 15.1938C21.1565 15.1938 20.0933 14.9073 20.1035 15.7085C20.1035 15.7085 20.9902 15.4732 21.201 15.9332C20.9729 16.0025 20.5174 16.0936 20.0833 15.8911C19.4748 15.607 19.6269 15.2421 19.2719 15.3637C18.9169 15.4853 19.3632 16.0533 20.1644 16.1243C20.7038 16.1721 21.0215 16.1531 21.237 16.1093C21.2183 16.5758 20.1746 16.2359 20.1746 16.2359C20.1746 16.2359 20.2254 16.6111 21.2192 16.7227C22.2132 16.8344 23.3899 17.4572 23.6939 18.4875C24.059 19.7248 22.7165 20.2139 22.3248 19.4306C22.0205 18.8221 22.264 18.0412 22.264 18.0412C22.264 18.0412 20.883 17.0526 19.7381 16.8236C19.7381 16.8236 19.5495 16.9045 19.4283 17.1334C19.4283 17.1334 17.7311 16.7697 17.0846 15.8403C16.438 14.9109 16.5323 15.1265 16.3842 15.1265C16.236 15.1265 15.8724 15.4901 16.0205 15.9616C16.1687 16.4331 16.7074 17.1874 17.6504 17.4837C18.5934 17.78 19.2668 17.7262 19.361 17.9417C19.4554 18.1572 19.4419 18.467 18.8088 18.467C18.1757 18.467 17.3675 18.3861 16.95 17.9955C16.5324 17.6049 16.2361 17.5375 16.1148 17.753C15.9937 17.9685 16.0475 19.0595 17.2867 19.1943C18.526 19.329 19.3072 18.9788 19.4149 19.1808C19.5226 19.3829 19.1455 19.9217 18.3374 20.0563C17.5292 20.191 17.0443 19.9082 16.6807 19.6657C16.317 19.4232 16.0745 19.6253 16.0476 19.8677C16.0206 20.1102 16.3843 20.905 17.2464 20.9319C18.1085 20.9589 19.0783 20.3931 19.2265 20.3662C19.3746 20.3392 19.6979 20.5413 19.4016 20.851C19.1053 21.1608 17.893 21.8209 17.2464 21.6862C16.5998 21.5515 16.5325 21.3495 16.2496 21.4842C15.9667 21.6188 16.088 22.4135 16.6807 22.4405C17.2733 22.4675 18.2836 22.2519 18.8493 21.8883C19.415 21.5246 19.4285 21.9017 19.3881 21.9691C19.3476 22.0365 18.5664 23.0871 17.4484 23.1949C16.3305 23.3026 16.1015 23.141 16.0745 23.5316C16.0476 23.9222 16.4496 24.3478 17.4394 24.0839C18.517 23.7965 19.2266 22.885 19.442 23.0871C19.6575 23.2891 19.4689 23.7875 18.9975 24.1512C18.526 24.5149 17.8704 25.1973 16.7211 25.0357C15.71 24.8936 16.0207 25.4982 16.1015 25.6329C16.1822 25.7675 16.8692 26.3198 17.8525 25.7406C18.8358 25.1614 19.3476 24.4071 19.4824 24.3532C19.6171 24.2993 19.8102 24.2993 19.5768 24.874C19.3433 25.4487 18.553 26.4904 17.7808 26.6879C17.0085 26.8855 16.3439 26.7418 16.2003 27.101C16.0566 27.4602 16.9366 28.3222 18.0322 27.5859C19.0381 26.9099 20.2233 25.1433 20.5467 25.1613C20.8699 25.1792 20.8189 25.7783 20.6215 26.0836C20.4238 26.3889 19.4511 26.8315 19.505 27.1907C19.5589 27.5499 20.0616 27.6576 20.6184 27.083C21.1752 26.5083 21.3188 25.3947 21.5524 25.3409C21.7858 25.287 22.2888 25.4846 22.0014 26.0234C21.7141 26.5622 21.0854 26.9393 21.3908 27.1908C21.6961 27.4421 22.1631 27.0471 22.4145 26.5442C22.6659 26.0413 22.8635 25.4307 23.097 25.6463C23.3305 25.8618 23.1509 26.6879 22.6479 27.2088C22.1451 27.7296 20.5035 28.1463 20.5467 28.3941C20.5724 28.5417 20.7485 28.7852 20.973 29.0326L18.8091 29.6737L17.8258 28.9194C17.8258 28.9194 17.7181 28.4076 17.085 28.4749C17.085 28.4749 16.3037 28.1247 16.2228 28.7443C16.2228 28.7443 16.7886 28.65 16.9232 28.852C17.0579 29.0541 17.1253 29.2022 17.6236 29.1618L18.3104 29.7411L16.9365 29.5795C16.9365 29.5795 16.6536 29.108 16.1822 29.4044C16.1822 29.4044 15.5896 29.2158 15.4414 29.7815C15.4414 29.7815 15.9532 29.6872 16.088 29.7545C16.088 29.7545 16.29 30.2126 16.9366 29.9431L18.2971 30.0105L17.5293 30.3877C17.5293 30.3877 16.5595 30.0779 16.5999 30.886C16.5999 30.886 16.317 31.2092 16.5729 31.5326C16.5729 31.5326 16.6269 31.1824 16.8827 31.0342C16.8827 31.0342 17.3811 31.2363 17.7044 30.6436L18.6877 30.0509L19.6575 30.5224C19.6575 30.5224 19.6306 31.0477 20.3444 30.8322C20.3444 30.8322 20.5869 30.9938 20.6542 31.2093C20.6542 31.2093 20.964 30.8726 20.4656 30.482C20.4656 30.482 20.3444 30.024 19.7517 30.1991L19.1995 29.9162L21.243 29.3098C21.5968 29.6467 21.9785 29.923 22.1121 29.8767C22.3758 29.7854 22.5787 29.5117 22.7611 29.1262C22.9436 28.7408 23.7652 27.4021 24.1709 27.4124C24.5765 27.4225 24.7592 27.7469 24.6577 28.3252C24.5563 28.9032 23.7657 30.0106 23.2538 30.2396C22.742 30.4686 22.6611 30.5763 22.1896 30.5359C21.7182 30.4955 21.5565 30.6975 21.6643 30.9669C21.7721 31.2364 22.3024 31.4077 22.8227 31.2094C23.3885 30.9939 23.604 30.6976 23.8195 30.8727C24.035 31.0478 23.5905 31.6809 22.9844 31.8695C22.3782 32.0581 21.9202 31.9369 22.0145 32.314C22.1089 32.6912 22.7554 32.7181 23.1729 32.4756C23.5905 32.2332 24.0619 31.5597 24.1832 31.7752C24.3044 31.9908 24.2236 32.543 23.8195 32.8394C23.4154 33.1357 22.9557 32.9614 22.8632 33.23C22.7285 33.6207 23.1999 33.8766 23.5636 33.7284C23.9272 33.5802 24.3448 33.1222 24.5334 32.7181C24.722 32.314 25.0721 32.6642 24.9644 33.0414C24.8567 33.4185 24.9465 33.7283 24.1741 34.3209L25.6109 36.5299L27.0477 34.3208C26.2755 33.7282 26.3653 33.4184 26.2574 33.0413C26.1497 32.6641 26.4999 32.3139 26.6885 32.718C26.877 33.1221 27.2946 33.5801 27.6583 33.7283C28.0219 33.8764 28.4934 33.6206 28.3587 33.2299C28.2661 32.9613 27.8064 33.1356 27.4023 32.8393C26.9982 32.543 26.9174 31.9907 27.0386 31.7751C27.1598 31.5596 27.6313 32.2332 28.0489 32.4755C28.4665 32.718 29.1131 32.6911 29.2073 32.3139C29.3015 31.9368 28.8436 32.058 28.2375 31.8694C27.6313 31.6808 27.1868 31.0477 27.4023 30.8726C27.6178 30.6975 27.8334 30.9938 28.3991 31.2093C28.9195 31.4076 29.4498 31.2363 29.5575 30.9669C29.6652 30.6974 29.5036 30.4954 29.0322 30.5358C28.5607 30.5762 28.48 30.4684 27.968 30.2395C27.4561 30.0106 26.6656 28.9032 26.5641 28.3251C26.4627 27.7469 26.6453 27.4223 27.051 27.4123C27.4566 27.402 28.2781 28.7407 28.4607 29.1261C28.6432 29.5116 28.8461 29.7854 29.1097 29.8767C29.2434 29.923 29.6253 29.6467 29.9789 29.3098L32.0223 29.9162L31.4701 30.1991C30.8774 30.024 30.7562 30.482 30.7562 30.482C30.2579 30.8726 30.5676 31.2093 30.5676 31.2093C30.635 30.9938 30.8774 30.8322 30.8774 30.8322C31.5913 31.0477 31.5643 30.5224 31.5643 30.5224L32.5341 30.0509L33.5174 30.6436C33.8407 31.2363 34.3391 31.0342 34.3391 31.0342C34.5951 31.1824 34.6489 31.5326 34.6489 31.5326C34.9048 31.2093 34.6219 30.886 34.6219 30.886C34.6624 30.0779 33.6925 30.3877 33.6925 30.3877L32.9244 30.0108L34.2848 29.9434C34.9314 30.2128 35.1335 29.7548 35.1335 29.7548C35.2681 29.6875 35.78 29.7818 35.78 29.7818C35.6318 29.2161 35.0391 29.4046 35.0391 29.4046Z" fill="#464655"/>
</g>
<defs>
<clipPath id="clip0_3462_28553">
<rect width="50" height="50" fill="white" transform="translate(0.609375 0.324219)"/>
</clipPath>
</defs>
</svg>
