<svg width="51" height="51" viewBox="0 0 51 51" fill="none" xmlns="http://www.w3.org/2000/svg">
<g clip-path="url(#clip0_3462_28547)">
<path d="M25.039 41.704H0.901174C0.425098 41.704 0.0390625 41.3179 0.0390625 40.8419V9.80742C0.0390625 9.33135 0.425098 8.94531 0.901174 8.94531H25.0391V41.704H25.039V41.704Z" fill="#73AF00"/>
<path d="M25.0381 8.94531H49.176C49.6521 8.94531 50.0381 9.33135 50.0381 9.80742V40.8419C50.0381 41.3179 49.6521 41.704 49.176 41.704H25.0381V8.94531Z" fill="#F5F5F5"/>
<path d="M29.1993 22.1893L27.7046 24.1445L25.3709 23.3634C25.2405 23.3197 25.1294 23.4673 25.2076 23.5805L26.6052 25.6061L25.1411 27.5843C25.0591 27.6948 25.1652 27.846 25.2971 27.8066L27.6555 27.1033L29.0844 29.1071C29.1643 29.2192 29.3409 29.165 29.3442 29.0275L29.4041 26.5672L31.7512 25.8274C31.8825 25.786 31.8855 25.6015 31.7557 25.5558L29.4344 24.7385L29.4562 22.2774C29.4575 22.1399 29.2828 22.0801 29.1993 22.1893Z" fill="#FF4B55"/>
<path d="M26.5877 31.2454C23.3202 31.2454 20.6697 28.5949 20.6697 25.3245C20.6697 22.0601 23.3202 19.4036 26.5877 19.4036C27.8033 19.4036 28.9244 19.7775 29.8587 20.4103C30.0018 20.5071 30.1651 20.3192 30.0452 20.1946C28.6489 18.7429 26.6727 17.8573 24.4816 17.9321C20.7172 18.0605 17.6009 21.0788 17.3603 24.8377C17.0848 29.1433 20.494 32.7213 24.7387 32.7213C26.8295 32.7213 28.7086 31.8472 30.0505 30.4496C30.1691 30.3261 30.0054 30.141 29.8638 30.237C28.9284 30.8711 27.8055 31.2454 26.5877 31.2454Z" fill="#FF4B55"/>
</g>
<defs>
<clipPath id="clip0_3462_28547">
<rect width="50" height="50" fill="white" transform="translate(0.0390625 0.324219)"/>
</clipPath>
</defs>
</svg>
