<svg width="51" height="51" viewBox="0 0 51 51" fill="none" xmlns="http://www.w3.org/2000/svg">
<g clip-path="url(#clip0_3462_28529)">
<path d="M49.6075 41.9734H1.33183C0.855761 41.9734 0.469727 41.5873 0.469727 41.1113V10.077C0.469727 9.60088 0.855761 9.21484 1.33183 9.21484H49.6076C50.0837 9.21484 50.4697 9.60088 50.4697 10.077V41.1113C50.4696 41.5874 50.0836 41.9734 49.6075 41.9734Z" fill="#41479B"/>
<path d="M50.4696 41.1117V40.1594L6.0081 25.5945L50.4696 11.0296V10.0773C50.4696 9.76562 50.2955 9.50498 50.0477 9.35352L0.469727 25.5945L50.0477 41.8355C50.2955 41.6841 50.4696 41.4235 50.4696 41.1117Z" fill="#FF4B55"/>
<path d="M6.00781 25.5942L50.4693 40.1591V11.0293L6.00781 25.5942Z" fill="#F5F5F5"/>
<path d="M45.2059 21.3505C45.2059 21.3505 48.1579 21.4756 48.4331 21.2504C48.7083 21.0253 48.7583 19.5242 47.7827 19.2991C46.8071 19.074 44.1553 20.525 44.1553 20.525L45.2059 21.3505Z" fill="#FFF5DC"/>
<path d="M39.4279 23.6777C39.4279 23.6777 39.3945 23.7611 39.3779 24.128C39.3612 24.4949 39.4279 25.4456 40.5788 25.8625L40.312 26.98L41.5295 27.7138C41.5295 27.7138 42.4301 26.3795 42.4801 25.262C42.53 24.1447 39.4279 23.6777 39.4279 23.6777Z" fill="#D27D69"/>
<path d="M35.7751 22.9274L36.2504 22.4521C36.2504 22.4521 35.2773 23.0457 34.9078 22.5105C34.4242 21.8101 35.0746 21.0762 35.7501 20.7509C36.4255 20.4257 37.7765 20.6759 37.7765 20.6759L38.627 22.8524L36.0503 24.4784L35.7751 22.9274Z" fill="#D27D69"/>
<path d="M43.7558 18.7732L46.0574 18.498C46.0574 18.498 45.382 19.4737 44.056 20.1992C44.056 20.1992 45.432 20.1992 45.8322 20.6745C46.2325 21.1498 45.4319 21.6002 45.1318 21.7503C44.8316 21.9004 42.2299 23.5015 42.2299 23.5015L39.9033 23.2263L43.7558 18.7732Z" fill="#D27D69"/>
<path d="M45.4654 17.0061C45.4654 17.0061 45.9657 15.8387 45.949 15.0215L44.2645 16.189C44.2645 16.189 44.6481 16.0056 44.5147 15.3384L39.011 18.3237L37.8936 20.3084L41.2959 21.3592L45.4654 17.0061Z" fill="#D27D69"/>
<path d="M41.3157 26.1035L40.7403 27.0167C40.7403 27.0167 39.7145 26.7916 39.3643 27.0417C39.0141 27.2919 38.9766 28.2301 39.5894 28.3051C39.5894 28.3051 40.0147 28.5678 40.2648 28.3551C40.2648 28.3551 40.7776 28.5552 40.8652 28.23C40.9528 27.9048 40.8402 27.6296 40.8402 27.6296H41.2029L41.8408 26.4913L41.3157 26.1035Z" fill="#FFE15A"/>
<path d="M36.1748 24.1285C36.1748 24.1285 37.7758 23.328 37.7758 22.1271C37.7758 20.9263 36.2915 20.8596 35.0907 21.2599C35.0907 21.2599 34.3736 20.6929 34.974 20.1257C35.797 19.3483 39.377 17.7241 39.377 17.7241L38.9767 19.7255C38.9767 19.7255 40.4027 20.476 40.9781 20.1258C41.4616 19.8314 46.1816 16.123 46.1816 16.123C46.1816 16.123 45.7813 18.1244 42.9794 20.1258L42.6826 21.6102C42.6173 21.9364 42.4052 22.2141 42.1077 22.3628L40.9781 22.9275C40.9781 22.9275 44.1802 23.3278 44.1802 23.728C44.1802 24.1282 43.3797 26.1297 41.7787 26.9302L40.9781 26.1297L41.3784 24.9288C41.3784 24.9288 40.1775 24.5285 39.377 24.1282C39.377 24.1282 38.1761 24.5285 37.3756 24.5285C36.5752 24.5285 36.1748 24.1285 36.1748 24.1285Z" fill="#B95546"/>
<path d="M33.7725 26.13V25.2983C33.7725 25.062 33.8663 24.8352 34.0335 24.6682L35.7739 22.9277L36.1742 23.7282H37.7753L37.375 24.1285V24.5288L35.3736 25.7297L33.7725 26.13Z" fill="#FFF5DC"/>
<path d="M34.5724 25.7286H33.7718C33.7718 25.7286 32.9713 26.9295 33.7718 26.9295C33.7718 26.9295 34.9727 26.1289 35.3729 25.7286C35.3729 25.7286 35.3729 25.3285 34.5724 25.7286Z" fill="#FFE15A"/>
<path d="M44.3365 27.5045H38.803C38.7574 27.4554 38.6936 27.4236 38.6214 27.4236C38.6214 27.4236 37.6521 27.0219 37.5142 27.0219H37.4007C37.2629 27.0219 37.1511 27.1336 37.1511 27.2715V27.5045H35.8861V27.2715C35.8861 27.1337 35.7744 27.0219 35.6365 27.0219H35.5229C35.3851 27.0219 35.2733 27.1336 35.2733 27.2715V27.2757C34.7312 27.2536 33.5722 27.1845 32.9717 26.9844L29.7695 27.785L32.9717 28.5854C33.572 28.3854 34.731 28.3161 35.2733 28.294V28.2982C35.2733 28.436 35.385 28.5478 35.5229 28.5478H35.6365C35.7743 28.5478 35.8861 28.4361 35.8861 28.2982V28.0652H37.1511V28.2982C37.1511 28.436 37.2628 28.5478 37.4007 28.5478H37.5142C37.652 28.5478 38.6214 28.1461 38.6214 28.1461C38.6936 28.1461 38.7575 28.1145 38.803 28.0652H44.3365C44.4915 28.0652 44.617 27.9395 44.617 27.7848C44.617 27.63 44.4914 27.5045 44.3365 27.5045Z" fill="#FFE15A"/>
<path d="M44.096 28.5799C43.7624 28.5132 39.9432 29.1803 39.9432 29.1803C39.9432 29.1803 39.7097 28.9468 40.4101 28.2963L40.0766 28.2129C40.0766 28.2129 39.3428 28.7299 39.0425 28.7966C38.784 28.854 38.2063 29.1349 38.0822 29.5098L35.7568 29.8974L35.8068 30.0975L38.0878 29.8301C38.1966 30.1805 38.5552 30.2519 38.8089 30.1475C38.8089 30.1475 39.1425 30.2809 39.4427 30.0474C39.4427 30.0474 40.0431 30.1475 40.0764 29.5971L44.2626 28.9633C44.2627 28.9636 44.4295 28.6466 44.096 28.5799Z" fill="#FFE15A"/>
<path d="M41.7276 31.4C41.7276 31.4 41.4107 31.8169 40.6269 31.45C39.8431 31.0831 38.9257 31.4834 38.4254 31.3666C37.9251 31.2498 37.1745 30.9497 36.4741 31.2165C35.7738 31.4833 35.3901 31.4667 35.5402 31.1331C35.6903 30.7996 35.7737 30.5494 35.5402 30.4327L35.807 30.0991L35.757 29.899C35.757 29.899 34.4227 29.382 33.5222 30.0991C32.6215 30.8162 32.8885 32.4508 34.3895 32.5675C34.3895 32.5675 34.8565 33.1512 36.0072 32.9844C36.0072 32.9844 36.7577 33.5013 38.0419 33.2679C38.0419 33.2679 38.0919 33.4179 38.9259 33.3513C39.7599 33.2846 40.6938 33.3846 40.527 33.9516C40.527 33.9516 41.144 33.8349 40.7772 33.2679C40.7772 33.2679 41.5109 33.2345 42.0113 33.6681C42.0113 33.6681 42.0447 33.1679 41.561 32.9009C41.561 32.9009 42.3783 32.6174 42.8286 32.9009C42.8286 32.9009 42.5284 32.2672 41.7278 32.3505C41.7278 32.3505 42.3115 31.8835 42.5784 32.0003C42.5784 32.0003 42.3282 31.7001 41.5943 32.0003C41.5942 32.0004 42.0612 31.7169 41.7276 31.4Z" fill="#FFE15A"/>
</g>
<defs>
<clipPath id="clip0_3462_28529">
<rect width="50" height="50" fill="white" transform="translate(0.46875 0.59375)"/>
</clipPath>
</defs>
</svg>
