<svg width="51" height="51" viewBox="0 0 51 51" fill="none" xmlns="http://www.w3.org/2000/svg">
<g clip-path="url(#clip0_3462_28472)">
<path d="M17.5651 41.7039H1.76055C1.28447 41.7039 0.898438 41.3179 0.898438 40.8418V9.80742C0.898438 9.33135 1.28447 8.94531 1.76055 8.94531H17.5651V41.7039Z" fill="#41479B"/>
<path d="M34.2324 8.94531H17.5654V41.7041H34.2324V8.94531Z" fill="#FFE15A"/>
<path d="M50.036 41.7039H34.2314V8.94531H50.036C50.5121 8.94531 50.8981 9.33135 50.8981 9.80742V40.8418C50.8981 41.318 50.5121 41.7039 50.036 41.7039Z" fill="#FF4B55"/>
<path d="M31.7595 28.1262C31.7595 27.876 31.5567 27.673 31.3064 27.673C31.2521 27.673 31.2007 27.6842 31.1524 27.7018C30.9282 27.5023 30.5218 27.0075 30.9295 26.3088C30.9846 26.3517 31.0531 26.3782 31.1283 26.3782C31.3081 26.3782 31.4537 26.2325 31.4537 26.0528C31.4537 25.9108 31.3622 25.7913 31.2353 25.7469C31.5704 25.576 32.0482 25.2132 32.0236 24.5348C31.9885 23.5727 31.2004 23.0416 30.7169 23.2539C30.7187 23.2404 30.721 23.2271 30.721 23.2133C30.721 23.036 30.5774 22.8924 30.4001 22.8924C30.2912 22.8924 30.1953 22.947 30.1373 23.03C30.1176 22.9338 30.12 22.7552 30.3436 22.5621C30.7589 22.2034 31.2309 21.3444 30.3719 20.7403C29.8962 20.4059 28.9871 20.2456 28.6824 20.7026C28.5502 20.9008 28.6562 21.1855 28.8071 21.2495C28.564 21.3851 28.1029 21.5885 27.7385 21.4295C27.2194 21.203 27.5192 20.7531 27.6347 20.5517C27.8376 20.1977 27.7103 19.6172 27.0306 19.6172C26.5775 19.6172 26.351 20.0703 25.898 20.0703C25.445 20.0703 25.2184 19.6172 24.7654 19.6172C24.0858 19.6172 23.9583 20.1977 24.1613 20.5517C24.2768 20.753 24.5766 21.2029 24.0575 21.4295C23.6931 21.5886 23.2321 21.3851 22.9889 21.2495C23.1397 21.1856 23.2457 20.9009 23.1136 20.7026C22.809 20.2457 21.8997 20.4059 21.4241 20.7403C20.5651 21.3444 21.0372 22.2033 21.4524 22.5621C21.676 22.7552 21.6784 22.9339 21.6586 23.03C21.6006 22.947 21.5047 22.8924 21.3958 22.8924C21.2186 22.8924 21.0749 23.036 21.0749 23.2133C21.0749 23.2271 21.0773 23.2405 21.079 23.2539C20.5956 23.0415 19.8074 23.5727 19.7724 24.5348C19.7477 25.2131 20.2256 25.5759 20.5607 25.7469C20.4338 25.7914 20.3423 25.9108 20.3423 26.0528C20.3423 26.2326 20.488 26.3782 20.6677 26.3782C20.7429 26.3782 20.8113 26.3518 20.8664 26.3088C21.2742 27.0075 20.8679 27.5023 20.6436 27.7018C20.5954 27.6842 20.5439 27.673 20.4896 27.673C20.2394 27.673 20.0365 27.8759 20.0365 28.1262C20.0365 28.361 20.2159 28.552 20.4449 28.5748C20.1326 28.8956 19.8524 29.6026 20.4613 30.4058C21.1267 31.2836 22.7124 31.2128 23.477 31.2411C23.9618 31.2591 24.3264 31.5101 24.5289 31.6916C24.3995 31.7714 24.3123 31.9132 24.3123 32.0764C24.3123 32.3052 24.4826 32.4924 24.703 32.5231C24.7831 32.6513 24.9242 32.7371 25.0864 32.7371C25.2676 32.7371 25.4228 32.63 25.4954 32.4761C25.7346 32.6732 25.8982 32.756 25.8982 32.756C25.8982 32.756 26.0618 32.6733 26.301 32.4761C26.3735 32.6299 26.5288 32.7371 26.71 32.7371C26.8722 32.7371 27.0133 32.6513 27.0934 32.5231C27.3138 32.4924 27.484 32.3052 27.484 32.0764C27.484 31.9131 27.3969 31.7713 27.2675 31.6916C27.4699 31.5101 27.8345 31.259 28.3194 31.2411C29.0839 31.2128 30.6697 31.2836 31.3351 30.4058C31.9439 29.6026 31.6638 28.8955 31.3515 28.5748C31.5801 28.5519 31.7595 28.361 31.7595 28.1262Z" fill="#DCBE82"/>
<path d="M21.8203 22.3065V28.8762C21.8203 29.6269 22.4288 30.2354 23.1796 30.2354H24.9919C25.6715 30.2354 25.898 30.6886 25.898 30.6886C25.898 30.6886 26.1245 30.2354 26.8042 30.2354H28.6165C29.3672 30.2354 29.9758 29.627 29.9758 28.8762V22.3065C29.9758 22.1814 29.8744 22.0801 29.7493 22.0801H22.0471C21.9217 22.0801 21.8203 22.1814 21.8203 22.3065Z" fill="#D2AA73"/>
<path d="M25.6715 22.5332H22.2734V25.9312H25.6715V22.5332Z" fill="#FF4B55"/>
<path d="M25.6715 29.7828C23.7947 29.7828 22.2734 28.2615 22.2734 26.3848H25.6715V29.7828Z" fill="#FF4B55"/>
<path d="M26.125 29.7828V26.3848H29.523C29.5229 28.2613 28.0016 29.7828 26.125 29.7828Z" fill="#FFE15A"/>
<path d="M26.6104 22.5332H26.125V25.9312H26.6104V22.5332Z" fill="#FFE15A"/>
<path d="M27.0958 22.5332H26.6104V25.9312H27.0958V22.5332Z" fill="#FF4B55"/>
<path d="M27.5802 22.5332H27.0947V25.9312H27.5802V22.5332Z" fill="#FFE15A"/>
<path d="M28.0675 22.5332H27.582V25.9312H28.0675V22.5332Z" fill="#FF4B55"/>
<path d="M28.5519 22.5332H28.0664V25.9312H28.5519V22.5332Z" fill="#FFE15A"/>
<path d="M29.5226 22.5332H29.0371V25.9312H29.5226V22.5332Z" fill="#FFE15A"/>
<path d="M29.0382 22.5332H28.5527V25.9312H29.0382V22.5332Z" fill="#FF4B55"/>
<path d="M23.7838 26.3848H23.4062V29.7828H23.7838V26.3848Z" fill="#FF4B55"/>
<path d="M24.1627 26.3848H23.7852V29.7828H24.1627V26.3848Z" fill="#FFE15A"/>
<path d="M24.9186 26.3848H24.541V29.7828H24.9186V26.3848Z" fill="#FFE15A"/>
<path d="M24.5387 26.3848H24.1611V29.7828H24.5387V26.3848Z" fill="#FF4B55"/>
<path d="M25.6715 26.3848H25.2939V29.7828H25.6715V26.3848Z" fill="#FFE15A"/>
<path d="M25.2936 26.3848H24.916V29.7828H25.2936V26.3848Z" fill="#FF4B55"/>
<path d="M22.651 29.61V26.3848H22.2734V28.8767C22.2734 29.1791 22.4231 29.4453 22.651 29.61Z" fill="#FFE15A"/>
<path d="M23.0289 29.7677V26.3848H22.6514V29.61C22.7613 29.6895 22.8894 29.7441 23.0289 29.7677Z" fill="#FF4B55"/>
<path d="M23.0293 26.3848V29.7677C23.0786 29.776 23.1285 29.7829 23.1804 29.7829H23.4068V26.3849H23.0293V26.3848V26.3848Z" fill="#FFE15A"/>
<path d="M22.7788 25.7389C22.7619 25.7389 22.7448 25.7341 22.7297 25.7241C22.5069 25.5767 22.494 25.4231 22.5061 25.3448C22.5224 25.239 22.6011 25.1512 22.7066 25.121C22.807 25.0928 22.9071 25.1224 22.9748 25.201C23.1154 25.3645 23.2607 25.4288 23.3829 25.3836C23.4797 25.3478 23.5374 25.2523 23.5374 25.1811C23.5374 25.1317 23.5773 25.0918 23.6267 25.0918C23.6761 25.0918 23.7159 25.1316 23.7159 25.1811C23.7159 25.3371 23.6021 25.4927 23.445 25.5509C23.3303 25.5933 23.0995 25.6194 22.8396 25.3174C22.8116 25.2852 22.7788 25.2861 22.7556 25.2926C22.7239 25.3017 22.6889 25.3298 22.6824 25.3719C22.673 25.4334 22.7261 25.5074 22.8281 25.5751C22.8693 25.6022 22.8805 25.6577 22.8533 25.6988C22.8361 25.7246 22.8078 25.7389 22.7788 25.7389Z" fill="#F5F5F5"/>
<path d="M25.1743 25.7387C25.1454 25.7387 25.117 25.7245 25.0999 25.6988C25.0728 25.6576 25.084 25.6022 25.1251 25.5751C25.2271 25.5074 25.2803 25.4334 25.2708 25.3719C25.2643 25.3298 25.2293 25.3017 25.1977 25.2926C25.1744 25.2861 25.1415 25.2851 25.1137 25.3174C24.8537 25.6196 24.6229 25.5935 24.5082 25.5509C24.3512 25.4927 24.2373 25.337 24.2373 25.1811C24.2373 25.1317 24.2771 25.0918 24.3266 25.0918C24.3759 25.0918 24.4158 25.1316 24.4158 25.1811C24.4158 25.2523 24.4735 25.3477 24.5703 25.3836C24.6926 25.429 24.8379 25.3645 24.9784 25.201C25.0461 25.122 25.1463 25.0926 25.2466 25.121C25.352 25.1512 25.4309 25.239 25.4472 25.3448C25.4593 25.423 25.4463 25.5767 25.2235 25.7241C25.2084 25.7337 25.1912 25.7387 25.1743 25.7387Z" fill="#F5F5F5"/>
<path d="M22.7298 25.8439C22.711 25.8439 22.692 25.8379 22.6758 25.8258C22.6366 25.7958 22.629 25.74 22.6588 25.7007L24.5987 23.15C24.6172 23.1166 24.6243 23.0702 24.6323 23.0167C24.6472 22.9166 24.666 22.7918 24.8189 22.6999C24.9186 22.6401 25.0369 22.6417 25.1358 22.7049C25.245 22.7747 25.3093 22.9045 25.296 23.0281C25.288 23.1032 25.2442 23.2402 25.041 23.3155C24.9945 23.3328 24.9433 23.3089 24.9263 23.2629C24.9092 23.2167 24.9328 23.1653 24.9789 23.1483C25.0381 23.1263 25.1105 23.0843 25.1185 23.0091C25.1247 22.9521 25.0922 22.8891 25.0396 22.8553C25.0102 22.8365 24.964 22.8204 24.9108 22.8529C24.8298 22.9015 24.8218 22.9548 24.8085 23.0432C24.7992 23.1058 24.7885 23.1767 24.7467 23.2489L22.8007 25.8087C22.7834 25.8318 22.7568 25.8439 22.7298 25.8439Z" fill="#FFE15A"/>
<path d="M23.9842 23.0391L23.0918 24.11L23.4487 25.1809H24.5196L24.8766 24.11L23.9842 23.0391Z" fill="#FFE15A"/>
<path d="M23.985 22.8984L22.9922 24.0897L23.3852 25.2688H24.5846L24.9775 24.0897L23.985 22.8984ZM23.1929 24.1277L23.8957 23.2844V25.0903H23.5138L23.1929 24.1277ZM24.4561 25.0904H24.0741V23.2845L24.777 24.1278L24.4561 25.0904Z" fill="#F5F5F5"/>
<path d="M28.6868 27.4575L28.7003 27.2596C28.7003 27.2596 28.8759 27.1336 28.7902 27.0166C28.7048 26.8996 28.6058 26.8771 28.3987 26.9041C28.1917 26.9312 27.8677 26.9267 27.7282 26.9356C27.5887 26.9447 27.5167 27.021 27.2962 26.9581L27.3547 26.8231C27.3547 26.8231 27.2513 26.8322 27.1882 26.8636C27.1538 26.8809 27.0712 26.7691 26.9902 26.7871C26.9096 26.805 26.8283 26.9716 26.7021 27.0572L26.7696 27.1922C26.7696 27.1922 26.8461 27.1562 26.9047 27.1967C26.9632 27.2372 26.9812 27.2642 27.0803 27.2642L27.1434 27.2912C27.1434 27.2912 27.1208 27.4352 27.2153 27.5028C27.2153 27.5028 27.1073 27.6423 27.1208 27.6647C27.1343 27.6872 27.2242 27.8582 27.2604 27.9572L27.3414 27.8041C27.3414 27.8041 27.2198 27.6961 27.2424 27.6825C27.2649 27.6691 27.3458 27.6511 27.3323 27.6151C27.3188 27.579 27.3954 27.6196 27.4809 27.633C27.4809 27.633 27.4854 27.7681 27.5034 27.7861C27.5215 27.804 27.5484 27.876 27.5439 27.9526C27.5395 28.029 27.472 28.0516 27.472 28.0516L27.5936 28.0876C27.5936 28.0876 27.625 28.0426 27.6476 28.0471C27.6476 28.0471 27.6385 27.6736 27.6881 27.6151C27.6881 27.6151 27.9806 27.6736 28.1155 27.6016C28.1155 27.6016 28.1328 27.6234 28.1665 27.6441C28.153 27.6754 28.1416 27.7067 28.1467 27.7158C28.158 27.7363 28.1941 27.7339 28.2031 27.7114C28.2065 27.7029 28.2118 27.6854 28.2171 27.6673C28.2334 27.6727 28.2513 27.6769 28.2717 27.6789C28.2697 27.7074 28.2695 27.7335 28.2761 27.7396C28.2931 27.7553 28.3268 27.7419 28.3283 27.7176C28.3289 27.7097 28.3285 27.6948 28.3281 27.6787C28.3514 27.6768 28.3762 27.6727 28.4035 27.6646L28.2505 27.9166L28.174 27.9481L28.273 27.9976L28.363 27.9616C28.363 27.9616 28.4484 27.7455 28.588 27.6825C28.588 27.6825 28.6825 27.9075 28.5654 28.0291L28.6689 28.0876L28.7184 27.9841C28.7184 27.9841 28.7004 27.7817 28.7679 27.6511L28.6868 27.4575Z" fill="#FF4B55"/>
<path d="M26.9943 26.8136C26.9943 26.8136 26.9492 26.7707 26.9379 26.7143C26.9266 26.6578 26.913 26.6329 26.8633 26.6172C26.8633 26.6172 26.8948 26.6533 26.8904 26.7098C26.8859 26.7662 26.8904 26.8431 26.922 26.8679L26.9943 26.8136Z" fill="#4173CD"/>
<path d="M27.3878 26.9728C27.3878 26.9728 27.3264 27.1815 27.1459 27.2901L27.083 27.2631C27.083 27.2631 27.2757 27.0984 27.299 26.957L27.3878 26.9728Z" fill="#4173CD"/>
<path d="M27.0804 26.8636C27.074 26.8569 27.1595 26.832 27.1391 26.7643C27.1187 26.6965 27.1187 26.6468 27.1595 26.6152C27.1595 26.6152 27.164 26.6717 27.1957 26.7078C27.2272 26.7439 27.2454 26.8343 27.1934 26.8862C27.1934 26.8862 27.1414 26.9269 27.0804 26.8636Z" fill="#4173CD"/>
<path d="M27.0894 27.4797C27.0786 27.4745 27.074 27.4613 27.0794 27.4505L27.1066 27.3951C27.1226 27.3626 27.112 27.3221 27.0807 27.3041C27.0462 27.2842 27.0028 27.2979 26.9856 27.333L26.9573 27.3906C26.952 27.4013 26.9389 27.4059 26.9281 27.4005L26.9111 27.4351C26.9111 27.4351 26.9361 27.4474 26.9664 27.4623L26.9657 27.4635C26.9588 27.4775 26.9646 27.4945 26.9786 27.5013C26.9926 27.5083 27.0096 27.5024 27.0164 27.4884L27.0171 27.4872C27.0474 27.502 27.0724 27.5143 27.0724 27.5143L27.0894 27.4797Z" fill="#4173CD"/>
<path d="M27.3086 27.8594L27.3763 27.8729L27.3197 28.0469L27.2627 27.9562L27.3086 27.8594Z" fill="#4173CD"/>
<path d="M27.474 28.0508L27.4326 28.1238H27.5952L27.5955 28.0868L27.474 28.0508Z" fill="#4173CD"/>
<path d="M28.2754 27.997V28.0404H28.0908L28.1801 27.9512L28.2754 27.997Z" fill="#4173CD"/>
<path d="M28.5677 28.0293L28.4766 28.1206H28.6684L28.6712 28.0879L28.5677 28.0293Z" fill="#4173CD"/>
<path d="M28.6868 28.8677L28.7003 28.6698C28.7003 28.6698 28.8759 28.5438 28.7902 28.4268C28.7048 28.3098 28.6058 28.2872 28.3987 28.3143C28.1917 28.3413 27.8677 28.3368 27.7282 28.3457C27.5887 28.3548 27.5167 28.4312 27.2962 28.3683L27.3547 28.2332C27.3547 28.2332 27.2513 28.2423 27.1882 28.2738C27.1538 28.291 27.0712 28.1792 26.9902 28.1973C26.9096 28.2152 26.8283 28.3818 26.7021 28.4673L26.7696 28.6024C26.7696 28.6024 26.8461 28.5663 26.9047 28.6069C26.9632 28.6474 26.9812 28.6743 27.0803 28.6743L27.1434 28.7014C27.1434 28.7014 27.1208 28.8453 27.2153 28.9129C27.2153 28.9129 27.1073 29.0525 27.1208 29.0748C27.1343 29.0974 27.2242 29.2684 27.2604 29.3673L27.3414 29.2143C27.3414 29.2143 27.2198 29.1063 27.2424 29.0927C27.2649 29.0792 27.3458 29.0613 27.3323 29.0252C27.3188 28.9892 27.3954 29.0297 27.4809 29.0432C27.4809 29.0432 27.4854 29.1783 27.5034 29.1962C27.5215 29.2142 27.5484 29.2862 27.5439 29.3627C27.5395 29.4392 27.472 29.4617 27.472 29.4617L27.5936 29.4978C27.5936 29.4978 27.625 29.4528 27.6476 29.4573C27.6476 29.4573 27.6385 29.0837 27.6881 29.0252C27.6881 29.0252 27.9806 29.0837 28.1155 29.0117C28.1155 29.0117 28.1328 29.0335 28.1665 29.0542C28.153 29.0856 28.1416 29.1168 28.1467 29.126C28.158 29.1464 28.1941 29.1441 28.2031 29.1215C28.2065 29.113 28.2118 29.0955 28.2171 29.0775C28.2334 29.0828 28.2513 29.087 28.2717 29.0891C28.2697 29.1175 28.2695 29.1437 28.2761 29.1497C28.2931 29.1655 28.3268 29.1521 28.3283 29.1278C28.3289 29.1199 28.3285 29.1049 28.3281 29.0889C28.3514 29.0869 28.3762 29.0828 28.4035 29.0747L28.2505 29.3268L28.174 29.3582L28.273 29.4077L28.363 29.3717C28.363 29.3717 28.4484 29.1557 28.588 29.0927C28.588 29.0927 28.6825 29.3177 28.5654 29.4393L28.6689 29.4978L28.7184 29.3943C28.7184 29.3943 28.7004 29.1918 28.7679 29.0613L28.6868 28.8677Z" fill="#FF4B55"/>
<path d="M26.9943 28.2237C26.9943 28.2237 26.9492 28.1809 26.9379 28.1244C26.9266 28.068 26.913 28.0431 26.8633 28.0273C26.8633 28.0273 26.8948 28.0635 26.8904 28.1199C26.8859 28.1764 26.8904 28.2532 26.922 28.278L26.9943 28.2237Z" fill="#4173CD"/>
<path d="M27.387 28.3829C27.387 28.3829 27.3256 28.5917 27.1451 28.7003L27.082 28.6732C27.082 28.6732 27.2747 28.5086 27.298 28.3672L27.387 28.3829Z" fill="#4173CD"/>
<path d="M27.0804 28.2737C27.074 28.2671 27.1595 28.2422 27.1391 28.1744C27.1187 28.1066 27.1187 28.0569 27.1595 28.0254C27.1595 28.0254 27.164 28.0818 27.1957 28.118C27.2272 28.1541 27.2454 28.2444 27.1934 28.2964C27.1934 28.2964 27.1414 28.3369 27.0804 28.2737Z" fill="#4173CD"/>
<path d="M27.0894 28.8899C27.0786 28.8846 27.074 28.8714 27.0794 28.8607L27.1066 28.8052C27.1226 28.7727 27.112 28.7323 27.0807 28.7142C27.0462 28.6944 27.0028 28.7081 26.9856 28.7431L26.9573 28.8007C26.952 28.8115 26.9389 28.8161 26.9281 28.8107L26.9111 28.8453C26.9111 28.8453 26.9361 28.8576 26.9664 28.8724L26.9657 28.8737C26.9588 28.8877 26.9646 28.9046 26.9786 28.9115C26.9926 28.9184 27.0096 28.9126 27.0164 28.8986L27.0171 28.8973C27.0474 28.9122 27.0724 28.9245 27.0724 28.9245L27.0894 28.8899Z" fill="#4173CD"/>
<path d="M27.3086 29.2695L27.3763 29.2831L27.3197 29.457L27.2627 29.3663L27.3086 29.2695Z" fill="#4173CD"/>
<path d="M27.474 29.4609L27.4326 29.534H27.5952L27.5955 29.4969L27.474 29.4609Z" fill="#4173CD"/>
<path d="M28.2754 29.4071V29.4506H28.0908L28.1801 29.3613L28.2754 29.4071Z" fill="#4173CD"/>
<path d="M28.5677 29.4395L28.4766 29.5308H28.6684L28.6712 29.4979L28.5677 29.4395Z" fill="#4173CD"/>
</g>
<defs>
<clipPath id="clip0_3462_28472">
<rect width="50" height="50" fill="white" transform="translate(0.898438 0.324219)"/>
</clipPath>
</defs>
</svg>
