<svg width="50" height="51" viewBox="0 0 50 51" fill="none" xmlns="http://www.w3.org/2000/svg">
<g clip-path="url(#clip0_3462_32737)">
<path d="M49.9999 25.4398H0V9.92265C0 9.44658 0.386034 9.06055 0.862108 9.06055H49.1379C49.614 9.06055 50 9.44658 50 9.92265L49.9999 25.4398Z" fill="#FF4B55"/>
<path d="M0 25.4395H49.9999V40.9566C49.9999 41.4327 49.6139 41.8187 49.1378 41.8187H0.862108C0.386034 41.8187 0 41.4327 0 40.9566V25.4395Z" fill="#464655"/>
<path d="M23.037 18.2413L23.6264 20.0085L25.4893 20.0229C25.6337 20.024 25.6935 20.2083 25.5774 20.2939L24.0788 21.4006L24.6407 23.1767C24.6843 23.3143 24.5275 23.4281 24.4101 23.3443L22.8945 22.261L21.3789 23.3443C21.2614 23.4283 21.1048 23.3143 21.1483 23.1767L21.7102 21.4006L20.2116 20.2939C20.0956 20.2082 20.1554 20.024 20.2997 20.0229L22.1626 20.0085L22.752 18.2413C22.7977 18.1045 22.9914 18.1045 23.037 18.2413Z" fill="#FFE15A"/>
<path d="M31.0041 33.2471C31.0041 33.2471 20.3395 25.2018 20.0246 24.9373C19.538 24.5286 19.1625 23.8059 19.1446 22.9258C19.1446 22.9258 17.9945 24.1039 18.2197 25.3234C18.4801 26.7332 19.2883 27.2361 20.33 27.9185C21.062 28.3981 26.8815 32.0684 30.2787 34.2095L31.0041 33.2471Z" fill="#FFE15A"/>
<path d="M34.1952 35.6042C34.0562 35.505 32.9393 34.6794 31.3895 33.5312L30.8271 34.5539C31.9649 35.2708 32.7226 35.7479 32.7226 35.7479C32.7226 35.7479 32.8303 37.1488 33.9618 36.9153C34.3696 36.8311 34.698 35.9635 34.1952 35.6042Z" fill="#FFE15A"/>
<path d="M24.9864 31.8899C24.1802 32.1736 23.3168 32.3359 22.4136 32.3359C20.1243 32.3359 18.0732 31.3387 16.6531 29.7617L15.3906 30.8979C15.8138 31.3679 16.2656 31.8107 16.7749 32.1887L16.5235 32.6241L18.3899 33.7017L18.637 33.2736C19.4802 33.6403 20.3866 33.8871 21.336 33.9946V34.4911H23.4912V33.9946C24.4406 33.8871 25.3471 33.6403 26.1902 33.2736L26.4373 33.7017L27.179 33.2734C26.4547 32.8167 25.7127 32.3486 24.9864 31.8899Z" fill="#FFE15A"/>
<path d="M31.8305 23.4995C31.723 22.5501 31.4763 21.6436 31.1096 20.8006L31.5376 20.5535L30.46 18.687L30.0246 18.9384C29.4672 18.1873 28.803 17.5231 28.0518 16.9657L28.3032 16.5303L26.4368 15.4527L26.1897 15.8808C25.4903 15.5766 24.7456 15.3605 23.9707 15.2324L23.6875 16.932C27.3648 17.5411 30.1719 20.7271 30.1719 24.5771C30.1719 26.6502 29.3538 28.5287 28.0291 29.9206C28.4873 30.2666 28.9421 30.6099 29.3917 30.9494C29.6095 30.7109 29.8315 30.476 30.0247 30.2159L30.4601 30.4673L31.5377 28.6009L31.1097 28.3538C31.4763 27.5106 31.7231 26.6042 31.8306 25.6549H32.3269V23.4997H31.8305L31.8305 23.4995Z" fill="#FFE15A"/>
</g>
<defs>
<clipPath id="clip0_3462_32737">
<rect width="50" height="50" fill="white" transform="translate(0 0.439453)"/>
</clipPath>
</defs>
</svg>
