<svg width="50" height="50" viewBox="0 0 50 50" fill="none" xmlns="http://www.w3.org/2000/svg">
<path d="M49.1378 41.3466H0.862108C0.386034 41.3466 0 40.9614 0 40.4862V9.51466C0 9.03955 0.386034 8.6543 0.862108 8.6543H49.1379C49.614 8.6543 50 9.03955 50 9.51466V40.4862C49.9999 40.9614 49.6139 41.3466 49.1378 41.3466Z" fill="#41479B"/>
<path d="M24.138 8.6543H22.6406L14.6552 13.8754V8.6543H10.3449V13.8754L2.35948 8.6543H0.862113C0.386037 8.6543 0 9.03955 0 9.51466V10.1971L6.8511 14.6766H0V18.9782H6.8511L0 23.4578V24.1401C0 24.6152 0.386037 25.0005 0.862113 25.0005H2.35948L10.3449 19.7793V25.0005H14.6552V19.7793L22.6405 25.0005H24.1379C24.614 25.0005 25 24.6152 25 24.1401V23.4577L18.149 18.9782H25V14.6766H18.1489L25 10.1971V9.51466C25 9.03955 24.6142 8.6543 24.138 8.6543Z" fill="#F5F5F5"/>
<path d="M25 15.5369H13.7931V8.6543H11.2069V15.5369H0V18.1178H11.2069V25.0005H13.7931V18.1178H25V15.5369Z" fill="#FF4B55"/>
<path d="M9.61539 14.4235L0.416588 8.6543C0.171804 8.80403 0 9.05546 0 9.35616V9.39998L8.00983 14.4235H9.61539Z" fill="#FF4B55"/>
<path d="M16.0626 14.4235L24.9998 9.06762C24.8444 8.82497 24.5704 8.6543 24.2428 8.6543H24.0498L14.4229 14.4235H16.0626Z" fill="#FF4B55"/>
<path d="M8.93456 19.2305L0 24.5761C0.154067 24.8246 0.432825 24.9997 0.765674 24.9997H0.934327L10.5769 19.2305H8.93456Z" fill="#FF4B55"/>
<path d="M25.0001 24.3109L16.9614 19.2305H15.3848L24.5133 24.9997C24.7869 24.8761 24.9744 24.6172 25.0001 24.3109Z" fill="#FF4B55"/>
<path d="M31.7882 18.5941C31.6707 20.0884 31.1847 29.5844 37.4996 31.7311C43.8168 29.5839 43.3287 20.0882 43.2109 18.5941C42.4458 18.8802 39.6762 19.7475 37.4996 18.2695C35.3232 19.7473 32.5538 18.8806 31.7882 18.5941Z" fill="#F5F5F5"/>
<path d="M41.3464 20.3714C40.9904 20.1052 40.3314 20.5996 39.5929 20.5489C38.9082 20.5019 38.0643 19.8351 36.9675 20.1226C36.6644 19.8542 36.8111 19.2305 36.8111 19.2305C36.0496 19.7039 35.995 20.3519 36.0429 20.7033C35.4999 21.3934 35.5365 22.4463 35.6378 22.7677C35.7696 23.1861 36.0201 23.2368 36.0597 23.7058C36.0992 24.1749 36.2838 24.0101 36.2838 24.0101C36.6652 23.8045 36.7206 23.4165 36.8809 22.7816C37.5004 22.8577 37.9053 22.324 37.9053 22.324C37.4989 22.4466 37.2425 22.2312 37.1028 22.0415C37.1246 21.9787 37.1421 21.9209 37.1671 21.855C37.6285 20.6378 39.8365 20.9725 40.0411 21.3097C40.4103 21.9183 40.898 22.1465 40.898 22.1465C40.898 21.512 40.4103 20.9548 40.4103 20.9548C41.1486 20.8278 41.3464 20.3714 41.3464 20.3714ZM36.0336 22.983C35.9607 22.983 35.9017 22.9263 35.9017 22.8563C35.9017 22.7863 35.9607 22.7296 36.0336 22.7296C36.1064 22.7296 36.1654 22.7863 36.1654 22.8563C36.1654 22.9263 36.1064 22.983 36.0336 22.983Z" fill="#FFA028"/>
<path d="M38.7632 27.8845C39.1923 27.7624 39.1431 27.0134 39.6045 26.4946C40.0325 26.0135 41.0803 25.7429 41.4558 24.7799C41.8567 24.698 42.3067 25.1367 42.3067 25.1367C42.3334 24.3231 41.8104 23.9397 41.4829 23.7889C41.2006 23.0222 40.2799 22.4917 39.9478 22.3964C39.5156 22.2723 39.3305 22.4306 38.9071 22.2115C38.4837 21.9923 38.5201 22.216 38.5201 22.216C38.4799 22.6068 38.78 22.8532 39.232 23.3079C38.8161 23.7255 39.043 24.3074 39.043 24.3074C39.1683 23.942 39.4976 23.8667 39.7391 23.8639C39.7803 23.9132 39.8199 23.9568 39.862 24.0102C40.6411 24.9956 39.1047 26.4504 38.7005 26.423C37.9713 26.3736 37.5 26.6134 37.5 26.6134C38.0423 26.9493 38.7948 26.8839 38.7948 26.8839C38.4851 27.4967 38.7632 27.8845 38.7632 27.8845ZM39.5396 22.5747C39.5809 22.5209 39.6628 22.5073 39.7226 22.5444C39.7824 22.5815 39.7976 22.6551 39.7563 22.7089C39.715 22.7627 39.6331 22.7763 39.5733 22.7392C39.5134 22.7021 39.4984 22.6285 39.5396 22.5747Z" fill="#FFA028"/>
<path d="M32.6953 22.6196C32.6391 23.0282 33.3989 23.3081 33.721 23.9135C34.0198 24.4749 33.8554 25.4609 34.6514 26.1851C34.5671 26.5532 33.9487 26.7389 33.9487 26.7389C34.7408 27.1096 35.3346 26.8395 35.6183 26.6321C36.4915 26.7262 37.3942 26.1889 37.625 25.954C37.9256 25.6484 37.8455 25.4267 38.2362 25.1691C38.6269 24.9114 38.3911 24.8458 38.3911 24.8458C38.0219 24.645 37.6551 24.7888 37.0201 24.9692C36.7791 24.445 36.1113 24.3841 36.1113 24.3841C36.4204 24.6448 36.3591 24.9504 36.2625 25.152C36.1968 25.1651 36.1375 25.1792 36.0675 25.1916C34.7739 25.4162 33.9705 23.5174 34.164 23.1935C34.513 22.6093 34.4705 22.1152 34.4705 22.1152C33.9155 22.4216 33.6702 23.0745 33.6702 23.0745C33.1928 22.5548 32.6953 22.6196 32.6953 22.6196ZM37.6171 25.5388C37.6533 25.5962 37.633 25.67 37.5717 25.7038C37.5104 25.7376 37.4315 25.7186 37.3953 25.6612C37.3592 25.6039 37.3795 25.5301 37.4408 25.4963C37.502 25.4624 37.5811 25.4815 37.6171 25.5388Z" fill="#FFA028"/>
<path d="M37.4998 32.6926L37.4518 32.6757C30.6994 30.2682 31.7906 18.8557 31.8022 18.7404L31.8234 18.5343L32.0079 18.62C32.0398 18.6348 35.1725 20.059 37.4121 18.3368L37.4997 18.2695L37.5872 18.3368C39.8301 20.0613 42.9601 18.6346 42.9913 18.62L43.176 18.534L43.1971 18.7404C43.2089 18.8557 44.3 30.2682 37.5475 32.6757L37.4998 32.6926ZM32.0763 18.9731C31.9647 20.4975 31.5031 30.1853 37.4998 32.3752C43.4985 30.1847 43.035 20.4974 42.9232 18.9731C42.1967 19.265 39.5666 20.1498 37.4998 18.642C35.433 20.1496 32.8033 19.2654 32.0763 18.9731Z" fill="#CDCE0C"/>
<path d="M33.6543 28.8457C34.4918 30.5502 35.7145 31.978 37.5 32.6919C39.286 31.9778 40.5091 30.5501 41.3466 28.8457H33.6543Z" fill="#82AFFF"/>
</svg>
