<svg width="50" height="50" viewBox="0 0 50 50" fill="none" xmlns="http://www.w3.org/2000/svg">
<path d="M49.1378 8.6543H0.862108C0.386034 8.6543 0 9.03955 0 9.51466V40.4862C0 40.9614 0.386034 41.3466 0.862108 41.3466H49.1379C49.614 41.3466 50 40.9614 50 40.4862V9.51466C49.9999 9.03955 49.6139 8.6543 49.1378 8.6543Z" fill="#464655"/>
<path d="M24.5196 10.5762L25.5983 16.2113L28.7511 11.4179L27.5913 17.0369L32.3386 13.8149L29.1167 18.5623L34.7356 17.4023L29.9422 20.5553L35.5773 21.6339L29.9422 22.7125L34.7356 25.8655L29.1167 24.7056L32.3386 29.4528L27.5913 26.231L28.7511 31.85L25.5983 27.0566L24.5196 32.6916L23.441 27.0566L20.288 31.85L21.448 26.231L16.7006 29.4528L19.9226 24.7056L14.3037 25.8655L19.097 22.7125L13.4619 21.6339L19.097 20.5553L14.3037 17.4023L19.9226 18.5623L16.7006 13.8149L21.448 17.0369L20.288 11.4179L23.441 16.2113L24.5196 10.5762Z" fill="#FFE15A"/>
<path d="M0 9.22615V40.4784C0 40.9579 0.386035 41.3466 0.862109 41.3466H25L0.224414 8.6543C0.0888672 8.80761 0 9.00469 0 9.22615Z" fill="#FF4B55"/>
<path d="M25 41.3466H49.1379C49.614 41.3466 50 40.9579 50 40.4784V9.22625C50 9.00479 49.9111 8.80771 49.7756 8.6543L25 41.3466Z" fill="#FF4B55"/>
<path d="M14.7992 27.8851H34.239L39.4229 21.1543H9.61523L14.7992 27.8851Z" fill="#4173CD"/>
<path d="M15.3848 28.8457L25.4809 41.3457L35.5771 28.8457H15.3848Z" fill="#F5F5F5"/>
</svg>
