<svg width="51" height="51" viewBox="0 0 51 51" fill="none" xmlns="http://www.w3.org/2000/svg">
<g clip-path="url(#clip0_3462_32706)">
<path d="M50.1483 19.9802H0.148438V9.92265C0.148438 9.44658 0.534472 9.06055 1.01055 9.06055H49.2863C49.7624 9.06055 50.1484 9.44658 50.1484 9.92265L50.1483 19.9802Z" fill="#82AFFF"/>
<path d="M49.2853 41.8199H1.00957C0.533495 41.8199 0.147461 41.4339 0.147461 40.9578V30.9004H50.1474V40.9578C50.1474 41.434 49.7613 41.8199 49.2853 41.8199Z" fill="#82AFFF"/>
<path d="M50.1474 19.9805H0.147461V30.8994H50.1474V19.9805Z" fill="#F5F5F5"/>
<path d="M29.4578 25.2238H26.3539C26.4118 25.1799 26.4576 25.1366 26.499 25.0958C26.5748 25.0217 26.635 24.9628 26.7949 24.8971C26.9557 24.8297 27.0398 24.8289 27.1464 24.8272C27.2747 24.8264 27.42 24.8239 27.6574 24.7262C27.8944 24.6276 27.9979 24.5266 28.0893 24.4374C28.1651 24.3633 28.2254 24.3044 28.3856 24.2378C28.5451 24.1713 28.629 24.1704 28.7349 24.1696C28.863 24.1679 29.0081 24.1663 29.2455 24.0678L29.0797 23.6703C28.9202 23.7368 28.8363 23.7377 28.7304 23.7385C28.6023 23.7402 28.4572 23.7418 28.2202 23.8395C27.9833 23.9381 27.8797 24.0392 27.7883 24.1283C27.7125 24.2024 27.6522 24.2613 27.4924 24.327C27.3316 24.3944 27.2474 24.3952 27.1409 24.3969C27.0126 24.3977 26.8673 24.4002 26.6299 24.4987C26.393 24.5964 26.2893 24.6983 26.1979 24.7875C26.1233 24.8601 26.0617 24.9182 25.9083 24.983L28.3477 22.5438L28.043 22.2391L25.8472 24.4347C25.8568 24.3629 25.8595 24.299 25.86 24.2411C25.8613 24.1342 25.8622 24.0508 25.9287 23.89C25.9952 23.7293 26.0541 23.6694 26.1283 23.5937C26.2183 23.5019 26.3198 23.3977 26.4183 23.1602C26.5163 22.9228 26.5181 22.778 26.5193 22.6501C26.5206 22.544 26.5215 22.4598 26.5875 22.2999C26.654 22.1399 26.7125 22.0802 26.7866 22.0044C26.8763 21.9126 26.9776 21.809 27.0759 21.5725L26.6777 21.4075C26.6112 21.5675 26.5527 21.6272 26.4786 21.703C26.389 21.7948 26.2876 21.8984 26.1893 22.135C26.0913 22.3724 26.0895 22.5172 26.0883 22.6451C26.087 22.7512 26.0861 22.8354 26.0201 22.9953C25.9536 23.1561 25.8947 23.2159 25.8205 23.2916C25.7305 23.3834 25.629 23.4877 25.5306 23.7251C25.4325 23.9625 25.4308 24.1082 25.4292 24.2361C25.4283 24.3399 25.4254 24.4238 25.3632 24.5779V21.1289H24.9321V24.2327C24.8882 24.1752 24.845 24.1295 24.8046 24.0881C24.7302 24.0123 24.6716 23.9517 24.605 23.7918C24.5385 23.6311 24.5372 23.5469 24.5359 23.4398C24.5347 23.3118 24.533 23.1662 24.4346 22.9288C24.3365 22.6923 24.235 22.5888 24.1453 22.4969C24.0712 22.4211 24.0128 22.3613 23.9462 22.2014C23.8802 22.0414 23.8793 21.9572 23.878 21.8512C23.8768 21.7231 23.8751 21.5784 23.7769 21.3418L23.3788 21.5067C23.4448 21.6667 23.4457 21.7501 23.447 21.8561C23.4482 21.9841 23.4499 22.1288 23.548 22.3662C23.6461 22.6027 23.7477 22.7062 23.8373 22.7981C23.9114 22.8739 23.9698 22.9337 24.0364 23.0936C24.1029 23.2544 24.1042 23.3386 24.1055 23.4456C24.1067 23.5736 24.1084 23.7192 24.2068 23.9566C24.3049 24.194 24.4064 24.2976 24.4961 24.3893C24.5691 24.4636 24.6269 24.5256 24.6918 24.6786L22.2521 22.2393L21.9474 22.544L24.3832 24.9796C24.2496 24.9189 24.1851 24.8632 24.1151 24.7952C24.023 24.7052 23.919 24.6033 23.6808 24.5048C23.4434 24.4071 23.2981 24.4046 23.1697 24.4029C23.0628 24.402 22.9787 24.4005 22.8166 24.3331C22.6545 24.2666 22.5939 24.2077 22.5169 24.1328C22.4248 24.0435 22.3203 23.9418 22.0816 23.8424C21.8434 23.7438 21.6977 23.7422 21.5689 23.7405C21.4616 23.7388 21.377 23.7372 21.2149 23.6698L21.05 24.0688C21.2883 24.1674 21.434 24.169 21.5627 24.1707C21.67 24.1725 21.7546 24.174 21.9167 24.2414C22.0792 24.3079 22.1397 24.3668 22.2168 24.4417C22.3089 24.5317 22.4134 24.6327 22.6516 24.7313C22.8898 24.8307 23.0355 24.8324 23.1639 24.8341C23.2708 24.8358 23.3549 24.8365 23.5162 24.9039C23.6774 24.9704 23.7377 25.0293 23.8139 25.1035C23.853 25.1419 23.8968 25.1825 23.9497 25.2239H20.8369V25.655H24.2797C24.1436 25.7067 24.0586 25.7133 23.961 25.7147C23.8327 25.7156 23.6874 25.7181 23.4496 25.8158C23.2118 25.9143 23.1073 26.0161 23.0152 26.1055C22.9386 26.1804 22.8784 26.2392 22.7172 26.3057C22.5551 26.3731 22.4705 26.3748 22.3632 26.3765C22.2344 26.3782 22.0888 26.3798 21.8505 26.4783C21.6118 26.5776 21.5074 26.6786 21.4152 26.7687C21.3382 26.8436 21.2776 26.9025 21.1155 26.969L21.2805 27.3681C21.5187 27.2687 21.6231 27.1678 21.7152 27.0776C21.7923 27.0027 21.8528 26.9438 22.0153 26.8773C22.1774 26.81 22.262 26.8083 22.3693 26.8066C22.4981 26.8049 22.6437 26.8033 22.8825 26.7039C23.1199 26.6054 23.2239 26.5043 23.316 26.4142C23.3922 26.3401 23.4528 26.2812 23.6145 26.2146C23.7753 26.1473 23.86 26.1465 23.9665 26.1448C24.021 26.1445 24.0824 26.1409 24.1489 26.1327L21.9469 28.3345L22.2517 28.6392L24.6863 26.205C24.6264 26.338 24.571 26.4021 24.5028 26.4724C24.4132 26.5641 24.3118 26.6684 24.2132 26.9058C24.1145 27.1432 24.1125 27.2898 24.1113 27.4177C24.1096 27.5246 24.1089 27.6087 24.0418 27.7704C23.9749 27.9329 23.9155 27.9934 23.841 28.0701C23.751 28.1619 23.6495 28.2671 23.5506 28.5054C23.4517 28.7436 23.4499 28.8893 23.4483 29.0181C23.4466 29.125 23.4454 29.2099 23.3785 29.3716L23.7767 29.5365C23.8756 29.2982 23.8773 29.1525 23.8789 29.0238C23.8807 28.9169 23.8818 28.8319 23.9487 28.6703C24.0156 28.5078 24.075 28.4473 24.1495 28.3706C24.2395 28.2788 24.341 28.1736 24.4399 27.9353C24.5385 27.6979 24.5406 27.5514 24.5418 27.4235C24.5435 27.3166 24.5442 27.2325 24.6113 27.0708C24.6778 26.9092 24.7367 26.8493 24.8112 26.7727C24.8495 26.7335 24.8902 26.6896 24.9316 26.6365V29.7496H25.3627V26.307C25.4141 26.4428 25.4206 26.5276 25.4221 26.6255C25.4233 26.7535 25.4254 26.8991 25.5239 27.1365C25.622 27.3748 25.7238 27.4792 25.8136 27.5709C25.888 27.6475 25.947 27.7081 26.0139 27.8697C26.0808 28.0313 26.082 28.1164 26.0837 28.2232C26.0854 28.352 26.087 28.4976 26.1859 28.7359C26.2849 28.9742 26.3862 29.0795 26.4764 29.1712C26.5508 29.2478 26.6101 29.3084 26.6771 29.4709L27.0753 29.3059C26.9764 29.0677 26.875 28.9624 26.7849 28.8707C26.7104 28.794 26.6511 28.7335 26.5841 28.571C26.5172 28.4094 26.5159 28.3243 26.5142 28.2175C26.5125 28.0887 26.5109 27.9431 26.412 27.7048C26.3135 27.4665 26.2121 27.3621 26.1224 27.2704C26.0479 27.1937 25.989 27.1332 25.9221 26.9716C25.8552 26.8108 25.8543 26.7266 25.8525 26.6196C25.8519 26.5652 25.8484 26.5037 25.8402 26.4372L28.0426 28.6393L28.3473 28.3346L26.1518 26.1394C26.2231 26.1489 26.287 26.1517 26.3445 26.1525C26.451 26.1534 26.5349 26.1543 26.6956 26.2207C26.8563 26.2881 26.9166 26.3461 26.9928 26.421C27.0846 26.5102 27.1885 26.612 27.426 26.7106C27.663 26.8083 27.8082 26.81 27.9361 26.8108C28.0422 26.8126 28.126 26.8133 28.2859 26.8799C28.4459 26.9455 28.5056 27.0045 28.5814 27.0786C28.6732 27.1679 28.7768 27.2696 29.0138 27.3682L29.1787 26.9692C29.0187 26.9036 28.959 26.8446 28.8832 26.7705C28.7914 26.6812 28.6878 26.5795 28.4509 26.4808C28.214 26.3832 28.0686 26.3815 27.9407 26.3807C27.8347 26.3789 27.7509 26.3782 27.5909 26.3116C27.4302 26.2451 27.3699 26.187 27.2937 26.112C27.2019 26.0227 27.098 25.921 26.8605 25.8232C26.6231 25.7239 26.4779 25.7222 26.3495 25.7214C26.245 25.7196 26.1603 25.7177 26.0054 25.6549H29.4575V25.2238H29.4578V25.2238Z" fill="#F09146"/>
<path d="M25.1475 27.5957C26.3378 27.5957 27.3027 26.6308 27.3027 25.4404C27.3027 24.2501 26.3378 23.2852 25.1475 23.2852C23.9571 23.2852 22.9922 24.2501 22.9922 25.4404C22.9922 26.6308 23.9571 27.5957 25.1475 27.5957Z" fill="#FFE15A"/>
</g>
<defs>
<clipPath id="clip0_3462_32706">
<rect width="50" height="50" fill="white" transform="translate(0.148438 0.439453)"/>
</clipPath>
</defs>
</svg>
