<svg width="51" height="51" viewBox="0 0 51 51" fill="none" xmlns="http://www.w3.org/2000/svg">
<g clip-path="url(#clip0_3462_32695)">
<path d="M50.006 41.8191H1.73027C1.2542 41.8191 0.868164 41.433 0.868164 40.957V9.92265C0.868164 9.44658 1.2542 9.06055 1.73027 9.06055H50.0061C50.4821 9.06055 50.8682 9.44658 50.8682 9.92265V40.957C50.8681 41.4331 50.482 41.8191 50.006 41.8191Z" fill="#4173CD"/>
<path d="M50.869 31.4727H0.869141V33.1968H50.869V31.4727Z" fill="#FFE15A"/>
<path d="M50.8681 34.9199H0.868164V36.644H50.8681V34.9199Z" fill="#FFE15A"/>
<path d="M7.23906 17.6208L4.03125 16.5254L7.23906 15.4301L8.33446 12.2227L9.42978 15.4301L12.6376 16.5254L9.42978 17.6208L8.33446 20.8283L7.23906 17.6208Z" fill="#FF4B55"/>
<path d="M8.33456 12.7996L9.28319 15.5774L12.061 16.5261L9.28319 17.4747L8.33456 20.2525L7.38593 17.4747L4.6081 16.5261L7.38593 15.5774L8.33456 12.7996ZM8.33456 11.6465L7.98183 12.6791L7.09238 15.2839L4.48769 16.1733L3.45508 16.5261L4.48769 16.8786L7.09238 17.7681L7.98183 20.3727L8.33456 21.4054L8.68729 20.3727L9.57675 17.7681L12.1814 16.8786L13.214 16.5261L12.1814 16.1735L9.57675 15.2841L8.68729 12.6794L8.33456 11.6465Z" fill="#F5F5F5"/>
</g>
<defs>
<clipPath id="clip0_3462_32695">
<rect width="50" height="50" fill="white" transform="translate(0.869141 0.439453)"/>
</clipPath>
</defs>
</svg>
