<svg width="50" height="50" viewBox="0 0 50 50" fill="none" xmlns="http://www.w3.org/2000/svg">
<path d="M49.1378 41.3466H0.862108C0.386034 41.3466 0 40.9613 0 40.4862V9.51466C0 9.03955 0.386034 8.6543 0.862108 8.6543H49.1379C49.614 8.6543 50 9.03955 50 9.51466V40.4862C49.9999 40.9614 49.6139 41.3466 49.1378 41.3466Z" fill="#41479B"/>
<path d="M24.1378 8.6543H22.6403L14.655 13.8755V8.6543H10.3447V13.8755L2.35937 8.6543H0.862106C0.386034 8.6543 0 9.03945 0 9.51456V10.197L6.85105 14.6765H0V18.9781H6.85105L0 23.4577V24.1401C0 24.6152 0.386034 25.0005 0.862106 25.0005H2.35956L10.3449 19.7792V25.0005H14.6552V19.7792L22.6404 25.0005H24.1379C24.614 25.0005 25 24.6152 25 24.1401V23.4577L18.149 18.9782H24.9999V14.6766H18.1489L24.9999 10.1971V9.51466C24.9999 9.03945 24.6139 8.6543 24.1378 8.6543Z" fill="#F5F5F5"/>
<path d="M25 15.5369H13.7931V8.6543H11.2069V15.5369H0V18.1178H11.2069V25.0005H13.7931V18.1178H25V15.5369Z" fill="#FF4B55"/>
<path d="M9.61539 14.4235L0.416588 8.6543C0.171804 8.80393 0 9.05546 0 9.35606V9.39988L8.00983 14.4235H9.61539Z" fill="#FF4B55"/>
<path d="M16.0626 14.4235L24.9998 9.06762C24.8444 8.82497 24.5704 8.6543 24.2428 8.6543H24.0498L14.4229 14.4235H16.0626Z" fill="#FF4B55"/>
<path d="M8.93447 19.2305L0 24.5761C0.154065 24.8246 0.432821 24.9997 0.765667 24.9997H0.934318L10.5769 19.2305H8.93447V19.2305Z" fill="#FF4B55"/>
<path d="M25.0001 24.3107L16.9615 19.2305H15.3848L24.5134 24.9997C24.7868 24.8761 24.9744 24.6172 25.0001 24.3107Z" fill="#FF4B55"/>
<path d="M12.682 29.9466L13.3195 32.1025L15.3625 31.2689C15.5368 31.1977 15.6952 31.4014 15.5889 31.5596L14.3409 33.4143L16.2507 34.5307C16.4137 34.626 16.3571 34.8799 16.17 34.8933L13.9762 35.0502L14.315 37.276C14.3439 37.4659 14.1149 37.5789 13.988 37.4373L12.5005 35.7782L11.0129 37.4373C10.886 37.5788 10.657 37.4658 10.6859 37.276L11.0247 35.0502L8.83092 34.8933C8.64378 34.8799 8.58723 34.626 8.75017 34.5307L10.66 33.4143L9.41205 31.5596C9.30566 31.4014 9.4641 31.1977 9.63842 31.2689L11.6814 32.1025L12.3189 29.9466C12.3735 29.7626 12.6277 29.7626 12.682 29.9466Z" fill="#F5F5F5"/>
<path d="M38.5531 14.4928L38.8719 15.5707L39.8932 15.154C39.9803 15.1185 40.0596 15.2202 40.0063 15.2994L39.3824 16.2268L40.3373 16.7851C40.4188 16.8326 40.3905 16.9596 40.2968 16.9662L39.2001 17.0447L39.3694 18.1575C39.3839 18.2525 39.2693 18.309 39.2059 18.2382L38.4621 17.4086L37.7184 18.2382C37.655 18.3089 37.5405 18.2524 37.5549 18.1575L37.7242 17.0447L36.6274 16.9662C36.5338 16.9596 36.5055 16.8326 36.587 16.7851L37.5418 16.2268L36.918 15.2994C36.8647 15.2202 36.944 15.1185 37.0311 15.154L38.0524 15.5707L38.3712 14.4928C38.3988 14.4008 38.526 14.4008 38.5531 14.4928Z" fill="#F5F5F5"/>
<path d="M30.8607 22.1842L31.1795 23.2621L32.2008 22.8454C32.2879 22.8099 32.3672 22.9116 32.3139 22.9908L31.69 23.9182L32.6449 24.4765C32.7264 24.524 32.6981 24.651 32.6045 24.6577L31.5077 24.7361L31.677 25.8489C31.6915 25.9439 31.5769 26.0004 31.5135 25.9296L30.7698 25.1001L30.026 25.9296C29.9626 26.0003 29.8481 25.9438 29.8625 25.8489L30.0318 24.7361L28.935 24.6577C28.8414 24.651 28.8131 24.524 28.8946 24.4765L29.8495 23.9182L29.2256 22.9908C29.1723 22.9116 29.2516 22.8099 29.3387 22.8454L30.36 23.2621L30.6788 22.1842C30.7064 22.0922 30.8335 22.0922 30.8607 22.1842Z" fill="#F5F5F5"/>
<path d="M45.2835 19.3014L45.6023 20.3793L46.6237 19.9626C46.7107 19.9271 46.79 20.0288 46.7368 20.108L46.1129 21.0354L47.0678 21.5937C47.1492 21.6412 47.1209 21.7682 47.0273 21.7748L45.9305 21.8533L46.0998 22.9661C46.1143 23.0611 45.9998 23.1176 45.9364 23.0468L45.1927 22.2172L44.4489 23.0468C44.3854 23.1175 44.271 23.061 44.2854 22.9661L44.4547 21.8533L43.3579 21.7748C43.2643 21.7682 43.236 21.6412 43.3175 21.5937L44.2723 21.0354L43.6485 20.108C43.5952 20.0288 43.6745 19.9271 43.7616 19.9626L44.7829 20.3793L45.1017 19.3014C45.1292 19.2094 45.2563 19.2094 45.2835 19.3014Z" fill="#F5F5F5"/>
<path d="M38.5531 32.7624L38.8719 33.8403L39.8932 33.4235C39.9803 33.3879 40.0596 33.4897 40.0063 33.5688L39.3824 34.4963L40.3373 35.0546C40.4188 35.1021 40.3905 35.2291 40.2968 35.2357L39.2001 35.3142L39.3694 36.427C39.3839 36.522 39.2693 36.5785 39.2059 36.5077L38.4621 35.6782L37.7184 36.5077C37.655 36.5784 37.5405 36.5219 37.5549 36.427L37.7242 35.3142L36.6274 35.2357C36.5338 35.2291 36.5055 35.1021 36.587 35.0546L37.5418 34.4963L36.918 33.5688C36.8647 33.4897 36.944 33.3879 37.0311 33.4235L38.0524 33.8403L38.3712 32.7624C38.3988 32.6704 38.526 32.6704 38.5531 32.7624Z" fill="#F5F5F5"/>
<path d="M40.7493 24.1272L40.4601 25.0348L39.5462 25.0423C39.428 25.0433 39.3788 25.2013 39.4741 25.2748L40.2093 25.8432L39.9335 26.7553C39.8979 26.8735 40.0264 26.9711 40.1225 26.8991L40.8661 26.3427L41.6097 26.8991C41.706 26.9711 41.8344 26.8733 41.7987 26.7553L41.523 25.8432L42.2582 25.2748C42.3534 25.2012 42.3043 25.0433 42.186 25.0423L41.2721 25.0348L40.983 24.1272C40.9455 24.0097 40.7867 24.0097 40.7493 24.1272Z" fill="#F5F5F5"/>
</svg>
