<svg width="51" height="51" viewBox="0 0 51 51" fill="none" xmlns="http://www.w3.org/2000/svg">
<g clip-path="url(#clip0_3462_32667)">
<path d="M0.883789 30.8984H50.8837V40.9558C50.8837 41.4319 50.4977 41.8179 50.0216 41.8179H1.7459C1.26982 41.8179 0.883789 41.4319 0.883789 40.9558V30.8984Z" fill="#73AF00"/>
<path d="M1.7459 9.06055H50.0217C50.4978 9.06055 50.8838 9.44658 50.8838 9.92265V19.9801H0.883789V9.92265C0.883789 9.44658 1.26982 9.06055 1.7459 9.06055Z" fill="#82AFFF"/>
<path d="M50.8837 19.9785H0.883789V30.8974H50.8837V19.9785Z" fill="#FF4B55"/>
<path d="M27.0596 29.0142C25.1251 29.0142 23.5556 27.4448 23.5556 25.5086C23.5556 23.5757 25.1251 22.0029 27.0596 22.0029C27.7794 22.0029 28.4432 22.2242 28.9963 22.5989C29.081 22.6563 29.1777 22.5449 29.1068 22.4712C28.28 21.6117 27.1099 21.0872 25.8127 21.1315C23.5838 21.2076 21.7386 22.9945 21.5962 25.2202C21.433 27.7694 23.4515 29.8879 25.9648 29.8879C27.2027 29.8879 28.3153 29.3704 29.1099 28.5429C29.18 28.4699 29.0832 28.3602 28.9994 28.417C28.4457 28.7926 27.7807 29.0142 27.0596 29.0142Z" fill="#F5F5F5"/>
<path d="M30.1277 23.3507L30.4913 24.3729L31.4712 23.9071C31.545 23.872 31.622 23.949 31.5869 24.0229L31.1212 25.0027L32.1433 25.3663C32.2204 25.3937 32.2204 25.5026 32.1433 25.53L31.1212 25.8936L31.5869 26.8734C31.622 26.9473 31.545 27.0243 31.4712 26.9892L30.4913 26.5234L30.1277 27.5456C30.1004 27.6227 29.9914 27.6227 29.964 27.5456L29.6005 26.5234L28.6206 26.9892C28.5468 27.0243 28.4697 26.9473 28.5049 26.8734L28.9706 25.8936L27.9484 25.53C27.8714 25.5026 27.8714 25.3937 27.9484 25.3663L28.9706 25.0027L28.5049 24.0229C28.4697 23.949 28.5468 23.872 28.6206 23.9071L29.6005 24.3729L29.964 23.3507C29.9915 23.2737 30.1004 23.2737 30.1277 23.3507Z" fill="#F5F5F5"/>
</g>
<defs>
<clipPath id="clip0_3462_32667">
<rect width="50" height="50" fill="white" transform="translate(0.882812 0.439453)"/>
</clipPath>
</defs>
</svg>
