<svg width="51" height="51" viewBox="0 0 51 51" fill="none" xmlns="http://www.w3.org/2000/svg">
<g clip-path="url(#clip0_3462_32637)">
<path d="M20.1381 41.8192H1.17266C0.696583 41.8192 0.310547 41.4332 0.310547 40.9571V9.92266C0.310547 9.44658 0.696583 9.06055 1.17266 9.06055H20.1381V41.8192Z" fill="#41479B"/>
<path d="M49.4481 41.7114H20.1377V9.06055H49.448C49.9241 9.06055 50.3101 9.44658 50.3101 9.92266V40.8494C50.3102 41.3254 49.9242 41.7114 49.4481 41.7114Z" fill="#F5F5F5"/>
<path d="M25.9533 25.2513C25.5905 25.2513 25.2384 25.3748 24.955 25.6015L23.2361 26.9767C22.9527 27.2034 22.6006 27.3269 22.2377 27.3269H21.7606V27.0524C21.7606 26.6309 22.1023 26.2891 22.5239 26.2891H23.3173V25.9191C23.3173 25.5503 23.0183 25.2513 22.6494 25.2513H22.2795C22.2795 24.9647 22.0472 24.7324 21.7607 24.7324C20.3278 24.7324 19.1661 25.894 19.1661 27.327H18.17C17.8072 27.327 17.4551 27.2034 17.1718 26.9768L15.4527 25.6016C15.1693 25.3748 14.8173 25.2514 14.4545 25.2514H6.88446C6.62938 25.2514 6.50175 25.5597 6.68212 25.74L9.30214 28.3601C9.6374 28.6953 10.0921 28.8837 10.5661 28.8837H12.4202L13.9423 30.0253C14.3016 30.2948 14.7385 30.4403 15.1877 30.4403H17.0904C17.4171 30.4403 17.7247 30.2865 17.9206 30.0253L18.1281 29.7485V30.9593L16.8477 33.5204C16.7207 33.7742 16.9053 34.0728 17.1891 34.0728H21.3788C21.5896 34.0728 21.7605 33.9019 21.7605 33.6911V29.0567L22.4869 30.0254C22.6829 30.2867 22.9905 30.4404 23.3172 30.4404H25.2199C25.6691 30.4404 26.1061 30.2947 26.4654 30.0254L27.9874 28.8838H29.8415C30.3157 28.8838 30.7703 28.6954 31.1055 28.3602L33.7255 25.7401C33.9058 25.5599 33.7781 25.2515 33.5232 25.2515H25.9533V25.2513Z" fill="#FFE15A"/>
<path d="M20.3036 16.8438L20.5517 17.5876L21.3359 17.5937C21.4373 17.5945 21.4795 17.724 21.3978 17.7843L20.7669 18.2501L21.0034 18.9978C21.034 19.0946 20.9238 19.1746 20.8412 19.1156L20.2033 18.6596L19.5654 19.1156C19.4829 19.1746 19.3727 19.0946 19.4032 18.9978L19.6398 18.2501L19.0089 17.7843C18.9273 17.724 18.9693 17.5945 19.0708 17.5937L19.855 17.5876L20.103 16.8438C20.1353 16.7474 20.2715 16.7474 20.3036 16.8438Z" fill="#FFE15A"/>
<path d="M8.78622 21.5311L9.48759 21.8817L10.0463 21.3315C10.1185 21.2603 10.24 21.3221 10.225 21.4225L10.1083 22.1979L10.8042 22.5593C10.8942 22.6061 10.8729 22.7407 10.7728 22.7573L9.99931 22.886L9.8706 23.6595C9.8539 23.7596 9.71943 23.781 9.67265 23.6909L9.31122 22.995L8.53583 23.1117C8.43544 23.1267 8.37353 23.0054 8.44482 22.933L8.99501 22.3743L8.64443 21.6729C8.59911 21.5822 8.6954 21.4858 8.78622 21.5311Z" fill="#FFE15A"/>
<path d="M31.7636 21.6729L31.4131 22.3743L31.9633 22.933C32.0345 23.0053 31.9727 23.1268 31.8723 23.1117L31.0969 22.995L30.7354 23.6909C30.6887 23.781 30.5541 23.7597 30.5375 23.6596L30.4088 22.886L29.6352 22.7573C29.5351 22.7406 29.5138 22.6061 29.6039 22.5594L30.2998 22.1979L30.1831 21.4226C30.1681 21.3222 30.2893 21.2602 30.3617 21.3315L30.9204 21.8817L31.6218 21.5311C31.7126 21.4857 31.809 21.5821 31.7636 21.6729Z" fill="#FFE15A"/>
<path d="M14.0785 18.0425L14.5923 18.6349L15.3191 18.3403C15.4131 18.3021 15.5016 18.4058 15.4493 18.4928L15.0448 19.1645L15.5494 19.7647C15.6147 19.8425 15.5435 19.9586 15.4446 19.9356L14.6807 19.7585L14.2659 20.4239C14.2122 20.5101 14.0797 20.4782 14.071 20.3771L14.0034 19.5959L13.2423 19.4069C13.1438 19.3825 13.1331 19.2467 13.2266 19.207L13.9487 18.9014L13.8932 18.1191C13.8862 18.0181 14.012 17.9659 14.0785 18.0425Z" fill="#FFE15A"/>
<path d="M26.5143 18.1193L26.4589 18.9015L27.1809 19.2072C27.2745 19.2467 27.2636 19.3825 27.1652 19.4071L26.4042 19.596L26.3366 20.3773C26.3279 20.4785 26.1955 20.5103 26.1417 20.4241L25.7268 19.7586L24.963 19.9358C24.864 19.9587 24.7929 19.8426 24.8582 19.7649L25.3628 19.1647L24.9583 18.4929C24.9059 18.406 24.9944 18.3024 25.0884 18.3405L25.8152 18.635L26.3291 18.0426C26.3956 17.9658 26.5215 18.018 26.5143 18.1193Z" fill="#FFE15A"/>
<path d="M17.1324 17.1355L17.5209 17.8167L18.2911 17.6697C18.3908 17.6506 18.4574 17.7695 18.3891 17.8446L17.8612 18.4246L18.2391 19.1117C18.288 19.2006 18.1955 19.3006 18.1029 19.2589L17.3883 18.9361L16.8515 19.5078C16.782 19.5818 16.6584 19.5248 16.6695 19.4238L16.7557 18.6444L16.0461 18.3106C15.9542 18.2674 15.9702 18.1322 16.0697 18.1116L16.8376 17.9526L16.9357 17.1746C16.9485 17.0738 17.0822 17.0472 17.1324 17.1355Z" fill="#FFE15A"/>
<path d="M29.3142 19.6379L29.1072 20.3942L29.7558 20.835C29.8398 20.892 29.8028 21.0232 29.7014 21.0278L28.9181 21.0647L28.6995 21.8177C28.6712 21.9152 28.535 21.9205 28.4992 21.8256L28.222 21.0921L27.4383 21.1168C27.3369 21.12 27.2897 20.9922 27.3689 20.9287L27.981 20.4385L27.7153 19.7008C27.6809 19.6053 27.788 19.5209 27.8727 19.5767L28.5281 20.0072L29.1476 19.5266C29.2278 19.4643 29.3411 19.54 29.3142 19.6379Z" fill="#FFE15A"/>
<path d="M11.2601 19.5265L11.8796 20.0072L12.535 19.5766C12.6198 19.521 12.7268 19.6051 12.6924 19.7007L12.4267 20.4384L13.0388 20.9287C13.118 20.9921 13.071 21.12 12.9694 21.1168L12.1857 21.092L11.9085 21.8255C11.8727 21.9205 11.7366 21.9152 11.7083 21.8176L11.4896 21.0646L10.7063 21.0278C10.6049 21.023 10.5679 20.8919 10.6519 20.8349L11.3005 20.3942L11.0935 19.6378C11.0666 19.54 11.1798 19.4643 11.2601 19.5265Z" fill="#FFE15A"/>
<path d="M23.4715 17.1746L23.5696 17.9526L24.3375 18.1116C24.4369 18.1322 24.4529 18.2674 24.3611 18.3106L23.6516 18.6444L23.7377 19.4238C23.7488 19.5247 23.6251 19.5818 23.5557 19.5078L23.0189 18.9361L22.3043 19.2589C22.2117 19.3006 22.1192 19.2006 22.1682 19.1117L22.546 18.4246L22.0182 17.8446C21.9498 17.7695 22.0164 17.6506 22.1161 17.6697L22.8863 17.8167L23.2748 17.1355C23.3252 17.0472 23.4587 17.0738 23.4715 17.1746Z" fill="#FFE15A"/>
<path d="M7.35929 12.7622V14.9936C7.35929 15.9163 6.6085 16.6671 5.68575 16.6671C4.76299 16.6671 4.01221 15.9163 4.01221 14.9936V12.7622H7.35929V12.7622ZM7.917 11.6465H3.4544C3.14629 11.6465 2.89648 11.8963 2.89648 12.2044V14.9937C2.89648 16.5341 4.14532 17.7829 5.68575 17.7829C7.22618 17.7829 8.47501 16.5341 8.47501 14.9937V12.2044C8.47491 11.8963 8.22511 11.6465 7.917 11.6465Z" fill="#FF4B55"/>
<path d="M7.35977 12.7617V14.9931C7.35977 15.9158 6.60899 16.6666 5.68623 16.6666C4.76348 16.6666 4.0127 15.9158 4.0127 14.9931V12.7617H7.35977" fill="#F5F5F5"/>
<path d="M3.44981 12.4836C3.60384 12.4836 3.72871 12.3587 3.72871 12.2047C3.72871 12.0507 3.60384 11.9258 3.44981 11.9258C3.29577 11.9258 3.1709 12.0507 3.1709 12.2047C3.1709 12.3587 3.29577 12.4836 3.44981 12.4836Z" fill="#FFE15A"/>
<path d="M7.9127 12.4836C8.06673 12.4836 8.1916 12.3587 8.1916 12.2047C8.1916 12.0507 8.06673 11.9258 7.9127 11.9258C7.75866 11.9258 7.63379 12.0507 7.63379 12.2047C7.63379 12.3587 7.75866 12.4836 7.9127 12.4836Z" fill="#FFE15A"/>
<path d="M3.44981 14.716C3.60384 14.716 3.72871 14.5911 3.72871 14.4371C3.72871 14.2831 3.60384 14.1582 3.44981 14.1582C3.29577 14.1582 3.1709 14.2831 3.1709 14.4371C3.1709 14.5911 3.29577 14.716 3.44981 14.716Z" fill="#FFE15A"/>
<path d="M7.9127 14.716C8.06673 14.716 8.1916 14.5911 8.1916 14.4371C8.1916 14.2831 8.06673 14.1582 7.9127 14.1582C7.75866 14.1582 7.63379 14.2831 7.63379 14.4371C7.63379 14.5911 7.75866 14.716 7.9127 14.716Z" fill="#FFE15A"/>
<path d="M5.68125 12.4836C5.83529 12.4836 5.96016 12.3587 5.96016 12.2047C5.96016 12.0507 5.83529 11.9258 5.68125 11.9258C5.52721 11.9258 5.40234 12.0507 5.40234 12.2047C5.40234 12.3587 5.52721 12.4836 5.68125 12.4836Z" fill="#FFE15A"/>
<path d="M7.35508 16.7727C7.50911 16.7727 7.63399 16.6478 7.63399 16.4938C7.63399 16.3397 7.50911 16.2148 7.35508 16.2148C7.20104 16.2148 7.07617 16.3397 7.07617 16.4938C7.07617 16.6478 7.20104 16.7727 7.35508 16.7727Z" fill="#FFE15A"/>
<path d="M4.03965 16.7727C4.19368 16.7727 4.31856 16.6478 4.31856 16.4938C4.31856 16.3397 4.19368 16.2148 4.03965 16.2148C3.88561 16.2148 3.76074 16.3397 3.76074 16.4938C3.76074 16.6478 3.88561 16.7727 4.03965 16.7727Z" fill="#FFE15A"/>
<path d="M6.04571 14.2949V14.7753C6.04571 14.9739 5.88408 15.1355 5.68545 15.1355C5.48682 15.1355 5.3252 14.9739 5.3252 14.7753V14.2949H6.04571Z" fill="#41479B"/>
<path d="M6.04571 13.1562V13.6366C6.04571 13.8353 5.88408 13.9969 5.68545 13.9969C5.48682 13.9969 5.3252 13.8353 5.3252 13.6366V13.1562H6.04571Z" fill="#41479B"/>
<path d="M6.04571 15.4453V15.9257C6.04571 16.1243 5.88408 16.2859 5.68545 16.2859C5.48682 16.2859 5.3252 16.1243 5.3252 15.9257V15.4453H6.04571Z" fill="#41479B"/>
<path d="M7.01543 14.2949V14.7753C7.01543 14.9739 6.85381 15.1355 6.65518 15.1355C6.45654 15.1355 6.29492 14.9739 6.29492 14.7753V14.2949H7.01543Z" fill="#41479B"/>
<path d="M5.075 14.2949V14.7753C5.075 14.9739 4.91338 15.1355 4.71475 15.1355C4.51611 15.1355 4.35449 14.9739 4.35449 14.7753V14.2949H5.075Z" fill="#41479B"/>
</g>
<defs>
<clipPath id="clip0_3462_32637">
<rect width="50" height="50" fill="white" transform="translate(0.310547 0.439453)"/>
</clipPath>
</defs>
</svg>
