<svg width="50" height="51" viewBox="0 0 50 51" fill="none" xmlns="http://www.w3.org/2000/svg">
<g clip-path="url(#clip0_3462_32631)">
<path d="M49.9999 20.2731H0V10.2156C0 9.73955 0.386034 9.35352 0.862108 9.35352H49.1379C49.614 9.35352 50 9.73955 50 10.2156L49.9999 20.2731Z" fill="#82AFFF"/>
<path d="M49.1378 42.1129H0.862108C0.386034 42.1129 0 41.7268 0 41.2508V31.1934H49.9999V41.2508C49.9999 41.7269 49.6139 42.1129 49.1378 42.1129Z" fill="#82AFFF"/>
<path d="M49.9999 20.2734H0V31.1924H49.9999V20.2734Z" fill="#FFE15A"/>
<path d="M0.317968 41.9042L20.1266 26.1801C20.4143 25.9518 20.4143 25.5149 20.1266 25.2865L0.317968 9.5625C0.128027 9.72061 0 9.94971 0 10.2161V41.2505C0 41.517 0.128027 41.7461 0.317968 41.9042Z" fill="#464655"/>
</g>
<defs>
<clipPath id="clip0_3462_32631">
<rect width="50" height="50" fill="white" transform="translate(0 0.732422)"/>
</clipPath>
</defs>
</svg>
