<svg width="51" height="51" viewBox="0 0 51 51" fill="none" xmlns="http://www.w3.org/2000/svg">
<g clip-path="url(#clip0_3462_32628)">
<path d="M21.1164 42.1122H1.28887C0.812794 42.1122 0.426758 41.7261 0.426758 41.2501V10.2156C0.426758 9.73955 0.812794 9.35352 1.28887 9.35352H21.1164V42.1122Z" fill="#F5F5F5"/>
<path d="M14.2197 9.35361L21.1163 11.401L14.2197 13.4483L21.1163 15.4957L14.2197 17.5431L21.1163 19.5904L14.2197 21.6378L21.1163 23.6852L14.2197 25.7326L21.1163 27.7799L14.2197 29.8273L21.1163 31.8747L14.2197 33.922L21.1163 35.9694L14.2197 38.0168L21.1163 40.0641L14.2197 42.1115H49.5645C50.0406 42.1115 50.4266 41.7255 50.4266 41.2494V10.2156C50.4266 9.73955 50.0406 9.35352 49.5645 9.35352H14.2197V9.35361V9.35361Z" fill="#FF4B55"/>
</g>
<defs>
<clipPath id="clip0_3462_32628">
<rect width="50" height="50" fill="white" transform="translate(0.427734 0.732422)"/>
</clipPath>
</defs>
</svg>
