<svg width="50" height="50" viewBox="0 0 50 50" fill="none" xmlns="http://www.w3.org/2000/svg">
<path d="M0 12.5005H50V9.56527C50 9.06221 49.614 8.6543 49.1379 8.6543H0.862109C0.386035 8.6543 0 9.06221 0 9.56527V12.5005Z" fill="#FFE15A"/>
<path d="M50 12.5H0V16.3462H50V12.5Z" fill="#FF4B55"/>
<path d="M50 16.3457H0V20.1919H50V16.3457Z" fill="#FFE15A"/>
<path d="M50 19.2305H0V23.0766H50V19.2305Z" fill="#FF4B55"/>
<path d="M50 23.0762H0V26.9223H50V23.0762Z" fill="#FFE15A"/>
<path d="M0.862108 41.3462H49.1379C49.614 41.3462 50 40.9382 50 40.4352V37.5H0V40.4352C0 40.9384 0.386034 41.3462 0.862108 41.3462Z" fill="#FFE15A"/>
<path d="M50 26.9238H0V30.77H50V26.9238Z" fill="#FF4B55"/>
<path d="M50 30.7695H0V34.6157H50V30.7695Z" fill="#FFE15A"/>
<path d="M50 33.6543H0V37.5004H50V33.6543Z" fill="#FF4B55"/>
<path d="M24.1379 25.0005H0.862109C0.386035 25.0005 0 24.6152 0 24.1401V9.51466C0 9.03955 0.386035 8.6543 0.862109 8.6543H24.1379C24.614 8.6543 25 9.03955 25 9.51466V24.1402C24.9999 24.6154 24.6141 25.0005 24.1379 25.0005Z" fill="#64466E"/>
<path d="M22.7987 15.7452H20.8503V13.5816H21.1286V13.0408H20.8503H18.6235H18.3451V13.5816H18.6235V15.7452H17.5101V13.5816H17.7884V13.0408H17.51H15.2832H15.0048V13.5816H15.2832V15.7452H13.6132V13.0408H13.8916V12.5H11.1082V13.0408H11.3865V15.7452H9.71643V13.5816H9.9948V13.0408H9.71643H7.48972H7.21136V13.5816H7.48972V15.7452H6.37637V13.5816H6.65473V13.0408H6.37637H4.14966H3.87129V13.5816H4.14966V15.7452H2.20121H1.92285V16.286H2.20121V21.1538H4.14966H6.0981V19.5313C6.0981 19.2325 6.34732 18.9905 6.65473 18.9905C6.96223 18.9905 7.21136 19.2327 7.21136 19.5313V21.1538H7.48972H9.71653H9.99489V19.5313C9.99489 19.2325 10.2441 18.9905 10.5515 18.9905C10.859 18.9905 11.1082 19.2327 11.1082 19.5313V21.1538H11.3865H11.6649V19.2607C11.6649 18.8127 12.0388 18.4494 12.5 18.4494C12.9611 18.4494 13.3351 18.8127 13.3351 19.2607V21.1538H13.6134H13.8918V19.5313C13.8918 19.2325 14.141 18.9905 14.4484 18.9905C14.7558 18.9905 15.005 19.2327 15.005 19.5313V21.1538H15.2834H17.5102H17.7882V19.5313C17.7882 19.2325 18.0374 18.9905 18.3448 18.9905C18.6523 18.9905 18.9014 19.2327 18.9014 19.5313V21.1538H20.8499H22.7983V16.286H23.0767V15.7452H22.7987ZM5.81964 17.9087H4.70629V16.2861C4.70629 15.9873 4.95551 15.7453 5.26292 15.7453C5.57032 15.7453 5.81955 15.9875 5.81955 16.2861C5.81964 16.2861 5.81964 17.9087 5.81964 17.9087ZM9.1598 17.9087H8.04645V16.2861C8.04645 15.9873 8.29567 15.7453 8.60308 15.7453C8.91058 15.7453 9.15971 15.9875 9.15971 16.2861L9.1598 17.9087ZM13.0566 16.2861H11.9432V15.2044C11.9432 14.9056 12.1925 14.6636 12.4999 14.6636C12.8073 14.6636 13.0565 14.9058 13.0565 15.2044L13.0566 16.2861ZM16.9534 17.9087H15.84V16.2861C15.84 15.9873 16.0893 15.7453 16.3967 15.7453C16.7042 15.7453 16.9533 15.9875 16.9533 16.2861L16.9534 17.9087ZM20.2935 17.9087H19.1802V16.2861C19.1802 15.9873 19.4294 15.7453 19.7368 15.7453C20.0442 15.7453 20.2935 15.9875 20.2935 16.2861L20.2935 17.9087Z" fill="#F5F5F5"/>
</svg>
