<svg width="51" height="51" viewBox="0 0 51 51" fill="none" xmlns="http://www.w3.org/2000/svg">
<g clip-path="url(#clip0_3462_32612)">
<path d="M49.2853 42.1121H1.00957C0.533495 42.1121 0.147461 41.726 0.147461 41.2499V10.2156C0.147461 9.73955 0.533495 9.35352 1.00957 9.35352H49.2854C49.7614 9.35352 50.1475 9.73955 50.1475 10.2156V41.2499C50.1474 41.7261 49.7613 42.1121 49.2853 42.1121Z" fill="#73AF00"/>
<path d="M21.6992 36.9394C27.8887 36.9394 32.9062 31.9219 32.9062 25.7324C32.9062 19.5429 27.8887 14.5254 21.6992 14.5254C15.5097 14.5254 10.4922 19.5429 10.4922 25.7324C10.4922 31.9219 15.5097 36.9394 21.6992 36.9394Z" fill="#FF4B55"/>
</g>
<defs>
<clipPath id="clip0_3462_32612">
<rect width="50" height="50" fill="white" transform="translate(0.148438 0.732422)"/>
</clipPath>
</defs>
</svg>
