<svg width="50" height="50" viewBox="0 0 50 50" fill="none" xmlns="http://www.w3.org/2000/svg">
<path d="M16.3462 41.3466H0.845529C0.378611 41.3466 0 40.9614 0 40.4862V9.51466C0 9.03955 0.378611 8.6543 0.845529 8.6543H16.3462V41.3466Z" fill="#41479B"/>
<path d="M32.6919 8.6543H16.3457V41.3466H32.6919V8.6543Z" fill="#FFE15A"/>
<path d="M49.1549 41.3466H33.6543V8.6543H49.1549C49.6218 8.6543 50.0004 9.03955 50.0004 9.51466V40.4862C50.0004 40.9614 49.6218 41.3466 49.1549 41.3466Z" fill="#41479B"/>
<path d="M31.7311 20.3356C31.7311 20.3356 29.3899 20.3356 27.6341 22.1519H28.8045C28.8045 22.1519 27.6706 24.2708 27.0853 27.9033L25.8782 27.6994V22.1338L27.0487 22.5302L25.0003 17.3086L22.9518 22.5302L24.1223 22.1265V27.6993L22.9152 27.9032C22.33 24.2708 21.196 22.1518 21.196 22.1518H22.3665C20.6107 20.3356 18.2695 20.3356 18.2695 20.3356C21.1959 23.968 21.1959 30.0222 21.1959 30.0222L24.1222 29.5178V33.6547H25.8781V29.5178L28.8044 30.0222C28.8046 30.0223 28.8046 23.9682 31.7311 20.3356Z" fill="#464655"/>
</svg>
