<svg width="50" height="50" viewBox="0 0 50 50" fill="none" xmlns="http://www.w3.org/2000/svg">
<path d="M49.1378 41.3466H0.862108C0.386034 41.3466 0 40.9614 0 40.4862V9.51466C0 9.03955 0.386034 8.6543 0.862108 8.6543H49.1379C49.614 8.6543 50 9.03955 50 9.51466V40.4862C49.9999 40.9614 49.6139 41.3466 49.1378 41.3466Z" fill="#FF4B55"/>
<path d="M50 9.51466C50 9.03955 49.614 8.6543 49.1379 8.6543H46.0678L24.9999 22.4294L3.93223 8.6543H0.862109C0.386035 8.6543 0 9.03955 0 9.51466V11.2254L21.0678 25.0004L0 38.7755V40.4862C0 40.9613 0.386035 41.3466 0.862109 41.3466H3.93223L25 27.5715L46.0678 41.3466H49.1379C49.614 41.3466 50 40.9613 50 40.4862V38.7755L28.9321 25.0004L49.9999 11.2253L50 9.51466Z" fill="#73AF00"/>
<path d="M50 22.8496H27.1551V8.6543H22.8448V22.8496H0V27.1513H22.8448V41.3466H27.1551V27.1513H50V22.8496Z" fill="#F5F5F5"/>
</svg>
