<svg width="50" height="50" viewBox="0 0 50 50" fill="none" xmlns="http://www.w3.org/2000/svg">
<path d="M49.1379 41.3453H0.862109C0.386035 41.3453 0 40.9577 0 40.4798V32.6914H50V40.4798C50 40.9578 49.614 41.3453 49.1379 41.3453Z" fill="#73AF00"/>
<path d="M49.1379 8.6543H0.862109C0.386035 8.6543 0 9.03874 0 9.51285V32.6928H50V9.51285C50 9.03874 49.614 8.6543 49.1379 8.6543Z" fill="#FF4B55"/>
<path d="M6.73077 41.3466H0.841382C0.376754 41.3466 0 40.9614 0 40.4862V9.51466C0 9.03955 0.376754 8.6543 0.841382 8.6543H6.73077V41.3466Z" fill="#F5F5F5"/>
<path d="M0.961914 39.8196H1.24532V38.9724H0.961914V39.8196ZM3.22392 39.8196H3.50742V38.9724H3.22392V39.8196ZM5.48738 39.8196H5.76952V38.9724H5.48738V39.8196ZM2.09437 37.5482H2.37496V36.8421H2.09437V37.5482ZM4.35774 37.5482H4.63987V36.8421H4.35774V37.5482ZM0.961914 35.7064H1.24532V34.8592H0.961914V35.7064ZM3.22392 35.7064H3.50742V34.8592H3.22392V35.7064ZM5.48738 35.7064H5.76952V34.8592H5.48738V35.7064ZM1.53027 36.8421H1.81087V36.1298H2.09437V35.4238H2.37496V36.1298H2.65992V36.8421H2.94051V37.5482H2.65992V38.2602H2.37496V38.9722H2.09437V38.2602H1.81087V37.5482H1.53027V36.8421V36.8421ZM3.79237 36.8421H4.07578V36.1298H4.35783V35.4238H4.63997V36.1298H4.92201V36.8421H5.20542V37.5482H4.92201V38.2602H4.63997V38.9722H4.35783V38.2602H4.07578V37.5482H3.79237V36.8421V36.8421ZM4.35774 34.0059V34.7119H4.07297V35.4239H3.79237V36.1299H3.50742V36.8422H3.22392V36.1299H2.94042V35.4239H2.65983V34.7119H2.37487V34.0059H2.09428V34.7119H1.81078V35.4239H1.53018V36.1299H1.24523V36.8422H0.961914V37.5483H1.24532V38.2603H1.53027V38.9723H1.81087V39.6783H2.09437V40.3845H2.37787V39.6783H2.65992V38.9723H2.94051V38.2603H3.22401V37.5483H3.50751V38.2603H3.79246V38.9723H4.07587V39.6783H4.35792V40.3845H4.64006V39.6783H4.9221V38.9723H5.20551V38.2603H5.48901V37.5483H5.76961V36.8422H5.48747V36.1299H5.20551V35.4239H4.9221V34.7119H4.64006V34.0059H4.35774ZM5.05854 33.3H5.19961V33.0177H5.34204V33.3H5.48447V33.5823H5.34204V33.8708H5.19961V33.5823H5.05854V33.3ZM5.05854 32.3115V32.7291H4.91902V33.1588H4.77659V33.7236H4.91902V34.1471H5.05854V34.5706H5.48456V34.1471H5.62563V33.7236H5.76516V33.1588H5.62563V32.7291H5.48456V32.3115H5.05854ZM1.24532 33.2937H1.38775V33.0115H1.53018V33.2937H1.66826V33.5823H1.53018V33.8646H1.38775V33.5823H1.24532V33.2937V33.2937ZM1.24532 32.3053V32.729H1.10425V33.1525H0.961914V33.7234H1.10425V34.1469H1.24532V34.5704H1.66835V34.1469H1.81078V33.7234H1.94903V33.1525H1.81078V32.729H1.66835V32.3053H1.24532V32.3053ZM2.8008 33.2937H2.94033V33.0115H3.0843V33.2937H3.22383V33.5823H3.0843V33.8646H2.94033V33.5823H2.8008V33.2937ZM3.50742 33.2937H3.64985V33.0115H3.79228V33.2937H3.93181V33.5823H3.79228V33.8646H3.64985V33.5823H3.50742V33.2937ZM3.50742 32.3053V32.729H3.22392V32.3053H2.80089V32.729H2.65983V33.1525H2.51739V33.7234H2.65983V34.1469H2.80089V34.5704H3.22392V34.1469H3.50742V34.5704H3.9319V34.1469H4.07578V33.7234H4.21404V33.1525H4.07578V32.729H3.9319V32.3053H3.50742V32.3053ZM0.961914 32.0168H1.24532V31.1697H0.961914V32.0168ZM3.22392 32.0168H3.50742V31.1697H3.22392V32.0168ZM5.48738 32.0168H5.76952V31.1697H5.48738V32.0168ZM0.961914 28.4744H1.24532V27.9098H0.961914V28.4744ZM5.48738 28.4744H5.76952V27.9098H5.48738V28.4744ZM3.22392 26.4915H3.50742V25.7855H3.22392V26.4915ZM0.961914 24.5763V24.9998V25.0059V25.4294H1.24532V25.0059V24.9998V24.5763H0.961914ZM2.5173 24.5763V24.9998V25.0059V25.4294H2.8008V25.0059V24.9998V24.5763H2.5173ZM3.9319 24.5763V24.9998V25.0059V25.4294H4.21394V25.0059V24.9998V24.5763H3.9319ZM5.48738 24.5763V24.9998V25.0059V25.4294H5.76952V25.0059V24.9998V24.5763H5.48738ZM3.64985 24.0791V24.3615H3.50742V24.5763H3.22392V24.3615H3.08439V24.0791H2.80089V24.5026H2.94042V24.7175H3.08439V24.9998V25.0059V25.2822H2.94042V25.4971H2.80089V25.9206H3.08439V25.6383H3.22392V25.4295H3.50742V25.6383H3.64985V25.9206H3.9319V25.4971H3.79237V25.2822H3.64994V25.0059V24.9998V24.7175H3.79237V24.5026H3.9319V24.0791H3.64985ZM3.22392 24.2201H3.50742V23.5141H3.22392V24.2201ZM0.961914 22.0959H1.24532V21.5313H0.961914V22.0959ZM5.48738 22.0959H5.76952V21.5313H5.48738V22.0959ZM0.961914 18.8361H1.24532V17.9829H0.961914V18.8361ZM3.22392 18.8361H3.50742V17.9829H3.22392V18.8361ZM5.48738 18.8361H5.76952V17.9829H5.48738V18.8361ZM2.09437 25.0121V24.9937V24.7174H2.37496V24.2262H2.65992V23.6552H3.08439V22.9862H3.22392V22.6608H3.36644H3.50742V22.98H3.64985V23.6553H4.07569V23.9377V24.2262H4.35774V24.7174H4.63987V24.9998V25.2821H4.35774V25.7855H4.07569V26.0678V26.3502H3.64985V27.0194H3.50742V27.3386H3.36644H3.22392V27.0194H3.08439V26.3502H2.65992V25.7853H2.37496V25.2819H2.09437V25.0121V25.0121ZM4.35774 17.1296V17.8416H4.07297V18.5476H3.79237V19.2599H3.50742V19.8246V19.9659H3.22392V19.2598H2.94042V18.5475H2.65983V17.8415H2.37487V17.1295H2.09428V17.8415H1.81078V18.5475H1.52728V19.2598H1.24523V19.8245V19.9658H0.961914V20.6778H1.24532V21.3898H1.52737V22.0958H1.81087V22.802H2.09437V22.0958H2.37496V21.3898H2.65992V20.6778H2.37496V19.8244H2.65992V19.9657V20.3954H2.94051V21.5312H3.08448V22.231L2.66001 22.2371V22.802H2.37505V23.2254H2.09446V23.9375H1.81096V23.2254H1.52746V22.802H1.24541V22.3783H0.961914V23.6551H1.24532V24.2261H1.52737V24.7173H1.81087V24.9998V25.0059V25.2822H1.52737V25.7856H1.24532V26.3505H0.961914V27.6273H1.24532V27.1976H1.52737V26.7741H1.81087V26.068H2.09437V26.7741H2.37496V27.1976H2.65992V27.7685L3.08439 27.7746V28.4744H2.94042V29.6103H2.65983V30.0337V30.1812H2.37487V29.3217H2.65983V28.6157H2.37487V27.9097H2.09428V27.1974H1.81078V27.9097H1.52728V28.6157H1.24523V29.3217H0.961914V30.0337H1.24532V30.1812V30.7398H1.53027V31.4521H1.81087V32.1641H2.09437V32.8701H2.37496V32.1641H2.65992V31.4521H2.94051V30.7398H3.22401V30.0337H3.50751V30.1812V30.7398H3.79246V31.4521H4.07587V32.1641H4.35792V32.8701H4.64006V32.1641H4.9221V31.4521H5.20551V30.7398H5.48747V30.0337H5.76952V29.3217H5.48738V28.6157H5.20542V27.9097H4.92201V27.1974H4.63997V27.9097H4.35783V28.6157H4.07306V29.3217H4.35783V30.0337V30.1812H4.07306V30.0337V29.6103H3.79246V28.4744H3.75207H3.65003V27.7684H3.75207H3.82841H3.93199H4.07587V27.1975H4.35792V26.774H4.64006V26.0679H4.9221V26.774H5.20551V27.1975H5.48901V27.6272H5.76961V26.3504H5.48892V25.7855H5.20542V25.2821H4.92201V25.0059V24.9998V24.7175H5.20542V24.2263H5.48892V23.6553H5.76961V22.3785H5.48892V22.8021H5.20542V23.2256H4.92201V23.9377H4.63997V23.2256H4.35783V22.8021H4.07578V22.2373H3.9319H3.82832H3.75198H3.64994V21.5313H3.75198H3.79237V20.3954H4.07297V19.9658V19.8245H4.35774V19.9658V20.6778H4.07297V21.3898H4.35774V22.0958H4.63987V22.802H4.92192V22.0958H5.20533V21.3898H5.48729V20.6778H5.76961V19.9658H5.48747V19.2597H5.20551V18.5474H4.9221V17.8414H4.64006V17.1294H4.35774V17.1296ZM1.24532 16.4235H1.38503V16.1412H1.53027V16.4235H1.66835V16.7059H1.53027V16.9944H1.38503V16.7059H1.24532V16.4235V16.4235ZM1.24532 15.8526H1.10425V16.2823H0.961914V16.8471H1.10425V17.2768H1.24532V17.7005H1.66835V17.2768H1.81078V16.8471H1.94903V16.2823H1.81078V15.8526H1.66835V15.4352H1.24532C1.24532 15.4352 1.24532 15.8526 1.24532 15.8526ZM2.8008 16.4235H2.94033V16.1412H3.0843V16.4235H3.22383V16.7059H3.0843V16.9944H2.94033V16.7059H2.8008V16.4235ZM3.50742 16.4235H3.64985V16.1412H3.79228V16.4235H3.93181V16.7059H3.79228V16.9944H3.64985V16.7059H3.50742V16.4235ZM2.8008 15.8526H2.65973V16.2823H2.5173V16.8471H2.65973V17.2768H2.8008V17.7005H3.22383V17.2768H3.50733V17.7005H3.93181V17.2768H4.07569V16.8471H4.21394V16.2823H4.07569V15.8526H3.93181V15.4352H3.50733V15.8526H3.22383V15.4352H2.8008V15.8526ZM5.05854 16.4174H5.19961V16.1411H5.34204V16.4174H5.48447V16.706H5.34204V16.9882H5.19961V16.706H5.05854V16.4174ZM5.05854 15.4291V15.8526H4.91902V16.2823H4.77659V16.8471H4.91902V17.2706H5.05854V17.6943H5.48456V17.2706H5.62563V16.8471H5.76516V16.2823H5.62563V15.8526H5.48456V15.4291H5.05854ZM0.961914 15.1467H1.24532V14.2995H0.961914V15.1467ZM3.22392 15.1467H3.50742V14.2995H3.22392V15.1467ZM5.48738 15.1467H5.76952V14.2995H5.48738V15.1467ZM2.09437 13.1637H2.37496V12.4514H2.09437V13.1637ZM4.35774 13.1637H4.63987V12.4514H4.35774V13.1637ZM0.961914 11.0335H1.24532V10.1863H0.961914V11.0335ZM3.22392 11.0335H3.50742V10.1863H3.22392V11.0335ZM5.48738 11.0335H5.76952V10.1863H5.48738V11.0335ZM1.53027 12.4515H1.81087V11.7455H2.09437V11.0335H2.37496V11.7455H2.65992V12.4515H2.94051V13.1638H2.65992V13.8699H2.37496V14.5819H2.09437V13.8699H1.81087V13.1638H1.53027V12.4515V12.4515ZM3.79237 12.4515H4.07578V11.7455H4.35783V11.0335H4.63997V11.7455H4.92201V12.4515H5.20542V13.1638H4.92201V13.8699H4.63997V14.5819H4.35783V13.8699H4.07578V13.1638H3.79237V12.4515V12.4515ZM4.35774 9.61523V10.3276H4.07569V11.0336H3.79228V11.7456H3.50733V12.4516H3.22383V11.7456H2.94033V11.0336H2.65973V10.3276H2.37778V9.61523H2.09428V10.3276H1.81078V11.0336H1.53018V11.7456H1.24523V12.4516H0.961914V13.1639H1.24532V13.87H1.53027V14.582H1.81087V15.294H2.09437V16H2.37496V15.294H2.65992V14.582H2.94051V13.87H3.22401V13.1639H3.50751V13.87H3.79246V14.582H4.07306V15.294H4.35783V16H4.63997V15.294H4.92201V14.582H5.20542V13.87H5.48738V13.1639H5.76952V12.4516H5.48883V11.7456H5.20533V11.0336H4.92192V10.3276H4.63987V9.61523C4.63987 9.61523 4.35774 9.61523 4.35774 9.61523Z" fill="#FF4B55"/>
</svg>
