<svg width="50" height="50" viewBox="0 0 50 50" fill="none" xmlns="http://www.w3.org/2000/svg">
<path d="M49.9999 12.5005H0V9.61589C0 9.08488 0.386034 8.6543 0.862108 8.6543H49.1379C49.614 8.6543 50 9.08488 50 9.61589L49.9999 12.5005Z" fill="#FF4B55"/>
<path d="M0 37.5H50V40.3846C50 40.9156 49.614 41.3462 49.1379 41.3462H0.862109C0.386035 41.3462 0 40.9156 0 40.3846V37.5Z" fill="#FF4B55"/>
<path d="M50 12.5H0V38.4615H50V12.5Z" fill="#41479B"/>
<path d="M24.5196 35.5763C30.6266 35.5763 35.5773 30.6256 35.5773 24.5186C35.5773 18.4116 30.6266 13.4609 24.5196 13.4609C18.4126 13.4609 13.4619 18.4116 13.4619 24.5186C13.4619 30.6256 18.4126 35.5763 24.5196 35.5763Z" fill="#F5F5F5"/>
<path d="M23.0774 30.4906L21.5275 30.7654C21.3322 30.8001 21.1543 30.6399 21.1543 30.429V29.8086H23.0773L23.0774 30.4906Z" fill="#82AFFF"/>
<path d="M26.9238 30.4906L28.4737 30.7654C28.669 30.8001 28.8469 30.6399 28.8469 30.429V29.8086H26.9239V30.4906H26.9238Z" fill="#82AFFF"/>
<path d="M25.0006 19.2311H24.8285C24.6219 19.2311 24.4362 19.1254 24.3436 18.956L24.0391 18.3966L24.3153 18.2695L24.6198 18.8289C24.6596 18.9021 24.7397 18.9475 24.8285 18.9475H25.0006V19.2311V19.2311Z" fill="#965032"/>
<path d="M22.5462 19.1296L22.1162 18.2695L21.8764 18.3895L22.3064 19.2495L22.5462 19.1296Z" fill="#965032"/>
<path d="M25.9617 23.0772L25.1951 22.3689C25.0285 22.2149 24.9329 22.0019 24.9329 21.784V21.5456C24.9329 21.4581 24.9104 21.3703 24.8681 21.292L24.677 20.9388C24.6371 20.8652 24.557 20.8192 24.4678 20.8192H23.808C23.6118 20.8192 23.4355 20.7186 23.3478 20.5565L23.0771 20.0561L23.3281 19.9399L23.5988 20.4404C23.6387 20.5139 23.7188 20.5599 23.808 20.5599H24.4678C24.664 20.5599 24.8403 20.6606 24.9279 20.8226L25.119 21.1758C25.1809 21.2903 25.2136 21.4179 25.2136 21.5456V21.784C25.2136 21.9335 25.2792 22.0798 25.3935 22.1851L25.6813 22.4511V21.2431C25.6813 20.9156 25.5593 20.5945 25.3378 20.3386C25.0768 20.0366 24.9331 19.6582 24.9331 19.272V18.2695H25.2136V19.272C25.2136 19.5995 25.3356 19.9206 25.557 20.1765C25.8181 20.4784 25.9618 20.8568 25.9618 21.2431V23.0772H25.9617Z" fill="#965032"/>
<path d="M25.0006 23.0768H24.6368C24.4124 23.0768 24.2094 22.8785 24.1312 22.5837L24.0391 22.2352L24.2688 22.1152L24.3609 22.4637C24.4036 22.6249 24.5143 22.7328 24.6368 22.7328H25.0006V23.0768Z" fill="#965032"/>
<path d="M26.2074 18.3778L25.9619 18.2695L24.41 21.7887L24.6555 21.8969L26.2074 18.3778Z" fill="#965032"/>
<path d="M25.9615 21.1535H25V20.8239H25.7627V19.2305H25.9615V21.1535Z" fill="#965032"/>
<path d="M23.5575 22.1158H22.596C22.3305 22.1158 22.1152 21.9007 22.1152 21.6351C22.1152 21.3696 22.3304 21.1543 22.596 21.1543H23.5575C23.8231 21.1543 24.0383 21.3695 24.0383 21.6351C24.0382 21.9007 23.823 22.1158 23.5575 22.1158Z" fill="#73AF00"/>
<path d="M26.4423 22.1158H25.4808C25.2153 22.1158 25 21.9007 25 21.6351C25 21.3696 25.2152 21.1543 25.4808 21.1543H26.4423C26.7078 21.1543 26.9231 21.3695 26.9231 21.6351C26.9231 21.9007 26.7077 22.1158 26.4423 22.1158Z" fill="#73AF00"/>
<path d="M28.2274 21.1549H26.5791C26.2377 21.1549 25.9609 20.9397 25.9609 20.6741C25.9609 20.4086 26.2376 20.1934 26.5791 20.1934H28.2274C28.5688 20.1934 28.8456 20.4085 28.8456 20.6741C28.8454 20.9396 28.5688 21.1549 28.2274 21.1549Z" fill="#73AF00"/>
<path d="M28.2692 20.194H25.5769C25.2583 20.194 25 19.9788 25 19.7132C25 19.4477 25.2582 19.2324 25.5769 19.2324H28.2692C28.5878 19.2324 28.8462 19.4476 28.8462 19.7132C28.8462 19.9786 28.5878 20.194 28.2692 20.194Z" fill="#73AF00"/>
<path d="M26.3461 18.2701H25.5769C25.2583 18.2701 25 18.055 25 17.7894C25 17.5239 25.2582 17.3086 25.5769 17.3086H26.3461C26.6648 17.3086 26.9231 17.5238 26.9231 17.7894C26.9231 18.0549 26.6646 18.2701 26.3461 18.2701Z" fill="#73AF00"/>
<path d="M21.7543 19.2311H21.5139C21.3148 19.2311 21.1533 19.0159 21.1533 18.7503C21.1533 18.4848 21.3147 18.2695 21.5139 18.2695H21.7543C21.9534 18.2695 22.1149 18.4847 22.1149 18.7503C22.1148 19.0159 21.9533 19.2311 21.7543 19.2311Z" fill="#73AF00"/>
<path d="M24.5185 18.2701H23.5569C23.2914 18.2701 23.0762 18.055 23.0762 17.7894C23.0762 17.5239 23.2913 17.3086 23.5569 17.3086H24.5185C24.784 17.3086 24.9992 17.5238 24.9992 17.7894C24.9991 18.055 24.7839 18.2701 24.5185 18.2701Z" fill="#73AF00"/>
<path d="M23.5571 20.194H21.6341C21.3686 20.194 21.1533 19.9788 21.1533 19.7132C21.1533 19.4477 21.3685 19.2324 21.6341 19.2324H23.5571C23.8227 19.2324 24.0379 19.4476 24.0379 19.7132C24.0379 19.9788 23.8227 20.194 23.5571 20.194Z" fill="#73AF00"/>
<path d="M30.9952 27.8848H19.9657C19.5596 27.8848 19.2305 28.1717 19.2305 28.5258C19.2305 28.8798 19.5596 29.1668 19.9657 29.1668H22.9069C22.9069 29.5209 23.2361 29.8078 23.6422 29.8078H27.3187C27.7248 29.8078 28.054 29.5209 28.054 29.1668H30.9952C31.4013 29.1668 31.7305 28.8798 31.7305 28.5258C31.7305 28.1718 31.4013 27.8848 30.9952 27.8848Z" fill="#73AF00"/>
<path d="M31.7116 22.4314C31.6866 22.3712 31.5564 22.4427 31.475 22.4064C30.4658 21.9559 29.1107 21.1351 28.2251 20.5756L28.0472 20.2375L26.3685 19.2577C26.2616 19.1954 26.1329 19.2434 26.0742 19.3673L25.9914 19.542C25.9283 19.6754 25.97 19.845 26.0832 19.9158L27.6817 20.9145L28.1334 20.8744L29.8891 21.9585C29.8891 21.9585 31.082 22.6913 31.1454 22.7451C31.2088 22.7989 31.2452 23.1003 31.3635 23.0751C31.4484 23.057 31.8196 22.6921 31.7116 22.4314Z" fill="#BE7855"/>
<path d="M20.1203 28.9194C20.1203 28.9194 20.275 29.6682 20.13 29.7526C19.9849 29.8369 19.2114 29.8369 19.2308 29.6577C19.2501 29.4784 19.3566 28.8457 19.3566 28.8457L20.1203 28.9194Z" fill="#FFBE3C"/>
<path d="M21.1842 27.8848C21.1842 27.8848 21.0606 28.2795 21.3079 28.2944C21.5551 28.3093 22.9527 28.3019 22.9909 28.2722C23.029 28.2425 23.0764 28.1679 23.0764 28.1679L21.7832 27.8848H21.1842Z" fill="#FFBE3C"/>
<path d="M19.9201 23.0762C19.9201 23.0762 19.6185 23.7567 19.5088 26.1145C19.4796 26.7418 19.5594 26.5949 19.2305 28.6124L19.6208 28.8059C19.7345 28.8622 19.871 28.8582 19.9806 28.795L20.3606 28.5764C20.3606 28.5764 20.1751 26.3188 20.7824 25.0217C20.7824 25.0217 21.1029 25.5823 21.1029 25.9984C21.1029 26.4147 21.0861 28.4163 21.0861 28.4163C21.0861 28.4163 21.7946 28.5284 22.1151 28.4963C22.1151 28.4963 21.9126 24.153 21.7102 23.1302L19.9201 23.0762Z" fill="#EAF3F5"/>
<path d="M20.2709 23.0762C20.2709 23.0762 20.1456 23.1544 20.2116 23.3442C20.2116 23.3442 21.1746 23.6962 22.0784 23.3945C22.0784 23.3945 22.1773 23.2716 22.0521 23.1208L20.2709 23.0762Z" fill="#965032"/>
<path d="M19.3981 20.9032C18.9332 21.0781 18.2268 21.5148 18.2716 21.8622C18.3164 22.2096 18.5595 22.1249 18.6354 22.0395C18.7113 21.9542 18.9291 21.6805 18.9972 21.6319C19.0652 21.5833 20.1648 21.0119 20.1648 21.0119L23.0763 19.4967C23.0763 19.4967 23.0986 19.3495 22.9252 19.2305C22.9251 19.2305 21.1439 20.2462 19.3981 20.9032Z" fill="#965032"/>
<path d="M20.0871 19.3855L20.0699 19.5017C20.0699 19.5017 20.024 20.2463 20.2878 20.4469C20.2878 20.4469 20.3451 20.6 20.2534 20.674C20.1617 20.748 19.2558 21.1703 19.2558 21.1703C19.2558 21.1703 19.0207 21.6192 19.0264 21.8725C19.0264 21.8725 18.8028 21.7933 18.8258 21.693C18.8486 21.5927 18.9806 21.3287 18.9404 21.2019C18.9002 21.0752 18.7512 21.1122 18.7512 21.1122C18.7512 21.1122 18.6766 21.1862 18.7971 21.2336L18.7569 21.392L18.2695 21.656L18.3785 21.7774C18.3785 21.7774 18.3842 22.7067 18.9804 22.828C18.9804 22.828 19.2957 22.8491 19.6685 22.1944C19.6685 22.1944 19.8691 22.5217 19.8003 22.8069C19.8003 22.8069 20.4538 23.1342 21.3482 22.8492L21.3598 22.2789C21.3598 22.2789 21.4974 23.1554 21.9674 23.0709C21.9674 23.0709 23.2697 22.6092 23.0529 22.4337C22.5483 22.0254 21.9391 22.3705 21.9391 22.3705C21.9095 21.7774 21.8557 21.0101 21.7724 20.9272C21.6348 20.7899 21.2105 20.8638 21.1264 20.6878C21.0423 20.5118 21.0653 20.2021 21.157 19.843C21.2487 19.4839 20.7825 19.2305 20.7825 19.2305L20.0871 19.3855Z" fill="#FFBE3C"/>
<path d="M20.213 19.8192C20.213 19.8192 20.5904 19.9383 20.8862 19.7923L21.0156 20.192H21.0895C21.0895 20.192 21.2678 19.4522 21.0311 19.4609C21.0311 19.4609 21.0302 19.2207 20.617 19.2308C20.2621 19.2394 20.139 19.5271 20.213 19.8192Z" fill="#464655"/>
<path d="M29.8793 28.9194C29.8793 28.9194 29.7246 29.6682 29.8697 29.7526C30.0147 29.8369 30.7882 29.8369 30.7688 29.6577C30.7494 29.4785 30.643 28.8457 30.643 28.8457L29.8793 28.9194Z" fill="#965032"/>
<path d="M28.815 27.8848C28.815 27.8848 28.9387 28.2795 28.6914 28.2944C28.4442 28.3093 27.0465 28.3019 27.0084 28.2722C26.9702 28.2424 26.9229 28.1679 26.9229 28.1679L28.216 27.8848H28.815Z" fill="#965032"/>
<path d="M30.0798 23.0762C30.0798 23.0762 30.3814 23.7567 30.4911 26.1145C30.5202 26.7418 30.4404 26.5949 30.7694 28.6124L30.379 28.8059C30.2654 28.8622 30.1289 28.8582 30.0192 28.795L29.6392 28.5764C29.6392 28.5764 29.8248 26.3188 29.2175 25.0217C29.2175 25.0217 28.8969 25.5823 28.8969 25.9984C28.8969 26.4147 28.9137 28.4163 28.9137 28.4163C28.9137 28.4163 28.2052 28.5284 27.8848 28.4963C27.8848 28.4963 28.0872 24.153 28.2896 23.1302L30.0798 23.0762Z" fill="#EAF3F5"/>
<path d="M29.7293 23.0762C29.7293 23.0762 29.8546 23.1544 29.7887 23.3442C29.7887 23.3442 28.8256 23.6962 27.9219 23.3945C27.9219 23.3945 27.8229 23.2716 27.9482 23.1208L29.7293 23.0762Z" fill="#BE7855"/>
<path d="M29.913 19.3855L29.9302 19.5017C29.9302 19.5017 29.9761 20.2463 29.7123 20.4469C29.7123 20.4469 29.655 20.6 29.7467 20.674C29.8384 20.748 30.7442 21.1703 30.7442 21.1703C30.7442 21.1703 30.9793 21.6192 30.9736 21.8725C30.9736 21.8725 31.1972 21.7933 31.1743 21.693C31.1514 21.5927 31.0194 21.3287 31.0596 21.2019C31.0998 21.0752 31.2489 21.1122 31.2489 21.1122C31.2489 21.1122 31.3234 21.1862 31.203 21.2336L31.2431 21.392L31.7305 21.656L31.6216 21.7774C31.6216 21.7774 31.6159 22.7067 31.0196 22.828C31.0196 22.828 30.7043 22.8491 30.3316 22.1944C30.3316 22.1944 30.131 22.5217 30.1998 22.8069C30.1998 22.8069 29.5462 23.1342 28.6518 22.8492L28.6403 22.2789C28.6403 22.2789 28.5027 23.1554 28.0327 23.0709C28.0327 23.0709 26.7303 22.6092 26.9472 22.4337C27.4517 22.0254 28.061 22.3705 28.061 22.3705C28.0906 21.7774 28.1444 21.0101 28.2277 20.9272C28.3653 20.7899 28.7894 20.8638 28.8736 20.6878C28.9578 20.5118 28.9348 20.2021 28.8431 19.843C28.7514 19.4839 29.2176 19.2305 29.2176 19.2305L29.913 19.3855Z" fill="#965032"/>
<path d="M29.7866 19.8192C29.7866 19.8192 29.4092 19.9383 29.1134 19.7923L28.984 20.192H28.9101C28.9101 20.192 28.7319 19.4522 28.9685 19.4609C28.9685 19.4609 28.9694 19.2207 29.3825 19.2308C29.7375 19.2394 29.8606 19.5271 29.7866 19.8192Z" fill="#464655"/>
<path d="M22.1243 19.4843C22.0957 19.4203 22.1437 19.4027 22.1437 19.4027C22.1437 19.4027 22.4903 19.2275 22.5306 19.2305C22.5972 19.2355 22.679 19.3433 22.679 19.4354C22.679 19.5274 22.8092 19.7663 23.0768 19.8258C23.0768 19.8258 22.7428 20.2437 22.2791 20.1866C22.2791 20.1865 22.3102 19.9006 22.1243 19.4843Z" fill="#EAF3F5"/>
<path d="M22.3762 23.0762C22.2321 23.0762 22.1152 23.1852 22.1152 23.3197V26.105C22.1152 26.7781 22.4759 29.134 24.9999 29.8069C27.5238 29.1339 27.8845 26.778 27.8845 26.105V23.3197C27.8845 23.1852 27.7676 23.0762 27.6235 23.0762H22.3762Z" fill="#82AFFF"/>
<path d="M27.8846 26.2594V23.3321C27.8846 23.1908 27.7678 23.0762 27.6237 23.0762H25V25.5521L27.5355 27.8839C27.8162 27.2024 27.8846 26.5654 27.8846 26.2594Z" fill="#FFE15A"/>
<path d="M22.1152 26.2594V23.3321C22.1152 23.1908 22.2321 23.0762 22.3762 23.0762H24.9999V25.5521L22.4643 27.8839C22.1836 27.2024 22.1152 26.5654 22.1152 26.2594Z" fill="#EAF3F5"/>
<path d="M23.0771 27.8848L23.7364 28.8463H25.5725L25.9618 28.1582L25.514 28.4052H24.0301L23.0771 27.8848Z" fill="#8C5A28"/>
<path d="M24.0387 26.9238L23.8655 27.8854L23.0771 27.7197C23.0771 27.7197 23.4399 27.2562 24.0387 26.9238Z" fill="#F5F5F5"/>
<path d="M25.0637 25.9609H25V27.884H25.0637V25.9609Z" fill="#8C5A28"/>
<path d="M26.0246 25.9609H25.9609V27.884H26.0246V25.9609Z" fill="#8C5A28"/>
<path d="M24.1018 25.9609H24.0381V27.884H24.1018V25.9609Z" fill="#8C5A28"/>
<path d="M25.8666 27.267H25.095C25.0426 27.267 25 27.2433 25 27.2141V26.9768C25 26.9476 25.0426 26.9238 25.095 26.9238H25.8666C25.919 26.9238 25.9615 26.9476 25.9615 26.9768V27.2141C25.9614 27.2433 25.919 27.267 25.8666 27.267Z" fill="#F5F5F5"/>
<path d="M25.8666 27.267H25.095C25.0426 27.267 25 27.2433 25 27.2141V26.9768C25 26.9476 25.0426 26.9238 25.095 26.9238H25.8666C25.919 26.9238 25.9615 26.9476 25.9615 26.9768V27.2141C25.9614 27.2433 25.919 27.267 25.8666 27.267Z" fill="#F5F5F5"/>
<path d="M25.8666 27.267H25.095C25.0426 27.267 25 27.2433 25 27.2141V26.9768C25 26.9476 25.0426 26.9238 25.095 26.9238H25.8666C25.919 26.9238 25.9615 26.9476 25.9615 26.9768V27.2141C25.9614 27.2433 25.919 27.267 25.8666 27.267Z" fill="#F5F5F5"/>
<path d="M25.7309 27.7006H25.3732C25.344 27.7006 25.3203 27.6769 25.3203 27.6477V27.4104C25.3203 27.3812 25.344 27.3574 25.3732 27.3574H25.7309C25.7601 27.3574 25.7838 27.3812 25.7838 27.4104V27.6477C25.7837 27.6769 25.7601 27.7006 25.7309 27.7006Z" fill="#F5F5F5"/>
<path d="M25.7309 27.2796H25.3732C25.344 27.2796 25.3203 27.2559 25.3203 27.2267V27.0432C25.3203 27.014 25.344 26.9902 25.3732 26.9902H25.7309C25.7601 26.9902 25.7838 27.014 25.7838 27.0432V27.2267C25.7837 27.256 25.7601 27.2796 25.7309 27.2796Z" fill="#F5F5F5"/>
<path d="M25.7309 26.8621H25.3732C25.344 26.8621 25.3203 26.8384 25.3203 26.8092V26.6721C25.3203 26.6429 25.344 26.6191 25.3732 26.6191H25.7309C25.7601 26.6191 25.7838 26.6429 25.7838 26.6721V26.8092C25.7837 26.8385 25.7601 26.8621 25.7309 26.8621Z" fill="#F5F5F5"/>
<path d="M24.5541 27.7006H24.1965C24.1673 27.7006 24.1436 27.6769 24.1436 27.6477V27.4104C24.1436 27.3812 24.1673 27.3574 24.1965 27.3574H24.5541C24.5833 27.3574 24.607 27.3812 24.607 27.4104V27.6477C24.607 27.6769 24.5833 27.7006 24.5541 27.7006Z" fill="#F5F5F5"/>
<path d="M24.5541 27.2796H24.1965C24.1673 27.2796 24.1436 27.2559 24.1436 27.2267V27.0432C24.1436 27.014 24.1673 26.9902 24.1965 26.9902H24.5541C24.5833 26.9902 24.607 27.014 24.607 27.0432V27.2267C24.607 27.256 24.5833 27.2796 24.5541 27.2796Z" fill="#F5F5F5"/>
<path d="M24.5541 26.8621H24.1965C24.1673 26.8621 24.1436 26.8384 24.1436 26.8092V26.6721C24.1436 26.6429 24.1673 26.6191 24.1965 26.6191H24.5541C24.5833 26.6191 24.607 26.6429 24.607 26.6721V26.8092C24.607 26.8385 24.5833 26.8621 24.5541 26.8621Z" fill="#F5F5F5"/>
<path d="M25.5205 26.3652V26.5576L25.2373 26.4597L25.5205 26.3652Z" fill="#FF4B55"/>
<path d="M24.3446 26.3652V26.5576L24.0615 26.4597L24.3446 26.3652Z" fill="#FF4B55"/>
<path d="M24.9336 26.2266V26.4189L24.6504 26.321L24.9336 26.2266Z" fill="#FF4B55"/>
<path d="M27.1215 28.0332H22.8652C22.9286 28.1538 22.9981 28.2731 23.0761 28.3907H26.9104C26.9887 28.2732 27.058 28.1538 27.1215 28.0332Z" fill="#4173CD"/>
<path d="M26.9106 28.3906H23.0762C23.2455 28.6455 23.4531 28.8876 23.702 29.1057H26.2847C26.5337 28.8876 26.7412 28.6454 26.9106 28.3906Z" fill="#73AF00"/>
<path d="M23.7021 29.1055C24.0452 29.4062 24.4664 29.6598 24.9936 29.8205C25.5208 29.6599 25.9418 29.4061 26.285 29.1055H23.7021Z" fill="#FFE15A"/>
<path d="M24.5346 25.3822C24.5346 25.3822 24.5084 25.3914 24.4803 25.3882C24.4585 25.3788 24.4139 25.3774 24.4408 25.2948C24.4539 25.2539 24.4812 25.1961 24.4614 25.1812C24.4454 25.1626 24.428 25.1425 24.4094 25.121C24.3721 25.078 24.3304 25.0294 24.2846 24.9764C24.1906 24.8729 24.0793 24.7539 23.9494 24.6366C23.8846 24.5778 23.8178 24.517 23.7496 24.4553C23.6791 24.3959 23.614 24.3293 23.5373 24.274C23.4938 24.2512 23.4387 24.2397 23.3904 24.2219C23.3433 24.2029 23.3138 24.1671 23.2793 24.1367C23.2118 24.0744 23.1455 24.0131 23.0812 23.9537C22.9508 23.8369 22.8362 23.7211 22.7383 23.6215C22.6432 23.5265 22.5664 23.4439 22.5123 23.3837C22.4606 23.3264 22.464 23.2391 22.5194 23.1856L22.6782 23.0324C22.7337 22.9789 22.821 22.9787 22.8764 23.0323C22.9346 23.0886 23.0144 23.1683 23.1058 23.2667C23.2018 23.3682 23.3136 23.4868 23.4256 23.6213C23.4826 23.6877 23.5414 23.7562 23.6013 23.8258C23.6305 23.8613 23.6651 23.8921 23.6825 23.9397C23.6987 23.9886 23.7082 24.0441 23.7294 24.0884C23.7819 24.1671 23.8461 24.2345 23.903 24.3071C23.9623 24.3772 24.0206 24.4464 24.077 24.5132C24.1896 24.6472 24.3046 24.7626 24.4048 24.8601C24.456 24.9078 24.503 24.9513 24.5447 24.99C24.5655 25.0094 24.585 25.0274 24.6031 25.0442C24.6174 25.0646 24.6761 25.0392 24.7174 25.0277C24.8009 25.0038 24.8007 25.0484 24.8093 25.0705C24.8114 25.0987 24.8013 25.1246 24.8013 25.1246L24.5346 25.3822Z" fill="#BE7855"/>
<path d="M22.7833 25.6641C22.7557 25.6641 22.7279 25.6557 22.7039 25.638C22.6444 25.594 22.6316 25.5101 22.6756 25.4505L23.9494 23.7226C23.9932 23.6632 24.0766 23.6499 24.1369 23.6943C24.1963 23.7383 24.2091 23.8222 24.1651 23.8818L22.8914 25.6098C22.865 25.6452 22.8244 25.6641 22.7833 25.6641Z" fill="#965032"/>
<path d="M23.8037 23.6087L24.4667 24.0481L24.7496 23.6533L24.1314 23.1543L23.8037 23.6087Z" fill="#F5F5F5"/>
<path d="M25.5654 23.4376L27.2643 25.5325C27.2643 25.5325 27.503 25.5434 27.4705 25.3534L25.712 23.291L25.5654 23.4376Z" fill="#965032"/>
<path d="M25.1855 23.7252C25.1855 23.7252 25.6632 23.6384 25.864 23.3398L26.1353 23.6601C26.1353 23.6601 25.6903 23.9748 25.6469 24.3167C25.6469 24.3168 25.2833 24.2191 25.1855 23.7252Z" fill="#EAF3F5"/>
<path d="M27.019 23.5201C26.9878 23.5201 26.9578 23.5032 26.9422 23.4736C26.8938 23.382 26.8855 23.2993 26.9174 23.2274C26.962 23.1266 27.067 23.0971 27.0787 23.0941C27.126 23.0835 27.1725 23.1104 27.1846 23.1565C27.1964 23.2026 27.1689 23.2498 27.123 23.262C27.1134 23.265 27.0849 23.2776 27.0759 23.2983C27.0674 23.3187 27.0745 23.3523 27.0959 23.3929C27.1183 23.4353 27.102 23.4878 27.0595 23.5103C27.0465 23.517 27.0327 23.5201 27.019 23.5201Z" fill="#965032"/>
<path d="M25.6236 24.812C25.6236 24.7808 25.6067 24.7508 25.5771 24.7352C25.4855 24.6868 25.4028 24.6785 25.3309 24.7104C25.2301 24.755 25.2006 24.86 25.1976 24.8717C25.187 24.9189 25.2139 24.9654 25.26 24.9775C25.3061 24.9894 25.3534 24.9619 25.3655 24.916C25.3685 24.9063 25.3811 24.8778 25.4018 24.8688C25.4222 24.8604 25.4558 24.8675 25.4964 24.8889C25.5388 24.9113 25.5913 24.895 25.6138 24.8524C25.6205 24.8395 25.6236 24.8257 25.6236 24.812Z" fill="#965032"/>
<path d="M27.0777 23.3242L25.4785 24.8945L25.8548 25.3143L27.4179 23.7367L27.0777 23.3242Z" fill="#EAF3F5"/>
<path d="M18.9544 21.0614C19.0615 21.0366 19.1555 21.1806 19.0587 21.285C18.9618 21.3892 18.682 21.5776 18.5969 21.5606C18.448 21.5307 18.3437 21.2028 18.9544 21.0614Z" fill="#FFBE3C"/>
<path d="M31.0892 21.2118C30.9899 21.187 30.9028 21.3309 30.9926 21.4353C31.0823 21.5396 31.3418 21.728 31.4208 21.711C31.5589 21.681 31.6556 21.3533 31.0892 21.2118Z" fill="#965032"/>
<path d="M27.4317 22.669C27.5657 22.669 27.6743 22.7849 27.6743 22.9277V25.8867C27.6743 26.6018 27.3391 29.1045 24.9929 29.8194C22.6467 29.1044 22.3114 26.6017 22.3114 25.8867V22.9277C22.3114 22.7849 22.42 22.669 22.554 22.669H27.4317ZM27.4317 22.4902H22.5541C22.3218 22.4902 22.1328 22.6864 22.1328 22.9277V25.8867C22.1328 26.0575 22.1559 26.9589 22.6106 27.9291C23.0941 28.9604 23.9 29.6732 24.941 29.9906L24.9932 30.0064L25.0453 29.9906C26.0863 29.6733 26.8922 28.9604 27.3757 27.9291C27.8305 26.959 27.8535 26.0576 27.8535 25.8867V22.9277C27.853 22.6866 27.6641 22.4902 27.4317 22.4902Z" fill="#464655"/>
<path d="M29.2859 29.8622C28.5263 29.6076 27.7111 29.725 26.9424 30.2379C25.9599 30.8928 25.3086 30.8928 24.9955 30.8928C24.6824 30.8928 24.0311 30.8928 23.0486 30.2379C22.2801 29.7254 21.4646 29.6077 20.7051 29.8621V30.6285C21.1838 30.3997 21.8585 30.3039 22.652 30.8327C23.8146 31.6078 24.6422 31.6078 24.9955 31.6078C25.3488 31.6078 26.1764 31.6078 27.3391 30.8327C28.1325 30.3034 28.8072 30.3994 29.2859 30.6284V29.8622Z" fill="#EAF3F5"/>
<path d="M24.9958 33.933C19.9687 33.933 15.8789 29.843 15.8789 24.8161C15.8789 19.7892 19.9688 15.6992 24.9958 15.6992C30.0227 15.6992 34.1127 19.7892 34.1127 24.8161C34.1127 29.843 30.0228 33.933 24.9958 33.933ZM24.9958 16.0566C20.1658 16.0566 16.2363 19.9859 16.2363 24.8161C16.2363 29.6463 20.1658 33.5755 24.9958 33.5755C29.8258 33.5755 33.7552 29.6463 33.7552 24.8161C33.7552 19.9859 29.8258 16.0566 24.9958 16.0566Z" fill="#965032"/>
<path d="M15.0207 25.5763C15.0207 25.5763 14.9834 24.459 16.056 24.459C16.056 24.459 16.0783 24.8984 15.6911 25.0921C15.3779 25.2486 15.0207 25.5763 15.0207 25.5763Z" fill="#73AF00"/>
<path d="M17.0912 25.5763C17.0912 25.5763 17.1286 24.459 16.0559 24.459C16.0559 24.459 16.0336 24.8984 16.4208 25.0921C16.7341 25.2486 17.0912 25.5763 17.0912 25.5763Z" fill="#73AF00"/>
<path d="M34.9604 24.459C34.9604 24.459 34.9977 25.5763 33.925 25.5763C33.925 25.5763 33.9028 25.1368 34.29 24.9432C34.6032 24.7865 34.9604 24.459 34.9604 24.459Z" fill="#73AF00"/>
<path d="M32.8888 24.459C32.8888 24.459 32.8515 25.5763 33.9242 25.5763C33.9242 25.5763 33.9464 25.1368 33.5592 24.9432C33.2459 24.7865 32.8888 24.459 32.8888 24.459Z" fill="#73AF00"/>
<path d="M25.5489 34.9868C25.5489 34.9868 24.4316 35.0241 24.4316 33.9514C24.4316 33.9514 24.8711 33.9291 25.0647 34.3163C25.2214 34.6295 25.5489 34.9868 25.5489 34.9868Z" fill="#73AF00"/>
<path d="M25.5489 32.9162C25.5489 32.9162 24.4316 32.8789 24.4316 33.9515C24.4316 33.9515 24.8711 33.9738 25.0647 33.5866C25.2214 33.2733 25.5489 32.9162 25.5489 32.9162Z" fill="#73AF00"/>
<path d="M24.4316 15.047C24.4316 15.047 25.5489 15.0097 25.5489 16.0824C25.5489 16.0824 25.1095 16.1047 24.9158 15.7174C24.7591 15.4042 24.4316 15.047 24.4316 15.047Z" fill="#73AF00"/>
<path d="M24.4316 17.1176C24.4316 17.1176 25.5489 17.1549 25.5489 16.0823C25.5489 16.0823 25.1095 16.06 24.9158 16.4472C24.7591 16.7604 24.4316 17.1176 24.4316 17.1176Z" fill="#73AF00"/>
<path d="M18.3357 32.4615C18.3357 32.4615 17.5193 31.6978 18.2777 30.9395C18.2777 30.9395 18.6042 31.2344 18.4674 31.6451C18.3568 31.9773 18.3357 32.4615 18.3357 32.4615Z" fill="#73AF00"/>
<path d="M19.8004 30.9978C19.8004 30.9978 19.0367 30.1814 18.2783 30.9398C18.2783 30.9398 18.5732 31.2663 18.984 31.1295C19.3161 31.0187 19.8004 30.9978 19.8004 30.9978Z" fill="#73AF00"/>
<path d="M31.6456 17.5723C31.6456 17.5723 32.462 18.3359 31.7036 19.0943C31.7036 19.0943 31.3772 18.7994 31.514 18.3887C31.6246 18.0564 31.6456 17.5723 31.6456 17.5723Z" fill="#73AF00"/>
<path d="M30.1807 19.0362C30.1807 19.0362 30.9443 19.8526 31.7027 19.0942C31.7027 19.0942 31.4078 18.7678 30.9971 18.9046C30.6649 19.0152 30.1807 19.0362 30.1807 19.0362Z" fill="#73AF00"/>
<path d="M32.4351 31.671C32.4351 31.671 31.6715 32.4874 30.9131 31.729C30.9131 31.729 31.208 31.4025 31.6187 31.5394C31.951 31.6501 32.4351 31.671 32.4351 31.671Z" fill="#73AF00"/>
<path d="M30.9705 30.207C30.9705 30.207 30.1541 30.9707 30.9125 31.7291C30.9125 31.7291 31.239 31.4342 31.1021 31.0234C30.9914 30.6912 30.9705 30.207 30.9705 30.207Z" fill="#73AF00"/>
<path d="M17.5459 18.3611C17.5459 18.3611 18.3096 17.5447 19.068 18.3031C19.068 18.3031 18.773 18.6296 18.3623 18.4928C18.0301 18.382 17.5459 18.3611 17.5459 18.3611Z" fill="#73AF00"/>
<path d="M19.0099 19.8268C19.0099 19.8268 19.8263 19.0631 19.0679 18.3047C19.0679 18.3047 18.7414 18.5996 18.8782 19.0104C18.989 19.3426 19.0099 19.8268 19.0099 19.8268Z" fill="#73AF00"/>
<path d="M15.9933 29.3483C15.9933 29.3483 15.5314 28.3304 16.5223 27.9199C16.5223 27.9199 16.711 28.3173 16.4274 28.6445C16.1979 28.909 15.9933 29.3483 15.9933 29.3483Z" fill="#73AF00"/>
<path d="M17.9065 28.5557C17.9065 28.5557 17.5135 27.5092 16.5225 27.9196C16.5225 27.9196 16.67 28.3342 17.102 28.3649C17.4511 28.3897 17.9065 28.5557 17.9065 28.5557Z" fill="#73AF00"/>
<path d="M33.987 20.6855C33.987 20.6855 34.4489 21.7035 33.458 22.114C33.458 22.114 33.2693 21.7165 33.5529 21.3894C33.7823 21.1249 33.987 20.6855 33.987 20.6855Z" fill="#73AF00"/>
<path d="M32.0742 21.4785C32.0742 21.4785 32.4673 22.525 33.4583 22.1145C33.4583 22.1145 33.3107 21.7 32.8788 21.6693C32.5296 21.6445 32.0742 21.4785 32.0742 21.4785Z" fill="#73AF00"/>
<path d="M29.322 34.0144C29.322 34.0144 28.304 34.4763 27.8936 33.4854C27.8936 33.4854 28.2909 33.2966 28.6182 33.5803C28.8827 33.8097 29.322 34.0144 29.322 34.0144Z" fill="#73AF00"/>
<path d="M28.5293 32.1016C28.5293 32.1016 27.4828 32.4946 27.8933 33.4856C27.8933 33.4856 28.3078 33.3381 28.3385 32.9062C28.3634 32.5568 28.5293 32.1016 28.5293 32.1016Z" fill="#73AF00"/>
<path d="M20.6592 16.0196C20.6592 16.0196 21.6771 15.5577 22.0876 16.5486C22.0876 16.5486 21.6901 16.7374 21.363 16.4537C21.0984 16.2243 20.6592 16.0196 20.6592 16.0196Z" fill="#73AF00"/>
<path d="M21.4512 17.9329C21.4512 17.9329 22.4977 17.5398 22.0872 16.5488C22.0872 16.5488 21.6727 16.6964 21.642 17.1283C21.6171 17.4775 21.4512 17.9329 21.4512 17.9329Z" fill="#73AF00"/>
<path d="M21.6914 34.4407C21.6914 34.4407 20.6449 34.0477 21.0554 33.0566C21.0554 33.0566 21.4699 33.2042 21.5006 33.6361C21.5254 33.9854 21.6914 34.4407 21.6914 34.4407Z" fill="#73AF00"/>
<path d="M22.4841 32.5275C22.4841 32.5275 21.4661 32.0655 21.0557 33.0565C21.0557 33.0565 21.4531 33.2452 21.7803 32.9615C22.0447 32.7321 22.4841 32.5275 22.4841 32.5275Z" fill="#73AF00"/>
<path d="M28.29 15.5918C28.29 15.5918 29.3365 15.9849 28.9261 16.9759C28.9261 16.9759 28.5115 16.8283 28.4809 16.3964C28.456 16.0471 28.29 15.5918 28.29 15.5918Z" fill="#73AF00"/>
<path d="M27.4971 17.5046C27.4971 17.5046 28.515 17.9665 28.9255 16.9756C28.9255 16.9756 28.5281 16.7868 28.2009 17.0705C27.9364 17.2999 27.4971 17.5046 27.4971 17.5046Z" fill="#73AF00"/>
<path d="M34.4153 28.3164C34.4153 28.3164 34.0223 29.3629 33.0312 28.9524C33.0312 28.9524 33.1788 28.5379 33.6107 28.5072C33.9601 28.4823 34.4153 28.3164 34.4153 28.3164Z" fill="#73AF00"/>
<path d="M32.5021 27.5234C32.5021 27.5234 32.0401 28.5414 33.0311 28.9519C33.0311 28.9519 33.2198 28.5545 32.9361 28.2272C32.7066 27.9627 32.5021 27.5234 32.5021 27.5234Z" fill="#73AF00"/>
<path d="M15.5654 21.7178C15.5654 21.7178 15.9585 20.6713 16.9495 21.0818C16.9495 21.0818 16.8019 21.4963 16.37 21.527C16.0207 21.552 15.5654 21.7178 15.5654 21.7178Z" fill="#73AF00"/>
<path d="M17.4792 22.5104C17.4792 22.5104 17.9411 21.4925 16.9502 21.082C16.9502 21.082 16.7614 21.4795 17.0451 21.8066C17.2746 22.0711 17.4792 22.5104 17.4792 22.5104Z" fill="#73AF00"/>
<path d="M15.321 27.5088C15.321 27.5088 15.0665 26.4202 16.1186 26.2109C16.1186 26.2109 16.2262 26.6376 15.8841 26.903C15.6074 27.1178 15.321 27.5088 15.321 27.5088Z" fill="#73AF00"/>
<path d="M17.3525 27.1058C17.3525 27.1058 17.1711 26.0027 16.1191 26.212C16.1191 26.212 16.1829 26.6473 16.6006 26.7618C16.9384 26.8541 17.3525 27.1058 17.3525 27.1058Z" fill="#73AF00"/>
<path d="M34.6593 22.5234C34.6593 22.5234 34.9138 23.612 33.8618 23.8213C33.8618 23.8213 33.7541 23.3946 34.0962 23.1292C34.3729 22.9145 34.6593 22.5234 34.6593 22.5234Z" fill="#73AF00"/>
<path d="M32.6289 22.9277C32.6289 22.9277 32.8104 24.0309 33.8623 23.8216C33.8623 23.8216 33.7985 23.3862 33.3809 23.2718C33.0432 23.1793 32.6289 22.9277 32.6289 22.9277Z" fill="#73AF00"/>
<path d="M27.4834 34.6867C27.4834 34.6867 26.3948 34.9411 26.1855 33.8891C26.1855 33.8891 26.6122 33.7815 26.8776 34.1236C27.0925 34.4002 27.4834 34.6867 27.4834 34.6867Z" fill="#73AF00"/>
<path d="M27.0794 32.6543C27.0794 32.6543 25.9763 32.8357 26.1856 33.8877C26.1856 33.8877 26.6209 33.8239 26.7354 33.4062C26.8279 33.0686 27.0794 32.6543 27.0794 32.6543Z" fill="#73AF00"/>
<path d="M22.498 15.3474C22.498 15.3474 23.5866 15.0929 23.7959 16.1449C23.7959 16.1449 23.3692 16.2525 23.1038 15.9105C22.889 15.6338 22.498 15.3474 22.498 15.3474Z" fill="#73AF00"/>
<path d="M22.9014 17.3779C22.9014 17.3779 24.0045 17.1965 23.7952 16.1445C23.7952 16.1445 23.3599 16.2083 23.2454 16.626C23.1529 16.9637 22.9014 17.3779 22.9014 17.3779Z" fill="#73AF00"/>
<path d="M19.9165 33.6163C19.9165 33.6163 18.9668 33.0266 19.5627 32.1348C19.5627 32.1348 19.9405 32.3603 19.8863 32.7899C19.8427 33.1375 19.9165 33.6163 19.9165 33.6163Z" fill="#73AF00"/>
<path d="M21.0667 31.8939C21.0667 31.8939 20.1584 31.2421 19.5625 32.1339C19.5625 32.1339 19.9155 32.3966 20.2917 32.1821C20.5959 32.0089 21.0667 31.8939 21.0667 31.8939Z" fill="#73AF00"/>
<path d="M30.0645 16.416C30.0645 16.416 31.0142 17.0058 30.4183 17.8976C30.4183 17.8976 30.0404 17.672 30.0946 17.2424C30.1384 16.895 30.0645 16.416 30.0645 16.416Z" fill="#73AF00"/>
<path d="M28.9141 18.1381C28.9141 18.1381 29.8224 18.7899 30.4183 17.8981C30.4183 17.8981 30.0652 17.6354 29.6891 17.8499C29.3849 18.0231 28.9141 18.1381 28.9141 18.1381Z" fill="#73AF00"/>
<path d="M33.5899 30.0918C33.5899 30.0918 33.0002 31.0415 32.1084 30.4456C32.1084 30.4456 32.3339 30.0678 32.7636 30.122C33.1109 30.1657 33.5899 30.0918 33.5899 30.0918Z" fill="#73AF00"/>
<path d="M31.8685 28.9414C31.8685 28.9414 31.2167 29.8497 32.1085 30.4456C32.1085 30.4456 32.3712 30.0926 32.1567 29.7164C31.9834 29.4121 31.8685 28.9414 31.8685 28.9414Z" fill="#73AF00"/>
<path d="M16.3906 19.9429C16.3906 19.9429 16.9804 18.9931 17.8722 19.589C17.8722 19.589 17.6466 19.9669 17.217 19.9127C16.8696 19.8689 16.3906 19.9429 16.3906 19.9429Z" fill="#73AF00"/>
<path d="M18.1128 21.0921C18.1128 21.0921 18.7645 20.1838 17.8727 19.5879C17.8727 19.5879 17.61 19.9409 17.8245 20.3171C17.9977 20.6213 18.1128 21.0921 18.1128 21.0921Z" fill="#73AF00"/>
<path d="M17.011 31.0198C17.011 31.0198 16.3593 30.1115 17.2511 29.5156C17.2511 29.5156 17.5138 29.8687 17.2993 30.2448C17.126 30.549 17.011 31.0198 17.011 31.0198Z" fill="#73AF00"/>
<path d="M18.7335 29.8706C18.7335 29.8706 18.1437 28.9209 17.252 29.5168C17.252 29.5168 17.4775 29.8946 17.9071 29.8404C18.2545 29.7967 18.7335 29.8706 18.7335 29.8706Z" fill="#73AF00"/>
<path d="M32.9692 19.0137C32.9692 19.0137 33.621 19.922 32.7292 20.5179C32.7292 20.5179 32.4665 20.1648 32.6809 19.7887C32.8542 19.4845 32.9692 19.0137 32.9692 19.0137Z" fill="#73AF00"/>
<path d="M31.248 20.1641C31.248 20.1641 31.8378 21.1138 32.7296 20.5179C32.7296 20.5179 32.504 20.14 32.0744 20.1942C31.727 20.238 31.248 20.1641 31.248 20.1641Z" fill="#73AF00"/>
<path d="M30.9935 32.9956C30.9935 32.9956 30.0852 33.6473 29.4893 32.7555C29.4893 32.7555 29.8423 32.4928 30.2185 32.7073C30.5227 32.8806 30.9935 32.9956 30.9935 32.9956Z" fill="#73AF00"/>
<path d="M29.8432 31.2734C29.8432 31.2734 28.8935 31.8632 29.4894 32.755C29.4894 32.755 29.8673 32.5294 29.8132 32.0998C29.7693 31.7524 29.8432 31.2734 29.8432 31.2734Z" fill="#73AF00"/>
<path d="M18.9873 17.0384C18.9873 17.0384 19.8956 16.3866 20.4915 17.2784C20.4915 17.2784 20.1385 17.5411 19.7623 17.3267C19.4581 17.1534 18.9873 17.0384 18.9873 17.0384Z" fill="#73AF00"/>
<path d="M20.1377 18.7589C20.1377 18.7589 21.0874 18.1691 20.4915 17.2773C20.4915 17.2773 20.1137 17.5029 20.1679 17.9325C20.2116 18.2799 20.1377 18.7589 20.1377 18.7589Z" fill="#73AF00"/>
<path d="M23.5931 34.9033C23.5931 34.9033 22.49 34.7219 22.6993 33.6699C22.6993 33.6699 23.1346 33.7337 23.2491 34.1514C23.3414 34.4891 23.5931 34.9033 23.5931 34.9033Z" fill="#73AF00"/>
<path d="M23.9971 32.8728C23.9971 32.8728 22.9085 32.6183 22.6992 33.6703C22.6992 33.6703 23.1259 33.7779 23.3913 33.4358C23.6061 33.1592 23.9971 32.8728 23.9971 32.8728Z" fill="#73AF00"/>
<path d="M26.3877 15.1289C26.3877 15.1289 27.4908 15.3104 27.2815 16.3623C27.2815 16.3623 26.8462 16.2985 26.7317 15.8809C26.6394 15.5432 26.3877 15.1289 26.3877 15.1289Z" fill="#73AF00"/>
<path d="M25.9834 17.1613C25.9834 17.1613 27.072 17.4158 27.2813 16.3637C27.2813 16.3637 26.8546 16.2561 26.5892 16.5982C26.3744 16.8748 25.9834 17.1613 25.9834 17.1613Z" fill="#73AF00"/>
<path d="M34.8779 26.4141C34.8779 26.4141 34.6965 27.5172 33.6445 27.3079C33.6445 27.3079 33.7083 26.8726 34.126 26.7581C34.4638 26.6656 34.8779 26.4141 34.8779 26.4141Z" fill="#73AF00"/>
<path d="M32.8464 26.0098C32.8464 26.0098 32.5919 27.0983 33.6439 27.3076C33.6439 27.3076 33.7516 26.881 33.4095 26.6155C33.1326 26.4007 32.8464 26.0098 32.8464 26.0098Z" fill="#73AF00"/>
<path d="M15.1035 23.6195C15.1035 23.6195 15.285 22.5164 16.3369 22.7256C16.3369 22.7256 16.2731 23.161 15.8555 23.2754C15.5178 23.3679 15.1035 23.6195 15.1035 23.6195Z" fill="#73AF00"/>
<path d="M17.1339 24.0244C17.1339 24.0244 17.3884 22.9358 16.3364 22.7266C16.3364 22.7266 16.2287 23.1532 16.5708 23.4187C16.8475 23.6335 17.1339 24.0244 17.1339 24.0244Z" fill="#73AF00"/>
</svg>
