<svg width="51" height="51" viewBox="0 0 51 51" fill="none" xmlns="http://www.w3.org/2000/svg">
<g clip-path="url(#clip0_3462_32441)">
<path d="M50.3105 25.8675H0.310547V10.3504C0.310547 9.87432 0.696581 9.48828 1.17265 9.48828H49.4484C49.9245 9.48828 50.3105 9.87432 50.3105 10.3504L50.3105 25.8675Z" fill="#FFE15A"/>
<path d="M0.310547 25.8672H50.3105V41.3843C50.3105 41.8604 49.9244 42.2465 49.4483 42.2465H1.17265C0.696581 42.2465 0.310547 41.8604 0.310547 41.3843V25.8672Z" fill="#FF4B55"/>
<path d="M16.9772 42.2468H1.17265C0.696581 42.2468 0.310547 41.8608 0.310547 41.3847V10.3504C0.310547 9.87432 0.696581 9.48828 1.17265 9.48828H16.9772V42.2468Z" fill="#73AF00"/>
</g>
<defs>
<clipPath id="clip0_3462_32441">
<rect width="50" height="50" fill="white" transform="translate(0.310547 0.867188)"/>
</clipPath>
</defs>
</svg>
