<svg width="50" height="51" viewBox="0 0 50 51" fill="none" xmlns="http://www.w3.org/2000/svg">
<g clip-path="url(#clip0_3462_32388)">
<path d="M49.1378 41.5398H0.862108C0.386034 41.5398 0 41.1538 0 40.6777V9.64336C0 9.16728 0.386034 8.78125 0.862108 8.78125H49.1379C49.614 8.78125 50 9.16728 50 9.64336V40.6777C49.9999 41.1538 49.6139 41.5398 49.1378 41.5398Z" fill="#FF4B55"/>
<path d="M24.1378 25.1605H0.862108C0.386034 25.1605 0 24.7745 0 24.2984V9.64336C0 9.16728 0.386034 8.78125 0.862108 8.78125H24.1378C24.6139 8.78125 25 9.16728 25 9.64336V24.2985C24.9999 24.7747 24.614 25.1605 24.1378 25.1605Z" fill="#41479B"/>
<path d="M24.1378 8.78125H22.6405L14.6551 14.013V8.78125H10.3448V14.013L2.35947 8.78125H0.862108C0.386034 8.78125 0 9.16728 0 9.64336V10.3271L6.85106 14.8157H0V19.1261H6.85106L0 23.6147V24.2984C0 24.7745 0.386034 25.1605 0.862108 25.1605H2.35947L10.3448 19.9288V25.1605H14.6551V19.9288L22.6404 25.1605H24.1377C24.6138 25.1605 24.9999 24.7745 24.9999 24.2984V23.6146L18.1489 19.1261H24.9999V14.8157H18.1488L24.9999 10.3271V9.64336C24.9999 9.16728 24.614 8.78125 24.1378 8.78125Z" fill="#F5F5F5"/>
<path d="M24.9999 15.6778H13.793V8.78125H11.2068V15.6778H0V18.2639H11.2068V25.1605H13.793V18.2639H24.9999V15.6778Z" fill="#FF4B55"/>
<path d="M9.4827 14.8165L0.410839 8.92773C0.169433 9.08057 0 9.33721 0 9.64414V9.68887L7.8993 14.8165H9.4827Z" fill="#FF4B55"/>
<path d="M16.2387 14.8157L24.8689 9.21357C24.7189 8.95977 24.4543 8.78125 24.138 8.78125H23.9515L14.6553 14.8157H16.2387Z" fill="#FF4B55"/>
<path d="M8.73778 19.127L0.124023 24.7183C0.272558 24.9783 0.541308 25.1614 0.862206 25.1614H1.0248L10.3212 19.127H8.73778Z" fill="#FF4B55"/>
<path d="M24.9862 24.3671L16.9134 19.127H15.3301L24.4973 25.0775C24.7721 24.9501 24.9603 24.683 24.9862 24.3671Z" fill="#FF4B55"/>
<path d="M31.3421 17.1543C31.1721 17.1543 31.0342 17.2921 31.0342 17.4622V28.8538C31.0342 29.7774 31.6499 32.8562 37.4997 33.7798C43.3495 32.8562 43.9652 29.7774 43.9652 28.8538V17.4623C43.9652 17.2923 43.8274 17.1544 43.6573 17.1544L31.3421 17.1543Z" fill="#F5F5F5"/>
<path d="M37.4998 33.781C42.383 33.0101 43.618 30.7381 43.8932 29.4707H31.1064C31.3815 30.738 32.6166 33.0101 37.4998 33.781Z" fill="#73AF00"/>
<path d="M41.5022 23.6203C41.5022 23.6203 41.8101 23.3124 41.5022 22.6967L37.4998 22.5176L33.4974 22.6967C33.1895 23.3124 33.4974 23.6203 33.4974 23.6203C33.1895 23.9282 33.1895 24.236 33.1895 24.236H33.8052L34.4723 25.3393L37.4997 27.0069L40.5272 25.3393L41.1943 24.236H41.81C41.8101 24.236 41.8101 23.9282 41.5022 23.6203Z" fill="#82AFFF"/>
<path d="M40.5273 25.3397C40.5273 25.3397 40.3349 24.9164 39.8218 24.9678C39.8218 24.9678 39.5395 24.5958 39.0648 24.6983C39.0648 24.6983 38.5132 24.3776 38.1926 24.9678C38.1926 24.9678 37.1727 24.864 37.1182 25.6407C37.1182 25.6407 38.7057 28.0337 38.7442 28.0593C38.7827 28.085 40.6429 28.0721 40.6429 28.0721L41.5024 27.1238L40.6557 25.9042L40.5273 25.3397Z" fill="#F5F5F5"/>
<path d="M37.5381 26.0958C37.5381 26.0958 36.1914 23.8958 35.9986 23.7096C35.8126 23.5301 35.447 23.3634 35.0749 23.6712C35.0749 23.6712 33.9589 23.5814 34.1127 24.4281L34.4334 25.711C34.4334 25.711 34.1512 26.5962 34.0229 26.686C33.8946 26.7757 33.4199 27.0195 33.4199 27.0195L33.6894 28.0842L37.2812 27.9047L37.5381 26.0958Z" fill="#F0C850"/>
<path d="M39.0909 25.1345L39.0867 25.1363L38.9874 24.9019C38.9794 24.8829 38.9642 24.8679 38.945 24.8604C38.926 24.8529 38.9047 24.8531 38.8855 24.8615L38.2174 25.1562L37.4227 23.8552C37.4579 23.8249 37.4732 23.7754 37.4566 23.7293C37.4352 23.6692 37.369 23.6379 37.309 23.6593L37.1318 23.7227L37.012 23.3686C36.9983 23.3282 36.9549 23.3072 36.9145 23.3202C36.8741 23.334 36.8525 23.3777 36.8662 23.418L36.9869 23.7748L36.7976 23.8426C36.7375 23.8643 36.7062 23.9304 36.7278 23.9903C36.7446 24.0374 36.7892 24.067 36.8365 24.067C36.8432 24.067 36.85 24.0648 36.8567 24.0636L37.1187 25.641L36.9497 25.7154C36.9129 25.7318 36.8946 25.7737 36.9083 25.8116L37.0041 26.0784C37.0064 26.1234 37.0062 26.1991 36.9909 26.295L35.9161 24.4514C35.9612 24.4232 35.9838 24.3683 35.9651 24.3163C35.9435 24.2562 35.8779 24.2246 35.8175 24.2463L35.6403 24.3097L35.5205 23.9556C35.5069 23.9153 35.4632 23.8937 35.4229 23.9072C35.3826 23.921 35.361 23.9647 35.3747 24.005L35.4954 24.3618L35.3061 24.4296C35.246 24.4513 35.2147 24.5174 35.2363 24.5773C35.2518 24.6203 35.2909 24.6457 35.3335 24.6503L35.8 27.5618C35.7397 27.5871 35.6807 27.6128 35.6144 27.6364C35.6144 27.6364 35.3963 28.6756 35.5631 28.7269C35.7299 28.7781 37.4488 29.3041 37.4488 29.3041C37.4488 29.3041 39.8221 28.1752 39.8734 28.1496C39.9247 28.1239 40.0274 27.3799 40.0274 27.3799L39.0909 25.1345ZM38.9453 25.1971L38.7466 25.2824L38.6808 25.12L38.876 25.0339L38.9453 25.1971ZM37.7441 25.533L37.9075 25.4611L37.9703 25.6158L37.7974 25.6902L37.7441 25.533ZM37.6554 25.751L37.4622 25.834L37.4015 25.6842L37.6028 25.5954L37.6554 25.751ZM38.1116 25.5551L38.0482 25.3989L38.2228 25.322L38.2868 25.48L38.1116 25.5551ZM38.3636 25.26L38.5399 25.1821L38.6053 25.3432L38.4281 25.4193L38.3636 25.26ZM37.2792 23.9155L38.0753 25.2188L37.6947 25.3865L37.206 23.9416L37.2792 23.9155ZM37.0044 24.0139L37.0608 23.9937L37.5532 25.4491L37.2639 25.5767L37.0044 24.0139ZM37.2606 25.7464L37.3209 25.8949L37.131 25.9765L37.0774 25.8273L37.2606 25.7464ZM35.7713 24.5082L36.9371 26.5081C36.8784 26.6778 36.7677 26.8746 36.5735 27.0679L35.7145 24.5284L35.7713 24.5082ZM35.4835 24.6113L35.5696 24.5805L36.4494 27.1813C36.316 27.2919 36.1501 27.3988 35.9459 27.4968L35.4835 24.6113Z" fill="#965032"/>
<path d="M41.7817 22.2309C41.6999 22.101 41.4375 22.1566 41.4375 22.1566C41.4375 22.1566 41.3626 22.0068 41.1647 21.9924C40.9667 21.9779 40.9304 22.1542 40.9304 22.1542C40.9304 22.1542 40.8933 22.1267 40.6752 22.1331C40.4572 22.1395 40.5021 22.4987 40.5021 22.4987C40.5021 22.4987 40.4187 22.4987 40.1365 22.409C39.8542 22.3191 39.6683 22.3833 39.6683 22.3833C39.6555 22.2357 39.5785 22.1268 39.5785 22.1268C39.3412 22.2229 39.1552 22.114 39.1104 22.0306C39.0655 21.9472 39.181 21.8189 39.181 21.7099C39.181 21.6008 39.0302 21.6057 38.9773 21.5095C38.9243 21.4133 38.9773 21.3603 39.1168 21.2978C39.2564 21.2353 39.3863 21.0044 39.2995 20.8168C39.2128 20.6292 38.9628 20.6628 38.9628 20.6628C39.0494 20.6772 39.1215 20.8408 38.9822 20.8744C38.8427 20.908 38.7176 20.3981 38.7176 20.3981C39.0399 20.6146 39.2757 20.4848 39.343 20.2971C39.4104 20.1094 39.2324 19.9796 39.2324 19.9796C39.0928 20.2057 38.8523 20.0085 38.9823 19.8642C39.1121 19.7198 39.1233 19.4777 39.1233 19.4777C38.8346 19.6189 38.6551 19.4393 38.6551 19.4393C39.0335 19.1764 38.9245 18.8042 38.9245 18.8042C38.7835 18.74 38.482 18.7914 38.482 18.7914C38.5461 18.6631 38.5332 18.4321 38.5332 18.4321C38.3729 18.4064 38.1933 18.5091 38.1933 18.5091C38.2446 18.3296 38.174 18.0152 38.174 18.0152C38.0585 18.0346 37.8405 18.0986 37.8405 18.0986C37.7507 17.8934 37.5005 17.7715 37.5005 17.7715C37.5005 17.7715 37.2504 17.8934 37.1606 18.0986C37.1606 18.0986 36.9425 18.0345 36.8271 18.0152C36.8271 18.0152 36.7565 18.3296 36.8078 18.5091C36.8078 18.5091 36.6282 18.4065 36.4678 18.4321C36.4678 18.4321 36.455 18.6631 36.5191 18.7914C36.5191 18.7914 36.2176 18.7401 36.0765 18.8042C36.0765 18.8042 35.9674 19.1762 36.3459 19.4393C36.3459 19.4393 36.1663 19.6188 35.8778 19.4777C35.8778 19.4777 35.889 19.7198 36.0188 19.8642C36.1487 20.0085 35.9081 20.2058 35.7687 19.9796C35.7687 19.9796 35.5907 20.1095 35.658 20.2971C35.7254 20.4847 35.9612 20.6145 36.2834 20.3981C36.2834 20.3981 36.1583 20.9081 36.0189 20.8744C35.8794 20.8408 35.9515 20.6772 36.0382 20.6628C36.0382 20.6628 35.7881 20.6291 35.7015 20.8168C35.6149 21.0044 35.7449 21.2353 35.8842 21.2978C36.0238 21.3603 36.0767 21.4133 36.0238 21.5095C35.9708 21.6057 35.8201 21.6009 35.8201 21.7099C35.8201 21.8189 35.9355 21.9472 35.8907 22.0306C35.8457 22.114 35.6597 22.223 35.4225 22.1268C35.4225 22.1268 35.3455 22.2358 35.3328 22.3833C35.3328 22.3833 35.1467 22.3191 34.8646 22.409C34.5824 22.4987 34.499 22.4987 34.499 22.4987C34.499 22.4987 34.5439 22.1395 34.3258 22.1331C34.1078 22.1267 34.0706 22.1542 34.0706 22.1542C34.0706 22.1542 34.0344 21.9779 33.8364 21.9924C33.6384 22.0069 33.5635 22.1566 33.5635 22.1566C33.5635 22.1566 33.3011 22.1011 33.2194 22.2309C33.1376 22.3607 33.128 22.558 33.2819 22.6398C33.4359 22.7217 33.8447 23.0632 33.8447 23.0632L34.4219 23.3133L36.4424 22.4184L37.5007 22.6975L38.559 22.4184L40.5795 23.3133L41.1568 23.0632C41.1568 23.0632 41.5658 22.7216 41.7196 22.6398C41.8731 22.5579 41.8635 22.3606 41.7817 22.2309Z" fill="#FF4B55"/>
<path d="M36.8691 18.9704C36.8691 18.9704 36.8909 19.2421 37.293 19.1697C37.2929 19.1697 37.2821 18.8871 36.8691 18.9704Z" fill="#F5F5F5"/>
<path d="M35.3824 29.7012C35.3824 29.7012 35.0937 29.6917 34.7956 29.9129C34.4973 30.1341 34.3658 29.977 34.0675 29.977C33.7693 29.977 33.6987 30.2881 33.6987 30.2881C33.6987 30.2881 33.1214 30.4325 33.3524 30.8558C33.4984 31.1236 33.7016 31.1179 33.8317 31.0777C33.8251 31.2576 33.8661 31.4552 34.074 31.4909C34.4685 31.5583 34.6416 31.3465 34.555 31.0194C34.555 31.0194 34.6031 31.3561 34.8629 31.3465C35.1227 31.337 35.2959 31.1925 35.267 30.8463C35.2381 30.5 35.7 30.7116 36.0559 30.2016L35.3824 29.7012Z" fill="#FF4B55"/>
<path d="M33.6961 30.9389C33.6961 30.9389 33.5161 31.1763 33.5676 31.4071C33.5676 31.4071 33.1818 31.2852 33.3875 30.7143C33.3874 30.7144 33.6512 30.6439 33.6961 30.9389Z" fill="#82AFFF"/>
<path d="M34.3004 31.2491C34.3004 31.2491 34.1946 31.5473 34.3389 31.8119C34.3389 31.8119 33.8579 31.7974 33.9541 31.2057C33.9541 31.2057 34.1081 31.047 34.3004 31.2491Z" fill="#82AFFF"/>
<path d="M34.7812 31.221C34.7812 31.221 34.8681 31.4711 34.7812 31.7118C34.7812 31.7118 35.1768 31.6877 35.1092 31.1201C35.1091 31.1201 34.897 31.0431 34.7812 31.221Z" fill="#82AFFF"/>
<path d="M34.4296 25.4672C34.3932 25.1705 32.5342 24.9957 32.6496 26.5576C32.6496 26.5576 32.4434 26.5538 32.342 26.7458C32.2406 26.9378 32.0232 26.8908 31.958 26.8219C31.958 26.8219 31.9725 27.1697 32.4035 27.1551C32.4035 27.1551 32.2671 27.2625 32.2864 27.4196C32.3058 27.5766 32.4191 27.7745 32.412 27.9098C32.4049 28.045 32.2768 28.2334 32.2768 28.2334C32.2768 28.2334 32.6076 28.1199 32.6293 27.8833C32.6511 27.6467 32.5979 27.4487 32.6631 27.328C32.6631 27.328 32.6317 27.4946 32.779 27.7047C32.9263 27.9149 32.9335 28.1707 32.8731 28.3301C32.8731 28.3301 33.2401 28.149 33.1701 27.7989C33.1001 27.4488 33.0252 27.4801 33.059 27.2845C33.059 27.2845 33.4405 27.6733 33.3754 28.0041C33.3754 28.0041 33.4974 27.858 33.4865 27.5828C33.4757 27.3075 33.2846 27.1224 33.2846 27.1224C33.2846 27.1224 34.5546 26.487 34.4296 25.4672Z" fill="#FF4B55"/>
<path d="M39.6179 29.7012C39.6179 29.7012 39.9065 29.6917 40.2047 29.9129C40.5029 30.1341 40.6345 29.977 40.9327 29.977C41.2309 29.977 41.3015 30.2881 41.3015 30.2881C41.3015 30.2881 41.8788 30.4325 41.6478 30.8558C41.5018 31.1236 41.2986 31.1179 41.1685 31.0777C41.1751 31.2576 41.1342 31.4552 40.9263 31.4909C40.5317 31.5583 40.3586 31.3465 40.4452 31.0194C40.4452 31.0194 40.3972 31.3561 40.1373 31.3465C39.8775 31.337 39.7043 31.1925 39.7332 30.8463C39.7621 30.5 39.3002 30.7116 38.9443 30.2016L39.6179 29.7012Z" fill="#FF4B55"/>
<path d="M41.3047 30.9389C41.3047 30.9389 41.4847 31.1763 41.4332 31.4071C41.4332 31.4071 41.819 31.2852 41.6133 30.7143C41.6133 30.7144 41.3496 30.6439 41.3047 30.9389Z" fill="#82AFFF"/>
<path d="M40.7006 31.251C40.7006 31.251 40.8064 31.5493 40.6621 31.8138C40.6621 31.8138 41.1432 31.7994 41.0469 31.2077C41.0471 31.2077 40.8931 31.049 40.7006 31.251Z" fill="#82AFFF"/>
<path d="M40.2205 31.221C40.2205 31.221 40.1337 31.4711 40.2205 31.7118C40.2205 31.7118 39.825 31.6877 39.8925 31.1201C39.8924 31.1201 40.1048 31.0431 40.2205 31.221Z" fill="#82AFFF"/>
<path d="M40.5702 25.4672C40.6066 25.1705 42.4656 24.9957 42.3502 26.5576C42.3502 26.5576 42.5564 26.5538 42.6578 26.7458C42.7591 26.9378 42.9765 26.8908 43.0418 26.8219C43.0418 26.8219 43.0273 27.1697 42.5963 27.1551C42.5963 27.1551 42.7327 27.2625 42.7133 27.4196C42.694 27.5766 42.5804 27.7745 42.5878 27.9098C42.595 28.045 42.723 28.2334 42.723 28.2334C42.723 28.2334 42.3922 28.1199 42.3705 27.8833C42.3487 27.6467 42.4018 27.4487 42.3367 27.328C42.3367 27.328 42.368 27.4946 42.2208 27.7047C42.0735 27.9149 42.0663 28.1707 42.1266 28.3301C42.1266 28.3301 41.7596 28.149 41.8297 27.7989C41.8997 27.4488 41.9746 27.4801 41.9408 27.2845C41.9408 27.2845 41.5593 27.6733 41.6244 28.0041C41.6244 28.0041 41.5024 27.858 41.5133 27.5828C41.5241 27.3075 41.7152 27.1224 41.7152 27.1224C41.7152 27.1224 40.4451 26.487 40.5702 25.4672Z" fill="#FF4B55"/>
<path d="M41.3309 22.8065C41.2602 22.759 41.1646 22.7788 41.1175 22.8502C41.0202 22.9971 40.8919 23.0832 40.7255 23.113C40.1747 23.2086 39.3805 22.6662 39.1499 22.4966C38.8156 22.2509 38.4027 22.2082 38.1286 22.377C38.0192 22.4133 37.6848 22.5186 37.5003 22.5186C37.3157 22.5186 36.9813 22.4132 36.8719 22.377C36.5978 22.2082 36.1848 22.2509 35.8506 22.4966C35.6201 22.6662 34.8258 23.2085 34.275 23.113C34.1086 23.0832 33.9803 22.9972 33.883 22.8502C33.8359 22.779 33.7403 22.7592 33.6696 22.8065C33.5987 22.8534 33.5793 22.9491 33.6261 23.0197C33.7705 23.2381 33.9706 23.3712 34.221 23.4159C34.2842 23.4273 34.3489 23.4324 34.4147 23.4324C35.0022 23.4324 35.667 23.0133 36.0327 22.7448C36.3046 22.5451 36.6095 22.5455 36.7468 22.6612C36.7815 22.6906 36.821 22.737 36.8115 22.7914C36.8064 22.8212 36.7868 22.8479 36.7542 22.8705C36.7621 22.8233 36.7477 22.773 36.7113 22.7364C36.6511 22.6762 36.5538 22.6762 36.4936 22.7364C36.4153 22.8143 36.4068 22.9408 36.4727 23.0437C36.539 23.1468 36.6819 23.2222 36.8516 23.1594C36.9379 23.1273 37.0068 23.0659 37.0546 22.9907C37.2885 22.9226 37.5004 22.9221 37.5004 22.9221C37.5004 22.9221 37.7122 22.9225 37.9462 22.9907C37.9939 23.0659 38.0629 23.1273 38.1491 23.1594C38.3188 23.2222 38.4616 23.1468 38.528 23.0437C38.5939 22.9409 38.5854 22.8143 38.5071 22.7364C38.4469 22.6762 38.3496 22.6762 38.2894 22.7364C38.253 22.773 38.2387 22.8232 38.2465 22.8705C38.2139 22.8479 38.1944 22.8212 38.1892 22.7914C38.1797 22.737 38.2192 22.6906 38.2539 22.6612C38.3912 22.5455 38.696 22.5452 38.968 22.7448C39.3338 23.0134 39.9985 23.4324 40.586 23.4324C40.6518 23.4324 40.7165 23.4273 40.7797 23.4159C41.0301 23.3711 41.2302 23.2379 41.3746 23.0197C41.4212 22.9491 41.4019 22.8534 41.3309 22.8065Z" fill="#FFE15A"/>
<path d="M33.5777 22.9757C33.5777 22.9757 33.5524 22.6317 33.5414 22.5194C33.5304 22.4071 33.3199 22.3238 33.2399 22.4361C33.1601 22.5484 33.1384 22.7548 33.5777 22.9757Z" fill="#82AFFF"/>
<path d="M33.6516 22.865C33.6516 22.865 33.9555 22.6196 33.9168 22.4898C33.8782 22.3599 33.7963 22.2926 33.695 22.3311C33.5935 22.3696 33.5455 22.6052 33.6516 22.865Z" fill="#82AFFF"/>
<path d="M34.2434 22.6717C34.287 22.6282 34.3012 22.4167 34.1807 22.3927C34.0602 22.3687 33.901 22.5563 33.9106 22.7872C33.9106 22.7871 34.1613 22.7535 34.2434 22.6717Z" fill="#82AFFF"/>
<path d="M34.118 22.7935C33.9784 22.8381 33.8438 22.9571 33.8438 22.9571C33.8438 22.9571 34.0938 23.1398 34.2671 23.0822C34.4403 23.0246 34.3586 22.7166 34.118 22.7935Z" fill="#82AFFF"/>
<path d="M38.1299 18.9704C38.1299 18.9704 38.1081 19.2421 37.7061 19.1697C37.7061 19.1697 37.717 18.8871 38.1299 18.9704Z" fill="#F5F5F5"/>
<path d="M41.4229 22.9757C41.4229 22.9757 41.4482 22.6317 41.4592 22.5194C41.47 22.4071 41.6806 22.3238 41.7606 22.4361C41.8404 22.5484 41.8623 22.7548 41.4229 22.9757Z" fill="#82AFFF"/>
<path d="M41.3497 22.865C41.3497 22.865 41.0458 22.6196 41.0845 22.4898C41.123 22.3599 41.205 22.2926 41.3063 22.3311C41.4076 22.3696 41.4557 22.6052 41.3497 22.865Z" fill="#82AFFF"/>
<path d="M40.7572 22.6717C40.7135 22.6282 40.6993 22.4167 40.8199 22.3927C40.9404 22.3687 41.0996 22.5563 41.09 22.7872C41.0899 22.7871 40.8392 22.7535 40.7572 22.6717Z" fill="#82AFFF"/>
<path d="M40.8822 22.7935C41.0218 22.8381 41.1564 22.9571 41.1564 22.9571C41.1564 22.9571 40.9064 23.1398 40.7331 23.0822C40.5598 23.0246 40.6417 22.7166 40.8822 22.7935Z" fill="#82AFFF"/>
<path d="M37.3407 19.6092L37.4631 19.7312C37.4836 19.7518 37.517 19.7518 37.5375 19.7312L37.6599 19.6092C37.6931 19.5761 37.6696 19.5195 37.6226 19.5195H37.3778C37.331 19.5195 37.3076 19.5761 37.3407 19.6092Z" fill="#464655"/>
<path d="M37.2759 20.1109C37.1854 20.1109 37.107 20.0785 37.0538 20.0186C36.9987 19.9562 36.9754 19.8706 36.9893 19.7834C36.9942 19.7542 37.0235 19.7365 37.051 19.7389C37.0804 19.7437 37.1003 19.7713 37.0956 19.8008C37.0868 19.8559 37.1009 19.909 37.1344 19.9469C37.169 19.9856 37.2218 20.0037 37.2866 20.0028C37.422 19.9975 37.4446 19.8651 37.4456 19.8598L37.4449 19.6183C37.4449 19.5885 37.469 19.5645 37.4987 19.5645C37.5285 19.5645 37.5526 19.5885 37.5526 19.6183V19.8682C37.5395 19.9545 37.469 20.1033 37.2908 20.1105C37.286 20.1109 37.2809 20.1109 37.2759 20.1109Z" fill="#464655"/>
<path d="M37.7224 20.1108C37.7174 20.1108 37.7123 20.1108 37.7071 20.1105C37.529 20.1033 37.4585 19.9545 37.446 19.8766L37.4453 19.6183C37.4453 19.5885 37.4693 19.5645 37.4991 19.5645C37.5289 19.5645 37.5529 19.5885 37.5529 19.6183V19.8682C37.5548 19.8735 37.58 19.9978 37.7112 20.0028C37.7779 20.004 37.8288 19.9863 37.8635 19.9469C37.897 19.909 37.9111 19.8559 37.9022 19.8008C37.8977 19.7714 37.9175 19.7437 37.9469 19.7389C37.975 19.7354 38.0039 19.7539 38.0086 19.7834C38.0226 19.8706 37.9991 19.9562 37.9441 20.0186C37.8911 20.0784 37.8129 20.1108 37.7224 20.1108Z" fill="#464655"/>
<path d="M39.3472 27.9312C39.3472 27.9312 38.9624 27.3154 38.5134 27.7259C38.0643 28.1364 37.8976 28.6367 37.3845 28.5982C37.1029 28.5771 36.9591 28.4484 36.8844 28.336C37.0207 28.2238 37.1174 28.0534 37.0125 27.8027C36.7815 27.2511 35.935 27.418 35.704 28.0208C35.704 28.0208 35.9734 27.1357 35.0369 27.4308C35.0369 27.4308 34.9215 26.8151 34.3827 26.9818C34.0897 27.0725 33.9813 27.2527 33.9411 27.3996C33.8277 27.3733 33.6821 27.374 33.5488 27.482L34.2287 29.3165L35.255 29.3293L35.4859 29.6756L36.8329 30.5223L37.0767 31.0355H37.9233C37.9233 31.0355 37.9875 30.5095 38.4365 30.3556C38.8855 30.2016 39.6167 29.8809 39.6937 29.5986C39.7707 29.3164 39.7707 29.3164 39.7707 29.3164L40.5917 29.3292C40.6814 29.265 41.2845 28.2773 41.2845 28.2773L41.5643 27.0051C41.4098 26.9829 39.6416 26.7535 39.3472 27.9312Z" fill="#F5F5F5"/>
<path d="M41.5669 26.9941L41.5645 27.0053C41.5719 27.0063 41.5804 27.0077 41.5804 27.0077L41.5669 26.9941Z" fill="#F5F5F5"/>
<path d="M35.9788 29.8976C35.6462 29.7635 35.5275 29.5756 35.4864 29.4755C35.4482 29.3829 35.4557 29.3173 35.4662 29.2933C35.4873 29.2442 35.513 29.213 35.537 29.2069C35.5595 29.2016 35.588 29.2145 35.5932 29.2177C35.6039 29.23 35.6097 29.2691 35.5994 29.2787C35.5374 29.337 35.5346 29.4344 35.5928 29.4964C35.6513 29.5583 35.7484 29.561 35.8105 29.5029C35.8738 29.4435 35.9101 29.3602 35.9125 29.2685C35.9155 29.1702 35.8794 29.0722 35.8166 29.006C35.7536 28.9393 35.6242 28.8785 35.4863 28.9031C35.4579 28.9081 35.4258 28.9197 35.3931 28.9356C35.4147 28.7223 35.3325 28.6131 35.2721 28.5691C35.1706 28.4953 35.0262 28.4937 34.9046 28.5649C34.7803 28.6379 34.7131 28.7657 34.7295 28.8981C34.7401 28.9825 34.8247 29.0331 34.9074 29.0217C34.9917 29.0114 35.0581 28.9243 35.0477 28.8401C35.0652 28.8242 35.0881 28.8189 35.0873 28.8151C35.0876 28.8154 35.108 28.8491 35.0834 28.9577C35.0451 29.1278 34.9551 29.2325 34.8159 29.2692C34.6425 29.3171 34.4205 29.2441 34.2892 29.0999C34.1067 28.899 33.7247 27.8332 33.4975 27.1233C34.4712 26.6614 34.5909 25.8942 34.5724 25.4666C34.5443 24.8154 34.1546 24.149 33.7213 24.0116C33.5508 23.9578 33.2955 23.9467 33.1101 24.0423C33.0051 24.0971 32.9323 24.1809 32.8995 24.2852C32.8326 24.498 32.9665 24.6739 33.1266 24.7314C33.2924 24.7908 33.4598 24.7193 33.5242 24.5609C33.5561 24.4821 33.5212 24.3919 33.4425 24.36C33.3633 24.3273 33.2771 24.3656 33.2454 24.4442C33.2389 24.4477 33.2175 24.4397 33.2016 24.4216C33.1901 24.4083 33.1876 24.3954 33.1933 24.3778C33.1984 24.3614 33.21 24.3374 33.2524 24.3155C33.353 24.2629 33.5211 24.2709 33.6286 24.3049C33.8765 24.3833 34.2385 24.8684 34.2649 25.4796C34.2806 25.8449 34.1698 26.5146 33.2504 26.8961C33.1767 26.9268 33.1387 27.0083 33.1625 27.0844C33.2226 27.2765 33.7581 28.9732 34.0614 29.3066C34.2246 29.486 34.4711 29.5903 34.707 29.5903C34.7708 29.5903 34.834 29.5828 34.8945 29.5668C34.9973 29.5396 35.0831 29.4865 35.1579 29.4199C35.1653 29.4764 35.1784 29.5342 35.2022 29.592C35.2617 29.7369 35.4268 30.0064 35.8877 30.1921C36.8201 30.5661 36.9086 30.8162 36.9036 30.9067C36.9007 30.9564 36.8723 30.9821 36.8492 30.9951C36.8391 31.0009 36.8291 31.0044 36.8206 31.0066C36.855 30.9594 36.8613 30.8947 36.8309 30.8402C36.7894 30.766 36.6958 30.7395 36.6215 30.781C36.5167 30.8396 36.4437 30.9776 36.5063 31.1285C36.5551 31.2458 36.6695 31.3168 36.8015 31.3168C36.8227 31.3168 36.8444 31.3149 36.8662 31.311C37.0579 31.2786 37.1995 31.1195 37.2109 30.9244C37.2372 30.4578 36.5334 30.1202 35.9788 29.8976Z" fill="#FFE15A"/>
<path d="M39.0208 29.8976C39.3535 29.7635 39.4722 29.5756 39.5133 29.4755C39.5515 29.3829 39.544 29.3173 39.5335 29.2933C39.5123 29.2442 39.4867 29.213 39.4627 29.2069C39.4402 29.2016 39.4117 29.2145 39.4065 29.2177C39.3957 29.23 39.39 29.2691 39.4003 29.2787C39.4623 29.337 39.4651 29.4344 39.4069 29.4964C39.3484 29.5583 39.2513 29.561 39.1892 29.5029C39.1259 29.4435 39.0896 29.3602 39.0871 29.2685C39.0843 29.1702 39.1203 29.0722 39.183 29.006C39.2461 28.9393 39.3755 28.8785 39.5134 28.9031C39.5418 28.9081 39.5739 28.9197 39.6066 28.9356C39.585 28.7223 39.6672 28.6131 39.7276 28.5691C39.829 28.4953 39.9735 28.4937 40.0951 28.5649C40.2194 28.6379 40.2866 28.7657 40.2702 28.8981C40.2596 28.9825 40.1749 29.0331 40.0923 29.0217C40.0079 29.0114 39.9416 28.9243 39.952 28.8401C39.9345 28.8242 39.9116 28.8189 39.9123 28.8151C39.912 28.8154 39.8917 28.8491 39.9162 28.9577C39.9546 29.1278 40.0446 29.2325 40.1838 29.2692C40.3572 29.3171 40.5792 29.2441 40.7105 29.0999C40.893 28.899 41.275 27.8332 41.5022 27.1233C40.5285 26.6614 40.4088 25.8942 40.4273 25.4666C40.4554 24.8154 40.8451 24.149 41.2784 24.0116C41.4489 23.9578 41.7042 23.9467 41.8896 24.0423C41.9946 24.0971 42.0674 24.1809 42.1002 24.2852C42.1671 24.498 42.0332 24.6739 41.8731 24.7314C41.7073 24.7908 41.5399 24.7193 41.4755 24.5609C41.4436 24.4821 41.4784 24.3919 41.5572 24.36C41.6364 24.3273 41.7226 24.3656 41.7543 24.4442C41.7608 24.4477 41.7822 24.4397 41.7981 24.4216C41.8096 24.4083 41.812 24.3954 41.8064 24.3778C41.8013 24.3614 41.7897 24.3374 41.7473 24.3155C41.6467 24.2629 41.4785 24.2709 41.3711 24.3049C41.1232 24.3833 40.7612 24.8684 40.7348 25.4796C40.7191 25.8449 40.8299 26.5146 41.7493 26.8961C41.823 26.9268 41.861 27.0083 41.8371 27.0844C41.7771 27.2765 41.2416 28.9732 40.9383 29.3066C40.7751 29.486 40.5285 29.5903 40.2927 29.5903C40.2288 29.5903 40.1657 29.5828 40.1052 29.5668C40.0024 29.5396 39.9165 29.4865 39.8418 29.4199C39.8344 29.4764 39.8213 29.5342 39.7975 29.592C39.738 29.7369 39.5729 30.0064 39.112 30.1921C38.1796 30.5661 38.0911 30.8162 38.0961 30.9067C38.0991 30.9564 38.1274 30.9821 38.1505 30.9951C38.1606 31.0009 38.1705 31.0044 38.179 31.0066C38.1447 30.9594 38.1384 30.8947 38.1688 30.8402C38.2103 30.766 38.3038 30.7395 38.3782 30.781C38.4829 30.8396 38.556 30.9776 38.4934 31.1285C38.4446 31.2458 38.3302 31.3168 38.1982 31.3168C38.177 31.3168 38.1553 31.3149 38.1334 31.311C37.9417 31.2786 37.8001 31.1195 37.7888 30.9244C37.7623 30.4578 38.4663 30.1202 39.0208 29.8976Z" fill="#FFE15A"/>
</g>
<defs>
<clipPath id="clip0_3462_32388">
<rect width="50" height="50" fill="white" transform="translate(0 0.160156)"/>
</clipPath>
</defs>
</svg>
