<svg width="51" height="51" viewBox="0 0 51 51" fill="none" xmlns="http://www.w3.org/2000/svg">
<g clip-path="url(#clip0_3462_32356)">
<path d="M49.5646 8.78125H1.28887C0.812792 8.78125 0.426758 9.16728 0.426758 9.64336V40.6777C0.426758 41.1538 0.812792 41.5398 1.28887 41.5398H49.5647C50.0407 41.5398 50.4268 41.1538 50.4268 40.6777V9.64336C50.4267 9.16728 50.0406 8.78125 49.5646 8.78125Z" fill="#FF6E55"/>
<path d="M0.744726 41.3315L50.1086 8.98965C49.9592 8.86533 49.7741 8.78125 49.5646 8.78125H1.28887C0.812792 8.78125 0.426758 9.16728 0.426758 9.64336V40.6777C0.426758 40.9442 0.554785 41.1734 0.744726 41.3315Z" fill="#FFE15A"/>
<path d="M27.9177 17.5455C27.4845 17.6383 26.8039 17.4062 26.8039 17.4062C26.9441 17.6478 27.3191 17.8103 27.6573 17.9127C27.3843 17.9399 27.0728 17.9554 26.7265 17.9478C25.3342 17.9167 24.6846 18.8295 24.6846 18.8295C25.1796 18.52 25.69 18.52 26.448 18.6284C27.2061 18.7367 28.8148 18.2572 28.8148 18.2572L28.9541 17.6385C28.9541 17.6384 28.3509 17.4527 27.9177 17.5455Z" fill="#FFF5DC"/>
<path d="M29.3494 14.6445C29.3494 14.6445 30.0692 14.7971 30.7998 15.2163C30.7558 15.2394 30.7137 15.2676 30.6737 15.3007C30.4376 15.1833 30.1523 15.0883 29.7824 15.0506C29.7824 15.0506 30.1653 15.1502 30.5332 15.4383C30.438 15.5505 30.3594 15.6781 30.299 15.7916C29.4897 14.9238 28.6145 15.503 28.6145 15.503C29.7002 15.4205 29.9563 16.1181 30.0175 16.455C29.8072 16.3145 29.6092 16.1986 29.4234 16.1044C29.4507 16.084 29.4644 16.0656 29.4964 16.0446C29.4964 16.0446 29.4284 16.0474 29.3341 16.0614C27.9485 15.3955 27.2687 15.9208 27.2687 15.9208C27.8841 15.8456 28.4527 16.0056 28.9039 16.2048C28.7056 16.3189 28.5714 16.52 28.6821 16.8618C27.9051 16.6504 26.9285 16.4421 26.4488 16.5705C25.5825 16.8025 25.861 17.6069 25.861 17.6069C25.861 17.6069 25.8765 17.0655 26.4643 16.9417C26.9044 16.849 29.094 17.545 29.094 17.545L29.8055 17.2047L29.5117 16.9571C29.5117 16.9571 28.9468 16.7304 29.189 16.3407C29.594 16.5566 29.8519 16.7714 29.8519 16.7714L30.026 16.517C30.0345 16.5828 30.0376 16.6322 30.0376 16.6322L30.5326 16.4157L30.6409 16.2609C30.6842 16.0262 30.7559 15.8592 30.8384 15.7342C30.9816 15.9142 31.1001 16.1364 31.1591 16.4116L31.6078 16.4581C31.6078 16.4581 31.5349 15.9395 31.033 15.5271C31.0775 15.4955 31.1215 15.4692 31.1647 15.4518C31.4953 15.689 31.8036 15.9855 32.0176 16.3576L32.8452 16.346C32.8454 16.3462 31.4841 14.8302 29.3494 14.6445Z" fill="#FFF5DC"/>
<path d="M37.2464 22.9908C37.8188 22.9908 38.2828 22.5268 38.2828 21.9544C38.2828 21.382 37.8188 20.918 37.2464 20.918C36.674 20.918 36.21 21.382 36.21 21.9544C36.21 22.5268 36.674 22.9908 37.2464 22.9908Z" fill="#FFF5DC"/>
<path d="M34.826 32.068C35.5939 32.068 36.2164 31.4455 36.2164 30.6775C36.2164 29.9096 35.5939 29.2871 34.826 29.2871C34.0581 29.2871 33.4355 29.9096 33.4355 30.6775C33.4355 31.4455 34.0581 32.068 34.826 32.068Z" fill="#FFF5DC"/>
<path d="M24.227 31.1045C24.8357 31.1045 25.3291 30.6111 25.3291 30.0024C25.3291 29.3938 24.8357 28.9004 24.227 28.9004C23.6184 28.9004 23.125 29.3938 23.125 30.0024C23.125 30.6111 23.6184 31.1045 24.227 31.1045Z" fill="#FFF5DC"/>
<path d="M21.6914 36.5098C22.3942 36.5098 22.9639 35.9401 22.9639 35.2373C22.9639 34.5345 22.3942 33.9648 21.6914 33.9648C20.9886 33.9648 20.4189 34.5345 20.4189 35.2373C20.4189 35.9401 20.9886 36.5098 21.6914 36.5098Z" fill="#FFF5DC"/>
<path d="M33.8114 19.2467C33.8114 19.2467 36.1944 20.0959 36.7698 20.3836C37.582 20.7896 38.8582 19.6062 39.7514 20.5229C39.7514 20.5229 39.5967 19.9118 38.8543 19.8654C38.8543 19.8654 38.8698 19.2621 38.1737 19.2932C38.1737 19.2932 38.6842 19.6644 38.3903 19.9274C38.3903 19.9274 38.1892 19.4788 37.6168 19.5562C37.6168 19.5562 38.0499 19.7264 37.9417 19.9894C37.9417 19.9894 37.2533 20.3219 36.9439 20.1054C36.6346 19.8888 34.1905 18.57 33.417 18.5391L33.8114 19.2467Z" fill="#FFF5DC"/>
<path d="M33.2012 19.989C33.2012 19.989 33.7116 20.1398 34.4542 20.9171C34.7982 21.2773 35.6839 21.3 35.5447 20.6038C35.4055 19.9077 33.6885 19.4785 33.5028 19.4785C33.3173 19.4785 33.2012 19.989 33.2012 19.989Z" fill="#F5F5F5"/>
<path d="M36.9213 18.457L35.9467 18.7819C35.9467 18.7819 36.055 19.4433 35.4981 19.7333C35.1551 19.912 34.9258 20.3752 34.9412 20.7155C34.9412 20.7155 35.2661 20.2669 35.73 20.0194C35.8393 19.9611 35.9401 19.9101 36.0319 19.8582C36.0134 20.0901 36.0085 20.3336 36.0395 20.5454C36.1323 21.1796 35.9312 21.3962 35.9312 21.3962C35.9312 21.3962 36.4727 20.9785 36.4107 20.2979C36.3869 20.0364 36.4297 19.8512 36.4963 19.7105C36.5443 20.1845 36.7973 20.4063 36.7973 20.4063C36.6117 20.0352 36.9984 19.6328 37.1532 19.308C37.308 18.9829 36.9213 18.457 36.9213 18.457Z" fill="#FFF5DC"/>
<path d="M39.3843 17.1119C39.0007 16.9814 38.6302 17.2163 38.4097 17.4135C38.3159 17.4975 38.0686 17.5402 37.8156 17.5631C37.9845 17.4436 38.1644 17.3025 38.2591 17.1816C38.4678 16.9148 38.8508 16.8683 39.1756 16.7639C39.5005 16.6595 39.6397 16.2419 39.6397 16.2419C39.6397 16.2419 39.4657 16.4971 38.9784 16.4739C38.4911 16.4506 38.3287 16.4274 38.0038 16.7755C37.9039 16.8826 37.764 16.9653 37.619 17.0318C37.6221 16.8797 37.6353 16.6863 37.6789 16.5551C37.7601 16.3115 38.1313 16.1143 38.1546 15.627C38.1777 15.1397 38.2011 15.1862 38.4795 14.8961C38.7579 14.606 38.8391 14.0607 38.7579 14.2347C38.6766 14.4088 38.3054 14.6176 37.9922 14.9077C37.6789 15.1977 37.8994 15.5225 37.7369 15.7778C37.5745 16.0331 37.1917 16.0911 37.1683 16.5667C37.1452 17.0423 36.8087 17.3208 36.8087 17.3208C36.8087 17.3208 35.9849 17.7732 36.9711 18.133C37.9573 18.4926 38.7551 17.492 39.245 17.5181C40.3355 17.5761 40.6256 17.2165 40.6256 17.2165C40.4401 17.2164 39.9644 17.3091 39.3843 17.1119Z" fill="#FFF5DC"/>
<path d="M27.4231 24.7545C27.3613 24.708 26.2939 23.5324 25.938 23.3622L26.0154 23.6561C26.0154 23.6561 25.7834 23.6406 25.3657 23.1302C24.948 22.6197 24.6386 22.4805 24.6386 22.4805C24.6386 22.4805 24.9326 22.9446 24.917 23.2385C24.917 23.2385 24.2828 23.192 23.6022 23.5169C23.6022 23.5169 23.2928 22.9136 23.0299 22.8054C23.0299 22.8054 23.1227 23.4396 22.9062 23.5942C22.6896 23.749 24.9481 24.8163 25.2575 24.8473C25.5669 24.8782 27.4231 24.7545 27.4231 24.7545Z" fill="#FFF5DC"/>
<path d="M28.8313 22.4493C28.8094 22.4438 28.6952 22.5241 28.5479 22.6293C28.4829 22.2536 28.3519 21.4941 28.3519 21.4592C28.3519 21.4128 27.2999 19.9433 27.2689 19.8814C27.2684 19.8803 27.2649 19.8802 27.2642 19.8793C27.3663 19.6322 27.4764 19.2115 26.8513 19.5411C26.0004 19.9898 25.6602 21.0261 25.6602 21.0261C25.8541 20.8238 26.1926 20.6693 26.4627 20.5689C26.4683 20.6951 26.4692 20.8449 26.2943 21.1035C25.9385 21.6294 26.1395 21.8305 26.1395 21.8305C26.418 21.351 27.0367 21.3046 27.0367 21.3046C26.9439 21.8769 27.2687 22.2017 27.2687 22.2017L27.5316 21.8924C27.4992 22.3352 27.7362 22.8104 27.8836 23.0601C27.8254 23.0882 27.7723 23.1098 27.7328 23.1143C27.4697 23.1454 27.0522 23.3464 27.0522 23.3464C27.0522 23.3464 27.3907 23.2742 27.5829 23.4226C27.775 23.5712 28.0809 23.6847 28.2468 23.6498C28.2468 23.6498 28.1681 24.0516 28.2555 24.2001C28.2555 24.2001 28.037 24.1387 27.7837 24.1476C27.5304 24.1564 27.346 23.9806 27.346 23.9806C27.346 23.9806 27.8102 24.6457 28.1504 24.7849C28.4906 24.9242 29.0785 24.4137 29.0785 24.4137C29.0785 24.4137 28.8933 22.4646 28.8313 22.4493Z" fill="#FFF5DC"/>
<path d="M20.8333 32.1484C20.8333 32.1484 20.5394 32.1794 20.261 32.597L20.1373 32.1639C20.1373 32.1639 19.797 32.4115 19.4258 32.2567C19.4258 32.2567 19.7661 32.1794 19.8279 31.87C19.8897 31.5606 20.0136 31.5297 20.0136 31.5297C20.0136 31.5297 19.7815 31.2821 19.5341 31.2976C19.5341 31.2976 20.2146 30.9418 20.586 31.2821C20.9569 31.6224 20.8333 32.1484 20.8333 32.1484Z" fill="#FFF5DC"/>
<path d="M29.0159 28.7286C29.0159 28.7286 28.722 28.7595 28.4437 29.1772L28.3199 28.744C28.3199 28.744 27.9796 28.9916 27.6084 28.8368C27.6084 28.8368 27.9487 28.7594 28.0105 28.4501C28.0724 28.1407 28.1962 28.1097 28.1962 28.1097C28.1962 28.1097 27.9642 27.8622 27.7167 27.8777C27.7167 27.8777 28.3973 27.5218 28.7687 27.8622C29.1397 28.2026 29.0159 28.7286 29.0159 28.7286Z" fill="#FFF5DC"/>
<path d="M34.0337 24.3292C34.0337 24.3292 33.8901 24.5876 34.0722 25.0554L33.6465 24.9078C33.6465 24.9078 33.6536 25.3286 33.3138 25.5436C33.3138 25.5436 33.4459 25.2206 33.2282 24.9922C33.0105 24.7638 33.0562 24.6447 33.0562 24.6447C33.0562 24.6447 32.7204 24.6925 32.5908 24.904C32.5908 24.904 32.6905 24.1425 33.1823 24.0341C33.6742 23.9258 34.0337 24.3292 34.0337 24.3292Z" fill="#FFF5DC"/>
<path d="M35.5244 29.5566L35.8238 29.7352C35.7367 29.6603 35.6333 29.6041 35.5244 29.5566Z" fill="#FF6E55"/>
<path d="M18.6381 31.0502C18.6381 31.0502 17.2613 32.9838 15.6835 33.4014L16.2404 32.6899C16.2404 32.6899 15.4978 33.3396 14.6626 33.4788L15.6681 32.3186C15.6681 32.3186 13.4251 34.407 10.5479 34.8401C10.5479 34.8401 12.7754 33.4325 13.224 32.9374C13.224 32.9374 12.1411 33.3706 11.1666 33.386C11.1666 33.386 13.9665 32.3031 14.4306 31.8701C14.4306 31.8701 13.3168 32.1177 12.6207 31.8856C12.6207 31.8856 15.0339 31.1895 15.3741 31.2823C15.3741 31.2823 13.9818 30.7254 13.1466 30.7873C13.1466 30.7873 14.5697 30.447 16.2249 30.7873L15.869 30.4006C15.869 30.4006 16.8127 30.153 17.7408 30.0912C18.6689 30.0294 18.205 29.9519 18.205 29.9519L18.3133 29.6426C18.3133 29.6426 17.7099 29.7199 17.215 29.6426C17.215 29.6426 18.7001 28.8072 19.1178 28.436C19.5354 28.0648 19.257 28.2349 19.257 28.2349C19.257 28.2349 18.4835 28.4978 18.2051 28.5443C18.2051 28.5443 18.9012 27.7399 19.1178 27.214C19.1178 27.214 18.4835 27.4615 17.9421 27.214C17.9421 27.214 18.5918 27.0283 18.9167 26.7035C19.2416 26.3786 19.7211 25.5704 19.7211 25.5704L19.1641 25.8141C19.1641 25.8141 19.6514 24.9787 20.0807 24.7699C20.0807 24.7699 19.3498 24.8279 19.1179 24.6539C19.1179 24.6539 19.8952 24.4683 20.1272 24.2827C20.3593 24.0971 20.8698 23.6098 21.3918 23.7954C21.3918 23.7954 22.1227 23.1225 21.8791 22.6816C21.8791 22.6816 22.3548 22.7164 22.5984 23.0065C22.8421 23.2966 23.2249 23.5402 23.2249 23.5402L21.2371 25.0948L19.7212 30.014L18.6381 31.0502Z" fill="#FFF5DC"/>
<path d="M38.1135 21.7693C38.686 22.6975 37.9742 22.7903 37.9742 22.7903C37.8659 21.9086 37.1235 22.017 37.1235 22.017L37.3245 22.6667C36.087 22.8215 36.1798 21.5838 36.1798 21.5838C35.9942 21.7386 35.6848 22.3726 35.6848 22.3726C35.6848 22.3726 32.3435 23.4864 30.085 20.1761C30.085 20.1761 30.0232 19.5882 30.2088 19.3097L28.8165 18.2578L27.0221 18.5054C27.0221 18.5054 26.3106 20.1141 27.1769 21.1042C28.0432 22.0941 29.0641 23.4864 28.8785 24.1361C28.7684 24.5213 28.441 24.678 27.9864 24.6453C27.674 24.6227 27.3017 24.5107 26.8986 24.3218C25.9085 23.8576 23.4954 22.8678 21.7628 23.6721C20.0303 24.4765 19.8423 25.8683 19.5044 26.9515C19.2051 27.9103 18.5412 30.3582 13.8111 32.5915C13.5851 32.6981 13.7001 33.0416 13.9425 32.9813C15.9929 32.4716 18.7883 31.6221 19.6512 30.6178L20.3473 30.6409L20.092 31.7083C20.092 31.7083 20.997 31.9867 21.1362 33.3094C21.1362 33.3094 19.5506 33.7425 20.4478 35.1038C20.4478 35.1038 20.5871 34.1137 21.6853 34.0674C21.6853 34.0674 21.9329 34.3923 22.4742 34.4385C22.4742 34.4385 22.7526 34.8873 22.6134 35.2585C22.6134 35.2585 23.7117 34.9181 22.7835 33.6032C22.7835 33.6032 23.82 33.3557 23.9592 34.6551C23.9592 34.6551 24.6245 32.5513 22.25 32.706C22.25 32.706 22.25 32.3348 21.6235 31.6619C21.6235 31.6619 21.4689 31.2828 21.6235 30.7569C21.6701 30.5986 21.7122 30.4344 21.7473 30.267C21.8763 30.3386 22.0747 30.4231 22.335 30.4322C22.335 30.4322 22.7217 31.0664 23.8665 30.9581C23.8665 30.9581 23.0311 30.5715 23.1084 29.8289C23.1858 29.0863 24.1604 28.6842 24.5781 28.978C24.5781 28.978 24.4698 28.0034 22.9539 28.6377C22.9539 28.6377 22.9539 27.9106 23.7583 27.8643C23.7583 27.8643 22.4589 26.8743 22.1649 28.7615L21.6272 28.8959C21.3645 28.1677 21.0317 26.4768 22.5052 25.861C24.0598 25.2113 25.6841 26.6732 28.5614 26.8124C28.5614 26.8124 28.283 28.5062 29.2111 28.9239C30.1392 29.3416 32.4131 29.7361 32.4131 29.7361C32.39 32.1802 34.1688 31.8552 34.1688 31.8552C33.3054 31.3379 33.3054 30.3508 33.8383 29.7742C34.5646 28.9885 35.824 29.7359 35.824 29.7359C35.8062 28.5463 34.1378 28.7304 34.1378 28.7304C34.4007 27.957 35.4371 27.7557 35.4371 27.7557C33.9986 27.2299 32.8075 28.7846 32.8075 28.7846L30.371 28.0885C30.371 28.0885 30.2783 27.6012 30.8583 26.9515C31.4384 26.3019 31.9257 25.2112 31.7633 24.0512C31.7633 24.0512 32.4363 23.5793 33.2715 24.0434C34.1069 24.5076 35.9012 23.4865 35.9012 23.4865C36.6747 24.4765 38.5155 24.2909 38.7629 23.0999C39.0108 21.9086 38.1135 21.7693 38.1135 21.7693Z" fill="#F5F5F5"/>
<path d="M35.5614 18.9228C35.1013 18.6543 34.2774 18.4277 33.999 19.0465C33.7206 19.6652 33.4112 20.284 32.4521 20.253C31.4931 20.2221 31.0599 21.0419 30.3947 20.81C30.3947 20.81 31.0135 20.6089 31.1373 20.3149C31.261 20.021 31.756 19.4796 31.756 19.4796L31.6942 18.9227C31.6942 18.9227 30.5495 18.9844 30.2092 19.3093C29.8688 19.6342 28.585 19.031 28.585 19.031L28.7397 17.6852C28.7397 17.6852 29.7297 16.1693 31.1065 16.2776C32.4833 16.3859 32.7153 16.03 33.3805 16.0765C34.0457 16.123 34.3859 16.8035 35.0974 16.9582C35.809 17.113 37.2321 16.819 37.4178 17.2522C37.6034 17.6853 37.0619 17.8555 36.9227 18.4587C36.7835 19.0619 36.4895 19.4643 35.5614 18.9228Z" fill="#F5F5F5"/>
<path d="M31.5396 18.5371C31.5396 18.5371 30.8744 18.9857 30.3176 18.8C29.7606 18.6144 29.2656 18.6763 28.6934 18.8618C28.6934 18.8618 29.7453 18.7381 30.1784 19.1402C30.6115 19.5424 31.7099 19.2795 31.7872 19.1093L31.5396 18.5371Z" fill="#FFF5DC"/>
<path d="M31.8796 19.573C31.8796 19.573 31.2299 20.0372 30.5803 19.9134C29.9306 19.7896 29.3428 20.0526 29.3428 20.0526C29.3428 20.0526 29.8223 19.5267 30.472 19.6195C31.1217 19.7123 31.3536 19.0781 31.3536 19.0781L31.7868 19.1091L31.8796 19.573Z" fill="#FFF5DC"/>
<path d="M32.4064 19.8676C32.8849 19.8676 33.2728 19.4797 33.2728 19.0012C33.2728 18.5227 32.8849 18.1348 32.4064 18.1348C31.9279 18.1348 31.54 18.5227 31.54 19.0012C31.54 19.4797 31.9279 19.8676 32.4064 19.8676Z" fill="#FFF5DC"/>
<path d="M31.8954 18.3514C31.8954 18.3514 31.5551 17.9183 30.7043 18.0885C29.8535 18.2586 29.6523 17.9492 29.6523 17.9492C29.6523 17.9492 30.0545 18.568 30.6888 18.4906C31.323 18.4133 31.5859 18.8465 31.5859 18.8465L31.8954 18.3514Z" fill="#FFF5DC"/>
<path d="M34.7576 17.2676C34.834 17.1623 34.9302 17.0618 35.0617 16.9853C35.1392 16.9402 35.219 16.9117 35.298 16.8882C35.3156 16.7708 35.2983 16.6441 35.2313 16.5291C35.0851 16.2781 34.7811 16.1828 34.5522 16.3162C34.3234 16.4495 34.2564 16.761 34.4026 17.012C34.4847 17.1528 34.6171 17.2377 34.7576 17.2676Z" fill="#FFF5DC"/>
<path d="M33.9977 18.2633C34.0413 18.1405 34.1051 18.0171 34.2095 17.9064C34.2711 17.8411 34.3395 17.7913 34.4086 17.7464C34.3922 17.6288 34.3398 17.5121 34.243 17.4207C34.0317 17.2214 33.7131 17.2159 33.5313 17.4085C33.3495 17.6011 33.3734 17.9189 33.5848 18.1182C33.7036 18.2305 33.8546 18.2744 33.9977 18.2633Z" fill="#FFF5DC"/>
</g>
<defs>
<clipPath id="clip0_3462_32356">
<rect width="50" height="50" fill="white" transform="translate(0.427734 0.160156)"/>
</clipPath>
</defs>
</svg>
