<svg width="51" height="51" viewBox="0 0 51 51" fill="none" xmlns="http://www.w3.org/2000/svg">
<g clip-path="url(#clip0_3462_32292)">
<path d="M0.720703 30.6191H50.7206V40.6765C50.7206 41.1526 50.3346 41.5387 49.8585 41.5387H1.58281C1.10674 41.5387 0.720703 41.1526 0.720703 40.6765V30.6191Z" fill="#73AF00"/>
<path d="M1.58281 8.78125H49.8586C50.3347 8.78125 50.7207 9.16728 50.7207 9.64336V19.7008H0.720703V9.64336C0.720703 9.16728 1.10674 8.78125 1.58281 8.78125Z" fill="#FF4B55"/>
<path d="M50.7206 19.6992H0.720703V30.6181H50.7206V19.6992Z" fill="#FFE15A"/>
<path d="M24.6074 20.2728C24.6074 20.2728 24.5852 20.3006 24.5436 20.3526C24.5089 20.4007 24.4569 20.4745 24.4001 20.5727C24.2882 20.768 24.1709 21.0706 24.1676 21.4313C24.1665 21.6072 24.2028 21.8208 24.2628 21.9906C24.3278 22.1781 24.4357 22.3574 24.5721 22.5176C24.7088 22.6792 24.8913 22.8038 25.0865 22.8958C25.1833 22.9449 25.2895 22.9731 25.3949 22.9991C25.4471 23.015 25.5028 23.0158 25.5564 23.0263C25.5834 23.0314 25.6113 23.0292 25.6385 23.0313L25.6797 23.0332L25.7004 23.0343L25.7106 23.0348L25.7158 23.0351L25.7183 23.0352C25.71 23.0355 25.7405 23.0348 25.7004 23.0359C25.7671 23.032 25.8482 23.0315 25.9033 23.0248C25.9513 23.0136 25.9918 23.0155 26.0468 22.9992C26.1523 22.9732 26.2585 22.945 26.3552 22.8959C26.5503 22.8039 26.733 22.6793 26.8696 22.5177C27.006 22.3575 27.1139 22.1782 27.179 21.9907C27.2413 21.8 27.2746 21.6175 27.2741 21.4305C27.2711 21.0714 27.1536 20.7677 27.0418 20.5726C26.9853 20.4748 26.9331 20.4005 26.8959 20.3504C26.8572 20.3011 26.8366 20.2746 26.8366 20.2746L26.8314 20.2681C26.7942 20.2206 26.8026 20.1521 26.8501 20.1149C26.8876 20.0856 26.9383 20.0848 26.9761 20.109C26.9761 20.109 27.008 20.1294 27.0676 20.1676C27.1241 20.2099 27.2116 20.2698 27.3058 20.3667C27.495 20.554 27.7405 20.8876 27.8291 21.3723C27.8729 21.6044 27.8777 21.885 27.8172 22.1609C27.7586 22.4396 27.6398 22.7278 27.4479 22.98C27.2594 23.2333 27.0062 23.4573 26.7051 23.6084C26.5566 23.6876 26.395 23.7451 26.2292 23.7851C26.1497 23.8085 26.0488 23.8181 25.9589 23.8323C25.8748 23.8416 25.8149 23.8418 25.7416 23.847L25.713 23.847L25.705 23.8467L25.689 23.8459L25.657 23.8442L25.5928 23.8408C25.5502 23.8374 25.5073 23.838 25.465 23.8306C25.3807 23.8158 25.295 23.8089 25.2128 23.7851C25.0469 23.7452 24.8852 23.6876 24.7368 23.6084C24.4357 23.4573 24.1825 23.2332 23.994 22.98C23.8022 22.7277 23.6834 22.4395 23.6247 22.1609C23.562 21.864 23.5698 21.6144 23.613 21.3715C23.7013 20.8882 23.947 20.5534 24.1361 20.3665C24.2299 20.27 24.3177 20.2096 24.3766 20.1652C24.4333 20.1297 24.4635 20.1106 24.4635 20.1106C24.5149 20.0784 24.5827 20.0938 24.6149 20.1452C24.6403 20.186 24.6357 20.2373 24.6074 20.2728Z" fill="#73AF00"/>
<path d="M25.5046 28.8574V30.2218C25.5046 30.3579 25.34 30.4261 25.2438 30.3299L25.1688 30.2548C25.1063 30.1924 25.0713 30.1078 25.0713 30.0196V28.8574H25.5046Z" fill="#FF4B55"/>
<path d="M24.8545 28.6406V29.631C24.8545 29.6904 24.8782 29.7476 24.9204 29.7896L25.0717 29.9405V28.6406H24.8545V28.6406Z" fill="#FFE15A"/>
<path d="M24.6377 28.6406V29.1721C24.6377 29.2479 24.6679 29.3207 24.7216 29.3743L24.8549 29.5072V28.6406H24.6377Z" fill="#73AF00"/>
<path d="M25.9375 28.8574V30.2218C25.9375 30.3579 26.1021 30.4261 26.1982 30.3299L26.2733 30.2548C26.3357 30.1924 26.3708 30.1078 26.3708 30.0196V28.8574H25.9375Z" fill="#FF4B55"/>
<path d="M26.5882 28.6406V29.631C26.5882 29.6904 26.5646 29.7476 26.5224 29.7896L26.3711 29.9405V28.6406H26.5882V28.6406Z" fill="#FFE15A"/>
<path d="M26.8051 28.6406V29.1721C26.8051 29.2479 26.7748 29.3207 26.7211 29.3743L26.5879 29.5072V28.6406H26.8051Z" fill="#73AF00"/>
<path d="M26.8044 24.741L29.1875 23.0078V26.5721C29.1875 27.5949 28.3583 28.424 27.3355 28.424C26.9885 28.424 26.6483 28.3265 26.354 28.1426L25.0713 27.3408V24.7109L26.8044 24.741Z" fill="#FF4B55"/>
<path d="M28.321 23.6387V26.1394C28.321 27.1622 27.4918 27.9913 26.469 27.9913C26.3152 27.9913 26.1637 27.9691 26.0159 27.9317L25.0713 27.3413V24.7114L26.8045 24.7415L28.321 23.6387Z" fill="#FFE15A"/>
<path d="M27.6711 24.1113V25.7257C27.6711 26.7485 26.8419 27.5776 25.8191 27.5776C25.6653 27.5776 25.5137 27.5555 25.366 27.5181L25.0713 27.3339V24.7115L26.8045 24.7416L27.6711 24.1113Z" fill="#73AF00"/>
<path d="M29.3165 22.6191L30.2698 22.1426L29.5765 23.0091H29.1865L29.3165 22.6191Z" fill="#F5F5F5"/>
<path d="M28.1042 25.825L30.4873 24.0918V27.656C30.4873 28.6789 29.6581 29.508 28.6353 29.508C28.2883 29.508 27.9481 29.4104 27.6538 29.2266L26.3711 28.4248V25.795L28.1042 25.825Z" fill="#FF4B55"/>
<path d="M28.9709 25.1953V26.8097C28.9709 27.8325 28.1417 28.6616 27.1189 28.6616C26.9651 28.6616 26.8136 28.6394 26.6658 28.602L26.3711 28.4179V25.7955L28.1043 25.8256L28.9709 25.1953Z" fill="#73AF00"/>
<path d="M30.6173 23.7013L31.5706 23.2246L30.8772 24.0912H30.4873L30.6173 23.7013Z" fill="#F5F5F5"/>
<path d="M27.4538 25.3914L29.8369 23.6582V27.2225C29.8369 28.2453 29.0077 29.0744 27.985 29.0744C27.6379 29.0744 27.2978 28.9768 27.0034 28.793L25.7207 27.9912V25.3613L27.4538 25.3914Z" fill="#FF4B55"/>
<path d="M28.9705 24.2891V26.7897C28.9705 27.8126 28.1413 28.6417 27.1186 28.6417C26.9647 28.6417 26.8132 28.6195 26.6654 28.5821L25.7207 27.9918V25.3619L27.4539 25.392L28.9705 24.2891Z" fill="#FFE15A"/>
<path d="M28.3205 24.7617V26.3761C28.3205 27.3989 27.4913 28.228 26.4686 28.228C26.3147 28.228 26.1632 28.2058 26.0154 28.1684L25.7207 27.9844V25.362L27.4539 25.3921L28.3205 24.7617Z" fill="#73AF00"/>
<path d="M29.9669 23.2677L30.9201 22.791L30.2268 23.6576H29.8369L29.9669 23.2677Z" fill="#F5F5F5"/>
<path d="M24.638 24.741L22.2549 23.0078V26.5721C22.2549 27.5949 23.0841 28.424 24.1068 28.424C24.4539 28.424 24.794 28.3265 25.0884 28.1426L26.3711 27.3408V24.7109L24.638 24.741Z" fill="#FF4B55"/>
<path d="M23.1211 23.6387V26.1394C23.1211 27.1622 23.9503 27.9913 24.973 27.9913C25.1269 27.9913 25.2784 27.9691 25.4262 27.9317L26.3708 27.3413V24.7114L24.6376 24.7415L23.1211 23.6387Z" fill="#FFE15A"/>
<path d="M23.7715 24.1113V25.7257C23.7715 26.7485 24.6007 27.5776 25.6234 27.5776C25.7772 27.5776 25.9289 27.5555 26.0766 27.5181L26.3713 27.3339V24.7115L24.6381 24.7416L23.7715 24.1113Z" fill="#73AF00"/>
<path d="M22.1241 22.6191L21.1709 22.1426L21.8643 23.0091H22.2541L22.1241 22.6191Z" fill="#F5F5F5"/>
<path d="M23.3372 25.825L20.9541 24.0918V27.656C20.9541 28.6789 21.7833 29.508 22.8061 29.508C23.1531 29.508 23.4933 29.4104 23.7876 29.2266L25.0703 28.4248V25.795L23.3372 25.825Z" fill="#FF4B55"/>
<path d="M22.4707 25.1953V26.8097C22.4707 27.8325 23.2999 28.6616 24.3227 28.6616C24.4765 28.6616 24.628 28.6394 24.7758 28.602L25.0705 28.4179V25.7955L23.3373 25.8256L22.4707 25.1953Z" fill="#73AF00"/>
<path d="M20.8243 23.7013L19.8711 23.2246L20.5645 24.0912H20.9543L20.8243 23.7013Z" fill="#F5F5F5"/>
<path d="M23.9876 25.3914L21.6045 23.6582V27.2225C21.6045 28.2453 22.4337 29.0744 23.4564 29.0744C23.8035 29.0744 24.1436 28.9768 24.438 28.793L25.7207 27.9912V25.3613L23.9876 25.3914Z" fill="#FF4B55"/>
<path d="M22.4707 24.2891V26.7897C22.4707 27.8126 23.2999 28.6417 24.3227 28.6417C24.4765 28.6417 24.628 28.6195 24.7758 28.5821L25.7204 27.9917V25.3618L23.9872 25.3919L22.4707 24.2891Z" fill="#FFE15A"/>
<path d="M23.1211 24.7617V26.3761C23.1211 27.3989 23.9503 28.228 24.973 28.228C25.1269 28.228 25.2784 28.2058 25.4262 28.1684L25.7209 27.9843V25.3619L23.9877 25.392L23.1211 24.7617Z" fill="#73AF00"/>
<path d="M22.8832 28.6132L22.5976 28.3275C22.4245 28.1544 22.4291 27.8721 22.608 27.7047L27.3362 23.2617L27.949 23.8745L23.506 28.6027C23.3387 28.7817 23.0565 28.7865 22.8832 28.6132Z" fill="#FFBE5A"/>
<path d="M22.741 28.6871C22.8606 28.6871 22.9576 28.5901 22.9576 28.4705C22.9576 28.3509 22.8606 28.2539 22.741 28.2539C22.6214 28.2539 22.5244 28.3509 22.5244 28.4705C22.5244 28.5901 22.6214 28.6871 22.741 28.6871Z" fill="#FFBE5A"/>
<path d="M27.7969 23.4147C27.6277 23.2455 27.422 23.177 27.3374 23.2616C27.2528 23.3461 27.3214 23.5519 27.4906 23.721C27.6597 23.8902 27.8654 23.9588 27.95 23.8742C28.0346 23.7896 27.966 23.5839 27.7969 23.4147Z" fill="#F5F5F5"/>
<path d="M28.5579 28.6132L28.8435 28.3275C29.0167 28.1544 29.0121 27.8721 28.8332 27.7047L24.105 23.2617L23.4922 23.8745L27.9351 28.6027C28.1025 28.7817 28.3848 28.7865 28.5579 28.6132Z" fill="#FFBE5A"/>
<path d="M28.701 28.6871C28.8206 28.6871 28.9176 28.5901 28.9176 28.4705C28.9176 28.3509 28.8206 28.2539 28.701 28.2539C28.5814 28.2539 28.4844 28.3509 28.4844 28.4705C28.4844 28.5901 28.5814 28.6871 28.701 28.6871Z" fill="#FFBE5A"/>
<path d="M23.9525 23.7207C24.1217 23.5515 24.1902 23.3458 24.1056 23.2612C24.0211 23.1766 23.8153 23.2452 23.6462 23.4144C23.477 23.5836 23.4084 23.7893 23.493 23.8739C23.5776 23.9584 23.7833 23.8899 23.9525 23.7207Z" fill="#F5F5F5"/>
<path d="M25.7203 28.4246C26.7783 28.4246 27.6359 27.4061 27.6359 26.1498C27.6359 24.8935 26.7783 23.875 25.7203 23.875C24.6623 23.875 23.8047 24.8935 23.8047 26.1498C23.8047 27.4061 24.6623 28.4246 25.7203 28.4246Z" fill="#FFBE5A"/>
<path d="M25.7208 24.0918L25.8226 24.5332L26.0557 24.1448L26.0159 24.596L26.3576 24.2987L26.1805 24.7155L26.5973 24.5384L26.2999 24.8801L26.7511 24.8403L26.3628 25.0734L26.8041 25.1751L26.3628 25.2768L26.7511 25.5099L26.2999 25.4702L26.5973 25.8117L26.1805 25.6347L26.3576 26.0515L26.0159 25.7542L26.0557 26.2053L25.8226 25.817L25.7208 26.2583L25.6192 25.817L25.3861 26.2053L25.4258 25.7542L25.0842 26.0515L25.2612 25.6347L24.8445 25.8117L25.1418 25.4702L24.6907 25.5099L25.0789 25.2768L24.6377 25.1751L25.0789 25.0734L24.6907 24.8403L25.1418 24.8801L24.8445 24.5384L25.2612 24.7155L25.0842 24.2987L25.4258 24.596L25.3861 24.1448L25.6192 24.5332L25.7208 24.0918Z" fill="#FF4B55"/>
<path d="M28.1174 26.1088C28.1174 26.1088 27.3997 26.2984 26.9326 25.9057C26.4135 25.4693 26.0242 25.2632 25.8574 25.1859C25.8003 25.1594 25.7364 25.1594 25.6792 25.1858C25.5597 25.241 25.3397 25.3553 25.1452 25.5266C24.8608 25.7772 23.9875 26.2713 23.8115 26.2713V27.3484L25.1858 28.5394L26.8107 28.4919L28.1174 26.1088Z" fill="#73AF00"/>
<path d="M25.721 28.9668C24.3472 28.9668 23.2295 27.7033 23.2295 26.1504C23.2295 24.5975 24.3471 23.334 25.721 23.334C27.0949 23.334 28.2125 24.5975 28.2125 26.1504C28.2125 27.7033 27.0948 28.9668 25.721 28.9668ZM25.721 23.9839C24.7056 23.9839 23.8795 24.9559 23.8795 26.1504C23.8795 27.3449 24.7056 28.3169 25.721 28.3169C26.7364 28.3169 27.5625 27.3449 27.5625 26.1504C27.5625 24.9559 26.7364 23.9839 25.721 23.9839Z" fill="#3CC8FF"/>
<path d="M25.3491 28.3792L25.3969 28.5222L25.5477 28.5234C25.5673 28.5235 25.5753 28.5485 25.5597 28.56L25.4384 28.6497L25.4839 28.7935C25.4898 28.8122 25.4685 28.8276 25.4526 28.8162L25.3299 28.7285L25.2071 28.8162C25.1913 28.8275 25.17 28.8121 25.1759 28.7935L25.2214 28.6497L25.1001 28.56C25.0844 28.5484 25.0925 28.5235 25.112 28.5234L25.2629 28.5222L25.3106 28.3792C25.3168 28.3606 25.343 28.3606 25.3491 28.3792Z" fill="#FFBE5A"/>
<path d="M24.6714 28.0862L24.7191 28.2292L24.87 28.2304C24.8895 28.2305 24.8976 28.2555 24.8819 28.267L24.7606 28.3567L24.8061 28.5005C24.8121 28.5192 24.7908 28.5346 24.7749 28.5232L24.6521 28.4355L24.5294 28.5232C24.5136 28.5345 24.4923 28.5191 24.4981 28.5005L24.5436 28.3567L24.4224 28.267C24.4066 28.2554 24.4147 28.2305 24.4343 28.2304L24.5852 28.2292L24.6329 28.0862C24.6391 28.0676 24.6652 28.0676 24.6714 28.0862Z" fill="#FFBE5A"/>
<path d="M24.1274 27.592L24.1752 27.7351L24.3261 27.7363C24.3456 27.7364 24.3536 27.7614 24.338 27.7729L24.2167 27.8625L24.2622 28.0064C24.2682 28.025 24.2469 28.0405 24.231 28.0291L24.1082 27.9414L23.9854 28.0291C23.9696 28.0404 23.9483 28.025 23.9542 28.0064L23.9997 27.8625L23.8784 27.7729C23.8627 27.7613 23.8708 27.7364 23.8903 27.7363L24.0412 27.7351L24.089 27.592C24.0951 27.5735 24.1213 27.5735 24.1274 27.592Z" fill="#FFBE5A"/>
<path d="M23.7573 26.9358L23.8051 27.0789L23.956 27.08C23.9755 27.0801 23.9835 27.1051 23.9679 27.1167L23.8466 27.2063L23.8921 27.3501C23.898 27.3688 23.8768 27.3842 23.8608 27.3728L23.7381 27.2851L23.6153 27.3728C23.5995 27.3841 23.5782 27.3687 23.5841 27.3501L23.6296 27.2063L23.5083 27.1167C23.4926 27.105 23.5007 27.0801 23.5202 27.08L23.6711 27.0789L23.7188 26.9358C23.725 26.9172 23.7512 26.9172 23.7573 26.9358Z" fill="#FFBE5A"/>
<path d="M23.5923 26.1702L23.64 26.3132L23.7909 26.3144C23.8104 26.3145 23.8185 26.3395 23.8028 26.351L23.6815 26.4407L23.727 26.5845C23.733 26.6032 23.7117 26.6186 23.6958 26.6072L23.573 26.5195L23.4503 26.6072C23.4345 26.6185 23.4132 26.6031 23.419 26.5845L23.4645 26.4407L23.3433 26.351C23.3275 26.3394 23.3356 26.3145 23.3552 26.3144L23.506 26.3132L23.5538 26.1702C23.5599 26.1516 23.5861 26.1516 23.5923 26.1702Z" fill="#FFBE5A"/>
<path d="M26.0948 28.3792L26.0471 28.5222L25.8962 28.5234C25.8767 28.5235 25.8685 28.5485 25.8843 28.56L26.0056 28.6497L25.9601 28.7935C25.9541 28.8122 25.9754 28.8276 25.9913 28.8162L26.1141 28.7285L26.2368 28.8162C26.2526 28.8275 26.2739 28.8121 26.2681 28.7935L26.2226 28.6497L26.3438 28.56C26.3596 28.5484 26.3515 28.5235 26.3319 28.5234L26.181 28.5222L26.1333 28.3792C26.1271 28.3606 26.101 28.3606 26.0948 28.3792Z" fill="#FFBE5A"/>
<path d="M26.7715 28.0862L26.7238 28.2292L26.5729 28.2304C26.5534 28.2305 26.5454 28.2555 26.561 28.267L26.6823 28.3567L26.6368 28.5005C26.6308 28.5192 26.6521 28.5346 26.668 28.5232L26.7908 28.4355L26.9135 28.5232C26.9293 28.5345 26.9506 28.5191 26.9448 28.5005L26.8993 28.3567L27.0206 28.267C27.0363 28.2554 27.0282 28.2305 27.0086 28.2304L26.8578 28.2292L26.81 28.0862C26.8039 28.0676 26.7777 28.0676 26.7715 28.0862Z" fill="#FFBE5A"/>
<path d="M27.3155 27.592L27.2677 27.7351L27.1168 27.7363C27.0973 27.7364 27.0893 27.7614 27.1049 27.7729L27.2262 27.8625L27.1807 28.0064C27.1748 28.025 27.196 28.0405 27.212 28.0291L27.3347 27.9414L27.4575 28.0291C27.4733 28.0404 27.4946 28.025 27.4887 28.0064L27.4432 27.8625L27.5645 27.7729C27.5802 27.7613 27.5721 27.7364 27.5526 27.7363L27.4017 27.7351L27.354 27.592C27.3479 27.5735 27.3216 27.5735 27.3155 27.592Z" fill="#FFBE5A"/>
<path d="M27.6866 26.9358L27.6388 27.0789L27.4879 27.08C27.4684 27.0801 27.4604 27.1051 27.476 27.1167L27.5973 27.2063L27.5518 27.3501C27.5459 27.3688 27.5671 27.3842 27.5831 27.3728L27.7058 27.2851L27.8286 27.3728C27.8444 27.3841 27.8657 27.3687 27.8598 27.3501L27.8143 27.2063L27.9356 27.1167C27.9513 27.105 27.9432 27.0801 27.9237 27.08L27.7728 27.0789L27.725 26.9358C27.7189 26.9172 27.6927 26.9172 27.6866 26.9358Z" fill="#FFBE5A"/>
<path d="M27.8497 26.1702L27.8019 26.3132L27.651 26.3144C27.6315 26.3145 27.6235 26.3395 27.6391 26.351L27.7604 26.4407L27.7149 26.5845C27.7089 26.6032 27.7302 26.6186 27.7461 26.6072L27.8689 26.5195L27.9916 26.6072C28.0075 26.6185 28.0288 26.6031 28.0229 26.5845L27.9774 26.4407L28.0987 26.351C28.1144 26.3394 28.1063 26.3145 28.0868 26.3144L27.9359 26.3132L27.8881 26.1702C27.8821 26.1516 27.8559 26.1516 27.8497 26.1702Z" fill="#FFBE5A"/>
<path d="M24.7791 27.5389L24.8511 27.8832H24.8821V27.6482C24.8821 27.6482 24.9333 27.8121 25.0058 27.8832H25.0644C25.0363 27.8472 24.9859 27.7725 24.9859 27.695C24.9859 27.5885 25.0707 27.5739 25.0707 27.46H25.1434V27.8831H25.1858L25.2646 27.5061C25.2646 27.5061 25.3294 27.7419 25.4515 27.8831H25.5058C25.4666 27.8256 25.3853 27.6771 25.4002 27.4527C25.4002 27.4527 25.5165 27.3945 25.5165 27.2371V27.0131C25.5165 26.9712 25.5506 26.9371 25.5925 26.9371H25.6447C25.6447 26.9371 25.567 26.7863 25.4839 26.7645V26.6699L25.4213 26.7645C25.3615 26.7774 25.3263 26.8327 25.3263 26.8919V27.0283C25.3263 27.0702 25.2923 27.1043 25.2503 27.1043H24.9787C24.8983 27.1043 24.7695 27.1847 24.7695 27.2877C24.7695 27.3907 24.8468 27.4583 24.8468 27.4583L24.7791 27.5389Z" fill="#F5F5F5"/>
<path d="M25.9958 27.1953H25.9709C25.774 27.2061 25.6641 27.3355 25.6641 27.3355L25.8638 27.5353V27.911H26.1027V27.5353L26.3024 27.3355C26.3025 27.3354 26.1927 27.2061 25.9958 27.1953Z" fill="#FFBE5A"/>
<path d="M26.4893 26.5801H26.417V27.9115H26.4893V26.5801Z" fill="#F5F5F5"/>
<path d="M26.4545 26.5701L26.0651 27.0407C26.0651 27.0407 26.0144 26.8139 26.2412 26.5905L25.7402 26.6819C25.7402 26.6819 25.8926 26.3976 26.292 26.428L25.8824 26.0861C25.8824 26.0861 26.2345 26.0659 26.4139 26.3299C26.4139 26.3299 26.5153 26.0253 26.7997 26.0117L26.565 26.3683C26.565 26.3683 26.7997 26.2486 27.1247 26.3536L26.6406 26.4823C26.6406 26.4823 26.9114 26.5094 27.0231 26.9055L26.6034 26.6178C26.6034 26.6178 26.7321 26.7701 26.6847 27.068L26.4545 26.5701Z" fill="#F5F5F5"/>
<path d="M21.4748 23.2677L20.5215 22.791L21.2148 23.6576H21.6048L21.4748 23.2677Z" fill="#F5F5F5"/>
<path d="M26.3981 22.7166L28.9701 21.9252L27.6048 21.4133C27.3616 21.322 27.1039 21.2754 26.8441 21.2754H26.587C26.4674 21.2754 26.3704 21.3724 26.3704 21.492V21.7086H25.7203H25.0704V21.492C25.0704 21.3724 24.9734 21.2754 24.8538 21.2754H24.5967C24.3369 21.2754 24.0792 21.3222 23.836 21.4133L22.4707 21.9252L25.0427 22.7166C25.1706 22.756 25.2325 22.9008 25.1727 23.0206L24.8538 23.6584H26.587L26.2681 23.0206C26.2082 22.9009 26.2701 22.756 26.3981 22.7166Z" fill="#825546"/>
<path d="M25.7203 22.3586C25.9596 22.3586 26.1535 22.1646 26.1535 21.9254C26.1535 21.6861 25.9596 21.4922 25.7203 21.4922C25.4811 21.4922 25.2871 21.6861 25.2871 21.9254C25.2871 22.1646 25.4811 22.3586 25.7203 22.3586Z" fill="#F5F5F5"/>
<path d="M25.9377 21.9257C25.9377 22.0453 25.8407 22.1423 25.7211 22.1423H24.8545L25.2243 21.7725C25.2649 21.7318 25.32 21.709 25.3775 21.709H25.721C25.8407 21.7091 25.9377 21.8061 25.9377 21.9257Z" fill="#FFBE5A"/>
</g>
<defs>
<clipPath id="clip0_3462_32292">
<rect width="50" height="50" fill="white" transform="translate(0.720703 0.160156)"/>
</clipPath>
</defs>
</svg>
