<svg width="51" height="51" viewBox="0 0 51 51" fill="none" xmlns="http://www.w3.org/2000/svg">
<g clip-path="url(#clip0_3462_32286)">
<path d="M49.2853 8.78125H1.00957C0.533495 8.78125 0.147461 9.16728 0.147461 9.64336V40.6777C0.147461 41.1538 0.533495 41.5398 1.00957 41.5398H49.2854C49.7614 41.5398 50.1475 41.1538 50.1475 40.6777V9.64336C50.1474 9.16728 49.7613 8.78125 49.2853 8.78125Z" fill="#41479B"/>
<path d="M0.465429 41.3315L49.8293 8.98965C49.6799 8.86533 49.4948 8.78125 49.2853 8.78125H1.00957C0.533495 8.78125 0.147461 9.16728 0.147461 9.64336V40.6777C0.147461 40.9442 0.275488 41.1734 0.465429 41.3315Z" fill="#F5F5F5"/>
<path d="M22.0985 8.78125H1.00957C0.533495 8.78125 0.147461 9.16728 0.147461 9.64336V23.1631L22.0985 8.78125Z" fill="#FFE15A"/>
<path d="M19.9014 22.5372C19.5102 19.9263 17.4513 17.8673 14.8403 17.4761L13.9412 15.6777L13.0421 17.4761C10.4311 17.8673 8.37226 19.9261 7.98095 22.5372L6.18262 23.4363L7.98095 24.3354C8.37216 26.9464 10.431 29.0053 13.0421 29.3966L13.9412 31.1949L14.8403 29.3966C17.4512 29.0053 19.5101 26.9466 19.9014 24.3354L21.6998 23.4363L19.9014 22.5372ZM13.9412 28.6087C11.0846 28.6087 8.76884 26.2929 8.76884 23.4363C8.76884 20.5797 11.0846 18.264 13.9412 18.264C16.7978 18.264 19.1135 20.5797 19.1135 23.4363C19.1135 26.2929 16.7978 28.6087 13.9412 28.6087Z" fill="#464655"/>
<path d="M13.9411 20.1211L14.8693 21.8283L16.8119 21.7785L15.7975 23.4359L16.8119 25.0934L14.8693 25.0435L13.9411 26.7509L13.013 25.0435L11.0703 25.0934L12.0848 23.4359L11.0703 21.7785L13.013 21.8283L13.9411 20.1211Z" fill="#FF4B55"/>
</g>
<defs>
<clipPath id="clip0_3462_32286">
<rect width="50" height="50" fill="white" transform="translate(0.148438 0.160156)"/>
</clipPath>
</defs>
</svg>
