<svg width="51" height="51" viewBox="0 0 51 51" fill="none" xmlns="http://www.w3.org/2000/svg">
<g clip-path="url(#clip0_3462_32272)">
<path d="M49.5792 41.5398H1.30351C0.827441 41.5398 0.441406 41.1538 0.441406 40.6777V9.64336C0.441406 9.16728 0.827441 8.78125 1.30351 8.78125H49.5793C50.0554 8.78125 50.4414 9.16728 50.4414 9.64336V40.6777C50.4413 41.1538 50.0553 41.5398 49.5792 41.5398Z" fill="#41479B"/>
<path d="M43.5446 8.78125V41.5398L10.7861 8.78125H43.5446Z" fill="#FFE15A"/>
<path d="M20.6912 20.9791L21.1881 22.4687L22.7583 22.4809C22.8799 22.4819 22.9303 22.6371 22.8325 22.7093L21.5692 23.6423L22.0429 25.1394C22.0797 25.2553 21.9475 25.3513 21.8485 25.2806L20.571 24.3675L19.2934 25.2806C19.1945 25.3513 19.0624 25.2554 19.099 25.1394L19.5727 23.6423L18.3095 22.7093C18.2116 22.6371 18.262 22.4819 18.3837 22.4809L19.9539 22.4687L20.4508 20.9791C20.4894 20.8637 20.6526 20.8637 20.6912 20.9791Z" fill="#F5F5F5"/>
<path d="M17.0994 17.3874L17.5963 18.877L19.1665 18.8892C19.2882 18.8902 19.3385 19.0455 19.2407 19.1176L17.9774 20.0505L18.4511 21.5477C18.4879 21.6636 18.3557 21.7596 18.2567 21.6889L16.9792 20.7757L15.7016 21.6889C15.6027 21.7597 15.4706 21.6637 15.5072 21.5477L15.9809 20.0505L14.7177 19.1176C14.6198 19.0454 14.6702 18.8902 14.7919 18.8892L16.3621 18.877L16.859 17.3874C16.8976 17.2719 17.0609 17.2719 17.0994 17.3874Z" fill="#F5F5F5"/>
<path d="M13.5076 13.7936L14.0045 15.2832L15.5747 15.2955C15.6964 15.2964 15.7467 15.4516 15.6489 15.5239L14.3856 16.4568L14.8593 17.9539C14.8961 18.0699 14.7639 18.1659 14.6649 18.0952L13.3874 17.182L12.1098 18.0952C12.0109 18.166 11.8788 18.07 11.9154 17.9539L12.3891 16.4568L11.1259 15.5239C11.028 15.4516 11.0784 15.2964 11.2001 15.2955L12.7703 15.2832L13.2672 13.7936C13.3058 13.6782 13.4691 13.6782 13.5076 13.7936Z" fill="#F5F5F5"/>
<path d="M9.9157 10.2018L10.4126 11.6915L11.9828 11.7037C12.1045 11.7046 12.1549 11.8598 12.057 11.9321L10.7938 12.8649L11.2676 14.3621C11.3043 14.478 11.1721 14.574 11.0731 14.5033L9.79558 13.5901L8.51804 14.5033C8.41912 14.574 8.28699 14.4781 8.32361 14.3621L8.79734 12.8649L7.53406 11.9321C7.43621 11.8598 7.4866 11.7046 7.60828 11.7037L9.17849 11.6915L9.67537 10.2018C9.71394 10.0864 9.87712 10.0864 9.9157 10.2018Z" fill="#F5F5F5"/>
<path d="M35.0593 35.3463L35.5561 36.836L37.1263 36.8482C37.248 36.8492 37.2984 37.0043 37.2006 37.0766L35.9373 38.0095L36.411 39.5067C36.4477 39.6226 36.3156 39.7187 36.2167 39.6479L34.9391 38.7347L33.6616 39.6479C33.5627 39.7187 33.4305 39.6227 33.4672 39.5067L33.9409 38.0095L32.6776 37.0766C32.5798 37.0043 32.6302 36.8492 32.7518 36.8482L34.322 36.836L34.8189 35.3463C34.8575 35.2309 35.0208 35.2309 35.0593 35.3463Z" fill="#F5F5F5"/>
<path d="M31.4675 31.7545L31.9643 33.2442L33.5345 33.2564C33.6562 33.2574 33.7066 33.4125 33.6088 33.4848L32.3455 34.4177L32.8192 35.9149C32.8559 36.0308 32.7238 36.1269 32.6249 36.0561L31.3473 35.1429L30.0698 36.0561C29.9709 36.1268 29.8387 36.0309 29.8754 35.9149L30.3491 34.4177L29.0858 33.4848C28.988 33.4125 29.0384 33.2574 29.16 33.2564L30.7302 33.2442L31.2271 31.7545C31.2657 31.6391 31.429 31.6391 31.4675 31.7545Z" fill="#F5F5F5"/>
<path d="M27.8758 28.1627L28.3726 29.6523L29.9428 29.6645C30.0645 29.6655 30.1149 29.8207 30.0171 29.8929L28.7538 30.8258L29.2275 32.323C29.2642 32.4389 29.1321 32.535 29.0331 32.4641L27.7555 31.5509L26.478 32.4641C26.3791 32.5348 26.247 32.4389 26.2836 32.323L26.7573 30.8258L25.494 29.8929C25.3962 29.8207 25.4466 29.6655 25.5682 29.6645L27.1385 29.6523L27.6353 28.1627C27.6741 28.0473 27.8373 28.0473 27.8758 28.1627Z" fill="#F5F5F5"/>
<path d="M24.284 24.5709L24.7808 26.0606L26.351 26.0728C26.4727 26.0738 26.5231 26.229 26.4253 26.3012L25.162 27.2341L25.6357 28.7313C25.6724 28.8472 25.5403 28.9433 25.4413 28.8725L24.1637 27.9593L22.8862 28.8725C22.7873 28.9432 22.6552 28.8473 22.6918 28.7313L23.1655 27.2341L21.9022 26.3012C21.8044 26.229 21.8548 26.0738 21.9764 26.0728L23.5467 26.0606L24.0435 24.5709C24.0822 24.4555 24.2455 24.4555 24.284 24.5709Z" fill="#F5F5F5"/>
<path d="M4.53809 8.78125L5.20508 9.27383L4.73135 10.771C4.69473 10.8869 4.82676 10.9829 4.92578 10.9123L6.20322 9.99912L7.48076 10.9123C7.57968 10.983 7.71181 10.8871 7.67509 10.771L7.20146 9.27383L7.86874 8.78125H4.53809Z" fill="#F5F5F5"/>
<path d="M40.7178 40.44L39.1476 40.4278L38.6509 38.9381C38.6124 38.8227 38.4491 38.8227 38.4106 38.9381L37.9138 40.4278L36.3436 40.44C36.222 40.441 36.1716 40.5962 36.2694 40.6684L37.4494 41.5396H39.6126L40.7925 40.6684C40.8899 40.5961 40.8395 40.4409 40.7178 40.44Z" fill="#F5F5F5"/>
</g>
<defs>
<clipPath id="clip0_3462_32272">
<rect width="50" height="50" fill="white" transform="translate(0.441406 0.160156)"/>
</clipPath>
</defs>
</svg>
