<svg width="51" height="51" viewBox="0 0 51 51" fill="none" xmlns="http://www.w3.org/2000/svg">
<g clip-path="url(#clip0_3462_32249)">
<path d="M49.3009 41.5399H1.02519C0.54912 41.5399 0.163086 41.1539 0.163086 40.6778V9.64336C0.163086 9.16728 0.54912 8.78125 1.02519 8.78125H49.301C49.7771 8.78125 50.1631 9.16728 50.1631 9.64336V40.6778C50.163 41.1539 49.777 41.5399 49.3009 41.5399Z" fill="#73AF00"/>
<path d="M24.7142 13.364L6.54475 24.4236C5.9929 24.7595 5.9929 25.5604 6.54475 25.8964L24.7142 36.9561C24.9895 37.1237 25.3353 37.1237 25.6107 36.9561L43.7803 25.8965C44.3322 25.5606 44.3322 24.7596 43.7803 24.4237L25.6107 13.364C25.3354 13.1964 24.9895 13.1964 24.7142 13.364Z" fill="#FFE15A"/>
<path d="M25.1631 32.0566C28.9719 32.0566 32.0595 28.969 32.0595 25.1601C32.0595 21.3513 28.9719 18.2637 25.1631 18.2637C21.3543 18.2637 18.2666 21.3513 18.2666 25.1601C18.2666 28.969 21.3543 32.0566 25.1631 32.0566Z" fill="#41479B"/>
<path d="M19.2446 21.632C18.9192 22.1767 18.668 22.7687 18.502 23.3973C22.3251 23.1096 27.9806 24.1791 31.5802 27.672C31.8152 27.0723 31.9703 26.4334 32.0285 25.7656C28.3116 22.6373 23.173 21.5249 19.2446 21.632Z" fill="#F5F5F5"/>
<path d="M25.448 27.5144L25.6316 28.065L26.212 28.0695C26.2871 28.0701 26.3182 28.166 26.2579 28.2106L25.791 28.5554L25.9661 29.1087C25.9887 29.1804 25.9071 29.2397 25.8461 29.1959L25.3739 28.8584L24.9017 29.1959C24.8406 29.2397 24.759 29.1804 24.7817 29.1087L24.9568 28.5554L24.4899 28.2106C24.4295 28.166 24.4606 28.0701 24.5357 28.0695L25.1161 28.065L25.2997 27.5144C25.3234 27.4431 25.4242 27.4431 25.448 27.5144Z" fill="#F5F5F5"/>
<path d="M27.7036 28.9371L27.7827 29.174L28.0325 29.176C28.0648 29.1762 28.0783 29.2175 28.0522 29.2367L27.8512 29.3851L27.9265 29.6233C27.9363 29.6541 27.9012 29.6796 27.8748 29.6608L27.6716 29.5156L27.4684 29.6608C27.4421 29.6796 27.407 29.6541 27.4167 29.6233L27.492 29.3851L27.2911 29.2367C27.2651 29.2176 27.2785 29.1763 27.3108 29.176L27.5606 29.174L27.6396 28.9371C27.6499 28.9064 27.6934 28.9064 27.7036 28.9371Z" fill="#F5F5F5"/>
<path d="M24.4732 26.4683L24.5522 26.7052L24.802 26.7072C24.8343 26.7074 24.8478 26.7487 24.8217 26.7679L24.6207 26.9163L24.696 27.1544C24.7058 27.1853 24.6707 27.2108 24.6444 27.1919L24.4411 27.0467L24.2379 27.1919C24.2117 27.2108 24.1765 27.1853 24.1863 27.1544L24.2616 26.9163L24.0606 26.7679C24.0346 26.7488 24.048 26.7075 24.0803 26.7072L24.3301 26.7052L24.4091 26.4683C24.4195 26.4376 24.4629 26.4376 24.4732 26.4683Z" fill="#F5F5F5"/>
<path d="M20.0972 26.1792L20.1762 26.4162L20.426 26.4181C20.4583 26.4183 20.4718 26.4596 20.4457 26.4789L20.2448 26.6272L20.3201 26.8654C20.3298 26.8962 20.2948 26.9217 20.2684 26.9029L20.0652 26.7577L19.8619 26.9029C19.8357 26.9217 19.8005 26.8962 19.8103 26.8654L19.8856 26.6272L19.6846 26.4789C19.6586 26.4597 19.672 26.4184 19.7043 26.4181L19.9541 26.4162L20.0331 26.1792C20.0436 26.1486 20.0869 26.1486 20.0972 26.1792Z" fill="#F5F5F5"/>
<path d="M23.7574 28.855L23.8364 29.0919L24.0862 29.0938C24.1185 29.094 24.132 29.1353 24.1059 29.1546L23.9049 29.3029L23.9802 29.5411C23.99 29.5719 23.9549 29.5974 23.9286 29.5786L23.7253 29.4334L23.5221 29.5786C23.4958 29.5974 23.4607 29.5719 23.4704 29.5411L23.5457 29.3029L23.3448 29.1546C23.3188 29.1354 23.3322 29.0941 23.3645 29.0938L23.6143 29.0919L23.6933 28.855C23.7037 28.8244 23.7472 28.8244 23.7574 28.855Z" fill="#F5F5F5"/>
<path d="M21.743 26.0149L21.8077 26.2087L22.012 26.2103C22.0383 26.2105 22.0494 26.2443 22.0282 26.26L21.8638 26.3813L21.9255 26.5761C21.9335 26.6012 21.9048 26.6221 21.8832 26.6067L21.717 26.488L21.5507 26.6067C21.5292 26.6221 21.5006 26.6012 21.5085 26.5761L21.5701 26.3813L21.4057 26.26C21.3845 26.2443 21.3954 26.2105 21.4219 26.2103L21.6262 26.2087L21.6909 26.0149C21.6992 25.9898 21.7346 25.9898 21.743 26.0149Z" fill="#F5F5F5"/>
<path d="M27.8793 22.0158L27.9602 22.2582L28.2156 22.2601C28.2487 22.2603 28.2624 22.3026 28.2357 22.3222L28.0303 22.474L28.1073 22.7176C28.1174 22.7492 28.0813 22.7752 28.0545 22.756L27.8466 22.6074L27.6387 22.756C27.6117 22.7753 27.5759 22.7491 27.5858 22.7176L27.6629 22.474L27.4574 22.3222C27.4308 22.3026 27.4445 22.2604 27.4775 22.2601L27.733 22.2582L27.8139 22.0158C27.8244 21.9843 27.8688 21.9843 27.8793 22.0158Z" fill="#F5F5F5"/>
<path d="M20.3788 24.8294L20.4434 25.0231L20.6477 25.0248C20.6741 25.025 20.6851 25.0588 20.6639 25.0745L20.4996 25.1958L20.5612 25.3905C20.5692 25.4157 20.5405 25.4366 20.5189 25.4212L20.3527 25.3024L20.1865 25.4212C20.1649 25.4366 20.1363 25.4157 20.1442 25.3905L20.2058 25.1958L20.0415 25.0745C20.0203 25.0588 20.0311 25.0251 20.0577 25.0248L20.262 25.0231L20.3266 24.8294C20.3349 24.8043 20.3704 24.8043 20.3788 24.8294Z" fill="#F5F5F5"/>
<path d="M21.3649 27.5597L21.4627 27.8532L21.7721 27.8556C21.8121 27.8559 21.8287 27.9069 21.7965 27.9308L21.5476 28.1146L21.6409 28.4095C21.653 28.4477 21.6096 28.4793 21.577 28.456L21.3252 28.2761L21.0735 28.456C21.0409 28.4792 20.9974 28.4477 21.0095 28.4095L21.1028 28.1146L20.8539 27.9308C20.8217 27.9069 20.8383 27.8559 20.8783 27.8556L21.1877 27.8532L21.2856 27.5597C21.2985 27.5218 21.3523 27.5218 21.3649 27.5597Z" fill="#F5F5F5"/>
<path d="M28.962 28.9984L29.0235 29.1831L29.2182 29.1845C29.2434 29.1847 29.2538 29.2169 29.2336 29.2318L29.0771 29.3474L29.1357 29.533C29.1434 29.557 29.116 29.5768 29.0954 29.5622L28.9371 29.449L28.7787 29.5622C28.7582 29.5768 28.7309 29.557 28.7384 29.533L28.7971 29.3474L28.6405 29.2318C28.6203 29.2169 28.6308 29.1847 28.656 29.1845L28.8506 29.1831L28.9121 28.9984C28.9202 28.9745 28.9541 28.9745 28.962 28.9984Z" fill="#F5F5F5"/>
<path d="M29.6421 27.5895L29.7211 27.8264L29.9709 27.8283C30.0033 27.8285 30.0167 27.8698 29.9907 27.8891L29.7897 28.0374L29.865 28.2756C29.8747 28.3065 29.8397 28.332 29.8133 28.3131L29.6101 28.1679L29.4069 28.3131C29.3806 28.332 29.3454 28.3065 29.3552 28.2756L29.4305 28.0374L29.2295 27.8891C29.2036 27.8699 29.2169 27.8286 29.2493 27.8283L29.4991 27.8264L29.5781 27.5895C29.5884 27.5587 29.6319 27.5587 29.6421 27.5895Z" fill="#F5F5F5"/>
</g>
<defs>
<clipPath id="clip0_3462_32249">
<rect width="50" height="50" fill="white" transform="translate(0.162109 0.160156)"/>
</clipPath>
</defs>
</svg>
