<svg width="51" height="51" viewBox="0 0 51 51" fill="none" xmlns="http://www.w3.org/2000/svg">
<g clip-path="url(#clip0_3462_32161)">
<path d="M49.4483 41.5398H1.17265C0.696581 41.5398 0.310547 41.1538 0.310547 40.6777V9.64336C0.310547 9.16728 0.696581 8.78125 1.17265 8.78125H49.4484C49.9245 8.78125 50.3105 9.16728 50.3105 9.64336V40.6777C50.3104 41.1538 49.9244 41.5398 49.4483 41.5398Z" fill="#41479B"/>
<path d="M24.4484 8.78125H22.951L14.9657 14.013V8.78125H10.6554V14.013L2.67001 8.78125H1.17265C0.696581 8.78125 0.310547 9.16728 0.310547 9.64336V10.3271L7.16161 14.8157H0.310547V19.1261H7.16161L0.310547 23.6147V24.2984C0.310547 24.7745 0.696581 25.1605 1.17265 25.1605H2.67001L10.6554 19.9288V25.1605H14.9657V19.9288L22.9509 25.1605H24.4483C24.9244 25.1605 25.3104 24.7745 25.3104 24.2984V23.6146L18.4594 19.1261H25.3104V14.8157H18.4593L25.3104 10.3271V9.64336C25.3104 9.16728 24.9246 8.78125 24.4484 8.78125Z" fill="#F5F5F5"/>
<path d="M25.3104 15.6778H14.1036V8.78125H11.5174V15.6778H0.310547V18.2639H11.5174V25.1605H14.1036V18.2639H25.3104V15.6778Z" fill="#FF4B55"/>
<path d="M9.79324 14.8165L0.721386 8.92773C0.47998 9.08057 0.310547 9.33721 0.310547 9.64414V9.68887L8.20985 14.8165H9.79324Z" fill="#FF4B55"/>
<path d="M16.5492 14.8157L25.1795 9.21357C25.0295 8.95977 24.7648 8.78125 24.4485 8.78125H24.2621L14.9658 14.8157H16.5492Z" fill="#FF4B55"/>
<path d="M9.04832 19.127L0.43457 24.7183C0.583105 24.9783 0.851855 25.1614 1.17275 25.1614H1.33535L10.6317 19.127H9.04832Z" fill="#FF4B55"/>
<path d="M25.2968 24.3671L17.2239 19.127H15.6406L24.8079 25.0775C25.0826 24.9501 25.2709 24.683 25.2968 24.3671Z" fill="#FF4B55"/>
<path d="M38.1764 16.8711H32.5322C32.5322 16.8711 32.5322 24.1753 32.5322 27.1634C32.5322 29.4874 38.1764 31.8115 38.1764 31.8115C38.1764 31.8115 43.8205 29.4875 43.8205 27.1634C43.8205 24.1752 43.8205 16.8711 43.8205 16.8711H38.1764Z" fill="#73AF00"/>
<path d="M34.872 24.7255C34.872 24.7255 34.8404 24.6162 34.8685 24.5175C34.8966 24.4187 34.8242 24.3282 34.8086 24.2426C34.7665 24.01 34.9633 23.95 34.9739 23.7422C34.9739 23.7422 35.1144 23.8867 35.0618 24.0242C35.009 24.1617 35.1391 24.1828 35.1216 24.3132C35.1041 24.4436 34.9598 24.5811 34.9739 24.6974L34.872 24.7255Z" fill="#FF4B55"/>
<path d="M37.091 24.5043C36.9757 24.3602 36.7734 24.5154 36.6254 24.6283C36.6048 24.6441 36.5873 24.6562 36.569 24.6695L36.0229 23.863C36.0383 23.8399 36.0493 23.8139 36.0493 23.7842C36.0493 23.7038 35.9843 23.6387 35.9038 23.6387C35.8233 23.6387 35.7583 23.7037 35.7583 23.7842C35.7583 23.814 35.7694 23.84 35.7846 23.863L35.2213 24.6949H34.8223C34.8223 24.6949 34.8058 24.9429 35.2414 24.9729C35.2975 25.058 35.3776 25.1257 35.4735 25.164C35.4285 25.1713 35.3922 25.2061 35.3922 25.2532V25.3115C35.3922 25.3152 35.3957 25.3174 35.3961 25.321H36.4108C36.4112 25.3175 36.4147 25.3153 36.4147 25.3115V25.2532C36.4147 25.2056 36.3778 25.17 36.332 25.1635C36.5018 25.0951 36.6212 24.9362 36.6413 24.7475C36.6571 24.7357 36.6719 24.725 36.689 24.712C36.7962 24.6298 36.9575 24.5046 37.009 24.5701C37.0218 24.5861 37.0205 24.595 37.02 24.5982C37.0141 24.6363 36.9328 24.691 36.8675 24.7349C36.7646 24.8039 36.6583 24.8756 36.6499 24.9771C36.6474 25.0061 36.6688 25.0312 36.6977 25.034C36.6992 25.034 36.7009 25.034 36.7021 25.034C36.7292 25.034 36.7521 25.0132 36.7544 24.986C36.7586 24.9346 36.8513 24.8723 36.926 24.8223C37.021 24.7581 37.1107 24.6979 37.1236 24.6145C37.1296 24.5761 37.1185 24.5393 37.091 24.5043ZM36.1575 24.6949C36.1274 24.5803 36.0565 24.4701 35.9679 24.4303C36.0148 24.4062 36.0479 24.3586 36.0479 24.3022C36.0479 24.222 35.9829 24.1567 35.9024 24.1567C35.8221 24.1567 35.7569 24.2218 35.7569 24.3022C35.7569 24.3586 35.7899 24.4062 35.8369 24.4303C35.7483 24.47 35.6773 24.5802 35.6473 24.6949H35.348L35.8708 23.9229C35.8816 23.9255 35.8922 23.9296 35.9039 23.9296C35.9156 23.9296 35.9261 23.9255 35.937 23.9229L36.4597 24.6949H36.1575Z" fill="#FFE15A"/>
<path d="M37.8167 19.804C37.8167 19.804 37.291 19.6485 37.0558 21.4883C37.0558 21.4883 35.7693 23.1241 35.7278 23.2209C35.6863 23.3178 35.7244 24.0129 35.8628 23.9575C36.0011 23.9022 36.2502 23.5806 36.2363 23.3453C36.2224 23.1101 36.3286 22.9789 36.4334 22.8612C36.6304 22.6399 37.7407 21.6369 37.7822 21.4156C37.8236 21.1944 37.8167 19.804 37.8167 19.804Z" fill="#FFC8B9"/>
<path d="M38.6317 19.454C38.6317 19.454 39.4444 19.3468 39.6831 20.1769C39.6831 20.1769 39.0156 20.5435 39.0986 21.0207C39.1816 21.498 39.0883 23.6769 39.0883 23.6769C37.8121 24.0918 37.1377 23.5731 37.1377 23.5731C37.1377 23.5731 37.4697 22.3384 37.4179 21.3321C37.4179 21.3321 37.117 21.1039 37.1896 20.8445C37.2623 20.5851 37.449 20.2946 37.5113 20.0767C37.5736 19.8588 37.7396 19.4957 38.1442 19.4645C38.5486 19.4332 38.6317 19.454 38.6317 19.454Z" fill="#F5F5F5"/>
<path d="M37.3738 23.3301C37.3738 23.3301 36.7375 25.7372 36.9589 29.0157C36.9589 29.0157 38.944 29.2785 40.0231 28.8843C40.0231 28.8843 39.4629 24.9624 38.9233 23.4269L37.3738 23.3301Z" fill="#F5F5F5"/>
<path d="M37.748 18.0371V19.0343C37.748 19.1437 37.8368 19.2325 37.9463 19.2325H37.9641C38.0415 19.2325 38.1044 19.2953 38.1044 19.3729V19.6112C38.1044 19.6112 38.238 19.9603 38.7578 19.5519V18.0445L37.748 18.0371Z" fill="#FFC8B9"/>
<path d="M37.6298 17.8336C37.5975 17.9142 37.6315 18.1327 37.8303 18.1172C38.0786 18.0977 38.3784 18.0964 38.4459 18.3714C38.5086 18.6269 38.4667 19.2653 38.7433 19.3069C39.0201 19.3484 39.3338 19.1645 39.3278 18.6152C39.3226 18.131 39.0061 17.5517 38.5635 17.6399C38.5635 17.6399 38.1709 17.3649 37.9409 17.6745C37.9411 17.6745 37.699 17.6607 37.6298 17.8336Z" fill="#8C5A28"/>
<path d="M39.6848 20.1777C39.6848 20.1777 39.968 22.0434 39.9545 22.1975C39.9407 22.3565 38.9516 23.8852 39.0069 24.0513C39.0622 24.2173 39.1175 24.4387 38.8132 24.5217C38.5089 24.6047 38.5401 24.1187 38.623 23.8697C38.706 23.6207 39.4011 22.2944 39.4011 22.1423C39.4011 21.9901 39.0068 21.0079 39.1036 20.6205C39.2006 20.233 39.6848 20.1777 39.6848 20.1777Z" fill="#FFC8B9"/>
<path d="M33.6267 18.8388C33.6267 18.8388 33.5952 18.7295 33.6232 18.6308C33.6514 18.532 33.579 18.4415 33.5635 18.3559C33.5214 18.1232 33.7182 18.0633 33.7287 17.8555C33.7287 17.8555 33.8693 18 33.8167 18.1375C33.764 18.275 33.894 18.2961 33.8765 18.4265C33.859 18.5568 33.7147 18.6943 33.7288 18.8106L33.6267 18.8388Z" fill="#FF4B55"/>
<path d="M35.8459 18.6176C35.7305 18.4734 35.5283 18.6287 35.3802 18.7416C35.3596 18.7574 35.3422 18.7695 35.3239 18.7828L34.7778 17.9763C34.7931 17.9532 34.8042 17.9271 34.8042 17.8975C34.8042 17.8171 34.7391 17.752 34.6587 17.752C34.5782 17.752 34.5132 17.817 34.5132 17.8975C34.5132 17.9272 34.5243 17.9533 34.5395 17.9763L33.9762 18.8082H33.5772C33.5772 18.8082 33.5607 19.0561 33.9963 19.0862C34.0524 19.1713 34.1325 19.239 34.2284 19.2772C34.1834 19.2846 34.1471 19.3193 34.1471 19.3665V19.4248C34.1471 19.4285 34.1506 19.4307 34.151 19.4343H35.1657C35.1661 19.4308 35.1696 19.4286 35.1696 19.4248V19.3665C35.1696 19.3188 35.1327 19.2833 35.0869 19.2768C35.2567 19.2084 35.376 19.0495 35.3962 18.8607C35.412 18.849 35.4267 18.8383 35.4439 18.8253C35.551 18.7431 35.7124 18.6179 35.7638 18.6834C35.7766 18.6994 35.7754 18.7083 35.7749 18.7115C35.769 18.7496 35.6877 18.8043 35.6223 18.8481C35.5195 18.9172 35.4132 18.9889 35.4048 19.0904C35.4023 19.1194 35.4237 19.1445 35.4526 19.1472C35.4541 19.1472 35.4557 19.1472 35.457 19.1472C35.4841 19.1472 35.507 19.1264 35.5093 19.0992C35.5135 19.0478 35.6062 18.9854 35.6808 18.9354C35.7759 18.8713 35.8656 18.8111 35.8785 18.7277C35.8844 18.6894 35.8734 18.6524 35.8459 18.6176ZM34.9124 18.8082C34.8823 18.6936 34.8114 18.5834 34.7228 18.5436C34.7697 18.5194 34.8028 18.4719 34.8028 18.4155C34.8028 18.3353 34.7378 18.27 34.6573 18.27C34.577 18.27 34.5118 18.3351 34.5118 18.4155C34.5118 18.4719 34.5448 18.5194 34.5918 18.5436C34.5032 18.5833 34.4322 18.6935 34.4022 18.8082H34.1029L34.6257 18.0362C34.6365 18.0388 34.6469 18.0429 34.6588 18.0429C34.6705 18.0429 34.6809 18.0388 34.6919 18.0362L35.2146 18.8082H34.9124Z" fill="#FFE15A"/>
<path d="M33.6267 20.7997C33.6267 20.7997 33.5952 20.6904 33.6232 20.5917C33.6514 20.493 33.579 20.4024 33.5635 20.3168C33.5214 20.0842 33.7182 20.0242 33.7287 19.8164C33.7287 19.8164 33.8693 19.9609 33.8167 20.0984C33.7639 20.2359 33.894 20.257 33.8765 20.3874C33.859 20.5178 33.7147 20.6553 33.7288 20.7716L33.6267 20.7997Z" fill="#FF4B55"/>
<path d="M35.8459 20.5785C35.7305 20.4344 35.5283 20.5896 35.3802 20.7025C35.3596 20.7184 35.3422 20.7305 35.3239 20.7437L34.7778 19.9372C34.7931 19.9142 34.8042 19.8881 34.8042 19.8584C34.8042 19.778 34.7391 19.7129 34.6587 19.7129C34.5782 19.7129 34.5132 19.7779 34.5132 19.8584C34.5132 19.8882 34.5243 19.9143 34.5395 19.9372L33.9762 20.7691H33.5772C33.5772 20.7691 33.5607 21.0171 33.9963 21.0472C34.0524 21.1322 34.1325 21.1999 34.2284 21.2382C34.1834 21.2455 34.1471 21.2803 34.1471 21.3274V21.3857C34.1471 21.3894 34.1506 21.3916 34.151 21.3952H35.1657C35.1661 21.3917 35.1696 21.3895 35.1696 21.3857V21.3274C35.1696 21.2798 35.1327 21.2442 35.0869 21.2377C35.2567 21.1693 35.376 21.0104 35.3962 20.8217C35.412 20.81 35.4267 20.7992 35.4439 20.7862C35.551 20.704 35.7124 20.5788 35.7638 20.6443C35.7766 20.6603 35.7754 20.6692 35.7749 20.6725C35.769 20.7105 35.6877 20.7652 35.6223 20.8091C35.5195 20.8781 35.4132 20.9498 35.4048 21.0514C35.4023 21.0804 35.4237 21.1055 35.4526 21.1082C35.4541 21.1082 35.4557 21.1082 35.457 21.1082C35.4841 21.1082 35.507 21.0874 35.5093 21.0602C35.5135 21.0088 35.6062 20.9465 35.6808 20.8965C35.7759 20.8323 35.8656 20.7722 35.8785 20.6888C35.8844 20.6501 35.8734 20.6133 35.8459 20.5785ZM34.9124 20.769C34.8823 20.6544 34.8114 20.5442 34.7228 20.5044C34.7697 20.4803 34.8028 20.4327 34.8028 20.3764C34.8028 20.2961 34.7378 20.2309 34.6573 20.2309C34.577 20.2309 34.5118 20.2959 34.5118 20.3764C34.5118 20.4327 34.5448 20.4803 34.5918 20.5044C34.5032 20.5441 34.4322 20.6543 34.4022 20.769H34.1029L34.6257 19.9971C34.6365 19.9996 34.6469 20.0037 34.6588 20.0037C34.6705 20.0037 34.6809 19.9996 34.6919 19.9971L35.2146 20.769H34.9124Z" fill="#FFE15A"/>
<path d="M33.6267 22.7626C33.6267 22.7626 33.5952 22.6533 33.6232 22.5546C33.6514 22.4559 33.579 22.3653 33.5635 22.2797C33.5214 22.0471 33.7182 21.9871 33.7287 21.7793C33.7287 21.7793 33.8693 21.9238 33.8167 22.0613C33.764 22.1988 33.894 22.2199 33.8765 22.3503C33.859 22.4807 33.7147 22.6182 33.7288 22.7345L33.6267 22.7626Z" fill="#FF4B55"/>
<path d="M35.8459 22.5414C35.7305 22.3973 35.5283 22.5525 35.3802 22.6654C35.3596 22.6812 35.3422 22.6934 35.3239 22.7066L34.7778 21.9001C34.7931 21.8771 34.8042 21.851 34.8042 21.8213C34.8042 21.7409 34.7391 21.6758 34.6587 21.6758C34.5782 21.6758 34.5132 21.7408 34.5132 21.8213C34.5132 21.8511 34.5243 21.8771 34.5395 21.9001L33.9762 22.732H33.5772C33.5772 22.732 33.5607 22.98 33.9963 23.0101C34.0524 23.0951 34.1325 23.1628 34.2284 23.2011C34.1834 23.2084 34.1471 23.2432 34.1471 23.2903V23.3486C34.1471 23.3523 34.1506 23.3545 34.151 23.3581H35.1657C35.1661 23.3546 35.1696 23.3524 35.1696 23.3486V23.2903C35.1696 23.2427 35.1327 23.2071 35.0869 23.2006C35.2567 23.1322 35.376 22.9733 35.3962 22.7846C35.412 22.7728 35.4267 22.7621 35.4439 22.7491C35.551 22.6669 35.7124 22.5417 35.7638 22.6072C35.7766 22.6232 35.7754 22.6321 35.7749 22.6354C35.769 22.6734 35.6877 22.7281 35.6223 22.772C35.5195 22.841 35.4132 22.9127 35.4048 23.0143C35.4023 23.0433 35.4237 23.0684 35.4526 23.071C35.4541 23.071 35.4557 23.071 35.457 23.071C35.4841 23.071 35.507 23.0502 35.5093 23.023C35.5135 22.9716 35.6062 22.9093 35.6808 22.8593C35.7759 22.7951 35.8656 22.735 35.8785 22.6516C35.8844 22.6131 35.8734 22.5763 35.8459 22.5414ZM34.9124 22.7319C34.8823 22.6173 34.8114 22.5071 34.7228 22.4673C34.7697 22.4432 34.8028 22.3956 34.8028 22.3393C34.8028 22.259 34.7378 22.1937 34.6573 22.1937C34.577 22.1937 34.5118 22.2588 34.5118 22.3393C34.5118 22.3956 34.5448 22.4432 34.5918 22.4673C34.5032 22.507 34.4322 22.6172 34.4022 22.7319H34.1029L34.6257 21.96C34.6365 21.9625 34.6469 21.9666 34.6588 21.9666C34.6705 21.9666 34.6809 21.9625 34.6919 21.96L35.2146 22.7319H34.9124Z" fill="#FFE15A"/>
<path d="M33.6267 26.6864C33.6267 26.6864 33.5952 26.5771 33.6232 26.4784C33.6514 26.3797 33.579 26.2892 33.5635 26.2035C33.5214 25.9709 33.7182 25.9109 33.7287 25.7031C33.7287 25.7031 33.8693 25.8477 33.8167 25.9852C33.7641 26.1227 33.894 26.1438 33.8765 26.2741C33.859 26.4045 33.7147 26.542 33.7288 26.6583L33.6267 26.6864Z" fill="#FF4B55"/>
<path d="M35.8459 26.4652C35.7305 26.3211 35.5283 26.4764 35.3802 26.5893C35.3596 26.6051 35.3422 26.6172 35.3239 26.6305L34.7778 25.8239C34.7931 25.8009 34.8042 25.7748 34.8042 25.7451C34.8042 25.6647 34.7391 25.5996 34.6587 25.5996C34.5782 25.5996 34.5132 25.6647 34.5132 25.7451C34.5132 25.7749 34.5243 25.801 34.5395 25.8239L33.9762 26.6559H33.5772C33.5772 26.6559 33.5607 26.9038 33.9963 26.9339C34.0524 27.0189 34.1325 27.0866 34.2284 27.1249C34.1834 27.1322 34.1471 27.167 34.1471 27.2142V27.2725C34.1471 27.2762 34.1506 27.2783 34.151 27.2819H35.1657C35.1661 27.2784 35.1696 27.2763 35.1696 27.2725V27.2142C35.1696 27.1665 35.1327 27.131 35.0869 27.1244C35.2567 27.0561 35.376 26.8972 35.3962 26.7084C35.412 26.6967 35.4267 26.686 35.4439 26.6729C35.551 26.5907 35.7124 26.4655 35.7638 26.5311C35.7766 26.5471 35.7754 26.556 35.7749 26.5592C35.769 26.5973 35.6877 26.6519 35.6223 26.6958C35.5195 26.7648 35.4132 26.8365 35.4048 26.9381C35.4023 26.9671 35.4237 26.9922 35.4526 26.9949C35.4541 26.9949 35.4557 26.9949 35.457 26.9949C35.4841 26.9949 35.507 26.9741 35.5093 26.947C35.5135 26.8955 35.6062 26.8332 35.6808 26.7832C35.7759 26.719 35.8656 26.6589 35.8785 26.5755C35.8844 26.5369 35.8734 26.5 35.8459 26.4652ZM34.9124 26.6559C34.8823 26.5412 34.8114 26.4311 34.7228 26.3912C34.7697 26.3671 34.8028 26.3195 34.8028 26.2632C34.8028 26.1829 34.7378 26.1177 34.6573 26.1177C34.577 26.1177 34.5118 26.1827 34.5118 26.2632C34.5118 26.3195 34.5448 26.3671 34.5918 26.3912C34.5032 26.431 34.4322 26.5411 34.4022 26.6559H34.1029L34.6257 25.8839C34.6365 25.8864 34.6469 25.8905 34.6588 25.8905C34.6705 25.8905 34.6809 25.8864 34.6919 25.8839L35.2146 26.6559H34.9124Z" fill="#FFE15A"/>
<path d="M33.6267 28.6493C33.6267 28.6493 33.5952 28.54 33.6232 28.4413C33.6514 28.3426 33.579 28.252 33.5635 28.1664C33.5214 27.9338 33.7182 27.8738 33.7287 27.666C33.7287 27.666 33.8693 27.8105 33.8167 27.948C33.7639 28.0855 33.894 28.1066 33.8765 28.237C33.8589 28.3674 33.7147 28.5049 33.7288 28.6212L33.6267 28.6493Z" fill="#FF4B55"/>
<path d="M35.8459 28.4281C35.7305 28.284 35.5283 28.4393 35.3802 28.5521C35.3596 28.568 35.3422 28.5801 35.3239 28.5933L34.7778 27.7868C34.7931 27.7638 34.8042 27.7377 34.8042 27.708C34.8042 27.6276 34.7391 27.5625 34.6587 27.5625C34.5782 27.5625 34.5132 27.6276 34.5132 27.708C34.5132 27.7378 34.5243 27.7639 34.5395 27.7868L33.9762 28.6187H33.5772C33.5772 28.6187 33.5607 28.8667 33.9963 28.8968C34.0524 28.9818 34.1325 29.0495 34.2284 29.0878C34.1834 29.0951 34.1471 29.1299 34.1471 29.177V29.2353C34.1471 29.2391 34.1506 29.2412 34.151 29.2448H35.1657C35.1661 29.2413 35.1696 29.2391 35.1696 29.2353V29.177C35.1696 29.1294 35.1327 29.0938 35.0869 29.0873C35.2567 29.0189 35.376 28.8601 35.3962 28.6713C35.412 28.6596 35.4267 28.6488 35.4439 28.6358C35.551 28.5536 35.7124 28.4284 35.7638 28.4939C35.7766 28.51 35.7754 28.5188 35.7749 28.5221C35.769 28.5602 35.6877 28.6148 35.6223 28.6587C35.5195 28.7277 35.4132 28.7994 35.4048 28.901C35.4023 28.93 35.4237 28.9551 35.4526 28.9578C35.4541 28.9578 35.4557 28.9578 35.457 28.9578C35.4841 28.9578 35.507 28.937 35.5093 28.9099C35.5135 28.8584 35.6062 28.7961 35.6808 28.7461C35.7759 28.6819 35.8656 28.6218 35.8785 28.5384C35.8844 28.4998 35.8734 28.463 35.8459 28.4281ZM34.9124 28.6186C34.8823 28.504 34.8114 28.3938 34.7228 28.354C34.7697 28.3299 34.8028 28.2823 34.8028 28.226C34.8028 28.1457 34.7378 28.0805 34.6573 28.0805C34.577 28.0805 34.5118 28.1455 34.5118 28.226C34.5118 28.2823 34.5448 28.3299 34.5918 28.354C34.5032 28.3937 34.4322 28.5039 34.4022 28.6186H34.1029L34.6257 27.8467C34.6365 27.8492 34.6469 27.8533 34.6588 27.8533C34.6705 27.8533 34.6809 27.8492 34.6919 27.8467L35.2146 28.6186H34.9124Z" fill="#FFE15A"/>
<path d="M40.4539 18.8388C40.4539 18.8388 40.4223 18.7295 40.4504 18.6308C40.4785 18.532 40.4061 18.4415 40.3907 18.3559C40.3485 18.1232 40.5454 18.0633 40.5559 17.8555C40.5559 17.8555 40.6964 18 40.6438 18.1375C40.591 18.275 40.7212 18.2961 40.7036 18.4265C40.6861 18.5568 40.5419 18.6943 40.556 18.8106L40.4539 18.8388Z" fill="#FF4B55"/>
<path d="M42.673 18.6176C42.5577 18.4734 42.3555 18.6287 42.2074 18.7416C42.1868 18.7574 42.1693 18.7695 42.1511 18.7828L41.605 17.9763C41.6203 17.9532 41.6313 17.9271 41.6313 17.8975C41.6313 17.8171 41.5663 17.752 41.4858 17.752C41.4054 17.752 41.3403 17.817 41.3403 17.8975C41.3403 17.9272 41.3514 17.9533 41.3667 17.9763L40.8033 18.8082H40.4044C40.4044 18.8082 40.3879 19.0561 40.8234 19.0862C40.8796 19.1713 40.9597 19.239 41.0555 19.2772C41.0105 19.2846 40.9742 19.3193 40.9742 19.3665V19.4248C40.9742 19.4285 40.9777 19.4307 40.9781 19.4343H41.9929C41.9932 19.4308 41.9968 19.4286 41.9968 19.4248V19.3665C41.9968 19.3188 41.9598 19.2833 41.914 19.2768C42.0839 19.2084 42.2032 19.0495 42.2233 18.8607C42.2391 18.849 42.2539 18.8383 42.2711 18.8253C42.3782 18.7431 42.5395 18.6179 42.591 18.6834C42.6038 18.6994 42.6025 18.7083 42.602 18.7115C42.5962 18.7496 42.5148 18.8043 42.4495 18.8481C42.3467 18.9172 42.2403 18.9889 42.2319 19.0904C42.2295 19.1194 42.2509 19.1445 42.2798 19.1472C42.2812 19.1472 42.2829 19.1472 42.2842 19.1472C42.3112 19.1472 42.3342 19.1264 42.3364 19.0992C42.3406 19.0478 42.4334 18.9854 42.508 18.9354C42.603 18.8713 42.6928 18.8111 42.7056 18.7277C42.7116 18.6894 42.7008 18.6524 42.673 18.6176ZM41.7396 18.8082C41.7096 18.6936 41.6387 18.5834 41.5501 18.5436C41.597 18.5194 41.6301 18.4719 41.6301 18.4155C41.6301 18.3353 41.5649 18.27 41.4846 18.27C41.4043 18.27 41.339 18.3351 41.339 18.4155C41.339 18.4719 41.3721 18.5194 41.419 18.5436C41.3305 18.5833 41.2595 18.6935 41.2295 18.8082H40.9302L41.4529 18.0362C41.4638 18.0388 41.4742 18.0429 41.486 18.0429C41.4977 18.0429 41.5082 18.0388 41.5191 18.0362L42.0419 18.8082H41.7396Z" fill="#FFE15A"/>
<path d="M40.4539 20.7997C40.4539 20.7997 40.4223 20.6904 40.4504 20.5917C40.4785 20.493 40.4061 20.4024 40.3907 20.3168C40.3485 20.0842 40.5454 20.0242 40.5559 19.8164C40.5559 19.8164 40.6964 19.9609 40.6438 20.0984C40.591 20.2359 40.7212 20.257 40.7036 20.3874C40.6861 20.5178 40.5419 20.6553 40.556 20.7716L40.4539 20.7997Z" fill="#FF4B55"/>
<path d="M42.673 20.5785C42.5577 20.4344 42.3555 20.5896 42.2074 20.7025C42.1868 20.7184 42.1693 20.7305 42.1511 20.7437L41.605 19.9372C41.6203 19.9142 41.6313 19.8881 41.6313 19.8584C41.6313 19.778 41.5663 19.7129 41.4858 19.7129C41.4054 19.7129 41.3403 19.7779 41.3403 19.8584C41.3403 19.8882 41.3514 19.9143 41.3667 19.9372L40.8033 20.7691H40.4044C40.4044 20.7691 40.3879 21.0171 40.8234 21.0472C40.8796 21.1322 40.9597 21.1999 41.0555 21.2382C41.0105 21.2455 40.9742 21.2803 40.9742 21.3274V21.3857C40.9742 21.3894 40.9777 21.3916 40.9781 21.3952H41.9929C41.9932 21.3917 41.9968 21.3895 41.9968 21.3857V21.3274C41.9968 21.2798 41.9598 21.2442 41.914 21.2377C42.0839 21.1693 42.2032 21.0104 42.2233 20.8217C42.2391 20.81 42.2539 20.7992 42.2711 20.7862C42.3782 20.704 42.5395 20.5788 42.591 20.6443C42.6038 20.6603 42.6025 20.6692 42.602 20.6725C42.5962 20.7105 42.5148 20.7652 42.4495 20.8091C42.3467 20.8781 42.2403 20.9498 42.2319 21.0514C42.2295 21.0804 42.2509 21.1055 42.2798 21.1082C42.2812 21.1082 42.2829 21.1082 42.2842 21.1082C42.3112 21.1082 42.3342 21.0874 42.3364 21.0602C42.3406 21.0088 42.4334 20.9465 42.508 20.8965C42.603 20.8323 42.6928 20.7722 42.7056 20.6888C42.7116 20.6501 42.7008 20.6133 42.673 20.5785ZM41.7396 20.769C41.7096 20.6544 41.6387 20.5442 41.5501 20.5044C41.597 20.4803 41.6301 20.4327 41.6301 20.3764C41.6301 20.2961 41.5649 20.2309 41.4846 20.2309C41.4043 20.2309 41.339 20.2959 41.339 20.3764C41.339 20.4327 41.3721 20.4803 41.419 20.5044C41.3305 20.5441 41.2595 20.6543 41.2295 20.769H40.9302L41.4529 19.9971C41.4638 19.9996 41.4742 20.0037 41.486 20.0037C41.4977 20.0037 41.5082 19.9996 41.5191 19.9971L42.0419 20.769H41.7396Z" fill="#FFE15A"/>
<path d="M40.4539 22.7626C40.4539 22.7626 40.4223 22.6533 40.4504 22.5546C40.4785 22.4559 40.4061 22.3653 40.3907 22.2797C40.3485 22.0471 40.5454 21.9871 40.5559 21.7793C40.5559 21.7793 40.6964 21.9238 40.6438 22.0613C40.591 22.1988 40.7212 22.2199 40.7036 22.3503C40.6861 22.4807 40.5419 22.6182 40.556 22.7345L40.4539 22.7626Z" fill="#FF4B55"/>
<path d="M42.673 22.5414C42.5577 22.3973 42.3555 22.5525 42.2074 22.6654C42.1868 22.6812 42.1693 22.6934 42.1511 22.7066L41.605 21.9001C41.6203 21.8771 41.6313 21.851 41.6313 21.8213C41.6313 21.7409 41.5663 21.6758 41.4858 21.6758C41.4054 21.6758 41.3403 21.7408 41.3403 21.8213C41.3403 21.8511 41.3514 21.8771 41.3667 21.9001L40.8033 22.732H40.4044C40.4044 22.732 40.3879 22.98 40.8234 23.0101C40.8796 23.0951 40.9597 23.1628 41.0555 23.2011C41.0105 23.2084 40.9742 23.2432 40.9742 23.2903V23.3486C40.9742 23.3523 40.9777 23.3545 40.9781 23.3581H41.9929C41.9932 23.3546 41.9968 23.3524 41.9968 23.3486V23.2903C41.9968 23.2427 41.9598 23.2071 41.914 23.2006C42.0839 23.1322 42.2032 22.9733 42.2233 22.7846C42.2391 22.7728 42.2539 22.7621 42.2711 22.7491C42.3782 22.6669 42.5395 22.5417 42.591 22.6072C42.6038 22.6232 42.6025 22.6321 42.602 22.6354C42.5962 22.6734 42.5148 22.7281 42.4495 22.772C42.3467 22.841 42.2403 22.9127 42.2319 23.0143C42.2295 23.0433 42.2509 23.0684 42.2798 23.071C42.2812 23.071 42.2829 23.071 42.2842 23.071C42.3112 23.071 42.3342 23.0502 42.3364 23.023C42.3406 22.9716 42.4334 22.9093 42.508 22.8593C42.603 22.7951 42.6928 22.735 42.7056 22.6516C42.7116 22.6131 42.7008 22.5763 42.673 22.5414ZM41.7396 22.7319C41.7096 22.6173 41.6387 22.5071 41.5501 22.4673C41.597 22.4432 41.6301 22.3956 41.6301 22.3393C41.6301 22.259 41.5649 22.1937 41.4846 22.1937C41.4043 22.1937 41.339 22.2588 41.339 22.3393C41.339 22.3956 41.3721 22.4432 41.419 22.4673C41.3305 22.507 41.2595 22.6172 41.2295 22.7319H40.9302L41.4529 21.96C41.4638 21.9625 41.4742 21.9666 41.486 21.9666C41.4977 21.9666 41.5082 21.9625 41.5191 21.96L42.0419 22.7319H41.7396Z" fill="#FFE15A"/>
<path d="M40.4539 24.7255C40.4539 24.7255 40.4223 24.6162 40.4504 24.5175C40.4785 24.4187 40.4061 24.3282 40.3907 24.2426C40.3485 24.01 40.5454 23.95 40.5559 23.7422C40.5559 23.7422 40.6964 23.8867 40.6438 24.0242C40.591 24.1617 40.7212 24.1828 40.7036 24.3132C40.6861 24.4436 40.5419 24.5811 40.556 24.6974L40.4539 24.7255Z" fill="#FF4B55"/>
<path d="M42.673 24.5043C42.5577 24.3602 42.3555 24.5154 42.2074 24.6283C42.1868 24.6441 42.1693 24.6562 42.1511 24.6695L41.605 23.863C41.6203 23.8399 41.6313 23.8139 41.6313 23.7842C41.6313 23.7038 41.5663 23.6387 41.4858 23.6387C41.4054 23.6387 41.3403 23.7037 41.3403 23.7842C41.3403 23.814 41.3514 23.84 41.3667 23.863L40.8033 24.6949H40.4044C40.4044 24.6949 40.3879 24.9429 40.8234 24.9729C40.8796 25.058 40.9597 25.1257 41.0555 25.164C41.0105 25.1713 40.9742 25.2061 40.9742 25.2532V25.3115C40.9742 25.3152 40.9777 25.3174 40.9781 25.321H41.9929C41.9932 25.3175 41.9968 25.3153 41.9968 25.3115V25.2532C41.9968 25.2056 41.9598 25.17 41.914 25.1635C42.0839 25.0951 42.2032 24.9362 42.2233 24.7475C42.2391 24.7357 42.2539 24.725 42.2711 24.712C42.3782 24.6298 42.5395 24.5046 42.591 24.5701C42.6038 24.5861 42.6025 24.595 42.602 24.5982C42.5962 24.6363 42.5148 24.691 42.4495 24.7349C42.3467 24.8039 42.2403 24.8756 42.2319 24.9771C42.2295 25.0061 42.2509 25.0312 42.2798 25.034C42.2812 25.034 42.2829 25.034 42.2842 25.034C42.3112 25.034 42.3342 25.0132 42.3364 24.986C42.3406 24.9346 42.4334 24.8723 42.508 24.8223C42.603 24.7581 42.6928 24.6979 42.7056 24.6145C42.7116 24.5761 42.7008 24.5393 42.673 24.5043ZM41.7396 24.6949C41.7096 24.5803 41.6387 24.4701 41.5501 24.4303C41.597 24.4062 41.6301 24.3586 41.6301 24.3022C41.6301 24.222 41.5649 24.1567 41.4846 24.1567C41.4043 24.1567 41.339 24.2218 41.339 24.3022C41.339 24.3586 41.3721 24.4062 41.419 24.4303C41.3305 24.47 41.2595 24.5802 41.2295 24.6949H40.9302L41.4529 23.9229C41.4638 23.9255 41.4742 23.9296 41.486 23.9296C41.4977 23.9296 41.5082 23.9255 41.5191 23.9229L42.0419 24.6949H41.7396Z" fill="#FFE15A"/>
<path d="M40.4539 26.6864C40.4539 26.6864 40.4223 26.5771 40.4504 26.4784C40.4785 26.3797 40.4061 26.2892 40.3907 26.2035C40.3485 25.9709 40.5454 25.9109 40.5559 25.7031C40.5559 25.7031 40.6964 25.8477 40.6438 25.9852C40.591 26.1227 40.7212 26.1438 40.7036 26.2741C40.6861 26.4045 40.5419 26.542 40.556 26.6583L40.4539 26.6864Z" fill="#FF4B55"/>
<path d="M42.673 26.4652C42.5577 26.3211 42.3555 26.4764 42.2074 26.5893C42.1868 26.6051 42.1693 26.6172 42.1511 26.6305L41.605 25.8239C41.6203 25.8009 41.6313 25.7748 41.6313 25.7451C41.6313 25.6647 41.5663 25.5996 41.4858 25.5996C41.4054 25.5996 41.3403 25.6647 41.3403 25.7451C41.3403 25.7749 41.3514 25.801 41.3667 25.8239L40.8033 26.6559H40.4044C40.4044 26.6559 40.3879 26.9038 40.8234 26.9339C40.8796 27.0189 40.9597 27.0866 41.0555 27.1249C41.0105 27.1322 40.9742 27.167 40.9742 27.2142V27.2725C40.9742 27.2762 40.9777 27.2783 40.9781 27.2819H41.9929C41.9932 27.2784 41.9968 27.2763 41.9968 27.2725V27.2142C41.9968 27.1665 41.9598 27.131 41.914 27.1244C42.0839 27.0561 42.2032 26.8972 42.2233 26.7084C42.2391 26.6967 42.2539 26.686 42.2711 26.6729C42.3782 26.5907 42.5395 26.4655 42.591 26.5311C42.6038 26.5471 42.6025 26.556 42.602 26.5592C42.5962 26.5973 42.5148 26.6519 42.4495 26.6958C42.3467 26.7648 42.2403 26.8365 42.2319 26.9381C42.2295 26.9671 42.2509 26.9922 42.2798 26.9949C42.2812 26.9949 42.2829 26.9949 42.2842 26.9949C42.3112 26.9949 42.3342 26.9741 42.3364 26.947C42.3406 26.8955 42.4334 26.8332 42.508 26.7832C42.603 26.719 42.6928 26.6589 42.7056 26.5755C42.7116 26.5369 42.7008 26.5 42.673 26.4652ZM41.7396 26.6559C41.7096 26.5412 41.6387 26.4311 41.5501 26.3912C41.597 26.3671 41.6301 26.3195 41.6301 26.2632C41.6301 26.1829 41.5649 26.1177 41.4846 26.1177C41.4043 26.1177 41.339 26.1827 41.339 26.2632C41.339 26.3195 41.3721 26.3671 41.419 26.3912C41.3305 26.431 41.2595 26.5411 41.2295 26.6559H40.9302L41.4529 25.8839C41.4638 25.8864 41.4742 25.8905 41.486 25.8905C41.4977 25.8905 41.5082 25.8864 41.5191 25.8839L42.0419 26.6559H41.7396Z" fill="#FFE15A"/>
<path d="M40.4539 28.6493C40.4539 28.6493 40.4223 28.54 40.4504 28.4413C40.4785 28.3426 40.4061 28.252 40.3907 28.1664C40.3485 27.9338 40.5454 27.8738 40.5559 27.666C40.5559 27.666 40.6964 27.8105 40.6438 27.948C40.591 28.0855 40.7212 28.1066 40.7036 28.237C40.686 28.3674 40.5419 28.5049 40.556 28.6212L40.4539 28.6493Z" fill="#FF4B55"/>
<path d="M42.673 28.4281C42.5577 28.284 42.3555 28.4393 42.2074 28.5521C42.1868 28.568 42.1693 28.5801 42.1511 28.5933L41.605 27.7868C41.6203 27.7638 41.6313 27.7377 41.6313 27.708C41.6313 27.6276 41.5663 27.5625 41.4858 27.5625C41.4054 27.5625 41.3403 27.6276 41.3403 27.708C41.3403 27.7378 41.3514 27.7639 41.3667 27.7868L40.8033 28.6187H40.4044C40.4044 28.6187 40.3879 28.8667 40.8234 28.8968C40.8796 28.9818 40.9597 29.0495 41.0555 29.0878C41.0105 29.0951 40.9742 29.1299 40.9742 29.177V29.2353C40.9742 29.2391 40.9777 29.2412 40.9781 29.2448H41.9929C41.9932 29.2413 41.9968 29.2391 41.9968 29.2353V29.177C41.9968 29.1294 41.9598 29.0938 41.914 29.0873C42.0839 29.0189 42.2032 28.8601 42.2233 28.6713C42.2391 28.6596 42.2539 28.6488 42.2711 28.6358C42.3782 28.5536 42.5395 28.4284 42.591 28.4939C42.6038 28.51 42.6025 28.5188 42.602 28.5221C42.5962 28.5602 42.5148 28.6148 42.4495 28.6587C42.3467 28.7277 42.2403 28.7994 42.2319 28.901C42.2295 28.93 42.2509 28.9551 42.2798 28.9578C42.2812 28.9578 42.2829 28.9578 42.2842 28.9578C42.3112 28.9578 42.3342 28.937 42.3364 28.9099C42.3406 28.8584 42.4334 28.7961 42.508 28.7461C42.603 28.6819 42.6928 28.6218 42.7056 28.5384C42.7116 28.4998 42.7008 28.463 42.673 28.4281ZM41.7396 28.6186C41.7096 28.504 41.6387 28.3938 41.5501 28.354C41.597 28.3299 41.6301 28.2823 41.6301 28.226C41.6301 28.1457 41.5649 28.0805 41.4846 28.0805C41.4043 28.0805 41.339 28.1455 41.339 28.226C41.339 28.2823 41.3721 28.3299 41.419 28.354C41.3305 28.3937 41.2595 28.5039 41.2295 28.6186H40.9302L41.4529 27.8467C41.4638 27.8492 41.4742 27.8533 41.486 27.8533C41.4977 27.8533 41.5082 27.8492 41.5191 27.8467L42.0419 28.6186H41.7396Z" fill="#FFE15A"/>
<path d="M43.8205 16.8711C43.8205 16.8711 43.8205 24.1753 43.8205 27.1634C43.8205 29.4874 38.1764 31.8115 38.1764 31.8115C38.1764 31.8115 32.5322 29.4875 32.5322 27.1634C32.5322 24.1752 32.5322 16.8711 32.5322 16.8711H38.1764H43.8205ZM44.1525 16.5391H43.8205H38.1764H32.5322H32.2002V16.8711V27.1634C32.2002 28.2501 33.2026 29.4203 35.1798 30.6415C36.5976 31.5172 37.9913 32.0944 38.0499 32.1185L38.1763 32.1706L38.3026 32.1185C38.3612 32.0944 39.755 31.5172 41.1727 30.6415C43.1499 29.4203 44.1523 28.2501 44.1523 27.1634V16.8711L44.1525 16.5391Z" fill="#F5F5F5"/>
<path d="M44.2003 28.9937L45.7053 30.0317C43.9572 32.2742 41.2333 33.7204 38.1761 33.7204C35.1189 33.7204 32.395 32.2741 30.6468 30.0317L32.1519 28.9937C33.5677 30.7602 35.7413 31.8943 38.176 31.8943C40.6108 31.8942 42.7844 30.7601 44.2003 28.9937ZM44.1344 28.5449L43.9413 28.7859C42.5272 30.5503 40.4259 31.5622 38.1763 31.5622C35.9266 31.5622 33.8253 30.5503 32.4112 28.7859L32.2181 28.5449L31.9638 28.7203L30.4587 29.7583L30.1689 29.9581L30.3853 30.2356C32.2763 32.661 35.116 34.0522 38.1764 34.0522C41.2367 34.0522 44.0765 32.6612 45.9674 30.2356L46.1838 29.9581L45.894 29.7583L44.3889 28.7203L44.1344 28.5449Z" fill="#F5F5F5"/>
<path d="M38.1765 33.7208C41.2337 33.7208 43.9576 32.2745 45.7058 30.0321L44.2008 28.9941C42.7849 30.7606 40.6113 31.8948 38.1766 31.8948C35.742 31.8948 33.5684 30.7606 32.1525 28.9941L30.6475 30.0321C32.3955 32.2746 35.1194 33.7208 38.1765 33.7208Z" fill="#FFE15A"/>
</g>
<defs>
<clipPath id="clip0_3462_32161">
<rect width="50" height="50" fill="white" transform="translate(0.310547 0.160156)"/>
</clipPath>
</defs>
</svg>
