<svg width="51" height="51" viewBox="0 0 51 51" fill="none" xmlns="http://www.w3.org/2000/svg">
<g clip-path="url(#clip0_3462_32206)">
<path d="M50.0216 41.5398H1.7459C1.26982 41.5398 0.883789 41.1538 0.883789 40.6777V9.64336C0.883789 9.16728 1.26982 8.78125 1.7459 8.78125H50.0217C50.4978 8.78125 50.8838 9.16728 50.8838 9.64336V40.6777C50.8837 41.1538 50.4977 41.5398 50.0216 41.5398Z" fill="#F5F5F5"/>
<path d="M50.8844 34.6436C48.3815 34.6436 48.3815 33.7815 45.8789 33.7815C43.3761 33.7815 43.3761 34.6436 40.8735 34.6436C38.3724 34.6436 38.3724 33.7815 35.8714 33.7815C33.3725 33.7815 33.3725 34.6436 30.8737 34.6436C28.3735 34.6436 28.3735 33.7815 25.8733 33.7815C23.3737 33.7815 23.3737 34.6436 20.8742 34.6436C18.3747 34.6436 18.3746 33.7815 15.8752 33.7815C13.3758 33.7815 13.3756 34.6436 10.8761 34.6436C8.37752 34.6436 8.37752 33.7815 5.87919 33.7815C3.38203 33.7815 3.38203 34.6436 0.884766 34.6436V32.0574C3.38193 32.0574 3.38193 31.1953 5.87919 31.1953C8.37762 31.1953 8.37762 32.0574 10.8761 32.0574C13.3757 32.0574 13.3757 31.1953 15.8752 31.1953C18.3747 31.1953 18.3748 32.0574 20.8742 32.0574C23.3738 32.0574 23.3738 31.1953 25.8733 31.1953C28.3735 31.1953 28.3735 32.0574 30.8737 32.0574C33.3726 32.0574 33.3726 31.1953 35.8714 31.1953C38.3725 31.1953 38.3725 32.0574 40.8735 32.0574C43.3763 32.0574 43.3763 31.1953 45.8789 31.1953C48.3817 31.1953 48.3817 32.0574 50.8844 32.0574V34.6436Z" fill="#41479B"/>
<path d="M50.8844 24.2978C48.3815 24.2978 48.3815 23.4357 45.8789 23.4357C43.3761 23.4357 43.3761 24.2978 40.8735 24.2978C38.3724 24.2978 38.3724 23.4357 35.8714 23.4357C33.3725 23.4357 33.3725 24.2978 30.8737 24.2978C28.3735 24.2978 28.3735 23.4357 25.8733 23.4357C23.3737 23.4357 23.3737 24.2978 20.8742 24.2978C18.3747 24.2978 18.3746 23.4357 15.8752 23.4357C13.3758 23.4357 13.3756 24.2978 10.8761 24.2978C8.37752 24.2978 8.37752 23.4357 5.87919 23.4357C3.38203 23.4357 3.38203 24.2978 0.884766 24.2978V21.7117C3.38193 21.7117 3.38193 20.8496 5.87919 20.8496C8.37762 20.8496 8.37762 21.7117 10.8761 21.7117C13.3757 21.7117 13.3757 20.8496 15.8752 20.8496C18.3747 20.8496 18.3748 21.7117 20.8742 21.7117C23.3738 21.7117 23.3738 20.8496 25.8733 20.8496C28.3735 20.8496 28.3735 21.7117 30.8737 21.7117C33.3726 21.7117 33.3726 20.8496 35.8714 20.8496C38.3725 20.8496 38.3725 21.7117 40.8735 21.7117C43.3763 21.7117 43.3763 20.8496 45.8789 20.8496C48.3817 20.8496 48.3817 21.7117 50.8844 21.7117V24.2978Z" fill="#41479B"/>
<path d="M50.8844 19.1261C48.3815 19.1261 48.3815 18.264 45.8789 18.264C43.3761 18.264 43.3761 19.1261 40.8735 19.1261C38.3724 19.1261 38.3724 18.264 35.8714 18.264C33.3725 18.264 33.3725 19.1261 30.8737 19.1261C28.3735 19.1261 28.3735 18.264 25.8733 18.264C23.3737 18.264 23.3737 19.1261 20.8742 19.1261C18.3747 19.1261 18.3746 18.264 15.8752 18.264C13.3758 18.264 13.3756 19.1261 10.8761 19.1261C8.37752 19.1261 8.37752 18.264 5.87919 18.264C3.38203 18.264 3.38203 19.1261 0.884766 19.1261V16.5398C3.38193 16.5398 3.38193 15.6777 5.87919 15.6777C8.37762 15.6777 8.37762 16.5398 10.8761 16.5398C13.3757 16.5398 13.3757 15.6777 15.8752 15.6777C18.3747 15.6777 18.3748 16.5398 20.8742 16.5398C23.3738 16.5398 23.3738 15.6777 25.8733 15.6777C28.3735 15.6777 28.3735 16.5398 30.8737 16.5398C33.3726 16.5398 33.3726 15.6777 35.8714 15.6777C38.3725 15.6777 38.3725 16.5398 40.8735 16.5398C43.3763 16.5398 43.3763 15.6777 45.8789 15.6777C48.3817 15.6777 48.3817 16.5398 50.8844 16.5398V19.1261Z" fill="#41479B"/>
<path d="M50.8844 13.9542C48.3815 13.9542 48.3815 13.0921 45.8789 13.0921C43.3761 13.0921 43.3761 13.9542 40.8735 13.9542C38.3724 13.9542 38.3724 13.0921 35.8714 13.0921C33.3725 13.0921 33.3725 13.9542 30.8737 13.9542C28.3735 13.9542 28.3735 13.0921 25.8733 13.0921C23.3737 13.0921 23.3737 13.9542 20.8742 13.9542C18.3747 13.9542 18.3746 13.0921 15.8752 13.0921C13.3758 13.0921 13.3756 13.9542 10.8761 13.9542C8.37752 13.9542 8.37752 13.0921 5.87919 13.0921C3.38203 13.0921 3.38203 13.9542 0.884766 13.9542V11.368C3.38193 11.368 3.38193 10.5059 5.87919 10.5059C8.37762 10.5059 8.37762 11.368 10.8761 11.368C13.3757 11.368 13.3757 10.5059 15.8752 10.5059C18.3747 10.5059 18.3748 11.368 20.8742 11.368C23.3738 11.368 23.3738 10.5059 25.8733 10.5059C28.3735 10.5059 28.3735 11.368 30.8737 11.368C33.3726 11.368 33.3726 10.5059 35.8714 10.5059C38.3725 10.5059 38.3725 11.368 40.8735 11.368C43.3763 11.368 43.3763 10.5059 45.8789 10.5059C48.3817 10.5059 48.3817 11.368 50.8844 11.368V13.9542Z" fill="#41479B"/>
<path d="M50.8844 29.4698C48.3815 29.4698 48.3815 28.6077 45.8789 28.6077C43.3761 28.6077 43.3761 29.4698 40.8735 29.4698C38.3724 29.4698 38.3724 28.6077 35.8714 28.6077C33.3725 28.6077 33.3725 29.4698 30.8737 29.4698C28.3735 29.4698 28.3735 28.6077 25.8733 28.6077C23.3737 28.6077 23.3737 29.4698 20.8742 29.4698C18.3747 29.4698 18.3746 28.6077 15.8752 28.6077C13.3758 28.6077 13.3756 29.4698 10.8761 29.4698C8.37752 29.4698 8.37752 28.6077 5.87919 28.6077C3.38203 28.6077 3.38203 29.4698 0.884766 29.4698V26.8836C3.38193 26.8836 3.38193 26.0215 5.87919 26.0215C8.37762 26.0215 8.37762 26.8836 10.8761 26.8836C13.3757 26.8836 13.3757 26.0215 15.8752 26.0215C18.3747 26.0215 18.3748 26.8836 20.8742 26.8836C23.3738 26.8836 23.3738 26.0215 25.8733 26.0215C28.3735 26.0215 28.3735 26.8836 30.8737 26.8836C33.3726 26.8836 33.3726 26.0215 35.8714 26.0215C38.3725 26.0215 38.3725 26.8836 40.8735 26.8836C43.3763 26.8836 43.3763 26.0215 45.8789 26.0215C48.3817 26.0215 48.3817 26.8836 50.8844 26.8836V29.4698Z" fill="#41479B"/>
<path d="M50.8844 39.8155C48.3815 39.8155 48.3815 38.9534 45.8789 38.9534C43.3761 38.9534 43.3761 39.8155 40.8735 39.8155C38.3724 39.8155 38.3724 38.9534 35.8714 38.9534C33.3725 38.9534 33.3725 39.8155 30.8737 39.8155C28.3735 39.8155 28.3735 38.9534 25.8733 38.9534C23.3737 38.9534 23.3737 39.8155 20.8742 39.8155C18.3747 39.8155 18.3746 38.9534 15.8752 38.9534C13.3758 38.9534 13.3756 39.8155 10.8761 39.8155C8.37752 39.8155 8.37752 38.9534 5.87919 38.9534C3.38203 38.9534 3.38203 39.8155 0.884766 39.8155V37.2293C3.38193 37.2293 3.38193 36.3672 5.87919 36.3672C8.37762 36.3672 8.37762 37.2293 10.8761 37.2293C13.3757 37.2293 13.3757 36.3672 15.8752 36.3672C18.3747 36.3672 18.3748 37.2293 20.8742 37.2293C23.3738 37.2293 23.3738 36.3672 25.8733 36.3672C28.3735 36.3672 28.3735 37.2293 30.8737 37.2293C33.3726 37.2293 33.3726 36.3672 35.8714 36.3672C38.3725 36.3672 38.3725 37.2293 40.8735 37.2293C43.3763 37.2293 43.3763 36.3672 45.8789 36.3672C48.3817 36.3672 48.3817 37.2293 50.8844 37.2293V39.8155Z" fill="#41479B"/>
<path d="M25.0216 25.1605H1.7459C1.26982 25.1605 0.883789 24.7745 0.883789 24.2984V9.64336C0.883789 9.16728 1.26982 8.78125 1.7459 8.78125H25.0216C25.4977 8.78125 25.8837 9.16728 25.8837 9.64336V24.2985C25.8836 24.7747 25.4978 25.1605 25.0216 25.1605Z" fill="#41479B"/>
<path d="M25.0216 8.78125H23.5243L15.5389 14.013V8.78125H11.2286V14.013L3.24326 8.78125H1.7459C1.26982 8.78125 0.883789 9.16728 0.883789 9.64336V10.3271L7.73485 14.8157H0.883789V19.1261H7.73485L0.883789 23.6147V24.2984C0.883789 24.7745 1.26982 25.1605 1.7459 25.1605H3.24326L11.2286 19.9288V25.1605H15.5389V19.9288L23.5242 25.1605H25.0215C25.4976 25.1605 25.8836 24.7745 25.8836 24.2984V23.6146L19.0327 19.1261H25.8836V14.8157H19.0326L25.8836 10.3271V9.64336C25.8836 9.16728 25.4978 8.78125 25.0216 8.78125Z" fill="#F5F5F5"/>
<path d="M25.8836 15.6778H14.6768V8.78125H12.0906V15.6778H0.883789V18.2639H12.0906V25.1605H14.6768V18.2639H25.8836V15.6778Z" fill="#FF4B55"/>
<path d="M10.3675 14.8165L1.2956 8.92773C1.0542 9.08057 0.884766 9.33721 0.884766 9.64414V9.68887L8.78407 14.8165H10.3675Z" fill="#FF4B55"/>
<path d="M17.1234 14.8157L25.7537 9.21357C25.6037 8.95977 25.339 8.78125 25.0227 8.78125H24.8363L15.54 14.8157H17.1234Z" fill="#FF4B55"/>
<path d="M9.62254 19.127L1.00879 24.7183C1.15732 24.9783 1.42607 25.1614 1.74697 25.1614H1.90957L11.2059 19.127H9.62254Z" fill="#FF4B55"/>
<path d="M25.871 24.3671L17.7981 19.127H16.2148L25.3821 25.0775C25.6568 24.9501 25.8451 24.683 25.871 24.3671Z" fill="#FF4B55"/>
<path d="M38.8145 37.9905C38.485 37.9905 38.2178 37.7232 38.2178 37.3937V18.2969H39.4113V37.3938C39.4114 37.7234 39.1441 37.9905 38.8145 37.9905Z" fill="#965032"/>
<path d="M47.1698 20.6849L45.9762 20.0882L41.5817 19.539L44.3007 16.0432L44.7226 14.7771L43.4567 15.1992L39.9609 17.9181L39.4117 13.5237L38.8148 12.3301L38.2181 13.5237L37.6688 17.9181L34.173 15.1992L32.9071 14.7771L33.3291 16.0432L36.048 19.539L31.6535 20.0882L30.46 20.6849L31.6535 21.2817L36.048 21.8311L33.3291 25.3267L32.9071 26.5928L34.173 26.1709L37.9709 23.217L38.8148 21.8786L39.6588 23.217L43.4567 26.1709L44.7226 26.5928L44.3007 25.3267L41.5817 21.8311L45.9762 21.2817L47.1698 20.6849Z" fill="#73AF00"/>
<path d="M41.4125 27.6349C40.8762 27.0995 39.7277 27.2963 39.1128 27.4516V26.9507C39.1128 26.7859 38.9792 26.6523 38.8144 26.6523C38.6497 26.6523 38.5161 26.7859 38.5161 26.9507V27.4515C37.9013 27.2958 36.7529 27.099 36.2164 27.6349C35.7049 28.1461 36.0755 29.3788 36.4274 30.2358V31.0294C36.4274 31.2488 36.6053 31.4265 36.8245 31.4265H40.8046C41.0239 31.4265 41.2016 31.2486 41.2016 31.0294V30.2358C41.5534 29.3788 41.924 28.146 41.4125 27.6349ZM40.9905 28.0568C41.2183 28.2849 40.9632 29.2841 40.552 30.233H39.1127V28.068C39.7827 27.8782 40.7005 27.7661 40.9905 28.0568ZM36.6383 28.0568C36.9281 27.7662 37.8459 27.8783 38.5161 28.068V30.2329H37.0768C36.6656 29.2841 36.4104 28.2849 36.6383 28.0568Z" fill="#FFE15A"/>
</g>
<defs>
<clipPath id="clip0_3462_32206">
<rect width="50" height="50" fill="white" transform="translate(0.882812 0.160156)"/>
</clipPath>
</defs>
</svg>
