<svg width="51" height="51" viewBox="0 0 51 51" fill="none" xmlns="http://www.w3.org/2000/svg">
<g clip-path="url(#clip0_3462_32226)">
<path d="M50.5896 25.1606H0.595703V9.64521C0.595703 9.16924 0.981638 8.7832 1.45771 8.7832H49.7276C50.2036 8.7832 50.5896 9.16914 50.5896 9.64521V25.1605V25.1606Z" fill="#41479B"/>
<path d="M0.594727 25.1602H50.5888V40.6755C50.5888 41.1514 50.2028 41.5375 49.7268 41.5375H1.45673C0.980759 41.5375 0.594727 41.1515 0.594727 40.6755V25.1602Z" fill="#F5F5F5"/>
<path d="M49.7278 8.7832H44.5561L28.5874 14.0143V8.7832H22.5984V14.0143L6.62954 8.7832H1.45771C0.981735 8.7832 0.595703 9.16914 0.595703 9.64521V10.329L14.2961 14.817H0.595801V19.1269H14.2962L0.595801 23.6148V25.1605H6.62954L22.5983 19.9294V25.1605H28.5872V19.9294L44.5559 25.1605H50.5896V23.6148L36.8893 19.1268H50.5896V14.8169H36.8893L50.5896 10.3289V9.64511C50.5897 9.16914 50.2038 8.7832 49.7278 8.7832Z" fill="#F5F5F5"/>
<path d="M50.5895 15.6777H0.595703V18.2637H50.5895V15.6777Z" fill="#FF4B55"/>
<path d="M26.8857 8.7832H24.2998V25.161H26.8857V8.7832Z" fill="#FF4B55"/>
<path d="M30.0121 15.47L28.7405 16.1273L28.2383 14.9591C28.1865 14.8384 27.9785 14.817 27.8876 14.9226L26.8519 16.1273L25.769 14.4477C25.6963 14.3351 25.4893 14.3351 25.4166 14.4477L24.3337 16.1273L23.298 14.9226C23.2071 14.817 22.9991 14.8384 22.9473 14.9591L22.4451 16.1273L21.1735 15.47C21.0055 15.3832 20.7978 15.5253 20.8881 15.6653L22.1302 17.5919H22.0764C21.9323 17.5919 21.8154 17.6826 21.8154 17.7944V18.3659C21.8154 18.4777 21.9323 18.5683 22.0764 18.5683H29.1089C29.253 18.5683 29.3699 18.4777 29.3699 18.3659V17.7944C29.3699 17.6826 29.253 17.5919 29.1089 17.5919H29.0551L30.2973 15.6653C30.3879 15.5253 30.1801 15.3832 30.0121 15.47Z" fill="#FFE15A"/>
<path d="M18.069 19.127L0.595703 24.7963V25.1608H2.64491L21.2354 19.127H18.069Z" fill="#FF4B55"/>
<path d="M50.5896 25.1608V24.3753L34.4184 19.127H31.252L49.8384 25.1608H50.5896Z" fill="#FF4B55"/>
<path d="M50.5832 29.9016C48.08 29.9016 48.08 29.1474 45.5767 29.1474C43.0752 29.1474 43.0752 29.9016 40.5736 29.9016C38.0742 29.9016 38.0742 29.1474 35.5748 29.1474C33.0758 29.1474 33.0758 29.9016 30.5768 29.9016C28.0771 29.9016 28.0771 29.1474 25.5774 29.1474C23.0778 29.1474 23.0778 29.9016 20.5781 29.9016C18.0784 29.9016 18.0784 29.1474 15.5787 29.1474C13.0801 29.1474 13.0801 29.9016 10.5815 29.9016C8.08412 29.9016 8.08412 29.1474 5.58668 29.1474C3.08787 29.1474 3.08787 29.9016 0.588867 29.9016V27.639C3.08768 27.639 3.08768 26.8848 5.58668 26.8848C8.08402 26.8848 8.08402 27.639 10.5815 27.639C13.0801 27.639 13.0801 26.8848 15.5787 26.8848C18.0784 26.8848 18.0784 27.639 20.5781 27.639C23.0778 27.639 23.0778 26.8848 25.5774 26.8848C28.0771 26.8848 28.0771 27.639 30.5768 27.639C33.0758 27.639 33.0758 26.8848 35.5748 26.8848C38.0742 26.8848 38.0742 27.639 40.5736 27.639C43.0752 27.639 43.0752 26.8848 45.5767 26.8848C48.0799 26.8848 48.0799 27.639 50.5832 27.639V29.9016V29.9016Z" fill="#41479B"/>
<path d="M50.5832 34.427C48.08 34.427 48.08 33.6728 45.5767 33.6728C43.0752 33.6728 43.0752 34.427 40.5736 34.427C38.0742 34.427 38.0742 33.6728 35.5748 33.6728C33.0758 33.6728 33.0758 34.427 30.5768 34.427C28.0771 34.427 28.0771 33.6728 25.5774 33.6728C23.0778 33.6728 23.0778 34.427 20.5781 34.427C18.0784 34.427 18.0784 33.6728 15.5787 33.6728C13.0801 33.6728 13.0801 34.427 10.5815 34.427C8.08412 34.427 8.08412 33.6728 5.58668 33.6728C3.08787 33.6728 3.08787 34.427 0.588867 34.427V32.1644C3.08768 32.1644 3.08768 31.4102 5.58668 31.4102C8.08402 31.4102 8.08402 32.1644 10.5815 32.1644C13.0801 32.1644 13.0801 31.4102 15.5787 31.4102C18.0784 31.4102 18.0784 32.1644 20.5781 32.1644C23.0778 32.1644 23.0778 31.4102 25.5774 31.4102C28.0771 31.4102 28.0771 32.1644 30.5768 32.1644C33.0758 32.1644 33.0758 31.4102 35.5748 31.4102C38.0742 31.4102 38.0742 32.1644 40.5736 32.1644C43.0752 32.1644 43.0752 31.4102 45.5767 31.4102C48.0799 31.4102 48.0799 32.1644 50.5832 32.1644V34.427V34.427Z" fill="#41479B"/>
<path d="M50.5832 38.9524C48.08 38.9524 48.08 38.1982 45.5767 38.1982C43.0752 38.1982 43.0752 38.9524 40.5736 38.9524C38.0742 38.9524 38.0742 38.1982 35.5748 38.1982C33.0758 38.1982 33.0758 38.9524 30.5768 38.9524C28.0771 38.9524 28.0771 38.1982 25.5774 38.1982C23.0778 38.1982 23.0778 38.9524 20.5781 38.9524C18.0784 38.9524 18.0784 38.1982 15.5787 38.1982C13.0801 38.1982 13.0801 38.9524 10.5815 38.9524C8.08412 38.9524 8.08412 38.1982 5.58668 38.1982C3.08787 38.1982 3.08787 38.9524 0.588867 38.9524V36.6897C3.08768 36.6897 3.08768 35.9355 5.58668 35.9355C8.08402 35.9355 8.08402 36.6897 10.5815 36.6897C13.0801 36.6897 13.0801 35.9355 15.5787 35.9355C18.0784 35.9355 18.0784 36.6897 20.5781 36.6897C23.0778 36.6897 23.0778 35.9355 25.5774 35.9355C28.0771 35.9355 28.0771 36.6897 30.5768 36.6897C33.0758 36.6897 33.0758 35.9355 35.5748 35.9355C38.0742 35.9355 38.0742 36.6897 40.5736 36.6897C43.0752 36.6897 43.0752 35.9355 45.5767 35.9355C48.0799 35.9355 48.0799 36.6897 50.5832 36.6897V38.9524V38.9524Z" fill="#41479B"/>
<path d="M19.5588 14.8173L1.14941 8.8457C0.826561 8.97021 0.595703 9.27871 0.595703 9.6455V9.69023L16.3925 14.8173H19.5588Z" fill="#FF4B55"/>
<path d="M33.0687 14.8169L50.4364 9.18281C50.2824 8.94775 50.0295 8.7832 49.7275 8.7832H48.4926L29.9023 14.8169H33.0687Z" fill="#FF4B55"/>
<path d="M39.8137 40.3758C41.6241 39.4434 42.2755 38.0449 42.5126 37.5254C42.8718 36.7384 44.5386 36.1037 44.5386 36.1037C44.5386 36.1037 42.4797 36.1134 41.3777 37.5441C40.3617 38.863 38.5327 38.9765 36.7686 39.9856C36.6004 39.7742 36.4274 39.567 36.2478 39.3655L41.7444 32.7117L35.0906 38.2083C34.8301 37.976 34.5608 37.7537 34.2837 37.5407C34.4589 37.0853 34.8045 36.3814 35.4832 35.5798C36.799 34.0256 36.8656 32.4843 36.8858 31.9136C36.9167 31.0491 38.2134 29.8248 38.2134 29.8248C38.2134 29.8248 36.3149 30.6216 35.8443 32.3651C35.4107 33.9716 33.7658 34.7763 32.5224 36.3821C32.2864 36.2508 32.0475 36.1242 31.8035 36.0061L34.334 27.7602L30.2912 35.3824C29.9623 35.2678 29.6284 35.1639 29.2891 35.0732C29.277 34.5851 29.3275 33.8038 29.6469 32.806C30.2677 30.8665 29.7394 29.4171 29.5397 28.882C29.2372 28.0715 29.9669 26.4441 29.9669 26.4441C29.9669 26.4441 28.5178 27.9069 28.7502 29.6977C28.9644 31.3483 27.7519 32.7217 27.2179 34.682C26.9508 34.6517 26.682 34.6276 26.4107 34.6121L25.5924 26.0215L24.7742 34.6121C24.4228 34.6321 24.0757 34.6671 23.7316 34.7119C23.5335 34.266 23.28 33.5238 23.1931 32.4769C23.0245 30.4475 21.9817 29.3105 21.5926 28.8927C21.0029 28.2597 21.0543 26.4769 21.0543 26.4769C21.0543 26.4769 20.2753 28.3827 21.1754 29.9483C22.0048 31.391 21.4106 33.1236 21.667 35.1383C21.4061 35.2127 21.1483 35.2938 20.8939 35.3825L16.8512 27.7603L19.3816 36.0062C19.0661 36.1588 18.7591 36.3259 18.4569 36.5005C18.1032 36.1643 17.5855 35.5756 17.105 34.6425C16.1726 32.8321 14.7741 32.1807 14.2546 31.9436C13.4676 31.5844 12.833 29.9177 12.833 29.9177C12.833 29.9177 12.8425 31.9766 14.2733 33.0786C15.5922 34.0945 15.7057 35.9237 16.7148 37.6877C16.5033 37.8559 16.296 38.0289 16.0947 38.2085L9.4406 32.7115L14.9372 39.3653C14.7049 39.6258 14.4827 39.8951 14.2697 40.1723C13.8142 39.9971 13.1102 39.6513 12.3087 38.9728C10.7546 37.6569 9.21326 37.5903 8.64246 37.57C7.77792 37.5394 6.55371 36.2425 6.55371 36.2425C6.55371 36.2425 7.35058 38.141 9.09402 38.6116C10.5351 39.0006 11.3358 40.3625 12.6435 41.5367H38.152C38.5043 41.2004 39.0328 40.778 39.8137 40.3758Z" fill="#FFE15A"/>
<path d="M44.0285 41.5357L46.6957 40.1211L42.0859 41.5357H44.0285Z" fill="#FFE15A"/>
<path d="M4.48926 40.1211L7.15652 41.5357H9.09918L4.48926 40.1211Z" fill="#FFE15A"/>
</g>
<defs>
<clipPath id="clip0_3462_32226">
<rect width="50" height="50" fill="white" transform="translate(0.589844 0.160156)"/>
</clipPath>
</defs>
</svg>
