<svg width="50" height="51" viewBox="0 0 50 51" fill="none" xmlns="http://www.w3.org/2000/svg">
<g clip-path="url(#clip0_3462_32149)">
<path d="M49.1378 41.8328H0.862108C0.386034 41.8328 0 41.4467 0 40.9706V9.93633C0 9.46025 0.386034 9.07422 0.862108 9.07422H49.1379C49.614 9.07422 50 9.46025 50 9.93633V40.9706C49.9999 41.4468 49.6139 41.8328 49.1378 41.8328Z" fill="#FFE15A"/>
<path d="M0 9.93564V15.108L49.9999 35.7976V29.7631L0.388476 9.23438C0.159668 9.38926 0 9.63838 0 9.93564Z" fill="#F5F5F5"/>
<path d="M0 21.1419L49.6113 41.6707C49.8401 41.5157 49.9998 41.2665 49.9998 40.9694V35.797L0 15.1074V21.1419Z" fill="#464655"/>
<path d="M29.842 23.9226L29.8427 23.8982C29.8427 23.8982 29.8313 23.7802 29.8097 23.5586C29.8031 23.4478 29.7776 23.313 29.7441 23.1558C29.7181 22.9973 29.6679 22.8199 29.6034 22.6242C29.4739 22.2358 29.2746 21.7722 28.9305 21.3232C28.8889 21.2678 28.8397 21.213 28.7943 21.1578C28.9896 20.934 29.18 20.6736 29.3596 20.3595C29.3596 20.3595 28.3752 20.4046 27.2696 19.9222C26.9047 19.7321 26.5083 19.5762 26.0736 19.474L25.8673 18.6491C25.8232 18.4728 25.6646 18.3489 25.4828 18.3489H25.1977V17.9526H26.585L26.1887 17.1599L26.585 16.3671H25.1977V15.9707H24.8012V18.3489H24.516C24.3341 18.3489 24.1756 18.4728 24.1316 18.6491L23.9298 19.4562C23.662 19.5133 23.3953 19.5856 23.1364 19.6957C22.9246 19.7805 22.7197 19.8867 22.5197 20.0057C21.5029 20.396 20.6392 20.3596 20.6392 20.3596C20.8187 20.6735 21.0088 20.9338 21.2039 21.1575C21.1644 21.2056 21.1205 21.2487 21.0823 21.2981C20.8122 21.6648 20.5966 22.0771 20.4321 22.5149C20.2755 22.94 20.1865 23.4796 20.1568 23.874L20.156 24.2554C20.152 24.3751 20.1657 24.4937 20.1782 24.6128C20.1939 24.8527 20.2469 25.0869 20.2969 25.3228C20.4205 25.7875 20.6014 26.2395 20.848 26.6546C21.3415 27.4859 22.0943 28.1413 22.9383 28.5476C23.3743 28.7397 23.7863 28.8861 24.2778 28.9559C24.5396 29.0047 24.7027 29.0039 24.8966 29.0208L24.9319 29.0233L24.9495 29.0246L25.007 29.0261L25.0896 29.0226L25.254 29.0152C25.3632 29.0079 25.4724 29.0093 25.5793 28.9933C26.4418 28.8987 27.2193 28.5634 27.8263 28.1279C28.4332 27.6847 28.8691 27.1442 29.1678 26.629C29.4711 26.1133 29.6275 25.6142 29.724 25.2055C29.7701 25.0014 29.8044 24.8148 29.8169 24.6394C29.8365 24.4658 29.848 24.3236 29.8428 24.2307C29.8424 24.0298 29.842 23.9226 29.842 23.9226ZM22.6381 26.7161C22.3627 26.5014 22.1138 26.2456 21.8868 25.9634C21.6684 25.6744 21.4939 25.3484 21.3569 25.0018C21.2277 24.6627 21.1566 24.255 21.1216 23.9226C21.1119 23.4614 21.1335 23.1469 21.2216 22.7536C21.3176 22.3801 21.4576 22.0144 21.6525 21.6771C21.6638 21.6576 21.6791 21.641 21.6907 21.6218C22.5918 22.3257 23.5432 22.2756 24.2067 21.934V22.7092C24.4255 22.7092 24.6029 23.1528 24.6029 23.7001C24.6029 24.2474 24.4255 24.691 24.2067 24.691V25.0873C24.9501 26.0784 24.609 26.9147 24.1522 27.4023C23.9448 27.3573 23.7297 27.2968 23.5285 27.2176C23.2165 27.0963 22.9201 26.9215 22.6381 26.7161ZM28.8767 23.8781C28.876 23.884 28.8654 23.9858 28.8453 24.1801C28.8393 24.2884 28.8153 24.3909 28.7877 24.5045C28.768 24.619 28.7261 24.7577 28.6723 24.9149C28.565 25.2229 28.4035 25.5907 28.1229 25.9431C27.8485 26.2965 27.4785 26.6455 27.0169 26.9186C26.6659 27.1269 26.2534 27.2679 25.8176 27.3679C25.3762 26.8761 25.0653 26.0566 25.7924 25.0874V24.6911C25.5736 24.6911 25.3961 24.2474 25.3961 23.7002C25.3961 23.1529 25.5736 22.7093 25.7924 22.7093V21.9341C26.4567 22.2761 27.4095 22.326 28.3115 21.6195C28.327 21.6455 28.3458 21.6719 28.3604 21.6976C28.6002 22.1168 28.7188 22.5199 28.7931 22.8481C28.8285 23.0139 28.8546 23.1617 28.8608 23.2931C28.8744 23.423 28.8844 23.533 28.8787 23.6235C28.8774 23.7771 28.8768 23.855 28.8767 23.8781Z" fill="#FF4B55"/>
<path d="M24.999 29.843C23.5354 29.843 22.2079 29.2728 21.2171 28.3463C21.0351 28.1763 20.7474 28.1969 20.5852 28.3859L19.0675 30.1567C18.9061 30.345 19.0399 30.6357 19.2877 30.6357H20.2423L21.5148 31.2721C21.6936 31.3615 21.911 31.3037 22.022 31.1374L22.4315 30.5229C23.2231 30.8496 24.0894 31.0321 24.9989 31.0321C25.9084 31.0321 26.7747 30.8496 27.5663 30.5229L27.9759 31.1374C28.0867 31.3038 28.3041 31.3614 28.483 31.2721L29.7555 30.6357H30.7101C30.958 30.6357 31.0918 30.345 30.9303 30.1567L29.4126 28.3859C29.2505 28.1968 28.9627 28.1763 28.7807 28.3463C27.7902 29.2728 26.4628 29.843 24.999 29.843Z" fill="#FF4B55"/>
<path d="M19.4497 28.2581H17.4678L17.8641 24.6906C17.8641 24.6906 16.4767 23.9969 16.622 21.9605C16.6397 21.7129 16.849 21.5195 17.0973 21.5195H17.4356C17.6692 21.5195 17.865 21.6889 17.9036 21.9192C17.987 22.4164 18.2465 23.2325 19.0532 23.5015L19.4497 28.2581Z" fill="#FF4B55"/>
<path d="M30.5479 28.2581H32.5298L32.1335 24.6906C32.1335 24.6906 33.5209 23.9969 33.3756 21.9605C33.3579 21.7129 33.1485 21.5195 32.9003 21.5195H32.562C32.3284 21.5195 32.1326 21.6889 32.0939 21.9192C32.0105 22.4164 31.7511 23.2325 30.9443 23.5015L30.5479 28.2581Z" fill="#FF4B55"/>
<path d="M19.6486 28.6541H17.2704C17.1609 28.6541 17.0723 28.5654 17.0723 28.456C17.0723 28.3465 17.1609 28.2578 17.2704 28.2578H19.6486C19.7581 28.2578 19.8468 28.3465 19.8468 28.456C19.8468 28.5653 19.758 28.6541 19.6486 28.6541Z" fill="#FFE15A"/>
<path d="M32.7287 28.6541H30.3505C30.241 28.6541 30.1523 28.5654 30.1523 28.456C30.1523 28.3465 30.241 28.2578 30.3505 28.2578H32.7287C32.8382 28.2578 32.9269 28.3465 32.9269 28.456C32.9269 28.5653 32.8382 28.6541 32.7287 28.6541Z" fill="#FFE15A"/>
</g>
<defs>
<clipPath id="clip0_3462_32149">
<rect width="50" height="50" fill="white" transform="translate(0 0.453125)"/>
</clipPath>
</defs>
</svg>
