<svg width="51" height="51" viewBox="0 0 51 51" fill="none" xmlns="http://www.w3.org/2000/svg">
<g clip-path="url(#clip0_3462_32141)">
<path d="M50.7206 25.4535H0.720703V9.93633C0.720703 9.46025 1.10674 9.07422 1.58281 9.07422H49.8586C50.3347 9.07422 50.7207 9.46025 50.7207 9.93633L50.7206 25.4535Z" fill="#FF4B55"/>
<path d="M0.720703 25.4531H50.7206V40.9703C50.7206 41.4464 50.3346 41.8324 49.8585 41.8324H1.58281C1.10674 41.8324 0.720703 41.4464 0.720703 40.9703V25.4531Z" fill="#73AF00"/>
<path d="M25.9833 20.7515L27.0679 24.0034L30.4958 24.0301C30.7614 24.0321 30.8715 24.371 30.6579 24.5288L27.9003 26.5652L28.9344 29.8337C29.0145 30.0869 28.7262 30.2964 28.5102 30.1419L25.7212 28.1484L22.9324 30.1419C22.7163 30.2963 22.428 30.0868 22.5081 29.8337L23.5422 26.5652L20.7846 24.5288C20.5709 24.3711 20.6811 24.0321 20.9467 24.0301L24.3746 24.0034L25.4592 20.7515C25.5429 20.4995 25.8993 20.4995 25.9833 20.7515Z" fill="#FFE15A"/>
</g>
<defs>
<clipPath id="clip0_3462_32141">
<rect width="50" height="50" fill="white" transform="translate(0.720703 0.453125)"/>
</clipPath>
</defs>
</svg>
