<svg width="51" height="51" viewBox="0 0 51 51" fill="none" xmlns="http://www.w3.org/2000/svg">
<g clip-path="url(#clip0_3462_32129)">
<path d="M49.2853 9.06836H1.00957C0.533495 9.06836 0.147461 9.45439 0.147461 9.93047V40.9648C0.147461 41.4409 0.533495 41.8269 1.00957 41.8269H49.2854C49.7614 41.8269 50.1475 41.4409 50.1475 40.9648V9.93047C50.1474 9.45439 49.7613 9.06836 49.2853 9.06836Z" fill="#73AF00"/>
<path d="M4.08008 9.06836L25.1477 22.8714L46.2154 9.06836H4.08008Z" fill="#FF4B55"/>
<path d="M46.2164 41.8362L25.1487 28.0332L4.08105 41.8362H46.2164Z" fill="#FF4B55"/>
<path d="M50.1474 9.93047C50.1474 9.45439 49.7613 9.06836 49.2853 9.06836H46.2151L30.1958 19.5638C28.8384 18.398 27.0771 17.6891 25.1474 17.6891C23.2177 17.6891 21.4564 18.3979 20.099 19.5638L4.07968 9.06836H1.00957C0.533495 9.06836 0.147461 9.45439 0.147461 9.93047V11.6447L17.7312 23.165C17.5093 23.8868 17.3887 24.6532 17.3887 25.4476C17.3887 26.2422 17.5093 27.0084 17.7312 27.7302L0.147461 39.2506V40.9649C0.147461 41.441 0.533495 41.827 1.00957 41.827H4.07968L20.0989 31.3317C21.4563 32.4974 23.2176 33.2064 25.1473 33.2064C27.077 33.2064 28.8383 32.4976 30.1957 31.3317L46.215 41.827H49.2851C49.7611 41.827 50.1472 41.441 50.1472 40.9649V39.2506L32.5635 27.7303C32.7854 27.0086 32.906 26.2422 32.906 25.4477C32.906 24.6532 32.7854 23.887 32.5635 23.1651L50.1473 11.6448L50.1474 9.93047Z" fill="#F5F5F5"/>
<path d="M24.5889 22.9664L23.4199 22.9967L24.0303 21.999L23.4199 21.0015L24.5889 21.0317L25.1474 20.0039L25.7061 21.0317L26.875 21.0015L26.2645 21.999L26.875 22.9967L25.7061 22.9664L25.1474 23.9942L24.5889 22.9664Z" fill="#FF4B55"/>
<path d="M25.1476 20.2758L25.6303 21.1637L26.6406 21.1378L26.1131 21.9999L26.6406 22.862L25.6303 22.8361L25.1476 23.724L24.6648 22.8361L23.6545 22.862L24.182 21.9999L23.6545 21.1378L24.6648 21.1637L25.1476 20.2758ZM25.1476 19.7344L24.9203 20.1522L24.5132 20.9012L23.661 20.8793L23.1855 20.8671L23.4338 21.2729L23.8788 22L23.4338 22.727L23.1855 23.1329L23.661 23.1207L24.5132 23.0988L24.9203 23.8477L25.1476 24.2656L25.3748 23.8477L25.7819 23.0988L26.6341 23.1207L27.1097 23.1329L26.8614 22.727L26.4164 22L26.8614 21.2729L27.1097 20.8671L26.6341 20.8793L25.7819 20.9012L25.3748 20.1522L25.1476 19.7344Z" fill="#73AF00"/>
<path d="M21.3789 28.6812L20.21 28.7116L20.8203 27.714L20.21 26.7164L21.3789 26.7467L21.9375 25.7188L22.4961 26.7467L23.6649 26.7164L23.0546 27.714L23.6649 28.7116L22.4961 28.6812L21.9375 29.7091L21.3789 28.6812Z" fill="#FF4B55"/>
<path d="M21.9377 25.9888L22.4204 26.8767L23.4308 26.8508L22.9032 27.7129L23.4308 28.575L22.4204 28.5491L21.9377 29.437L21.455 28.5491L20.4446 28.575L20.9722 27.7129L20.4446 26.8508L21.455 26.8767L21.9377 25.9888ZM21.9377 25.4473L21.7104 25.8651L21.3033 26.6141L20.4512 26.5922L19.9756 26.58L20.2238 26.9858L20.6688 27.7129L20.2238 28.4399L19.9756 28.8458L20.4512 28.8336L21.3033 28.8117L21.7104 29.5606L21.9377 29.9785L22.1649 29.5606L22.5721 28.8117L23.4242 28.8336L23.8998 28.8458L23.6516 28.4399L23.2065 27.7129L23.6516 26.9858L23.8998 26.58L23.4242 26.5922L22.5721 26.6141L22.1649 25.8651L21.9377 25.4473Z" fill="#73AF00"/>
<path d="M27.7998 28.6812L26.6309 28.7116L27.2412 27.714L26.6309 26.7164L27.7998 26.7467L28.3583 25.7188L28.917 26.7467L30.0859 26.7164L29.4756 27.714L30.0859 28.7116L28.917 28.6812L28.3583 29.7091L27.7998 28.6812Z" fill="#FF4B55"/>
<path d="M28.3576 25.9888L28.8403 26.8767L29.8507 26.8508L29.3231 27.7129L29.8507 28.575L28.8403 28.5491L28.3576 29.437L27.8749 28.5491L26.8646 28.575L27.3921 27.7129L26.8646 26.8508L27.8749 26.8767L28.3576 25.9888ZM28.3576 25.4473L28.1304 25.8651L27.7232 26.6141L26.8711 26.5922L26.3955 26.58L26.6437 26.9858L27.0888 27.7129L26.6437 28.4399L26.3955 28.8458L26.8711 28.8336L27.7232 28.8117L28.1304 29.5606L28.3576 29.9785L28.5849 29.5606L28.992 28.8117L29.8441 28.8336L30.3197 28.8458L30.0715 28.4399L29.6265 27.7129L30.0715 26.9858L30.3197 26.58L29.8441 26.5922L28.992 26.6141L28.5849 25.8651L28.3576 25.4473Z" fill="#73AF00"/>
</g>
<defs>
<clipPath id="clip0_3462_32129">
<rect width="50" height="50" fill="white" transform="translate(0.148438 0.453125)"/>
</clipPath>
</defs>
</svg>
