<svg width="51" height="51" viewBox="0 0 51 51" fill="none" xmlns="http://www.w3.org/2000/svg">
<g clip-path="url(#clip0_3462_32125)">
<path d="M49.5792 41.8328H1.30351C0.827441 41.8328 0.441406 41.4467 0.441406 40.9706V9.93633C0.441406 9.46025 0.827441 9.07422 1.30351 9.07422H49.5793C50.0554 9.07422 50.4414 9.46025 50.4414 9.93633V40.9706C50.4413 41.4468 50.0553 41.8328 49.5792 41.8328Z" fill="#41479B"/>
<path d="M50.4413 16.832H0.441406V34.0732H50.4413V16.832Z" fill="#FF4B55"/>
<path d="M36.85 31.9891V30.7667H36.4425V29.9518H36.035V29.1371H35.6276V28.3222H34.4053V25.8777H34.4052L34.8128 25.4703V24.248H34.4053V23.4332H33.9979V22.2109H33.5906V21.3961H33.1832V20.5812H32.7757V20.1738H31.9608V20.5812H31.5534V21.3961H31.146V22.2109H30.7386V23.4332H30.3312V24.248H27.8866V23.0258H27.4793V21.8035H27.0718V20.5812H26.6644V19.7664H26.257V18.9516H25.8496V18.5441H25.6459V18.1367H25.2385V18.5441H25.0346V18.9516H24.6273V19.7664H24.2199V20.5812H23.8125V21.8035H23.4051V23.0258H22.9976V24.248H20.5531V23.4332H20.1457V22.2109H19.7383V21.3961H19.3308V20.5812H18.9234V20.1738H18.1086V20.5812H17.7012V21.3961H17.2937V22.2109H16.8863V23.4332H16.4789V24.248H16.0715V25.4703L16.4787 25.8777H16.4789V28.3222H15.2567V29.1371H14.8493V29.9518H14.4418V30.7667H14.0344V31.9891H13.627V33.2112H37.2573V31.9891H36.85Z" fill="#F5F5F5"/>
</g>
<defs>
<clipPath id="clip0_3462_32125">
<rect width="50" height="50" fill="white" transform="translate(0.441406 0.453125)"/>
</clipPath>
</defs>
</svg>
