<svg width="51" height="51" viewBox="0 0 51 51" fill="none" xmlns="http://www.w3.org/2000/svg">
<g clip-path="url(#clip0_3462_32119)">
<path d="M17.5349 41.8328H1.73027C1.2542 41.8328 0.868164 41.4468 0.868164 40.9707V9.93633C0.868164 9.46025 1.2542 9.07422 1.73027 9.07422H17.5349V41.8328Z" fill="#73AF00"/>
<path d="M34.2022 9.07422H17.5352V41.833H34.2022V9.07422Z" fill="#FF4B55"/>
<path d="M50.0067 41.8328H34.2021V9.07422H50.0067C50.4828 9.07422 50.8688 9.46025 50.8688 9.93633V40.9707C50.8688 41.4469 50.4828 41.8328 50.0067 41.8328Z" fill="#FFE15A"/>
<path d="M26.0483 22.293L26.7889 24.5138L29.1298 24.5319C29.3112 24.5333 29.3864 24.7648 29.2405 24.8725L27.3573 26.2631L28.0634 28.4952C28.1182 28.6681 27.9213 28.8111 27.7737 28.7056L25.8692 27.3444L23.9647 28.7057C23.8171 28.8112 23.6202 28.6681 23.6749 28.4953L24.3811 26.2632L22.4979 24.8726C22.352 24.7649 22.4272 24.5334 22.6085 24.532L24.9494 24.5139L25.6901 22.2931C25.7476 22.1211 25.9909 22.1211 26.0483 22.293Z" fill="#FFE15A"/>
</g>
<defs>
<clipPath id="clip0_3462_32119">
<rect width="50" height="50" fill="white" transform="translate(0.869141 0.453125)"/>
</clipPath>
</defs>
</svg>
