<svg width="51" height="51" viewBox="0 0 51 51" fill="none" xmlns="http://www.w3.org/2000/svg">
<g clip-path="url(#clip0_3462_32111)">
<path d="M49.3009 41.8328H1.02519C0.54912 41.8328 0.163086 41.4468 0.163086 40.9707V9.93633C0.163086 9.46025 0.54912 9.07422 1.02519 9.07422H49.301C49.7771 9.07422 50.1631 9.46025 50.1631 9.93633V40.9707C50.163 41.4469 49.777 41.8328 49.3009 41.8328Z" fill="#F5F5F5"/>
<path d="M38.957 9.07422H11.3711V41.833H38.957V9.07422Z" fill="#F5F5F5"/>
<path d="M1.02519 9.07422C0.54912 9.07422 0.163086 9.46016 0.163086 9.93623V40.9706C0.163086 41.4467 0.54912 41.8328 1.02519 41.8328H11.37V9.07422H1.02519Z" fill="#FF4B55"/>
<path d="M49.3018 9.07422H38.957V41.8328H49.3018C49.7779 41.8328 50.1639 41.4467 50.1639 40.9706V9.93623C50.1639 9.46016 49.7779 9.07422 49.3018 9.07422Z" fill="#FF4B55"/>
<path d="M30.3953 29.2393L35.5108 26.3163L34.337 25.7294C34.0078 25.5647 33.8193 25.2093 33.868 24.8443L34.25 21.9808L32.0842 22.6109C31.6058 22.7502 31.1093 22.4558 31.0017 21.9694L30.7943 21.0319L28.7608 23.4118C28.4789 23.7417 27.9419 23.4897 28.0154 23.062L28.8839 18.0124L27.5543 18.3761C27.1659 18.4823 26.7557 18.3056 26.5664 17.9503L25.1663 15.3262V15.3223L25.1653 15.3242L25.1642 15.3223V15.3262L23.7641 17.9503C23.5746 18.3055 23.1644 18.4822 22.7761 18.3761L21.4464 18.0124L22.3148 23.062C22.3884 23.4895 21.8513 23.7416 21.5693 23.4118L19.5358 21.0319L19.3284 21.9694C19.2208 22.4559 18.7243 22.7501 18.2459 22.6109L16.0802 21.9808L16.4621 24.8443C16.5108 25.2092 16.3224 25.5647 15.9932 25.7294L14.8193 26.3163L19.9349 29.2394C20.4647 29.5423 20.697 30.1844 20.4832 30.756L20.0459 31.9257L24.4292 31.5514C24.6718 31.5307 24.8782 31.726 24.8711 31.9693L24.733 36.6611H25.5951L25.4569 31.9691C25.4498 31.7258 25.6562 31.5305 25.8988 31.5512L30.2842 31.9257L29.8468 30.756C29.6333 30.1843 29.8654 29.5421 30.3953 29.2393Z" fill="#FF4B55"/>
</g>
<defs>
<clipPath id="clip0_3462_32111">
<rect width="50" height="50" fill="white" transform="translate(0.162109 0.453125)"/>
</clipPath>
</defs>
</svg>
