<svg width="51" height="51" viewBox="0 0 51 51" fill="none" xmlns="http://www.w3.org/2000/svg">
<g clip-path="url(#clip0_3462_32083)">
<path d="M17.2565 41.8328H1.45195C0.975879 41.8328 0.589844 41.4468 0.589844 40.9707V9.93633C0.589844 9.46025 0.975879 9.07422 1.45195 9.07422H17.2565V41.8328Z" fill="#F5F5F5"/>
<path d="M33.9238 9.07422H17.2568V41.833H33.9238V9.07422Z" fill="#4173CD"/>
<path d="M49.7274 41.8328H33.9229V9.07422H49.7274C50.2035 9.07422 50.5895 9.46025 50.5895 9.93633V40.9707C50.5895 41.4469 50.2035 41.8328 49.7274 41.8328Z" fill="#FFE15A"/>
<path d="M22.9875 26.4087C22.9775 26.6661 22.5915 26.775 22.5915 26.775C22.552 26.3395 22.9975 25.5376 23.0864 25.4684C23.1756 25.399 23.5319 25.0724 23.1756 25.1416C22.8192 25.211 22.4727 26.0127 22.3935 26.1513C22.3143 26.2899 22.1262 26.28 22.1262 26.28C22.1262 26.28 22.1262 25.6365 22.1262 25.498C22.1262 25.3594 22.7399 25.0624 22.7399 25.0624C22.7399 25.0624 22.839 24.4685 22.7499 24.4091C22.6607 24.3497 22.4728 24.5181 22.2054 24.5378C21.9381 24.5576 21.6114 24.5676 21.3343 24.8249C21.0571 25.0823 21.0472 25.2605 21.0472 25.696C21.0472 26.1316 21.0472 25.696 21.0472 26.7453C21.0472 27.7947 20.0671 28.5273 19.7009 28.8935C19.6012 28.9932 19.563 29.1152 19.5597 29.2431C19.486 29.312 19.3236 29.4125 19.188 29.3834C18.9795 29.3386 18.9484 28.972 18.9484 28.7574C18.9484 28.6918 18.8953 28.6387 18.8297 28.6387C18.7641 28.6387 18.7109 28.6918 18.7109 28.7574C18.7109 29.4832 19.0199 29.6124 19.2039 29.625C19.2141 29.6257 19.2241 29.626 19.2345 29.626C19.3564 29.626 19.4876 29.5779 19.5964 29.5107C19.6672 29.7669 19.8163 30.0051 19.8591 30.1013C19.9383 30.2795 19.5027 30.5666 19.5027 30.5666L19.8591 31.6655H20.3442C20.3442 31.3933 20.0127 31.4477 19.9631 31.3783C19.9137 31.309 19.8543 30.6804 19.8543 30.6804L20.5426 30.1045C20.5957 30.0601 20.6264 29.9944 20.6264 29.9251V29.6187C20.6264 29.6187 21.1312 29.7003 21.2575 29.8116C21.3837 29.9231 21.2724 30.2572 21.2724 30.3016C21.2724 30.3461 21.9108 30.9104 21.9108 30.9104H22.3489C22.3489 30.71 22.141 30.7174 22.0371 30.6802C21.9331 30.6431 21.6214 30.2571 21.6214 30.2571C21.6214 30.2571 21.7897 29.7349 21.7897 29.6062C21.7897 29.4775 21.0671 28.9529 21.0671 28.9529C21.0671 28.9529 21.1661 28.7845 21.8986 28.3291C22.6311 27.8738 22.5718 27.359 22.5718 27.359L23.2054 26.6463V26.1316C23.2053 26.1315 22.9974 26.1513 22.9875 26.4087Z" fill="#C17400"/>
<path d="M28.2086 26.4087C28.2185 26.6661 28.6046 26.775 28.6046 26.775C28.6441 26.3395 28.1986 25.5376 28.1097 25.4684C28.0205 25.399 27.6642 25.0724 28.0205 25.1416C28.3768 25.211 28.7234 26.0127 28.8026 26.1513C28.8818 26.2899 29.0699 26.28 29.0699 26.28C29.0699 26.28 29.0699 25.6365 29.0699 25.498C29.0699 25.3594 28.4561 25.0624 28.4561 25.0624C28.4561 25.0624 28.3571 24.4685 28.4462 24.4091C28.5353 24.3497 28.7233 24.5181 28.9907 24.5378C29.258 24.5576 29.5847 24.5676 29.8618 24.8249C30.139 25.0823 30.1489 25.2605 30.1489 25.696C30.1489 26.1316 30.1489 25.696 30.1489 26.7453C30.1489 27.7947 31.129 28.5273 31.4952 28.8935C31.5949 28.9932 31.6331 29.1152 31.6363 29.2431C31.7099 29.312 31.8724 29.4125 32.008 29.3834C32.2165 29.3386 32.2475 28.972 32.2475 28.7574C32.2475 28.6918 32.3007 28.6387 32.3663 28.6387C32.4319 28.6387 32.485 28.6918 32.485 28.7574C32.485 29.4832 32.1761 29.6124 31.9921 29.625C31.9819 29.6257 31.9719 29.626 31.9615 29.626C31.8395 29.626 31.7084 29.5779 31.5996 29.5107C31.5288 29.7669 31.3797 30.0051 31.3369 30.1013C31.2577 30.2795 31.6932 30.5666 31.6932 30.5666L31.3369 31.6655H30.8517C30.8517 31.3933 31.1834 31.4477 31.2329 31.3783C31.2824 31.309 31.3417 30.6804 31.3417 30.6804L30.6534 30.1045C30.6003 30.0601 30.5696 29.9944 30.5696 29.9251V29.6187C30.5696 29.6187 30.0647 29.7003 29.9385 29.8116C29.8123 29.9231 29.9236 30.2572 29.9236 30.3016C29.9236 30.346 29.2851 30.9104 29.2851 30.9104H28.8471C28.8471 30.71 29.055 30.7174 29.1589 30.6802C29.2629 30.6431 29.5746 30.2571 29.5746 30.2571C29.5746 30.2571 29.4062 29.7349 29.4062 29.6062C29.4062 29.4775 30.1289 28.9529 30.1289 28.9529C30.1289 28.9529 30.0299 28.7845 29.2974 28.3291C28.5648 27.8738 28.6242 27.359 28.6242 27.359L27.9906 26.6463V26.1316C27.9908 26.1315 28.1986 26.1513 28.2086 26.4087Z" fill="#C17400"/>
<path d="M24.6463 25.7305L23.9336 26.4432H25.3592L24.6463 25.7305Z" fill="#C8C8C8"/>
<path d="M26.5457 25.7305L25.833 26.4432H27.2584L26.5457 25.7305Z" fill="#C8C8C8"/>
<path d="M24.6453 26.918L23.9326 27.6307H25.3582L24.6453 26.918Z" fill="#C8C8C8"/>
<path d="M26.5457 26.918L25.833 27.6307H27.2584L26.5457 26.918Z" fill="#C8C8C8"/>
<path d="M24.6453 28.1055L23.9326 28.8182H25.3582L24.6453 28.1055Z" fill="#C8C8C8"/>
<path d="M26.5457 28.1055L25.833 28.8182H27.2584L26.5457 28.1055Z" fill="#C8C8C8"/>
<path d="M25.5957 29.2949L24.8828 30.0076H26.3084L25.5957 29.2949Z" fill="#C8C8C8"/>
<path d="M25.7145 21.9297H25.4775V23.3552H25.7145V21.9297Z" fill="#FFE15A"/>
<path d="M24.2928 23.3825C24.2888 23.3672 24.2013 23.0025 24.447 22.7366C24.6634 22.5023 25.057 22.4308 25.6154 22.524L25.5765 22.7583C25.1079 22.6799 24.7778 22.7283 24.6215 22.8978C24.4645 23.0678 24.5227 23.3226 24.5232 23.3251L24.2928 23.3825Z" fill="#FFE15A"/>
<path d="M23.6423 24.173C23.3454 24.0244 23.1995 23.5934 23.3237 23.2315C23.3757 23.0797 23.6097 22.5977 24.4316 22.7623L24.3849 22.9953C23.9507 22.9078 23.6465 23.0229 23.5485 23.3086C23.4638 23.5553 23.5592 23.8659 23.7486 23.9606L23.6423 24.173Z" fill="#FFE15A"/>
<path d="M26.8996 23.3827L26.6692 23.3252L26.7845 23.354L26.669 23.3257C26.6697 23.3231 26.7286 23.067 26.5696 22.8965C26.4126 22.728 26.0829 22.6802 25.6161 22.7584L25.5771 22.524C26.1363 22.4307 26.5293 22.5024 26.7456 22.7367C26.9911 23.0026 26.9034 23.3674 26.8996 23.3827Z" fill="#FFE15A"/>
<path d="M27.55 24.173L27.4438 23.9605C27.6331 23.8659 27.7285 23.5552 27.6438 23.3086C27.5458 23.0229 27.241 22.9082 26.8074 22.9953L26.7607 22.7623C27.5832 22.5977 27.8166 23.08 27.8687 23.2314C27.9929 23.5934 27.8469 24.0245 27.55 24.173Z" fill="#FFE15A"/>
<path d="M26.5465 23.3548C26.5465 23.3548 26.0713 23.1172 25.5962 23.1172C25.1211 23.1172 24.6459 23.3548 24.6459 23.3548C24.1707 23.1172 23.458 23.3548 23.458 23.83C23.458 24.3052 24.1707 25.0179 24.1707 25.0179H25.5963H27.0218C27.0218 25.0179 27.7345 24.3052 27.7345 23.83C27.7345 23.3548 27.0217 23.1172 26.5465 23.3548Z" fill="#FF4B55"/>
<path d="M25.8346 22.0488H25.3594V22.2864H25.8346V22.0488Z" fill="#FFE15A"/>
<path d="M27.9729 20.7422H23.2207V21.6925H27.9729V20.7422Z" fill="#C8C8C8"/>
<path d="M23.8092 22.0296L23.584 21.3535L22.1585 21.8285L22.3838 22.5045L23.8092 22.0296Z" fill="#C8C8C8"/>
<path d="M29.0369 21.8286L27.6113 21.3535L27.386 22.0296L28.8116 22.5047L29.0369 21.8286Z" fill="#C8C8C8"/>
<path d="M25.5963 30.8399C24.2208 30.8399 23.1016 30.1472 23.1016 29.2957V25.2567C23.1016 25.0602 23.2614 24.9004 23.4579 24.9004H27.7345C27.9311 24.9004 28.0908 25.0603 28.0908 25.2567V29.2957C28.0909 30.1472 26.9718 30.8399 25.5963 30.8399ZM23.4579 25.1379C23.3924 25.1379 23.3392 25.1912 23.3392 25.2566V29.2956C23.3392 30.016 24.3517 30.6022 25.5963 30.6022C26.8409 30.6022 27.8534 30.0159 27.8534 29.2956V25.2566C27.8534 25.1912 27.8002 25.1379 27.7347 25.1379H23.4579V25.1379Z" fill="#464655"/>
</g>
<defs>
<clipPath id="clip0_3462_32083">
<rect width="50" height="50" fill="white" transform="translate(0.589844 0.453125)"/>
</clipPath>
</defs>
</svg>
