<svg width="51" height="51" viewBox="0 0 51 51" fill="none" xmlns="http://www.w3.org/2000/svg">
<g clip-path="url(#clip0_3462_32066)">
<path d="M50.0216 41.8328H1.7459C1.26982 41.8328 0.883789 41.4467 0.883789 40.9706V9.93633C0.883789 9.46025 1.26982 9.07422 1.7459 9.07422H50.0217C50.4978 9.07422 50.8838 9.46025 50.8838 9.93633V40.9706C50.8837 41.4468 50.4977 41.8328 50.0216 41.8328Z" fill="#41479B"/>
<path d="M50.8837 28.0391H0.883789V30.3379H50.8837V28.0391Z" fill="#F5F5F5"/>
<path d="M50.8847 32.6367H0.884766V34.9355H50.8847V32.6367Z" fill="#F5F5F5"/>
<path d="M50.8837 30.3379H0.883789V32.6367H50.8837V30.3379Z" fill="#FF4B55"/>
<path d="M17.4503 23.3703L17.7148 24.1631L18.5504 24.1695C18.6151 24.1701 18.642 24.2526 18.5899 24.2911L17.9177 24.7876L18.1697 25.5843C18.1893 25.6461 18.119 25.6971 18.0663 25.6594L17.3863 25.1734L16.7064 25.6594C16.6536 25.697 16.5834 25.6461 16.6029 25.5843L16.855 24.7876L16.1827 24.2911C16.1307 24.2526 16.1575 24.17 16.2223 24.1695L17.0579 24.1631L17.3224 23.3703C17.3429 23.3089 17.4299 23.3089 17.4503 23.3703Z" fill="#FFE15A"/>
<path d="M17.4503 37.3019L17.7148 38.0947L18.5504 38.1011C18.6151 38.1017 18.642 38.1843 18.5899 38.2227L17.9177 38.7192L18.1697 39.516C18.1893 39.5777 18.119 39.6288 18.0663 39.5911L17.3863 39.1051L16.7064 39.5911C16.6536 39.6287 16.5834 39.5777 16.6029 39.516L16.855 38.7192L16.1827 38.2227C16.1307 38.1843 16.1575 38.1016 16.2223 38.1011L17.0579 38.0947L17.3224 37.3019C17.3429 37.2405 17.4299 37.2405 17.4503 37.3019Z" fill="#FFE15A"/>
<path d="M12.9284 38.0805L13.6004 37.5836L14.288 38.0586C14.3412 38.0953 14.4107 38.0432 14.3902 37.9818L14.1254 37.1891L14.7896 36.6819C14.8411 36.6425 14.8129 36.5604 14.7481 36.561L13.9125 36.5679L13.6353 35.7794C13.6138 35.7183 13.527 35.7198 13.5075 35.7815L13.2558 36.5784L12.4204 36.5984C12.3556 36.5998 12.3301 36.6829 12.3829 36.7205L13.063 37.2061L12.8238 38.0069C12.8052 38.0691 12.8762 38.1191 12.9284 38.0805Z" fill="#FFE15A"/>
<path d="M14.2726 26.7555L13.5902 26.273L12.9128 26.7625C12.8604 26.8004 12.7898 26.7497 12.809 26.6878L13.057 25.8897L12.3822 25.3967C12.33 25.3585 12.3564 25.2758 12.4211 25.2749L13.2567 25.2642L13.5172 24.4702C13.5373 24.4087 13.6242 24.4083 13.645 24.4695L13.9135 25.261L14.7492 25.2633C14.814 25.2635 14.8412 25.3459 14.7893 25.3846L14.1194 25.8844L14.3756 26.68C14.3955 26.7414 14.3255 26.7929 14.2726 26.7555Z" fill="#FFE15A"/>
<path d="M20.5661 26.766L21.238 26.2692L21.9256 26.7442C21.9789 26.7809 22.0484 26.7287 22.0279 26.6673L21.763 25.8746L22.4273 25.3674C22.4788 25.3281 22.4505 25.2459 22.3858 25.2465L21.5502 25.2535L21.273 24.465C21.2515 24.4038 21.1647 24.4053 21.1452 24.467L20.8935 25.264L20.0581 25.2839C19.9933 25.2854 19.9678 25.3685 20.0206 25.4061L20.7007 25.8916L20.4615 26.6924C20.4429 26.7545 20.514 26.8046 20.5661 26.766Z" fill="#FFE15A"/>
<path d="M21.9103 38.07L21.2279 37.5875L20.5505 38.0769C20.4981 38.1148 20.4275 38.0641 20.4467 38.0022L20.6947 37.2042L20.0199 36.7111C19.9677 36.6729 19.9941 36.5902 20.0588 36.5893L20.8944 36.5787L21.1549 35.7847C21.175 35.7231 21.2619 35.7227 21.2827 35.784L21.5512 36.5755L22.3869 36.5777C22.4517 36.5779 22.4789 36.6603 22.427 36.699L21.7571 37.1988L22.0133 37.9944C22.0331 38.0561 21.9631 38.1075 21.9103 38.07Z" fill="#FFE15A"/>
<path d="M11.929 33.2016L11.0934 33.2071L10.8176 32.4182C10.7963 32.3571 10.7094 32.3583 10.6897 32.4201L10.4367 33.2166L9.60117 33.2352C9.53643 33.2366 9.51074 33.3197 9.56348 33.3574L10.2429 33.8441L10.0022 34.6444C9.9836 34.7063 10.0546 34.7565 10.1067 34.718L10.7796 34.2223L11.4664 34.6985C11.5196 34.7353 11.5892 34.6832 11.5687 34.6218L11.3052 33.8287L11.9702 33.3227C12.0218 33.2833 11.9937 33.2011 11.929 33.2016Z" fill="#FFE15A"/>
<path d="M9.60133 28.9051L10.4369 28.8893L10.6924 28.0936C10.7123 28.032 10.7991 28.031 10.8203 28.0923L11.0935 28.882L11.9293 28.8792C11.994 28.879 12.0218 28.9613 11.9701 29.0003L11.3034 29.5042L11.5644 30.2981C11.5846 30.3596 11.515 30.4115 11.4619 30.3744L10.7766 29.8961L10.1022 30.3896C10.05 30.4279 9.97916 30.3775 9.99791 30.3156L10.2411 29.516L9.56325 29.0271C9.51071 28.9892 9.53668 28.9062 9.60133 28.9051Z" fill="#FFE15A"/>
<path d="M25.1702 28.8735L24.3346 28.879L24.0588 28.0901C24.0375 28.029 23.9506 28.0301 23.931 28.092L23.6779 28.8885L22.8424 28.9071C22.7776 28.9085 22.752 28.9916 22.8047 29.0293L23.4841 29.516L23.2435 30.3163C23.2248 30.3782 23.2958 30.4284 23.348 30.39L24.0208 29.8943L24.7076 30.3705C24.7608 30.4073 24.8304 30.3552 24.81 30.2938L24.5465 29.5008L25.2115 28.9947C25.263 28.9553 25.235 28.873 25.1702 28.8735Z" fill="#FFE15A"/>
<path d="M22.8426 33.2312L23.6781 33.2155L23.9337 32.4198C23.9535 32.3582 24.0403 32.3572 24.0615 32.4184L24.3348 33.2082L25.1705 33.2053C25.2352 33.2052 25.2631 33.2875 25.2113 33.3264L24.5446 33.8303L24.8057 34.6243C24.8259 34.6858 24.7562 34.7377 24.7031 34.7006L24.0179 34.2222L23.3434 34.7158C23.2912 34.7541 23.2204 34.7037 23.2392 34.6418L23.4823 33.8422L22.8045 33.3533C22.7519 33.3154 22.7778 33.2326 22.8426 33.2312Z" fill="#FFE15A"/>
</g>
<defs>
<clipPath id="clip0_3462_32066">
<rect width="50" height="50" fill="white" transform="translate(0.882812 0.453125)"/>
</clipPath>
</defs>
</svg>
