<svg width="51" height="51" viewBox="0 0 51 51" fill="none" xmlns="http://www.w3.org/2000/svg">
<g clip-path="url(#clip0_3462_31980)">
<path d="M49.4483 41.9675H1.17265C0.696581 41.9675 0.310547 41.5815 0.310547 41.1054V10.0711C0.310547 9.59502 0.696581 9.20898 1.17265 9.20898H49.4484C49.9245 9.20898 50.3105 9.59502 50.3105 10.0711V41.1054C50.3104 41.5816 49.9244 41.9675 49.4483 41.9675Z" fill="#41479B"/>
<path d="M24.4484 9.20898H22.951L14.9657 14.4407V9.20898H10.6554V14.4407L2.67001 9.20898H1.17265C0.696581 9.20898 0.310547 9.59502 0.310547 10.0711V10.7549L7.16161 15.2434H0.310547V19.5538H7.16161L0.310547 24.0425V24.7261C0.310547 25.2022 0.696581 25.5883 1.17265 25.5883H2.67001L10.6554 20.3565V25.5883H14.9657V20.3565L22.9509 25.5883H24.4483C24.9244 25.5883 25.3104 25.2022 25.3104 24.7261V24.0424L18.4594 19.5538H25.3104V15.2434H18.4593L25.3104 10.7549V10.0711C25.3104 9.59502 24.9246 9.20898 24.4484 9.20898Z" fill="#F5F5F5"/>
<path d="M25.3104 16.1056H14.1036V9.20898H11.5174V16.1056H0.310547V18.6917H11.5174V25.5883H14.1036V18.6917H25.3104V16.1056Z" fill="#FF4B55"/>
<path d="M9.79324 15.2442L0.721386 9.35547C0.47998 9.5083 0.310547 9.76494 0.310547 10.0719V10.1166L8.20985 15.2442H9.79324Z" fill="#FF4B55"/>
<path d="M16.5492 15.2434L25.1795 9.64131C25.0295 9.3875 24.7648 9.20898 24.4485 9.20898H24.2621L14.9658 15.2434H16.5492Z" fill="#FF4B55"/>
<path d="M9.04832 19.5547L0.43457 25.1461C0.583105 25.406 0.851855 25.5891 1.17275 25.5891H1.33535L10.6317 19.5547H9.04832Z" fill="#FF4B55"/>
<path d="M25.2968 24.7948L17.2239 19.5547H15.6406L24.8079 25.5053C25.0826 25.3778 25.2709 25.1107 25.2968 24.7948Z" fill="#FF4B55"/>
<path d="M37.7926 17.4052C37.7926 17.4052 37.4321 15.9632 36.3506 15.2422C36.3506 15.2422 37.432 17.0446 37.432 18.4867L37.7926 17.4052Z" fill="#FFE15A"/>
<path d="M36.126 15.8398C36.126 15.8398 36.8809 16.3017 37.2863 17.0565L36.9596 17.8114C36.9598 17.8114 36.6894 16.7412 36.126 15.8398Z" fill="#FFE15A"/>
<path d="M35.292 16.0078C35.292 16.0078 36.5988 16.4134 37.2183 17.2583L36.8466 17.8216C36.8467 17.8216 36.351 16.8641 35.292 16.0078Z" fill="#FFE15A"/>
<path d="M35.1006 16.6621C35.1006 16.6621 36.475 16.8761 37.0946 17.5296L36.9369 18.1492C36.9369 18.1491 36.1821 17.2479 35.1006 16.6621Z" fill="#FFE15A"/>
<path d="M35.1455 17.1133C35.1455 17.1133 36.4748 17.2485 37.0832 17.9469C37.6915 18.6454 36.8579 18.4312 36.8579 18.4312C36.8579 18.4312 36.1594 17.6315 35.1455 17.1133Z" fill="#FFE15A"/>
<path d="M37.793 17.4052C37.793 17.4052 38.1534 15.9632 39.235 15.2422C39.235 15.2422 38.1535 17.0446 38.1535 18.4867L37.793 17.4052Z" fill="#FFE15A"/>
<path d="M39.4602 15.8398C39.4602 15.8398 38.7053 16.3017 38.2998 17.0565L38.6266 17.8114C38.6265 17.8114 38.8969 16.7412 39.4602 15.8398Z" fill="#FFE15A"/>
<path d="M40.2945 16.0078C40.2945 16.0078 38.9877 16.4134 38.3682 17.2583L38.7399 17.8216C38.7398 17.8216 39.2355 16.8641 40.2945 16.0078Z" fill="#FFE15A"/>
<path d="M40.4852 16.6621C40.4852 16.6621 39.1108 16.8761 38.4912 17.5296L38.6489 18.1492C38.6489 18.1491 39.4037 17.2479 40.4852 16.6621Z" fill="#FFE15A"/>
<path d="M40.4402 17.1133C40.4402 17.1133 39.1109 17.2485 38.5025 17.9469C37.8942 18.6454 38.7278 18.4312 38.7278 18.4312C38.7278 18.4312 39.4263 17.6315 40.4402 17.1133Z" fill="#FFE15A"/>
<path d="M37.7926 15.2422C37.7926 15.2422 37.4331 16.0007 37.7926 16.38C38.1522 16.0008 37.7926 15.2422 37.7926 15.2422Z" fill="#FFE15A"/>
<path d="M37.434 15.4297C37.434 15.4297 37.3857 16.2682 37.8623 16.4838C38.0536 15.9967 37.434 15.4297 37.434 15.4297Z" fill="#FFE15A"/>
<path d="M38.1525 15.4297C38.1525 15.4297 38.2008 16.2682 37.7242 16.4838C37.5329 15.9967 38.1525 15.4297 38.1525 15.4297Z" fill="#FFE15A"/>
<path d="M38.2703 15.9141C38.2703 15.9141 37.9558 16.6929 37.4326 16.684C37.4679 16.1619 38.2703 15.9141 38.2703 15.9141Z" fill="#FFE15A"/>
<path d="M37.3154 15.9141C37.3154 15.9141 37.63 16.6929 38.1531 16.684C38.1179 16.1619 37.3154 15.9141 37.3154 15.9141Z" fill="#FFE15A"/>
<path d="M37.793 19.2082C38.3906 19.2082 38.875 18.5626 38.875 17.7662C38.875 16.9698 38.3906 16.3242 37.793 16.3242C37.1954 16.3242 36.7109 16.9698 36.7109 17.7662C36.7109 18.5626 37.1954 19.2082 37.793 19.2082Z" fill="#FFD255"/>
<path d="M35.3228 19.2388L35.075 18.8557C35.075 18.8557 34.354 19.0285 34.1812 18.4878L33.9033 18.4652C33.9033 18.4652 33.9408 18.0972 34.2638 18.0446C34.2638 18.0446 34.459 17.8043 34.8045 17.8494C35.15 17.8944 35.3303 18.1873 35.5293 18.2625C35.7283 18.3376 35.7509 18.5854 35.7509 18.5854L37.268 20.14C37.268 20.14 36.8324 20.6959 36.4418 20.876C36.0512 21.0561 34.6168 20.1776 35.3228 19.2388Z" fill="#73AF00"/>
<path d="M40.2499 19.5234C40.2499 19.5234 40.8809 19.9516 40.9033 21.1345H39.8556C39.8556 21.1345 39.8669 20.3346 39.6641 19.9065L40.2499 19.5234Z" fill="#73AF00"/>
<path d="M40.1152 19.5688C40.1152 19.5688 40.9038 19.8279 41.3883 19.2083L40.5659 19.0957L40.1152 19.5688Z" fill="#73AF00"/>
<path d="M39.8788 18.7012L40.6796 18.9711C40.7806 19.0052 40.8162 19.1302 40.7454 19.2099C40.4416 19.5521 39.5348 20.3723 38.0726 20.3723C36.1687 20.3723 35.6768 19.1743 35.6542 19.0843C35.6316 18.9942 35.5303 18.2619 35.5303 18.2619L36.3414 18.1719L39.8788 18.7012Z" fill="#73AF00"/>
<path d="M32.0914 29.7305H34.1884L33.1068 31.8253L32.0254 30.3832L32.0914 29.7305Z" fill="#FF4B55"/>
<path d="M43.4953 29.7305H41.3984L42.4799 31.8253L43.5613 30.3832L43.4953 29.7305Z" fill="#FF4B55"/>
<path d="M32.0827 33.2687C31.0482 33.2687 30.2566 32.7136 30.2158 32.6847L31.0494 31.5077C31.0563 31.5122 31.7548 31.9868 32.467 31.7711C33.1877 31.5535 33.6608 30.703 33.9309 30.0273L35.2698 30.5631C34.7018 31.9832 33.8917 32.856 32.8625 33.1577C32.5934 33.2367 32.331 33.2687 32.0827 33.2687Z" fill="#FFD25A"/>
<path d="M43.5035 33.2687C44.538 33.2687 45.3296 32.7136 45.3704 32.6847L44.5368 31.5077C44.5299 31.5122 43.8314 31.9868 43.1192 31.7711C42.3985 31.5535 41.9254 30.703 41.6553 30.0273L40.3164 30.5631C40.8844 31.9832 41.6945 32.856 42.7237 33.1577C42.9929 33.2367 43.2554 33.2687 43.5035 33.2687Z" fill="#FFD25A"/>
<path d="M42.4795 25.6971H33.1064V22.2332C33.1064 21.7571 33.4925 21.3711 33.9686 21.3711H41.6175C42.0935 21.3711 42.4796 21.7571 42.4796 22.2332V25.6971H42.4795Z" fill="#FF4B55"/>
<path d="M35.6644 23.8963L35.5518 23.1753C35.0223 23.1527 34.7182 22.5332 34.7182 22.5332L34.29 22.7697C34.7405 23.8513 35.6644 23.8963 35.6644 23.8963Z" fill="#FFE15A"/>
<path d="M41.3089 23.1521C41.4666 23.032 41.8121 22.9869 41.8121 22.9869C41.5643 22.7315 41.2939 22.9118 41.2939 22.9118C41.5192 22.7016 41.3916 22.4012 41.3916 22.4012C41.3916 22.4988 41.2339 22.5664 41.2339 22.5664C41.2414 22.3712 41.0387 22.1833 41.0387 22.1833L40.9335 22.3561C40.8659 22.1908 40.6256 22.0632 40.6256 22.0632L40.5279 22.4687C40.3026 22.2735 39.9046 22.2885 39.9046 22.2885L39.9797 22.4763C39.7394 22.4837 39.0859 22.6189 38.7028 22.664C38.3197 22.709 38.0119 22.6039 38.0119 22.4312C38.0119 22.2865 38.3467 22.2687 38.4915 22.2665C38.594 22.2894 38.7228 22.3263 38.9038 22.3807C39.2417 22.482 39.4397 22.3352 39.4397 22.3352C39.3213 22.2901 39.3082 22.2375 39.3082 22.2375C39.5616 22.091 39.7994 22.1271 39.7994 22.1271C39.7149 21.9413 39.3487 21.9525 39.3487 21.9525C39.4445 21.9019 39.5177 21.7441 39.5177 21.7441C39.4951 21.7667 39.287 21.8178 39.0028 21.8559C38.789 21.8847 38.5881 22.0473 38.5051 22.1225C38.2796 22.1052 37.6904 22.098 37.7941 22.5065C37.9218 23.0098 38.9357 22.8295 39.559 22.7318C40.1823 22.6342 40.5053 22.7169 40.6404 22.7994C40.7757 22.882 40.5829 23.1619 39.9495 23.0473C39.4022 22.9482 39.1007 22.9454 38.9352 22.9628C38.7517 22.9745 38.5952 23.0239 38.485 23.0473C38.2371 23.0998 37.2832 23.4378 37.103 22.9496C36.9228 22.4613 36.0441 23.7457 36.0441 23.7457L36.1127 23.8273L35.8788 23.772C35.5634 24.1944 34.6171 24.324 34.6171 24.324C34.6171 24.324 34.4763 24.0706 34.3579 24.0367C34.2396 24.0029 34.189 24.1888 34.189 24.1888C34.189 24.1888 34.0482 24.1943 34.0369 24.324C34.0256 24.4535 34.1383 24.4648 34.1383 24.4648C34.1383 24.4648 34.003 24.662 34.2283 24.7183C34.2283 24.7183 34.2114 24.9942 34.5438 24.8027C35.5311 24.9271 36.251 24.4202 36.5627 24.1437C36.7665 24.1567 37.0841 24.1502 37.3282 24.0235C37.7188 23.8207 38.1693 23.5653 38.4322 23.6631C38.4322 23.6631 38.6426 24.309 37.8164 24.3239C37.8164 24.3239 37.6942 24.1694 37.5713 24.1694C37.5183 24.1694 37.4631 24.2331 37.4801 24.2903C37.4801 24.2903 37.3359 24.2818 37.3105 24.3667C37.2897 24.4358 37.3401 24.515 37.4461 24.5023C37.4461 24.5023 37.374 24.6084 37.4461 24.672C37.5182 24.7355 37.6073 24.672 37.6073 24.672C37.6073 24.672 37.5692 24.8034 37.6582 24.8161C37.7344 24.827 37.8353 24.7025 37.8642 24.6647C37.9964 24.6853 38.8984 24.7894 39.0933 23.8432C39.0933 23.8432 39.544 24.0384 39.987 24.0009C40.4301 23.9634 40.8658 24.031 40.8282 24.2487C40.7791 24.4066 40.6822 24.3962 40.6822 24.3962C40.5762 24.3537 40.3981 24.358 40.3727 24.5107C40.3473 24.6635 40.555 24.6677 40.555 24.6677C40.6144 24.8076 40.784 24.7482 40.784 24.7482C40.9323 24.8543 41.03 24.7397 41.03 24.7397C41.0937 24.7949 41.1593 24.8052 41.2208 24.7524C41.2802 24.7016 41.2469 24.3622 41.2412 24.2411C41.2318 24.0396 41.2036 23.5127 40.9107 23.5051C40.6179 23.4976 40.2423 23.6703 39.7241 23.2347C39.6971 23.2119 39.6707 23.1975 39.644 23.1781C39.8892 23.2009 40.0649 23.2674 40.2349 23.2947C40.4678 23.3324 41.1513 23.2724 41.3089 23.1521Z" fill="#FFE15A"/>
<path d="M34.2905 22.7689C34.2905 22.7689 34.1469 22.7728 34.0766 22.752C33.956 22.7164 33.9413 22.5267 34.071 22.4928C34.071 22.4928 33.915 22.3868 33.9865 22.2675C34.0437 22.172 34.1895 22.1723 34.2402 22.2286C34.2402 22.2286 34.1927 22.0715 34.3302 22.0196C34.4395 21.9783 34.5273 22.1041 34.5273 22.2675C34.5273 22.2675 34.6908 22.1345 34.7752 22.2225C34.834 22.2838 34.8171 22.3644 34.7188 22.5322C34.6185 22.7035 34.2905 22.7689 34.2905 22.7689Z" fill="#FFE15A"/>
<path d="M34.1115 22.6985C34.1115 22.6985 34.0355 22.83 33.8154 22.7494C33.8154 22.7494 34.0058 22.6603 34.0312 22.584L34.1115 22.6985Z" fill="#41479B"/>
<path d="M34.0308 22.3133C34.0308 22.3133 33.9124 22.2371 33.7812 22.2413C33.7812 22.2413 33.9758 22.0971 34.1408 22.2244L34.0308 22.3133Z" fill="#41479B"/>
<path d="M34.3076 22.1089C34.3076 22.1089 34.3457 21.9689 34.2695 21.8926C34.2695 21.8926 34.4261 21.9604 34.4472 22.0876L34.3076 22.1089Z" fill="#41479B"/>
<path d="M34.6553 22.2541C34.6553 22.2541 34.7314 22.0845 34.6637 22.0039C34.6637 22.0039 34.8668 22.1227 34.7822 22.3178L34.6553 22.2541Z" fill="#41479B"/>
<path d="M34.2567 24.1386C34.2567 24.1386 34.1753 23.9715 34.0703 23.972C34.0703 23.972 34.2912 23.8915 34.3868 24.0814L34.2567 24.1386Z" fill="#41479B"/>
<path d="M34.0787 24.3505C34.0787 24.3505 33.9334 24.2347 33.8389 24.2806C33.8389 24.2806 34.0038 24.1126 34.1714 24.2429L34.0787 24.3505Z" fill="#41479B"/>
<path d="M34.1804 24.6518C34.1804 24.6518 33.9948 24.6497 33.9482 24.7441C33.9482 24.7441 33.9755 24.5101 34.1877 24.5098L34.1804 24.6518Z" fill="#41479B"/>
<path d="M34.3498 24.845C34.3498 24.845 34.2737 24.9765 34.0537 24.8959C34.0537 24.8959 34.244 24.8067 34.2695 24.7305L34.3498 24.845Z" fill="#41479B"/>
<path d="M37.7035 24.7783C37.7035 24.7783 37.6411 24.8859 37.4609 24.82C37.4609 24.82 37.6072 24.7677 37.628 24.7051L37.7035 24.7783Z" fill="#41479B"/>
<path d="M35.7959 22.4538C35.7959 22.4538 35.3902 23.1447 35.4878 24.1437C35.4878 24.1437 36.6838 23.969 37.2021 22.7749C37.2021 22.7749 37.3283 22.7238 37.3776 22.6012C37.4195 22.4969 37.4161 22.3251 37.2152 22.3261C37.2152 22.3261 37.2754 22.206 37.3485 22.1777C37.3485 22.1777 37.219 22.1271 37.0669 22.1608C37.0669 22.1608 37.1853 22.0425 37.1853 21.8904C37.1853 21.8904 37.005 22.0088 36.8924 22.0199C36.8924 22.0199 36.8811 21.8341 36.9262 21.8115C36.9262 21.8115 36.6897 21.8341 36.5713 21.958C36.5713 21.958 36.4924 21.851 36.4981 21.7383C36.4981 21.7383 36.2783 21.8341 36.1939 21.9748C36.1939 21.9748 36.1263 21.9016 36.1319 21.8283C36.1319 21.8283 35.9742 22.0198 35.9404 22.1212C35.9404 22.1212 35.7918 22.0804 35.7265 22.2001C35.6791 22.2866 35.6899 22.3816 35.7959 22.4538Z" fill="#FFD255"/>
<path d="M37.5219 24.2757C37.5219 24.2757 37.4739 24.1852 37.3301 24.1655C37.3301 24.1655 37.5134 24.0807 37.629 24.2022L37.5219 24.2757Z" fill="#41479B"/>
<path d="M40.5035 24.6187C40.5035 24.6187 40.3984 24.652 40.3492 24.801C40.3492 24.801 40.2953 24.5894 40.4467 24.4902L40.5035 24.6187Z" fill="#41479B"/>
<path d="M40.7242 24.6964C40.7242 24.6964 40.6247 24.7934 40.6295 24.9504C40.6295 24.9504 40.5066 24.7701 40.615 24.625L40.7242 24.6964Z" fill="#41479B"/>
<path d="M41.2023 24.6879C41.2023 24.6879 41.1722 24.7906 41.2632 24.9002C41.2632 24.9002 41.0749 24.8401 41.0713 24.6758L41.2023 24.6879Z" fill="#41479B"/>
<path d="M40.978 24.7285C40.978 24.7285 40.8981 24.8047 40.9194 24.9604C40.9194 24.9604 40.7708 24.8295 40.8634 24.6738L40.978 24.7285Z" fill="#41479B"/>
<path d="M37.3682 24.4613C37.3682 24.4613 37.272 24.4267 37.1523 24.5091C37.1523 24.5091 37.2309 24.3227 37.398 24.3345L37.3682 24.4613Z" fill="#41479B"/>
<path d="M37.4999 24.6668C37.4999 24.6668 37.4011 24.6408 37.2891 24.7334C37.2891 24.7334 37.3063 24.5535 37.4738 24.5508L37.4999 24.6668Z" fill="#41479B"/>
<path d="M42.4795 26.2785C41.6977 26.2785 41.6977 26.9837 40.9159 26.9837C40.1342 26.9837 40.1342 26.2785 39.3523 26.2785C38.5711 26.2785 38.5711 26.9837 37.7898 26.9837C37.0093 26.9837 37.0093 26.2785 36.2287 26.2785C35.4481 26.2785 35.4482 26.9837 34.6679 26.9837C33.8872 26.9837 33.8872 26.2785 33.1064 26.2785V24.9766C33.8871 24.9766 33.8871 25.6817 34.6679 25.6817C35.4483 25.6817 35.4483 24.9766 36.2287 24.9766C37.0093 24.9766 37.0093 25.6817 37.7898 25.6817C38.5711 25.6817 38.5711 24.9766 39.3523 24.9766C40.1342 24.9766 40.1342 25.6817 40.9159 25.6817C41.6977 25.6817 41.6977 24.9766 42.4795 24.9766V26.2785Z" fill="#F5F5F5"/>
<path d="M40.9164 26.9845C40.1347 26.9845 40.1347 26.2793 39.3528 26.2793C38.5716 26.2793 38.5716 26.9845 37.7903 26.9845C37.0098 26.9845 37.0098 26.2793 36.2292 26.2793C35.4486 26.2793 35.4487 26.9845 34.6684 26.9845C33.8893 26.9845 33.8871 26.2827 33.1113 26.2797C33.1221 26.5914 33.1579 27.0541 33.2492 27.5978C33.8834 27.6817 33.9411 28.2863 34.6683 28.2863C35.4487 28.2863 35.4487 27.5811 36.2291 27.5811C37.0097 27.5811 37.0097 28.2863 37.7902 28.2863C38.5715 28.2863 38.5715 27.5811 39.3527 27.5811C40.1345 27.5811 40.1345 28.2863 40.9163 28.2863C41.6445 28.2863 41.7024 27.6815 42.3375 27.5978C42.4289 27.0541 42.4646 26.5914 42.4754 26.2797C41.6987 26.2827 41.6966 26.9845 40.9164 26.9845Z" fill="#41479B"/>
<path d="M40.9161 28.2854C40.1344 28.2854 40.1344 27.5801 39.3525 27.5801C38.5713 27.5801 38.5713 28.2854 37.79 28.2854C37.0095 28.2854 37.0095 27.5801 36.2289 27.5801C35.4483 27.5801 35.4484 28.2854 34.6681 28.2854C33.9409 28.2854 33.8831 27.6808 33.249 27.5968C33.3215 28.0276 33.4295 28.508 33.5888 29.0048C33.9402 29.2065 34.0933 29.5873 34.6681 29.5873C35.4485 29.5873 35.4485 28.8821 36.2289 28.8821C37.0095 28.8821 37.0095 29.5873 37.79 29.5873C38.5713 29.5873 38.5713 28.8821 39.3525 28.8821C40.1343 28.8821 40.1343 29.5873 40.9161 29.5873C41.4922 29.5873 41.6451 29.2058 41.9977 29.0042C42.1569 28.5076 42.2648 28.0273 42.3374 27.5968C41.7022 27.6807 41.6443 28.2854 40.9161 28.2854Z" fill="#F5F5F5"/>
<path d="M40.9162 29.588C40.1345 29.588 40.1345 28.8828 39.3526 28.8828C38.5714 28.8828 38.5714 29.588 37.7901 29.588C37.0096 29.588 37.0096 28.8828 36.229 28.8828C35.4484 28.8828 35.4485 29.588 34.6682 29.588C34.0935 29.588 33.9403 29.2071 33.5889 29.0055C33.7872 29.6244 34.0658 30.2663 34.4547 30.8649C34.5202 30.8784 34.5878 30.8899 34.6682 30.8899C35.4486 30.8899 35.4486 30.1847 36.229 30.1847C37.0096 30.1847 37.0096 30.8899 37.7901 30.8899C38.5714 30.8899 38.5714 30.1847 39.3526 30.1847C40.1344 30.1847 40.1344 30.8899 40.9162 30.8899C40.9974 30.8899 41.0659 30.8784 41.132 30.8647C41.5209 30.2659 41.7995 29.6239 41.9978 29.005C41.6453 29.2063 41.4923 29.588 40.9162 29.588Z" fill="#41479B"/>
<path d="M40.9166 30.8889C40.1349 30.8889 40.1349 30.1836 39.353 30.1836C38.5718 30.1836 38.5718 30.8889 37.7905 30.8889C37.01 30.8889 37.01 30.1836 36.2294 30.1836C35.4488 30.1836 35.4489 30.8889 34.6686 30.8889C34.5882 30.8889 34.5206 30.8773 34.4551 30.8639C34.7021 31.2442 34.9947 31.606 35.3393 31.9333C35.5779 31.7316 35.7676 31.4855 36.2295 31.4855C37.0101 31.4855 37.0101 32.1907 37.7906 32.1907C38.5719 32.1907 38.5719 31.4855 39.3531 31.4855C39.8169 31.4855 40.0065 31.7328 40.2466 31.9348C40.5918 31.6069 40.885 31.2447 41.1324 30.8637C41.0663 30.8772 40.9978 30.8889 40.9166 30.8889Z" fill="#F5F5F5"/>
<path d="M40.2462 31.9355C40.0062 31.7336 39.8166 31.4863 39.3527 31.4863C38.5715 31.4863 38.5715 32.1915 37.7902 32.1915C37.0097 32.1915 37.0097 31.4863 36.2291 31.4863C35.7672 31.4863 35.5776 31.7324 35.3389 31.9341C35.9668 32.5308 36.7674 33.0116 37.7933 33.2682C38.8184 33.0119 39.6185 32.5316 40.2462 31.9355Z" fill="#41479B"/>
<path d="M39.3523 24.9766C38.5711 24.9766 38.5711 25.6817 37.7898 25.6817C37.0093 25.6817 37.0093 24.9766 36.2287 24.9766C35.4481 24.9766 35.4482 25.6817 34.6679 25.6817C33.8872 25.6817 33.8872 24.9766 33.1064 24.9766C33.1064 25.4214 33.1064 25.8077 33.1064 26.058C33.1064 26.119 33.1078 26.1942 33.1107 26.2789C33.8865 26.2819 33.8888 26.9837 34.6678 26.9837C35.4482 26.9837 35.4482 26.2785 36.2286 26.2785C37.0092 26.2785 37.0092 26.9837 37.7897 26.9837C38.571 26.9837 38.571 26.2785 39.3522 26.2785C40.1341 26.2785 40.1341 26.9837 40.9158 26.9837C41.696 26.9837 41.6981 26.2819 42.4751 26.2789C42.478 26.1941 42.4794 26.1189 42.4794 26.058C42.4794 25.8077 42.4794 25.4213 42.4794 24.9766C41.6975 24.9766 41.6975 25.6817 40.9158 25.6817C40.1342 25.6817 40.1342 24.9766 39.3523 24.9766Z" fill="#F5F5F5"/>
<path d="M42.1199 21.3719C42.319 21.3719 42.4804 21.5333 42.4804 21.7323V24.9768V25.6978C42.4804 25.8345 42.4804 25.9594 42.4804 26.0583C42.4804 26.1193 42.479 26.1945 42.4761 26.2792C42.4653 26.5909 42.4295 27.0536 42.3382 27.5973C42.2657 28.0278 42.1577 28.5081 41.9985 29.0047C41.8002 29.6237 41.5216 30.2658 41.1327 30.8644C40.8851 31.2456 40.592 31.6079 40.2469 31.9355C39.6191 32.5315 38.819 33.0119 37.794 33.2681C36.7682 33.0117 35.9676 32.5307 35.3396 31.9341C34.9951 31.6067 34.7025 31.2451 34.4555 30.8646C34.0666 30.2659 33.788 29.6241 33.5896 29.0052C33.4304 28.5084 33.3223 28.0279 33.2499 27.5972C33.1585 27.0535 33.1228 26.5908 33.112 26.2791C33.1091 26.1943 33.1077 26.1191 33.1077 26.0582C33.1077 25.9593 33.1077 25.8343 33.1077 25.6977V24.9767V21.7322C33.1077 21.5331 33.2691 21.3718 33.4682 21.3718H42.1201L42.1199 21.3719ZM42.1199 21.1016H33.4679C33.12 21.1016 32.8369 21.3846 32.8369 21.7325V24.977V25.698V26.0585C32.8369 26.1221 32.8383 26.2004 32.8414 26.2888C32.8517 26.583 32.8845 27.0566 32.9829 27.6423C33.0667 28.1409 33.1842 28.6272 33.3318 29.088C33.5604 29.8008 33.862 30.4482 34.2284 31.0122C34.4982 31.4275 34.8094 31.8038 35.153 32.1303C35.87 32.8117 36.7364 33.2828 37.7281 33.5307L37.7937 33.5471L37.8593 33.5307C38.8502 33.283 39.716 32.8123 40.4328 32.1318C40.7773 31.8048 41.0891 31.4279 41.3593 31.0119C41.7258 30.4477 42.0273 29.8003 42.2558 29.0872C42.4035 28.6268 42.5208 28.1406 42.6047 27.6422C42.7032 27.0565 42.736 26.5828 42.7462 26.2887C42.7492 26.2003 42.7507 26.122 42.7507 26.0584V25.6979V24.9769V21.7324C42.7508 21.3846 42.4678 21.1016 42.1199 21.1016Z" fill="#F5F5F5"/>
<path d="M37.7938 31.0887L36.8046 31.7769L37.1536 30.6233L36.1934 29.8954L37.398 29.8709L37.7938 28.7324L38.1896 29.8709L39.3943 29.8954L38.4342 30.6233L38.7832 31.7769L37.7938 31.0887Z" fill="#73AF00"/>
<path d="M37.7935 28.9546L38.1369 29.9424L39.1826 29.9637L38.3491 30.5956L38.652 31.5967L37.7936 30.9992L36.9351 31.5967L37.238 30.5956L36.4046 29.9638L37.4503 29.9425L37.7935 28.9546ZM37.7935 28.5098L37.6556 28.9066L37.3455 29.7985L36.4015 29.8179L35.9814 29.8264L36.3162 30.0803L37.0686 30.6508L36.7952 31.5546L36.6735 31.9567L37.0185 31.7168L37.7935 31.1774L38.5685 31.7168L38.9134 31.9567L38.7917 31.5546L38.5184 30.6508L39.2707 30.0803L39.6055 29.8264L39.1854 29.8179L38.2414 29.7985L37.9313 28.9066L37.7935 28.5098Z" fill="#FFE15A"/>
<path d="M35.6211 28.2762L34.6318 28.9643L34.9809 27.8108L34.0205 27.0828L35.2254 27.0584L35.6211 25.9199L36.0168 27.0584L37.2217 27.0828L36.2613 27.8108L36.6103 28.9643L35.6211 28.2762Z" fill="#73AF00"/>
<path d="M35.6206 26.1421L35.9641 27.1299L37.0098 27.1512L36.1764 27.783L36.4793 28.7841L35.6208 28.1866L34.7623 28.7841L35.0652 27.783L34.2318 27.1512L35.2775 27.1299L35.6206 26.1421ZM35.6206 25.6973L35.4827 26.0941L35.1727 26.986L34.2286 27.0054L33.8086 27.0139L34.1434 27.2678L34.8957 27.8383L34.6224 28.7421L34.5007 29.1442L34.8456 28.9043L35.6206 28.3649L36.3956 28.9043L36.7405 29.1442L36.6188 28.7421L36.3455 27.8383L37.0978 27.2678L37.4326 27.0139L37.0126 27.0054L36.0685 26.986L35.7585 26.0941L35.6206 25.6973Z" fill="#FFE15A"/>
<path d="M39.9472 28.2762L38.958 28.9643L39.3069 27.8108L38.3467 27.0828L39.5514 27.0584L39.9472 25.9199L40.343 27.0584L41.5477 27.0828L40.5875 27.8108L40.9364 28.9643L39.9472 28.2762Z" fill="#73AF00"/>
<path d="M39.9458 26.1421L40.2893 27.1299L41.3349 27.1512L40.5015 27.783L40.8044 28.7841L39.9459 28.1866L39.0874 28.7841L39.3903 27.783L38.5569 27.1512L39.6026 27.1299L39.9458 26.1421ZM39.9458 25.6973L39.8079 26.0941L39.4978 26.986L38.5538 27.0054L38.1338 27.0139L38.4686 27.2678L39.2209 27.8383L38.9476 28.7421L38.8259 29.1442L39.1708 28.9043L39.9458 28.3649L40.7208 28.9043L41.0657 29.1442L40.944 28.7421L40.6707 27.8383L41.423 27.2678L41.7578 27.0139L41.3378 27.0054L40.3937 26.986L40.0837 26.0941L39.9458 25.6973Z" fill="#FFE15A"/>
<path d="M43.4945 29.7305C42.5999 32.0084 40.3842 33.6277 37.7926 33.6277C35.201 33.6277 32.9853 32.0083 32.0906 29.7305L30.749 30.2554C31.8542 33.0692 34.5912 35.0698 37.7926 35.0698C40.9939 35.0698 43.7309 33.0693 44.8361 30.2554L43.4945 29.7305Z" fill="#FFE15A"/>
<path d="M38.5143 21.3725H37.4328L37.0723 20.291H38.1538L38.5143 21.3725Z" fill="#F5F5F5"/>
<path d="M40.3168 21.3733H39.5958L39.3555 20.6523H39.6846C39.9186 20.6523 40.1264 20.8021 40.2004 21.0241L40.3168 21.3733Z" fill="#F5F5F5"/>
<path d="M36.3513 21.3733H35.6303L35.5481 21.1268C35.4703 20.8934 35.644 20.6523 35.8901 20.6523H36.1109L36.3513 21.3733Z" fill="#F5F5F5"/>
<path d="M39.5962 21.3725H38.5147L38.1543 20.291H38.976C39.1311 20.291 39.2688 20.3902 39.318 20.5376L39.5962 21.3725Z" fill="#41479B"/>
<path d="M37.4326 21.3725H36.3512L36.1076 20.642C36.0501 20.4693 36.1786 20.291 36.3607 20.291H37.0722L37.4326 21.3725Z" fill="#41479B"/>
<path d="M40.4409 18.8711C40.1593 19.2767 39.3707 19.761 38.0864 19.761C37.0282 19.761 36.3477 19.1221 36.1204 18.8701C36.065 18.8088 36.0361 18.7304 36.0361 18.6477V18.4018C36.0361 18.2959 36.091 18.1996 36.1824 18.1465C36.4113 18.0133 36.9404 17.8008 37.985 17.8008C39.2807 17.8008 40.4409 18.8711 40.4409 18.8711Z" fill="#509664"/>
</g>
<defs>
<clipPath id="clip0_3462_31980">
<rect width="50" height="50" fill="white" transform="translate(0.310547 0.587891)"/>
</clipPath>
</defs>
</svg>
