<svg width="50" height="51" viewBox="0 0 50 51" fill="none" xmlns="http://www.w3.org/2000/svg">
<g clip-path="url(#clip0_3462_31973)">
<path d="M49.1378 42.2599H0.862108C0.386034 42.2599 0 41.8739 0 41.3978V34.0703H49.9999V41.3978C49.9999 41.8741 49.6139 42.2599 49.1378 42.2599Z" fill="#FFE15A"/>
<path d="M49.9999 25.8809H0V34.0703H49.9999V25.8809Z" fill="#73AF00"/>
<path d="M49.9999 17.6914H0V25.8808H49.9999V17.6914Z" fill="#F5F5F5"/>
<path d="M49.9999 17.6916H0V10.3641C0 9.88799 0.386034 9.50195 0.862108 9.50195H49.1379C49.614 9.50195 50 9.88799 50 10.3641L49.9999 17.6916Z" fill="#41479B"/>
<path d="M29.0947 9.50195H20.9053V42.2607H29.0947V9.50195Z" fill="#FF4B55"/>
<path d="M7.47017 10.6038L8.1895 12.7608L10.4631 12.7784C10.6393 12.7798 10.7123 13.0046 10.5706 13.1093L8.74145 14.4599L9.4272 16.6277C9.48032 16.7955 9.28911 16.9346 9.14585 16.832L7.29615 15.51L5.44644 16.832C5.30308 16.9345 5.11197 16.7955 5.16509 16.6277L5.85084 14.4599L4.02203 13.1093C3.88033 13.0047 3.95338 12.7799 4.12945 12.7784L6.40308 12.7608L7.12242 10.6038C7.17808 10.4367 7.41441 10.4367 7.47017 10.6038Z" fill="#FFE15A"/>
</g>
<defs>
<clipPath id="clip0_3462_31973">
<rect width="50" height="50" fill="white" transform="translate(0 0.880859)"/>
</clipPath>
</defs>
</svg>
