<svg width="51" height="51" viewBox="0 0 51 51" fill="none" xmlns="http://www.w3.org/2000/svg">
<g clip-path="url(#clip0_3462_31928)">
<path d="M49.5646 42.2605H1.28887C0.812792 42.2605 0.426758 41.8745 0.426758 41.3984V10.3641C0.426758 9.88799 0.812792 9.50195 1.28887 9.50195H49.5647C50.0407 9.50195 50.4268 9.88799 50.4268 10.3641V41.3984C50.4267 41.8745 50.0406 42.2605 49.5646 42.2605Z" fill="#F5F5F5"/>
<path d="M25.4259 25.8812V9.50195H1.28818C1.07861 9.50195 0.893554 9.58594 0.744141 9.71035L25.4259 25.8812Z" fill="#464655"/>
<path d="M50.1078 9.71094L25.4258 25.8818H50.4256V10.3646C50.4258 10.0981 50.2978 9.86895 50.1078 9.71094Z" fill="#464655"/>
<path d="M0.743749 42.0518L25.4256 25.8809H0.425781V41.398C0.425781 41.6645 0.553808 41.8937 0.743749 42.0518Z" fill="#464655"/>
<path d="M25.4258 25.8809V42.2601H49.5636C49.7732 42.2601 49.9583 42.1761 50.1077 42.0517L25.4258 25.8809Z" fill="#464655"/>
<path d="M27.4957 24.6742V27.4328C27.4957 28.5736 26.5676 29.5017 25.4268 29.5017C24.2859 29.5017 23.3578 28.5736 23.3578 27.4328V24.6742H27.4957V24.6742ZM28.1853 23.2949H22.6682C22.2872 23.2949 21.9785 23.6036 21.9785 23.9846V27.4328C21.9785 29.3372 23.5224 30.881 25.4268 30.881C27.3311 30.881 28.875 29.3372 28.875 27.4328V23.9846C28.875 23.6038 28.5662 23.2949 28.1853 23.2949Z" fill="#FF4B55"/>
<path d="M27.4963 24.6738V27.4324C27.4963 28.5732 26.5682 29.5014 25.4273 29.5014C24.2865 29.5014 23.3584 28.5732 23.3584 27.4324V24.6738H27.4963" fill="#F5F5F5"/>
<path d="M22.6642 24.3283C22.8546 24.3283 23.009 24.1739 23.009 23.9835C23.009 23.7931 22.8546 23.6387 22.6642 23.6387C22.4737 23.6387 22.3193 23.7931 22.3193 23.9835C22.3193 24.1739 22.4737 24.3283 22.6642 24.3283Z" fill="#FFE15A"/>
<path d="M28.1798 24.3283C28.3702 24.3283 28.5246 24.1739 28.5246 23.9835C28.5246 23.7931 28.3702 23.6387 28.1798 23.6387C27.9893 23.6387 27.835 23.7931 27.835 23.9835C27.835 24.1739 27.9893 24.3283 28.1798 24.3283Z" fill="#FFE15A"/>
<path d="M22.6632 27.0881C22.8536 27.0881 23.008 26.9337 23.008 26.7433C23.008 26.5528 22.8536 26.3984 22.6632 26.3984C22.4727 26.3984 22.3184 26.5528 22.3184 26.7433C22.3184 26.9337 22.4727 27.0881 22.6632 27.0881Z" fill="#FFE15A"/>
<path d="M28.1798 27.0881C28.3702 27.0881 28.5246 26.9337 28.5246 26.7433C28.5246 26.5528 28.3702 26.3984 28.1798 26.3984C27.9893 26.3984 27.835 26.5528 27.835 26.7433C27.835 26.9337 27.9893 27.0881 28.1798 27.0881Z" fill="#FFE15A"/>
<path d="M25.421 24.3283C25.6114 24.3283 25.7658 24.1739 25.7658 23.9835C25.7658 23.7931 25.6114 23.6387 25.421 23.6387C25.2306 23.6387 25.0762 23.7931 25.0762 23.9835C25.0762 24.1739 25.2306 24.3283 25.421 24.3283Z" fill="#FFE15A"/>
<path d="M25.421 30.5627C25.6114 30.5627 25.7658 30.4083 25.7658 30.2179C25.7658 30.0274 25.6114 29.873 25.421 29.873C25.2306 29.873 25.0762 30.0274 25.0762 30.2179C25.0762 30.4083 25.2306 30.5627 25.421 30.5627Z" fill="#FFE15A"/>
<path d="M27.4913 29.6311C27.6817 29.6311 27.8361 29.4767 27.8361 29.2862C27.8361 29.0958 27.6817 28.9414 27.4913 28.9414C27.3009 28.9414 27.1465 29.0958 27.1465 29.2862C27.1465 29.4767 27.3009 29.6311 27.4913 29.6311Z" fill="#FFE15A"/>
<path d="M23.3917 29.6311C23.5821 29.6311 23.7365 29.4767 23.7365 29.2862C23.7365 29.0958 23.5821 28.9414 23.3917 28.9414C23.2013 28.9414 23.0469 29.0958 23.0469 29.2862C23.0469 29.4767 23.2013 29.6311 23.3917 29.6311Z" fill="#FFE15A"/>
<path d="M25.8723 26.5684V27.1622C25.8723 27.4078 25.6725 27.6076 25.4269 27.6076C25.1812 27.6076 24.9814 27.4078 24.9814 27.1622V26.5684H25.8723Z" fill="#41479B"/>
<path d="M25.8723 25.1602V25.754C25.8723 25.9996 25.6725 26.1994 25.4269 26.1994C25.1812 26.1994 24.9814 25.9996 24.9814 25.754V25.1602H25.8723Z" fill="#41479B"/>
<path d="M25.8723 27.9902V28.5841C25.8723 28.8297 25.6725 29.0295 25.4269 29.0295C25.1812 29.0295 24.9814 28.8297 24.9814 28.5841V27.9902H25.8723Z" fill="#41479B"/>
<path d="M27.0716 26.5684V27.1622C27.0716 27.4078 26.8718 27.6076 26.6262 27.6076C26.3806 27.6076 26.1807 27.4078 26.1807 27.1622V26.5684H27.0716Z" fill="#41479B"/>
<path d="M24.6721 26.5684V27.1622C24.6721 27.4078 24.4723 27.6076 24.2267 27.6076C23.9811 27.6076 23.7812 27.4078 23.7812 27.1622V26.5684H24.6721Z" fill="#41479B"/>
<path d="M28.7654 23.2953H22.1225C21.8984 23.2953 21.7168 23.1137 21.7168 22.8896V22.6361C21.7168 22.4121 21.8984 22.2305 22.1225 22.2305H28.7654C28.9894 22.2305 29.1711 22.4121 29.1711 22.6361V22.8896C29.1712 23.1138 28.9894 23.2953 28.7654 23.2953Z" fill="#FFE15A"/>
<path d="M25.4436 22.4961L24.9111 22.7623L25.4436 23.0286L25.9761 22.7623L25.4436 22.4961Z" fill="#FF4B55"/>
<path d="M27.1737 23.0287C27.3943 23.0287 27.573 22.9095 27.573 22.7624C27.573 22.6153 27.3943 22.4961 27.1737 22.4961C26.9532 22.4961 26.7744 22.6153 26.7744 22.7624C26.7744 22.9095 26.9532 23.0287 27.1737 23.0287Z" fill="#4173CD"/>
<path d="M23.7138 23.0287C23.9343 23.0287 24.1131 22.9095 24.1131 22.7624C24.1131 22.6153 23.9343 22.4961 23.7138 22.4961C23.4932 22.4961 23.3145 22.6153 23.3145 22.7624C23.3145 22.9095 23.4932 23.0287 23.7138 23.0287Z" fill="#4173CD"/>
<path d="M26.3772 22.8951C26.4508 22.8951 26.5104 22.8355 26.5104 22.762C26.5104 22.6885 26.4508 22.6289 26.3772 22.6289C26.3037 22.6289 26.2441 22.6885 26.2441 22.762C26.2441 22.8355 26.3037 22.8951 26.3772 22.8951Z" fill="#F5F5F5"/>
<path d="M27.9739 22.8951C28.0474 22.8951 28.107 22.8355 28.107 22.762C28.107 22.6885 28.0474 22.6289 27.9739 22.6289C27.9004 22.6289 27.8408 22.6885 27.8408 22.762C27.8408 22.8355 27.9004 22.8951 27.9739 22.8951Z" fill="#F5F5F5"/>
<path d="M24.513 22.8951C24.5865 22.8951 24.6461 22.8355 24.6461 22.762C24.6461 22.6885 24.5865 22.6289 24.513 22.6289C24.4395 22.6289 24.3799 22.6885 24.3799 22.762C24.3799 22.8355 24.4395 22.8951 24.513 22.8951Z" fill="#F5F5F5"/>
<path d="M22.9153 22.8951C22.9888 22.8951 23.0484 22.8355 23.0484 22.762C23.0484 22.6885 22.9888 22.6289 22.9153 22.6289C22.8418 22.6289 22.7822 22.6885 22.7822 22.762C22.7822 22.8355 22.8418 22.8951 22.9153 22.8951Z" fill="#F5F5F5"/>
<path d="M21.7168 22.6292V22.8954L21.983 23.0286L22.5155 22.7623L21.983 22.4961L21.7168 22.6292Z" fill="#FF4B55"/>
<path d="M29.1708 22.8954V22.6292L28.9045 22.4961L28.3721 22.7623L28.9045 23.0286L29.1708 22.8954Z" fill="#FF4B55"/>
<path d="M23.6716 20.4988C23.5867 20.457 23.4858 20.4828 23.4007 20.5485C23.4444 20.484 23.4694 20.3978 23.4646 20.3042C23.4549 20.1137 23.328 19.9654 23.1812 19.9729C23.0343 19.9804 22.9232 20.1408 22.9328 20.3312C22.938 20.4324 22.9775 20.5195 23.0342 20.5799C22.9196 20.5239 22.7942 20.5293 22.7175 20.606C22.6135 20.7099 22.6385 20.9036 22.7735 21.0384C22.9082 21.1733 23.1019 21.1982 23.2059 21.0943C23.2349 21.0653 23.2516 21.0286 23.2609 20.9887C23.2821 21.0444 23.3148 21.0928 23.3665 21.1182C23.4985 21.1832 23.6737 21.0972 23.7579 20.9262C23.8421 20.7552 23.8035 20.5637 23.6716 20.4988ZM23.2802 20.6908C23.2607 20.7304 23.2493 20.7711 23.2425 20.811C23.2227 20.7586 23.1948 20.7068 23.1498 20.6618C23.1421 20.6541 23.1327 20.6504 23.1245 20.6432C23.1537 20.6553 23.1841 20.6639 23.2162 20.6623C23.2593 20.66 23.2976 20.6417 23.3325 20.6164C23.314 20.6399 23.2944 20.6622 23.2802 20.6908Z" fill="#F5F5F5"/>
<path d="M27.0944 20.9262C27.1787 21.0972 27.3539 21.1833 27.4858 21.1182C27.5377 21.0926 27.5703 21.0443 27.5915 20.9887C27.6009 21.0285 27.6175 21.0652 27.6465 21.0943C27.7505 21.1983 27.944 21.1733 28.0789 21.0383C28.2137 20.9036 28.2387 20.7099 28.1349 20.606C28.0581 20.5293 27.9328 20.5239 27.8182 20.5799C27.875 20.5195 27.9144 20.4324 27.9195 20.3312C27.9292 20.1408 27.8181 19.9803 27.6712 19.9729C27.5243 19.9655 27.3975 20.1137 27.3878 20.3042C27.383 20.3979 27.408 20.484 27.4517 20.5485C27.3666 20.4828 27.2656 20.457 27.1808 20.4988C27.0487 20.5638 27.0102 20.7552 27.0944 20.9262ZM27.5198 20.6166C27.5546 20.642 27.5929 20.6603 27.636 20.6625C27.6682 20.6641 27.6985 20.6554 27.7277 20.6434C27.7196 20.6505 27.7102 20.6542 27.7024 20.662C27.6575 20.7069 27.6296 20.7588 27.6098 20.8112C27.6031 20.7713 27.5917 20.7305 27.5721 20.691C27.558 20.6623 27.5384 20.64 27.5198 20.6166Z" fill="#F5F5F5"/>
<path d="M30.2854 19.7167C29.9019 19.5802 29.0952 19.5071 28.7882 20.2042C28.7289 20.3389 28.7899 20.4959 28.9244 20.5552C29.0545 20.6126 29.2039 20.5558 29.2675 20.4301L29.3678 20.5489C29.2838 20.7848 29.2501 20.996 29.2406 21.0686C29.1037 21.6364 28.5765 21.698 28.355 21.698C27.9976 21.698 27.7956 21.315 27.7936 21.3112C27.7572 21.2407 27.6907 21.1895 27.6131 21.1727C27.5352 21.1558 27.4539 21.1737 27.3915 21.2226C27.2456 21.3372 26.7918 21.6469 26.4495 21.7015C26.2845 21.7279 26.1497 21.7004 26.0588 21.6225C25.9851 21.5596 25.959 21.4806 25.959 21.4319C25.959 21.3126 26.1058 21.1656 26.2253 21.1656C26.3158 21.1656 26.3505 21.2236 26.3505 21.2236C26.4137 21.3572 26.5725 21.4137 26.7053 21.351C26.8383 21.2878 26.8949 21.1292 26.832 20.9964C26.7804 20.8872 26.6381 20.7188 26.4043 20.6578C26.5463 20.4324 26.6769 20.1585 26.7578 19.8346L25.9591 19.5683C25.9591 19.5683 26.2254 18.7695 25.4267 18.7695C24.6279 18.7695 24.8942 19.5683 24.8942 19.5683L24.0955 19.8346C24.1766 20.1585 24.3069 20.4325 24.449 20.6578C24.2153 20.7188 24.0729 20.8872 24.0213 20.9964C23.9584 21.1293 24.015 21.2879 24.148 21.351C24.2808 21.4136 24.4396 21.3572 24.5025 21.2241C24.5025 21.2241 24.5376 21.1656 24.6279 21.1656C24.7475 21.1656 24.8942 21.3125 24.8942 21.4319C24.8942 21.4806 24.8682 21.5597 24.7944 21.6225C24.7035 21.7005 24.5687 21.728 24.4037 21.7015C24.0612 21.6469 23.6075 21.3372 23.4617 21.2226C23.3993 21.1736 23.3181 21.1558 23.2401 21.1727C23.1626 21.1895 23.096 21.2407 23.0596 21.3112C23.0576 21.3151 22.8556 21.698 22.4982 21.698C22.2767 21.698 21.7496 21.6364 21.6126 21.0686C21.6032 20.996 21.5695 20.785 21.4855 20.5489L21.5858 20.4301C21.6494 20.5559 21.7989 20.6126 21.9289 20.5552C22.0635 20.4959 22.1244 20.3389 22.0651 20.2042C21.7581 19.5072 20.9514 19.5803 20.5679 19.7167C20.4581 19.7557 20.3863 19.8615 20.3908 19.978C20.3952 20.0945 20.4751 20.1943 20.5876 20.2248C20.9138 20.3124 21.0602 20.9359 21.0856 21.1472C21.0868 21.1562 21.0886 21.1659 21.0905 21.175C21.2394 21.826 21.7789 22.2306 22.4981 22.2306C22.9105 22.2306 23.1956 21.9971 23.361 21.8036C23.5942 21.9573 23.9695 22.1715 24.3198 22.2271C24.3871 22.2378 24.4528 22.2434 24.517 22.2434C24.7575 22.2434 24.9739 22.1692 25.1399 22.0275C25.3194 21.8744 25.4266 21.6516 25.4266 21.4319C25.4266 21.6517 25.5337 21.8744 25.7132 22.0275C25.8791 22.1692 26.0956 22.2434 26.3361 22.2434C26.4004 22.2434 26.4661 22.2379 26.5333 22.2271C26.8836 22.1716 27.259 21.9573 27.4921 21.8036C27.6576 21.9971 27.9426 22.2306 28.355 22.2306C29.0744 22.2306 29.6138 21.8261 29.7627 21.175C29.7646 21.1659 29.7664 21.1562 29.7676 21.1472C29.793 20.9357 29.9394 20.3124 30.2655 20.2248C30.3781 20.1944 30.4579 20.0945 30.4623 19.978C30.467 19.8614 30.3952 19.7557 30.2854 19.7167Z" fill="#FFE15A"/>
<path d="M20.8016 20.2628C20.6657 20.3191 20.6241 20.5299 20.7086 20.7336C20.793 20.9373 20.9717 21.0568 21.1075 21.0005C21.2434 20.9441 21.285 20.7333 21.2005 20.5296C21.116 20.3259 20.9374 20.2064 20.8016 20.2628Z" fill="#4173CD"/>
<path d="M29.7437 21.0018C29.8796 21.0582 30.0582 20.9387 30.1427 20.735C30.2272 20.5313 30.1856 20.3205 30.0497 20.2641C29.9138 20.2078 29.7352 20.3272 29.6507 20.531C29.5662 20.7347 29.6079 20.9455 29.7437 21.0018Z" fill="#4173CD"/>
<path d="M25.4257 20.8988C25.6462 20.8988 25.825 20.6605 25.825 20.3664C25.825 20.0724 25.6462 19.834 25.4257 19.834C25.2051 19.834 25.0264 20.0724 25.0264 20.3664C25.0264 20.6605 25.2051 20.8988 25.4257 20.8988Z" fill="#4173CD"/>
</g>
<defs>
<clipPath id="clip0_3462_31928">
<rect width="50" height="50" fill="white" transform="translate(0.427734 0.880859)"/>
</clipPath>
</defs>
</svg>
