<svg width="51" height="51" viewBox="0 0 51 51" fill="none" xmlns="http://www.w3.org/2000/svg">
<g clip-path="url(#clip0_3462_31919)">
<path d="M50.1474 25.8813H0.147461V10.3641C0.147461 9.88799 0.533495 9.50195 1.00957 9.50195H49.2854C49.7614 9.50195 50.1475 9.88799 50.1475 10.3641L50.1474 25.8813Z" fill="#F5F5F5"/>
<path d="M1.87158 25.8816V25.0195H0.147461V25.8816V26.7437V41.3989C0.147461 41.875 0.533495 42.261 1.00957 42.261H49.2854C49.7614 42.261 50.1475 41.875 50.1475 41.3989V25.8816H1.87158Z" fill="#FF4B55"/>
<path d="M15.6647 25.8813H1.00957C0.533495 25.8813 0.147461 25.4953 0.147461 25.0192V10.3641C0.147461 9.88799 0.533495 9.50195 1.00957 9.50195H15.6647C16.1408 9.50195 16.5268 9.88799 16.5268 10.3641V25.0192C16.5267 25.4953 16.1408 25.8813 15.6647 25.8813Z" fill="#41479B"/>
<path d="M8.66895 14.0147L9.49083 16.4789L12.0885 16.499C12.4248 16.5016 12.5643 16.9309 12.2937 17.1306L10.204 18.6736L10.9875 21.1504C11.0889 21.4711 10.7238 21.7362 10.4502 21.5407L8.33692 20.0303L6.22355 21.5408C5.94992 21.7364 5.58488 21.4711 5.68624 21.1505L6.46974 18.6737L4.38009 17.1307C4.10949 16.9309 4.24894 16.5017 4.58527 16.4991L7.18292 16.479L8.00479 14.0148C8.11124 13.6956 8.56261 13.6956 8.66895 14.0147Z" fill="#F5F5F5"/>
</g>
<defs>
<clipPath id="clip0_3462_31919">
<rect width="50" height="50" fill="white" transform="translate(0.148438 0.880859)"/>
</clipPath>
</defs>
</svg>
