<svg width="51" height="51" viewBox="0 0 51 51" fill="none" xmlns="http://www.w3.org/2000/svg">
<g clip-path="url(#clip0_3462_31911)">
<path d="M49.5792 42.2606H1.30351C0.827441 42.2606 0.441406 41.8746 0.441406 41.3985V10.3641C0.441406 9.88799 0.827441 9.50195 1.30351 9.50195H49.5793C50.0554 9.50195 50.4414 9.88799 50.4414 10.3641V41.3985C50.4413 41.8746 50.0553 42.2606 49.5792 42.2606Z" fill="#FF4B55"/>
<path d="M8.74307 14.6261L9.56495 17.0903L12.1626 17.1104C12.4989 17.113 12.6384 17.5423 12.3678 17.742L10.2781 19.285L11.0616 21.7618C11.163 22.0825 10.798 22.3476 10.5243 22.1521L8.41104 20.6415L6.29777 22.152C6.02413 22.3476 5.6591 22.0823 5.76046 21.7617L6.54396 19.285L4.45431 17.742C4.18371 17.5422 4.32316 17.113 4.65949 17.1104L7.25714 17.0903L8.07901 14.6261C8.18546 14.3069 8.63673 14.3069 8.74307 14.6261Z" fill="#FFE15A"/>
<path d="M18.176 15.2329L18.7654 16.0366L19.7164 15.7391C19.8396 15.7006 19.9408 15.8411 19.8654 15.9457L19.2832 16.7543L19.86 17.5669C19.9347 17.6721 19.8324 17.8119 19.7096 17.7725L18.7605 17.4687L18.1658 18.2684C18.0889 18.3719 17.9243 18.3178 17.9239 18.1889L17.9195 17.1923L16.9751 16.8739C16.853 16.8326 16.8534 16.6595 16.976 16.6191L17.9223 16.307L17.9334 15.3105C17.9348 15.1817 18.0997 15.1289 18.176 15.2329Z" fill="#FFE15A"/>
<path d="M14.5876 12.837L15.5784 12.9446L16.001 12.0422C16.0558 11.9254 16.2277 11.9454 16.254 12.0717L16.4577 13.0471L17.4466 13.1701C17.5746 13.186 17.6087 13.3558 17.4967 13.4199L16.632 13.915L16.8205 14.8936C16.845 15.0203 16.6941 15.1051 16.5985 15.0185L15.8603 14.349L14.988 14.8307C14.8751 14.8931 14.7477 14.7757 14.8006 14.658L15.2091 13.749L14.4814 13.0682C14.3872 12.9805 14.4594 12.8231 14.5876 12.837Z" fill="#FFE15A"/>
<path d="M16.1538 22.4946L15.5645 23.2983L14.6134 23.0009C14.4903 22.9624 14.389 23.1028 14.4644 23.2074L15.0466 24.0161L14.4698 24.8287C14.3951 24.9339 14.4974 25.0736 14.6202 25.0342L15.5694 24.7304L16.164 25.5301C16.2409 25.6337 16.4055 25.5796 16.406 25.4507L16.4104 24.4541L17.3547 24.1356C17.477 24.0943 17.4764 23.9213 17.3538 23.8808L16.4075 23.5687L16.3964 22.5722C16.3948 22.4435 16.2301 22.3905 16.1538 22.4946Z" fill="#FFE15A"/>
<path d="M19.7415 20.2433L18.7508 20.3509L18.3281 19.4484C18.2734 19.3316 18.1015 19.3517 18.0751 19.4779L17.8713 20.4533L16.8824 20.5764C16.7544 20.5923 16.7203 20.762 16.8323 20.8262L17.6971 21.3213L17.5085 22.2998C17.4841 22.4266 17.635 22.5113 17.7306 22.4247L18.4688 21.7553L19.341 22.2369C19.4539 22.2993 19.5814 22.1819 19.5284 22.0643L19.1199 21.1553L19.8477 20.4744C19.9421 20.3867 19.8699 20.2294 19.7415 20.2433Z" fill="#FFE15A"/>
</g>
<defs>
<clipPath id="clip0_3462_31911">
<rect width="50" height="50" fill="white" transform="translate(0.441406 0.880859)"/>
</clipPath>
</defs>
</svg>
