<svg width="51" height="51" viewBox="0 0 51 51" fill="none" xmlns="http://www.w3.org/2000/svg">
<g clip-path="url(#clip0_3462_31899)">
<path d="M1.73027 9.50195H50.0061C50.4821 9.50195 50.8682 9.88799 50.8682 10.3641V41.3984C50.8682 41.8745 50.4821 42.2605 50.0061 42.2605H1.73027C1.2542 42.2605 0.868164 41.8745 0.868164 41.3984V10.3641C0.868164 9.88799 1.2542 9.50195 1.73027 9.50195Z" fill="#41479B"/>
<path d="M50.5504 42.0522L1.18652 9.71035C1.33594 9.58594 1.521 9.50195 1.73057 9.50195H50.0064C50.4824 9.50195 50.8685 9.88799 50.8685 10.3641V41.3984C50.8685 41.6649 50.7404 41.8941 50.5504 42.0522Z" fill="#73AF00"/>
<path d="M25.8686 31.0537C28.7253 31.0537 31.041 28.7379 31.041 25.8813C31.041 23.0247 28.7253 20.709 25.8686 20.709C23.012 20.709 20.6963 23.0247 20.6963 25.8813C20.6963 28.7379 23.012 31.0537 25.8686 31.0537Z" fill="#FFE15A"/>
<path d="M4.63899 25.9397L4.93821 26.6976L5.71731 26.459C5.76067 26.4458 5.79768 26.4923 5.77522 26.5317L5.36917 27.2381L6.04143 27.6985C6.07883 27.7241 6.06555 27.7821 6.02073 27.789L5.21526 27.9121L5.27454 28.7247C5.27786 28.7698 5.22415 28.7957 5.19094 28.765L4.5926 28.212L3.99427 28.765C3.96106 28.7957 3.90735 28.7699 3.91067 28.7247L3.96995 27.9121L3.16448 27.789C3.11976 27.7822 3.10648 27.7241 3.14378 27.6985L3.81604 27.2381L3.40999 26.5317C3.38743 26.4924 3.42454 26.4459 3.4679 26.459L4.247 26.6976L4.54622 25.9397C4.56272 25.8977 4.62229 25.8977 4.63899 25.9397Z" fill="#F5F5F5"/>
<path d="M15.5355 23.8969L15.8347 24.6548L16.6138 24.4162C16.6572 24.4029 16.6942 24.4495 16.6717 24.4889L16.2657 25.1953L16.9379 25.6557C16.9753 25.6812 16.962 25.7393 16.9172 25.7462L16.1117 25.8692L16.171 26.6818C16.1743 26.7269 16.1206 26.7528 16.0874 26.7222L15.4891 26.1691L14.8908 26.7222C14.8575 26.7528 14.8038 26.727 14.8072 26.6818L14.8664 25.8692L14.061 25.7462C14.0162 25.7394 14.003 25.6812 14.0403 25.6557L14.7125 25.1953L14.3065 24.4889C14.2839 24.4496 14.321 24.403 14.3644 24.4162L15.1435 24.6548L15.4427 23.8969C15.4593 23.8547 15.5189 23.8547 15.5355 23.8969Z" fill="#F5F5F5"/>
<path d="M10.0872 18.9827L10.3865 19.7406L11.1656 19.5021C11.2089 19.4888 11.2459 19.5354 11.2235 19.5747L10.8174 20.2812L11.4897 20.7415C11.5271 20.7671 11.5138 20.8251 11.469 20.8321L10.6635 20.9551L10.7228 21.7677C10.7261 21.8128 10.6724 21.8387 10.6392 21.808L10.0408 21.255L9.44251 21.808C9.40931 21.8387 9.35559 21.8129 9.35891 21.7677L9.41819 20.9551L8.61272 20.8321C8.568 20.8252 8.55472 20.7671 8.59202 20.7415L9.26429 20.2812L8.85823 19.5747C8.83567 19.5355 8.87278 19.4889 8.91614 19.5021L9.69524 19.7406L9.99446 18.9827C10.0111 18.9406 10.0706 18.9406 10.0872 18.9827Z" fill="#F5F5F5"/>
<path d="M10.0872 36.8343L10.3865 37.5922L11.1656 37.3536C11.2089 37.3404 11.2459 37.3869 11.2235 37.4263L10.8174 38.1327L11.4897 38.5931C11.5271 38.6187 11.5138 38.6767 11.469 38.6836L10.6635 38.8067L10.7228 39.6193C10.7261 39.6644 10.6724 39.6902 10.6392 39.6596L10.0408 39.1066L9.44251 39.6596C9.40931 39.6902 9.35559 39.6645 9.35891 39.6193L9.41819 38.8067L8.61272 38.6836C8.568 38.6768 8.55472 38.6187 8.59202 38.5931L9.26429 38.1327L8.85823 37.4263C8.83567 37.387 8.87278 37.3405 8.91614 37.3536L9.69524 37.5922L9.99446 36.8343C10.0111 36.7922 10.0706 36.7922 10.0872 36.8343Z" fill="#F5F5F5"/>
<path d="M12.3169 26.6242L12.5257 27.2505L13.186 27.2556C13.2372 27.256 13.2583 27.3212 13.2172 27.3516L12.6861 27.7438L12.8852 28.3732C12.9006 28.4221 12.8452 28.4624 12.8036 28.4326L12.2665 28.0486L11.7293 28.4326C11.6877 28.4624 11.6323 28.4221 11.6477 28.3732L11.8468 27.7438L11.3157 27.3516C11.2745 27.3212 11.2958 27.2559 11.3469 27.2556L12.0072 27.2505L12.216 26.6242C12.2322 26.5758 12.3007 26.5758 12.3169 26.6242Z" fill="#F5F5F5"/>
<path d="M22.7997 23.6554C22.5882 23.6061 22.3756 24.1502 22.6112 24.3387C22.8469 24.5271 23.271 24.8806 23.0118 25.0927C22.7526 25.3048 22.6584 25.3283 22.6112 25.5875C22.5641 25.8467 22.6112 25.8938 22.3991 26.0116C22.187 26.1294 21.6922 26.365 21.9043 26.6008C22.1164 26.8365 22.3991 26.6951 22.5876 26.3181C22.5876 26.3181 23.9071 26.271 23.9543 26.3651C24.0014 26.4595 24.1192 26.8129 24.402 26.7186C24.6847 26.6242 24.6847 26.6242 24.6847 26.6242C24.6847 26.6242 24.8497 26.5535 24.9675 26.6949C25.0852 26.8363 25.368 26.8834 25.6979 26.8834C26.0278 26.8834 26.3105 27.0719 26.2871 27.5196C26.2721 27.8064 26.1988 28.4027 26.1483 28.7942C26.1213 29.0038 26.265 29.1968 26.4735 29.2315L27.0768 29.3321C27.2355 29.3585 27.3831 29.2453 27.3972 29.0851C27.4256 28.7628 27.4667 28.2904 27.4653 28.2737C27.4517 28.1043 27.7952 27.237 27.7717 26.8363C27.748 26.4357 27.748 26.4357 27.748 26.4357C27.748 26.4357 28.1014 26.3887 28.2429 26.153C28.3843 25.9174 28.6906 25.3283 29.3032 25.1163L29.4681 24.7157C29.4681 24.7157 28.9969 24.5036 29.0911 24.3623C29.1854 24.2209 29.2325 23.8438 29.1618 23.5376C29.0911 23.2314 29.0675 22.8071 29.0675 22.8071C29.0675 22.8071 28.8995 22.7361 28.864 22.8338C28.8286 22.9314 28.793 22.9846 28.7044 22.9669C28.6157 22.9491 28.4826 22.9402 28.4471 22.8605C28.4117 22.7806 28.314 22.7008 28.2254 22.7451C28.1367 22.7896 27.9858 23.3838 27.773 23.4459C27.773 23.4459 27.7553 23.1887 27.6222 23.2419C27.4892 23.2951 27.498 23.4192 27.4804 23.641C27.4627 23.8628 25.9722 25.3619 24.6682 24.9628C24.6682 24.9628 24.5264 24.679 24.2336 24.7056C23.9408 24.7322 23.6569 24.7233 23.4885 24.5192C23.3198 24.3151 23.0514 23.7143 22.7997 23.6554Z" fill="#73AF00"/>
<path d="M32.3955 26.1213C32.7885 26.5389 37.1064 27.7147 41.4709 25.4285C45.8354 23.1423 48.4333 22.4843 48.4333 22.4843C48.4333 22.4843 48.4679 21.8954 49.0049 21.8089C49.5417 21.7223 49.282 21.4972 49.1434 21.324C49.0049 21.1509 48.3295 20.6832 47.4114 21.0816C47.4114 21.0816 46.3435 21.122 46.1818 19.6441C46.0202 18.1661 45.9509 16.6651 45.5814 16.0186C45.2119 15.372 42.1638 12.1391 41.7942 12.3931C41.4247 12.6471 42.718 15.857 43.9188 16.9886C43.9188 16.9886 44.196 18.9746 43.8495 19.0669C43.503 19.1593 41.5865 17.4042 38.1688 16.9886C38.1688 16.9886 39.6236 18.9746 41.4018 19.806C43.1799 20.6373 43.6647 21.3994 43.6186 21.7227C43.5725 22.0459 42.9721 23.5932 41.9791 24.3091C40.9861 25.0249 38.4922 26.9646 32.8344 25.9486C32.8343 25.9481 32.2109 25.9251 32.3955 26.1213Z" fill="#FFE15A"/>
</g>
<defs>
<clipPath id="clip0_3462_31899">
<rect width="50" height="50" fill="white" transform="translate(0.869141 0.880859)"/>
</clipPath>
</defs>
</svg>
