<svg width="51" height="51" viewBox="0 0 51 51" fill="none" xmlns="http://www.w3.org/2000/svg">
<g clip-path="url(#clip0_3462_31887)">
<path d="M49.3009 42.2605H1.02519C0.54912 42.2605 0.163086 41.8745 0.163086 41.3984V10.3641C0.163086 9.88799 0.54912 9.50195 1.02519 9.50195H49.301C49.7771 9.50195 50.1631 9.88799 50.1631 10.3641V41.3984C50.163 41.8745 49.777 42.2605 49.3009 42.2605Z" fill="#73AF00"/>
<path d="M27.8594 30.9255C25.0741 30.9255 22.816 28.6675 22.816 25.8821C22.816 23.0967 25.074 20.8386 27.8594 20.8386C28.2291 20.8386 28.5872 20.883 28.9324 20.9622C29.07 20.9937 29.1429 20.8091 29.0229 20.7347C27.9667 20.0799 26.6947 19.7402 25.337 19.8507C22.3816 20.0911 20.0056 22.5005 19.8045 25.4589C19.564 28.9929 22.3595 31.9342 25.8422 31.9342C27.0096 31.9342 28.0989 31.6026 29.0232 31.0294C29.1432 30.955 29.0707 30.7703 28.9329 30.802C28.5875 30.8812 28.2292 30.9255 27.8594 30.9255Z" fill="#FFE15A"/>
<path d="M32.2561 21.6103L32.6349 22.5697L33.6211 22.2676C33.6759 22.2508 33.723 22.3099 33.6944 22.3595L33.1805 23.2539L34.0316 23.8366C34.0788 23.8689 34.062 23.9425 34.0054 23.9511L32.9858 24.107L33.0608 25.1356C33.065 25.1927 32.997 25.2254 32.9549 25.1866L32.1975 24.4866L31.4401 25.1866C31.398 25.2254 31.33 25.1927 31.3342 25.1356L31.4092 24.107L30.3896 23.9511C30.3329 23.9425 30.3162 23.8689 30.3634 23.8366L31.2145 23.2539L30.7006 22.3595C30.6721 22.3098 30.7191 22.2509 30.7739 22.2676L31.7601 22.5697L32.1389 21.6103C32.1597 21.557 32.2351 21.557 32.2561 21.6103Z" fill="#FFE15A"/>
<path d="M46.0491 19.0243L46.4279 19.9837L47.4141 19.6816C47.4689 19.6648 47.5159 19.7239 47.4873 19.7735L46.9735 20.6678L47.8245 21.2506C47.8718 21.2829 47.855 21.3565 47.7984 21.3651L46.7787 21.521L46.8537 22.5497C46.8579 22.6068 46.79 22.6395 46.7479 22.6007L45.9905 21.9007L45.233 22.6007C45.1909 22.6395 45.123 22.6068 45.1272 22.5497L45.2022 21.521L44.1826 21.3651C44.1259 21.3565 44.1092 21.2829 44.1564 21.2506L45.0075 20.6678L44.4936 19.7735C44.4651 19.7238 44.512 19.6649 44.5668 19.6816L45.5531 19.9837L45.9319 19.0243C45.9527 18.9711 46.0281 18.9711 46.0491 19.0243Z" fill="#FFE15A"/>
<path d="M39.1526 12.8056L39.5314 13.765L40.5176 13.4629C40.5724 13.4461 40.6195 13.5052 40.5909 13.5548L40.077 14.4492L40.9281 15.0319C40.9753 15.0642 40.9585 15.1378 40.9019 15.1464L39.8823 15.3023L39.9573 16.3309C39.9615 16.388 39.8935 16.4207 39.8514 16.3819L39.094 15.6819L38.3366 16.3819C38.2945 16.4207 38.2265 16.388 38.2307 16.3309L38.3057 15.3023L37.2861 15.1464C37.2294 15.1378 37.2127 15.0642 37.2599 15.0319L38.111 14.4492L37.5971 13.5548C37.5686 13.5051 37.6157 13.4462 37.6703 13.4629L38.6566 13.765L39.0354 12.8056C39.0561 12.7523 39.1316 12.7523 39.1526 12.8056Z" fill="#FFE15A"/>
<path d="M39.1526 35.4052L39.5314 36.3645L40.5176 36.0625C40.5724 36.0457 40.6195 36.1048 40.5909 36.1544L40.077 37.0487L40.9281 37.6314C40.9753 37.6637 40.9585 37.7374 40.9019 37.746L39.8823 37.9018L39.9573 38.9304C39.9615 38.9876 39.8935 39.0203 39.8514 38.9814L39.094 38.2814L38.3366 38.9814C38.2945 39.0203 38.2265 38.9876 38.2307 38.9304L38.3057 37.9018L37.2861 37.746C37.2294 37.7374 37.2127 37.6637 37.2599 37.6314L38.111 37.0487L37.5971 36.1544C37.5686 36.1047 37.6157 36.0458 37.6703 36.0625L38.6566 36.3645L39.0354 35.4052C39.0561 35.3519 39.1316 35.3519 39.1526 35.4052Z" fill="#FFE15A"/>
<path d="M41.9757 22.4797L42.2401 23.2724L43.0758 23.2789C43.1405 23.2795 43.1674 23.362 43.1153 23.4005L42.4431 23.8969L42.6951 24.6937C42.7147 24.7554 42.6443 24.8065 42.5917 24.7688L41.9117 24.2828L41.2317 24.7688C41.179 24.8064 41.1088 24.7554 41.1283 24.6937L41.3804 23.8969L40.7081 23.4005C40.6561 23.362 40.6829 23.2794 40.7477 23.2789L41.5833 23.2724L41.8478 22.4797C41.8683 22.4182 41.9551 22.4182 41.9757 22.4797Z" fill="#FFE15A"/>
<path d="M9.21483 24.1582C12.3096 24.1582 14.8183 21.6494 14.8183 18.5547C14.8183 15.4599 12.3096 12.9512 9.21483 12.9512C6.1201 12.9512 3.61133 15.4599 3.61133 18.5547C3.61133 21.6494 6.1201 24.1582 9.21483 24.1582Z" fill="#FFE15A"/>
<path d="M8.63867 22.919H10.1519C10.1519 22.919 11.0117 19.0671 10.2207 17.6914L9.73926 18.0009C9.73926 18.0009 10.5303 20.649 8.63867 22.919Z" fill="#964B50"/>
<path d="M8.69521 17.8639C8.69521 17.8639 7.82402 18.46 8.09912 20.2255C8.09912 20.2255 8.76396 19.6752 9.13085 18.46C9.13085 18.46 8.60351 19.4688 9.3372 20.2713C9.3372 20.2713 10.1167 19.1707 10.002 18.2077C10.002 18.2077 12.5937 20.9142 12.0427 20.2254C11.951 20.1108 12.1803 18.9643 11.286 18.0243C11.286 18.0243 12.7535 18.3911 13.3037 18.2536C13.3037 18.2536 13.3496 17.0842 11.9509 16.8779L12.2719 15.9608C12.2719 15.9608 11.1943 15.892 10.621 16.4422C10.621 16.4422 10.4834 15.0206 11.0566 14.3328C11.0566 14.3328 9.35995 14.0806 9.29111 16.3047C9.29111 16.3047 8.67206 14.8831 6.76904 15.2272C6.76904 15.2272 7.84658 16.0067 8.03017 16.3507C8.03017 16.3507 6.51689 15.319 5.80615 16.7634C5.80615 16.7634 7.02138 16.4424 7.45703 17.0156C7.45703 17.0156 5.50811 16.8093 5.34766 18.4831C5.34775 18.483 7.15908 17.6346 8.69521 17.8639Z" fill="#73AF00"/>
</g>
<defs>
<clipPath id="clip0_3462_31887">
<rect width="50" height="50" fill="white" transform="translate(0.162109 0.880859)"/>
</clipPath>
</defs>
</svg>
