<svg width="51" height="51" viewBox="0 0 51 51" fill="none" xmlns="http://www.w3.org/2000/svg">
<g clip-path="url(#clip0_3462_31871)">
<path d="M1.7459 9.50195H50.0217C50.4978 9.50195 50.8838 9.88799 50.8838 10.3641V17.6916H0.883789V10.3641C0.883789 9.88799 1.26982 9.50195 1.7459 9.50195Z" fill="#FFE15A"/>
<path d="M50.8837 17.6914H0.883789V25.8808H50.8837V17.6914Z" fill="#F5F5F5"/>
<path d="M50.8837 25.8809H0.883789V34.0703H50.8837V25.8809Z" fill="#FF4B55"/>
<path d="M0.883789 34.0703H50.8837V41.3978C50.8837 41.8739 50.4977 42.2599 50.0216 42.2599H1.7459C1.26982 42.2599 0.883789 41.8739 0.883789 41.3978V34.0703Z" fill="#4173CD"/>
<path d="M1.20176 42.0528L25.3602 26.2248C25.6073 26.0629 25.6073 25.7008 25.3602 25.5387L1.20176 9.71094C1.01182 9.86895 0.883789 10.0981 0.883789 10.3646V41.399C0.883789 41.6655 1.01182 41.8947 1.20176 42.0528Z" fill="#73AF00"/>
<path d="M5.65185 25.8804C5.65185 22.7633 7.68944 20.1258 10.5043 19.2174C10.6522 19.1696 10.6316 18.9536 10.4774 18.9334C10.1877 18.8955 9.89247 18.875 9.59227 18.875C5.72333 18.875 2.58691 22.0114 2.58691 25.8804C2.58691 29.7493 5.72333 32.8857 9.59227 32.8857C9.89247 32.8857 10.1877 32.8652 10.4774 32.8273C10.6316 32.8071 10.6522 32.5911 10.5043 32.5433C7.68944 31.635 5.65185 28.9976 5.65185 25.8804Z" fill="#F5F5F5"/>
<path d="M10.54 20.5288L10.7329 21.1071L11.3424 21.1118C11.4213 21.1125 11.454 21.2131 11.3905 21.26L10.9002 21.6221L11.084 22.2032C11.1078 22.2784 11.0221 22.3407 10.9579 22.2948L10.462 21.9405L9.96608 22.2948C9.90183 22.3407 9.81618 22.2784 9.84001 22.2032L10.0238 21.6221L9.53347 21.26C9.46999 21.2131 9.5028 21.1123 9.58161 21.1118L10.1911 21.1071L10.384 20.5288C10.4091 20.4539 10.515 20.4539 10.54 20.5288Z" fill="#F5F5F5"/>
<path d="M10.54 23.4604L10.7329 24.0386L11.3424 24.0434C11.4213 24.0441 11.454 24.1447 11.3905 24.1916L10.9002 24.5537L11.084 25.1348C11.1078 25.21 11.0221 25.2723 10.9579 25.2264L10.462 24.872L9.96608 25.2264C9.90183 25.2723 9.81618 25.21 9.84001 25.1348L10.0238 24.5537L9.53347 24.1916C9.46999 24.1447 9.5028 24.0439 9.58161 24.0434L10.1911 24.0386L10.384 23.4604C10.4091 23.3856 10.515 23.3856 10.54 23.4604Z" fill="#F5F5F5"/>
<path d="M10.54 26.3902L10.7329 26.9684L11.3424 26.9732C11.4213 26.9739 11.454 27.0744 11.3905 27.1213L10.9002 27.4834L11.084 28.0646C11.1078 28.1398 11.0221 28.2021 10.9579 28.1562L10.462 27.8018L9.96608 28.1562C9.90183 28.2021 9.81618 28.1398 9.84001 28.0646L10.0238 27.4834L9.53347 27.1213C9.46999 27.0744 9.5028 26.9737 9.58161 26.9732L10.1911 26.9684L10.384 26.3902C10.4091 26.3153 10.515 26.3153 10.54 26.3902Z" fill="#F5F5F5"/>
<path d="M10.54 29.3198L10.7329 29.8981L11.3424 29.9029C11.4213 29.9035 11.454 30.0041 11.3905 30.051L10.9002 30.4131L11.084 30.9943C11.1078 31.0695 11.0221 31.1318 10.9579 31.0859L10.462 30.7315L9.96608 31.0859C9.90183 31.1318 9.81618 31.0695 9.84001 30.9943L10.0238 30.4131L9.53347 30.051C9.46999 30.0041 9.5028 29.9033 9.58161 29.9029L10.1911 29.8981L10.384 29.3198C10.4091 29.2449 10.515 29.2449 10.54 29.3198Z" fill="#F5F5F5"/>
</g>
<defs>
<clipPath id="clip0_3462_31871">
<rect width="50" height="50" fill="white" transform="translate(0.882812 0.880859)"/>
</clipPath>
</defs>
</svg>
