<svg width="51" height="51" viewBox="0 0 51 51" fill="none" xmlns="http://www.w3.org/2000/svg">
<g clip-path="url(#clip0_3462_31845)">
<path d="M49.4483 41.3953H1.17265C0.696581 41.3953 0.310547 41.0092 0.310547 40.5331V9.49883C0.310547 9.02275 0.696581 8.63672 1.17265 8.63672H49.4484C49.9245 8.63672 50.3105 9.02275 50.3105 9.49883V40.5331C50.3104 41.0093 49.9244 41.3953 49.4483 41.3953Z" fill="#41479B"/>
<path d="M24.4484 8.63672H22.951L14.9657 13.8684V8.63672H10.6554V13.8684L2.67001 8.63672H1.17265C0.696581 8.63672 0.310547 9.02275 0.310547 9.49883V10.1826L7.16161 14.6712H0.310547V18.9815H7.16161L0.310547 23.4702V24.1539C0.310547 24.63 0.696581 25.016 1.17265 25.016H2.67001L10.6554 19.7843V25.016H14.9657V19.7843L22.9509 25.016H24.4483C24.9244 25.016 25.3104 24.63 25.3104 24.1539V23.4701L18.4594 18.9815H25.3104V14.6712H18.4593L25.3104 10.1826V9.49883C25.3104 9.02275 24.9246 8.63672 24.4484 8.63672Z" fill="#F5F5F5"/>
<path d="M25.3104 15.5333H14.1036V8.63672H11.5174V15.5333H0.310547V18.1194H11.5174V25.016H14.1036V18.1194H25.3104V15.5333Z" fill="#FF4B55"/>
<path d="M9.79324 14.672L0.721386 8.7832C0.47998 8.93603 0.310547 9.19267 0.310547 9.49961V9.54433L8.20985 14.672H9.79324Z" fill="#FF4B55"/>
<path d="M16.5492 14.6712L25.1795 9.06904C25.0295 8.81523 24.7648 8.63672 24.4485 8.63672H24.2621L14.9658 14.6712H16.5492Z" fill="#FF4B55"/>
<path d="M9.04832 18.9824L0.43457 24.5738C0.583105 24.8338 0.851855 25.0169 1.17275 25.0169H1.33535L10.6317 18.9824H9.04832Z" fill="#FF4B55"/>
<path d="M25.2968 24.2225L17.2239 18.9824H15.6406L24.8079 24.933C25.0826 24.8056 25.2709 24.5385 25.2968 24.2225Z" fill="#FF4B55"/>
<path d="M37.1388 14.6742L37.4549 15.6223L38.4543 15.63C38.5316 15.6307 38.5637 15.7293 38.5014 15.7754L37.6975 16.369L37.9989 17.3219C38.0222 17.3957 37.9382 17.4568 37.8752 17.4117L37.0621 16.8306L36.249 17.4117C36.1859 17.4567 36.102 17.3957 36.1253 17.3219L36.4266 16.369L35.6227 15.7754C35.5604 15.7294 35.5925 15.6306 35.6699 15.63L36.6692 15.6223L36.9853 14.6742C37.0105 14.6008 37.1144 14.6008 37.1388 14.6742Z" fill="#F5F5F5"/>
<path d="M32.8898 15.8409L33.5642 16.5784L34.4802 16.1791C34.5512 16.1482 34.6207 16.2253 34.5825 16.2927L34.0895 17.1619L34.7524 17.9098C34.8038 17.9678 34.7518 18.0577 34.676 18.0422L33.6969 17.842L33.1906 18.7035C33.1513 18.7702 33.0498 18.7486 33.041 18.6717L32.9288 17.6787L31.9529 17.4634C31.8772 17.4467 31.8665 17.3434 31.937 17.3113L32.8467 16.8978L32.7499 15.9031C32.7426 15.826 32.8375 15.7837 32.8898 15.8409Z" fill="#F5F5F5"/>
<path d="M29.4825 18.6341L30.3985 19.0335L31.0729 18.296C31.1251 18.2388 31.2201 18.2811 31.2125 18.3582L31.1158 19.3528L32.0255 19.7664C32.096 19.7984 32.0851 19.9017 32.0096 19.9184L31.0337 20.1337L30.9215 21.1267C30.9128 21.2037 30.8112 21.2252 30.7719 21.1585L30.2656 20.297L29.2865 20.4972C29.2106 20.5127 29.1586 20.4228 29.2101 20.3648L29.873 19.6169L29.38 18.7477C29.3419 18.6804 29.4114 18.6033 29.4825 18.6341Z" fill="#F5F5F5"/>
<path d="M27.505 22.5715L28.5043 22.5637L28.8205 21.6157C28.8449 21.5422 28.9488 21.5422 28.9734 21.6157L29.2895 22.5637L30.2889 22.5715C30.3662 22.5721 30.3983 22.6708 30.336 22.7169L29.5321 23.3105L29.8335 24.2634C29.8568 24.3372 29.7728 24.3983 29.7098 24.3532L28.8967 23.772L28.0836 24.3532C28.0205 24.3982 27.9366 24.3372 27.9599 24.2634L28.2612 23.3105L27.4573 22.7169C27.3955 22.6708 27.4276 22.5719 27.505 22.5715Z" fill="#F5F5F5"/>
<path d="M27.3012 26.9733L28.211 26.5598L28.1142 25.5651C28.1067 25.4881 28.2016 25.4459 28.2538 25.5029L28.9283 26.2404L29.8443 25.8411C29.9153 25.8102 29.9848 25.8873 29.9465 25.9547L29.4535 26.824L30.1164 27.5719C30.1678 27.6299 30.1159 27.7198 30.0401 27.7043L29.061 27.5041L28.5546 28.3656C28.5154 28.4323 28.4138 28.4107 28.405 28.3338L28.2928 27.3408L27.3169 27.1255C27.2415 27.1087 27.2307 27.0054 27.3012 26.9733Z" fill="#F5F5F5"/>
<path d="M28.9054 31.0777L29.5683 30.3298L29.0753 29.4606C29.0371 29.3932 29.1066 29.3161 29.1775 29.347L30.0935 29.7463L30.768 29.0088C30.8202 28.9517 30.9151 28.994 30.9076 29.0711L30.8108 30.0657L31.7206 30.4792C31.7911 30.5113 31.7802 30.6146 31.7047 30.6313L30.7288 30.8466L30.6166 31.8396C30.6079 31.9166 30.5062 31.9381 30.467 31.8714L29.9606 31.0099L28.9815 31.2101C28.9059 31.2255 28.854 31.1357 28.9054 31.0777Z" fill="#F5F5F5"/>
<path d="M32.0393 34.1735L32.3407 33.2207L31.5368 32.627C31.4745 32.581 31.5066 32.4822 31.5839 32.4816L32.5833 32.4739L32.8995 31.5259C32.9239 31.4523 33.0278 31.4523 33.0524 31.5259L33.3685 32.4739L34.3678 32.4816C34.4452 32.4823 34.4773 32.5809 34.415 32.627L33.6111 33.2207L33.9125 34.1735C33.9358 34.2473 33.8518 34.3085 33.7887 34.2634L32.9756 33.6822L32.1626 34.2634C32.1002 34.3084 32.0161 34.2473 32.0393 34.1735Z" fill="#F5F5F5"/>
<path d="M36.163 35.7283L36.0508 34.7353L35.075 34.52C34.9993 34.5033 34.9885 34.4 35.059 34.3679L35.9688 33.9543L35.872 32.9597C35.8645 32.8827 35.9594 32.8404 36.0117 32.8975L36.6861 33.635L37.6021 33.2357C37.6731 33.2047 37.7426 33.2819 37.7043 33.3493L37.2114 34.2185L37.8743 34.9664C37.9256 35.0244 37.8737 35.1143 37.7979 35.0988L36.8188 34.8986L36.3125 35.7601C36.2732 35.8268 36.1716 35.8052 36.163 35.7283Z" fill="#F5F5F5"/>
<path d="M40.561 35.471L40.0546 34.6095L39.0755 34.8097C38.9997 34.8252 38.9477 34.7353 38.9992 34.6773L39.6621 33.9294L39.1691 33.0602C39.1309 32.9928 39.2004 32.9157 39.2713 32.9466L40.1874 33.346L40.8618 32.6085C40.914 32.5513 41.0089 32.5936 41.0014 32.6707L40.9046 33.6653L41.8144 34.0789C41.8849 34.1109 41.874 34.2142 41.7985 34.2309L40.8226 34.4462L40.7104 35.4392C40.7019 35.5162 40.6002 35.5377 40.561 35.471Z" fill="#F5F5F5"/>
<path d="M44.4757 33.4469L43.6627 32.8658L42.8496 33.4469C42.7865 33.492 42.7026 33.4309 42.7258 33.3571L43.0272 32.4043L42.2233 31.8106C42.161 31.7646 42.1931 31.6658 42.2705 31.6652L43.2698 31.6575L43.586 30.7094C43.6104 30.6359 43.7143 30.6359 43.7389 30.7094L44.055 31.6575L45.0544 31.6652C45.1317 31.6659 45.1638 31.7645 45.1015 31.8106L44.2976 32.4043L44.599 33.3571C44.6227 33.4308 44.5386 33.492 44.4757 33.4469Z" fill="#F5F5F5"/>
<path d="M47.2278 30.0069L46.2487 29.8067L45.7423 30.6683C45.7031 30.735 45.6015 30.7134 45.5927 30.6364L45.4805 29.6435L44.5046 29.4281C44.429 29.4114 44.4182 29.3081 44.4887 29.2761L45.3985 28.8625L45.3017 27.8679C45.2942 27.7908 45.3891 27.7486 45.4414 27.8057L46.1158 28.5432L47.0318 28.1439C47.1028 28.1129 47.1723 28.1901 47.134 28.2574L46.6411 29.1267L47.304 29.8745C47.3556 29.9325 47.3037 30.0225 47.2278 30.0069Z" fill="#F5F5F5"/>
<path d="M48.3426 25.7447L47.3667 25.96L47.2545 26.953C47.2458 27.0299 47.1442 27.0515 47.1049 26.9848L46.5986 26.1233L45.6195 26.3235C45.5436 26.339 45.4916 26.2491 45.5431 26.1911L46.206 25.4432L45.713 24.5739C45.6748 24.5065 45.7444 24.4294 45.8153 24.4603L46.7313 24.8596L47.4057 24.1221C47.4579 24.065 47.5529 24.1073 47.5454 24.1843L47.4486 25.179L48.3583 25.5925C48.429 25.6247 48.4182 25.7281 48.3426 25.7447Z" fill="#F5F5F5"/>
<path d="M47.6264 21.3966L46.8225 21.9902L47.1239 22.943C47.1472 23.0169 47.0632 23.078 47.0002 23.0329L46.1871 22.4517L45.374 23.0329C45.3109 23.0779 45.227 23.0169 45.2503 22.943L45.5516 21.9902L44.7477 21.3966C44.6854 21.3506 44.7175 21.2517 44.7949 21.2511L45.7942 21.2434L46.1104 20.2954C46.1348 20.2219 46.2387 20.2219 46.2633 20.2954L46.5795 21.2434L47.5788 21.2511C47.6566 21.2517 47.6887 21.3506 47.6264 21.3966Z" fill="#F5F5F5"/>
<path d="M45.2045 17.7144L44.7116 18.5837L45.3745 19.3316C45.4258 19.3896 45.3739 19.4795 45.2981 19.464L44.319 19.2638L43.8126 20.1253C43.7734 20.192 43.6718 20.1705 43.663 20.0935L43.5508 19.1005L42.575 18.8852C42.4993 18.8685 42.4885 18.7652 42.559 18.7332L43.4688 18.3196L43.372 17.325C43.3645 17.2479 43.4594 17.2056 43.5117 17.2628L44.1861 18.0002L45.1021 17.6009C45.1732 17.57 45.2427 17.6471 45.2045 17.7144Z" fill="#F5F5F5"/>
<path d="M41.4948 15.3367L41.398 16.3313L42.3078 16.7449C42.3783 16.7769 42.3673 16.8803 42.2918 16.897L41.316 17.1123L41.2038 18.1053C41.1951 18.1822 41.0934 18.2038 41.0541 18.1371L40.5478 17.2756L39.5687 17.4758C39.4928 17.4913 39.4409 17.4013 39.4923 17.3433L40.1552 16.5955L39.6623 15.7262C39.6241 15.6588 39.6936 15.5816 39.7645 15.6126L40.6805 16.0119L41.3549 15.2744C41.4074 15.2174 41.5023 15.2597 41.4948 15.3367Z" fill="#F5F5F5"/>
<path d="M37.1388 14.6742L37.4549 15.6223L38.4543 15.63C38.5316 15.6307 38.5637 15.7293 38.5014 15.7754L37.6975 16.369L37.9989 17.3219C38.0222 17.3957 37.9382 17.4568 37.8752 17.4117L37.0621 16.8306L36.249 17.4117C36.1859 17.4567 36.102 17.3957 36.1253 17.3219L36.4266 16.369L35.6227 15.7754C35.5604 15.7294 35.5925 15.6306 35.6699 15.63L36.6692 15.6223L36.9853 14.6742C37.0105 14.6008 37.1144 14.6008 37.1388 14.6742Z" fill="#F5F5F5"/>
</g>
<defs>
<clipPath id="clip0_3462_31845">
<rect width="50" height="50" fill="white" transform="translate(0.310547 0.015625)"/>
</clipPath>
</defs>
</svg>
