<svg width="50" height="51" viewBox="0 0 50 51" fill="none" xmlns="http://www.w3.org/2000/svg">
<g clip-path="url(#clip0_3462_31842)">
<path d="M49.1378 41.5535H0.862108C0.386034 41.5535 0 41.1674 0 40.6913V9.65703C0 9.18096 0.386034 8.79492 0.862108 8.79492H49.1379C49.614 8.79492 50 9.18096 50 9.65703V40.6913C49.9999 41.1675 49.6139 41.5535 49.1378 41.5535Z" fill="#F5F5F5"/>
<path d="M13.8915 26.8682C13.8915 26.8682 13.9154 27.3254 13.5304 27.7345C13.1453 28.1438 13.3378 28.6732 13.8433 28.9139C13.8433 28.9139 13.4944 29.7442 14.0118 30.0931C14.3385 30.3136 14.7819 30.2857 14.7819 30.2857C14.7819 30.2857 15.0226 31.2725 14.8301 31.8981C14.6375 32.5239 14.9022 34.3288 19.3064 33.294C19.3064 33.294 19.3464 34.4492 21.1114 35.3476C22.8761 36.2461 22.5305 38.3745 22.5305 38.3745C22.5305 38.3745 24.9598 39.7809 27.6448 36.4566C30.3298 33.1324 30.5215 32.6848 32.4394 31.9177C32.4394 31.9177 29.4348 28.8492 30.5216 26.1642C30.6647 25.8103 30.8265 25.439 30.9952 25.0572C31.3063 26.0677 31.921 27.5434 33.0189 28.4017C33.3605 28.6674 33.7821 28.7513 34.1896 28.8332C34.6271 28.9211 35.0046 28.9969 35.1825 29.2667C35.3388 29.5069 35.3531 29.9306 35.2322 30.5169C33.9267 31.9411 32.6651 32.3206 32.6474 32.3251L32.3438 32.4071L32.9821 34.5123L31.0772 36.2647L31.1112 36.4345C31.3469 37.6092 32.072 37.765 32.3717 37.779C32.3897 37.779 32.4078 37.7811 32.4257 37.7811C33.1189 37.7811 33.8241 37.1978 34.0479 36.4287C34.4355 35.1002 35.7001 34.9484 35.714 34.9484L35.9058 34.9264L35.9697 34.7446C35.9977 34.6646 36.6549 32.7708 36.9785 30.8411C37.1085 30.0605 37.1333 29.4391 37.1068 28.8955C37.1168 28.8767 37.1283 28.8663 37.1382 28.8473L37.1052 28.83C36.9832 26.7724 35.867 26.2248 34.7648 25.7168C33.8252 25.2805 33.4563 24.857 33.2738 24.5211C33.3117 24.522 33.3439 24.5321 33.3824 24.5321C33.6821 24.5321 33.9977 24.4981 34.3172 24.4083C35.2082 24.1605 35.9294 23.5512 36.4608 22.5984C36.7844 22.0151 39.1917 15.4105 39.4654 14.6595L39.6551 14.138L36.5476 14.8013L36.7843 12.9114L32.7569 14.3318L32.8528 14.6195C32.8668 14.6574 34.1494 18.5092 34.0254 20.8604C33.9915 21.4778 33.7977 21.9252 33.4441 22.1888C32.9996 22.5172 32.397 22.4997 32.0824 22.4658C32.7834 20.6034 33.2353 18.6467 32.567 16.8948C31.46 13.9924 26.5578 11.3331 22.8501 11.7167C19.1424 12.1003 16.0693 12.9962 15.0465 16.7041C14.0236 20.4119 14.3088 21.3916 14.4367 22.0308C14.5645 22.6701 12.1563 25.492 12.5918 26.363C12.8807 26.9403 13.8915 26.8682 13.8915 26.8682ZM31.6646 23.515C31.7291 23.363 31.7935 23.2116 31.8561 23.0576C31.9697 23.0778 32.138 23.1017 32.3855 23.1017C32.805 23.1017 33.3544 23.0217 33.8119 22.6801C34.3172 22.3026 34.595 21.7012 34.637 20.8923C34.7508 18.7827 33.8319 15.6722 33.5283 14.7112L36.0534 13.8223L35.4401 18.7207L36.0474 18.7966L36.4672 15.4448L38.7004 14.9688C37.6357 17.8855 36.1393 21.9149 35.9255 22.2985C35.4761 23.1036 34.8788 23.615 34.1515 23.8169C33.0595 24.1265 32.0193 23.689 31.6646 23.515ZM33.1794 35.1645L33.4911 36.1928C33.4831 36.2178 33.4678 36.2311 33.4604 36.2567C33.3146 36.7561 32.8451 37.1657 32.4275 37.1657C32.4174 37.1657 32.4076 37.1657 32.3995 37.1657C32.02 37.1497 31.838 36.7801 31.7522 36.4785L33.1794 35.1645ZM36.479 29.8585C36.4542 30.1341 36.4276 30.4133 36.373 30.741C36.1133 32.2932 35.6138 33.8674 35.446 34.3729C35.1024 34.4533 34.3932 34.6962 33.8871 35.3832L33.1067 32.8146C33.7289 32.5674 35.1862 31.7508 36.479 29.8585ZM31.3929 24.1555C31.4046 24.1288 31.4162 24.1044 31.4276 24.0776C31.6583 24.187 32.0476 24.3477 32.567 24.4492C32.7114 24.8787 33.0495 25.5973 34.5071 26.2721C35.5179 26.7388 36.3682 27.1346 36.5036 28.6969C36.3127 29.0478 36.1038 29.2916 35.9001 29.5796C35.8703 29.3315 35.8126 29.1086 35.6958 28.9311C35.3761 28.4457 34.8107 28.3318 34.3093 28.2319C33.9558 28.16 33.6221 28.0941 33.3964 27.9182C32.1064 26.9109 31.5535 24.8634 31.3929 24.1555ZM15.4318 19.6238C15.4318 19.6238 15.5279 17.458 16.4909 15.6288L31.2197 22.4637L29.9681 25.1592L15.4318 19.6238Z" fill="#464655"/>
</g>
<defs>
<clipPath id="clip0_3462_31842">
<rect width="50" height="50" fill="white" transform="translate(0 0.173828)"/>
</clipPath>
</defs>
</svg>
