<svg width="51" height="51" viewBox="0 0 51 51" fill="none" xmlns="http://www.w3.org/2000/svg">
<g clip-path="url(#clip0_3462_31772)">
<path d="M50.4267 20H0.426758V30.3447H50.4267V20Z" fill="#FF4B55"/>
<path d="M1.28887 8.79492H49.5647C50.0407 8.79492 50.4268 9.18096 50.4268 9.65703V14.3984H0.426758V9.65703C0.426758 9.18096 0.812792 8.79492 1.28887 8.79492Z" fill="#41479B"/>
<path d="M50.4267 14.3984H0.426758V20.0019H50.4267V14.3984Z" fill="#F5F5F5"/>
<path d="M49.5646 41.5527H1.28887C0.812792 41.5527 0.426758 41.1667 0.426758 40.6906V35.9492H50.4267V40.6906C50.4267 41.1668 50.0406 41.5527 49.5646 41.5527Z" fill="#41479B"/>
<path d="M50.4257 30.3457H0.425781V35.9492H50.4257V30.3457Z" fill="#F5F5F5"/>
<path d="M13.9404 29.4844C16.1674 29.4844 17.9726 27.5545 17.9726 25.1738C17.9726 22.7932 16.1674 20.8633 13.9404 20.8633C11.7135 20.8633 9.9082 22.7932 9.9082 25.1738C9.9082 27.5545 11.7135 29.4844 13.9404 29.4844Z" fill="#F5F5F5"/>
<path d="M16.0267 23.5059H11.8555V25.5915H16.0267V23.5059Z" fill="#3CC8FF"/>
<path d="M12.412 24.6914L12.4597 25.1515L12.647 24.7287L12.5501 25.181L12.8591 24.8366L12.6271 25.2369L13.0273 25.005L12.6831 25.314L13.1354 25.217L12.7125 25.4044L13.1727 25.452L12.7125 25.4997L13.1354 25.6871L12.6831 25.5902L13.0273 25.8991L12.6271 25.6671L12.8591 26.0674L12.5501 25.7231L12.647 26.1754L12.4597 25.7526L12.412 26.2126L12.3644 25.7526L12.177 26.1754L12.2738 25.7231L11.9649 26.0674L12.1968 25.6671L11.7966 25.8991L12.1409 25.5902L11.6886 25.6871L12.1114 25.4997L11.6514 25.452L12.1114 25.4044L11.6886 25.217L12.1409 25.314L11.7966 25.005L12.1968 25.2369L11.9649 24.8366L12.2738 25.181L12.177 24.7287L12.3644 25.1515L12.412 24.6914Z" fill="#FFE15A"/>
<path d="M14.7761 28.5102H13.1076L11.5781 27.2587V25.4512H16.4446V27.2587L14.7761 28.5102Z" fill="#41479B"/>
<path d="M15.61 24.8955H15.6099C15.6095 24.8574 15.5786 24.8268 15.5404 24.8268C15.5022 24.8268 15.4716 24.8574 15.471 24.8955H15.4708C15.4708 25.1368 15.331 25.4706 15.1595 25.7097C14.92 25.4073 14.83 25.0567 14.796 24.8359C14.7798 24.7307 14.666 24.6723 14.5707 24.7199C14.5248 24.7429 14.4938 24.7877 14.486 24.8384C14.3796 25.5203 14.0581 25.8101 13.8499 25.9292C13.5383 25.6279 13.4355 25.1403 13.4018 24.8521C13.3886 24.7399 13.2686 24.6757 13.1677 24.7261C13.1288 24.7455 13.1 24.7806 13.0864 24.8219C12.6503 26.1513 11.4385 26.286 11.4385 26.286V26.7031H16.305V26.5642V26.4252V26.2862V26.1473V26.0083C15.749 25.8688 15.61 24.8955 15.61 24.8955Z" fill="#73AF00"/>
<path d="M16.3067 23.6437C15.7506 23.3655 15.7506 23.0875 15.7506 23.0875C15.7506 23.0875 15.0554 22.8094 14.4992 22.8094C14.4992 22.8094 14.6382 22.5312 14.3602 22.5312C14.0821 22.5312 13.9432 22.5312 13.9432 22.5312C13.9432 22.5312 13.8042 22.5312 13.5261 22.5312C13.2479 22.5312 13.3871 22.8094 13.3871 22.8094C12.831 22.8094 12.1357 23.0875 12.1357 23.0875C12.1357 23.0875 12.1357 23.3656 11.5796 23.6437C11.0234 23.9218 11.0234 24.5475 11.0234 24.5475C11.0234 24.6627 11.1169 24.756 11.2319 24.756C11.3472 24.756 11.4404 24.6625 11.4404 24.5475C11.4404 24.5236 11.4355 24.5013 11.4282 24.48L11.4404 24.4779L12.8309 23.5047H13.9433H15.0557L16.4461 24.4779L16.4583 24.48C16.451 24.5012 16.4461 24.5237 16.4461 24.5475C16.4461 24.6627 16.5395 24.756 16.6546 24.756C16.7696 24.756 16.8631 24.6625 16.8631 24.5475C16.8629 24.5474 16.8629 23.9217 16.3067 23.6437Z" fill="#F0AA00"/>
<path d="M16.7237 25.3115C16.5848 25.3115 16.1676 25.3115 16.1676 24.8944C16.1676 24.4773 16.7237 24.4773 16.7237 24.4773L15.8894 24.1992C15.6113 25.1725 16.1676 25.1725 16.1676 26.4239C16.1676 27.5449 14.9162 28.2314 14.499 28.2314C14.0819 28.2314 13.9429 28.5096 13.9429 28.5096C13.9429 28.5096 13.8039 28.2314 13.3867 28.2314C12.9696 28.2314 11.7182 27.5449 11.7182 26.4239C11.7182 25.1726 12.2743 25.1726 11.9963 24.1992L11.162 24.4773C11.162 24.4773 11.7182 24.4773 11.7182 24.8944C11.7182 25.3115 11.3011 25.3115 11.162 25.3115C11.0229 25.3115 10.4668 25.3115 10.4668 26.0067C10.4668 26.7019 11.162 27.5362 12.1353 28.0924C13.1086 28.6485 12.6915 29.2048 13.9429 29.2048C15.1942 29.2048 14.7771 28.6486 15.7504 28.0924C16.7236 27.5362 17.4189 26.7019 17.4189 26.0067C17.4189 25.3115 16.8627 25.3115 16.7237 25.3115Z" fill="#F0AA00"/>
<path d="M13.6637 23.1365L13.3273 22.9854C13.2715 22.9603 13.2096 22.9544 13.15 22.9683C12.9332 23.0184 12.3954 23.1831 11.9951 23.6443L12.4122 23.7833L13.6637 23.1365Z" fill="#73AF00"/>
<path d="M14.2197 23.1365L14.5561 22.9854C14.6119 22.9603 14.6738 22.9544 14.7334 22.9683C14.9502 23.0184 15.488 23.1831 15.8883 23.6443L15.4712 23.7833L14.2197 23.1365Z" fill="#73AF00"/>
<path d="M13.9908 23.2269L14.2444 22.9734C14.2579 22.9598 14.2579 22.9378 14.2444 22.9242C14.2308 22.9107 14.2088 22.9107 14.1952 22.9242L13.9417 23.1778L13.6882 22.9242C13.6746 22.9107 13.6527 22.9107 13.6391 22.9242C13.6255 22.9378 13.6255 22.9598 13.6391 22.9734L13.8926 23.2269L13.6391 23.4804C13.6255 23.494 13.6255 23.5159 13.6391 23.5295C13.6459 23.5363 13.6548 23.5398 13.6637 23.5398C13.6725 23.5398 13.6815 23.5363 13.6883 23.5295L13.9418 23.276L14.1953 23.5295C14.2022 23.5363 14.2111 23.5398 14.2199 23.5398C14.2289 23.5398 14.2377 23.5363 14.2446 23.5295C14.2581 23.5159 14.2581 23.494 14.2446 23.4804L13.9908 23.2269Z" fill="#73AF00"/>
<path d="M16.7227 24.4783C16.7227 24.2418 16.4992 24.1395 16.3057 24.0951V23.985C16.0439 23.9603 15.8977 23.8621 15.644 23.6892C15.5463 23.6225 15.4354 23.5471 15.3016 23.4656C14.8127 23.1686 14.4369 23.1258 14.22 23.1361V23.3659H13.6639V23.1361C13.447 23.1258 13.0712 23.1686 12.5823 23.4656C12.4485 23.547 12.3376 23.6225 12.2398 23.6892C11.986 23.862 11.84 23.9603 11.5782 23.985V24.0951C11.3846 24.1394 11.1611 24.2417 11.1611 24.4783L11.5782 24.3393V24.4027C11.9729 24.3736 12.1984 24.2223 12.4747 24.0341C12.5684 23.9703 12.6744 23.8979 12.7988 23.8225C13.1164 23.6295 13.3632 23.5697 13.5248 23.5557V23.7832H14.3591V23.5557C14.5207 23.5698 14.7675 23.6295 15.0851 23.8225C15.2097 23.8981 15.3156 23.9703 15.4092 24.0341C15.6853 24.2223 15.911 24.3737 16.3057 24.4027V24.3393L16.7227 24.4783Z" fill="#F5F5F5"/>
<path d="M15.6108 22.2871V22.115H15.2235C15.2912 22.0569 15.3328 21.9886 15.3328 21.9065C15.3328 21.5224 14.4588 21.4199 13.9424 21.4199C13.426 21.4199 12.552 21.5224 12.552 21.9065C12.552 21.9886 12.5936 22.0569 12.6612 22.115H12.2739V22.2871C11.9335 22.3631 11.6553 22.5457 11.6406 22.5556L11.7948 22.7869C11.7986 22.7844 12.1812 22.5321 12.552 22.5321V22.3932H15.3328V22.5321C15.7036 22.5321 16.0861 22.7843 16.0899 22.7869L16.2441 22.5556C16.2296 22.5457 15.9513 22.3631 15.6108 22.2871ZM14.4985 22.0766V21.971C14.4985 21.9029 14.4346 21.853 14.3686 21.8695L13.9424 21.9761L13.5162 21.8695C13.4502 21.853 13.3862 21.9029 13.3862 21.971V22.0766C13.0738 22.0307 12.8892 21.9543 12.8388 21.9065C12.914 21.8351 13.2824 21.698 13.9423 21.698C14.6021 21.698 14.9706 21.8353 15.0458 21.9065C14.9956 21.9542 14.8108 22.0306 14.4985 22.0766Z" fill="#3CC8FF"/>
<path d="M13.96 23.8365L13.9952 23.9421L14.1062 23.9429C14.1206 23.943 14.1266 23.9615 14.115 23.97L14.0257 24.0362L14.0592 24.1424C14.0635 24.1561 14.0479 24.1675 14.0362 24.1591L13.9458 24.0943L13.8554 24.1591C13.8437 24.1675 13.8281 24.156 13.8324 24.1424L13.8659 24.0362L13.7766 23.97C13.765 23.9615 13.7711 23.943 13.7854 23.9429L13.8964 23.9421L13.9316 23.8365C13.9362 23.8227 13.9553 23.8227 13.96 23.8365Z" fill="#F5F5F5"/>
<path d="M13.415 23.8721L13.4609 23.9735L13.5715 23.9627C13.5858 23.9614 13.5936 23.979 13.5831 23.9887L13.5012 24.0639L13.5456 24.1659C13.5514 24.1792 13.537 24.1921 13.5245 24.185L13.4279 24.1301L13.3448 24.204C13.3341 24.2136 13.3174 24.2039 13.3202 24.1898L13.3424 24.0806L13.2466 24.0242C13.2343 24.0169 13.2383 23.9981 13.2526 23.9964L13.3629 23.9839L13.3868 23.8752C13.3897 23.861 13.409 23.8589 13.415 23.8721Z" fill="#F5F5F5"/>
<path d="M12.8547 24.0216L12.9215 24.1106L13.0271 24.076C13.0408 24.0715 13.0523 24.0871 13.044 24.0989L12.9803 24.1901L13.0457 24.28C13.0542 24.2916 13.043 24.3074 13.0293 24.3032L12.9231 24.2705L12.8579 24.3608C12.8496 24.3724 12.831 24.3666 12.8308 24.3523L12.8289 24.2409L12.7232 24.2067C12.7096 24.2023 12.7094 24.1828 12.723 24.1783L12.828 24.142L12.8278 24.0307C12.8277 24.0163 12.8461 24.0101 12.8547 24.0216Z" fill="#F5F5F5"/>
<path d="M12.2942 24.2584L12.3721 24.3377L12.4721 24.2895C12.4852 24.2832 12.4985 24.2971 12.4919 24.31L12.4408 24.4088L12.5175 24.4893C12.5274 24.4997 12.5185 24.5167 12.5043 24.5145L12.3946 24.4963L12.3419 24.5944C12.3351 24.6071 12.3161 24.6037 12.3139 24.5895L12.2974 24.4793L12.1881 24.4594C12.1739 24.4569 12.1712 24.4376 12.1841 24.4312L12.2834 24.3814L12.2686 24.271C12.2667 24.2567 12.284 24.2482 12.2942 24.2584Z" fill="#F5F5F5"/>
<path d="M14.4767 23.8721L14.4307 23.9735L14.3202 23.9627C14.3058 23.9614 14.2981 23.979 14.3086 23.9887L14.3905 24.0639L14.3461 24.1659C14.3402 24.1792 14.3546 24.1921 14.3671 24.185L14.4637 24.1301L14.5468 24.204C14.5575 24.2136 14.5743 24.2039 14.5715 24.1898L14.5493 24.0806L14.645 24.0242C14.6574 24.0169 14.6534 23.9981 14.6391 23.9964L14.5287 23.9839L14.5048 23.8752C14.5018 23.861 14.4825 23.8589 14.4767 23.8721Z" fill="#F5F5F5"/>
<path d="M15.0357 24.0216L14.9689 24.1106L14.8633 24.076C14.8497 24.0715 14.8382 24.0871 14.8465 24.0989L14.9102 24.1901L14.8447 24.28C14.8363 24.2916 14.8475 24.3074 14.8612 24.3032L14.9674 24.2705L15.0325 24.3608C15.0409 24.3724 15.0594 24.3666 15.0596 24.3523L15.0616 24.2409L15.1672 24.2067C15.1809 24.2023 15.1811 24.1828 15.1674 24.1783L15.0624 24.142L15.0626 24.0307C15.0627 24.0163 15.0443 24.0101 15.0357 24.0216Z" fill="#F5F5F5"/>
<path d="M15.5967 24.2584L15.5188 24.3377L15.4187 24.2895C15.4057 24.2832 15.3923 24.2971 15.399 24.31L15.4501 24.4088L15.3734 24.4893C15.3634 24.4997 15.3724 24.5167 15.3866 24.5145L15.4963 24.4963L15.549 24.5944C15.5558 24.6071 15.5748 24.6037 15.5769 24.5895L15.5935 24.4793L15.7028 24.4594C15.717 24.4569 15.7196 24.4376 15.7068 24.4312L15.6074 24.3814L15.6222 24.271C15.6241 24.2567 15.6067 24.2482 15.5967 24.2584Z" fill="#F5F5F5"/>
<path d="M12.9814 27.1719L13.6897 27.6454H14.5457L14.9412 27.3065L14.637 27.4282H13.6289L12.9814 27.1719Z" fill="#8C5A28"/>
<path d="M13.4635 26.5605L13.3953 27.25L13.085 27.1312C13.085 27.1311 13.2278 26.7988 13.4635 26.5605Z" fill="#F5F5F5"/>
<path d="M14.1231 26.2871H14.0771V27.4609H14.1231V26.2871Z" fill="#8C5A28"/>
<path d="M14.5489 26.3867H14.5029V27.4619H14.5489V26.3867Z" fill="#8C5A28"/>
<path d="M13.7003 26.3867H13.6543V27.4619H13.7003V26.3867Z" fill="#8C5A28"/>
<path d="M14.2403 27.3493H13.96C13.9309 27.3493 13.9072 27.3256 13.9072 27.2964V27.1545C13.9072 27.1253 13.9309 27.1016 13.96 27.1016H14.2403C14.2694 27.1016 14.293 27.1253 14.293 27.1545V27.2964C14.293 27.3256 14.2694 27.3493 14.2403 27.3493Z" fill="#F5F5F5"/>
<path d="M14.2403 27.0192H13.96C13.9309 27.0192 13.9072 26.9955 13.9072 26.9663V26.8244C13.9072 26.7952 13.9309 26.7715 13.96 26.7715H14.2403C14.2694 26.7715 14.293 26.7952 14.293 26.8244V26.9663C14.293 26.9956 14.2694 27.0192 14.2403 27.0192Z" fill="#F5F5F5"/>
<path d="M14.2403 26.7146H13.96C13.9309 26.7146 13.9072 26.6908 13.9072 26.6616V26.5197C13.9072 26.4905 13.9309 26.4668 13.96 26.4668H14.2403C14.2694 26.4668 14.293 26.4905 14.293 26.5197V26.6616C14.293 26.6908 14.2694 26.7146 14.2403 26.7146Z" fill="#F5F5F5"/>
<path d="M14.6404 27.3493H14.4122C14.383 27.3493 14.3594 27.3256 14.3594 27.2964V27.1545C14.3594 27.1253 14.383 27.1016 14.4122 27.1016H14.6404C14.6695 27.1016 14.6932 27.1253 14.6932 27.1545V27.2964C14.6932 27.3256 14.6695 27.3493 14.6404 27.3493Z" fill="#F5F5F5"/>
<path d="M14.6404 27.0468H14.4122C14.383 27.0468 14.3594 27.023 14.3594 26.9938V26.8908C14.3594 26.8616 14.383 26.8379 14.4122 26.8379H14.6404C14.6695 26.8379 14.6932 26.8616 14.6932 26.8908V26.9938C14.6932 27.023 14.6695 27.0468 14.6404 27.0468Z" fill="#F5F5F5"/>
<path d="M14.6404 26.7437H14.4122C14.383 26.7437 14.3594 26.72 14.3594 26.6908V26.6213C14.3594 26.5921 14.383 26.5684 14.4122 26.5684H14.6404C14.6695 26.5684 14.6932 26.5921 14.6932 26.6213V26.6908C14.6932 26.72 14.6695 26.7437 14.6404 26.7437Z" fill="#F5F5F5"/>
<path d="M13.7908 27.3493H13.5626C13.5334 27.3493 13.5098 27.3256 13.5098 27.2964V27.1545C13.5098 27.1253 13.5334 27.1016 13.5626 27.1016H13.7908C13.8199 27.1016 13.8436 27.1253 13.8436 27.1545V27.2964C13.8435 27.3256 13.8199 27.3493 13.7908 27.3493Z" fill="#F5F5F5"/>
<path d="M13.7908 27.0468H13.5626C13.5334 27.0468 13.5098 27.023 13.5098 26.9938V26.8908C13.5098 26.8616 13.5334 26.8379 13.5626 26.8379H13.7908C13.8199 26.8379 13.8436 26.8616 13.8436 26.8908V26.9938C13.8435 27.023 13.8199 27.0468 13.7908 27.0468Z" fill="#F5F5F5"/>
<path d="M13.7908 26.7437H13.5626C13.5334 26.7437 13.5098 26.72 13.5098 26.6908V26.6213C13.5098 26.5921 13.5334 26.5684 13.5626 26.5684H13.7908C13.8199 26.5684 13.8436 26.5921 13.8436 26.6213V26.6908C13.8435 26.72 13.8199 26.7437 13.7908 26.7437Z" fill="#F5F5F5"/>
<path d="M13.6992 26.3867V26.5257L13.9031 26.4549L13.6992 26.3867Z" fill="#F5F5F5"/>
<path d="M14.5488 26.3867V26.5257L14.7527 26.4549L14.5488 26.3867Z" fill="#F5F5F5"/>
<path d="M14.124 26.2871V26.426L14.328 26.3552L14.124 26.2871Z" fill="#F5F5F5"/>
<path d="M13.5801 25.3496L13.8261 25.5142H14.1235L14.2609 25.3964L14.1552 25.4386H13.805L13.5801 25.3496Z" fill="#8C5A28"/>
<path d="M13.7477 25.1367L13.724 25.3763L13.6162 25.335C13.6161 25.335 13.6658 25.2195 13.7477 25.1367Z" fill="#F5F5F5"/>
<path d="M13.9769 25.041H13.9609V25.4489H13.9769V25.041Z" fill="#8C5A28"/>
<path d="M14.1233 25.0762H14.1074V25.4495H14.1233V25.0762Z" fill="#8C5A28"/>
<path d="M13.8294 25.0762H13.8135V25.4495H13.8294V25.0762Z" fill="#8C5A28"/>
<path d="M14.0172 25.4123H13.9198C13.9096 25.4123 13.9014 25.4041 13.9014 25.3938V25.3446C13.9014 25.3345 13.9095 25.3262 13.9198 25.3262H14.0172C14.0273 25.3262 14.0356 25.3344 14.0356 25.3446V25.3938C14.0356 25.4041 14.0274 25.4123 14.0172 25.4123Z" fill="#F5F5F5"/>
<path d="M14.0172 25.2971H13.9198C13.9096 25.2971 13.9014 25.2889 13.9014 25.2786V25.2294C13.9014 25.2192 13.9095 25.2109 13.9198 25.2109H14.0172C14.0273 25.2109 14.0356 25.2191 14.0356 25.2294V25.2786C14.0356 25.2888 14.0274 25.2971 14.0172 25.2971Z" fill="#F5F5F5"/>
<path d="M14.0172 25.1916H13.9198C13.9096 25.1916 13.9014 25.1834 13.9014 25.1731V25.1239C13.9014 25.1138 13.9095 25.1055 13.9198 25.1055H14.0172C14.0273 25.1055 14.0356 25.1137 14.0356 25.1239V25.1731C14.0356 25.1834 14.0274 25.1916 14.0172 25.1916Z" fill="#F5F5F5"/>
<path d="M14.1563 25.4123H14.077C14.0669 25.4123 14.0586 25.4041 14.0586 25.3938V25.3446C14.0586 25.3345 14.0668 25.3262 14.077 25.3262H14.1563C14.1664 25.3262 14.1747 25.3344 14.1747 25.3446V25.3938C14.1746 25.4041 14.1663 25.4123 14.1563 25.4123Z" fill="#F5F5F5"/>
<path d="M14.1563 25.3051H14.077C14.0669 25.3051 14.0586 25.2969 14.0586 25.2866V25.2509C14.0586 25.2407 14.0668 25.2324 14.077 25.2324H14.1563C14.1664 25.2324 14.1747 25.2406 14.1747 25.2509V25.2866C14.1746 25.297 14.1663 25.3051 14.1563 25.3051Z" fill="#F5F5F5"/>
<path d="M14.1563 25.2017H14.077C14.0669 25.2017 14.0586 25.1935 14.0586 25.1832V25.1591C14.0586 25.1489 14.0668 25.1406 14.077 25.1406H14.1563C14.1664 25.1406 14.1747 25.1488 14.1747 25.1591V25.1832C14.1746 25.1936 14.1663 25.2017 14.1563 25.2017Z" fill="#F5F5F5"/>
<path d="M13.8614 25.4123H13.7821C13.772 25.4123 13.7637 25.4041 13.7637 25.3938V25.3446C13.7637 25.3345 13.7719 25.3262 13.7821 25.3262H13.8614C13.8715 25.3262 13.8798 25.3344 13.8798 25.3446V25.3938C13.8797 25.4041 13.8715 25.4123 13.8614 25.4123Z" fill="#F5F5F5"/>
<path d="M13.8614 25.3051H13.7821C13.772 25.3051 13.7637 25.2969 13.7637 25.2866V25.2509C13.7637 25.2407 13.7719 25.2324 13.7821 25.2324H13.8614C13.8715 25.2324 13.8798 25.2406 13.8798 25.2509V25.2866C13.8797 25.297 13.8715 25.3051 13.8614 25.3051Z" fill="#F5F5F5"/>
<path d="M13.8614 25.2017H13.7821C13.772 25.2017 13.7637 25.1935 13.7637 25.1832V25.1591C13.7637 25.1489 13.7719 25.1406 13.7821 25.1406H13.8614C13.8715 25.1406 13.8798 25.1488 13.8798 25.1591V25.1832C13.8797 25.1936 13.8715 25.2017 13.8614 25.2017Z" fill="#F5F5F5"/>
<path d="M13.8291 25.0762V25.1244L13.8999 25.0999L13.8291 25.0762Z" fill="#F5F5F5"/>
<path d="M14.124 25.0762V25.1244L14.1948 25.0999L14.124 25.0762Z" fill="#F5F5F5"/>
<path d="M13.9766 25.043V25.0911L14.0474 25.0665L13.9766 25.043Z" fill="#F5F5F5"/>
<path d="M13.4062 24.6176H13.2258C13.1607 24.6176 13.1074 24.5644 13.1074 24.4992C13.1074 24.4342 13.1606 24.3809 13.2258 24.3809H13.4062C13.4713 24.3809 13.5246 24.4341 13.5246 24.4992C13.5247 24.5644 13.4714 24.6176 13.4062 24.6176Z" fill="#F5F5F5"/>
<path d="M14.7778 24.6176H14.6591C14.5939 24.6176 14.541 24.5645 14.541 24.4992C14.541 24.4339 14.5939 24.3809 14.6591 24.3809H14.7778C14.843 24.3809 14.8959 24.4339 14.8959 24.4992C14.8958 24.5645 14.8429 24.6176 14.7778 24.6176Z" fill="#F5F5F5"/>
<path d="M15.6233 24.795H15.5187C15.4814 24.795 15.4512 24.7647 15.4512 24.7273V24.7161C15.4512 24.6787 15.4814 24.6484 15.5187 24.6484H15.6233C15.6606 24.6484 15.6908 24.6787 15.6908 24.7161V24.7273C15.6908 24.7647 15.6606 24.795 15.6233 24.795Z" fill="#F5F5F5"/>
</g>
<defs>
<clipPath id="clip0_3462_31772">
<rect width="50" height="50" fill="white" transform="translate(0.427734 0.173828)"/>
</clipPath>
</defs>
</svg>
