<svg width="51" height="51" viewBox="0 0 51 51" fill="none" xmlns="http://www.w3.org/2000/svg">
<g clip-path="url(#clip0_3462_31716)">
<path d="M0.720703 30.6328H50.7206V40.6902C50.7206 41.1663 50.3346 41.5523 49.8585 41.5523H1.58281C1.10674 41.5523 0.720703 41.1663 0.720703 40.6902V30.6328Z" fill="#41479B"/>
<path d="M1.58281 8.79492H49.8586C50.3347 8.79492 50.7207 9.18096 50.7207 9.65703V19.7144H0.720703V9.65703C0.720703 9.18096 1.10674 8.79492 1.58281 8.79492Z" fill="#FF4B55"/>
<path d="M50.7206 19.7129H0.720703V30.6318H50.7206V19.7129Z" fill="#F5F5F5"/>
<path d="M22.1003 20H19.6865V22.7588H22.1003V20Z" fill="#FF4B55"/>
<path d="M26.9274 20H24.5137V22.7588H26.9274V20Z" fill="#FF4B55"/>
<path d="M24.5134 22.7598H22.0996V25.5186H24.5134V22.7598Z" fill="#FF4B55"/>
<path d="M31.7546 20H29.3408V22.7588H31.7546V20Z" fill="#FF4B55"/>
<path d="M29.3415 22.7598H26.9277V25.5186H29.3415V22.7598Z" fill="#FF4B55"/>
<path d="M24.5134 20H22.0996V22.7588H24.5134V20Z" fill="#F5F5F5"/>
<path d="M29.3415 20H26.9277V22.7588H29.3415V20Z" fill="#F5F5F5"/>
<path d="M22.1003 22.7598H19.6865V25.5186H22.1003V22.7598Z" fill="#F5F5F5"/>
<path d="M26.9274 22.7598H24.5137V25.5186H26.9274V22.7598Z" fill="#F5F5F5"/>
<path d="M31.7546 22.7598H29.3408V25.5186H31.7546V22.7598Z" fill="#F5F5F5"/>
<path d="M26.9274 25.5176H24.5137V28.2764H26.9274V25.5176Z" fill="#FF4B55"/>
<path d="M24.5134 28.2754H22.0996V31.0342H24.5134V28.2754Z" fill="#FF4B55"/>
<path d="M29.3415 28.2754H26.9277V31.0342H29.3415V28.2754Z" fill="#FF4B55"/>
<path d="M24.5134 25.5176H22.0996V28.2764H24.5134V25.5176Z" fill="#F5F5F5"/>
<path d="M29.3405 25.5176H26.9268V28.2764H29.3405V25.5176Z" fill="#F5F5F5"/>
<path d="M26.9265 28.2754H24.5127V31.0342H26.9265V28.2754Z" fill="#F5F5F5"/>
<path d="M31.7549 20.0014V27.7599C31.7549 31.0927 29.0531 33.7944 25.7204 33.7944C22.3877 33.7944 19.6859 31.0927 19.6859 27.7599V20.0014H31.7549V20.0014ZM32.1859 19.5703H31.7549H19.6859H19.2549V20.0014V27.7599C19.2549 31.325 22.1553 34.2255 25.7204 34.2255C29.2855 34.2255 32.1859 31.3251 32.1859 27.7599V20.0014V19.5703Z" fill="#FF4B55"/>
<path d="M22.1013 28.2781V25.5195H19.6875V27.7609C19.6875 27.9356 19.699 28.1072 19.7136 28.2782H22.1013V28.2781V28.2781Z" fill="#FF4B55"/>
<path d="M31.7285 28.2773H29.3408V31.0359H30.7836C31.3072 30.2284 31.6425 29.2893 31.7285 28.2773Z" fill="#F5F5F5"/>
<path d="M20.6568 31.0358H22.0996V28.2773H19.7119C19.7979 29.2892 20.1333 30.2283 20.6568 31.0358Z" fill="#F5F5F5"/>
<path d="M29.3428 28.2763H31.7305C31.745 28.1055 31.7565 27.9337 31.7565 27.759V25.5176H29.3428V28.2763Z" fill="#FF4B55"/>
<path d="M22.101 32.5787V31.0352H20.6582C21.0448 31.6315 21.5345 32.1524 22.101 32.5787Z" fill="#FF4B55"/>
<path d="M30.7855 31.0352H29.3428V32.5787C29.9094 32.1524 30.399 31.6315 30.7855 31.0352Z" fill="#FF4B55"/>
<path d="M22.0996 32.5787C22.8021 33.1075 23.6198 33.4913 24.5134 33.6727V31.0352H22.0996V32.5787V32.5787Z" fill="#F5F5F5"/>
<path d="M26.9268 33.6726C27.8203 33.4913 28.638 33.1074 29.3405 32.5787V31.0352H26.9268V33.6726Z" fill="#F5F5F5"/>
<path d="M26.9274 31.0352H24.5137V33.6726C24.9036 33.7518 25.3072 33.7938 25.7206 33.7938C26.134 33.7938 26.5375 33.7518 26.9275 33.6726V31.0352H26.9274Z" fill="#FF4B55"/>
<path d="M21.3532 15.4374C20.828 15.3562 20.2907 15.2976 19.743 15.2637C19.3193 15.6124 18.9155 15.976 18.5322 16.3525C18.9172 17.2817 19.302 18.2109 19.6868 19.1401C20.4596 18.8201 21.2514 18.564 22.0547 18.372C21.8209 17.3937 21.5871 16.4155 21.3532 15.4374Z" fill="#4173CD"/>
<path d="M27.1869 14.979C26.7149 14.7402 26.2263 14.5194 25.7219 14.3184C25.2175 14.5195 24.7287 14.7403 24.2568 14.979C24.3353 15.9815 24.4138 16.9843 24.4922 17.9871C25.3107 17.9229 26.1332 17.9229 26.9518 17.9871C27.03 16.9844 27.1085 15.9817 27.1869 14.979Z" fill="#4173CD"/>
<path d="M32.9101 16.3525C32.5268 15.9761 32.1229 15.6125 31.6994 15.2637C31.1517 15.2975 30.6144 15.3562 30.0892 15.4374C29.8554 16.4156 29.6215 17.3937 29.3877 18.3719C30.191 18.564 30.9828 18.82 31.7556 19.14C32.1404 18.2108 32.5253 17.2816 32.9101 16.3525Z" fill="#4173CD"/>
<path d="M24.2555 14.9791C23.7521 14.8167 23.2344 14.6746 22.7033 14.5547C22.2348 14.8321 21.7843 15.1268 21.3525 15.4368C21.5863 16.415 21.8202 17.3932 22.0542 18.3713C22.8575 18.1792 23.6723 18.0513 24.4909 17.9872C24.4124 16.9845 24.3339 15.9818 24.2555 14.9791Z" fill="#41479B"/>
<path d="M30.0875 15.4368C29.6558 15.1268 29.2052 14.832 28.7367 14.5547C28.2057 14.6746 27.6878 14.8169 27.1846 14.9791C27.1062 15.9816 27.0276 16.9844 26.9492 17.9872C27.7679 18.0512 28.5826 18.1792 29.3859 18.3713C29.6198 17.3932 29.8537 16.4149 30.0875 15.4368Z" fill="#41479B"/>
<path d="M24.35 16.1816C23.4374 16.2529 22.5291 16.3956 21.6335 16.6099C21.5867 16.4143 21.5399 16.2186 21.4932 16.0229C22.4194 15.8017 23.3589 15.654 24.3028 15.5801C24.3186 15.7807 24.3344 15.9812 24.35 16.1816Z" fill="#FF4B55"/>
<path d="M24.4437 17.3847C23.5938 17.4512 22.7479 17.5841 21.9138 17.7835C21.8669 17.5879 21.8202 17.3922 21.7734 17.1967C22.6382 16.9898 23.5154 16.8521 24.3967 16.7832C24.4124 16.9835 24.428 17.1842 24.4437 17.3847Z" fill="#FF4B55"/>
<path d="M28.5842 17.5876C28.3738 17.5502 28.1627 17.5169 27.9512 17.4878C27.6034 17.4398 27.3443 17.1445 27.3745 16.8125C27.4045 16.4807 27.7371 16.24 28.1157 16.2923C28.3427 16.3236 28.5693 16.3592 28.7953 16.3994C29.1721 16.466 29.4161 16.7981 29.3425 17.1227C29.2692 17.448 28.9307 17.6487 28.5842 17.5876Z" fill="#FFE15A"/>
<path d="M31.9858 18.5817C31.1836 18.2494 30.3612 17.9836 29.5273 17.7841C29.5742 17.5885 29.6209 17.3928 29.6677 17.1973C30.5324 17.4039 31.385 17.6797 32.2168 18.0242C32.1398 18.2101 32.0629 18.3959 31.9858 18.5817Z" fill="#FF4B55"/>
<path d="M31.7712 16.7702C31.6859 17.0053 31.3984 17.1171 31.1267 17.0287C30.8552 16.9403 30.689 16.6821 30.7577 16.4416C30.8265 16.2012 31.1177 16.074 31.4058 16.1676C31.6941 16.2611 31.8564 16.5352 31.7712 16.7702Z" fill="#FFE15A"/>
<path d="M20.6846 16.4415C20.7533 16.6821 20.587 16.9404 20.3156 17.0286C20.044 17.1165 19.7565 17.0046 19.6711 16.7701C19.5858 16.5349 19.7483 16.2609 20.0366 16.1675C20.3246 16.0741 20.6161 16.2011 20.6846 16.4415Z" fill="#FFE15A"/>
<path d="M25.5831 16.047C25.5837 16.2469 25.404 16.4097 25.1814 16.4165C24.9588 16.4237 24.7691 16.2719 24.7574 16.0728C24.7457 15.8736 24.9252 15.7011 25.1588 15.6936C25.3924 15.6863 25.5822 15.8471 25.5831 16.047Z" fill="#FFE15A"/>
<path d="M26.6842 16.0728C26.6724 16.2724 26.4825 16.4237 26.2602 16.4166C26.0376 16.4097 25.8579 16.2469 25.8584 16.047C25.8593 15.8473 26.0491 15.686 26.2826 15.6936C26.5163 15.7006 26.6957 15.8735 26.6842 16.0728Z" fill="#FFE15A"/>
<path d="M26.112 16.9774C26.1065 17.1773 25.9314 17.3346 25.7206 17.3346C25.5101 17.3345 25.335 17.1774 25.3292 16.9774C25.3238 16.7781 25.4989 16.6107 25.7206 16.6113C25.9424 16.6108 26.1175 16.778 26.112 16.9774Z" fill="#FFE15A"/>
</g>
<defs>
<clipPath id="clip0_3462_31716">
<rect width="50" height="50" fill="white" transform="translate(0.720703 0.173828)"/>
</clipPath>
</defs>
</svg>
