<svg width="51" height="51" viewBox="0 0 51 51" fill="none" xmlns="http://www.w3.org/2000/svg">
<g clip-path="url(#clip0_3462_31707)">
<path d="M50.1483 15.3467H0.148438V9.65703C0.148438 9.18096 0.534472 8.79492 1.01055 8.79492H49.2863C49.7624 8.79492 50.1484 9.18096 50.1484 9.65703L50.1483 15.3467Z" fill="#41479B"/>
<path d="M49.2853 41.5537H1.00957C0.533495 41.5537 0.147461 41.1677 0.147461 40.6916V35.002H50.1474V40.6916C50.1474 41.1678 49.7613 41.5537 49.2853 41.5537Z" fill="#41479B"/>
<path d="M50.1474 15.3457H0.147461V21.8974H50.1474V15.3457Z" fill="#F5F5F5"/>
<path d="M50.1474 21.8984H0.147461V28.4502H50.1474V21.8984Z" fill="#41479B"/>
<path d="M50.1474 28.4492H0.147461V35.001H50.1474V28.4492Z" fill="#F5F5F5"/>
<path d="M0.470703 41.3491L25.4123 25.5528C25.6897 25.377 25.6897 24.9722 25.4123 24.7965L0.470703 9C0.277832 9.15811 0.147461 9.38848 0.147461 9.65732V40.6916C0.147461 40.9605 0.277929 41.1909 0.470703 41.3491Z" fill="#FF4B55"/>
<path d="M8.79275 21.0174L9.6779 23.6713L12.4755 23.693C12.6922 23.6948 12.782 23.9712 12.6077 24.1L10.3572 25.762L11.201 28.4292C11.2665 28.6359 11.0311 28.8068 10.8549 28.6807L8.57888 27.0539L6.30291 28.6808C6.12664 28.8069 5.89129 28.6359 5.95672 28.4293L6.80056 25.7622L4.54998 24.1002C4.37567 23.9714 4.46551 23.6949 4.68221 23.6932L7.47976 23.6715L8.36492 21.0176C8.43337 20.8119 8.72419 20.8119 8.79275 21.0174Z" fill="#F5F5F5"/>
</g>
<defs>
<clipPath id="clip0_3462_31707">
<rect width="50" height="50" fill="white" transform="translate(0.148438 0.173828)"/>
</clipPath>
</defs>
</svg>
