<svg width="51" height="51" viewBox="0 0 51 51" fill="none" xmlns="http://www.w3.org/2000/svg">
<g clip-path="url(#clip0_3462_31701)">
<path d="M49.5792 41.5536H1.30351C0.827441 41.5536 0.441406 41.1675 0.441406 40.6915V9.65703C0.441406 9.18096 0.827441 8.79492 1.30351 8.79492H49.5793C50.0554 8.79492 50.4414 9.18096 50.4414 9.65703V40.6915C50.4413 41.1676 50.0553 41.5536 49.5792 41.5536Z" fill="#41479B"/>
<path d="M50.4413 31.209H0.441406V35.5195H50.4413V31.209Z" fill="#FFE15A"/>
<path d="M12.0575 16.8606L11.2096 19.403L8.52959 19.4238C8.27256 19.4258 8.16602 19.7538 8.37276 19.9064L10.5287 21.4984L9.72031 24.0536C9.64287 24.2986 9.92178 24.5013 10.1309 24.3518L12.3112 22.7934L14.4916 24.3518C14.7007 24.5012 14.9797 24.2986 14.9021 24.0536L14.0937 21.4984L16.2497 19.9064C16.4565 19.7537 16.3499 19.4258 16.0929 19.4238L13.4129 19.403L12.5649 16.8606C12.4837 16.6168 12.1389 16.6168 12.0575 16.8606Z" fill="#F5F5F5"/>
<path d="M5.94872 12.1683L5.45799 13.6399L3.90683 13.652C3.7581 13.6532 3.69638 13.8429 3.8161 13.9313L5.06395 14.8528L4.59608 16.3318C4.55126 16.4736 4.71268 16.591 4.83368 16.5045L6.09559 15.6024L7.3575 16.5045C7.4785 16.591 7.64002 16.4736 7.5951 16.3318L7.12723 14.8528L8.37508 13.9313C8.49471 13.8429 8.43309 13.6531 8.28436 13.652L6.73319 13.6399L6.24247 12.1683C6.1954 12.0272 5.99579 12.0272 5.94872 12.1683Z" fill="#F5F5F5"/>
</g>
<defs>
<clipPath id="clip0_3462_31701">
<rect width="50" height="50" fill="white" transform="translate(0.441406 0.173828)"/>
</clipPath>
</defs>
</svg>
