<svg width="51" height="51" viewBox="0 0 51 51" fill="none" xmlns="http://www.w3.org/2000/svg">
<g clip-path="url(#clip0_3462_31697)">
<path d="M1.18613 41.3437L25.8682 25.1728L1.18613 9.00195C0.996191 9.16006 0.868164 9.38916 0.868164 9.65557V40.69C0.868164 40.9565 0.996191 41.1856 1.18613 41.3437Z" fill="#41479B"/>
<path d="M1.18555 41.3447C1.33496 41.4691 1.52002 41.5531 1.72959 41.5531H50.0055C50.4815 41.5531 50.8676 41.1671 50.8676 40.691V25.1738H25.8676L1.18555 41.3447Z" fill="#FF4B55"/>
<path d="M1.18555 9.00332C1.33496 8.87891 1.52002 8.79492 1.72959 8.79492H50.0055C50.4815 8.79492 50.8676 9.18096 50.8676 9.65703V25.1742H25.8676L1.18555 9.00332Z" fill="#F5F5F5"/>
</g>
<defs>
<clipPath id="clip0_3462_31697">
<rect width="50" height="50" fill="white" transform="translate(0.869141 0.173828)"/>
</clipPath>
</defs>
</svg>
