<svg width="51" height="51" viewBox="0 0 51 51" fill="none" xmlns="http://www.w3.org/2000/svg">
<g clip-path="url(#clip0_3462_31690)">
<path d="M49.3009 41.5536H1.02519C0.54912 41.5536 0.163086 41.1675 0.163086 40.6915V9.65703C0.163086 9.18096 0.54912 8.79492 1.02519 8.79492H49.301C49.7771 8.79492 50.1631 9.18096 50.1631 9.65703V40.6915C50.163 41.1676 49.777 41.5536 49.3009 41.5536Z" fill="#82AFFF"/>
<path d="M49.3009 8.79492H46.8297L0.163086 32.9328V34.6569L49.8082 8.97842C49.6643 8.8707 49.4945 8.79492 49.3009 8.79492Z" fill="#FFE15A"/>
<path d="M1.02588 41.5534H3.49706L50.1637 17.4155V15.6914L0.518555 41.3699C0.6625 41.4776 0.832226 41.5534 1.02588 41.5534Z" fill="#FFE15A"/>
<path d="M49.8082 8.97852L0.163086 34.657V40.6914C0.163086 40.974 0.30791 41.2128 0.51787 41.37L50.163 15.6916V9.65703C50.163 9.37451 50.0182 9.13574 49.8082 8.97852Z" fill="#FF4B55"/>
<path d="M9.20735 12.1835L10.4493 15.9076L14.375 15.938C14.5945 15.9397 14.6856 16.2198 14.509 16.3503L11.3509 18.6824L12.5351 22.4254C12.6013 22.6346 12.363 22.8078 12.1844 22.6802L8.99055 20.3972L5.79671 22.6802C5.61819 22.8079 5.37981 22.6346 5.44603 22.4254L6.6302 18.6824L3.4721 16.3503C3.29544 16.2199 3.38656 15.9397 3.60609 15.938L7.53176 15.9076L8.77375 12.1835C8.84338 11.9753 9.13782 11.9753 9.20735 12.1835Z" fill="#FFE15A"/>
</g>
<defs>
<clipPath id="clip0_3462_31690">
<rect width="50" height="50" fill="white" transform="translate(0.162109 0.173828)"/>
</clipPath>
</defs>
</svg>
