<svg width="51" height="51" viewBox="0 0 51 51" fill="none" xmlns="http://www.w3.org/2000/svg">
<g clip-path="url(#clip0_3462_31682)">
<path d="M1.20176 41.3437L25.8838 25.1728L1.20176 9.00195C1.01182 9.16006 0.883789 9.38916 0.883789 9.65557V40.69C0.883789 40.9565 1.01182 41.1856 1.20176 41.3437Z" fill="#F5F5F5"/>
<path d="M1.20117 41.3447C1.35059 41.4691 1.53564 41.5531 1.74521 41.5531H50.0211C50.4972 41.5531 50.8832 41.1671 50.8832 40.691V25.1738H25.8832L1.20117 41.3447Z" fill="#73AF00"/>
<path d="M1.20117 9.00332C1.35059 8.87891 1.53564 8.79492 1.74521 8.79492H50.0211C50.4972 8.79492 50.8832 9.18096 50.8832 9.65703V25.1742H25.8832L1.20117 9.00332Z" fill="#82AFFF"/>
<path d="M9.8447 21.2815L8.97165 23.8993L6.21218 23.9208C6.06091 23.9219 5.99822 24.1151 6.1198 24.2049L8.33972 25.8443L7.5074 28.4754C7.46179 28.6197 7.62605 28.7389 7.7491 28.6509L9.99412 27.0464L12.2391 28.6509C12.3622 28.7388 12.5264 28.6196 12.4808 28.4754L11.6485 25.8443L13.8681 24.2048C13.9898 24.115 13.9271 23.9218 13.7758 23.9207L11.0163 23.8992L10.1432 21.2814C10.0956 21.138 9.89255 21.138 9.8447 21.2815Z" fill="#FF4B55"/>
</g>
<defs>
<clipPath id="clip0_3462_31682">
<rect width="50" height="50" fill="white" transform="translate(0.882812 0.173828)"/>
</clipPath>
</defs>
</svg>
