<svg width="50" height="51" viewBox="0 0 50 51" fill="none" xmlns="http://www.w3.org/2000/svg">
<g clip-path="url(#clip0_3462_31587)">
<path d="M49.1378 41.9813H0.862108C0.386034 41.9813 0 41.5953 0 41.1192V10.0848C0 9.60869 0.386034 9.22266 0.862108 9.22266H49.1379C49.614 9.22266 50 9.60869 50 10.0848V41.1192C49.9999 41.5954 49.6139 41.9813 49.1378 41.9813Z" fill="#F5F5F5"/>
<path d="M20.6896 22.1538H0.862108C0.386034 22.1538 0 21.7678 0 21.2917V10.0848C0 9.60869 0.386034 9.22266 0.862108 9.22266H20.6896C21.1657 9.22266 21.5517 9.60869 21.5517 10.0848V21.2917C21.5517 21.7678 21.1657 22.1538 20.6896 22.1538Z" fill="#41479B"/>
<path d="M49.1378 41.9818H29.3104C28.8343 41.9818 28.4482 41.5958 28.4482 41.1197V29.9129C28.4482 29.4368 28.8343 29.0508 29.3104 29.0508H49.1378C49.6139 29.0508 50 29.4368 50 29.9129V41.1198C50 41.5959 49.6139 41.9818 49.1378 41.9818Z" fill="#41479B"/>
<path d="M49.1378 22.1538H29.3104C28.8343 22.1538 28.4482 21.7678 28.4482 21.2917V10.0848C28.4482 9.60869 28.8343 9.22266 29.3104 9.22266H49.1378C49.6139 9.22266 50 9.60869 50 10.0848V21.2917C50 21.7678 49.6139 22.1538 49.1378 22.1538Z" fill="#FF4B55"/>
<path d="M20.6896 41.9818H0.862108C0.386034 41.9818 0 41.5958 0 41.1197V29.9129C0 29.4368 0.386034 29.0508 0.862108 29.0508H20.6896C21.1657 29.0508 21.5517 29.4368 21.5517 29.9129V41.1198C21.5517 41.5959 21.1657 41.9818 20.6896 41.9818Z" fill="#FF4B55"/>
<path d="M24.5059 28.0595C24.5059 28.0595 25.0209 28.2481 24.9537 28.8947L25.1619 28.8908C25.1619 28.8908 25.0306 28.1436 24.922 28.0541C24.8134 27.9645 24.5059 28.0595 24.5059 28.0595Z" fill="#64B496"/>
<path d="M25.0218 27.9596C24.8033 27.9596 24.4215 27.9593 24.0199 27.8509C24.1095 27.7577 24.2332 27.57 24.2332 27.2428C24.2332 26.7303 23.8801 27.0572 23.8801 27.0572C23.8801 27.0572 23.6479 27.2526 23.7883 27.775C23.6514 27.7227 23.5155 27.6554 23.386 27.569C23.4666 27.4679 23.6273 27.2321 23.7207 26.8583C23.7207 26.8583 23.1322 26.742 22.9713 27.1851C22.8727 27.0601 22.7883 26.9193 22.7179 26.7636C22.8691 26.7654 23.0802 26.6656 23.0802 26.0896C23.0802 26.0896 22.6959 26.0903 22.5933 26.4236C22.5528 26.2843 22.5221 26.135 22.4994 25.9771C22.6528 26.0217 23.0495 26.0536 23.0495 25.1928C23.0495 25.1928 22.5733 25.1937 22.463 25.6155C22.4569 25.5076 22.4546 25.3961 22.4557 25.2811C22.6869 25.1602 23.0061 24.8938 22.973 24.3475C22.973 24.3475 22.7533 24.3973 22.552 24.5661C22.5916 24.359 22.5752 24.0558 22.2575 23.8027C22.2575 23.8027 21.9656 24.3193 22.392 24.7388C22.3549 24.7909 22.3226 24.8503 22.2959 24.9162C22.2001 24.7703 22.0465 24.6347 21.799 24.5522C21.799 24.5522 21.6852 25.2441 22.3312 25.5336C22.3465 25.9377 22.4097 26.2947 22.5183 26.6052C22.3332 26.4422 22.1835 26.2178 22.1835 26.2178C22.1835 25.449 21.5533 25.4296 21.5533 25.4296C21.4357 26.307 22.0845 26.3425 22.0845 26.3425L22.4398 26.7302C21.671 26.602 21.671 27.2427 21.671 27.2427C22.1835 27.3708 22.4398 27.1145 22.4398 27.1145L22.7169 27.257C22.2253 27.2714 22.0554 27.7552 22.0554 27.7552C22.6732 27.8582 23.125 27.7129 23.2786 27.6519C23.9009 28.087 24.6679 28.0876 25.022 28.0876V27.9596H25.0218Z" fill="#64B496"/>
<path d="M24.9785 27.9596C25.197 27.9596 25.5788 27.9593 25.9804 27.8509C25.8908 27.7577 25.7671 27.57 25.7671 27.2428C25.7671 26.7303 26.1202 27.0572 26.1202 27.0572C26.1202 27.0572 26.3524 27.2526 26.212 27.775C26.3489 27.7227 26.4848 27.6554 26.6143 27.569C26.5337 27.4679 26.3729 27.2321 26.2796 26.8583C26.2796 26.8583 26.8681 26.742 27.029 27.1851C27.1276 27.0601 27.212 26.9193 27.2824 26.7636C27.1311 26.7654 26.9201 26.6656 26.9201 26.0896C26.9201 26.0896 27.3044 26.0903 27.4072 26.4236C27.4477 26.2843 27.4784 26.135 27.5011 25.9771C27.3477 26.0217 26.951 26.0536 26.951 25.1928C26.951 25.1928 27.4272 25.1937 27.5375 25.6155C27.5436 25.5076 27.5459 25.3961 27.5448 25.2811C27.3136 25.1602 26.9944 24.8938 27.0275 24.3475C27.0275 24.3475 27.2472 24.3973 27.4485 24.5661C27.4089 24.359 27.4253 24.0558 27.743 23.8027C27.743 23.8027 28.0349 24.3193 27.6085 24.7388C27.6456 24.7909 27.6779 24.8503 27.7046 24.9162C27.8004 24.7703 27.954 24.6347 28.2015 24.5522C28.2015 24.5522 28.3153 25.2441 27.6693 25.5336C27.654 25.9377 27.5908 26.2947 27.4822 26.6052C27.6673 26.4422 27.817 26.2178 27.817 26.2178C27.817 25.449 28.4472 25.4296 28.4472 25.4296C28.5648 26.307 27.916 26.3425 27.916 26.3425L27.5607 26.7302C28.3295 26.602 28.3295 27.2427 28.3295 27.2427C27.817 27.3708 27.5607 27.1145 27.5607 27.1145L27.2836 27.257C27.7752 27.2714 27.9451 27.7552 27.9451 27.7552C27.3272 27.8582 26.8755 27.7129 26.7219 27.6519C26.0996 28.087 25.3326 28.0876 24.9785 28.0876V27.9596Z" fill="#64B496"/>
<path d="M22.8377 22.375C22.3871 22.6638 21.9899 23.0314 21.6699 23.4655C21.8074 23.5669 21.9449 23.6684 22.0824 23.7697C22.3648 23.3866 22.7153 23.0622 23.1128 22.8072L22.8377 22.375Z" fill="#41479B"/>
<path d="M25.0011 25.7051H26.7947V26.7301C26.7947 27.0132 26.5653 27.2426 26.2822 27.2426H25.5135C25.3029 27.2426 25.1178 27.3455 25.001 27.5023L25.0011 25.7051Z" fill="#FF6B71"/>
<path d="M25.3857 24.552V23.1426H27.3076L26.7951 23.6551V25.0645H25.3857V24.552Z" fill="#5F64B9"/>
<path d="M26.7949 25.0645H26.1543V25.7051H26.7949V25.0645Z" fill="#F5F5F5"/>
<path d="M25.0017 25.7051H23.208V26.7301C23.208 27.0132 23.4374 27.2426 23.7205 27.2426H24.4893C24.6998 27.2426 24.885 27.3455 25.0018 27.5023L25.0017 25.7051Z" fill="#FF6B71"/>
<path d="M24.6816 27.2747C24.8095 27.3155 24.9198 27.3951 24.999 27.5H25.005C25.0843 27.395 25.1945 27.3156 25.3224 27.2747V26.2188H24.6817L24.6816 27.2747Z" fill="#F5F5F5"/>
<path d="M24.6172 24.552V23.1426H22.6953L23.2078 23.6551V25.0645H24.6172V24.552Z" fill="#5F64B9"/>
<path d="M23.8486 25.0645H23.208V25.7051H23.8486V25.0645Z" fill="#F5F5F5"/>
<path d="M23.8486 23.7832V24.1676L24.234 24.4238V24.1676L23.8486 23.7832Z" fill="#41479B"/>
<path d="M24.2324 24.168V24.5523L24.7449 24.8086V24.6805L24.2324 24.168Z" fill="#F5F5F5"/>
<path d="M26.1549 23.7832V24.1676L25.7695 24.4238V24.1676L26.1549 23.7832Z" fill="#41479B"/>
<path d="M25.7703 24.168V24.5523L25.2578 24.8086V24.6805L25.7703 24.168Z" fill="#F5F5F5"/>
<path d="M25.7748 26.6026H24.229C23.8776 26.6026 23.5928 26.3158 23.5928 25.962V23.9805L25.0112 24.937L26.4109 23.9805V25.962C26.4109 26.3159 26.1262 26.6026 25.7748 26.6026Z" fill="#FF4B55"/>
<path d="M24.1043 24.2965L23.5918 23.9121V25.3215L24.1043 25.5777V24.2965Z" fill="#41479B"/>
<path d="M25.8975 24.2965L26.41 23.9121V25.3215L25.8975 25.5777V24.2965Z" fill="#41479B"/>
<path d="M25.7689 25.5781H24.2314V26.2188H25.7689V25.5781Z" fill="#41479B"/>
<path d="M24.2324 24.4238L25.0011 24.8082L25.7698 24.4238V25.577H24.2324V24.4238Z" fill="#FF4B55"/>
<path d="M25.5783 24.546V25.8343C25.5783 25.9402 25.4921 26.0264 25.3862 26.0264H24.6175C24.5115 26.0264 24.4254 25.9401 24.4254 25.8343V24.5513L24.041 24.2938V25.8343C24.041 26.1521 24.2996 26.4107 24.6175 26.4107H25.3862C25.7041 26.4107 25.9627 26.1521 25.9627 25.8343V24.2852L25.5783 24.546Z" fill="#F5F5F5"/>
<path d="M25.7123 25.4409C25.4965 25.4604 25.2536 25.4821 25.0016 25.5698C24.7496 25.4821 24.5066 25.4604 24.2908 25.4409C23.9297 25.4085 23.7154 25.377 23.5928 25.1591V25.5289C23.7812 25.6514 24.0197 25.6738 24.2679 25.6962C24.4906 25.7162 24.7209 25.7368 24.9562 25.826L25.0017 25.8431L25.0471 25.826C25.2823 25.7368 25.5126 25.7163 25.7354 25.6962C25.9838 25.6739 26.2227 25.6518 26.4111 25.5291V25.1582C26.2884 25.377 26.0739 25.4085 25.7123 25.4409Z" fill="#F5F5F5"/>
<path d="M25.2575 24.2332H25.0654V24.041H24.9373V24.2332H24.7451V24.3613H24.9373V24.9379H25.0654V24.3613H25.2575V24.2332Z" fill="#FFE15A"/>
<path d="M23.8086 23.6504L23.7383 23.7207L24.8641 24.8465L24.9344 24.7762L23.8086 23.6504Z" fill="#464655"/>
<path d="M23.5625 23.4746L23.7036 23.7561L23.8447 23.6153L23.5625 23.4746Z" fill="#FFE15A"/>
<path d="M24.0668 23.4688L23.9863 23.5273L24.9239 24.8144L25.0043 24.7558L24.0668 23.4688Z" fill="#464655"/>
<path d="M23.8506 23.2559L23.9462 23.5558L24.1075 23.4386L23.8506 23.2559Z" fill="#FFE15A"/>
<path d="M23.5852 23.8853L23.5283 23.9668L24.8338 24.8783L24.8907 24.7968L23.5852 23.8853Z" fill="#464655"/>
<path d="M23.3115 23.7559L23.4998 24.0083L23.6141 23.8452L23.3115 23.7559Z" fill="#FFE15A"/>
<path d="M25.0684 24.7754L25.1387 24.8457L26.2645 23.7199L26.1942 23.6496L25.0684 24.7754Z" fill="#464655"/>
<path d="M26.4404 23.4746L26.2993 23.7561L26.1582 23.6153L26.4404 23.4746Z" fill="#FFE15A"/>
<path d="M24.9987 24.7539L25.0791 24.8125L26.0166 23.5255L25.9362 23.4669L24.9987 24.7539Z" fill="#464655"/>
<path d="M26.1523 23.2559L26.0567 23.5558L25.8955 23.4386L26.1523 23.2559Z" fill="#FFE15A"/>
<path d="M25.114 24.7993L25.1709 24.8809L26.4763 23.9693L26.4194 23.8878L25.114 24.7993Z" fill="#464655"/>
<path d="M26.6912 23.7559L26.5029 24.0083L26.3887 23.8452L26.6912 23.7559Z" fill="#FFE15A"/>
<path d="M24.9361 27.2061C24.9361 27.2061 24.4406 26.674 24.5368 26.1855C24.614 25.7926 24.8485 25.3595 25.032 25.2542C25.032 25.2542 25.2915 25.2381 25.2265 25.4635C25.1614 25.6889 25.0821 25.747 25.1054 25.9692C25.1453 26.3538 25.2073 26.8094 24.9361 27.2061Z" fill="#F5F5F5"/>
<path d="M25.0865 25.2569C25.0555 25.2528 25.032 25.2541 25.032 25.2541C24.8485 25.3595 24.614 25.7926 24.5368 26.1855C24.493 26.4076 24.572 26.6384 24.6709 26.8244C24.6083 26.019 24.8434 25.7332 25.0865 25.2569Z" fill="#41479B"/>
<path d="M25.1056 25.9701C25.0823 25.7479 25.1618 25.6898 25.227 25.4645C25.2727 25.3067 25.1591 25.2673 25.0868 25.2578C25.0868 25.2578 24.9209 25.6379 24.9102 25.8929C24.9008 26.1172 24.9584 27.03 24.9361 27.2071C25.208 26.8102 25.1458 26.3545 25.1056 25.9701Z" fill="#FF4B55"/>
<path d="M24.7695 25.4485C24.8728 25.3478 25.0179 25.3028 25.1601 25.3272C25.0927 25.1103 25.0253 24.8934 24.9579 24.6764C24.8159 24.6521 24.6707 24.6971 24.5674 24.7977C24.6347 25.0147 24.7021 25.2316 24.7695 25.4485Z" fill="#F5F0F0"/>
<path d="M25.1602 25.3254C25.2634 25.2247 25.4085 25.1797 25.5507 25.2041C25.4833 24.9872 25.4159 24.7703 25.3485 24.5533C25.2065 24.529 25.0613 24.5741 24.958 24.6746C25.0253 24.8915 25.0927 25.1084 25.1602 25.3254Z" fill="#F5F5F5"/>
<path d="M24.4157 22.5116C23.7202 22.4956 23.0333 22.6666 22.4265 23.0067C22.343 22.8577 22.2594 22.7087 22.1758 22.5598C22.8626 22.1746 23.6402 21.9811 24.4275 21.9992C24.4235 22.17 24.4195 22.3408 24.4157 22.5116Z" fill="#5F64B9"/>
<path d="M27.1647 22.375C27.6153 22.6638 28.0125 23.0314 28.3325 23.4655C28.195 23.5669 28.0575 23.6684 27.92 23.7697C27.6376 23.3866 27.2871 23.0622 26.8896 22.8072L27.1647 22.375Z" fill="#41479B"/>
<path d="M25.587 22.5116C26.2825 22.4956 26.9694 22.6666 27.5763 23.0067C27.6598 22.8577 27.7434 22.7087 27.827 22.5598C27.1401 22.1746 26.3625 21.9811 25.5752 21.9992C25.5792 22.17 25.5832 22.3408 25.587 22.5116Z" fill="#5F64B9"/>
<path d="M26.026 22.3747C25.355 22.1911 24.647 22.1911 23.9761 22.3747C23.9311 22.21 23.8858 22.0452 23.8408 21.8804C24.6003 21.6727 25.4017 21.6727 26.1612 21.8804C26.1162 22.0451 26.0711 22.2099 26.026 22.3747Z" fill="#41479B"/>
<path d="M23.2841 28.1172C22.7311 28.2616 22.1904 28.4564 21.6699 28.7017C21.7428 28.8562 21.8156 29.0107 21.8884 29.1652C22.3906 28.9285 22.9127 28.7417 23.447 28.6045L23.2841 28.1172Z" fill="#FF6B71"/>
<path d="M26.7176 28.1172C27.2706 28.2616 27.8112 28.4564 28.3317 28.7017C28.2589 28.8562 28.186 29.0107 28.1133 29.1652C27.611 28.9285 27.089 28.7417 26.5547 28.6045L26.7176 28.1172Z" fill="#FF6B71"/>
<path d="M27.0623 28.5128C25.7147 28.1893 24.31 28.1893 22.9624 28.5128C22.9226 28.3466 22.8826 28.1806 22.8428 28.0146C24.2688 27.6722 25.7559 27.6722 27.1819 28.0146C27.1422 28.1806 27.1022 28.3468 27.0623 28.5128Z" fill="#FF4B55"/>
<path d="M25.0018 28.6529L24.6484 28.7413C24.5676 28.7615 24.4893 28.7004 24.4893 28.6171V28.4328C24.4893 28.3495 24.5676 28.2883 24.6484 28.3086L25.0018 28.397V28.6529Z" fill="#FF4B55"/>
<path d="M25.002 28.395L25.3553 28.3066C25.4361 28.2864 25.5145 28.3475 25.5145 28.4308V28.6151C25.5145 28.6984 25.4361 28.7597 25.3553 28.7393L25.002 28.651V28.395Z" fill="#FF4B55"/>
<path d="M25.0291 28.6528H24.974C24.9183 28.6528 24.873 28.6078 24.873 28.5521V28.4972C24.873 28.4416 24.9182 28.3965 24.974 28.3965H25.0291C25.0848 28.3965 25.1301 28.4415 25.1301 28.4972V28.5521C25.13 28.6078 25.0848 28.6528 25.0291 28.6528Z" fill="#FF6B71"/>
</g>
<defs>
<clipPath id="clip0_3462_31587">
<rect width="50" height="50" fill="white" transform="translate(0 0.601562)"/>
</clipPath>
</defs>
</svg>
