<svg width="51" height="51" viewBox="0 0 51 51" fill="none" xmlns="http://www.w3.org/2000/svg">
<g clip-path="url(#clip0_3462_31650)">
<path d="M49.4483 41.823H1.17265C0.696581 41.823 0.310547 41.437 0.310547 40.9609V9.92656C0.310547 9.45049 0.696581 9.06445 1.17265 9.06445H49.4484C49.9245 9.06445 50.3105 9.45049 50.3105 9.92656V40.9609C50.3104 41.4371 49.9244 41.823 49.4483 41.823Z" fill="#73AF00"/>
<path d="M50.3105 21.9941H0.310547V24.293H50.3105V21.9941Z" fill="#FFE15A"/>
<path d="M50.3105 24.293H0.310547V26.5918H50.3105V24.293Z" fill="#464655"/>
<path d="M50.3105 26.5918H0.310547V28.8906H50.3105V26.5918Z" fill="#F5F5F5"/>
<path d="M24.1611 9.06445H21.8623V41.8232H24.1611V9.06445Z" fill="#FFE15A"/>
<path d="M26.46 9.06445H24.1611V41.8232H26.46V9.06445Z" fill="#464655"/>
<path d="M28.7588 9.06445H26.46V41.8232H28.7588V9.06445Z" fill="#F5F5F5"/>
<path d="M25.3105 34.0644C30.0718 34.0644 33.9316 30.2046 33.9316 25.4433C33.9316 20.6821 30.0718 16.8223 25.3105 16.8223C20.5492 16.8223 16.6895 20.6821 16.6895 25.4433C16.6895 30.2046 20.5492 34.0644 25.3105 34.0644Z" fill="#FF4B55"/>
<path d="M24.5706 26.9258C24.5706 26.9258 24.4699 27.6306 25.1546 28.6775H26.4835L26.1815 27.4091L24.5706 26.9258Z" fill="#73AF00"/>
<path d="M24.4766 22.2081C24.4766 22.2081 22.3022 25.7652 25.4967 27.886L25.8323 25.8725L26.047 23.2685L25.7115 22.1543L24.4766 22.2081Z" fill="#A561CD"/>
<path d="M24.4759 22.2081C24.4759 22.2081 24.2273 22.6219 24.0215 23.2444C24.3014 23.537 25.0665 23.8995 26.0073 23.7405L26.0463 23.2685L25.7106 22.1543L24.4759 22.2081Z" fill="#73AF00"/>
<path d="M24.0596 21.6978C24.0596 21.6978 24.0863 20.9863 24.7845 20.9863C25.657 20.9863 26.3685 21.1876 27.4959 23.5232C27.4959 23.5232 26.4931 24.5076 25.8583 23.1474C25.6704 22.7446 25.6032 22.2615 25.6032 22.2615C25.6032 22.2615 24.8247 22.53 24.2878 22.2212L24.0596 21.6978Z" fill="#A561CD"/>
<path d="M24.4093 22.0339L24.2481 21.6044C24.2481 21.6044 23.3488 21.4567 23.7246 22.544C23.7246 22.544 23.7515 22.3293 23.9797 22.3561C24.208 22.3829 24.4495 22.2084 24.4093 22.0339Z" fill="#FFE15A"/>
<path d="M25.9123 26.1152C25.9123 26.1152 24.9661 26.8567 25.4963 28.5984C25.7782 29.5246 26.9057 30.5414 26.9057 30.5414C26.9057 30.5414 27.7412 28.3568 27.4694 27.5112C27.3095 27.0135 25.9123 26.1152 25.9123 26.1152Z" fill="#73AF00"/>
<path d="M27.7116 28.9197C27.7116 28.9197 25.2686 26.5908 25.1075 24.7586C24.9463 22.9263 26.0029 23.2172 26.1948 23.3357C26.6511 23.6175 27.8055 24.7988 27.7116 28.9197Z" fill="#73AF00"/>
<path d="M27.4078 29.4537H23.3631C23.279 29.4537 23.2109 29.3856 23.2109 29.3016V29.0018C23.2109 28.9177 23.279 28.8496 23.3631 28.8496H27.4078C27.4919 28.8496 27.56 28.9177 27.56 29.0018V29.3016C27.5599 29.3855 27.4918 29.4537 27.4078 29.4537Z" fill="#B34900"/>
<path d="M26.4228 28.8798C26.2819 28.9383 25.9999 29.0107 26.0704 29.2623C26.1244 29.4551 26.4933 29.4334 26.4228 29.655C26.3751 29.8047 25.626 29.8185 25.3355 29.7758C25.1575 29.7496 24.7717 29.6448 24.8254 29.202C24.8791 28.759 25.0401 28.6908 25.2416 28.6113C25.4413 28.5324 26.3148 28.5499 26.443 28.6583C26.5083 28.7137 26.5294 28.8355 26.4228 28.8798Z" fill="#FFE15A"/>
<path d="M25.3899 17.7407L25.5861 18.3291L26.2062 18.334C26.2865 18.3347 26.3198 18.4371 26.2552 18.4848L25.7563 18.8532L25.9434 19.4445C25.9676 19.521 25.8805 19.5844 25.8152 19.5377L25.3106 19.177L24.8061 19.5377C24.7408 19.5844 24.6537 19.5211 24.6779 19.4445L24.865 18.8532L24.3661 18.4848C24.3015 18.437 24.3348 18.3346 24.4151 18.334L25.0352 18.3291L25.2314 17.7407C25.2567 17.6646 25.3644 17.6646 25.3899 17.7407Z" fill="#73AF00"/>
<path d="M25.3899 31.4966L25.5861 32.085L26.2062 32.0898C26.2865 32.0905 26.3198 32.193 26.2552 32.2406L25.7563 32.6091L25.9434 33.2004C25.9676 33.2768 25.8805 33.3402 25.8152 33.2935L25.3106 32.9329L24.8061 33.2935C24.7408 33.3402 24.6537 33.2769 24.6779 33.2004L24.865 32.6091L24.3661 32.2406C24.3015 32.1929 24.3348 32.0904 24.4151 32.0898L25.0352 32.085L25.2314 31.4966C25.2567 31.4204 25.3644 31.4204 25.3899 31.4966Z" fill="#73AF00"/>
<path d="M25.3899 17.7407L25.5861 18.3291L26.2062 18.334C26.2865 18.3347 26.3198 18.4371 26.2552 18.4848L25.7563 18.8532L25.9434 19.4445C25.9676 19.521 25.8805 19.5844 25.8152 19.5377L25.3106 19.177L24.8061 19.5377C24.7408 19.5844 24.6537 19.5211 24.6779 19.4445L24.865 18.8532L24.3661 18.4848C24.3015 18.437 24.3348 18.3346 24.4151 18.334L25.0352 18.3291L25.2314 17.7407C25.2567 17.6646 25.3644 17.6646 25.3899 17.7407Z" fill="#73AF00"/>
<path d="M25.3899 31.4966L25.5861 32.085L26.2062 32.0898C26.2865 32.0905 26.3198 32.193 26.2552 32.2406L25.7563 32.6091L25.9434 33.2004C25.9676 33.2768 25.8805 33.3402 25.8152 33.2935L25.3106 32.9329L24.8061 33.2935C24.7408 33.3402 24.6537 33.2769 24.6779 33.2004L24.865 32.6091L24.3661 32.2406C24.3015 32.1929 24.3348 32.0904 24.4151 32.0898L25.0352 32.085L25.2314 31.4966C25.2567 31.4204 25.3644 31.4204 25.3899 31.4966Z" fill="#73AF00"/>
<path d="M20.5968 19.152L20.7686 19.7479L20.2604 20.1034C20.1946 20.1494 20.2253 20.2527 20.3055 20.2553L20.9254 20.276L21.1065 20.8692C21.1301 20.9461 21.2377 20.9487 21.265 20.8733L21.4762 20.2902L22.0964 20.3013C22.1766 20.3027 22.2126 20.2012 22.1492 20.1519L21.6598 19.7709L21.8619 19.1843C21.8881 19.1085 21.8025 19.0428 21.736 19.0879L21.2224 19.4355L20.7273 19.0622C20.6632 19.0137 20.5744 19.0749 20.5968 19.152Z" fill="#73AF00"/>
<path d="M28.3946 30.4839L28.5665 31.0798L28.0583 31.4353C27.9925 31.4813 28.0231 31.5846 28.1034 31.5872L28.7232 31.6079L28.9044 32.2011C28.9279 32.2779 29.0355 32.2806 29.0629 32.2052L29.2741 31.6221L29.8942 31.6332C29.9745 31.6346 30.0104 31.5331 29.947 31.4838L29.4577 31.1028L29.6598 30.5164C29.686 30.4405 29.6005 30.3749 29.534 30.4199L29.0204 30.7676L28.5253 30.3943C28.4612 30.3457 28.3724 30.4069 28.3946 30.4839Z" fill="#73AF00"/>
<path d="M17.6818 23.102L18.1769 23.4754L17.984 24.0648C17.959 24.1411 18.0455 24.2053 18.1113 24.1594L18.6195 23.8038L19.1205 24.1694C19.1853 24.2167 19.2732 24.1544 19.2497 24.0775L19.0685 23.4844L19.5711 23.1211C19.6361 23.074 19.6038 22.9712 19.5235 22.9698L18.9034 22.9588L18.7131 22.3684C18.6884 22.2921 18.5808 22.291 18.5546 22.3668L18.3525 22.9531L17.7324 22.9517C17.652 22.9514 17.6178 23.0536 17.6818 23.102Z" fill="#73AF00"/>
<path d="M30.7209 27.4829L31.216 27.8562L31.023 28.4457C30.998 28.522 31.0845 28.5862 31.1504 28.5402L31.6586 28.1846L32.1595 28.5503C32.2244 28.5975 32.3123 28.5351 32.2887 28.4584L32.1076 27.8653L32.6101 27.5019C32.6752 27.4549 32.6428 27.352 32.5626 27.3507L31.9424 27.3396L31.7521 26.7493C31.7274 26.6729 31.6198 26.6719 31.5936 26.7476L31.3916 27.334L30.7715 27.3326C30.6912 27.3324 30.6568 27.4345 30.7209 27.4829Z" fill="#73AF00"/>
<path d="M29.6962 19.1519L29.5243 19.7478L30.0325 20.1033C30.0983 20.1493 30.0677 20.2526 29.9874 20.2552L29.3676 20.276L29.1864 20.8691C29.1629 20.946 29.0553 20.9486 29.0279 20.8732L28.8167 20.2901L28.1966 20.3012C28.1163 20.3026 28.0804 20.2011 28.1437 20.1518L28.6331 19.7708L28.4309 19.1844C28.4048 19.1086 28.4903 19.0429 28.5568 19.088L29.0704 19.4356L29.5655 19.0623C29.6297 19.0136 29.7184 19.0748 29.6962 19.1519Z" fill="#73AF00"/>
<path d="M21.8983 30.4839L21.7264 31.0798L22.2347 31.4353C22.3005 31.4813 22.2698 31.5846 22.1895 31.5872L21.5697 31.6079L21.3886 32.2011C21.365 32.2779 21.2574 32.2806 21.2301 32.2052L21.0188 31.6221L20.3987 31.6332C20.3184 31.6346 20.2825 31.5331 20.3459 31.4838L20.8352 31.1028L20.6331 30.5164C20.6069 30.4405 20.6925 30.3749 20.759 30.4199L21.2725 30.7676L21.7677 30.3943C21.8318 30.3457 21.9206 30.4069 21.8983 30.4839Z" fill="#73AF00"/>
<path d="M32.6115 23.102L32.1163 23.4754L32.3093 24.0648C32.3343 24.1411 32.2478 24.2053 32.182 24.1594L31.6738 23.8038L31.1728 24.1694C31.1079 24.2167 31.0201 24.1544 31.0436 24.0775L31.2247 23.4844L30.7222 23.1211C30.6572 23.074 30.6895 22.9712 30.7698 22.9698L31.3899 22.9588L31.5802 22.3684C31.6049 22.2921 31.7125 22.291 31.7387 22.3668L31.9408 22.9531L32.5609 22.9517C32.6412 22.9514 32.6756 23.0536 32.6115 23.102Z" fill="#73AF00"/>
<path d="M19.5724 27.4829L19.0773 27.8562L19.2703 28.4457C19.2953 28.522 19.2087 28.5862 19.1429 28.5402L18.6347 28.1846L18.1337 28.5503C18.0689 28.5975 17.981 28.5351 18.0045 28.4584L18.1857 27.8653L17.6831 27.5019C17.6181 27.4549 17.6504 27.352 17.7307 27.3507L18.3508 27.3396L18.5412 26.7493C18.5659 26.6729 18.6735 26.6719 18.6997 26.7476L18.9017 27.334L19.5218 27.3326C19.6023 27.3324 19.6366 27.4345 19.5724 27.4829Z" fill="#73AF00"/>
</g>
<defs>
<clipPath id="clip0_3462_31650">
<rect width="50" height="50" fill="white" transform="translate(0.310547 0.443359)"/>
</clipPath>
</defs>
</svg>
