<svg width="51" height="51" viewBox="0 0 51 51" fill="none" xmlns="http://www.w3.org/2000/svg">
<g clip-path="url(#clip0_3462_31582)">
<path d="M49.5646 9.22266H1.28887C0.812792 9.22266 0.426758 9.60859 0.426758 10.0847V41.1191C0.426758 41.5952 0.812792 41.9812 1.28887 41.9812H49.5647C50.0407 41.9812 50.4268 41.5952 50.4268 41.1191V10.0847C50.4267 9.60859 50.0406 9.22266 49.5646 9.22266Z" fill="#FF4B55"/>
<path d="M0.768066 41.7872L28.4895 26.1361C28.9063 25.9007 28.9063 25.3006 28.4895 25.0653L0.768066 9.41406C0.565429 9.57178 0.426758 9.80683 0.426758 10.0834V41.1178C0.426758 41.3945 0.565527 41.6295 0.768066 41.7872Z" fill="#FFE15A"/>
<path d="M0.694433 41.739L19.5354 26.195C19.9082 25.8875 19.9082 25.3165 19.5354 25.0089L0.694433 9.46484C0.530762 9.62187 0.426758 9.84004 0.426758 10.0847V41.1191C0.426758 41.3638 0.530762 41.5821 0.694433 41.739Z" fill="#464655"/>
<path d="M5.81098 21.5531L5.8931 24.6558L2.98403 25.7379C2.70502 25.8418 2.7187 26.2409 3.00414 26.3253L5.98041 27.206L6.11068 30.3071C6.12318 30.6045 6.50697 30.7148 6.67553 30.4695L8.43285 27.911L11.4224 28.7454C11.709 28.8254 11.9326 28.4944 11.7514 28.2584L9.86107 25.7964L11.5784 23.2111C11.7431 22.9631 11.4975 22.6483 11.2169 22.7477L8.29154 23.7846L6.36342 21.3524C6.17836 21.1191 5.80307 21.2555 5.81098 21.5531Z" fill="#F5F5F5"/>
</g>
<defs>
<clipPath id="clip0_3462_31582">
<rect width="50" height="50" fill="white" transform="translate(0.427734 0.601562)"/>
</clipPath>
</defs>
</svg>
