<svg width="51" height="51" viewBox="0 0 51 51" fill="none" xmlns="http://www.w3.org/2000/svg">
<g clip-path="url(#clip0_3462_31533)">
<path d="M50.7206 33.791H0.720703V41.1185C0.720703 41.5946 1.10674 41.9806 1.58281 41.9806H49.8586C50.3347 41.9806 50.7207 41.5946 50.7207 41.1185L50.7206 33.791Z" fill="#FF4B55"/>
<path d="M50.7206 25.602H0.720703V10.0848C0.720703 9.60869 1.10674 9.22266 1.58281 9.22266H49.8586C50.3347 9.22266 50.7207 9.60869 50.7207 10.0848L50.7206 25.602Z" fill="#FFE15A"/>
<path d="M50.7206 25.6016H0.720703V33.791H50.7206V25.6016Z" fill="#41479B"/>
<path d="M24.8213 26.0848L31.1182 20.6875V28.4987C31.1182 29.8152 30.0509 30.8823 28.7346 30.8823C28.1457 30.8823 27.5776 30.6643 27.1399 30.2705L24.8213 28.1838V26.0848Z" fill="#FFE15A"/>
<path d="M28.1426 29.1561L26.3203 27.5161V24.7998L29.6186 21.9727V23.9474V28.4988C29.6186 28.9864 29.2219 29.3832 28.7343 29.3832C28.5154 29.3832 28.3053 29.3025 28.1426 29.1561Z" fill="#FF4B55"/>
<path d="M27.2198 24.0287V27.1163L28.719 28.47V23.9285V22.7437L29.6186 21.9727V23.9474V28.4988C29.6186 28.9864 29.2219 29.3832 28.7343 29.3832C28.5154 29.3832 28.3053 29.3026 28.1426 29.1561L26.3203 27.5161V24.7998L27.2198 24.0287Z" fill="#41479B"/>
<path d="M26.6201 26.0848L20.3232 20.6875V28.4987C20.3232 29.8152 21.3905 30.8823 22.7068 30.8823C23.2957 30.8823 23.8638 30.6643 24.3015 30.2705L26.6201 28.1838V26.0848Z" fill="#FFE15A"/>
<path d="M23.2993 29.1561L25.1216 27.5161V24.7998L21.8232 21.9727V23.9474V28.4988C21.8232 28.9864 22.22 29.3832 22.7076 29.3832C22.9265 29.3832 23.1366 29.3025 23.2993 29.1561Z" fill="#FF4B55"/>
<path d="M24.2201 24.0287V27.1163L22.7209 28.47V23.9285V22.7437L21.8213 21.9727V23.9474V28.4988C21.8213 28.9864 22.2181 29.3832 22.7057 29.3832C22.9245 29.3832 23.1347 29.3026 23.2974 29.1561L25.1196 27.5161V24.7998L24.2201 24.0287Z" fill="#41479B"/>
<path d="M31.3305 20.7148H30.8994V23.2977H31.3305V20.7148Z" fill="#41479B"/>
<path d="M20.5375 20.7148H20.1064V23.2977H20.5375V20.7148Z" fill="#41479B"/>
<path d="M24.8212 19.4883C24.8212 19.4883 25.4209 16.6397 23.322 17.0145C21.223 17.3893 21.223 17.9889 18.8242 19.1884C18.8242 19.1884 21.5228 19.7881 22.7223 19.4883C22.7223 19.4883 23.6219 20.6876 24.5214 20.9875H25.421L24.8212 19.4883Z" fill="#5A4646"/>
<path d="M26.6203 19.4883C26.6203 19.4883 26.0206 16.6397 28.1195 17.0145C30.2184 17.3893 30.2184 17.9889 32.6173 19.1884C32.6173 19.1884 29.9186 19.7881 28.7192 19.4883C28.7192 19.4883 27.8196 20.6876 26.9201 20.9875H26.0205L26.6203 19.4883Z" fill="#5A4646"/>
<path d="M26.6204 20.9867H24.8213V19.4764C24.8213 18.9856 25.219 18.5879 25.7098 18.5879H25.7319C26.2227 18.5879 26.6204 18.9856 26.6204 19.4764V20.9867Z" fill="#5A4646"/>
<path d="M25.7208 20.0881C26.052 20.0881 26.3205 19.8196 26.3205 19.4884C26.3205 19.1572 26.052 18.8887 25.7208 18.8887C25.3896 18.8887 25.1211 19.1572 25.1211 19.4884C25.1211 19.8196 25.3896 20.0881 25.7208 20.0881Z" fill="#E6E1CD"/>
<path d="M24.4336 19.1021L25.5611 19.7043C25.6558 19.7549 25.7723 19.7375 25.8479 19.6616C25.9431 19.5665 25.9431 19.4124 25.8479 19.3172L25.1206 18.5898H24.9457C24.6629 18.5898 24.4336 18.8191 24.4336 19.1021Z" fill="#FFD0AF"/>
<path d="M24.8251 19.1895H23.9219L24.3171 18.7268C24.3913 18.6399 24.4998 18.5898 24.6142 18.5898H25.1212V18.8934C25.1212 19.0568 24.9886 19.1895 24.8251 19.1895Z" fill="#FFAF94"/>
<path d="M28.2777 20.9896C28.0754 20.7496 28.0322 20.4313 28.1308 20.1556C28.4193 20.1052 28.7256 20.2016 28.9279 20.4418C29.1007 20.647 29.1508 20.9078 29.1021 21.152C29.1621 21.2537 29.2353 21.3846 29.3159 21.5391C29.3199 21.5171 29.319 21.4953 29.3253 21.4733C29.396 21.2247 29.5931 21.0487 29.8267 20.9892C29.994 21.1628 30.0692 21.4162 29.9985 21.6647C29.9378 21.8786 29.7809 22.0336 29.5903 22.1121C29.6656 22.2849 29.7401 22.4712 29.8097 22.6678C29.8137 22.6562 29.814 22.6445 29.8187 22.6331C29.9164 22.3937 30.1318 22.2406 30.3705 22.2071C30.5175 22.398 30.5644 22.6582 30.4669 22.8976C30.3814 23.1069 30.2042 23.245 30.0016 23.3C30.1059 23.7114 30.175 24.1479 30.175 24.5874H29.8751C29.8751 24.2044 29.8163 23.8208 29.7275 23.4538C29.5424 23.5136 29.3357 23.5008 29.1567 23.3912C28.9383 23.2574 28.8231 23.0223 28.8285 22.7835C29.0388 22.6702 29.3006 22.666 29.519 22.7999C29.5269 22.8047 29.5322 22.8117 29.5398 22.8168C29.4755 22.6322 29.4072 22.4571 29.337 22.2929C29.157 22.3779 28.9452 22.391 28.7508 22.2998C28.519 22.1908 28.3787 21.9698 28.3577 21.7319C28.5536 21.5966 28.8125 21.5639 29.0435 21.6714C28.961 21.5127 28.8865 21.3798 28.8281 21.2806C28.6215 21.2567 28.4226 21.1616 28.2777 20.9896Z" fill="#8CB400"/>
<path d="M23.1633 20.9896C23.3656 20.7496 23.4088 20.4313 23.3101 20.1556C23.0217 20.1052 22.7153 20.2016 22.5131 20.4418C22.3402 20.647 22.2901 20.9078 22.3388 21.152C22.2789 21.2537 22.2056 21.3846 22.1251 21.5391C22.1211 21.5171 22.122 21.4953 22.1157 21.4733C22.045 21.2247 21.8478 21.0487 21.6142 20.9892C21.447 21.1628 21.3718 21.4162 21.4425 21.6647C21.5032 21.8786 21.66 22.0336 21.8507 22.1121C21.7754 22.2849 21.7009 22.4712 21.6312 22.6678C21.6272 22.6562 21.6269 22.6445 21.6222 22.6331C21.5246 22.3937 21.3092 22.2406 21.0705 22.2071C20.9234 22.398 20.8765 22.6582 20.9742 22.8976C21.0596 23.1069 21.2369 23.245 21.4394 23.3C21.3351 23.7114 21.2661 24.1479 21.2661 24.5874H21.566C21.566 24.2044 21.6248 23.8208 21.7136 23.4538C21.8986 23.5136 22.1053 23.5008 22.2844 23.3912C22.5028 23.2574 22.6179 23.0223 22.6126 22.7835C22.4022 22.6702 22.1404 22.666 21.922 22.7999C21.9141 22.8047 21.9089 22.8117 21.9012 22.8168C21.9655 22.6322 22.0339 22.4571 22.1041 22.2929C22.2841 22.3779 22.4959 22.391 22.6902 22.2998C22.922 22.1908 23.0624 21.9698 23.0834 21.7319C22.8875 21.5966 22.6286 21.5639 22.3975 21.6714C22.4801 21.5127 22.5546 21.3798 22.613 21.2806C22.8194 21.2567 23.0183 21.1616 23.1633 20.9896Z" fill="#8CB400"/>
<path d="M25.7207 27.5848L19.4238 22.1875V29.9987C19.4238 31.3152 20.4911 32.3823 21.8074 32.3823C22.3963 32.3823 22.9643 32.1643 23.402 31.7705L25.7207 29.6838V27.5848Z" fill="#FFE15A"/>
<path d="M22.3989 30.6561L24.2212 29.0161V26.2998L20.9229 23.4727V25.4474V29.9988C20.9229 30.4864 21.3196 30.8832 21.8072 30.8832C22.0262 30.8832 22.2362 30.8026 22.3989 30.6561Z" fill="#FF4B55"/>
<path d="M23.3217 25.5287V28.6163L21.8225 29.97V25.4285V24.2437L20.9229 23.4727V25.4474V29.9988C20.9229 30.4864 21.3196 30.8832 21.8072 30.8832C22.0261 30.8832 22.2362 30.8026 22.3989 30.6561L24.2212 29.0161V26.2998L23.3217 25.5287Z" fill="#41479B"/>
<path d="M25.7207 27.5848L32.0176 22.1875V29.9987C32.0176 31.3152 30.9503 32.3823 29.634 32.3823C29.0451 32.3823 28.477 32.1643 28.0394 31.7705L25.7207 29.6838V27.5848Z" fill="#FFE15A"/>
<path d="M29.042 30.6561L27.2197 29.0161V26.2998L30.5181 23.4727V25.4474V29.9988C30.5181 30.4864 30.1213 30.8832 29.6337 30.8832C29.4146 30.8832 29.2047 30.8026 29.042 30.6561Z" fill="#FF4B55"/>
<path d="M28.1192 25.5287V28.6163L29.6185 29.97V25.4285V24.2437L30.5181 23.4727V25.4474V29.9988C30.5181 30.4864 30.1213 30.8832 29.6337 30.8832C29.4148 30.8832 29.2047 30.8026 29.042 30.6561L27.2197 29.0161V26.2998L28.1192 25.5287Z" fill="#41479B"/>
<path d="M25.7212 29.9844C27.3772 29.9844 28.7197 27.9705 28.7197 25.4863C28.7197 23.0021 27.3772 20.9883 25.7212 20.9883C24.0651 20.9883 22.7227 23.0021 22.7227 25.4863C22.7227 27.9705 24.0651 29.9844 25.7212 29.9844Z" fill="#69C3FF"/>
<path d="M23.0225 26.6849H28.4197L28.7196 25.4855L27.3531 25.7134C27.079 25.7591 26.7986 25.681 26.5876 25.5001L25.0364 24.1705C24.8978 24.0517 24.7212 23.9863 24.5387 23.9863C24.3358 23.9863 24.1412 24.0669 23.9979 24.2104L23.0225 25.1857V26.6849Z" fill="#009B64"/>
<path d="M25.4368 25.2842L25.9519 24.9551L25.0364 24.1705C24.8979 24.0517 24.7212 23.9863 24.5387 23.9863C24.3358 23.9863 24.1412 24.0669 23.9979 24.2104L23.0225 25.1857V25.4856L24.5217 25.1857L24.7867 25.3183C24.9945 25.4222 25.2413 25.4091 25.4368 25.2842Z" fill="#F5F5F5"/>
<path d="M23.0225 26.6855L23.3223 28.4846L24.8215 29.9839H25.7211L26.9204 29.6841L28.1199 28.4846L28.4197 26.6855H23.0225Z" fill="#5AA0E6"/>
<path d="M25.7212 30.2828C23.9024 30.2828 22.4229 28.1306 22.4229 25.4851C22.4229 22.8397 23.9024 20.6875 25.7212 20.6875C27.5399 20.6875 29.0195 22.8397 29.0195 25.4851C29.0195 28.1306 27.5399 30.2828 25.7212 30.2828ZM25.7212 21.2874C24.2333 21.2874 23.0226 23.1706 23.0226 25.4853C23.0226 27.8001 24.2332 29.6833 25.7212 29.6833C27.2092 29.6833 28.4198 27.8001 28.4198 25.4853C28.4198 23.1706 27.2091 21.2874 25.7212 21.2874Z" fill="#FFC88C"/>
<path d="M23.6057 29.9556C23.3543 29.6085 22.9801 29.3828 22.5562 29.3828C22.1324 29.3828 21.7582 29.6085 21.5068 29.9556C21.9355 30.0744 22.2863 30.4225 22.4524 30.8812C22.5193 31.066 22.5563 31.2687 22.5563 31.4818C22.5562 30.74 23.0044 30.1223 23.6057 29.9556Z" fill="#E1E1E1"/>
<path d="M22.7945 30.9016C22.7945 30.9016 22.7712 31.3014 22.5661 31.4888L22.5575 31.4817C22.3525 31.2943 22.3291 30.8945 22.3291 30.8945L22.7945 30.9016Z" fill="#E1E1E1"/>
<path d="M29.4713 31.0322H21.9713C21.8895 31.0322 21.8232 30.9659 21.8232 30.8842V30.8805C21.8232 30.7986 21.8896 30.7324 21.9713 30.7324H29.4713C29.5531 30.7324 29.6193 30.7987 29.6193 30.8805V30.8842C29.6193 30.9659 29.5531 31.0322 29.4713 31.0322Z" fill="#966446"/>
<path d="M27.2277 31.4827H24.2145C23.8873 31.4827 23.6221 31.2175 23.6221 30.8903V30.8756C23.6221 30.5484 23.8873 30.2832 24.2145 30.2832H27.2277C27.5549 30.2832 27.8201 30.5484 27.8201 30.8756V30.8903C27.82 31.2175 27.5548 31.4827 27.2277 31.4827Z" fill="#BE915A"/>
<path d="M23.0226 30.7324H21.9731C21.8904 30.7324 21.8232 30.7995 21.8232 30.8823C21.8232 30.9651 21.8903 31.0322 21.9731 31.0322H23.0226V30.7324Z" fill="#B9B9B9"/>
<path d="M25.7208 31.4824V34.2221L24.5215 33.8812L25.1211 31.4824H25.7208Z" fill="#FF4B55"/>
<path d="M25.4211 31.4824L24.8214 33.5814L23.6221 33.2815L24.5217 31.4824H25.4211Z" fill="#41479B"/>
<path d="M24.2219 31.4824L23.3223 32.6818L24.2219 32.9816L24.8215 31.4824H24.2219Z" fill="#FFE15A"/>
<path d="M25.7207 31.4824V34.2221L26.92 33.8812L26.3204 31.4824H25.7207Z" fill="#FF4B55"/>
<path d="M26.0205 31.4824L26.6202 33.5814L27.8195 33.2815L26.9199 31.4824H26.0205Z" fill="#41479B"/>
<path d="M27.2197 31.4824L28.1193 32.6818L27.2197 32.9816L26.6201 31.4824H27.2197Z" fill="#FFE15A"/>
<path d="M19.64 24.7702L19.209 24.3358V22.1875H19.64V24.7702Z" fill="#41479B"/>
<path d="M32.2309 24.3358L31.7998 24.7702V22.1875H32.2309V24.3358Z" fill="#41479B"/>
</g>
<defs>
<clipPath id="clip0_3462_31533">
<rect width="50" height="50" fill="white" transform="translate(0.720703 0.601562)"/>
</clipPath>
</defs>
</svg>
