<svg width="51" height="51" viewBox="0 0 51 51" fill="none" xmlns="http://www.w3.org/2000/svg">
<g clip-path="url(#clip0_3462_31528)">
<path d="M50.1474 20.1423H0.147461V10.0848C0.147461 9.60869 0.533495 9.22266 1.00957 9.22266H49.2854C49.7614 9.22266 50.1475 9.60869 50.1475 10.0848L50.1474 20.1423Z" fill="#FF4B55"/>
<path d="M49.2853 41.9801H1.00957C0.533495 41.9801 0.147461 41.594 0.147461 41.1179V31.0605H50.1474V41.1179C50.1474 41.5941 49.7613 41.9801 49.2853 41.9801Z" fill="#464655"/>
<path d="M50.1474 20.1426H0.147461V31.0615H50.1474V20.1426Z" fill="#F5F5F5"/>
<path d="M27.8997 23.8991C27.8997 23.4717 27.4808 23.1697 27.0754 23.305L26.3133 23.559L26.1282 22.4414C26.0176 21.7748 25.4463 21.291 24.7702 21.291H24.0574L23.3119 22.2086H24.2991L24.0228 23.573L23.2188 23.3051C22.8133 23.1698 22.3945 23.4718 22.3945 23.8992V28.5354L23.5042 27.4258L22.9813 28.9942H22.3946V29.9118H27.8998V28.9942H27.3131L26.7902 27.4258L27.8999 28.5354V23.8991H27.8997V23.8991ZM24.6885 28.994H23.9488L24.4574 27.6357L24.6885 27.9307V28.994ZM25.6059 28.994V27.9307L25.8369 27.6357L26.3455 28.994H25.6059ZM25.1472 27.331C25.1472 27.331 23.7278 26.3705 23.7853 24.5785C23.7853 24.5785 24.6599 24.4351 25.1472 23.6609C25.6346 24.4351 26.5092 24.5785 26.5092 24.5785C26.5665 26.3706 25.1472 27.331 25.1472 27.331Z" fill="#F0C727"/>
</g>
<defs>
<clipPath id="clip0_3462_31528">
<rect width="50" height="50" fill="white" transform="translate(0.148438 0.601562)"/>
</clipPath>
</defs>
</svg>
