<svg width="51" height="51" viewBox="0 0 51 51" fill="none" xmlns="http://www.w3.org/2000/svg">
<g clip-path="url(#clip0_3462_31452)">
<path d="M50.4423 20.1423H0.442383V10.0848C0.442383 9.60869 0.828417 9.22266 1.30449 9.22266H49.5803C50.0564 9.22266 50.4424 9.60869 50.4424 10.0848L50.4423 20.1423Z" fill="#41479B"/>
<path d="M49.5802 41.982H1.30449C0.828417 41.982 0.442383 41.596 0.442383 41.1199V31.0625H50.4423V41.1199C50.4423 41.5961 50.0563 41.982 49.5802 41.982Z" fill="#41479B"/>
<path d="M50.4413 20.1426H0.441406V31.0615H50.4413V20.1426Z" fill="#F5F5F5"/>
<path d="M25.421 29.2693C23.3414 29.2693 21.6494 27.5774 21.6494 25.4978C21.6494 24.6094 21.9643 23.7467 22.5361 23.0684L22.7009 23.2072C22.1617 23.8467 21.8648 24.6601 21.8648 25.4978C21.8648 27.4584 23.4601 29.0538 25.4209 29.0538L25.421 29.2693Z" fill="#50AF69"/>
<path d="M24.0413 28.1562C23.9942 28.2366 23.9709 28.347 23.9607 28.459C23.9182 28.4283 23.873 28.3998 23.824 28.3759C23.824 28.3759 23.7499 28.637 23.8078 28.825C23.8078 28.825 23.6112 28.8493 23.4308 29.0304C23.4308 29.0304 23.493 29.0743 23.5997 29.1201C23.4205 29.26 23.3652 29.3982 23.3652 29.3982C24.4228 29.927 24.9297 29.1895 24.9518 29.1563C24.6927 28.4172 24.0413 28.1562 24.0413 28.1562Z" fill="#50AF69"/>
<path d="M24.9512 29.1556C24.9519 29.1576 24.9527 29.1592 24.9534 29.1613V29.1523C24.9534 29.1523 24.9517 29.1548 24.9512 29.1556Z" fill="#50AF69"/>
<path d="M23.0642 27.4512C22.9951 27.5018 22.9352 27.5862 22.8854 27.677C22.8607 27.6355 22.8332 27.595 22.8005 27.5569C22.8005 27.5569 22.6425 27.7499 22.6227 27.9297C22.6227 27.9297 22.448 27.8784 22.2298 27.965C22.2298 27.965 22.2661 28.0248 22.3394 28.1025C22.1372 28.1549 22.04 28.2513 22.04 28.2513C22.7382 29.0838 23.4353 28.6473 23.4659 28.6274C23.5181 27.9092 23.0642 27.4512 23.0642 27.4512Z" fill="#50AF69"/>
<path d="M23.466 28.6269C23.4659 28.6289 23.466 28.6305 23.4658 28.6325L23.4691 28.625C23.4691 28.625 23.4668 28.6264 23.466 28.6269Z" fill="#50AF69"/>
<path d="M22.4587 26.5285C22.3833 26.5444 22.3026 26.5917 22.2283 26.6477C22.2233 26.6045 22.2157 26.561 22.203 26.5176C22.203 26.5176 22.0018 26.6176 21.9188 26.7579C21.9188 26.7579 21.7944 26.651 21.5831 26.6413C21.5831 26.6413 21.5907 26.7039 21.6223 26.7948C21.4368 26.7629 21.3213 26.8061 21.3213 26.8061C21.5862 27.7486 22.3205 27.6483 22.3532 27.6434C22.6616 27.073 22.4587 26.5285 22.4587 26.5285Z" fill="#50AF69"/>
<path d="M22.3528 27.645C22.352 27.6465 22.3515 27.648 22.3506 27.6495L22.356 27.6445C22.3561 27.6446 22.3537 27.6449 22.3528 27.645Z" fill="#50AF69"/>
<path d="M22.2184 25.4798C22.1468 25.4844 22.0635 25.5156 21.9837 25.5554C21.9892 25.5173 21.9922 25.4786 21.9908 25.4395C21.9908 25.4395 21.7867 25.5019 21.68 25.6135C21.68 25.6135 21.5925 25.5058 21.4044 25.4717C21.4044 25.4717 21.397 25.527 21.4044 25.6096C21.2448 25.5595 21.1309 25.5828 21.1309 25.5828C21.1531 26.4326 21.837 26.4345 21.8675 26.4341C22.2762 25.9767 22.2184 25.4798 22.2184 25.4798Z" fill="#50AF69"/>
<path d="M21.8673 26.4336C21.8662 26.4349 21.8654 26.436 21.8643 26.4372L21.8702 26.4336C21.8703 26.4336 21.868 26.4335 21.8673 26.4336Z" fill="#50AF69"/>
<path d="M22.2984 24.6099C22.2372 24.5952 22.1591 24.5998 22.0819 24.6126C22.0963 24.5821 22.1089 24.5504 22.1177 24.5172C22.1177 24.5172 21.9303 24.5168 21.8119 24.5828C21.8119 24.5828 21.7664 24.4697 21.6174 24.3926C21.6174 24.3926 21.5968 24.437 21.5817 24.5083C21.4608 24.425 21.3591 24.4152 21.3591 24.4152C21.158 25.1338 21.7311 25.3123 21.7568 25.3198C22.2182 25.0416 22.2984 24.6099 22.2984 24.6099Z" fill="#50AF69"/>
<path d="M21.7564 25.3184C21.7552 25.3192 21.7542 25.3199 21.7529 25.3206L21.7589 25.3192C21.7589 25.3192 21.7569 25.3185 21.7564 25.3184Z" fill="#50AF69"/>
<path d="M21.8442 23.5517C21.8442 23.5517 21.6488 24.0635 21.9519 24.3599C21.9519 24.3599 22.347 24.2432 22.5424 23.8323L22.3761 23.8009L22.2908 23.5449L22.0079 23.6707L21.8442 23.5517Z" fill="#50AF69"/>
<path d="M22.395 22.7285C22.395 22.7285 22.0888 23.1828 22.3168 23.5401C22.3168 23.5401 22.7282 23.5159 23.0115 23.16L22.8567 23.0918L22.8316 22.8231L22.5276 22.8815L22.395 22.7285Z" fill="#50AF69"/>
<path d="M25.4619 29.2693V29.0538C27.4227 29.0538 29.018 27.4584 29.018 25.4978C29.018 24.6602 28.7211 23.8467 28.1819 23.2072L28.3467 23.0684C28.9186 23.7467 29.2334 24.6094 29.2334 25.4978C29.2334 27.5774 27.5415 29.2693 25.4619 29.2693Z" fill="#50AF69"/>
<path d="M26.8412 28.1562C26.8883 28.2366 26.9116 28.347 26.9218 28.459C26.9644 28.4283 27.0095 28.3998 27.0585 28.3759C27.0585 28.3759 27.1326 28.637 27.0746 28.825C27.0746 28.825 27.2712 28.8493 27.4517 29.0304C27.4517 29.0304 27.3895 29.0743 27.2827 29.1201C27.4619 29.26 27.5172 29.3982 27.5172 29.3982C26.4596 29.927 25.9527 29.1895 25.9307 29.1563C26.1898 28.4172 26.8412 28.1562 26.8412 28.1562Z" fill="#50AF69"/>
<path d="M25.931 29.1556C25.9302 29.1576 25.9294 29.1592 25.9287 29.1613V29.1523C25.9287 29.1523 25.9305 29.1548 25.931 29.1556Z" fill="#50AF69"/>
<path d="M27.8181 27.4512C27.8872 27.5018 27.9471 27.5862 27.9967 27.677C28.0214 27.6355 28.049 27.595 28.0817 27.5569C28.0817 27.5569 28.2397 27.7499 28.2595 27.9297C28.2595 27.9297 28.4341 27.8784 28.6524 27.965C28.6524 27.965 28.6161 28.0248 28.5428 28.1025C28.745 28.1549 28.8421 28.2513 28.8421 28.2513C28.144 29.0838 27.4469 28.6473 27.4163 28.6274C27.3642 27.9092 27.8181 27.4512 27.8181 27.4512Z" fill="#50AF69"/>
<path d="M27.4162 28.6269C27.4163 28.6289 27.4162 28.6305 27.4164 28.6325L27.4131 28.625C27.4131 28.625 27.4153 28.6264 27.4162 28.6269Z" fill="#50AF69"/>
<path d="M28.4239 26.5285C28.4993 26.5444 28.58 26.5917 28.6543 26.6477C28.6593 26.6045 28.6669 26.561 28.6796 26.5176C28.6796 26.5176 28.8809 26.6176 28.9638 26.7579C28.9638 26.7579 29.0882 26.651 29.2995 26.6413C29.2995 26.6413 29.2919 26.7039 29.2603 26.7948C29.4458 26.7629 29.5613 26.8061 29.5613 26.8061C29.2964 27.7486 28.5621 27.6483 28.5294 27.6434C28.221 27.073 28.4239 26.5285 28.4239 26.5285Z" fill="#50AF69"/>
<path d="M28.5295 27.645C28.5304 27.6465 28.5309 27.648 28.5318 27.6495L28.5264 27.6445C28.5263 27.6446 28.5287 27.6449 28.5295 27.645Z" fill="#50AF69"/>
<path d="M28.6639 25.4798C28.7355 25.4844 28.8188 25.5156 28.8986 25.5554C28.8931 25.5173 28.8901 25.4786 28.8915 25.4395C28.8915 25.4395 29.0956 25.5019 29.2023 25.6135C29.2023 25.6135 29.2898 25.5058 29.4779 25.4717C29.4779 25.4717 29.4853 25.527 29.4779 25.6096C29.6375 25.5595 29.7514 25.5828 29.7514 25.5828C29.7292 26.4326 29.0453 26.4345 29.0148 26.4341C28.6061 25.9767 28.6639 25.4798 28.6639 25.4798Z" fill="#50AF69"/>
<path d="M29.0147 26.4336C29.0158 26.4349 29.0166 26.436 29.0178 26.4372L29.0117 26.4336C29.0117 26.4336 29.014 26.4335 29.0147 26.4336Z" fill="#50AF69"/>
<path d="M28.584 24.6099C28.6452 24.5952 28.7232 24.5998 28.8005 24.6126C28.786 24.5821 28.7734 24.5504 28.7646 24.5172C28.7646 24.5172 28.952 24.5168 29.0705 24.5828C29.0705 24.5828 29.116 24.4697 29.2649 24.3926C29.2649 24.3926 29.2855 24.437 29.3007 24.5083C29.4216 24.425 29.5232 24.4152 29.5232 24.4152C29.7244 25.1338 29.1513 25.3123 29.1256 25.3198C28.6642 25.0416 28.584 24.6099 28.584 24.6099Z" fill="#50AF69"/>
<path d="M29.1255 25.3184C29.1267 25.3192 29.1278 25.3199 29.129 25.3206L29.123 25.3192C29.123 25.3192 29.125 25.3185 29.1255 25.3184Z" fill="#50AF69"/>
<path d="M29.038 23.5517C29.038 23.5517 29.2334 24.0635 28.9303 24.3599C28.9303 24.3599 28.5352 24.2432 28.3398 23.8323L28.5061 23.8009L28.5914 23.5449L28.8743 23.6707L29.038 23.5517Z" fill="#50AF69"/>
<path d="M28.4876 22.7285C28.4876 22.7285 28.7937 23.1828 28.5657 23.5401C28.5657 23.5401 28.1544 23.5159 27.8711 23.16L28.0259 23.0918L28.051 22.8231L28.355 22.8815L28.4876 22.7285Z" fill="#50AF69"/>
<path d="M25.4416 27.002L25.1084 27.5018C25.0515 27.5871 25.0627 27.7008 25.1354 27.7733L25.4416 28.0796L25.7479 27.7733C25.8204 27.7008 25.8317 27.5871 25.7748 27.5018L25.4416 27.002Z" fill="#41479B"/>
<path d="M25.5843 27.5018L25.442 27.002L25.2996 27.5018C25.2753 27.5871 25.2801 27.7008 25.3111 27.7733L25.442 28.0796L25.5728 27.7733C25.6038 27.7007 25.6087 27.5871 25.5843 27.5018Z" fill="#F5F5F5"/>
<path d="M25.4426 22.5306V21.1836C25.4426 21.1836 24.9308 21.9199 25.0116 22.9975" fill="#41479B"/>
<path d="M23.147 22.5352C22.4066 24.1422 23.166 25.4644 23.3254 25.7134C23.3296 25.72 24.3827 24.0165 24.3827 24.0165L23.147 22.5352Z" fill="#41479B"/>
<path d="M23.9257 24.7529C23.8089 24.3892 23.792 23.9644 23.9322 23.477L23.474 22.9277C23.0976 23.9422 23.2533 24.6912 23.6302 25.2287C23.7226 25.08 23.8254 24.9145 23.9257 24.7529Z" fill="#F5F5F5"/>
<path d="M24.3645 24.1072C24.3323 24.1072 24.3006 24.0928 24.2793 24.0655L22.928 22.3281C22.8914 22.2811 22.8999 22.2134 22.9469 22.177C22.994 22.1404 23.0615 22.149 23.0981 22.196L24.4493 23.9334C24.4859 23.9803 24.4774 24.048 24.4305 24.0844C24.4108 24.0999 24.3875 24.1072 24.3645 24.1072Z" fill="#FFE15A"/>
<path d="M22.2091 24.2051C21.7781 28.5154 25.2264 27.4378 25.4418 27.0068L23.2867 25.9293L23.7177 25.0672L22.2091 24.2051Z" fill="#41479B"/>
<path d="M23.2516 24.7002L22.6509 24.3398C22.5157 26.9012 23.8835 27.3277 24.8924 27.2006C24.0745 27.0908 23.2573 26.4869 23.2516 24.7002Z" fill="#F5F5F5"/>
<path d="M23.7174 25.1738C23.6978 25.1738 23.6781 25.1685 23.6603 25.1574L21.9363 24.08C21.8859 24.0485 21.8706 23.982 21.9021 23.9317C21.9336 23.8809 22 23.8657 22.0507 23.8974L23.7747 24.9748C23.8251 25.0063 23.8404 25.0728 23.8089 25.1231C23.7884 25.1559 23.7532 25.1738 23.7174 25.1738Z" fill="#FFE15A"/>
<path d="M27.7367 22.5312C28.4771 24.1383 27.7177 25.4605 27.5583 25.7095C27.5541 25.7161 26.501 24.0126 26.501 24.0126L27.7367 22.5312Z" fill="#41479B"/>
<path d="M26.9577 24.749C27.0745 24.3853 27.0914 23.9604 26.9512 23.473L27.4094 22.9238C27.7858 23.9383 27.6301 24.6873 27.2532 25.2248C27.1607 25.0762 27.058 24.9106 26.9577 24.749Z" fill="#F5F5F5"/>
<path d="M26.5188 24.1012C26.4957 24.1012 26.4723 24.0939 26.4527 24.0785C26.4058 24.0421 26.3973 23.9743 26.4339 23.9274L27.7852 22.19C27.8218 22.143 27.8894 22.1347 27.9363 22.1711C27.9833 22.2075 27.9918 22.2753 27.9552 22.3222L26.6039 24.0596C26.5827 24.087 26.5509 24.1012 26.5188 24.1012Z" fill="#FFE15A"/>
<path d="M28.6741 24.2012C29.1052 28.5115 25.6568 27.4339 25.4414 27.0029L27.5966 25.9254L27.1655 25.0633L28.6741 24.2012Z" fill="#41479B"/>
<path d="M27.632 24.6963L28.2327 24.3359C28.3679 26.8973 27.0001 27.3238 25.9912 27.1967C26.8091 27.0869 27.6263 26.4831 27.632 24.6963Z" fill="#F5F5F5"/>
<path d="M27.1665 25.17C27.1306 25.17 27.0955 25.1521 27.075 25.1192C27.0434 25.0689 27.0589 25.0024 27.1092 24.9709L28.8332 23.8935C28.8839 23.8617 28.9502 23.8771 28.9817 23.9278C29.0132 23.9781 28.9979 24.0446 28.9475 24.0761L27.2235 25.1535C27.2057 25.1647 27.186 25.17 27.1665 25.17Z" fill="#FFE15A"/>
<path d="M25.4422 25.2789C25.9183 25.2789 26.3043 24.8929 26.3043 24.4168C26.3043 23.9407 25.9183 23.5547 25.4422 23.5547C24.9661 23.5547 24.5801 23.9407 24.5801 24.4168C24.5801 24.8929 24.9661 25.2789 25.4422 25.2789Z" fill="#FFE6E6"/>
<path d="M25.4418 24.8465C25.6799 24.8465 25.8729 24.6535 25.8729 24.4154C25.8729 24.1774 25.6799 23.9844 25.4418 23.9844C25.2037 23.9844 25.0107 24.1774 25.0107 24.4154C25.0107 24.6535 25.2037 24.8465 25.4418 24.8465Z" fill="#F5F5F5"/>
<path d="M25.442 25.8171C25.3823 25.8171 25.334 25.7689 25.334 25.7094V24.4163C25.334 24.3567 25.3823 24.3086 25.442 24.3086C25.5017 24.3086 25.55 24.3567 25.55 24.4163V25.7094C25.55 25.7689 25.5017 25.8171 25.442 25.8171Z" fill="#FFE15A"/>
<path d="M28.3874 26.9848H22.6133L23.2868 25.7031H27.6151L28.3874 26.9848Z" fill="#5AA0E6"/>
<path d="M25.6172 25.9432H27.1188L26.6518 25.4761C26.6298 25.4541 26.6029 25.4375 26.5735 25.4277L26.4109 25.3735C26.3523 25.354 26.288 25.3627 26.2366 25.3969L25.7175 25.743L25.6172 25.9432Z" fill="#FFB750"/>
<path d="M25.1064 26.0242H26.8987L26.3412 25.4666C26.315 25.4405 26.283 25.4206 26.2478 25.4089L26.0537 25.3443C25.9838 25.321 25.9069 25.3312 25.8456 25.3722L25.226 25.7854L25.1064 26.0242Z" fill="#FFC455"/>
<path d="M24.4834 26.1132H26.6478L25.9745 25.44C25.9429 25.4083 25.9043 25.3845 25.8617 25.3703L25.6273 25.2921C25.5429 25.264 25.4501 25.2764 25.3761 25.3257L24.6278 25.8246L24.4834 26.1132Z" fill="#FFCD55"/>
<path d="M23.8662 26.1935H26.3443L25.5734 25.4226C25.5371 25.3863 25.493 25.359 25.4442 25.3427L25.1759 25.2533C25.0791 25.221 24.9729 25.2353 24.8881 25.2918L24.0312 25.863L23.8662 26.1935Z" fill="#FFD25A"/>
<path d="M22.8555 26.3559H26.0882L25.0826 25.3503C25.0353 25.3031 24.9776 25.2673 24.9141 25.2462L24.5641 25.1295C24.4379 25.0875 24.2993 25.106 24.1887 25.1798L23.071 25.9248L22.8555 26.3559Z" fill="#FFE15A"/>
<path d="M25.6749 24.6101H25.209L25.3163 24.1602H25.4782C25.5307 24.1602 25.5763 24.1962 25.5885 24.2473L25.6749 24.6101Z" fill="#FF4B55"/>
<path d="M25.6482 24.6816H25.2299C25.1956 24.6816 25.168 24.6539 25.168 24.6197V24.599C25.168 24.5647 25.1958 24.5371 25.2299 24.5371H25.6482C25.6825 24.5371 25.7102 24.5649 25.7102 24.599V24.6197C25.7102 24.6538 25.6823 24.6816 25.6482 24.6816Z" fill="#FF4B55"/>
<path d="M25.3723 24.3649L25.2675 24.3385C25.2358 24.3305 25.2221 24.2934 25.241 24.2668L25.3169 24.1602L25.3723 24.3649Z" fill="#FF4B55"/>
<path d="M24.904 23.3086C24.8989 23.3481 24.8938 23.3878 24.8887 23.4273C25.0562 23.3257 25.2409 23.2647 25.4416 23.2647C25.6421 23.2649 25.827 23.3255 25.9945 23.4273C25.9895 23.3877 25.9843 23.3481 25.9792 23.3086C25.8126 23.2217 25.6333 23.1717 25.4416 23.1719C25.25 23.1717 25.0707 23.2216 24.904 23.3086Z" fill="#41479B"/>
<path d="M24.9108 23.2584C24.9058 23.2979 24.9006 23.3376 24.8955 23.3771C25.0611 23.2753 25.2437 23.2143 25.4417 23.214C25.6397 23.2142 25.8223 23.2752 25.9879 23.3771C25.9828 23.3375 25.9776 23.2979 25.9726 23.2584C25.8078 23.1708 25.6309 23.1212 25.4416 23.1211C25.2525 23.1211 25.0756 23.171 24.9108 23.2584Z" fill="#5AA0E6"/>
<path d="M24.9167 23.2101C24.9116 23.2496 24.9064 23.2893 24.9014 23.3288C25.0653 23.2267 25.2458 23.1651 25.4414 23.1652C25.6371 23.1652 25.8175 23.2267 25.9814 23.3288C25.9764 23.2893 25.9712 23.2496 25.9661 23.2101C25.8032 23.1226 25.6283 23.0724 25.4413 23.0723C25.2547 23.0722 25.0798 23.1225 24.9167 23.2101Z" fill="#9BC800"/>
<path d="M24.9245 23.156C24.9194 23.1956 24.9143 23.2352 24.9092 23.2747C25.0713 23.1723 25.2492 23.1105 25.4423 23.1105C25.6353 23.1107 25.8133 23.1721 25.9754 23.2747C25.9703 23.2352 25.9651 23.1955 25.9601 23.156C25.799 23.0681 25.6267 23.0177 25.4424 23.0176C25.2579 23.0178 25.0855 23.0681 24.9245 23.156Z" fill="#FFE14E"/>
<path d="M24.9313 23.1018C24.9263 23.1413 24.9211 23.181 24.916 23.2205C25.0763 23.1177 25.2517 23.056 25.4421 23.0559C25.6325 23.0561 25.808 23.1176 25.9682 23.2205C25.9631 23.181 25.9579 23.1413 25.9528 23.1018C25.7937 23.0136 25.6237 22.963 25.4421 22.9629C25.2604 22.9631 25.0903 23.0135 24.9313 23.1018Z" fill="#FFB14E"/>
<path d="M24.9335 23.0786C24.93 23.1063 24.9264 23.1341 24.9229 23.1618C25.081 23.0589 25.254 22.9965 25.4415 22.9965C25.629 22.9964 25.802 23.0587 25.9602 23.1618C25.9566 23.1341 25.953 23.1063 25.9495 23.0786C25.7913 22.9903 25.6223 22.9396 25.4416 22.9395C25.2608 22.9393 25.0917 22.9902 24.9335 23.0786Z" fill="#FF4B55"/>
<path d="M28.4586 27.1093H22.4241C22.3844 27.1093 22.3479 27.0874 22.3291 27.0524C22.3104 27.0173 22.3125 26.9747 22.3345 26.9418L25.3518 22.4159C25.3917 22.3562 25.4911 22.3562 25.5311 22.4159L28.5483 26.9418C28.5703 26.9749 28.5725 27.0174 28.5537 27.0524C28.5349 27.0874 28.4983 27.1093 28.4586 27.1093ZM22.6254 26.8937H28.2573L25.4413 22.67L22.6254 26.8937Z" fill="#FFE15A"/>
<path d="M25.442 21.5059C25.3823 21.5059 25.334 21.4577 25.334 21.3981V20.9671C25.334 20.9075 25.3823 20.8594 25.442 20.8594C25.5017 20.8594 25.55 20.9075 25.55 20.9671V21.3981C25.55 21.4577 25.5017 21.5059 25.442 21.5059Z" fill="#FFE15A"/>
<path d="M25.6569 21.5064H25.2259C25.1663 21.5064 25.1182 21.4583 25.1182 21.3987C25.1182 21.3392 25.1663 21.291 25.2259 21.291H25.6569C25.7165 21.291 25.7647 21.3392 25.7647 21.3987C25.7647 21.4583 25.7165 21.5064 25.6569 21.5064Z" fill="#FFE15A"/>
<path d="M25.4418 29.2656C25.434 29.2656 25.426 29.2647 25.4184 29.2632C25.3129 29.2396 24.961 29.1552 24.8572 29.0523C24.7253 28.9214 24.7247 28.7078 24.8553 28.5759C24.9188 28.5121 25.0032 28.4768 25.0931 28.4766H25.0943C25.1838 28.4766 25.268 28.5112 25.3316 28.5744C25.4354 28.6775 25.5224 29.0286 25.5466 29.1338C25.5549 29.1698 25.5442 29.2077 25.5181 29.234C25.4978 29.2544 25.4702 29.2656 25.4418 29.2656ZM25.0943 28.6919C25.0656 28.7014 25.0311 28.7047 25.0082 28.7276C24.9611 28.7749 24.9614 28.852 25.0089 28.8992C25.035 28.9246 25.1515 28.9688 25.2912 29.0085C25.2503 28.8693 25.2055 28.7532 25.1797 28.7271L25.2556 28.6508L25.1796 28.7271C25.1568 28.7043 25.1265 28.6919 25.0943 28.6919Z" fill="#41479B"/>
<path d="M25.4427 29.2658C25.4143 29.2658 25.3866 29.2546 25.3662 29.234C25.3402 29.2077 25.3294 29.1697 25.3377 29.1338C25.3619 29.0285 25.449 28.6775 25.5527 28.5744C25.6166 28.511 25.6927 28.4823 25.7912 28.4766C25.8812 28.4768 25.9655 28.5121 26.0289 28.5759C26.1599 28.7079 26.159 28.9215 26.0273 29.0521C25.9233 29.1553 25.5714 29.2396 25.4659 29.2633C25.4584 29.2649 25.4504 29.2658 25.4427 29.2658ZM25.6288 28.6509L25.7047 28.7272C25.6789 28.7533 25.6341 28.8695 25.5933 29.0086C25.7329 28.9688 25.8494 28.9249 25.8756 28.8991C25.9229 28.8521 25.9232 28.7752 25.8762 28.7278C25.8534 28.7049 25.8231 28.6921 25.7906 28.6921H25.7902C25.758 28.6921 25.7277 28.7045 25.7049 28.7272L25.6288 28.6509ZM25.6288 28.6509H25.631H25.6288Z" fill="#41479B"/>
<path d="M25.012 29.9129C24.9524 29.9129 24.9043 29.8648 24.9043 29.8052C24.9043 29.3132 25.3749 29.0723 25.3949 29.0622C25.4484 29.0355 25.5126 29.0573 25.5393 29.1102C25.566 29.1632 25.5446 29.2278 25.4917 29.2548C25.4879 29.2568 25.1199 29.4478 25.1199 29.8051C25.1198 29.8648 25.0716 29.9129 25.012 29.9129Z" fill="#41479B"/>
<path d="M25.8735 29.9128C25.8139 29.9128 25.7658 29.8647 25.7658 29.8051C25.7658 29.4478 25.3978 29.2566 25.394 29.2548C25.3411 29.2278 25.3198 29.1632 25.3465 29.1102C25.3733 29.0573 25.4374 29.0355 25.4908 29.0622C25.5108 29.0724 25.9814 29.3131 25.9814 29.8052C25.9812 29.8647 25.9331 29.9128 25.8735 29.9128Z" fill="#41479B"/>
</g>
<defs>
<clipPath id="clip0_3462_31452">
<rect width="50" height="50" fill="white" transform="translate(0.441406 0.601562)"/>
</clipPath>
</defs>
</svg>
