<svg width="51" height="51" viewBox="0 0 51 51" fill="none" xmlns="http://www.w3.org/2000/svg">
<g clip-path="url(#clip0_3462_31433)">
<path d="M50.163 20.1423H0.163086V10.0848C0.163086 9.60869 0.54912 9.22266 1.02519 9.22266H49.301C49.7771 9.22266 50.1631 9.60869 50.1631 10.0848L50.163 20.1423Z" fill="#73AF00"/>
<path d="M49.3009 41.9801H1.02519C0.54912 41.9801 0.163086 41.594 0.163086 41.1179V31.0605H50.163V41.1179C50.163 41.5941 49.777 41.9801 49.3009 41.9801Z" fill="#FF4B55"/>
<path d="M50.163 20.1426H0.163086V31.0615H50.163V20.1426Z" fill="#F5F5F5"/>
<path d="M12.6723 26.1364C12.9196 25.8232 12.9196 25.3812 12.6723 25.068L0.391113 9.51172C0.25293 9.66465 0.163086 9.86269 0.163086 10.085V41.1194C0.163086 41.3416 0.25293 41.5398 0.391113 41.6926L12.6723 26.1364Z" fill="#4173CD"/>
<path d="M24.9555 26.3736C24.9555 26.3947 24.9485 28.4213 24.4303 29.4183H25.8866C25.3683 28.4214 25.3614 26.3947 25.3614 26.3736C25.3614 25.6754 26.0852 25.1205 26.0925 25.115L25.8486 24.7906C25.8297 24.8049 25.5885 24.9897 25.3615 25.29V24.75H24.9556V25.29C24.7286 24.9897 24.4875 24.8048 24.4685 24.7906L24.2246 25.115C24.2319 25.1205 24.9555 25.6753 24.9555 26.3736Z" fill="#B46446"/>
<path d="M27.189 23.9367C27.1765 23.9367 27.1651 23.9399 27.1528 23.9407C27.0701 23.7026 26.8462 23.5308 26.58 23.5308C26.484 23.5308 26.3944 23.555 26.3137 23.5945C26.2276 23.4364 26.0622 23.3278 25.8696 23.3278C25.8142 23.3278 25.762 23.339 25.7121 23.3553C25.6041 23.1005 25.3518 22.9219 25.0578 22.9219C24.6964 22.9219 24.4014 23.1928 24.3565 23.5419C24.3202 23.5362 24.2838 23.5308 24.246 23.5308C23.8536 23.5308 23.5355 23.8488 23.5355 24.2412C23.5355 24.2873 23.5407 24.3321 23.5491 24.3758C23.3693 24.435 23.2279 24.5739 23.1658 24.7522C23.1537 24.7512 23.142 24.7485 23.1296 24.7485C22.9054 24.7485 22.7236 24.9304 22.7236 25.1545C22.7236 25.3787 22.9055 25.5604 23.1296 25.5604C23.2331 25.5604 23.3267 25.5205 23.3983 25.4565C23.4954 25.5221 23.6125 25.5604 23.7386 25.5604C23.8501 25.5604 23.9531 25.5283 24.043 25.476C24.1328 25.5282 24.2359 25.5604 24.3474 25.5604C24.6837 25.5604 24.9563 25.2878 24.9563 24.9515C24.9563 24.9257 24.9518 24.9013 24.9488 24.8764C25.0434 24.9229 25.1482 24.9515 25.2609 24.9515C25.4021 24.9515 25.5328 24.9091 25.6434 24.8381C25.7472 25.0258 25.9446 25.1544 26.1743 25.1544C26.2236 25.1544 26.2711 25.147 26.317 25.1358C26.4287 25.2701 26.5949 25.3574 26.7832 25.3574C26.9651 25.3574 27.1266 25.2761 27.2382 25.1495C27.5511 25.1242 27.7981 24.865 27.7981 24.5455C27.7978 24.2094 27.5253 23.9367 27.189 23.9367Z" fill="#73AF00"/>
<path d="M26.5795 24.4449C26.5795 24.4238 26.5839 24.4039 26.5857 24.3833C26.4771 24.4837 26.3332 24.5465 26.1735 24.5465C25.9614 24.5465 25.7752 24.4379 25.6661 24.2734C25.557 24.4379 25.3707 24.5465 25.1587 24.5465C24.9956 24.5465 24.8484 24.4815 24.7391 24.3771C24.6758 24.7047 24.3883 24.9523 24.0423 24.9523C24.0071 24.9523 23.9735 24.947 23.9398 24.942C23.9399 24.9455 23.9409 24.9488 23.9409 24.9523C23.9409 25.2178 23.7701 25.4411 23.5332 25.5245C23.5974 25.5475 23.6658 25.5612 23.738 25.5612C23.8495 25.5612 23.9525 25.5291 24.0424 25.4768C24.1322 25.529 24.2353 25.5612 24.3468 25.5612C24.6831 25.5612 24.9558 25.2886 24.9558 24.9522C24.9558 24.9265 24.9513 24.9021 24.9482 24.8771C25.0428 24.9237 25.1477 24.9522 25.2603 24.9522C25.4016 24.9522 25.5322 24.9099 25.6428 24.8389C25.7466 25.0266 25.944 25.1552 26.1737 25.1552C26.223 25.1552 26.2705 25.1478 26.3164 25.1366C26.4281 25.2709 26.5943 25.3582 26.7825 25.3582C26.9644 25.3582 27.126 25.2769 27.2375 25.1503L27.2388 25.1501C26.8707 25.1233 26.5795 24.8197 26.5795 24.4449Z" fill="#5FA000"/>
<path d="M25.1587 30.712C25.1261 30.712 25.0972 30.6912 25.0865 30.6605C25.0788 30.6377 24.8877 30.1033 24.1438 30.1033H23.129C22.5273 30.1033 22.0381 29.6139 22.0381 29.0124V22.3144C22.0381 22.2724 22.0722 22.2383 22.1142 22.2383H28.4062C28.4482 22.2383 28.4823 22.2724 28.4823 22.3144V29.0124C28.4823 29.6141 27.9929 30.1033 27.3914 30.1033H26.1735C25.4252 30.1033 25.2327 30.6545 25.231 30.6601C25.2205 30.6913 25.1916 30.7121 25.1589 30.7121L25.1587 30.712ZM22.1901 22.3902V29.0122C22.1901 29.5298 22.6112 29.951 23.1289 29.951H24.1437C24.7462 29.951 25.0378 30.2745 25.1586 30.4688C25.2794 30.2743 25.571 29.951 26.1734 29.951H27.3913C27.909 29.951 28.3301 29.5298 28.3301 29.0122V22.3902H22.1901Z" fill="#464655"/>
<path d="M24.3788 20.5039L24.5718 20.8126L24.9355 20.8252L24.7646 21.1466L24.9355 21.468L24.5718 21.4806L24.3788 21.7894L24.186 21.4806L23.8223 21.468L23.9932 21.1466L23.8223 20.8252L24.186 20.8126L24.3788 20.5039Z" fill="#FFE15A"/>
<path d="M22.6644 20.7832L22.924 21.0383L23.2807 20.9656L23.1895 21.318L23.4308 21.5906L23.08 21.6878L22.9646 22.033L22.705 21.7778L22.3483 21.8506L22.4395 21.4981L22.1982 21.2256L22.549 21.1284L22.6644 20.7832Z" fill="#FFE15A"/>
<path d="M21.0188 21.2715L21.3274 21.4646L21.66 21.3166L21.6471 21.6804L21.9415 21.8944L21.62 22.0651L21.5818 22.4271L21.2732 22.234L20.9407 22.382L20.9536 22.0183L20.6592 21.8042L20.9807 21.6335L21.0188 21.2715Z" fill="#FFE15A"/>
<path d="M25.9444 20.5039L25.7515 20.8126L25.3877 20.8252L25.5587 21.1466L25.3877 21.468L25.7515 21.4806L25.9444 21.7894L26.1372 21.4806L26.501 21.468L26.3301 21.1466L26.501 20.8252L26.1372 20.8126L25.9444 20.5039Z" fill="#FFE15A"/>
<path d="M27.659 20.7832L27.3993 21.0383L27.0427 20.9656L27.1339 21.318L26.8926 21.5906L27.2434 21.6878L27.3587 22.033L27.6184 21.7778L27.975 21.8506L27.8839 21.4981L28.1251 21.2256L27.7743 21.1284L27.659 20.7832Z" fill="#FFE15A"/>
<path d="M29.3045 21.2715L28.9959 21.4646L28.6634 21.3166L28.6763 21.6804L28.3818 21.8944L28.7033 22.0651L28.7415 22.4271L29.0501 22.234L29.3826 22.382L29.3697 22.0183L29.6642 21.8042L29.3427 21.6335L29.3045 21.2715Z" fill="#FFE15A"/>
</g>
<defs>
<clipPath id="clip0_3462_31433">
<rect width="50" height="50" fill="white" transform="translate(0.162109 0.601562)"/>
</clipPath>
</defs>
</svg>
