<svg width="51" height="51" viewBox="0 0 51 51" fill="none" xmlns="http://www.w3.org/2000/svg">
<g clip-path="url(#clip0_3462_31428)">
<path d="M50.5897 25.602H0.589844V10.0848C0.589844 9.60869 0.975878 9.22266 1.45195 9.22266H49.7277C50.2038 9.22266 50.5898 9.60869 50.5898 10.0848L50.5897 25.602Z" fill="#73AF00"/>
<path d="M0.589844 25.6016H50.5897V41.1188C50.5897 41.5949 50.2037 41.9809 49.7276 41.9809H1.45195C0.975878 41.9809 0.589844 41.5949 0.589844 41.1188V25.6016Z" fill="#4173CD"/>
<path d="M0.589844 10.0851V41.1195C0.589844 41.4312 0.764062 41.692 1.01182 41.8433L50.5897 25.6023L1.01182 9.36133C0.763965 9.5127 0.589844 9.77334 0.589844 10.0851Z" fill="#FF4B55"/>
<path d="M19.0281 30.5226C19.0281 30.5226 21.456 29.6372 22.1416 26.9807C22.1416 26.9807 21.0846 28.3518 20.342 28.7517C20.342 28.7517 21.9701 26.5808 21.6273 24.4672C21.6273 24.4672 21.4273 25.3241 21.0274 25.6669C21.0274 25.6669 21.7416 22.6105 20.8274 21.3252C20.8274 21.3252 20.8559 22.4106 20.4561 23.4961C20.4561 23.4961 20.6085 20.0588 19.0469 19.1829C19.0469 19.1829 19.6563 20.2684 19.3992 21.1823C19.3992 21.1823 18.9708 19.2399 16.9807 18.4687C16.9807 18.4687 16.8569 18.6115 16.8855 19.04C16.8855 19.04 16.3429 18.383 15.0003 18.4116C15.0003 18.4116 15.0288 18.8972 15.3716 19.3542C15.3716 19.3542 14.8289 19.6398 14.4861 19.5542C14.4861 19.5542 15.0288 20.1541 16.9426 20.0969C16.9426 20.0969 16.6854 20.3254 16.1714 20.3825C16.1714 20.3825 16.9532 20.7416 17.7233 20.8109C18.7802 20.906 19.1992 21.5251 19.3991 22.2963C19.3991 22.2963 18.5708 21.8107 18.2565 21.3251C18.2565 21.3251 18.1994 22.1534 19.7704 23.753L18.9706 23.4102C18.9706 23.4102 19.4847 24.8956 20.1132 26.5808L19.4561 25.8667C19.4561 25.8667 19.3134 27.0664 19.199 29.2944L18.742 28.2375C18.742 28.2375 17.9422 30.8654 16.7139 31.2938C15.7524 31.6293 14.6889 31.8589 14.2711 31.9431C14.2319 30.4729 14.8573 30.1512 14.8573 30.1512C15.9713 30.2084 16.2284 28.9802 16.2284 28.9802C15.9999 29.2087 15.5714 29.2087 15.5714 29.2087C16.2284 28.5231 16.2284 27.552 16.2284 27.552C15.8285 28.3232 15.2001 28.4375 15.2001 28.4375L15.2572 27.6663C14.0954 28.5112 14.1783 29.5008 14.1975 29.6458C14.1714 29.4608 13.9644 28.0137 13.8576 27.6663C13.7433 27.295 14.0004 26.5523 14.4003 26.6665C15.6947 27.0363 15.9999 26.0953 15.9999 26.0953C15.3143 26.4096 14.9144 26.1809 14.9144 26.1809C15.7999 25.324 15.4286 24.5243 15.4286 24.5243C15.143 25.3526 14.3431 25.4955 14.3431 25.4955L14.3146 24.5815C13.9433 24.7815 13.6005 25.667 13.6005 25.667C13.6005 25.667 13.5148 24.9528 13.7718 24.3244C14.0289 23.696 14.6857 24.0101 14.6857 24.0101C15.8568 24.2387 16.2282 23.1247 16.2282 23.1247L15.457 23.239C16.3139 22.6105 16.0569 21.8393 16.0569 21.8393C15.8569 22.3248 15.143 22.4105 15.143 22.4105L15.4857 21.4966C14.743 21.4966 14.3146 22.4678 14.3146 22.4678L14.2575 21.5252C14.6003 20.297 13.8005 19.7542 13.8005 19.7542C13.6292 19.9827 13.7148 20.4684 13.7148 20.4684C13.0007 19.8399 12.458 20.5826 12.458 20.5826C13.0007 21.1539 13.5149 21.0968 13.5149 21.0968C13.3436 21.211 12.7151 21.2681 12.7151 21.2681C13.4293 21.868 13.8291 21.7536 13.8291 21.7536C14.1719 23.2104 13.2578 23.8674 13.2578 23.8674C13.0865 22.7819 12.4295 22.2678 12.4295 22.2678L12.458 22.9819C12.0296 22.7248 11.6868 21.9536 11.6868 21.9536C11.4012 23.0391 12.1724 23.9816 12.1724 23.9816L11.4582 23.9245C12.0866 25.3813 13.0863 24.9243 13.0863 24.9243C13.0007 25.9526 13.3434 27.6379 13.3434 27.6379C13.2007 27.4666 11.6868 26.0383 11.6868 26.0383C11.6297 26.6095 12.1724 27.3521 12.1724 27.3521C11.8867 27.295 11.0584 26.6666 11.0584 26.6666C11.144 27.5805 12.3437 28.1805 12.3437 28.1805C11.8867 28.2376 11.0012 27.7234 11.0012 27.7234C11.5153 29.9228 13.4005 28.9516 13.4005 28.9516L13.5451 31.9266C13.1469 31.831 12.2761 31.6091 11.3724 31.2939C10.1442 30.8655 9.34443 28.2376 9.34443 28.2376L8.8874 29.2945C8.77314 27.0665 8.63027 25.8668 8.63027 25.8668L7.97324 26.5809C8.60165 24.8957 9.11581 23.4103 9.11581 23.4103L8.31601 23.7531C9.88759 22.1533 9.83036 21.325 9.83036 21.325C9.51611 21.8105 8.68779 22.2962 8.68779 22.2962C8.88779 21.525 9.51611 20.7252 10.2874 20.6681C11.0587 20.6109 11.9155 20.3824 11.9155 20.3824C11.4014 20.3253 11.1443 20.0968 11.1443 20.0968C13.3723 19.8968 13.6008 19.297 13.6008 19.297C13.258 19.3826 12.2011 19.2685 12.2011 19.2685C13.0865 18.7829 14.5433 18.3259 14.5433 18.3259C12.7437 18.0116 11.2014 19.04 11.2014 19.04C11.4585 18.5545 11.9155 18.0117 11.9155 18.0117C9.71611 18.9829 8.68769 21.1823 8.68769 21.1823C8.43056 20.2684 9.03993 19.1828 9.03993 19.1828C7.47841 20.0588 7.63076 23.496 7.63076 23.496C7.23086 22.4105 7.25947 21.3251 7.25947 21.3251C6.34551 22.6104 7.05947 25.6668 7.05947 25.6668C6.65957 25.324 6.45957 24.4671 6.45957 24.4671C6.1168 26.5808 7.74492 28.7516 7.74492 28.7516C7.00224 28.3517 5.94531 26.9806 5.94531 26.9806C6.63086 29.6371 9.05878 30.5225 9.05878 30.5225C7.71621 30.0084 7.14502 30.4369 7.14502 30.4369C8.08759 30.6369 9.00165 31.2081 9.74433 31.7508C10.487 32.2934 11.4868 32.4078 12.3723 32.5219C12.7381 32.5691 13.0412 32.6306 13.276 32.6869C12.792 32.9237 12.458 33.4195 12.458 33.9946H15.3716C15.3716 33.4412 15.063 32.9598 14.6084 32.7133C14.901 32.6507 15.2907 32.5765 15.7143 32.5218C16.5998 32.4076 17.5249 32.1725 18.3423 31.7507C19.2277 31.2936 19.9989 30.6367 20.9416 30.4368C20.9419 30.437 20.3705 30.0087 19.0281 30.5226Z" fill="#FFE15A"/>
</g>
<defs>
<clipPath id="clip0_3462_31428">
<rect width="50" height="50" fill="white" transform="translate(0.589844 0.601562)"/>
</clipPath>
</defs>
</svg>
