<svg width="51" height="51" viewBox="0 0 51 51" fill="none" xmlns="http://www.w3.org/2000/svg">
<g clip-path="url(#clip0_3462_31416)">
<path d="M50.3105 20.4118H0.310547V10.3543C0.310547 9.87822 0.696581 9.49219 1.17265 9.49219H49.4484C49.9245 9.49219 50.3105 9.87822 50.3105 10.3543L50.3105 20.4118Z" fill="#73AF00"/>
<path d="M49.4483 42.2496H1.17265C0.696581 42.2496 0.310547 41.8635 0.310547 41.3875V31.3301H50.3105V41.3875C50.3105 41.8636 49.9244 42.2496 49.4483 42.2496Z" fill="#FF4B55"/>
<path d="M50.3105 20.4121H0.310547V31.331H50.3105V20.4121Z" fill="#FFE15A"/>
<path d="M35.6562 25.8817C35.6562 31.5874 31.0239 36.2279 25.31 36.2279C19.5962 36.2279 14.9639 31.5874 14.9639 25.8817C14.9639 20.1597 19.5962 15.5273 25.31 15.5273C31.0239 15.5273 35.6562 20.1597 35.6562 25.8817Z" fill="#4173CD"/>
<path d="M17.4414 23.2803H23.4527L24.813 19.094L25.1742 20.2169L23.1988 26.3024L22.6103 25.8731L23.2257 23.9823H18.3911L17.4414 23.2803ZM20.4449 32.5366L22.3028 26.8227L18.7421 24.2299H19.9165L25.0918 27.987L24.5035 28.4163L22.8913 27.2437L21.3947 31.8512L20.4449 32.5366ZM30.176 32.5366L25.3105 29.0027L21.7518 31.5871L22.1151 30.4807L27.2862 26.7153L27.5071 27.4089L25.8989 28.5732L29.8107 31.422L30.176 32.5366ZM33.1795 23.2803L28.318 26.8226L29.6785 31.0091L28.7289 30.3153L26.7554 24.2298H27.4779L28.093 26.129L32.0069 23.2802H33.1794V23.2803H33.1795ZM25.3105 17.5664L27.1684 23.2803H31.5716L30.6199 23.9823H24.2247L24.4498 23.2803H26.4437L24.9472 18.6811L25.3105 17.5664Z" fill="#F2DD30"/>
<path d="M25.4841 34.1554H25.1393V29.6719H25.4841V34.1554ZM33.1282 28.5899L28.8654 27.211L28.9728 26.889L33.2377 28.268L33.1282 28.5899ZM17.4912 28.5899L17.3838 28.268L21.6506 26.889L21.756 27.211L17.4912 28.5899ZM27.6827 22.909L27.4017 22.7109L30.038 19.0859L30.3126 19.2842L27.6827 22.909ZM22.9451 22.909L20.3047 19.2842L20.5835 19.0859L23.2176 22.7109L22.9451 22.909Z" fill="#F2DD30"/>
</g>
<defs>
<clipPath id="clip0_3462_31416">
<rect width="50" height="50" fill="white" transform="translate(0.310547 0.871094)"/>
</clipPath>
</defs>
</svg>
