<svg width="50" height="51" viewBox="0 0 50 51" fill="none" xmlns="http://www.w3.org/2000/svg">
<g clip-path="url(#clip0_3462_31401)">
<path d="M49.1378 42.2762H0.862108C0.386034 42.2762 0 41.8902 0 41.4141V10.3797C0 9.90361 0.386034 9.51758 0.862108 9.51758H49.1379C49.614 9.51758 50 9.90361 50 10.3797V41.4141C49.9999 41.8903 49.6139 42.2762 49.1378 42.2762Z" fill="#41479B"/>
<path d="M25.3502 13.2686L25.6959 14.305L26.7884 14.3135C26.9299 14.3146 26.9885 14.4951 26.8747 14.5791L25.9958 15.2282L26.3253 16.2698C26.3679 16.4045 26.2144 16.5163 26.0993 16.4339L25.2105 15.7986L24.3218 16.4339C24.2067 16.5162 24.0531 16.4046 24.0958 16.2698L24.4253 15.2282L23.5464 14.5791C23.4326 14.4951 23.4912 14.3146 23.6327 14.3135L24.7252 14.305L25.0709 13.2686C25.1155 13.1344 25.3054 13.1344 25.3502 13.2686Z" fill="#FFE15A"/>
<path d="M25.3502 35.5206L25.6959 36.557L26.7884 36.5655C26.9299 36.5665 26.9885 36.747 26.8747 36.8311L25.9958 37.4801L26.3253 38.5217C26.3679 38.6565 26.2144 38.7682 26.0993 38.6859L25.2105 38.0505L24.3218 38.6859C24.2067 38.7681 24.0531 38.6566 24.0958 38.5217L24.4253 37.4801L23.5464 36.8311C23.4326 36.747 23.4912 36.5665 23.6327 36.5655L24.7252 36.557L25.0709 35.5206C25.1155 35.3864 25.3054 35.3864 25.3502 35.5206Z" fill="#FFE15A"/>
<path d="M36.4761 24.3956L36.8219 25.432L37.9143 25.4405C38.0558 25.4416 38.1144 25.622 38.0007 25.7061L37.1218 26.3551L37.4512 27.3967C37.4939 27.5315 37.3404 27.6432 37.2253 27.5609L36.3365 26.9255L35.4477 27.5609C35.3327 27.6431 35.1791 27.5316 35.2218 27.3967L35.5512 26.3551L34.6723 25.7061C34.5586 25.622 34.6172 25.4416 34.7587 25.4405L35.8511 25.432L36.1969 24.3956C36.2415 24.2614 36.4314 24.2614 36.4761 24.3956Z" fill="#FFE15A"/>
<path d="M14.2242 24.3956L14.5699 25.432L15.6624 25.4405C15.8039 25.4416 15.8625 25.622 15.7487 25.7061L14.8698 26.3551L15.1993 27.3967C15.242 27.5315 15.0885 27.6432 14.9733 27.5609L14.0845 26.9255L13.1958 27.5609C13.0807 27.6431 12.9271 27.5316 12.9698 27.3967L13.2993 26.3551L12.4204 25.7061C12.3066 25.622 12.3652 25.4416 12.5067 25.4405L13.5992 25.432L13.9449 24.3956C13.9896 24.2614 14.1796 24.2614 14.2242 24.3956Z" fill="#FFE15A"/>
<path d="M15.8951 18.585L16.2408 19.6214L17.3333 19.6299C17.4748 19.631 17.5334 19.8115 17.4196 19.8956L16.5407 20.5446L16.8702 21.5862C16.9129 21.7209 16.7594 21.8327 16.6442 21.7503L15.7554 21.115L14.8667 21.7503C14.7516 21.8326 14.598 21.721 14.6407 21.5862L14.9702 20.5446L14.0913 19.8956C13.9775 19.8115 14.0361 19.631 14.1776 19.6299L15.2701 19.6214L15.6158 18.585C15.6605 18.4508 15.8503 18.4508 15.8951 18.585Z" fill="#FFE15A"/>
<path d="M35.1656 29.71L35.5113 30.7464L36.6038 30.7549C36.7453 30.756 36.8039 30.9365 36.6901 31.0206L35.8112 31.6696L36.1407 32.7112C36.1834 32.8459 36.0299 32.9577 35.9147 32.8753L35.026 32.24L34.1372 32.8753C34.0221 32.9576 33.8685 32.846 33.9112 32.7112L34.2407 31.6696L33.3618 31.0206C33.248 30.9365 33.3066 30.756 33.4481 30.7549L34.5406 30.7464L34.8863 29.71C34.931 29.5758 35.1209 29.5758 35.1656 29.71Z" fill="#FFE15A"/>
<path d="M31.0933 14.5127L31.439 15.5492L32.5315 15.5577C32.673 15.5587 32.7316 15.7392 32.6178 15.8233L31.7389 16.4723L32.0684 17.5139C32.1111 17.6487 31.9576 17.7604 31.8425 17.6781L30.9537 17.0427L30.0649 17.6781C29.9499 17.7603 29.7963 17.6488 29.8389 17.5139L30.1684 16.4723L29.2895 15.8233C29.1758 15.7392 29.2344 15.5587 29.3759 15.5577L30.4683 15.5492L30.814 14.5127C30.8587 14.3786 31.0484 14.3786 31.0933 14.5127Z" fill="#FFE15A"/>
<path d="M19.9664 33.7823L20.3121 34.8187L21.4046 34.8272C21.5461 34.8283 21.6047 35.0087 21.4909 35.0928L20.612 35.7418L20.9415 36.7834C20.9842 36.9182 20.8306 37.0299 20.7155 36.9476L19.8267 36.3123L18.938 36.9476C18.8229 37.0298 18.6693 36.9183 18.712 36.7834L19.0415 35.7418L18.1626 35.0928C18.0488 35.0087 18.1074 34.8283 18.2489 34.8272L19.3414 34.8187L19.6871 33.7823C19.7318 33.6481 19.9216 33.6481 19.9664 33.7823Z" fill="#FFE15A"/>
<path d="M34.8863 18.585L34.5406 19.6214L33.4481 19.6299C33.3066 19.631 33.248 19.8115 33.3618 19.8956L34.2407 20.5446L33.9112 21.5862C33.8685 21.7209 34.022 21.8327 34.1372 21.7503L35.026 21.115L35.9147 21.7503C36.0298 21.8326 36.1834 21.721 36.1407 21.5862L35.8112 20.5446L36.6901 19.8956C36.8039 19.8115 36.7453 19.631 36.6038 19.6299L35.5113 19.6214L35.1656 18.585C35.1209 18.4508 34.931 18.4508 34.8863 18.585Z" fill="#FFE15A"/>
<path d="M15.6158 29.71L15.2701 30.7464L14.1776 30.7549C14.0361 30.756 13.9775 30.9365 14.0913 31.0206L14.9702 31.6696L14.6407 32.7112C14.598 32.8459 14.7515 32.9577 14.8667 32.8753L15.7554 32.24L16.6442 32.8753C16.7593 32.9576 16.9129 32.846 16.8702 32.7112L16.5407 31.6696L17.4196 31.0206C17.5334 30.9365 17.4748 30.756 17.3333 30.7549L16.2408 30.7464L15.8951 29.71C15.8503 29.5758 15.6605 29.5758 15.6158 29.71Z" fill="#FFE15A"/>
<path d="M19.6871 14.5127L19.3414 15.5492L18.2489 15.5577C18.1074 15.5587 18.0488 15.7392 18.1626 15.8233L19.0415 16.4723L18.712 17.5139C18.6693 17.6487 18.8228 17.7604 18.938 17.6781L19.8267 17.0427L20.7155 17.6781C20.8305 17.7603 20.9842 17.6488 20.9415 17.5139L20.612 16.4723L21.4909 15.8233C21.6047 15.7392 21.5461 15.5587 21.4046 15.5577L20.3121 15.5492L19.9664 14.5127C19.9216 14.3786 19.7318 14.3786 19.6871 14.5127Z" fill="#FFE15A"/>
<path d="M30.814 33.7823L30.4683 34.8187L29.3759 34.8272C29.2344 34.8283 29.1758 35.0087 29.2895 35.0928L30.1684 35.7418L29.8389 36.7834C29.7963 36.9182 29.9498 37.0299 30.0649 36.9476L30.9537 36.3123L31.8425 36.9476C31.9575 37.0298 32.1111 36.9183 32.0684 36.7834L31.7389 35.7418L32.6178 35.0928C32.7316 35.0087 32.673 34.8283 32.5315 34.8272L31.439 34.8187L31.0933 33.7823C31.0485 33.6481 30.8588 33.6481 30.814 33.7823Z" fill="#FFE15A"/>
</g>
<defs>
<clipPath id="clip0_3462_31401">
<rect width="50" height="50" fill="white" transform="translate(0 0.896484)"/>
</clipPath>
</defs>
</svg>
