<svg width="51" height="51" viewBox="0 0 51 51" fill="none" xmlns="http://www.w3.org/2000/svg">
<g clip-path="url(#clip0_3462_31359)">
<path d="M49.5646 42.2761H1.28887C0.812792 42.2761 0.426758 41.8901 0.426758 41.414V10.3797C0.426758 9.90361 0.812792 9.51758 1.28887 9.51758H49.5647C50.0407 9.51758 50.4268 9.90361 50.4268 10.3797V41.414C50.4267 41.8902 50.0406 42.2761 49.5646 42.2761Z" fill="#41479B"/>
<path d="M24.5646 9.51758H23.0672L15.0819 14.7493V9.51758H10.7716V14.7493L2.78623 9.51758H1.28887C0.812792 9.51758 0.426758 9.90361 0.426758 10.3797V11.0635L7.27782 15.552H0.426758V19.8624H7.27782L0.426758 24.351V25.0347C0.426758 25.5108 0.812792 25.8968 1.28887 25.8968H2.78623L10.7716 20.6651V25.8968H15.0819V20.6651L23.0671 25.8968H24.5645C25.0406 25.8968 25.4266 25.5108 25.4266 25.0347V24.351L18.5756 19.8624H25.4266V15.552H18.5756L25.4266 11.0635V10.3797C25.4266 9.90361 25.0408 9.51758 24.5646 9.51758Z" fill="#F5F5F5"/>
<path d="M25.4256 16.4141H14.2188V9.51758H11.6326V16.4141H0.425781V19.0003H11.6326V25.8968H14.2188V19.0003H25.4256V16.4141Z" fill="#FF4B55"/>
<path d="M9.90848 15.5528L0.83662 9.66406C0.595215 9.81689 0.425781 10.0735 0.425781 10.3805V10.4252L8.32508 15.5528H9.90848Z" fill="#FF4B55"/>
<path d="M16.6645 15.552L25.2947 9.9499C25.1447 9.69609 24.8801 9.51758 24.5637 9.51758H24.3773L15.0811 15.552H16.6645Z" fill="#FF4B55"/>
<path d="M9.16356 19.8633L0.549805 25.4547C0.69834 25.7146 0.967089 25.8977 1.28799 25.8977H1.45058L10.747 19.8633H9.16356Z" fill="#FF4B55"/>
<path d="M25.412 25.1034L17.3392 19.8633H15.7559L24.9231 25.8139C25.1978 25.6864 25.3861 25.4193 25.412 25.1034Z" fill="#FF4B55"/>
<path d="M32.7224 35.3096L32.3178 34.3653L32.52 34.8375L32.3154 34.3665C32.4007 34.3289 34.4033 33.4152 34.4033 30.7285H35.4306C35.4306 34.11 32.833 35.262 32.7224 35.3096Z" fill="#E67346"/>
<path d="M33.1237 33.0132L32.3975 32.2869C33.786 30.8983 34.5076 30.5175 34.5853 30.4785L35.0448 31.3974L34.815 30.9379L35.0487 31.3953C35.0422 31.3988 34.3918 31.7451 33.1237 33.0132Z" fill="#EB7D4B"/>
<path d="M43.2775 35.3096L43.6821 34.3653L43.4799 34.8375L43.6845 34.3665C43.5992 34.3289 41.5966 33.4152 41.5966 30.7285H40.5693C40.5693 34.11 43.1669 35.262 43.2775 35.3096Z" fill="#E67346"/>
<path d="M42.8762 33.0132L43.6024 32.2869C42.2139 30.8983 41.4923 30.5175 41.4145 30.4785L40.9551 31.3974L41.1849 30.9379L40.9512 31.3953C40.9576 31.3988 41.608 31.7451 42.8762 33.0132Z" fill="#EB7D4B"/>
<path d="M37.9991 17.375H32.5205C32.5205 17.375 32.5205 23.8809 32.5205 25.593C32.5205 27.305 32.863 31.7564 37.9991 33.4684C43.1353 31.7563 43.4777 27.305 43.4777 25.593C43.4777 23.8809 43.4777 17.375 43.4777 17.375H37.9991Z" fill="#4173CD"/>
<path d="M40.3956 19.4283H37.4518C37.1408 19.4283 36.8392 19.3225 36.5963 19.1282L35.447 18.2087C35.3255 18.1116 35.1747 18.0586 35.0191 18.0586H34.917C34.5388 18.0586 34.2322 18.3651 34.2322 18.7434H33.7187C33.4351 18.7434 33.2051 18.9733 33.2051 19.2569C33.2051 19.5405 33.4351 19.7705 33.7187 19.7705H34.2322C34.4214 19.7705 34.5747 19.9238 34.5747 20.113V21.8251C34.5747 22.4626 35.0122 22.9936 35.6019 23.1463V24.222H36.2867L36.5436 23.1947H39.7109L40.0534 23.5372V24.222H40.3959V23.1947H40.7384V24.222H41.0808V23.0998C41.2848 22.9811 41.4233 22.7629 41.4233 22.51V20.4555C41.4228 19.8883 40.963 19.4283 40.3956 19.4283Z" fill="#C8C8C8"/>
<path d="M34.2324 23.8809L34.9174 25.9353H41.0808L41.7656 23.8809H34.2324Z" fill="#73AF00"/>
<path d="M41.6464 25.25C40.7335 25.25 40.7335 25.9348 39.8206 25.9348C38.908 25.9348 38.908 25.25 37.9953 25.25C37.0828 25.25 37.0828 25.9348 36.1702 25.9348C35.2574 25.9348 35.2574 25.25 34.3445 25.25C33.4337 25.25 33.4313 25.9316 32.5244 25.9346C32.5354 26.316 32.5681 26.7825 32.6523 27.2981C33.4328 27.2344 33.4791 26.6197 34.3446 26.6197C35.2574 26.6197 35.2574 27.3045 36.1703 27.3045C37.0828 27.3045 37.0828 26.6197 37.9954 26.6197C38.908 26.6197 38.908 27.3045 39.8207 27.3045C40.7336 27.3045 40.7336 26.6197 41.6465 26.6197C42.5143 26.6197 42.5599 27.2356 43.3442 27.2982C43.4284 26.7827 43.4611 26.3161 43.4721 25.9347C42.5609 25.9331 42.5597 25.25 41.6464 25.25Z" fill="#F5F5F5"/>
<path d="M41.6465 26.6191C40.7336 26.6191 40.7336 27.3039 39.8207 27.3039C38.9081 27.3039 38.9081 26.6191 37.9954 26.6191C37.0829 26.6191 37.0829 27.3039 36.1703 27.3039C35.2575 27.3039 35.2575 26.6191 34.3446 26.6191C33.4791 26.6191 33.4329 27.2338 32.6523 27.2976C32.7193 27.7079 32.82 28.1493 32.9673 28.6029C33.4667 28.4285 33.6125 27.9887 34.3445 27.9887C35.2573 27.9887 35.2573 28.6734 36.1702 28.6734C37.0827 28.6734 37.0827 27.9887 37.9953 27.9887C38.9079 27.9887 38.9079 28.6734 39.8206 28.6734C40.7335 28.6734 40.7335 27.9887 41.6464 27.9887C42.381 27.9887 42.5263 28.4303 43.0288 28.604C43.1763 28.15 43.2769 27.7083 43.3441 27.2977C42.56 27.235 42.5144 26.6191 41.6465 26.6191Z" fill="#4173CD"/>
<path d="M41.6469 27.9883C40.734 27.9883 40.734 28.673 39.8211 28.673C38.9085 28.673 38.9085 27.9883 37.9958 27.9883C37.0833 27.9883 37.0833 28.673 36.1707 28.673C35.2579 28.673 35.2579 27.9883 34.345 27.9883C33.613 27.9883 33.4672 28.428 32.9678 28.6025C33.0858 28.9662 33.2354 29.3376 33.4224 29.7077C33.6539 29.5341 33.882 29.3579 34.345 29.3579C35.2578 29.3579 35.2578 30.0427 36.1707 30.0427C37.0832 30.0427 37.0832 29.3579 37.9958 29.3579C38.9084 29.3579 38.9084 30.0427 39.8211 30.0427C40.734 30.0427 40.734 29.3579 41.6469 29.3579C42.1125 29.3579 42.3411 29.5354 42.574 29.7099C42.7614 29.3394 42.9111 28.9676 43.0293 28.6036C42.5267 28.4299 42.3816 27.9883 41.6469 27.9883Z" fill="#F5F5F5"/>
<path d="M41.6464 29.3594C40.7335 29.3594 40.7335 30.0441 39.8206 30.0441C38.908 30.0441 38.908 29.3594 37.9953 29.3594C37.0828 29.3594 37.0828 30.0441 36.1702 30.0441C35.2574 30.0441 35.2574 29.3594 34.3445 29.3594C33.8816 29.3594 33.6533 29.5354 33.4219 29.7092C33.6001 30.0619 33.8132 30.4129 34.0677 30.7546C34.1504 30.739 34.2409 30.7292 34.3445 30.7292C35.2573 30.7292 35.2573 31.414 36.1702 31.414C37.0827 31.414 37.0827 30.7292 37.9953 30.7292C38.9079 30.7292 38.9079 31.414 39.8206 31.414C40.7335 31.414 40.7335 30.7292 41.6464 30.7292C41.7519 30.7292 41.8442 30.7392 41.9283 30.7553C42.1825 30.4142 42.3954 30.0637 42.5735 29.7114C42.3407 29.5369 42.1121 29.3594 41.6464 29.3594Z" fill="#4173CD"/>
<path d="M41.929 30.7546C41.845 30.7385 41.7527 30.7285 41.6471 30.7285C40.7342 30.7285 40.7342 31.4133 39.8213 31.4133C38.9087 31.4133 38.9087 30.7285 37.996 30.7285C37.0835 30.7285 37.0835 31.4133 36.1709 31.4133C35.2581 31.4133 35.2581 30.7285 34.3452 30.7285C34.2417 30.7285 34.1512 30.7383 34.0684 30.7539C34.6233 31.4988 35.3761 32.1974 36.3948 32.7656C37.0886 32.6633 37.1657 32.0981 37.9958 32.0981C38.8278 32.0981 38.9034 32.6657 39.6015 32.7662C40.6208 32.1981 41.3738 31.4997 41.929 30.7546Z" fill="#F5F5F5"/>
<path d="M38.1687 25.25H37.8271V31.0713H38.1687V25.25Z" fill="#FF965A"/>
<path d="M39.0254 26.1055H36.9707V26.448H39.0254V26.1055Z" fill="#FF965A"/>
<path d="M39.0254 28.1602H36.9707V28.5026H39.0254V28.1602Z" fill="#FF965A"/>
<path d="M39.0254 26.4473H36.9707V27.8018H39.0254V26.4473Z" fill="#FFE15A"/>
<path d="M37.827 25.25V25.9349L36.7998 25.5925L37.827 25.25Z" fill="#FF4B55"/>
<path d="M40.452 25.25H40.1104V29.2734H40.452V25.25Z" fill="#FF965A"/>
<path d="M41.3086 26.1055H39.2539V26.448H41.3086V26.1055Z" fill="#FF965A"/>
<path d="M41.3086 28.1602H39.2539V28.5026H41.3086V28.1602Z" fill="#FF965A"/>
<path d="M41.3086 26.4473H39.2539V27.8018H41.3086V26.4473Z" fill="#FFE15A"/>
<path d="M40.1102 25.25V25.9349L39.083 25.5925L40.1102 25.25Z" fill="#FF4B55"/>
<path d="M35.8709 25.25H35.5293V29.2446H35.8709V25.25Z" fill="#FF965A"/>
<path d="M36.7285 26.1055H34.6738V26.448H36.7285V26.1055Z" fill="#FF965A"/>
<path d="M36.7285 28.1602H34.6738V28.5026H36.7285V28.1602Z" fill="#FF965A"/>
<path d="M36.7295 26.4473H34.6748V27.8018H36.7295V26.4473Z" fill="#FFE15A"/>
<path d="M35.5302 25.25V25.9349L34.5029 25.5925L35.5302 25.25Z" fill="#FF4B55"/>
<path d="M39.7108 29.0159C39.7108 29.9599 38.9428 30.728 37.9987 30.728C37.0547 30.728 36.2866 29.96 36.2866 29.0159H35.9441H35.6045L33.2855 28.4922L33.21 28.8263L34.2321 29.0571V29.3583L34.9857 29.6597C35.2828 31.0507 36.5203 32.0975 37.9986 32.0975C39.4622 32.0975 40.6884 31.0708 41.001 29.7006H42.1075V28.6733L39.7108 29.0159Z" fill="#FF965A"/>
<path d="M43.4776 17.3736C43.4776 17.3736 43.4776 23.8796 43.4776 25.5916C43.4776 27.3036 43.1351 31.7551 37.9989 33.4671C32.8627 31.755 32.5203 27.3036 32.5203 25.5916C32.5203 23.8796 32.5203 17.3736 32.5203 17.3736H37.9989H43.4776ZM43.8199 17.0312H43.4774H37.9988H32.5202H32.1777V17.3737V25.5917C32.1777 29.6518 34.2066 32.564 37.8905 33.7921L37.9988 33.8282L38.1071 33.7921C41.7911 32.564 43.8199 29.6517 43.8199 25.5917V17.3737V17.0312Z" fill="#F5F5F5"/>
<path d="M37.9991 35.1792C35.4789 35.1792 33.1416 34.335 31.7471 32.9207L32.7222 31.959C33.8649 33.1176 35.8377 33.8095 37.9992 33.8095C40.1607 33.8095 42.1335 33.1177 43.2762 31.959L44.2513 32.9207C42.8566 34.3349 40.5194 35.1792 37.9991 35.1792Z" fill="#FF965A"/>
</g>
<defs>
<clipPath id="clip0_3462_31359">
<rect width="50" height="50" fill="white" transform="translate(0.427734 0.896484)"/>
</clipPath>
</defs>
</svg>
