<svg width="51" height="51" viewBox="0 0 51 51" fill="none" xmlns="http://www.w3.org/2000/svg">
<g clip-path="url(#clip0_3462_31313)">
<path d="M49.8585 42.2762H1.58281C1.10674 42.2762 0.720703 41.8902 0.720703 41.4141V10.3797C0.720703 9.90361 1.10674 9.51758 1.58281 9.51758H49.8586C50.3347 9.51758 50.7207 9.90361 50.7207 10.3797V41.4141C50.7206 41.8903 50.3346 42.2762 49.8585 42.2762Z" fill="#82AFFF"/>
<path d="M24.8585 25.8969H1.58281C1.10674 25.8969 0.720703 25.5109 0.720703 25.0348V10.3797C0.720703 9.90361 1.10674 9.51758 1.58281 9.51758H24.8586C25.3347 9.51758 25.7208 9.90361 25.7208 10.3797V25.0348C25.7207 25.5109 25.3346 25.8969 24.8585 25.8969Z" fill="#41479B"/>
<path d="M24.8585 9.51758H23.3611L15.3758 14.7494V9.51758H11.0654V14.7494L3.08007 9.51758H1.58281C1.10674 9.51758 0.720703 9.90351 0.720703 10.3796V11.0634L7.57176 15.5519H0.720703V19.8623H7.57176L0.720703 24.351V25.0347C0.720703 25.5108 1.10674 25.8968 1.58281 25.8968H3.08027L11.0656 20.665V25.8968H15.3759V20.665L23.3612 25.8968H24.8586C25.3347 25.8968 25.7208 25.5108 25.7208 25.0347V24.351L18.8697 19.8624H25.7207V15.552H18.8696L25.7207 11.0635V10.3797C25.7207 9.90352 25.3346 9.51758 24.8585 9.51758Z" fill="#F5F5F5"/>
<path d="M25.7207 16.4141H14.5137V9.51758H11.9276V16.4141H0.720703V19.0003H11.9276V25.8968H14.5137V19.0003H25.7207V16.4141Z" fill="#FF4B55"/>
<path d="M10.2034 15.5528L1.13154 9.66406C0.890136 9.8168 0.720703 10.0735 0.720703 10.3804V10.4251L8.62 15.5528H10.2034Z" fill="#FF4B55"/>
<path d="M16.9594 15.552L25.5896 9.9499C25.4396 9.69609 25.175 9.51758 24.8587 9.51758H24.6722L15.376 15.552H16.9594Z" fill="#FF4B55"/>
<path d="M9.45848 19.8633L0.844727 25.4547C0.993261 25.7146 1.26201 25.8977 1.58291 25.8977H1.74551L11.042 19.8633H9.45848V19.8633Z" fill="#FF4B55"/>
<path d="M25.707 25.1033L17.6342 19.8633H16.0508L25.2181 25.814C25.4928 25.6865 25.6811 25.4194 25.707 25.1033Z" fill="#FF4B55"/>
<path d="M32.1689 18.9258V28.3846C32.1689 32.2206 37.5574 34.1921 38.2141 34.4179C38.87 34.1921 44.2592 32.2174 44.2592 28.3846V18.9258H32.1689Z" fill="#F5F5F5"/>
<path d="M44.4729 23.2645V18.7129H31.9561V23.2645H37.3611V27.5316H31.9561V29.2386H37.3611V34.3589L38.2145 34.6434L39.0679 34.3589V29.2386H44.4729V27.5316H39.0679V23.2645H44.4729Z" fill="#FF4B55"/>
<path d="M33.3597 22.1998C33.753 22.1998 34.0719 21.8809 34.0719 21.4876C34.0719 21.0943 33.753 20.7754 33.3597 20.7754C32.9663 20.7754 32.6475 21.0943 32.6475 21.4876C32.6475 21.8809 32.9663 22.1998 33.3597 22.1998Z" fill="#F5F5F5"/>
<path d="M34.7277 20.5242C34.4998 20.3989 34.0896 20.0627 33.9244 20.1197C33.7592 20.1768 33.7223 20.2936 33.4911 20.3113C33.2659 20.3287 32.9103 20.5484 33.0585 20.792C33.2512 21.109 33.8543 20.8625 33.8942 20.7143C33.8942 20.7143 34.0423 20.738 34.1668 20.7083C34.1668 20.7083 34.4146 21.054 34.7222 21.0313C35.0298 21.0084 35.1723 20.6268 35.104 20.6268C35.0358 20.6268 34.7277 20.5242 34.7277 20.5242Z" fill="#FFE15A"/>
<path d="M35.6732 22.0346C35.6219 22.1285 35.2316 22.4623 34.5793 22.6157C34.434 22.6499 34.4596 22.8208 34.3143 22.7354C34.1691 22.6499 33.7674 22.5814 33.4084 22.5645C33.0494 22.5474 33.0137 22.2147 33.0751 22.0944C33.1529 21.9416 33.7259 21.8484 33.8285 22.0364C33.931 22.2245 34.0079 22.1853 34.2631 22.2396C34.4212 22.2734 34.4255 22.3508 34.4255 22.3508C34.4255 22.3508 34.7161 22.0602 34.9639 21.9747C35.2118 21.8893 35.4255 21.7012 35.4681 21.7012C35.5109 21.7012 35.7331 21.7609 35.7331 21.7609L35.6732 22.0346Z" fill="#FFE15A"/>
<path d="M36.6217 21.0255C36.9978 21.1622 38.1088 21.1194 39.2967 20.7349C40.4846 20.3503 40.8266 20.2819 41.4077 20.4955C41.9889 20.7091 42.2405 20.0341 41.8588 19.9199C41.2594 19.7405 39.4053 20.8178 38.0628 20.2133C38.0628 20.2133 38.0233 20.3759 38.066 20.4527C38.066 20.4527 37.0917 20.4869 37.3224 19.4785C37.3224 19.4785 37.3888 19.8467 37.8494 19.8044C38.7206 19.7244 38.8452 20.3378 40.6898 19.769C41.7139 19.4533 42.5096 19.6083 42.5166 20.1065C42.5251 20.7064 41.6982 20.8459 41.6982 20.8459C41.6982 20.8459 42.02 21.504 42.6697 21.2134C43.3193 20.9228 43.3533 21.4241 43.4104 21.5952C43.4674 21.7662 43.5756 21.9314 43.718 21.9484C43.718 21.9484 43.8205 22.256 43.7807 22.296C43.7408 22.3358 43.4731 22.6721 43.2053 22.6721C42.9375 22.6721 42.3564 22.6721 42.3564 22.6721C42.3564 22.6721 42.2025 22.2902 42.4989 22.2847C42.795 22.279 43.1541 22.2562 43.1085 22.0966C43.0629 21.9371 42.8293 21.863 42.835 21.6863C42.835 21.6863 42.1455 22.1877 41.7183 21.5951L41.7069 21.8743C41.7069 21.8743 41.1883 21.7774 41.0004 21.3615C41.0004 21.3615 41.0517 21.8288 40.6074 21.7603C40.6074 21.7603 40.6986 21.8971 40.8524 21.9939C41.0063 22.0908 40.8466 22.3016 40.5504 22.4782C40.2542 22.6549 39.3425 23.1677 38.9266 22.6434C38.5107 22.1193 39.0178 21.8173 39.1431 21.8515C39.2684 21.8856 39.6274 22.4383 39.8724 22.3642C40.1174 22.2902 40.237 22.0394 40.0319 21.8857C39.8267 21.732 39.6732 21.5865 39.8025 21.4312C39.9803 21.2179 40.6359 21.2818 40.613 21.1394C40.5903 20.997 39.9806 21.0369 39.5818 21.4356C39.1829 21.8345 37.4508 22.7518 36.7614 22.1707C36.072 21.5895 36.6217 21.0255 36.6217 21.0255Z" fill="#FFE15A"/>
<path d="M36.4004 20.7694C36.4004 20.7694 36.9217 21.2822 37.802 21.4446C37.802 21.4446 37.6396 21.6925 37.1696 21.6241C37.1696 21.6241 37.3577 21.7865 37.4859 22.06C37.4859 22.06 37.1868 22.1283 36.9218 21.983C36.9218 21.983 36.956 22.2052 37.0842 22.3848C37.0842 22.3848 36.7338 22.3848 36.4346 22.1198L36.3149 22.4616C36.3149 22.4616 36.1099 22.3249 35.9816 22.0599C35.9816 22.0599 35.7423 22.2479 35.5031 22.2479C35.5031 22.2479 35.5886 21.9916 35.5886 21.8462C35.5886 21.8462 35.2468 22.0513 34.9646 21.9744C34.9646 21.9744 34.9731 21.6154 35.0672 21.5129C35.0672 21.5129 34.845 21.5386 34.6997 21.4616C34.6997 21.4616 34.7852 21.265 34.8279 21.1368C34.8279 21.1368 34.5886 21.1453 34.4434 21.0086C34.4434 21.0086 34.9049 20.8291 35.0075 20.6582L36.4004 20.7694Z" fill="#FFD25A"/>
<path d="M35.5593 19.334C35.6618 19.391 35.827 19.5163 35.8955 19.7271C35.8955 19.7271 36.0836 19.4535 36.4083 19.4022C36.4083 19.4022 36.5508 19.5617 36.5108 19.9776C36.5108 19.9776 36.8698 19.8751 37.0636 20.0631C37.0636 20.0631 36.6817 20.1485 36.5052 20.4676C36.5052 20.4676 36.4366 20.7936 36.5563 20.9873C36.5563 20.9873 36.423 21.0051 36.2887 20.9463C36.2887 20.9463 36.2203 21.2711 36.2887 21.3736C36.2887 21.3736 36.1006 21.3508 35.998 21.1515C35.998 21.1515 35.8441 21.3851 35.8556 21.5275C35.8556 21.5275 35.6505 21.4079 35.6391 21.2313C35.6391 21.2313 35.4966 21.4991 35.3429 21.522C35.3429 21.522 35.3258 21.1459 35.2574 21.0034C35.2574 21.0034 35.1264 21.1459 34.9555 21.1401C34.9555 21.1401 34.9555 20.8495 35.0979 20.7128C35.0979 20.7128 34.8586 20.7868 34.7275 20.5247C34.7275 20.5247 35.1206 20.6386 35.2175 20.3994C35.3144 20.1601 35.3428 20.086 35.4796 19.955C35.6163 19.824 35.5593 19.334 35.5593 19.334Z" fill="#FFBE5A"/>
<path d="M36.4002 20.436C36.4002 20.436 35.913 21.3676 35.4687 21.0856C34.9819 20.7766 35.5883 20.0515 35.6652 19.9746C35.6652 19.9745 36.0241 20.0686 36.4002 20.436Z" fill="#FFE15A"/>
<path d="M34.6428 25.2087C34.6428 25.2087 34.5917 24.5396 34.229 24.3466C33.888 24.1651 33.6865 24.0744 33.6475 23.8418C33.6475 23.8418 33.9437 23.9779 34.2569 24.063C34.5399 24.1398 34.8161 24.6188 34.7322 25.1576L34.6428 25.2087Z" fill="#5ABEA0"/>
<path d="M33.498 25.758L33.5441 25.8431L33.5776 26.026L33.5105 26.2429C33.5105 26.2429 33.7771 26.3488 33.8377 26.7107C33.8793 26.9591 33.9887 27.0128 34.0558 26.9617C34.1229 26.9106 34.1635 26.8503 34.0935 26.5788C34.004 26.2322 33.7621 25.9025 33.7621 25.9025L33.5734 25.6133L33.498 25.758Z" fill="#B46446"/>
<path d="M33.7621 25.9042C33.5189 25.5894 32.8561 24.9343 32.7304 25.8275C32.7304 25.8275 32.4707 25.075 32.9569 25.1044C33.5188 25.1385 33.7621 25.9042 33.7621 25.9042Z" fill="#5ABEA0"/>
<path d="M33.5442 25.8432C33.3346 25.6134 33.2674 25.4433 33.1584 25.018C33.0493 24.5927 33.0158 24.465 32.8899 24.4735C32.7641 24.482 32.6887 24.6181 32.6887 24.8903C32.6887 24.8903 32.3196 24.5585 32.5712 24.2948C32.8228 24.0311 33.3848 24.1757 33.4184 24.6436C33.4518 25.1115 33.4435 25.4262 33.6112 25.8176L33.5442 25.8432Z" fill="#5ABEA0"/>
<path d="M33.6028 25.6396C33.6028 25.6396 33.1583 24.6613 34.4081 24.1338C34.4081 24.1338 33.3008 23.836 33.4351 25.4098L33.6028 25.6396Z" fill="#5ABEA0"/>
<path d="M33.7456 25.9889C33.7456 25.9889 32.8062 25.6316 32.8901 26.4993C32.8901 26.4993 33.0494 26.0909 33.5108 26.2442L33.7456 25.9889Z" fill="#5ABEA0"/>
<path d="M34.8105 25.6442C34.8105 25.898 34.9103 26.6344 34.7686 26.7275C34.6973 26.7743 34.4959 26.736 34.5127 26.5574C34.5295 26.3788 34.6092 25.5109 34.6092 25.2983C34.6092 25.0856 34.8105 25.6442 34.8105 25.6442Z" fill="#B46446"/>
<path d="M34.213 26.2359C34.3752 26.0714 34.4255 25.6971 34.3696 25.198C34.3696 25.198 34.7051 25.4305 34.8114 25.6461C34.8114 25.6461 34.9176 25.1526 34.5709 25.0221C34.2243 24.8917 34.0397 24.9655 33.9782 25.1242C33.9166 25.283 34.0841 25.4606 34.1572 25.7197C34.2242 25.958 34.213 26.2359 34.213 26.2359Z" fill="#5ABEA0"/>
<path d="M34.7888 25.5143C34.7888 25.5143 34.8448 25.2535 35.0292 25.1457C35.0292 25.1457 35.4095 25.4123 35.3815 25.7696C35.3815 25.7696 35.4822 25.2819 35.2752 25.089C35.0683 24.8963 34.8334 24.8452 34.716 25.0153C34.5986 25.1853 34.7888 25.5143 34.7888 25.5143Z" fill="#5ABEA0"/>
<path d="M34.878 25.0157C34.878 25.0157 34.9955 24.3181 35.2918 24.1649C35.5881 24.0118 36.1362 23.87 36.1697 23.8359C36.1697 23.8359 35.5155 23.87 35.4093 23.87C35.303 23.87 34.7158 24.2953 34.7158 24.925C34.7158 25.5545 34.7718 25.1235 34.7886 25.1178C34.8053 25.1122 34.878 25.0157 34.878 25.0157Z" fill="#5ABEA0"/>
<path d="M35.1504 26.8597C35.2175 27.0001 35.3769 27.034 35.4104 26.9617C35.4439 26.8894 35.5949 26.3364 35.5949 26.3364L35.3811 26.2344L35.1504 26.8597Z" fill="#B46446"/>
<path d="M36.4042 24.5395C36.667 24.3863 36.8404 24.8401 36.8404 24.8401C36.8404 24.3059 36.6727 24.1369 36.2532 24.341C36.127 24.4025 36.0345 24.5314 35.9665 24.6808C35.7542 24.0707 35.2859 24.0801 35.2859 24.0801L35.1797 24.1538C35.5631 24.2275 35.7827 24.687 35.8756 24.9376C35.8255 25.1205 35.8013 25.2979 35.7909 25.3993C35.5396 25.6598 35.381 26.2352 35.381 26.2352C35.381 26.2352 35.5613 26.3415 35.5948 26.3372C35.5948 26.3372 35.7123 25.9757 35.8591 25.9842C36.0059 25.9927 36.1778 26.2267 36.182 26.3756C36.182 26.3756 36.4001 25.9332 36.1401 25.7631C36.0425 25.6992 35.9644 25.6749 35.9013 25.6737L36.094 25.4568C36.4086 25.5164 36.6267 25.8142 36.6267 25.8142C36.633 25.2825 36.3982 25.1787 36.1507 25.2233C36.1949 25.0092 36.2923 24.6047 36.4042 24.5395Z" fill="#5ABEA0"/>
<path d="M41.582 25.2754C41.582 25.7213 41.582 26.7101 41.582 26.7831C41.582 26.856 41.2627 27.1397 41.2627 27.1397H42.1116C42.1116 27.1397 41.839 26.8235 41.839 26.7831C41.839 26.7427 41.9013 25.3888 41.9013 25.3888L41.582 25.2754Z" fill="#B46446"/>
<path d="M41.6367 25.43C41.4343 25.4138 40.8734 25.8759 40.7099 26.5811C40.7099 26.5811 40.2113 25.7705 41.4576 25.0976C41.4576 25.0976 40.9046 24.9354 40.0635 25.811C40.0181 25.8582 39.9778 24.4897 41.4888 24.8544C41.4888 24.8544 40.9124 24.0194 39.7285 24.6761C39.7285 24.6761 40.5151 23.2656 41.6757 24.5302C41.6757 24.5302 41.6834 23.4358 41.6913 23.5493C41.6992 23.6627 41.7848 24.1653 41.7848 24.1653L42.0106 23.7681L41.8315 24.5788C41.8315 24.5788 42.8674 23.2006 43.7476 24.6356C43.7476 24.6356 42.6103 24.1655 42.0652 24.6923C42.0652 24.6923 43.2336 24.3761 43.14 25.7299C43.14 25.7299 42.6806 24.9274 41.9328 25.0328C41.9328 25.0328 42.813 25.438 42.5325 26.5325C42.5324 26.5326 42.002 25.4592 41.6367 25.43Z" fill="#5ABEA0"/>
<path d="M34.1994 30.3018C34.156 30.2431 34.0953 30.2148 34.0357 30.2074C34.0586 30.1283 34.074 30.0922 34.0678 30.0346C34.086 30.0391 34.1034 30.0473 34.122 30.0495L34.13 29.9845C34.0609 29.9762 33.9855 29.9451 33.908 29.8979C33.9558 29.8569 33.9904 29.794 33.9904 29.717C33.9904 29.6333 33.952 29.5632 33.8974 29.5234C33.8429 29.5633 33.8044 29.6334 33.8044 29.717C33.8044 29.7798 33.8302 29.8302 33.864 29.8705C33.8352 29.8506 33.8061 29.8275 33.7769 29.8027C33.7694 29.7513 33.7496 29.6994 33.7039 29.6578C33.6421 29.6015 33.5645 29.5826 33.4983 29.5961C33.491 29.6632 33.5169 29.7388 33.5787 29.7952C33.6265 29.8388 33.6828 29.8536 33.7368 29.8548C33.7491 29.8652 33.762 29.8757 33.7755 29.8863C33.7384 29.8818 33.6985 29.8856 33.6585 29.9002C33.5798 29.9289 33.5272 29.9889 33.5084 30.0537C33.5646 30.0913 33.6435 30.1035 33.7221 30.0748C33.7908 30.0498 33.8349 29.9995 33.8587 29.9444C33.9047 29.9738 33.9552 29.9983 34.0075 30.018L33.9992 30.019C33.9974 30.0662 34.0005 30.0856 33.9771 30.1733C33.9243 30.1391 33.8543 30.1236 33.7804 30.1454C33.7001 30.169 33.6438 30.2257 33.6209 30.2893C33.6746 30.3303 33.7526 30.3475 33.8329 30.3237C33.8933 30.306 33.9342 30.2672 33.9634 30.2231C33.9524 30.2564 33.9385 30.2908 33.923 30.3259C33.8758 30.3477 33.8316 30.3812 33.8045 30.4369C33.7679 30.5121 33.7718 30.592 33.8035 30.6517C33.87 30.6397 33.9351 30.5935 33.9718 30.5183C34 30.4602 33.9986 30.4021 33.9843 30.3499C33.9909 30.3352 33.9972 30.3198 34.0037 30.3038C34.0098 30.3406 34.0247 30.3779 34.0499 30.4121C34.0996 30.4795 34.172 30.5131 34.2396 30.5128C34.2597 30.4483 34.2491 30.3691 34.1994 30.3018Z" fill="#5ABEA0"/>
<path d="M33.8145 30.0909C34.0987 30.0909 34.4706 30.0801 34.4596 30.3643C34.4487 30.6485 34.1315 31.6109 34.8642 31.9061C35.5968 32.2014 35.6843 32.1576 35.6843 32.1576L36.0123 32.9121L36.8105 32.6278L36.045 32.0154C36.045 32.0154 35.9794 31.5999 35.7936 31.3155C35.7936 31.3155 36.2638 31.0749 36.4278 30.8672L36.0998 30.8453C36.0998 30.8453 36.5263 30.572 36.723 30.2658L36.4935 30.2877C36.4935 30.2877 36.7559 30.0252 36.8215 29.719C36.8215 29.719 36.395 30.1455 35.9576 30.2002C35.9576 30.2002 36.1435 29.719 36.1872 29.5332C36.1872 29.5332 35.8592 29.7409 35.6296 29.8284C35.4 29.9159 35.0391 29.9268 35.2031 30.6704C35.2031 30.6704 35.0062 30.5064 34.886 30.1564C34.7658 29.8065 34.7221 29.6753 34.558 29.6753C34.2901 29.6753 34.1862 29.9159 34.1862 29.9159L33.8145 30.0909Z" fill="#FFECDE"/>
<path d="M41.8849 30.2311C41.9832 30.1 42.18 29.6901 42.3521 29.7967C42.5243 29.9032 42.7539 30.1655 42.8932 30.0425C43.0324 29.9196 43.0407 29.7638 42.8275 29.6901C42.6144 29.6164 42.3767 29.4933 42.2292 29.5426C42.0816 29.5917 41.6309 30.0591 41.6309 30.0591L41.8849 30.2311Z" fill="#B46446"/>
<path d="M40.6146 30.583C40.6064 30.3944 40.7337 29.5758 41.2459 29.6812C41.5246 29.7386 41.6617 30.034 42.0247 30.173C42.4099 30.3206 42.6559 30.4107 42.5821 30.6648C42.5083 30.9189 42.3689 31.2222 42.0492 31.296C41.7295 31.37 40.6146 30.583 40.6146 30.583Z" fill="#FFE15A"/>
<path d="M40.2777 31.2578C40.1684 31.2797 39.764 31.8699 40.245 32.4711C40.245 32.4711 40.8352 32.7115 41.3052 32.3399C41.7752 31.9684 41.4254 31.7825 41.4254 31.7825L40.2777 31.2578Z" fill="#5ABEA0"/>
<path d="M40.3188 31.3867C40.2697 31.3128 40.2779 31.2582 40.2779 31.2582C40.2779 31.2582 40.2532 30.4112 40.6058 30.3948C40.9583 30.3784 42.2288 31.2145 42.2288 31.3538C42.2288 31.4932 41.8189 31.8949 41.4746 31.9768C41.1305 32.0588 40.3188 31.3867 40.3188 31.3867Z" fill="#5ABEA0"/>
<path d="M39.4502 33.4368C39.4502 33.4368 40.5699 32.9338 40.3595 32.5245C40.2076 32.2293 39.8663 32.4185 39.8123 32.6439C39.7448 32.9253 39.526 33.3174 39.4502 33.4368Z" fill="#B46446"/>
<path d="M38.2141 34.8659L38.1493 34.8453C38.0844 34.8245 36.5386 34.3266 34.9674 33.291C32.8575 31.9006 31.7422 30.2034 31.7422 28.3836V18.498H44.6858V28.3836C44.6858 30.2035 43.5705 31.9006 41.4606 33.291C39.8895 34.3266 38.3437 34.8245 38.2787 34.8453L38.2141 34.8659ZM32.1689 18.9248V28.3836C32.1689 32.2196 37.5574 34.1911 38.2141 34.417C38.87 34.1911 44.2592 32.2164 44.2592 28.3836V18.9248H32.1689Z" fill="#464655"/>
</g>
<defs>
<clipPath id="clip0_3462_31313">
<rect width="50" height="50" fill="white" transform="translate(0.720703 0.896484)"/>
</clipPath>
</defs>
</svg>
