<svg width="51" height="51" viewBox="0 0 51 51" fill="none" xmlns="http://www.w3.org/2000/svg">
<g clip-path="url(#clip0_3462_31280)">
<path d="M0.868164 33.6562H50.8681V41.4148C50.8681 41.8909 50.482 42.2769 50.006 42.2769H1.73027C1.2542 42.2769 0.868164 41.8909 0.868164 41.4148V33.6562Z" fill="#FF4B55"/>
<path d="M1.73125 9.51758H50.007C50.4831 9.51758 50.8691 9.90361 50.8691 10.3797V18.1383H0.869141V10.3796C0.869141 9.90351 1.25518 9.51758 1.73125 9.51758Z" fill="#FF4B55"/>
<path d="M50.8681 18.1367H0.868164V33.6543H50.8681V18.1367Z" fill="#F5F5F5"/>
<path d="M31.5518 23.6955L26.0796 25.9292C26.0774 25.9236 26.0748 25.9186 26.0723 25.9134L31.3572 23.2666C31.1482 22.8495 30.8944 22.4589 30.5999 22.1026L26.0435 25.8707C26.039 25.865 26.0364 25.8578 26.0312 25.8525L30.208 21.6716C29.91 21.3735 29.5806 21.1072 29.2267 20.8754L25.9931 25.8252C25.9857 25.8202 25.9792 25.8145 25.9712 25.8104L28.6133 20.5223C28.1889 20.3097 27.7366 20.1452 27.2632 20.0352L25.9205 25.7935C25.9035 25.7894 25.8872 25.7831 25.8687 25.7831C25.8503 25.7831 25.8342 25.7894 25.817 25.7935L24.4743 20.0352C24.0008 20.1452 23.5485 20.3096 23.1242 20.5223L25.7663 25.8104C25.7584 25.8145 25.7517 25.8202 25.7444 25.8252L22.5107 20.8754C22.1567 21.1073 21.8274 21.3736 21.5295 21.6716L25.7062 25.8525C25.7012 25.8578 25.6986 25.8649 25.6939 25.8707L21.1376 22.1026C20.8431 22.4588 20.5893 22.8495 20.3803 23.2666L25.6652 25.9134C25.6627 25.9187 25.66 25.9237 25.6579 25.9292L20.1856 23.6955C20.0207 24.1 19.898 24.5261 19.8223 24.9684L25.6482 25.9771C25.6474 25.9822 25.6457 25.9868 25.6452 25.992L19.7646 25.3794C19.7434 25.5869 19.7324 25.7974 19.7324 26.0105C19.7324 26.3791 19.7667 26.7393 19.829 27.0898L25.8686 26.465L31.9084 27.0898C31.9707 26.7391 32.005 26.379 32.005 26.0105C32.005 25.7974 31.9939 25.5869 31.9728 25.3794L26.0921 25.992C26.0917 25.9868 26.0898 25.9822 26.089 25.9771L31.9149 24.9684C31.8394 24.5262 31.7167 24.1001 31.5518 23.6955Z" fill="#FFB955"/>
<path d="M19.9385 27.5874C19.9806 27.7461 20.0292 27.9022 20.0834 28.0555H31.6551C31.7093 27.9022 31.7579 27.7461 31.8 27.5874C31.2331 27.5142 31.1627 27.1465 30.472 27.1465C29.7054 27.1465 29.7054 27.601 28.9386 27.601C28.1719 27.601 28.1719 27.1465 27.4051 27.1465C26.6382 27.1465 26.6382 27.601 25.8711 27.601C25.1046 27.601 25.1046 27.1465 24.338 27.1465C23.5707 27.1465 23.5707 27.601 22.8036 27.601C22.0359 27.601 22.0359 27.1465 21.2682 27.1465C20.5767 27.1465 20.5063 27.5143 19.9385 27.5874Z" fill="#4173CD"/>
<path d="M30.291 28.7377C29.5529 28.7376 29.5528 28.2832 28.8146 28.2832C28.0763 28.2832 28.0763 28.7377 27.3379 28.7377C26.5995 28.7377 26.5995 28.2832 25.8611 28.2832C25.1225 28.2832 25.1225 28.7377 24.3841 28.7377C23.6459 28.7377 23.6459 28.2832 22.9078 28.2832C22.169 28.2832 22.169 28.7377 21.4303 28.7377C20.7748 28.7377 20.6994 28.3811 20.1758 28.3C20.3008 28.6105 20.4489 28.9093 20.6209 29.1923H30.2907H30.2913H31.1171C31.2893 28.9087 31.4379 28.6092 31.5631 28.2978C31.0237 28.3736 30.9533 28.7377 30.291 28.7377Z" fill="#4173CD"/>
<path d="M30.8778 29.5534C30.7349 29.4785 30.5657 29.4199 30.3014 29.4199C29.563 29.4199 29.563 29.8744 28.8246 29.8744C28.0862 29.8744 28.0862 29.4199 27.3478 29.4199C26.6093 29.4199 26.6093 29.8744 25.8708 29.8744C25.1326 29.8744 25.1326 29.4199 24.3945 29.4199C23.6558 29.4199 23.6558 29.8744 22.917 29.8744C22.1776 29.8744 22.1776 29.4199 21.4385 29.4199C21.1731 29.4199 21.0035 29.4787 20.8604 29.5539C21.056 29.8298 21.2727 30.0895 21.5101 30.3291H30.2279C30.4653 30.0893 30.6822 29.8295 30.8778 29.5534Z" fill="#4173CD"/>
<path d="M29.6505 30.8402C29.4274 30.7109 29.248 30.5547 28.8148 30.5547C28.0765 30.5547 28.0765 31.0092 27.3381 31.0092C26.5997 31.0092 26.5997 30.5547 25.8613 30.5547C25.1227 30.5547 25.1227 31.0092 24.3843 31.0092C23.6461 31.0092 23.6461 30.5547 22.908 30.5547C22.4806 30.5547 22.3001 30.7066 22.0811 30.835C22.3853 31.0741 22.7124 31.2849 23.059 31.4639H28.6792C29.0233 31.2861 29.3481 31.0771 29.6505 30.8402Z" fill="#4173CD"/>
<path d="M24.395 31.6914C24.153 31.6914 23.9908 31.7404 23.8555 31.8061C24.4865 32.0252 25.1637 32.1459 25.8693 32.1459H25.8705C25.1331 32.1456 25.1329 31.6914 24.395 31.6914Z" fill="#4173CD"/>
<path d="M25.875 32.1458C26.5798 32.1451 27.256 32.0245 27.8861 31.8052C27.7512 31.7401 27.5893 31.6914 27.3486 31.6914C26.6112 31.6914 26.6099 32.1441 25.875 32.1458Z" fill="#4173CD"/>
<path d="M26.6748 25.2331L24.7303 24.6712C24.6212 24.6396 24.5456 24.5412 24.5441 24.4276C24.5352 23.7076 24.5039 21.1722 24.5039 20.7828C24.5039 20.3283 24.9584 19.6465 25.8676 19.6465H26.5844C26.6522 19.6465 26.6727 19.7389 26.6103 19.7655C26.282 19.9062 25.8677 20.1995 25.8677 20.7828C25.8677 21.4754 26.5271 21.7723 26.8414 21.8744C26.9385 21.906 27.0041 21.9951 27.0041 22.0973V24.9857C27.0039 25.1571 26.8395 25.2808 26.6748 25.2331Z" fill="#FF4B55"/>
<path d="M24.96 27.7773C25.0312 27.7342 25.1158 27.8062 25.0837 27.8832C24.8934 28.3401 24.4269 29.1925 23.5951 29.1925C22.4588 29.1925 22.2314 28.2834 22.2314 27.6016V22.7808C22.2314 22.6817 22.3117 22.6016 22.4106 22.6016H22.734C22.833 22.6016 22.9132 22.6818 22.9132 22.7808V27.3743C22.9135 27.9889 24.2057 28.2341 24.96 27.7773Z" fill="#FF4B55"/>
<path d="M26.6806 27.7773C26.6093 27.7342 26.5247 27.8062 26.5568 27.8832C26.7472 28.3401 27.2137 29.1925 28.0454 29.1925C29.1817 29.1925 29.4091 28.2834 29.4091 27.6016V22.7808C29.4091 22.6817 29.3288 22.6016 29.2299 22.6016H28.9065C28.8075 22.6016 28.7273 22.6818 28.7273 22.7808V27.3743C28.7271 27.9889 27.4349 28.2341 26.6806 27.7773Z" fill="#FF4B55"/>
<path d="M28.2603 27.0339H23.4798C23.4192 27.0339 23.3701 26.9848 23.3701 26.9242V26.9163C23.3701 26.8558 23.4192 26.8066 23.4798 26.8066H28.2603C28.3209 26.8066 28.37 26.8558 28.37 26.9163V26.9242C28.37 26.9849 28.3209 27.0339 28.2603 27.0339Z" fill="#AA4650"/>
<path d="M23.8519 26.1754L24.098 25.8473C24.1357 25.7972 24.1254 25.7258 24.0752 25.6881C24.0251 25.6506 23.9537 25.661 23.9161 25.7109L23.8203 25.8387V25.7504C23.8203 25.6876 23.7694 25.6367 23.7067 25.6367C23.6439 25.6367 23.593 25.6876 23.593 25.7504V25.8304L23.5034 25.7109C23.4658 25.6608 23.3946 25.6504 23.3443 25.6881C23.2941 25.7258 23.2839 25.7971 23.3216 25.8473L23.5677 26.1754L23.3216 26.5035C23.2839 26.5536 23.2942 26.625 23.3443 26.6627C23.3648 26.678 23.3887 26.6853 23.4123 26.6853C23.4469 26.6853 23.481 26.6696 23.5032 26.6398L23.7095 26.3647L23.9157 26.6398C23.938 26.6696 23.9721 26.6853 24.0067 26.6853C24.0304 26.6853 24.0543 26.678 24.0746 26.6627C24.1249 26.625 24.1351 26.5537 24.0974 26.5035L23.8519 26.1754Z" fill="#AA4650"/>
<path d="M25.9739 26.1754L26.22 25.8473C26.2577 25.7972 26.2475 25.7258 26.1973 25.6881C26.1472 25.6506 26.0758 25.661 26.0382 25.7109L25.9424 25.8387V25.7504C25.9424 25.6876 25.8915 25.6367 25.8287 25.6367C25.7659 25.6367 25.7151 25.6876 25.7151 25.7504V25.8304L25.6255 25.7109C25.5879 25.6608 25.5167 25.6504 25.4664 25.6881C25.4161 25.7258 25.406 25.7971 25.4437 25.8473L25.6898 26.1754L25.4437 26.5035C25.406 26.5536 25.4162 26.625 25.4664 26.6627C25.4868 26.678 25.5108 26.6853 25.5344 26.6853C25.569 26.6853 25.603 26.6696 25.6253 26.6398L25.8316 26.3647L26.0378 26.6398C26.0601 26.6696 26.0942 26.6853 26.1287 26.6853C26.1525 26.6853 26.1764 26.678 26.1967 26.6627C26.247 26.625 26.2571 26.5537 26.2194 26.5035L25.9739 26.1754Z" fill="#AA4650"/>
<path d="M24.9134 26.1754L25.1595 25.8473C25.1972 25.7972 25.1869 25.7258 25.1367 25.6881C25.0866 25.6506 25.0152 25.661 24.9776 25.7109L24.8818 25.8387V25.7504C24.8818 25.6876 24.831 25.6367 24.7682 25.6367C24.7054 25.6367 24.6545 25.6876 24.6545 25.7504V25.8304L24.565 25.7109C24.5274 25.6608 24.4562 25.6504 24.4059 25.6881C24.3556 25.7258 24.3454 25.7971 24.3831 25.8473L24.6292 26.1754L24.3831 26.5035C24.3454 26.5536 24.3557 26.625 24.4059 26.6627C24.4263 26.678 24.4502 26.6853 24.4738 26.6853C24.5084 26.6853 24.5425 26.6696 24.5648 26.6398L24.771 26.3647L24.9773 26.6398C24.9995 26.6696 25.0336 26.6853 25.0682 26.6853C25.0919 26.6853 25.1158 26.678 25.1361 26.6627C25.1864 26.625 25.1966 26.5537 25.1589 26.5035L24.9134 26.1754Z" fill="#AA4650"/>
<path d="M27.0345 26.1754L27.2806 25.8473C27.3183 25.7972 27.308 25.7258 27.2578 25.6881C27.2077 25.6506 27.1363 25.661 27.0987 25.7109L27.0029 25.8387V25.7504C27.0029 25.6876 26.9521 25.6367 26.8893 25.6367C26.8265 25.6367 26.7756 25.6876 26.7756 25.7504V25.8304L26.686 25.7109C26.6484 25.6608 26.5773 25.6504 26.527 25.6881C26.4767 25.7258 26.4665 25.7971 26.5042 25.8473L26.7503 26.1754L26.5042 26.5035C26.4665 26.5536 26.4768 26.625 26.527 26.6627C26.5474 26.678 26.5713 26.6853 26.5949 26.6853C26.6295 26.6853 26.6636 26.6696 26.6858 26.6398L26.8921 26.3647L27.0983 26.6398C27.1206 26.6696 27.1547 26.6853 27.1893 26.6853C27.213 26.6853 27.2369 26.678 27.2572 26.6627C27.3075 26.625 27.3177 26.5537 27.28 26.5035L27.0345 26.1754Z" fill="#AA4650"/>
<path d="M28.095 26.1754L28.3411 25.8473C28.3788 25.7972 28.3686 25.7258 28.3184 25.6881C28.2683 25.6506 28.1969 25.661 28.1593 25.7109L28.0635 25.8387V25.7504C28.0635 25.6876 28.0126 25.6367 27.9498 25.6367C27.887 25.6367 27.8361 25.6876 27.8361 25.7504V25.8304L27.7466 25.7109C27.709 25.6608 27.6378 25.6504 27.5875 25.6881C27.5372 25.7258 27.5271 25.7971 27.5648 25.8473L27.8109 26.1754L27.5648 26.5035C27.5271 26.5536 27.5373 26.625 27.5875 26.6627C27.6079 26.678 27.6318 26.6853 27.6555 26.6853C27.6901 26.6853 27.7241 26.6696 27.7464 26.6398L27.9526 26.3647L28.1589 26.6398C28.1812 26.6696 28.2152 26.6853 28.2498 26.6853C28.2735 26.6853 28.2975 26.678 28.3178 26.6627C28.3681 26.625 28.3782 26.5537 28.3405 26.5035L28.095 26.1754Z" fill="#AA4650"/>
<path d="M23.6426 27.7344C23.8106 27.8079 24.798 27.8185 25.0501 27.5559C25.3021 27.2933 25.2497 27.1777 25.2497 27.1777L24.0521 27.1882L23.6426 27.7344Z" fill="#AA4650"/>
<path d="M28.0492 27.7344C27.8811 27.8079 26.8937 27.8185 26.6416 27.5559C26.3896 27.2933 26.442 27.1777 26.442 27.1777L27.6396 27.1882L28.0492 27.7344Z" fill="#AA4650"/>
</g>
<defs>
<clipPath id="clip0_3462_31280">
<rect width="50" height="50" fill="white" transform="translate(0.869141 0.896484)"/>
</clipPath>
</defs>
</svg>
