<svg width="51" height="51" viewBox="0 0 51 51" fill="none" xmlns="http://www.w3.org/2000/svg">
<g clip-path="url(#clip0_3462_31265)">
<path d="M0.883789 31.0684H50.8837V41.4132C50.8837 41.8892 50.4977 42.2753 50.0216 42.2753H1.7459C1.26982 42.2753 0.883789 41.8892 0.883789 41.4132V31.0684Z" fill="#73AF00"/>
<path d="M1.7459 9.51758H50.0217C50.4978 9.51758 50.8838 9.90361 50.8838 10.3797V20.7245H0.883789V10.3796C0.883789 9.90351 1.26982 9.51758 1.7459 9.51758Z" fill="#FF4B55"/>
<path d="M50.8837 20.7227H0.883789V31.0674H50.8837V20.7227Z" fill="#41479B"/>
<path d="M50.8837 20.7227H0.883789V22.4468H50.8837V20.7227Z" fill="#F5F5F5"/>
<path d="M50.8847 29.3438H0.884766V31.0679H50.8847V29.3438Z" fill="#F5F5F5"/>
</g>
<defs>
<clipPath id="clip0_3462_31265">
<rect width="50" height="50" fill="white" transform="translate(0.882812 0.896484)"/>
</clipPath>
</defs>
</svg>
