<svg width="51" height="51" viewBox="0 0 51 51" fill="none" xmlns="http://www.w3.org/2000/svg">
<g clip-path="url(#clip0_3462_31257)">
<path d="M49.4483 41.5457H1.17265C0.696581 41.5457 0.310547 41.1597 0.310547 40.6836V9.64922C0.310547 9.17314 0.696581 8.78711 1.17265 8.78711H49.4484C49.9245 8.78711 50.3105 9.17314 50.3105 9.64922V40.6836C50.3104 41.1598 49.9244 41.5457 49.4483 41.5457Z" fill="#F5F5F5"/>
<path d="M50.3105 22.5802H27.8967V8.78711H22.7243V22.5802H0.310547V27.7526H22.7243V41.5456H27.8967V27.7526H50.3105V22.5802Z" fill="#FF4B55"/>
<path d="M14.9657 14.5064C14.1118 14.5923 13.2753 14.6783 12.4376 14.7644C12.5237 13.9267 12.6097 13.0901 12.6957 12.2363C11.9126 12.3376 11.1225 12.3376 10.3394 12.2363C10.4252 13.0901 10.5112 13.9268 10.5975 14.7644C9.75966 14.6784 8.92305 14.5924 8.06934 14.5064C8.17061 15.2894 8.17061 16.0797 8.06934 16.8627C8.92324 16.7768 9.75976 16.6908 10.5975 16.6047C10.5113 17.4425 10.4253 18.279 10.3394 19.1328C11.1225 19.0315 11.9126 19.0315 12.6957 19.1328C12.6099 18.279 12.5237 17.4424 12.4376 16.6047C13.2754 16.6907 14.1119 16.7768 14.9657 16.8627C14.8645 16.0797 14.8645 15.2894 14.9657 14.5064Z" fill="#FF4B55"/>
<path d="M42.5516 14.5064C41.6977 14.5923 40.8612 14.6783 40.0235 14.7644C40.1097 13.9267 40.1956 13.0901 40.2816 12.2363C39.4985 12.3376 38.7084 12.3376 37.9253 12.2363C38.0111 13.0901 38.0972 13.9268 38.1834 14.7644C37.3456 14.6784 36.509 14.5924 35.6553 14.5064C35.7565 15.2894 35.7565 16.0797 35.6553 16.8627C36.5092 16.7768 37.3457 16.6908 38.1834 16.6047C38.0973 17.4425 38.0112 18.279 37.9253 19.1328C38.7084 19.0315 39.4985 19.0315 40.2816 19.1328C40.1958 18.279 40.1097 17.4424 40.0235 16.6047C40.8613 16.6907 41.6978 16.7768 42.5516 16.8627C42.4505 16.0797 42.4505 15.2894 42.5516 14.5064Z" fill="#FF4B55"/>
<path d="M14.9657 33.4713C14.1118 33.5571 13.2753 33.6432 12.4376 33.7293C12.5237 32.8915 12.6097 32.055 12.6957 31.2012C11.9126 31.3024 11.1225 31.3024 10.3394 31.2012C10.4252 32.055 10.5112 32.8916 10.5975 33.7293C9.75966 33.6433 8.92305 33.5572 8.06934 33.4713C8.17061 34.2543 8.17061 35.0445 8.06934 35.8275C8.92324 35.7417 9.75976 35.6557 10.5975 35.5695C10.5113 36.4073 10.4253 37.2438 10.3394 38.0976C11.1225 37.9964 11.9126 37.9964 12.6957 38.0976C12.6099 37.2438 12.5237 36.4072 12.4376 35.5695C13.2754 35.6556 14.1119 35.7416 14.9657 35.8275C14.8645 35.0446 14.8645 34.2543 14.9657 33.4713Z" fill="#FF4B55"/>
<path d="M42.5516 33.4713C41.6977 33.5571 40.8612 33.6432 40.0235 33.7293C40.1097 32.8915 40.1956 32.055 40.2816 31.2012C39.4985 31.3024 38.7084 31.3024 37.9253 31.2012C38.0111 32.055 38.0972 32.8916 38.1834 33.7293C37.3456 33.6433 36.509 33.5572 35.6553 33.4713C35.7565 34.2543 35.7565 35.0445 35.6553 35.8275C36.5092 35.7417 37.3457 35.6557 38.1834 35.5695C38.0973 36.4073 38.0112 37.2438 37.9253 38.0976C38.7084 37.9964 39.4985 37.9964 40.2816 38.0976C40.1958 37.2438 40.1097 36.4072 40.0235 35.5695C40.8613 35.6556 41.6978 35.7416 42.5516 35.8275C42.4505 35.0446 42.4505 34.2543 42.5516 33.4713Z" fill="#FF4B55"/>
</g>
<defs>
<clipPath id="clip0_3462_31257">
<rect width="50" height="50" fill="white" transform="translate(0.310547 0.166016)"/>
</clipPath>
</defs>
</svg>
