<svg width="51" height="51" viewBox="0 0 51 51" fill="none" xmlns="http://www.w3.org/2000/svg">
<g clip-path="url(#clip0_3462_31248)">
<path d="M50.0312 19.9802H0.03125V9.92265C0.03125 9.44658 0.417284 9.06055 0.893358 9.06055H49.1691C49.6452 9.06055 50.0312 9.44658 50.0312 9.92265L50.0312 19.9802Z" fill="#FF4B55"/>
<path d="M49.169 41.8179H0.893358C0.417284 41.8179 0.03125 41.4319 0.03125 40.9558V30.8984H50.0312V40.9558C50.0312 41.432 49.6451 41.8179 49.169 41.8179Z" fill="#73AF00"/>
<path d="M50.0312 19.9805H0.03125V30.8994H50.0312V19.9805Z" fill="#FFE15A"/>
<path d="M25.3951 21.3283L26.2948 24.0259L29.1384 24.048C29.5064 24.0508 29.6592 24.5206 29.3631 24.7394L27.0756 26.4286L27.9333 29.1399C28.0444 29.4908 27.6447 29.7813 27.3451 29.5671L25.0316 27.9134L22.7182 29.5669C22.4187 29.7811 22.019 29.4906 22.13 29.1397L22.9877 26.4284L20.7002 24.7392C20.4041 24.5204 20.5566 24.0507 20.9249 24.0478L23.7684 24.0257L24.6681 21.3281C24.7847 20.9791 25.2786 20.9791 25.3951 21.3283Z" fill="#464655"/>
</g>
<defs>
<clipPath id="clip0_3462_31248">
<rect width="50" height="50" fill="white" transform="translate(0.03125 0.439453)"/>
</clipPath>
</defs>
</svg>
