<svg width="51" height="51" viewBox="0 0 51 51" fill="none" xmlns="http://www.w3.org/2000/svg">
<g clip-path="url(#clip0_3462_31235)">
<path d="M49.461 41.8191H1.18535C0.709277 41.8191 0.323242 41.433 0.323242 40.957V9.92265C0.323242 9.44658 0.709277 9.06055 1.18535 9.06055H49.4611C49.9372 9.06055 50.3232 9.44658 50.3232 9.92265V40.957C50.3231 41.4331 49.9371 41.8191 49.461 41.8191Z" fill="#F5F5F5"/>
<path d="M49.4601 41.8182H1.18437C0.7083 41.8182 0.322266 41.4322 0.322266 40.9561V30.6113H50.3222V40.9561C50.3222 41.4323 49.9361 41.8182 49.4601 41.8182Z" fill="#FF4B55"/>
<path d="M34.8044 21.1292V19.4051H33.0802V15.0947H33.9423V13.3706H28.7699V15.0947H29.6319V19.4051H27.0458V13.3706H27.9078V11.6465H22.7354V13.3706H23.5974V19.4051H21.0113V15.0947H21.8733V13.3706H16.701V15.0947H17.563V19.4051H15.8389V21.1292H16.701V28.0257H15.8389V29.7499H34.8044V28.0257H33.9423V21.1292H34.8044Z" fill="#FF4B55"/>
<path d="M27.0469 28.8872H23.5986V25.439C23.5986 24.4867 24.3705 23.7148 25.3228 23.7148C26.275 23.7148 27.0469 24.4867 27.0469 25.439V28.8872Z" fill="#464655"/>
<path d="M25.3221 16.8184C24.846 16.8184 24.46 17.2044 24.46 17.6805V20.2667H26.1841V17.6805C26.1842 17.2044 25.7981 16.8184 25.3221 16.8184Z" fill="#464655"/>
<path d="M31.3572 17.6797C30.8812 17.6797 30.4951 18.0657 30.4951 18.5418V20.2659H32.2192V18.5418C32.2193 18.0656 31.8335 17.6797 31.3572 17.6797Z" fill="#464655"/>
<path d="M19.2879 17.6797C18.8118 17.6797 18.4258 18.0657 18.4258 18.5418V20.2659H20.1499V18.5418C20.15 18.0656 19.764 17.6797 19.2879 17.6797Z" fill="#464655"/>
<path d="M32.2187 28.8865H28.7705V26.3003C28.7705 25.348 29.5424 24.5762 30.4946 24.5762C31.4469 24.5762 32.2187 25.348 32.2187 26.3003V28.8865Z" fill="#464655"/>
<path d="M21.874 28.8865H18.4258V26.3003C18.4258 25.348 19.1977 24.5762 20.1499 24.5762C21.1021 24.5762 21.874 25.348 21.874 26.3003V28.8865Z" fill="#464655"/>
<path d="M27.6935 31.9053C27.6935 31.7614 27.6216 31.6266 27.5016 31.5467L25.7539 30.3817V30.0168L27.2397 29.2738C27.4528 29.1674 27.539 28.9084 27.4325 28.6955C27.3256 28.4821 27.0676 28.3963 26.8542 28.5027L25.3228 29.2684L23.7915 28.5028C23.5793 28.3964 23.3196 28.4822 23.2132 28.6956C23.1067 28.9087 23.193 29.1674 23.406 29.2739L24.8918 30.0168V30.3817L23.144 31.5469C23.0241 31.6268 22.9521 31.7615 22.9521 31.9054C22.9521 32.0494 23.0241 32.1841 23.144 32.264L24.8918 33.4293V37.0779H23.1677V37.7379C23.1677 37.9762 23.3604 38.169 23.5987 38.169C23.7637 38.169 23.9072 38.0764 23.9797 37.94H24.8919V38.8021H23.9722C23.8978 38.6733 23.7584 38.5866 23.5988 38.5866C23.3605 38.5866 23.1678 38.7793 23.1678 39.0176V39.6642H24.8919V40.0953C24.8919 40.3335 25.0847 40.5263 25.3229 40.5263C25.5612 40.5263 25.754 40.3335 25.754 40.0953V39.6642V37.078V33.4294L27.5017 32.2641C27.6216 32.1839 27.6935 32.0493 27.6935 31.9053ZM25.3228 32.6803L24.1602 31.9053L25.3228 31.1304L26.4854 31.9053L25.3228 32.6803Z" fill="#FFE15A"/>
</g>
<defs>
<clipPath id="clip0_3462_31235">
<rect width="50" height="50" fill="white" transform="translate(0.324219 0.439453)"/>
</clipPath>
</defs>
</svg>
