<svg width="51" height="51" viewBox="0 0 51 51" fill="none" xmlns="http://www.w3.org/2000/svg">
<g clip-path="url(#clip0_3462_31218)">
<path d="M50.1786 25.4399H0.178711V9.92265C0.178711 9.44658 0.564745 9.06055 1.04082 9.06055H49.3166C49.7927 9.06055 50.1787 9.44658 50.1787 9.92265L50.1786 25.4399Z" fill="#F5F5F5"/>
<path d="M0.178711 25.4395H50.1786V40.9567C50.1786 41.4328 49.7926 41.8188 49.3165 41.8188H1.04082C0.564745 41.8188 0.178711 41.4328 0.178711 40.9567V25.4395Z" fill="#FF4B55"/>
<path d="M17.4198 14.2324C11.2304 14.2324 6.21289 19.25 6.21289 25.4393H28.6266C28.6266 19.25 23.6092 14.2324 17.4198 14.2324Z" fill="#FF4B55"/>
<path d="M17.4198 36.6464C23.6092 36.6464 28.6267 31.6288 28.6267 25.4395H6.21289C6.21289 31.6289 11.2305 36.6464 17.4198 36.6464Z" fill="#F5F5F5"/>
</g>
<defs>
<clipPath id="clip0_3462_31218">
<rect width="50" height="50" fill="white" transform="translate(0.179688 0.439453)"/>
</clipPath>
</defs>
</svg>
