<svg width="51" height="51" viewBox="0 0 51 51" fill="none" xmlns="http://www.w3.org/2000/svg">
<g clip-path="url(#clip0_3462_31224)">
<path d="M50.7519 12.7012H0.751953V16.3408H50.7519V12.7012Z" fill="#F5F5F5"/>
<path d="M50.7519 19.9805H0.751953V23.6201H50.7519V19.9805Z" fill="#F5F5F5"/>
<path d="M50.7519 27.2598H0.751953V30.8994H50.7519V27.2598Z" fill="#F5F5F5"/>
<path d="M50.7519 30.9004H0.751953V34.54H50.7519V30.9004Z" fill="#41479B"/>
<path d="M50.7519 34.5391H0.751953V38.1787H50.7519V34.5391Z" fill="#F5F5F5"/>
<path d="M1.61406 41.8196H49.8898C50.3659 41.8196 50.752 41.4336 50.752 40.9575V38.1797H0.751953V40.9575C0.751953 41.4337 1.13799 41.8196 1.61406 41.8196Z" fill="#41479B"/>
<path d="M50.7519 12.7005V9.92265C50.7519 9.44658 50.3658 9.06055 49.8897 9.06055H1.61406C1.13799 9.06064 0.751953 9.44658 0.751953 9.92265V16.3403V19.9801V27.2598H50.7519V23.62H17.9933V19.9802H50.7519V16.3403H17.9933V12.7005C17.9933 12.7005 50.7519 12.7005 50.7519 12.7005Z" fill="#41479B"/>
<path d="M17.9933 16.3402H11.1926V9.06055H7.55272V16.3402H0.751953V19.9801H7.55272V27.2597H11.1926V19.9801H17.9933V16.3402Z" fill="#F5F5F5"/>
</g>
<defs>
<clipPath id="clip0_3462_31224">
<rect width="50" height="50" fill="white" transform="translate(0.751953 0.439453)"/>
</clipPath>
</defs>
</svg>
