<svg width="51" height="51" viewBox="0 0 51 51" fill="none" xmlns="http://www.w3.org/2000/svg">
<g clip-path="url(#clip0_3462_31201)">
<path d="M49.7472 41.8191H1.47148C0.995409 41.8191 0.609375 41.433 0.609375 40.957V9.92265C0.609375 9.44658 0.995409 9.06055 1.47148 9.06055H49.7473C50.2233 9.06055 50.6094 9.44658 50.6094 9.92265V40.957C50.6093 41.4331 50.2232 41.8191 49.7472 41.8191Z" fill="#FF4B55"/>
<path d="M45.4372 14.2324V36.6462H5.78223V14.2324H45.4372Z" fill="#FFE15A"/>
<path d="M5.78223 14.2324L25.6097 25.4392L5.78223 36.6461V14.2324Z" fill="#73AF00"/>
<path d="M45.4379 14.2324L25.6104 25.4392L45.4379 36.6461V14.2324Z" fill="#73AF00"/>
<path d="M25.6094 28.8867C27.5138 28.8867 29.0576 27.3429 29.0576 25.4385C29.0576 23.5341 27.5138 21.9902 25.6094 21.9902C23.705 21.9902 22.1611 23.5341 22.1611 25.4385C22.1611 27.3429 23.705 28.8867 25.6094 28.8867Z" fill="#FF4B55"/>
<path d="M25.8286 22.9129L26.368 24.5299L28.0725 24.5432C28.2932 24.5449 28.3847 24.8265 28.2071 24.9576L26.836 25.9702L27.3502 27.5954C27.4168 27.8059 27.1773 27.9799 26.9976 27.8516L25.6108 26.8602L24.224 27.8516C24.0446 27.9799 23.805 27.8059 23.8715 27.5954L24.3858 25.9702L23.0146 24.9576C22.837 24.8265 22.9285 24.5449 23.1492 24.5432L24.8537 24.5299L25.3931 22.9129C25.4626 22.7035 25.7588 22.7035 25.8286 22.9129Z" fill="#FFE15A"/>
<path d="M25.7388 10.2041L26.0574 11.1595L27.0645 11.1672C27.1949 11.1682 27.249 11.3347 27.144 11.412L26.3338 12.0102L26.6376 12.9705C26.6769 13.0948 26.5353 13.1976 26.4293 13.1218L25.61 12.5364L24.7906 13.1221C24.6846 13.1979 24.543 13.095 24.5823 12.9708L24.8861 12.0105L24.0759 11.4123C23.971 11.3348 24.025 11.1684 24.1554 11.1675L25.1625 11.1598L25.4811 10.2044C25.5224 10.0804 25.6974 10.0804 25.7388 10.2041Z" fill="#FFE15A"/>
<path d="M37.0807 10.2041L37.3994 11.1595L38.4065 11.1672C38.5369 11.1682 38.591 11.3347 38.486 11.412L37.6758 12.0103L37.9796 12.9705C38.0189 13.0948 37.8773 13.1977 37.7713 13.1218L36.9518 12.5362L36.1324 13.1218C36.0264 13.1977 35.8848 13.0947 35.9241 12.9705L36.2279 12.0103L35.4177 11.412C35.3128 11.3346 35.3668 11.1682 35.4972 11.1672L36.5043 11.1595L36.8229 10.2041C36.8645 10.0804 37.0394 10.0804 37.0807 10.2041Z" fill="#FFE15A"/>
<path d="M14.3971 10.2041L14.7158 11.1595L15.7229 11.1672C15.8533 11.1682 15.9074 11.3347 15.8024 11.412L14.9922 12.0103L15.296 12.9705C15.3353 13.0948 15.1937 13.1977 15.0877 13.1218L14.2682 12.5362L13.4488 13.1218C13.3428 13.1977 13.2012 13.0947 13.2405 12.9705L13.5443 12.0103L12.7341 11.412C12.6292 11.3346 12.6832 11.1682 12.8136 11.1672L13.8207 11.1595L14.1393 10.2041C14.1809 10.0804 14.3559 10.0804 14.3971 10.2041Z" fill="#FFE15A"/>
<path d="M25.7388 37.7431L26.0574 38.6984L27.0645 38.7062C27.1949 38.7071 27.249 38.8736 27.144 38.951L26.3338 39.5492L26.6376 40.5095C26.6769 40.6338 26.5353 40.7366 26.4293 40.6607L25.61 40.0754L24.7906 40.661C24.6846 40.7369 24.543 40.634 24.5823 40.5098L24.8861 39.5495L24.0759 38.9513C23.971 38.8738 24.025 38.7074 24.1554 38.7065L25.1625 38.6987L25.4811 37.7434C25.5224 37.6194 25.6974 37.6194 25.7388 37.7431Z" fill="#FFE15A"/>
<path d="M37.0807 37.7431L37.3994 38.6985L38.4065 38.7062C38.5369 38.7072 38.591 38.8737 38.486 38.951L37.6758 39.5493L37.9796 40.5095C38.0189 40.6338 37.8773 40.7367 37.7713 40.6608L36.9518 40.0751L36.1324 40.6608C36.0264 40.7367 35.8848 40.6337 35.9241 40.5095L36.2279 39.5493L35.4177 38.951C35.3128 38.8736 35.3668 38.7072 35.4972 38.7062L36.5043 38.6985L36.8229 37.7431C36.8645 37.6195 37.0394 37.6195 37.0807 37.7431Z" fill="#FFE15A"/>
<path d="M14.3971 37.7431L14.7158 38.6985L15.7229 38.7062C15.8533 38.7072 15.9074 38.8737 15.8024 38.951L14.9922 39.5493L15.296 40.5095C15.3353 40.6338 15.1937 40.7367 15.0877 40.6608L14.2682 40.0751L13.4488 40.6608C13.3428 40.7367 13.2012 40.6337 13.2405 40.5095L13.5443 39.5493L12.7341 38.951C12.6292 38.8736 12.6832 38.7072 12.8136 38.7062L13.8207 38.6985L14.1393 37.7431C14.1809 37.6195 14.3559 37.6195 14.3971 37.7431Z" fill="#FFE15A"/>
<path d="M12.1405 23.2832H9.98535V25.4384C9.98535 26.6287 10.9502 27.5936 12.1405 27.5936C13.3309 27.5936 14.2957 26.6287 14.2957 25.4384C14.2957 24.248 13.3308 23.2832 12.1405 23.2832Z" fill="#FFE15A"/>
<path d="M14.2948 27.5946L13.1101 27.3649L12.1396 25.4395L14.0651 26.4101L14.2948 27.5946Z" fill="#FF4B55"/>
</g>
<defs>
<clipPath id="clip0_3462_31201">
<rect width="50" height="50" fill="white" transform="translate(0.609375 0.439453)"/>
</clipPath>
</defs>
</svg>
