<svg width="51" height="51" viewBox="0 0 51 51" fill="none" xmlns="http://www.w3.org/2000/svg">
<g clip-path="url(#clip0_3462_31187)">
<path d="M49.1769 41.8191H0.90117C0.425097 41.8191 0.0390625 41.433 0.0390625 40.957V9.92265C0.0390625 9.44658 0.425097 9.06055 0.90117 9.06055H49.177C49.653 9.06055 50.0391 9.44658 50.0391 9.92265V40.957C50.039 41.4331 49.6529 41.8191 49.1769 41.8191Z" fill="#41479B"/>
<path d="M25.0386 16.8184C21.7623 18.5421 19.5527 22.6475 19.5527 25.439C19.5527 28.2306 21.7623 32.3361 25.0386 34.0597C28.3148 32.336 30.5244 28.2306 30.5244 25.439C30.5244 22.6475 28.3149 18.5421 25.0386 16.8184Z" fill="#3CC8FF"/>
<path d="M25.7458 22.4882C26.2751 22.2092 27.1788 21.9021 28.2057 22.279C28.2057 22.279 27.2167 21.1773 25.8442 22.0749C26.2135 21.6271 26.768 21.0728 27.3684 20.9185C27.3684 20.9185 26.1734 20.4722 25.4504 22.0658C25.5904 21.262 25.5649 19.9964 24.2693 19.2617C24.2693 19.2617 24.9937 20.8163 25.0649 22.1063C25.0228 21.8774 24.9386 21.6382 24.7161 21.4061C24.0311 20.6914 23.4354 20.6318 23.4354 20.6318C23.4354 20.6318 24.3853 21.6844 24.8519 22.6802C24.5831 22.3585 24.1093 21.9466 23.3461 21.972C21.559 22.0315 21.1719 23.1037 21.1719 23.1037C21.9127 22.7918 23.0884 22.6364 23.9998 22.7135C22.8231 22.9208 22.4051 24.3867 22.4051 24.3867C23.3499 23.2086 24.3811 23.0172 24.7929 22.9892C24.0407 23.6113 24.0865 24.7571 24.0865 24.7571C24.2613 24.1121 24.9385 23.3769 25.2685 23.0475C26.1569 24.0087 26.2621 25.0891 26.2621 25.0891C26.2621 25.0891 26.4565 24.7641 26.3669 24.1024C26.2821 23.4778 25.8901 23.0678 25.591 22.8268C27.1598 23.0431 28.1834 24.1809 28.1834 24.1809C27.6702 22.6837 26.3857 22.4887 25.7458 22.4882Z" fill="#73AF00"/>
<path d="M48.3148 10.7847V40.0949H1.76318V10.7847H48.3148ZM49.1769 9.06055H0.90117C0.425097 9.06055 0.0390625 9.44658 0.0390625 9.92265V40.957C0.0390625 41.433 0.425097 41.8191 0.90117 41.8191H49.177C49.653 41.8191 50.0391 41.433 50.0391 40.957V9.92265C50.039 9.44658 49.6529 9.06055 49.1769 9.06055Z" fill="#FF4B55"/>
<path d="M23.2871 27.5224L24.0774 26.1573L30.5699 26.0137L30.1389 27.8096L23.2871 27.5224Z" fill="#FF965A"/>
<path d="M19.7891 27.1641C20.4398 29.7181 22.3897 32.6673 25.0381 34.0606C27.6864 32.6673 29.6363 29.7181 30.2871 27.1641H19.7891Z" fill="#4173CD"/>
<path d="M20.7285 29.7498C20.7285 29.7498 22.6089 29.6568 23.7386 30.1206C24.0208 30.2364 24.0573 30.6177 23.8024 30.7854C23.2521 31.1475 22.4526 31.7707 22.4526 32.336L20.7285 29.7498Z" fill="#FFE15A"/>
<path d="M24.0329 33.1972C23.961 32.4787 24.5967 31.9562 25.4696 31.6167C26.601 31.1768 25.9814 30.4763 25.4157 30.0184C24.741 29.4723 25.6133 29.318 29.277 29.2461L27.481 32.0478L25.0385 34.0594L24.0329 33.1972Z" fill="#FFE15A"/>
<path d="M25.0382 34.5482L24.8374 34.4422C21.4183 32.6439 19.1211 28.3353 19.1211 25.4401C19.1211 22.545 21.4181 18.2362 24.8374 16.4381L25.0382 16.332L25.239 16.4381C28.6582 18.2363 30.9551 22.5449 30.9551 25.4401C30.9551 28.3352 28.6582 32.644 25.239 34.4422L25.0382 34.5482ZM25.0382 17.3103C22.0054 19.0227 19.9832 22.8531 19.9832 25.44C19.9832 28.0269 22.0054 31.8576 25.0382 33.5698C28.071 31.8574 30.0931 28.0269 30.0931 25.44C30.0931 22.8531 28.0711 19.0226 25.0382 17.3103Z" fill="#FF4B55"/>
<path d="M26.8708 30.3597C26.8313 30.3597 26.7917 30.3491 26.7563 30.3267C25.5848 29.5905 24.9131 28.3719 24.9131 26.9833V23.0144C24.9131 22.8953 25.0096 22.7988 25.1286 22.7988C25.2477 22.7988 25.3441 22.8953 25.3441 23.0144V26.9833C25.3441 28.2204 25.9423 29.306 26.9853 29.9614C27.0863 30.025 27.1166 30.158 27.0534 30.2586C27.0123 30.3239 26.9424 30.3597 26.8708 30.3597Z" fill="#A54B37"/>
<path d="M25.1277 23.4996C25.3881 23.4996 25.5992 23.2885 25.5992 23.0281C25.5992 22.7677 25.3881 22.5566 25.1277 22.5566C24.8673 22.5566 24.6562 22.7677 24.6562 23.0281C24.6562 23.2885 24.8673 23.4996 25.1277 23.4996Z" fill="#A54B37"/>
</g>
<defs>
<clipPath id="clip0_3462_31187">
<rect width="50" height="50" fill="white" transform="translate(0.0390625 0.439453)"/>
</clipPath>
</defs>
</svg>
