<svg width="51" height="51" viewBox="0 0 51 51" fill="none" xmlns="http://www.w3.org/2000/svg">
<g clip-path="url(#clip0_3462_31114)">
<path d="M17.1364 41.8192H1.33184C0.855762 41.8192 0.469727 41.4332 0.469727 40.9571V9.92266C0.469727 9.44658 0.855762 9.06055 1.33184 9.06055H17.1364V41.8192Z" fill="#82AFFF"/>
<path d="M33.8027 9.06055H17.1357V41.8193H33.8027V9.06055Z" fill="#F5F5F5"/>
<path d="M49.6073 41.8191H33.8027V9.06055H49.6073C50.0834 9.06055 50.4694 9.44658 50.4694 9.92266V40.9571C50.4694 41.4333 50.0834 41.8191 49.6073 41.8191Z" fill="#82AFFF"/>
<path d="M25.2512 21.1523L24.7568 21.3996L25.2116 21.5873L25.2512 21.1523Z" fill="#FFC855"/>
<path d="M25.469 30.2863C22.7215 30.2863 20.4863 28.051 20.4863 25.3036C20.4863 23.5968 21.3454 22.0274 22.7843 21.1055L22.9122 21.3053C21.5417 22.1835 20.7236 23.6782 20.7236 25.3036C20.7236 27.9203 22.8525 30.0491 25.4691 30.0491L25.469 30.2863Z" fill="#73AF00"/>
<path d="M22.6172 30.5982C22.807 30.6368 23.0999 30.5867 23.4007 30.4467C23.7016 30.3065 23.9282 30.1145 24.0207 29.9443C23.8309 29.9056 23.538 29.9557 23.2372 30.0957C22.9365 30.2361 22.7098 30.428 22.6172 30.5982Z" fill="#73AF00"/>
<path d="M24.022 29.9445C24.0607 29.7547 24.0106 29.4618 23.8705 29.161C23.7303 28.8602 23.5383 28.6335 23.3681 28.541C23.3294 28.7309 23.3795 29.0237 23.5196 29.3245C23.6597 29.6251 23.8517 29.8519 24.022 29.9445Z" fill="#73AF00"/>
<path d="M21.625 29.9885C21.8071 30.0547 22.1042 30.048 22.4223 29.9537C22.7403 29.8593 22.9929 29.7025 23.1094 29.5477C22.9272 29.4815 22.6302 29.4882 22.3121 29.5825C21.994 29.6769 21.7415 29.8336 21.625 29.9885Z" fill="#73AF00"/>
<path d="M23.1095 29.5488C23.1758 29.3667 23.1691 29.0696 23.0748 28.7516C22.9803 28.4334 22.8236 28.181 22.6688 28.0645C22.6026 28.2466 22.6093 28.5437 22.7036 28.8617C22.798 29.1799 22.9548 29.4324 23.1095 29.5488Z" fill="#73AF00"/>
<path d="M20.707 29.157C20.8743 29.2548 21.1677 29.3018 21.4977 29.266C21.8276 29.2303 22.1041 29.1214 22.2465 28.9901C22.0792 28.8923 21.7858 28.8453 21.4559 28.8811C21.1259 28.9168 20.8494 29.0257 20.707 29.157Z" fill="#73AF00"/>
<path d="M22.2459 28.9906C22.3437 28.8233 22.3906 28.53 22.3549 28.2C22.3192 27.87 22.2103 27.5936 22.0789 27.4512C21.9812 27.6185 21.9342 27.9118 21.9699 28.2418C22.0057 28.5718 22.1146 28.8483 22.2459 28.9906Z" fill="#73AF00"/>
<path d="M19.9482 28.0112C20.0955 28.1371 20.376 28.2352 20.707 28.2584C21.0381 28.2815 21.3296 28.2234 21.4929 28.1194C21.3456 27.9935 21.0651 27.8954 20.7341 27.8722C20.403 27.8491 20.1116 27.9072 19.9482 28.0112Z" fill="#73AF00"/>
<path d="M21.4927 28.1188C21.6186 27.9716 21.7167 27.6911 21.7399 27.3601C21.763 27.029 21.7049 26.7375 21.6009 26.5742C21.475 26.7215 21.3769 27.002 21.3537 27.333C21.3305 27.6642 21.3886 27.9555 21.4927 28.1188Z" fill="#73AF00"/>
<path d="M19.5039 26.7471C19.6215 26.9011 19.8749 27.0561 20.1938 27.1483C20.5126 27.2406 20.8096 27.2451 20.9913 27.1777C20.8737 27.0237 20.6203 26.8687 20.3015 26.7765C19.9826 26.6842 19.6855 26.6796 19.5039 26.7471Z" fill="#73AF00"/>
<path d="M20.9911 27.1769C21.1451 27.0593 21.3001 26.8059 21.3924 26.487C21.4848 26.1682 21.4892 25.8712 21.4218 25.6895C21.2678 25.807 21.1128 26.0604 21.0205 26.3793C20.9282 26.6982 20.9238 26.9951 20.9911 27.1769Z" fill="#73AF00"/>
<path d="M19.3154 25.2701C19.3895 25.4492 19.5945 25.6641 19.8789 25.8354C20.1633 26.0065 20.4491 26.0873 20.6421 26.0688C20.5681 25.8897 20.363 25.6749 20.0786 25.5036C19.7943 25.3324 19.5083 25.2519 19.3154 25.2701Z" fill="#73AF00"/>
<path d="M20.6422 26.0689C20.8213 25.9948 21.0362 25.7897 21.2075 25.5054C21.3787 25.221 21.4594 24.9352 21.441 24.7422C21.2619 24.8162 21.047 25.0213 20.8757 25.3057C20.7046 25.5901 20.6238 25.876 20.6422 26.0689Z" fill="#73AF00"/>
<path d="M19.4932 23.877C19.5279 24.0676 19.6835 24.3207 19.9256 24.5478C20.1677 24.7748 20.4305 24.9136 20.6228 24.9361C20.588 24.7455 20.4324 24.4924 20.1903 24.2653C19.9482 24.0384 19.6856 23.8994 19.4932 23.877Z" fill="#73AF00"/>
<path d="M20.623 24.9362C20.8137 24.9015 21.0668 24.7459 21.2938 24.5038C21.5209 24.2617 21.6597 23.9989 21.6822 23.8066C21.4916 23.8414 21.2385 23.997 21.0114 24.2391C20.7844 24.4811 20.6454 24.7437 20.623 24.9362Z" fill="#73AF00"/>
<path d="M20.1932 22.3711C20.1534 22.5606 20.2015 22.8538 20.3398 23.1556C20.4781 23.4573 20.6687 23.6852 20.8383 23.7788C20.8782 23.5893 20.83 23.2961 20.6917 22.9943C20.5534 22.6925 20.3628 22.4646 20.1932 22.3711Z" fill="#73AF00"/>
<path d="M20.8389 23.7778C21.0284 23.8176 21.3216 23.7695 21.6233 23.6312C21.9251 23.4929 22.1529 23.3023 22.2466 23.1326C22.057 23.0928 21.7639 23.1409 21.4621 23.2792C21.1604 23.4175 20.9324 23.6081 20.8389 23.7778Z" fill="#73AF00"/>
<path d="M21.0312 21.2539C20.9418 21.4258 20.9094 21.7212 20.9615 22.0489C21.0135 22.3768 21.1358 22.6476 21.274 22.7832C21.3634 22.6113 21.3958 22.3159 21.3438 21.9882C21.2917 21.6604 21.1694 21.3896 21.0312 21.2539Z" fill="#73AF00"/>
<path d="M21.2734 22.7828C21.4453 22.8722 21.7407 22.9046 22.0685 22.8526C22.3963 22.8005 22.6671 22.6782 22.8027 22.54C22.6309 22.4506 22.3354 22.4182 22.0077 22.4702C21.6799 22.5223 21.4091 22.6446 21.2734 22.7828Z" fill="#73AF00"/>
<path d="M21.8512 20.4766C21.7375 20.6335 21.6619 20.9207 21.6651 21.2526C21.6684 21.5846 21.7495 21.8703 21.8662 22.0249C21.9799 21.868 22.0555 21.5808 22.0522 21.2488C22.049 20.917 21.968 20.6311 21.8512 20.4766Z" fill="#73AF00"/>
<path d="M21.8662 22.0254C22.0231 22.1391 22.3104 22.2146 22.6423 22.2114C22.9742 22.2082 23.26 22.1271 23.4146 22.0104C23.2576 21.8967 22.9704 21.8211 22.6385 21.8243C22.3066 21.8275 22.0209 21.9088 21.8662 22.0254Z" fill="#73AF00"/>
<path d="M22.2646 21.618C22.4577 21.6337 22.7426 21.549 23.0244 21.3737C23.3063 21.1985 23.5084 20.9807 23.5799 20.8007C23.3868 20.785 23.102 20.8697 22.8201 21.045C22.5383 21.2201 22.3362 21.4379 22.2646 21.618Z" fill="#73AF00"/>
<path d="M25.4697 30.2864V30.0491C28.0863 30.0491 30.2152 27.9203 30.2152 25.3036C30.2152 23.6782 29.3971 22.1834 28.0267 21.3053L28.1546 21.1055C29.5935 22.0274 30.4525 23.5969 30.4525 25.3036C30.4524 28.051 28.2173 30.2864 25.4697 30.2864Z" fill="#73AF00"/>
<path d="M28.3205 30.5982C28.1307 30.6368 27.8378 30.5867 27.537 30.4467C27.2361 30.3065 27.0095 30.1145 26.917 29.9443C27.1068 29.9056 27.3997 29.9557 27.7005 30.0957C28.0012 30.2361 28.2279 30.428 28.3205 30.5982Z" fill="#73AF00"/>
<path d="M26.9179 29.9445C26.8792 29.7547 26.9293 29.4618 27.0694 29.161C27.2096 28.8602 27.4016 28.6335 27.5718 28.541C27.6105 28.7309 27.5604 29.0237 27.4203 29.3245C27.2802 29.6251 27.0882 29.8519 26.9179 29.9445Z" fill="#73AF00"/>
<path d="M29.3145 29.9885C29.1323 30.0547 28.8353 30.048 28.5172 29.9537C28.1991 29.8593 27.9466 29.7025 27.8301 29.5477C28.0122 29.4815 28.3093 29.4882 28.6273 29.5825C28.9454 29.6769 29.198 29.8336 29.3145 29.9885Z" fill="#73AF00"/>
<path d="M27.8289 29.5488C27.7628 29.3667 27.7694 29.0696 27.8637 28.7516C27.9582 28.4334 28.1149 28.181 28.2697 28.0645C28.3359 28.2466 28.3292 28.5437 28.2349 28.8617C28.1406 29.1799 27.9838 29.4324 27.8289 29.5488Z" fill="#73AF00"/>
<path d="M30.2318 29.157C30.0646 29.2548 29.7712 29.3018 29.4412 29.266C29.1112 29.2303 28.8348 29.1214 28.6924 28.9901C28.8597 28.8923 29.153 28.8453 29.483 28.8811C29.813 28.9168 30.0895 29.0257 30.2318 29.157Z" fill="#73AF00"/>
<path d="M28.6932 28.9906C28.5954 28.8233 28.5485 28.53 28.5842 28.2C28.6199 27.87 28.7288 27.5936 28.8602 27.4512C28.9579 27.6185 29.0049 27.9118 28.9692 28.2418C28.9334 28.5718 28.8245 28.8483 28.6932 28.9906Z" fill="#73AF00"/>
<path d="M30.9909 28.0112C30.8437 28.1371 30.5632 28.2352 30.2321 28.2584C29.9011 28.2815 29.6097 28.2234 29.4463 28.1194C29.5936 27.9935 29.874 27.8954 30.2051 27.8722C30.5361 27.8491 30.8275 27.9072 30.9909 28.0112Z" fill="#73AF00"/>
<path d="M29.4466 28.1188C29.3207 27.9716 29.2225 27.6911 29.1994 27.3601C29.1762 27.029 29.2343 26.7375 29.3384 26.5742C29.4642 26.7215 29.5624 27.002 29.5855 27.333C29.6088 27.6642 29.5507 27.9555 29.4466 28.1188Z" fill="#73AF00"/>
<path d="M31.4356 26.7471C31.3181 26.9011 31.0647 27.0561 30.7458 27.1483C30.4271 27.2407 30.13 27.2451 29.9482 27.1777C30.0658 27.0237 30.3192 26.8687 30.6381 26.7765C30.9569 26.6842 31.254 26.6796 31.4356 26.7471Z" fill="#73AF00"/>
<path d="M29.9482 27.1769C29.7942 27.0593 29.6392 26.8059 29.547 26.487C29.4546 26.1682 29.4502 25.8712 29.5176 25.6895C29.6716 25.807 29.8266 26.0604 29.9188 26.3793C30.0111 26.6982 30.0155 26.9951 29.9482 27.1769Z" fill="#73AF00"/>
<path d="M31.6235 25.2701C31.5495 25.4492 31.3444 25.6641 31.0601 25.8354C30.7757 26.0065 30.4898 26.0873 30.2969 26.0688C30.3709 25.8897 30.576 25.6749 30.8604 25.5036C31.1446 25.3324 31.4307 25.2519 31.6235 25.2701Z" fill="#73AF00"/>
<path d="M30.2974 26.0689C30.1183 25.9948 29.9035 25.7897 29.7322 25.5054C29.561 25.221 29.4802 24.9352 29.4987 24.7422C29.6778 24.8162 29.8926 25.0213 30.0639 25.3057C30.2352 25.5901 30.3159 25.876 30.2974 26.0689Z" fill="#73AF00"/>
<path d="M31.445 23.877C31.4103 24.0676 31.2547 24.3207 31.0126 24.5478C30.7705 24.7748 30.5077 24.9136 30.3154 24.9361C30.3502 24.7455 30.5058 24.4924 30.7478 24.2653C30.9899 24.0383 31.2525 23.8994 31.445 23.877Z" fill="#73AF00"/>
<path d="M30.315 24.9362C30.1244 24.9015 29.8713 24.7459 29.6442 24.5038C29.4172 24.2617 29.2784 23.9989 29.2559 23.8066C29.4465 23.8414 29.6996 23.997 29.9267 24.2391C30.1537 24.4811 30.2927 24.7437 30.315 24.9362Z" fill="#73AF00"/>
<path d="M30.7455 22.3711C30.7854 22.5606 30.7372 22.8538 30.599 23.1556C30.4607 23.4573 30.27 23.6852 30.1004 23.7788C30.0606 23.5893 30.1087 23.2961 30.247 22.9943C30.3853 22.6925 30.5759 22.4646 30.7455 22.3711Z" fill="#73AF00"/>
<path d="M30.1001 23.7778C29.9105 23.8176 29.6174 23.7695 29.3156 23.6312C29.0139 23.4929 28.786 23.3023 28.6924 23.1326C28.8819 23.0928 29.1751 23.1409 29.4769 23.2792C29.7786 23.4175 30.0065 23.6081 30.1001 23.7778Z" fill="#73AF00"/>
<path d="M29.9088 21.2539C29.9982 21.4258 30.0306 21.7212 29.9785 22.0489C29.9265 22.3768 29.8042 22.6476 29.6659 22.7832C29.5766 22.6113 29.5442 22.3159 29.5962 21.9882C29.6483 21.6604 29.7706 21.3896 29.9088 21.2539Z" fill="#73AF00"/>
<path d="M29.665 22.7828C29.4932 22.8722 29.1978 22.9046 28.87 22.8526C28.5422 22.8005 28.2714 22.6782 28.1357 22.54C28.3076 22.4506 28.603 22.4182 28.9308 22.4702C29.2586 22.5223 29.5294 22.6446 29.665 22.7828Z" fill="#73AF00"/>
<path d="M29.0869 20.4766C29.2006 20.6335 29.2762 20.9207 29.273 21.2526C29.2697 21.5846 29.1886 21.8703 29.0719 22.0249C28.9582 21.868 28.8826 21.5808 28.8858 21.2488C28.8891 20.917 28.9701 20.6311 29.0869 20.4766Z" fill="#73AF00"/>
<path d="M29.0728 22.0254C28.9158 22.1391 28.6286 22.2146 28.2967 22.2114C27.9647 22.2082 27.679 22.1271 27.5244 22.0104C27.6813 21.8967 27.9686 21.8211 28.3005 21.8243C28.6324 21.8275 28.9181 21.9088 29.0728 22.0254Z" fill="#73AF00"/>
<path d="M28.6736 21.618C28.4806 21.6337 28.1957 21.549 27.9139 21.3737C27.6319 21.1985 27.4299 20.9807 27.3584 20.8007C27.5515 20.785 27.8363 20.8697 28.1182 21.045C28.4 21.2201 28.6021 21.4379 28.6736 21.618Z" fill="#73AF00"/>
<path d="M22.7495 29.1839L21.8858 30.0476L21.46 29.1957L22.7377 27.918L23.1636 28.3439L23.0405 28.7129C22.9813 28.8904 22.8817 29.0517 22.7495 29.1839Z" fill="#966446"/>
<path d="M27.4224 22.8086L22.7376 27.4934C22.62 27.6109 22.62 27.8017 22.7376 27.9192L22.9505 28.1321L23.8023 27.2803L27.2095 23.4472L27.6354 23.0213L27.4224 22.8086Z" fill="#B9B9B9"/>
<path d="M23.89 26.7663C23.8336 26.8228 23.8018 26.8994 23.8018 26.9792V27.2804L27.2089 23.4473L23.89 26.7663Z" fill="#966446"/>
<path d="M27.6349 23.0199L27.422 22.807L27.209 23.0199L27.422 23.233L27.6349 23.446L29.9773 20.6777L27.6349 23.0199Z" fill="#A0A0A0"/>
<path d="M28.4268 29.1839L29.2904 30.0476L29.7163 29.1957L28.4386 27.918L28.0127 28.3439L28.1357 28.7129C28.1949 28.8904 28.2945 29.0517 28.4268 29.1839Z" fill="#966446"/>
<path d="M23.754 22.8086L28.4388 27.4934C28.5563 27.6109 28.5563 27.8017 28.4388 27.9192L28.2259 28.1321L27.374 27.2803L23.9669 23.4472L23.541 23.0213L23.754 22.8086Z" fill="#B9B9B9"/>
<path d="M27.2856 26.7663C27.3421 26.8228 27.3739 26.8994 27.3739 26.9792V27.2804L23.9668 23.4473L27.2856 26.7663Z" fill="#966446"/>
<path d="M23.5407 23.0199L23.7536 22.807L23.9666 23.0199L23.7536 23.233L23.5407 23.446L21.1982 20.6777L23.5407 23.0199Z" fill="#A0A0A0"/>
<path d="M23.8398 29.0071L24.0515 29.2001C24.8235 28.3536 26.1746 26.8723 28.3164 24.9492C28.3165 24.9493 26.5421 26.0446 23.8398 29.0071Z" fill="#B9B9B9"/>
<path d="M23.2414 29.8757C23.1654 29.8064 23.16 29.6886 23.2293 29.6127L23.6828 29.1154C23.7521 29.0394 23.8699 29.034 23.9459 29.1033C24.0218 29.1726 24.0272 29.2904 23.958 29.3664L23.5045 29.8636C23.4351 29.9397 23.3173 29.9452 23.2414 29.8757Z" fill="#FFE15A"/>
<path d="M23.6683 28.8516L23.5455 28.9063C23.4362 28.9607 23.1487 29.1233 23.0992 29.3551C23.0756 29.4648 23.1089 29.5718 23.1941 29.673C23.2022 29.6521 23.2133 29.6317 23.2294 29.6143L23.2865 29.5517C23.2479 29.4956 23.2274 29.4405 23.239 29.3853C23.2701 29.2403 23.4635 29.1109 23.5849 29.0468L24.1283 29.5424L24.2635 29.3942L23.6683 28.8516Z" fill="#FFC855"/>
<path d="M27.334 29.2415L27.1224 29.4345C26.3503 28.588 24.9992 27.1066 22.8574 25.1836C22.8573 25.1837 24.6317 26.2788 27.334 29.2415Z" fill="#B9B9B9"/>
<path d="M27.9322 30.1101C28.0082 30.0408 28.0135 29.923 27.9443 29.847L27.4908 29.3498C27.4215 29.2738 27.3037 29.2684 27.2277 29.3377C27.1517 29.407 27.1464 29.5248 27.2156 29.6007L27.6691 30.098C27.7384 30.1741 27.8562 30.1795 27.9322 30.1101Z" fill="#FFE15A"/>
<path d="M27.5053 29.084L27.6281 29.1388C27.7374 29.1932 28.0249 29.3558 28.0744 29.5875C28.098 29.6973 28.0647 29.8042 27.9795 29.9054C27.9714 29.8845 27.9604 29.8643 27.9442 29.8467L27.8871 29.7841C27.9257 29.728 27.9462 29.6729 27.9346 29.6177C27.9035 29.4728 27.7102 29.3434 27.5887 29.2792L27.0453 29.7748L26.9102 29.6267L27.5053 29.084Z" fill="#FFC855"/>
<path d="M25.6808 21.405C25.6974 21.3638 25.707 21.3191 25.707 21.272C25.707 21.0754 25.5477 20.916 25.3511 20.916C25.1545 20.916 24.9951 21.0754 24.9951 21.272C24.9951 21.3891 25.0524 21.4921 25.1398 21.557C25.0111 22.5907 26.0304 22.6697 26.4187 22.8143C27.008 23.0334 27.7472 23.4771 27.7007 24.717C27.6556 25.9223 26.8934 27.0853 26.8934 27.0853L27.5261 26.2251C27.2947 27.2036 26.7545 28.4501 25.4697 29.9324C25.4697 29.9324 26.3481 29.0731 27.0812 27.965C26.5418 29.2339 25.9442 30.4069 25.9442 30.4069C25.9442 30.4069 27.0021 29.0327 27.8573 26.6551C28.894 23.7725 26.7132 22.0406 25.6808 21.405Z" fill="#69B469"/>
<path d="M24.7587 25.6602H23.8096V26.1348H24.7587V25.6602Z" fill="#F4E08F"/>
<path d="M23.8086 26.6094C24.0707 26.6094 24.2832 26.3969 24.2832 26.1348C24.2832 25.8726 24.0707 25.6602 23.8086 25.6602C23.5465 25.6602 23.334 25.8726 23.334 26.1348C23.334 26.3969 23.5465 26.6094 23.8086 26.6094Z" fill="#ECD077"/>
<path d="M23.8096 23.5254C24.0717 23.5254 24.2842 23.3129 24.2842 23.0508C24.2842 22.7887 24.0717 22.5762 23.8096 22.5762C23.5475 22.5762 23.335 22.7887 23.335 23.0508C23.335 23.3129 23.5475 23.5254 23.8096 23.5254Z" fill="#ECD077"/>
<path d="M26.6559 23.5254C26.918 23.5254 27.1305 23.3129 27.1305 23.0508C27.1305 22.7887 26.918 22.5762 26.6559 22.5762H23.8086C24.0707 22.5762 24.2832 22.7887 24.2832 23.0508C24.2832 23.3129 24.0707 23.5254 23.8086 23.5254C23.5465 23.5254 23.334 23.3129 23.334 23.0508C23.334 23.8474 24.0006 24.8104 24.2155 25.6608C24.2155 25.6608 24.2831 25.8733 24.2831 26.1354C24.2831 26.3976 24.0706 26.6101 23.8085 26.6101H26.6558C26.9179 26.6101 27.1304 26.3976 27.1304 26.1354C27.1304 25.3389 26.4638 24.3758 26.2488 23.5254H26.6559Z" fill="#FCF0A8"/>
<path d="M24.2832 23.0508C24.2832 23.3129 24.0707 23.5254 23.8086 23.5254H26.6559C26.918 23.5254 27.1305 23.3129 27.1305 23.0508H24.2832Z" fill="#F4E08F"/>
<path d="M24.2832 26.1348C24.2832 26.3969 24.0707 26.6094 23.8086 26.6094H26.6559C26.918 26.6094 27.1305 26.3969 27.1305 26.1348H24.2832Z" fill="#F4E08F"/>
</g>
<defs>
<clipPath id="clip0_3462_31114">
<rect width="50" height="50" fill="white" transform="translate(0.46875 0.439453)"/>
</clipPath>
</defs>
</svg>
