<svg width="51" height="51" viewBox="0 0 51 51" fill="none" xmlns="http://www.w3.org/2000/svg">
<g clip-path="url(#clip0_3462_31108)">
<path d="M50.0362 41.8191H1.76055C1.28447 41.8191 0.898438 41.433 0.898438 40.957V9.92265C0.898438 9.44658 1.28447 9.06055 1.76055 9.06055H50.0363C50.5124 9.06055 50.8984 9.44658 50.8984 9.92265V40.957C50.8983 41.4331 50.5123 41.8191 50.0362 41.8191Z" fill="#F5F5F5"/>
<path d="M50.8983 21.9916H29.3466V9.06055H22.4501V21.9916H0.898438V28.8881H22.4501V41.8191H29.3466V28.8881H50.8983V21.9916Z" fill="#FF4B55"/>
<path d="M36.2413 28.024V22.8516L34.9482 24.1447H16.8448L15.5518 22.8516V28.024L16.8448 26.7309H34.9482L36.2413 28.024Z" fill="#FFE15A"/>
<path d="M23.3105 35.7834H28.4829L27.1898 34.4902V16.3869L28.4829 15.0938H23.3105L24.6036 16.3869V34.4902L23.3105 35.7834Z" fill="#FFE15A"/>
</g>
<defs>
<clipPath id="clip0_3462_31108">
<rect width="50" height="50" fill="white" transform="translate(0.898438 0.439453)"/>
</clipPath>
</defs>
</svg>
