<svg width="51" height="51" viewBox="0 0 51 51" fill="none" xmlns="http://www.w3.org/2000/svg">
<g clip-path="url(#clip0_3462_31099)">
<path d="M50.6044 25.7329H0.604492V10.2156C0.604492 9.73955 0.990527 9.35352 1.4666 9.35352H49.7424C50.2185 9.35352 50.6045 9.73955 50.6045 10.2156L50.6044 25.7329Z" fill="#FFE15A"/>
<path d="M0.604492 25.7324H50.6044V41.2497C50.6044 41.7258 50.2184 42.1118 49.7423 42.1118H1.4666C0.990527 42.1118 0.604492 41.7258 0.604492 41.2497V25.7324Z" fill="#73AF00"/>
<path d="M16.9838 9.35361V42.1122H1.4666C0.990527 42.1122 0.604492 41.7261 0.604492 41.25V10.2156C0.604492 9.73955 0.990527 9.35352 1.4666 9.35352H16.9838V9.35361Z" fill="#FF4B55"/>
<path d="M8.6313 21.4315L7.68101 24.2811L4.67721 24.3044C4.51256 24.3057 4.4442 24.5158 4.57682 24.6137L6.99322 26.398L6.08717 29.2619C6.03746 29.4189 6.21627 29.5487 6.35025 29.4531L8.794 27.7064L11.2377 29.4532C11.3717 29.549 11.5504 29.419 11.5008 29.2621L10.5948 26.3982L13.0112 24.6139C13.1436 24.516 13.0754 24.3059 12.9108 24.3046L9.90698 24.2813L8.95669 21.4317C8.90435 21.2754 8.68345 21.2754 8.6313 21.4315Z" fill="#464655"/>
</g>
<defs>
<clipPath id="clip0_3462_31099">
<rect width="50" height="50" fill="white" transform="translate(0.603516 0.732422)"/>
</clipPath>
</defs>
</svg>
