<svg width="51" height="51" viewBox="0 0 51 51" fill="none" xmlns="http://www.w3.org/2000/svg">
<g clip-path="url(#clip0_3462_31078)">
<path d="M50.3231 13.4484H0.323242V10.2156C0.323242 9.73955 0.709277 9.35352 1.18535 9.35352H49.4611C49.9372 9.35352 50.3232 9.73955 50.3232 10.2156L50.3231 13.4484Z" fill="#F5F5F5"/>
<path d="M50.3231 13.4492H0.323242V17.544H50.3231V13.4492Z" fill="#FF4B55"/>
<path d="M50.3231 17.543H0.323242V21.6378H50.3231V17.543Z" fill="#41479B"/>
<path d="M50.3231 21.6387H0.323242V25.7335H50.3231V21.6387Z" fill="#F5F5F5"/>
<path d="M50.3231 29.828H0.323242V24.8711H1.40078V25.7332H50.3231V29.828Z" fill="#FF4B55"/>
<path d="M50.3231 33.9219H0.323242V38.0167H50.3231V33.9219Z" fill="#F5F5F5"/>
<path d="M49.461 42.1124H1.18535C0.709277 42.1124 0.323242 41.7264 0.323242 41.2503V38.0176H50.3231V41.2503C50.3231 41.7265 49.9371 42.1124 49.461 42.1124Z" fill="#FF4B55"/>
<path d="M50.3222 29.8281H0.322266V33.9229H50.3222V29.8281Z" fill="#41479B"/>
<path d="M24.4601 25.7329H1.18437C0.7083 25.7329 0.322266 25.3468 0.322266 24.8708V10.2156C0.322266 9.73955 0.7083 9.35352 1.18437 9.35352H24.4602C24.9363 9.35352 25.3223 9.73955 25.3223 10.2156V24.8708C25.3222 25.3468 24.9362 25.7329 24.4601 25.7329Z" fill="#41479B"/>
<path d="M24.4611 9.35352H22.9636L14.9783 14.5853V9.35352H10.6679V14.5853L2.68261 9.35352H1.18535C0.709277 9.35352 0.323242 9.73945 0.323242 10.2155V10.8993L7.1743 15.3879H0.323242V19.6982H7.1743L0.323242 24.1869V24.8707C0.323242 25.3467 0.709277 25.7328 1.18535 25.7328H2.68281L10.6681 20.501V25.7328H14.9785V20.501L22.9637 25.7328H24.4612C24.9373 25.7328 25.3233 25.3467 25.3233 24.8707V24.1869L18.4722 19.6983H25.3232V15.388H18.4721L25.3232 10.8994V10.2156C25.3232 9.73945 24.9372 9.35352 24.4611 9.35352Z" fill="#F5F5F5"/>
<path d="M25.3222 16.2501H14.1153V9.35352H11.5292V16.2501H0.322266V18.8362H11.5292V25.7328H14.1153V18.8362H25.3222V16.2501Z" fill="#FF4B55"/>
<path d="M9.80496 15.3888L0.733105 9.5C0.491699 9.65273 0.322266 9.90947 0.322266 10.2163V10.261L8.22157 15.3888H9.80496Z" fill="#FF4B55"/>
<path d="M16.5609 15.388L25.1912 9.78584C25.0412 9.53203 24.7765 9.35352 24.4602 9.35352H24.2738L14.9775 15.388H16.5609Z" fill="#FF4B55"/>
<path d="M9.06004 19.6992L0.446289 25.2906C0.594824 25.5506 0.863573 25.7337 1.18447 25.7337H1.34707L10.6435 19.6992H9.06004V19.6992Z" fill="#FF4B55"/>
<path d="M25.3086 24.9392L17.2357 19.6992H15.6523L24.8197 25.6499C25.0943 25.5225 25.2827 25.2554 25.3086 24.9392Z" fill="#FF4B55"/>
</g>
<defs>
<clipPath id="clip0_3462_31078">
<rect width="50" height="50" fill="white" transform="translate(0.324219 0.732422)"/>
</clipPath>
</defs>
</svg>
