<svg width="51" height="51" viewBox="0 0 51 51" fill="none" xmlns="http://www.w3.org/2000/svg">
<g clip-path="url(#clip0_3462_31067)">
<path d="M50.7519 20.2731H0.751953V10.2156C0.751953 9.73955 1.13799 9.35352 1.61406 9.35352H49.8898C50.3659 9.35352 50.752 9.73955 50.752 10.2156L50.7519 20.2731Z" fill="#4173CD"/>
<path d="M49.8897 42.1129H1.61406C1.13799 42.1129 0.751953 41.7268 0.751953 41.2508V31.1934H50.7519V41.2508C50.7519 41.7269 50.3658 42.1129 49.8897 42.1129Z" fill="#4173CD"/>
<path d="M50.7519 20.2734H0.751953V31.1924H50.7519V20.2734Z" fill="#F5F5F5"/>
<path d="M25.8766 24.3242L26.1851 25.2493L27.1602 25.2568C27.2864 25.2578 27.3387 25.4189 27.2372 25.4939L26.4528 26.0732L26.7469 27.003C26.7849 27.1234 26.648 27.2229 26.5451 27.1496L25.7519 26.5825L24.9585 27.1495C24.8558 27.2228 24.7188 27.1233 24.7568 27.0029L25.0509 26.0731L24.2664 25.4938C24.165 25.4188 24.2172 25.2577 24.3435 25.2567L25.3186 25.2492L25.6271 24.3241C25.6672 24.2045 25.8365 24.2045 25.8766 24.3242Z" fill="#4173CD"/>
<path d="M17.071 26.8066L17.3795 27.7317L18.3546 27.7392C18.4809 27.7402 18.5331 27.9013 18.4317 27.9763L17.6472 28.5556L17.9413 29.4854C17.9794 29.6058 17.8424 29.7053 17.7396 29.632L16.9462 29.065L16.1529 29.632C16.0501 29.7053 15.9131 29.6058 15.9511 29.4854L16.2452 28.5556L15.4608 27.9763C15.3593 27.9013 15.4116 27.7402 15.5378 27.7392L16.5129 27.7317L16.8214 26.8066C16.8616 26.6869 17.0311 26.6869 17.071 26.8066Z" fill="#4173CD"/>
<path d="M17.071 21.8417L17.3795 22.7668L18.3546 22.7743C18.4809 22.7753 18.5331 22.9364 18.4317 23.0114L17.6472 23.5907L17.9413 24.5205C17.9794 24.6409 17.8424 24.7404 17.7396 24.6671L16.9462 24.1001L16.1529 24.6671C16.0501 24.7404 15.9131 24.6409 15.9511 24.5205L16.2452 23.5907L15.4608 23.0114C15.3593 22.9364 15.4116 22.7753 15.5378 22.7743L16.5129 22.7668L16.8214 21.8417C16.8616 21.722 17.0311 21.722 17.071 21.8417Z" fill="#4173CD"/>
<path d="M34.6824 26.8066L34.9909 27.7317L35.966 27.7392C36.0923 27.7402 36.1445 27.9013 36.0431 27.9763L35.2586 28.5556L35.5527 29.4854C35.5908 29.6058 35.4538 29.7053 35.351 29.632L34.5576 29.065L33.7643 29.632C33.6615 29.7053 33.5245 29.6058 33.5625 29.4854L33.8567 28.5556L33.0722 27.9763C32.9705 27.9013 33.023 27.7402 33.1492 27.7392L34.1243 27.7317L34.4328 26.8066C34.4731 26.6869 34.6425 26.6869 34.6824 26.8066Z" fill="#4173CD"/>
<path d="M34.6824 21.8417L34.9909 22.7668L35.966 22.7743C36.0923 22.7753 36.1445 22.9364 36.0431 23.0114L35.2586 23.5907L35.5527 24.5205C35.5908 24.6409 35.4538 24.7404 35.351 24.6671L34.5576 24.1001L33.7643 24.6671C33.6615 24.7404 33.5245 24.6409 33.5625 24.5205L33.8567 23.5907L33.0722 23.0114C32.9705 22.9364 33.023 22.7753 33.1492 22.7743L34.1243 22.7668L34.4328 21.8417C34.4731 21.722 34.6425 21.722 34.6824 21.8417Z" fill="#4173CD"/>
</g>
<defs>
<clipPath id="clip0_3462_31067">
<rect width="50" height="50" fill="white" transform="translate(0.751953 0.732422)"/>
</clipPath>
</defs>
</svg>
