<svg width="51" height="51" viewBox="0 0 51 51" fill="none" xmlns="http://www.w3.org/2000/svg">
<g clip-path="url(#clip0_3462_31059)">
<path d="M49.3165 42.1122H1.04082C0.564745 42.1122 0.178711 41.7261 0.178711 41.25V10.2156C0.178711 9.73955 0.564745 9.35352 1.04082 9.35352H49.3166C49.7927 9.35352 50.1787 9.73955 50.1787 10.2156V41.25C50.1786 41.7262 49.7926 42.1122 49.3165 42.1122Z" fill="#FF4B55"/>
<path d="M22.0997 26.994C21.013 27.0052 19.7927 26.6571 18.7234 25.4785C18.6497 25.3973 18.6601 25.2693 18.7439 25.1983L18.7441 25.198C18.8254 25.1291 18.9455 25.1398 19.0173 25.2186C20.6472 27.0083 22.6673 26.6949 23.8742 26.2625C23.4283 26.2823 22.8681 26.2488 22.5077 26.012C21.0023 25.0225 21.6842 23.9697 20.6844 22.6972C19.6909 21.4327 18.797 21.4637 17.3894 21.6771C15.9958 21.8882 15.5519 20.866 15.4137 20.2988C15.389 20.1971 15.2472 20.1908 15.2108 20.2887C13.4739 24.9815 18.6966 30.7881 24.0586 26.613C23.5295 26.8078 22.848 26.9863 22.0997 26.994ZM18.1869 25.4015C18.1564 25.4853 18.0368 25.482 18.0109 25.3966L17.8109 24.7375L17.1226 24.7134C17.0334 24.7103 16.9996 24.5955 17.0728 24.5446L17.6378 24.1507L17.4481 23.4885C17.4234 23.4029 17.5222 23.3352 17.5933 23.3889L18.1425 23.8045L18.7136 23.4194C18.7875 23.3695 18.8824 23.4424 18.8531 23.5267L18.6275 24.1775L19.1703 24.6016C19.2405 24.6566 19.2005 24.7693 19.1113 24.7675L18.4227 24.754L18.1869 25.4015Z" fill="#F5F5F5"/>
<path d="M25.9464 23.8769C26.8093 23.2162 27.9944 22.7629 29.5569 23.0647C29.6646 23.0855 29.7332 23.194 29.7088 23.3011L29.7087 23.3015C29.6849 23.4054 29.5824 23.4689 29.4777 23.4487C27.1002 22.994 25.6715 24.4563 24.9651 25.5261C25.3101 25.2428 25.7785 24.9336 26.2089 24.9071C28.0069 24.7961 28.0926 26.0476 29.6559 26.4662C31.2092 26.8821 31.9059 26.3214 32.9046 25.3064C33.893 24.3017 34.8614 24.8534 35.3121 25.2245C35.3927 25.291 35.51 25.2111 35.4803 25.1109C34.0559 20.3141 26.3942 18.7997 24.6074 25.3563C24.9138 24.8834 25.3521 24.3318 25.9464 23.8769ZM30.0325 22.8047C30.0066 22.7193 30.1044 22.6502 30.1763 22.7029L30.7315 23.1104L31.2969 22.7168C31.37 22.6658 31.4659 22.7374 31.4381 22.8221L31.2222 23.4762L31.7711 23.8922C31.8422 23.9461 31.8037 24.0595 31.7146 24.059L31.0259 24.0558L30.7999 24.7064C30.7706 24.7907 30.651 24.7892 30.6238 24.7043L30.414 24.0482L29.7254 24.0344C29.6362 24.0325 29.6007 23.9184 29.6731 23.8663L30.2323 23.4641L30.0325 22.8047Z" fill="#F5F5F5"/>
<path d="M23.069 24.3285C22.6451 23.3277 22.5025 22.0669 23.1856 20.6296C23.2327 20.5304 23.3551 20.4913 23.4525 20.5418L23.4529 20.542C23.5476 20.5909 23.5833 20.7061 23.5379 20.8024C22.5028 22.9907 23.5614 24.7397 24.4205 25.6912C24.2324 25.2863 24.0504 24.7555 24.1322 24.3321C24.4745 22.5634 25.7075 22.7934 26.5039 21.3844C27.2952 19.9845 26.9265 19.1697 26.1936 17.9491C25.468 16.7407 26.2444 15.9412 26.7165 15.5976C26.801 15.5361 26.753 15.4026 26.6486 15.4063C21.648 15.5857 18.2653 22.6251 24.1666 25.995C23.7853 25.5799 23.3608 25.0176 23.069 24.3285ZM23.0528 20.1041C22.9637 20.1078 22.9213 19.9959 22.9903 19.9395L23.5237 19.5038L23.2841 18.858C23.253 18.7744 23.3464 18.6994 23.4213 18.7476L24.0006 19.1203L24.5406 18.6928C24.6105 18.6375 24.7106 18.703 24.6879 18.7893L24.5125 19.4553L25.0858 19.8369C25.1601 19.8863 25.1287 20.0017 25.0397 20.0068L24.3521 20.0458L24.1664 20.709C24.1424 20.7949 24.0229 20.8007 23.9905 20.7176L23.7409 20.0757L23.0528 20.1041Z" fill="#F5F5F5"/>
<path d="M26.9652 26.5999C27.8635 27.2116 28.6662 28.1944 28.8703 29.7727C28.8845 29.8816 28.8027 29.9807 28.6934 29.9911H28.6929C28.5868 30.0013 28.4943 29.9237 28.4805 29.8182C28.1655 27.4181 26.3284 26.521 25.0908 26.1863C25.4681 26.4248 25.9087 26.7725 26.0691 27.1728C26.7393 28.8449 25.5781 29.3194 25.6716 30.9352C25.7645 32.5404 26.5159 33.0258 27.7931 33.6551C29.0574 34.278 28.8378 35.3705 28.6268 35.9151C28.5892 36.0127 28.7018 36.0988 28.7875 36.0392C32.8941 33.1802 31.9256 25.4307 25.1396 25.7936C25.6855 25.9359 26.3468 26.1787 26.9652 26.5999ZM29.2667 30.1425C29.3396 30.0911 29.4358 30.1622 29.4084 30.247L29.196 30.9022L29.7472 31.3153C29.8184 31.3688 29.7808 31.4823 29.6916 31.4824L29.0028 31.4828L28.7803 32.1347C28.7515 32.2191 28.6317 32.2182 28.6042 32.1334L28.3909 31.4784L27.7022 31.4682C27.613 31.4669 27.5769 31.3527 27.649 31.3003L28.206 30.895L28.0029 30.2368C27.9767 30.1516 28.0739 30.0819 28.1461 30.1344L28.7036 30.5389L29.2667 30.1425Z" fill="#F5F5F5"/>
<path d="M24.7186 28.5464C24.4092 29.5882 23.7172 30.6519 22.2759 31.3266C22.1765 31.3731 22.0573 31.3255 22.0141 31.2246L22.0139 31.2242C21.972 31.1263 22.0177 31.0146 22.114 30.9692C24.3044 29.9389 24.6001 27.916 24.5422 26.6353C24.4298 27.0673 24.2328 27.5927 23.9003 27.8674C22.5114 29.0145 21.706 28.0528 20.1954 28.6336C18.6944 29.2105 18.4607 30.074 18.2499 31.4821C18.0413 32.8761 16.9336 32.9992 16.3508 32.9642C16.2465 32.9579 16.1985 33.0914 16.2814 33.155C20.2545 36.197 27.3417 32.9163 24.9312 26.5625C24.9619 27.1252 24.9317 27.8289 24.7186 28.5464ZM22.0442 31.8165C22.1153 31.8704 22.0769 31.9836 21.9878 31.9833L21.2991 31.9803L21.0733 32.631C21.0441 32.7153 20.9244 32.7138 20.8972 32.6289L20.6872 31.9728L19.9985 31.9592C19.9093 31.9574 19.8737 31.8432 19.9462 31.7911L20.5051 31.3887L20.3053 30.7295C20.2795 30.6441 20.3771 30.575 20.449 30.6277L21.0045 31.035L21.5697 30.6412C21.6428 30.5902 21.7387 30.6618 21.7109 30.7465L21.4953 31.4006L22.0442 31.8165Z" fill="#F5F5F5"/>
</g>
<defs>
<clipPath id="clip0_3462_31059">
<rect width="50" height="50" fill="white" transform="translate(0.179688 0.732422)"/>
</clipPath>
</defs>
</svg>
