<svg width="51" height="51" viewBox="0 0 51 51" fill="none" xmlns="http://www.w3.org/2000/svg">
<g clip-path="url(#clip0_3462_31051)">
<path d="M49.1769 42.1122H0.90117C0.425097 42.1122 0.0390625 41.7261 0.0390625 41.25V10.2156C0.0390625 9.73955 0.425097 9.35352 0.90117 9.35352H49.177C49.653 9.35352 50.0391 9.73955 50.0391 10.2156V41.25C50.039 41.7262 49.6529 42.1122 49.1769 42.1122Z" fill="#41479B"/>
<path d="M50.039 21.4224H22.4528V9.35352H13.8321V21.4224H0.0390625V30.0431H13.8321V42.112H22.4528V30.0431H50.039V21.4224Z" fill="#F5F5F5"/>
<path d="M50.039 23.1466H20.7287V9.35352H15.5563V23.1466H0.0390625V28.319H15.5563V42.112H20.7287V28.319H50.039V23.1466Z" fill="#FF4B55"/>
</g>
<defs>
<clipPath id="clip0_3462_31051">
<rect width="50" height="50" fill="white" transform="translate(0.0390625 0.732422)"/>
</clipPath>
</defs>
</svg>
