<svg width="51" height="51" viewBox="0 0 51 51" fill="none" xmlns="http://www.w3.org/2000/svg">
<g clip-path="url(#clip0_3462_31026)">
<path d="M50.4696 20.4079H0.469727V10.3504C0.469727 9.87432 0.855761 9.48828 1.33183 9.48828H49.6076C50.0837 9.48828 50.4697 9.87432 50.4697 10.3504L50.4696 20.4079Z" fill="#FAB446"/>
<path d="M49.6075 42.2457H1.33183C0.855761 42.2457 0.469727 41.8596 0.469727 41.3836V31.3262H50.4696V41.3836C50.4696 41.8597 50.0836 42.2457 49.6075 42.2457Z" fill="#73AF00"/>
<path d="M50.4696 20.4082H0.469727V31.3271H50.4696V20.4082Z" fill="#F5F5F5"/>
<path d="M25.4695 30.5015C22.9144 30.5015 20.8359 28.423 20.8359 25.868C20.8359 23.3129 22.9144 21.2344 25.4695 21.2344C28.0246 21.2344 30.1031 23.3129 30.1031 25.868C30.1031 28.423 28.0246 30.5015 25.4695 30.5015ZM25.4695 22.0964C23.3896 22.0964 21.6979 23.7881 21.6979 25.868C21.6979 27.9478 23.3896 29.6395 25.4695 29.6395C27.5494 29.6395 29.2411 27.9478 29.2411 25.868C29.2411 23.7881 27.5494 22.0964 25.4695 22.0964Z" fill="#41479B"/>
<path d="M25.4696 26.3924C25.7597 26.3924 25.9949 26.1572 25.9949 25.8671C25.9949 25.577 25.7597 25.3418 25.4696 25.3418C25.1795 25.3418 24.9443 25.577 24.9443 25.8671C24.9443 26.1572 25.1795 26.3924 25.4696 26.3924Z" fill="#41479B"/>
<path d="M25.4701 25.9467L24.1351 26.0814L21.2676 25.9467V25.7891L24.1351 25.6543L25.4701 25.7891V25.9467Z" fill="#41479B"/>
<path d="M25.4697 25.9467L26.8047 26.0814L29.6723 25.9467V25.7891L26.8047 25.6543L25.4697 25.7891V25.9467Z" fill="#41479B"/>
<path d="M25.3906 25.8685L25.2559 24.5336L25.3906 21.666H25.5482L25.683 24.5336L25.5482 25.8685H25.3906Z" fill="#41479B"/>
<path d="M25.3906 25.8672L25.2559 27.2021L25.3906 30.0697H25.5482L25.683 27.2021L25.5482 25.8672H25.3906Z" fill="#41479B"/>
<path d="M25.4141 25.9228L24.3748 25.0743L22.4424 22.9513L22.5538 22.8398L24.6768 24.7723L25.5254 25.8115L25.4141 25.9228Z" fill="#41479B"/>
<path d="M25.4141 25.9238L26.2626 26.9631L28.3856 28.8955L28.4971 28.7841L26.5646 26.661L25.5254 25.8125L25.4141 25.9238Z" fill="#41479B"/>
<path d="M25.4141 25.8115L26.2626 24.7723L28.3856 22.8398L28.4971 22.9513L26.5646 25.0743L25.5254 25.9228L25.4141 25.8115Z" fill="#41479B"/>
<path d="M25.4141 25.8125L24.3748 26.661L22.4424 28.7841L22.5538 28.8955L24.6768 26.9631L25.5254 25.9238L25.4141 25.8125Z" fill="#41479B"/>
<path d="M25.4996 25.9406L24.3178 26.576L21.617 27.5488L21.5566 27.4032L24.1544 26.1813L25.4393 25.7949L25.4996 25.9406Z" fill="#41479B"/>
<path d="M25.4998 25.9414L26.7847 25.555L29.3824 24.3331L29.3221 24.1875L26.6213 25.1603L25.4395 25.7957L25.4998 25.9414Z" fill="#41479B"/>
<path d="M25.3963 25.898L24.7609 24.7162L23.7881 22.0154L23.9337 21.9551L25.1556 24.5528L25.542 25.8377L25.3963 25.898Z" fill="#41479B"/>
<path d="M25.3965 25.8982L25.7829 27.1831L27.0048 29.7809L27.1504 29.7205L26.1775 27.0197L25.5422 25.8379L25.3965 25.8982Z" fill="#41479B"/>
<path d="M25.4393 25.9414L24.1544 25.555L21.5566 24.3331L21.617 24.1875L24.3178 25.1603L25.4996 25.7957L25.4393 25.9414Z" fill="#41479B"/>
<path d="M25.4395 25.9406L26.6213 26.576L29.3221 27.5488L29.3824 27.4032L26.7847 26.1813L25.4998 25.7949L25.4395 25.9406Z" fill="#41479B"/>
<path d="M25.3965 25.8377L25.7829 24.5528L27.0048 21.9551L27.1504 22.0154L26.1775 24.7162L25.5422 25.898L25.3965 25.8377Z" fill="#41479B"/>
<path d="M25.3963 25.8379L24.7609 27.0197L23.7881 29.7205L23.9337 29.7809L25.1556 27.1831L25.542 25.8982L25.3963 25.8379Z" fill="#41479B"/>
<path d="M25.4693 26.5754C25.8607 26.5754 26.1779 26.2581 26.1779 25.8668C26.1779 25.4755 25.8607 25.1582 25.4693 25.1582C25.078 25.1582 24.7607 25.4755 24.7607 25.8668C24.7607 26.2581 25.078 26.5754 25.4693 26.5754Z" fill="#F5F5F5"/>
<path d="M25.4698 26.2932C25.7045 26.2932 25.8947 26.1029 25.8947 25.8683C25.8947 25.6336 25.7045 25.4434 25.4698 25.4434C25.2352 25.4434 25.0449 25.6336 25.0449 25.8683C25.0449 26.1029 25.2352 26.2932 25.4698 26.2932Z" fill="#41479B"/>
</g>
<defs>
<clipPath id="clip0_3462_31026">
<rect width="50" height="50" fill="white" transform="translate(0.46875 0.867188)"/>
</clipPath>
</defs>
</svg>
