<svg width="51" height="51" viewBox="0 0 51 51" fill="none" xmlns="http://www.w3.org/2000/svg">
<g clip-path="url(#clip0_3462_30977)">
<path d="M50.1923 20.4078H0.192383V10.3504C0.192383 9.87432 0.578417 9.48828 1.05449 9.48828H49.3303C49.8064 9.48828 50.1924 9.87432 50.1924 10.3504L50.1923 20.4078Z" fill="#73AF00"/>
<path d="M49.3302 42.2457H1.05449C0.578417 42.2457 0.192383 41.8596 0.192383 41.3836V31.3262H50.1923V41.3836C50.1923 41.8596 49.8063 42.2457 49.3302 42.2457Z" fill="#FF4B55"/>
<path d="M50.1933 20.4062H0.193359V31.3252H50.1933V20.4062Z" fill="#F5F5F5"/>
<path d="M0.328027 19.8296H0.335547C0.410449 19.8296 0.471191 19.7689 0.471191 19.6939V19.4002C0.471191 19.3253 0.531835 19.2645 0.606835 19.2645H1.17588C1.25078 19.2645 1.31152 19.3252 1.31152 19.4002V19.6939C1.31152 19.7688 1.37217 19.8296 1.44717 19.8296H2.57041C2.64531 19.8296 2.70605 19.7689 2.70605 19.6939V19.1141C2.70605 19.0392 2.64541 18.9784 2.57041 18.9784H2.00498C1.93008 18.9784 1.86933 19.0391 1.86933 19.1141V19.1289C1.86933 19.2038 1.92998 19.2645 2.00498 19.2645H2.2916C2.3665 19.2645 2.42724 19.3252 2.42724 19.4002V19.4149C2.42724 19.4898 2.3666 19.5506 2.2916 19.5506H1.72597C1.65107 19.5506 1.59033 19.4899 1.59033 19.4149V19.1141C1.59033 19.0392 1.52969 18.9784 1.45469 18.9784H0.328027C0.253125 18.9784 0.192383 19.0391 0.192383 19.1141V19.6939C0.192383 19.7687 0.253027 19.8296 0.328027 19.8296ZM0.889354 19.8296H0.897069C0.971971 19.8296 1.03271 19.7689 1.03271 19.6939V19.6862C1.03271 19.6113 0.972069 19.5506 0.897069 19.5506H0.889354C0.814452 19.5506 0.75371 19.6112 0.75371 19.6862V19.6939C0.75371 19.7687 0.814452 19.8296 0.889354 19.8296ZM0.328027 18.6924H3.68964C3.76454 18.6924 3.82529 18.6317 3.82529 18.5567V18.5419C3.82529 18.467 3.76464 18.4062 3.68964 18.4062H0.328027C0.253125 18.4062 0.192383 18.4669 0.192383 18.5419V18.5567C0.192383 18.6317 0.253027 18.6924 0.328027 18.6924ZM3.68954 19.8296H3.12412C3.04921 19.8296 2.98847 19.7689 2.98847 19.6939V19.1141C2.98847 19.0392 3.04912 18.9784 3.12412 18.9784H3.96865C4.04355 18.9784 4.10429 18.9178 4.10429 18.8428V18.5419C4.10429 18.467 4.16493 18.4062 4.23993 18.4062H4.24745C4.32236 18.4062 4.3831 18.4669 4.3831 18.5419V19.4149C4.3831 19.4898 4.44374 19.5506 4.51874 19.5506H4.52646C4.60136 19.5506 4.6621 19.4899 4.6621 19.4149V18.5419C4.6621 18.467 4.72275 18.4062 4.79775 18.4062H4.80526C4.88017 18.4062 4.94091 18.4669 4.94091 18.5419V19.4149C4.94091 19.4898 5.00155 19.5506 5.07655 19.5506H5.08778C5.16269 19.5506 5.22343 19.4899 5.22343 19.4149V18.5419C5.22343 18.467 5.28407 18.4062 5.35907 18.4062H5.36317C5.43808 18.4062 5.49882 18.4669 5.49882 18.5419V19.6939C5.49882 19.7688 5.43817 19.8296 5.36317 19.8296H4.23993C4.16503 19.8296 4.10429 19.7689 4.10429 19.6939V19.4002C4.10429 19.3253 4.04365 19.2645 3.96865 19.2645H3.40322C3.32831 19.2645 3.26757 19.3252 3.26757 19.4002V19.4149C3.26757 19.4898 3.32822 19.5506 3.40322 19.5506H3.68964C3.76454 19.5506 3.82529 19.6112 3.82529 19.6862V19.6939C3.82529 19.7687 3.76445 19.8296 3.68954 19.8296Z" fill="#F5F5F5"/>
<path d="M5.91787 19.8296H5.9291C6.004 19.8296 6.06475 19.7689 6.06475 19.6939V19.4002C6.06475 19.3253 6.12539 19.2645 6.20039 19.2645H6.7623C6.8372 19.2645 6.89795 19.3252 6.89795 19.4002V19.6939C6.89795 19.7688 6.95859 19.8296 7.03359 19.8296H8.15683C8.23173 19.8296 8.29248 19.7689 8.29248 19.6939V19.1141C8.29248 19.0392 8.23183 18.9784 8.15683 18.9784H7.5914C7.5165 18.9784 7.45576 19.0391 7.45576 19.1141V19.1289C7.45576 19.2038 7.5164 19.2645 7.5914 19.2645H7.87802C7.95293 19.2645 8.01367 19.3252 8.01367 19.4002V19.4149C8.01367 19.4898 7.95302 19.5506 7.87802 19.5506H7.31259C7.23769 19.5506 7.17695 19.4899 7.17695 19.4149V19.1141C7.17695 19.0392 7.11631 18.9784 7.04131 18.9784H5.91787C5.84297 18.9784 5.78223 19.0391 5.78223 19.1141V19.6939C5.78232 19.7687 5.84307 19.8296 5.91787 19.8296ZM6.47578 19.8296H6.4833C6.5582 19.8296 6.61894 19.7689 6.61894 19.6939V19.6862C6.61894 19.6113 6.5583 19.5506 6.4833 19.5506H6.47578C6.40088 19.5506 6.34014 19.6112 6.34014 19.6862V19.6939C6.34023 19.7687 6.40088 19.8296 6.47578 19.8296ZM5.91787 18.6924H9.27607C9.35097 18.6924 9.41171 18.6317 9.41171 18.5567V18.5419C9.41171 18.467 9.35107 18.4062 9.27607 18.4062H5.91787C5.84297 18.4062 5.78223 18.4669 5.78223 18.5419V18.5567C5.78232 18.6317 5.84307 18.6924 5.91787 18.6924ZM9.27607 19.8296H8.70703C8.63212 19.8296 8.57138 19.7689 8.57138 19.6939V19.1141C8.57138 19.0392 8.63203 18.9784 8.70703 18.9784H9.55156C9.62646 18.9784 9.6872 18.9178 9.6872 18.8428V18.5419C9.6872 18.467 9.74784 18.4062 9.82284 18.4062H9.83407C9.90898 18.4062 9.96972 18.4669 9.96972 18.5419V19.4149C9.96972 19.4898 10.0304 19.5506 10.1054 19.5506H10.1166C10.1915 19.5506 10.2522 19.4899 10.2522 19.4149V18.5419C10.2522 18.467 10.3129 18.4062 10.3879 18.4062H10.392C10.4669 18.4062 10.5276 18.4669 10.5276 18.5419V19.4149C10.5276 19.4898 10.5883 19.5506 10.6633 19.5506H10.6745C10.7494 19.5506 10.8101 19.4899 10.8101 19.4149V18.5419C10.8101 18.467 10.8708 18.4062 10.9458 18.4062H10.9533C11.0282 18.4062 11.089 18.4669 11.089 18.5419V19.6939C11.089 19.7688 11.0283 19.8296 10.9533 19.8296H9.82304C9.74814 19.8296 9.68739 19.7689 9.68739 19.6939V19.4002C9.68739 19.3253 9.62675 19.2645 9.55175 19.2645H8.98984C8.91493 19.2645 8.85419 19.3252 8.85419 19.4002V19.4149C8.85419 19.4898 8.91484 19.5506 8.98984 19.5506H9.27646C9.35136 19.5506 9.4121 19.6112 9.4121 19.6862V19.6939C9.41161 19.7687 9.35097 19.8296 9.27607 19.8296Z" fill="#F5F5F5"/>
<path d="M11.5028 19.8296H11.5104C11.5853 19.8296 11.646 19.7689 11.646 19.6939V19.4002C11.646 19.3253 11.7066 19.2645 11.7816 19.2645H12.3473C12.4222 19.2645 12.4829 19.3252 12.4829 19.4002V19.6939C12.4829 19.7688 12.5436 19.8296 12.6186 19.8296H13.7453C13.8202 19.8296 13.881 19.7689 13.881 19.6939V19.1141C13.881 19.0392 13.8203 18.9784 13.7453 18.9784H13.1799C13.105 18.9784 13.0442 19.0391 13.0442 19.1141V19.1289C13.0442 19.2038 13.1049 19.2645 13.1799 19.2645H13.4665C13.5414 19.2645 13.6021 19.3252 13.6021 19.4002V19.4149C13.6021 19.4898 13.5415 19.5506 13.4665 19.5506H12.8975C12.8226 19.5506 12.7618 19.4899 12.7618 19.4149V19.1141C12.7618 19.0392 12.7012 18.9784 12.6262 18.9784H11.5029C11.428 18.9784 11.3673 19.0391 11.3673 19.1141V19.6939C11.3671 19.7687 11.4279 19.8296 11.5028 19.8296ZM12.0606 19.8296H12.0682C12.1431 19.8296 12.2038 19.7689 12.2038 19.6939V19.6862C12.2038 19.6113 12.1432 19.5506 12.0682 19.5506H12.0606C11.9857 19.5506 11.925 19.6112 11.925 19.6862V19.6939C11.925 19.7687 11.9857 19.8296 12.0606 19.8296ZM11.5028 18.6924H14.8645C14.9394 18.6924 15.0002 18.6317 15.0002 18.5567V18.5419C15.0002 18.467 14.9395 18.4062 14.8645 18.4062H11.5028C11.4279 18.4062 11.3672 18.4669 11.3672 18.5419V18.5567C11.3671 18.6317 11.4279 18.6924 11.5028 18.6924ZM14.8645 19.8296H14.2955C14.2206 19.8296 14.1599 19.7689 14.1599 19.6939V19.1141C14.1599 19.0392 14.2205 18.9784 14.2955 18.9784H15.1398C15.2147 18.9784 15.2755 18.9178 15.2755 18.8428V18.5419C15.2755 18.467 15.3361 18.4062 15.4111 18.4062H15.4188C15.4937 18.4062 15.5545 18.4669 15.5545 18.5419V19.4149C15.5545 19.4898 15.6151 19.5506 15.6901 19.5506H15.7014C15.7763 19.5506 15.837 19.4899 15.837 19.4149V18.5419C15.837 18.467 15.8976 18.4062 15.9726 18.4062H15.9839C16.0588 18.4062 16.1195 18.4669 16.1195 18.5419V19.4149C16.1195 19.4898 16.1802 19.5506 16.2552 19.5506H16.2593C16.3342 19.5506 16.3949 19.4899 16.3949 19.4149V18.5419C16.3949 18.467 16.4556 18.4062 16.5306 18.4062H16.5381C16.613 18.4062 16.6737 18.4669 16.6737 18.5419V19.6939C16.6737 19.7688 16.6131 19.8296 16.5381 19.8296H15.4111C15.3362 19.8296 15.2755 19.7689 15.2755 19.6939V19.4002C15.2755 19.3253 15.2148 19.2645 15.1398 19.2645H14.5744C14.4995 19.2645 14.4388 19.3252 14.4388 19.4002V19.4149C14.4388 19.4898 14.4994 19.5506 14.5744 19.5506H14.8647C14.9396 19.5506 15.0004 19.6112 15.0004 19.6862V19.6939C15.0002 19.7687 14.9394 19.8296 14.8645 19.8296Z" fill="#F5F5F5"/>
<path d="M17.0888 19.8296H17.0963C17.1712 19.8296 17.2319 19.7689 17.2319 19.6939V19.4002C17.2319 19.3253 17.2926 19.2645 17.3676 19.2645H17.933C18.0079 19.2645 18.0687 19.3252 18.0687 19.4002V19.6939C18.0687 19.7688 18.1293 19.8296 18.2043 19.8296H19.3312C19.4061 19.8296 19.4669 19.7689 19.4669 19.6939V19.1141C19.4669 19.0392 19.4062 18.9784 19.3312 18.9784H18.7622C18.6873 18.9784 18.6266 19.0391 18.6266 19.1141V19.1289C18.6266 19.2038 18.6872 19.2645 18.7622 19.2645H19.0488C19.1237 19.2645 19.1845 19.3252 19.1845 19.4002V19.4149C19.1845 19.4898 19.1238 19.5506 19.0488 19.5506H18.4834C18.4085 19.5506 18.3478 19.4899 18.3478 19.4149V19.1141C18.3478 19.0392 18.2871 18.9784 18.2121 18.9784H17.0889C17.014 18.9784 16.9532 19.0391 16.9532 19.1141V19.6939C16.9532 19.7687 17.014 19.8296 17.0888 19.8296ZM17.6467 19.8296H17.6542C17.7291 19.8296 17.7898 19.7689 17.7898 19.6939V19.6862C17.7898 19.6113 17.7292 19.5506 17.6542 19.5506H17.6467C17.5718 19.5506 17.511 19.6112 17.511 19.6862V19.6939C17.5111 19.7687 17.5718 19.8296 17.6467 19.8296ZM17.0888 18.6924H20.447C20.5219 18.6924 20.5826 18.6317 20.5826 18.5567V18.5419C20.5826 18.467 20.522 18.4062 20.447 18.4062H17.0888C17.0139 18.4062 16.9531 18.4669 16.9531 18.5419V18.5567C16.9532 18.6317 17.014 18.6924 17.0888 18.6924ZM20.447 19.8296H19.8779C19.803 19.8296 19.7423 19.7689 19.7423 19.6939V19.1141C19.7423 19.0392 19.8029 18.9784 19.8779 18.9784H20.7296C20.8045 18.9784 20.8652 18.9178 20.8652 18.8428V18.5419C20.8652 18.467 20.9259 18.4062 21.0009 18.4062H21.0084C21.0833 18.4062 21.144 18.4669 21.144 18.5419V19.4149C21.144 19.4898 21.2047 19.5506 21.2797 19.5506H21.2838C21.3587 19.5506 21.4194 19.4899 21.4194 19.4149V18.5419C21.4194 18.467 21.4801 18.4062 21.5551 18.4062H21.5663C21.6412 18.4062 21.7019 18.4669 21.7019 18.5419V19.4149C21.7019 19.4898 21.7626 19.5506 21.8376 19.5506H21.8453C21.9202 19.5506 21.9809 19.4899 21.9809 19.4149V18.5419C21.9809 18.467 22.0416 18.4062 22.1166 18.4062H22.1241C22.199 18.4062 22.2598 18.4669 22.2598 18.5419V19.6939C22.2598 19.7688 22.1991 19.8296 22.1241 19.8296H21.0004C20.9255 19.8296 20.8647 19.7689 20.8647 19.6939V19.4002C20.8647 19.3253 20.8041 19.2645 20.7291 19.2645H20.1601C20.0852 19.2645 20.0244 19.3252 20.0244 19.4002V19.4149C20.0244 19.4898 20.0851 19.5506 20.1601 19.5506H20.4467C20.5216 19.5506 20.5823 19.6112 20.5823 19.6862V19.6939C20.5825 19.7687 20.5219 19.8296 20.447 19.8296Z" fill="#F5F5F5"/>
<path d="M22.6737 19.8296H22.6814C22.7563 19.8296 22.8171 19.7689 22.8171 19.6939V19.4002C22.8171 19.3253 22.8777 19.2645 22.9527 19.2645H23.5182C23.5931 19.2645 23.6538 19.3252 23.6538 19.4002V19.6939C23.6538 19.7688 23.7145 19.8296 23.7895 19.8296H24.9164C24.9913 19.8296 25.052 19.7689 25.052 19.6939V19.1141C25.052 19.0392 24.9914 18.9784 24.9164 18.9784H24.3474C24.2725 18.9784 24.2117 19.0391 24.2117 19.1141V19.1289C24.2117 19.2038 24.2724 19.2645 24.3474 19.2645H24.6374C24.7123 19.2645 24.773 19.3252 24.773 19.4002V19.4149C24.773 19.4898 24.7124 19.5506 24.6374 19.5506H24.072C23.9971 19.5506 23.9363 19.4899 23.9363 19.4149V19.1141C23.9363 19.0392 23.8757 18.9784 23.8007 18.9784H22.6737C22.5988 18.9784 22.5381 19.0391 22.5381 19.1141V19.6939C22.5382 19.7687 22.5988 19.8296 22.6737 19.8296ZM23.2353 19.8296H23.2394C23.3143 19.8296 23.375 19.7689 23.375 19.6939V19.6862C23.375 19.6113 23.3144 19.5506 23.2394 19.5506H23.2353C23.1603 19.5506 23.0996 19.6112 23.0996 19.6862V19.6939C23.0996 19.7687 23.1603 19.8296 23.2353 19.8296ZM22.6737 18.6924H26.0355C26.1104 18.6924 26.1712 18.6317 26.1712 18.5567V18.5419C26.1712 18.467 26.1105 18.4062 26.0355 18.4062H22.6737C22.5988 18.4062 22.5381 18.4669 22.5381 18.5419V18.5567C22.5382 18.6317 22.5988 18.6924 22.6737 18.6924ZM26.0356 19.8296H25.4666C25.3917 19.8296 25.331 19.7689 25.331 19.6939V19.1141C25.331 19.0392 25.3916 18.9784 25.4666 18.9784H26.3146C26.3895 18.9784 26.4503 18.9178 26.4503 18.8428V18.5419C26.4503 18.467 26.5109 18.4062 26.5859 18.4062H26.5935C26.6684 18.4062 26.7291 18.4669 26.7291 18.5419V19.4149C26.7291 19.4898 26.7897 19.5506 26.8647 19.5506H26.8725C26.9474 19.5506 27.0081 19.4899 27.0081 19.4149V18.5419C27.0081 18.467 27.0687 18.4062 27.1437 18.4062H27.1513C27.2262 18.4062 27.2869 18.4669 27.2869 18.5419V19.4149C27.2869 19.4898 27.3475 19.5506 27.4225 19.5506H27.4301C27.505 19.5506 27.5657 19.4899 27.5657 19.4149V18.5419C27.5657 18.467 27.6264 18.4062 27.7014 18.4062H27.7091C27.784 18.4062 27.8447 18.4669 27.8447 18.5419V19.6939C27.8447 19.7688 27.7841 19.8296 27.7091 19.8296H26.5858C26.5109 19.8296 26.4502 19.7689 26.4502 19.6939V19.4002C26.4502 19.3253 26.3895 19.2645 26.3145 19.2645H25.7455C25.6706 19.2645 25.6099 19.3252 25.6099 19.4002V19.4149C25.6099 19.4898 25.6705 19.5506 25.7455 19.5506H26.0355C26.1104 19.5506 26.1712 19.6112 26.1712 19.6862V19.6939C26.1712 19.7687 26.1105 19.8296 26.0356 19.8296Z" fill="#F5F5F5"/>
<path d="M28.2587 19.8296H28.2664C28.3413 19.8296 28.402 19.7689 28.402 19.6939V19.4002C28.402 19.3253 28.4627 19.2645 28.5377 19.2645H29.1031C29.178 19.2645 29.2388 19.3252 29.2388 19.4002V19.6939C29.2388 19.7688 29.2994 19.8296 29.3744 19.8296H30.5014C30.5763 19.8296 30.637 19.7689 30.637 19.6939V19.1141C30.637 19.0392 30.5764 18.9784 30.5014 18.9784H29.9357C29.8608 18.9784 29.8001 19.0391 29.8001 19.1141V19.1289C29.8001 19.2038 29.8607 19.2645 29.9357 19.2645H30.2188C30.2937 19.2645 30.3545 19.3252 30.3545 19.4002V19.4149C30.3545 19.4898 30.2938 19.5506 30.2188 19.5506H29.6569C29.582 19.5506 29.5213 19.4899 29.5213 19.4149V19.1141C29.5213 19.0392 29.4606 18.9784 29.3856 18.9784H28.2587C28.1838 18.9784 28.123 19.0391 28.123 19.1141V19.6939C28.123 19.7687 28.1838 19.8296 28.2587 19.8296ZM28.8201 19.8296H28.8242C28.8991 19.8296 28.9599 19.7689 28.9599 19.6939V19.6862C28.9599 19.6113 28.8992 19.5506 28.8242 19.5506H28.8201C28.7452 19.5506 28.6845 19.6112 28.6845 19.6862V19.6939C28.6846 19.7687 28.7452 19.8296 28.8201 19.8296ZM28.2587 18.6924H31.6204C31.6953 18.6924 31.756 18.6317 31.756 18.5567V18.5419C31.756 18.467 31.6954 18.4062 31.6204 18.4062H28.2587C28.1838 18.4062 28.123 18.4669 28.123 18.5419V18.5567C28.123 18.6317 28.1838 18.6924 28.2587 18.6924ZM31.6205 19.8296H31.0551C30.9802 19.8296 30.9194 19.7689 30.9194 19.6939V19.1141C30.9194 19.0392 30.9801 18.9784 31.0551 18.9784H31.8994C31.9743 18.9784 32.0351 18.9178 32.0351 18.8428V18.5419C32.0351 18.467 32.0957 18.4062 32.1707 18.4062H32.1784C32.2533 18.4062 32.3141 18.4669 32.3141 18.5419V19.4149C32.3141 19.4898 32.3747 19.5506 32.4497 19.5506H32.4572C32.5321 19.5506 32.5929 19.4899 32.5929 19.4149V18.5419C32.5929 18.467 32.6535 18.4062 32.7285 18.4062H32.7362C32.8111 18.4062 32.8719 18.4669 32.8719 18.5419V19.4149C32.8719 19.4898 32.9325 19.5506 33.0075 19.5506H33.015C33.0899 19.5506 33.1507 19.4899 33.1507 19.4149V18.5419C33.1507 18.467 33.2113 18.4062 33.2863 18.4062H33.294C33.3689 18.4062 33.4297 18.4669 33.4297 18.5419V19.6939C33.4297 19.7688 33.369 19.8296 33.294 19.8296H32.1705C32.0956 19.8296 32.0349 19.7689 32.0349 19.6939V19.4002C32.0349 19.3253 31.9742 19.2645 31.8992 19.2645H31.3303C31.2554 19.2645 31.1946 19.3252 31.1946 19.4002V19.4149C31.1946 19.4898 31.2553 19.5506 31.3303 19.5506H31.6203C31.6952 19.5506 31.7559 19.6112 31.7559 19.6862V19.6939C31.7561 19.7687 31.6953 19.8296 31.6205 19.8296Z" fill="#F5F5F5"/>
<path d="M33.8446 19.8296H33.8523C33.9272 19.8296 33.988 19.7689 33.988 19.6939V19.4002C33.988 19.3253 34.0486 19.2645 34.1236 19.2645H34.6926C34.7675 19.2645 34.8282 19.3252 34.8282 19.4002V19.6939C34.8282 19.7688 34.8889 19.8296 34.9639 19.8296H36.0874C36.1623 19.8296 36.223 19.7689 36.223 19.6939V19.1141C36.223 19.0392 36.1624 18.9784 36.0874 18.9784H35.5218C35.4469 18.9784 35.3861 19.0391 35.3861 19.1141V19.1289C35.3861 19.2038 35.4468 19.2645 35.5218 19.2645H35.8121C35.887 19.2645 35.9477 19.3252 35.9477 19.4002V19.4149C35.9477 19.4898 35.8871 19.5506 35.8121 19.5506H35.2393C35.1644 19.5506 35.1037 19.4899 35.1037 19.4149V19.1141C35.1037 19.0392 35.0431 18.9784 34.9681 18.9784H33.8448C33.7699 18.9784 33.7092 19.0391 33.7092 19.1141V19.6939C33.7091 19.7687 33.7697 19.8296 33.8446 19.8296ZM34.4025 19.8296H34.4138C34.4887 19.8296 34.5494 19.7689 34.5494 19.6939V19.6862C34.5494 19.6113 34.4888 19.5506 34.4138 19.5506H34.4025C34.3276 19.5506 34.2669 19.6112 34.2669 19.6862V19.6939C34.2669 19.7687 34.3276 19.8296 34.4025 19.8296ZM33.8446 18.6924H37.2063C37.2812 18.6924 37.342 18.6317 37.342 18.5567V18.5419C37.342 18.467 37.2813 18.4062 37.2063 18.4062H33.8446C33.7697 18.4062 33.709 18.4669 33.709 18.5419V18.5567C33.7091 18.6317 33.7697 18.6924 33.8446 18.6924ZM37.2065 19.8296H36.6411C36.5662 19.8296 36.5055 19.7689 36.5055 19.6939V19.1141C36.5055 19.0392 36.5661 18.9784 36.6411 18.9784H37.4854C37.5603 18.9784 37.6211 18.9178 37.6211 18.8428V18.5419C37.6211 18.467 37.6817 18.4062 37.7567 18.4062H37.7644C37.8393 18.4062 37.9001 18.4669 37.9001 18.5419V19.4149C37.9001 19.4898 37.9607 19.5506 38.0357 19.5506H38.0432C38.1181 19.5506 38.1789 19.4899 38.1789 19.4149V18.5419C38.1789 18.467 38.2395 18.4062 38.3145 18.4062H38.3222C38.3972 18.4062 38.4579 18.4669 38.4579 18.5419V19.4149C38.4579 19.4898 38.5185 19.5506 38.5935 19.5506H38.6048C38.6797 19.5506 38.7404 19.4899 38.7404 19.4149V18.5419C38.7404 18.467 38.8011 18.4062 38.8761 18.4062H38.88C38.9549 18.4062 39.0156 18.4669 39.0156 18.5419V19.6939C39.0156 19.7688 38.955 19.8296 38.88 19.8296H37.7567C37.6818 19.8296 37.6211 19.7689 37.6211 19.6939V19.4002C37.6211 19.3253 37.5604 19.2645 37.4854 19.2645H36.9235C36.8486 19.2645 36.7879 19.3252 36.7879 19.4002V19.4149C36.7879 19.4898 36.8485 19.5506 36.9235 19.5506H37.2066C37.2815 19.5506 37.3423 19.6112 37.3423 19.6862V19.6939C37.3421 19.7687 37.2814 19.8296 37.2065 19.8296Z" fill="#F5F5F5"/>
<path d="M39.4335 19.8296H39.4376C39.5125 19.8296 39.5732 19.7689 39.5732 19.6939V19.4002C39.5732 19.3253 39.6339 19.2645 39.7089 19.2645H40.2745C40.3494 19.2645 40.4102 19.3252 40.4102 19.4002V19.6939C40.4102 19.7688 40.4708 19.8296 40.5458 19.8296H41.6726C41.7475 19.8296 41.8082 19.7689 41.8082 19.6939V19.1141C41.8082 19.0392 41.7476 18.9784 41.6726 18.9784H41.1108C41.0359 18.9784 40.9752 19.0391 40.9752 19.1141V19.1289C40.9752 19.2038 41.0358 19.2645 41.1108 19.2645H41.3973C41.4722 19.2645 41.5329 19.3252 41.5329 19.4002V19.4149C41.5329 19.4898 41.4723 19.5506 41.3973 19.5506H40.8283C40.7534 19.5506 40.6927 19.4899 40.6927 19.4149V19.1141C40.6927 19.0392 40.632 18.9784 40.557 18.9784H39.4335C39.3586 18.9784 39.2979 19.0391 39.2979 19.1141V19.6939C39.2978 19.7687 39.3586 19.8296 39.4335 19.8296ZM39.9913 19.8296H39.999C40.0739 19.8296 40.1347 19.7689 40.1347 19.6939V19.6862C40.1347 19.6113 40.074 19.5506 39.999 19.5506H39.9913C39.9164 19.5506 39.8557 19.6112 39.8557 19.6862V19.6939C39.8557 19.7687 39.9164 19.8296 39.9913 19.8296ZM39.4335 18.6924H42.7989C42.8738 18.6924 42.9346 18.6317 42.9346 18.5567V18.5419C42.9346 18.467 42.8739 18.4062 42.7989 18.4062H39.4335C39.3586 18.4062 39.2979 18.4669 39.2979 18.5419V18.5567C39.2978 18.6317 39.3586 18.6924 39.4335 18.6924ZM42.7988 19.8296H42.2261C42.1512 19.8296 42.0904 19.7689 42.0904 19.6939V19.1141C42.0904 19.0392 42.1511 18.9784 42.2261 18.9784H43.0706C43.1455 18.9784 43.2062 18.9178 43.2062 18.8428V18.5419C43.2062 18.467 43.2669 18.4062 43.3419 18.4062H43.3531C43.428 18.4062 43.4888 18.4669 43.4888 18.5419V19.4149C43.4888 19.4898 43.5494 19.5506 43.6244 19.5506H43.6319C43.7068 19.5506 43.7676 19.4899 43.7676 19.4149V18.5419C43.7676 18.467 43.8282 18.4062 43.9032 18.4062H43.9073C43.9822 18.4062 44.043 18.4669 44.043 18.5419V19.4149C44.043 19.4898 44.1036 19.5506 44.1786 19.5506H44.1898C44.2647 19.5506 44.3255 19.4899 44.3255 19.4149V18.5419C44.3255 18.467 44.3861 18.4062 44.4611 18.4062H44.4688C44.5437 18.4062 44.6045 18.4669 44.6045 18.5419V19.6939C44.6045 19.7688 44.5438 19.8296 44.4688 19.8296H43.3419C43.267 19.8296 43.2062 19.7689 43.2062 19.6939V19.4002C43.2062 19.3253 43.1456 19.2645 43.0706 19.2645H42.5052C42.4303 19.2645 42.3695 19.3252 42.3695 19.4002V19.4149C42.3695 19.4898 42.4302 19.5506 42.5052 19.5506H42.7989C42.8738 19.5506 42.9346 19.6112 42.9346 19.6862V19.6939C42.9346 19.7687 42.8737 19.8296 42.7988 19.8296Z" fill="#F5F5F5"/>
<path d="M45.0185 19.8296H45.0262C45.1011 19.8296 45.1618 19.7689 45.1618 19.6939V19.4002C45.1618 19.3253 45.2225 19.2645 45.2975 19.2645H45.8629C45.9378 19.2645 45.9985 19.3252 45.9985 19.4002V19.6939C45.9985 19.7688 46.0592 19.8296 46.1342 19.8296H47.2611C47.336 19.8296 47.3968 19.7689 47.3968 19.6939V19.1141C47.3968 19.0392 47.3361 18.9784 47.2611 18.9784H46.6992C46.6243 18.9784 46.5636 19.0391 46.5636 19.1141V19.1289C46.5636 19.2038 46.6242 19.2645 46.6992 19.2645H46.9858C47.0607 19.2645 47.1215 19.3252 47.1215 19.4002V19.4149C47.1215 19.4898 47.0608 19.5506 46.9858 19.5506H46.4131C46.3382 19.5506 46.2774 19.4899 46.2774 19.4149V19.1141C46.2774 19.0392 46.2168 18.9784 46.1418 18.9784H45.0186C44.9437 18.9784 44.8829 19.0391 44.8829 19.1141V19.6939C44.8829 19.7687 44.9437 19.8296 45.0185 19.8296ZM45.5764 19.8296H45.5841C45.659 19.8296 45.7197 19.7689 45.7197 19.6939V19.6862C45.7197 19.6113 45.6591 19.5506 45.5841 19.5506H45.5764C45.5015 19.5506 45.4407 19.6112 45.4407 19.6862V19.6939C45.4408 19.7687 45.5015 19.8296 45.5764 19.8296ZM45.0185 18.6924H48.3767C48.4516 18.6924 48.5123 18.6317 48.5123 18.5567V18.5419C48.5123 18.467 48.4517 18.4062 48.3767 18.4062H45.0185C44.9436 18.4062 44.8828 18.4669 44.8828 18.5419V18.5567C44.8829 18.6317 44.9437 18.6924 45.0185 18.6924ZM48.3767 19.8296H47.8112C47.7363 19.8296 47.6756 19.7689 47.6756 19.6939V19.1141C47.6756 19.0392 47.7362 18.9784 47.8112 18.9784H48.6629C48.7378 18.9784 48.7985 18.9178 48.7985 18.8428V18.5419C48.7985 18.467 48.8592 18.4062 48.9342 18.4062H48.9346C49.0095 18.4062 49.0702 18.4669 49.0702 18.5419V19.4149C49.0702 19.4898 49.1309 19.5506 49.2059 19.5506H49.2207C49.2956 19.5506 49.3563 19.4899 49.3563 19.4149V18.5419C49.3563 18.467 49.417 18.4062 49.492 18.4062H49.4924C49.5673 18.4062 49.628 18.4669 49.628 18.5419V19.4149C49.628 19.4898 49.6887 19.5506 49.7637 19.5506H49.7714C49.8463 19.5506 49.907 19.4899 49.907 19.4149V18.5419C49.907 18.467 49.9677 18.4062 50.0427 18.4062H50.0574C50.1323 18.4062 50.1931 18.4669 50.1931 18.5419V19.6939C50.1931 19.7688 50.1324 19.8296 50.0574 19.8296H48.9342C48.8593 19.8296 48.7985 19.7689 48.7985 19.6939V19.4002C48.7985 19.3253 48.7379 19.2645 48.6629 19.2645H48.0902C48.0153 19.2645 47.9546 19.3252 47.9546 19.4002V19.4149C47.9546 19.4898 48.0152 19.5506 48.0902 19.5506H48.3767C48.4516 19.5506 48.5123 19.6112 48.5123 19.6862V19.6939C48.5123 19.7687 48.4516 19.8296 48.3767 19.8296Z" fill="#F5F5F5"/>
<path d="M0.329004 20.6952H2.57148C2.64638 20.6952 2.70712 20.6346 2.70712 20.5596V20.2587C2.70712 20.1838 2.64648 20.123 2.57148 20.123H0.329004C0.254101 20.123 0.193359 20.1837 0.193359 20.2587V20.5596C0.193359 20.6346 0.254004 20.6952 0.329004 20.6952ZM3.12519 20.6952H5.36415C5.43905 20.6952 5.4998 20.6346 5.4998 20.5596V20.2587C5.4998 20.1838 5.43915 20.123 5.36415 20.123H3.12519C3.05029 20.123 2.98955 20.1837 2.98955 20.2587V20.5596C2.98955 20.6346 3.05029 20.6952 3.12519 20.6952Z" fill="#F5F5F5"/>
<path d="M5.91787 20.6952H8.15683C8.23173 20.6952 8.29248 20.6346 8.29248 20.5596V20.2587C8.29248 20.1838 8.23183 20.123 8.15683 20.123H5.91787C5.84297 20.123 5.78223 20.1837 5.78223 20.2587V20.5596C5.78232 20.6346 5.84307 20.6952 5.91787 20.6952ZM8.70703 20.6952H10.9531C11.028 20.6952 11.0888 20.6346 11.0888 20.5596V20.2587C11.0888 20.1838 11.0281 20.123 10.9531 20.123H8.70703C8.63212 20.123 8.57138 20.1837 8.57138 20.2587V20.5596C8.57138 20.6346 8.63212 20.6952 8.70703 20.6952Z" fill="#F5F5F5"/>
<path d="M11.5028 20.6952H13.7453C13.8202 20.6952 13.881 20.6346 13.881 20.5596V20.2587C13.881 20.1838 13.8203 20.123 13.7453 20.123H11.5028C11.4279 20.123 11.3672 20.1837 11.3672 20.2587V20.5596C11.3671 20.6346 11.4279 20.6952 11.5028 20.6952ZM14.2954 20.6952H16.5379C16.6128 20.6952 16.6735 20.6346 16.6735 20.5596V20.2587C16.6735 20.1838 16.6129 20.123 16.5379 20.123H14.2954C14.2205 20.123 14.1598 20.1837 14.1598 20.2587V20.5596C14.1599 20.6346 14.2206 20.6952 14.2954 20.6952Z" fill="#F5F5F5"/>
<path d="M17.0888 20.6952H19.3312C19.4061 20.6952 19.4669 20.6346 19.4669 20.5596V20.2587C19.4669 20.1838 19.4062 20.123 19.3312 20.123H17.0888C17.0139 20.123 16.9531 20.1837 16.9531 20.2587V20.5596C16.9532 20.6346 17.014 20.6952 17.0888 20.6952ZM19.8779 20.6952H22.124C22.1989 20.6952 22.2597 20.6346 22.2597 20.5596V20.2587C22.2597 20.1838 22.199 20.123 22.124 20.123H19.8779C19.803 20.123 19.7423 20.1837 19.7423 20.2587V20.5596C19.7423 20.6346 19.8029 20.6952 19.8779 20.6952Z" fill="#F5F5F5"/>
<path d="M22.6737 20.6952H24.9164C24.9913 20.6952 25.052 20.6346 25.052 20.5596V20.2587C25.052 20.1838 24.9914 20.123 24.9164 20.123H22.6737C22.5988 20.123 22.5381 20.1837 22.5381 20.2587V20.5596C22.5382 20.6346 22.5988 20.6952 22.6737 20.6952ZM25.4664 20.6952H27.7091C27.784 20.6952 27.8447 20.6346 27.8447 20.5596V20.2587C27.8447 20.1838 27.7841 20.123 27.7091 20.123H25.4664C25.3915 20.123 25.3308 20.1837 25.3308 20.2587V20.5596C25.3309 20.6346 25.3915 20.6952 25.4664 20.6952Z" fill="#F5F5F5"/>
<path d="M28.2587 20.6952H30.5014C30.5763 20.6952 30.637 20.6346 30.637 20.5596V20.2587C30.637 20.1838 30.5764 20.123 30.5014 20.123H28.2587C28.1838 20.123 28.123 20.1837 28.123 20.2587V20.5596C28.123 20.6346 28.1838 20.6952 28.2587 20.6952ZM31.0551 20.6952H33.294C33.3689 20.6952 33.4297 20.6346 33.4297 20.5596V20.2587C33.4297 20.1838 33.369 20.123 33.294 20.123H31.0551C30.9802 20.123 30.9194 20.1837 30.9194 20.2587V20.5596C30.9194 20.6346 30.9802 20.6952 31.0551 20.6952Z" fill="#F5F5F5"/>
<path d="M33.8446 20.6952H36.0873C36.1622 20.6952 36.2229 20.6346 36.2229 20.5596V20.2587C36.2229 20.1838 36.1623 20.123 36.0873 20.123H33.8446C33.7697 20.123 33.709 20.1837 33.709 20.2587V20.5596C33.7091 20.6346 33.7697 20.6952 33.8446 20.6952ZM36.641 20.6952H38.8798C38.9547 20.6952 39.0154 20.6346 39.0154 20.5596V20.2587C39.0154 20.1838 38.9548 20.123 38.8798 20.123H36.641C36.5661 20.123 36.5054 20.1837 36.5054 20.2587V20.5596C36.5055 20.6346 36.5661 20.6952 36.641 20.6952Z" fill="#F5F5F5"/>
<path d="M39.4335 20.6952H41.6725C41.7474 20.6952 41.8081 20.6346 41.8081 20.5596V20.2587C41.8081 20.1838 41.7475 20.123 41.6725 20.123H39.4335C39.3586 20.123 39.2979 20.1837 39.2979 20.2587V20.5596C39.2978 20.6346 39.3586 20.6952 39.4335 20.6952ZM42.2262 20.6952H44.4688C44.5437 20.6952 44.6045 20.6346 44.6045 20.5596V20.2587C44.6045 20.1838 44.5438 20.123 44.4688 20.123H42.2262C42.1513 20.123 42.0905 20.1837 42.0905 20.2587V20.5596C42.0905 20.6346 42.1513 20.6952 42.2262 20.6952Z" fill="#F5F5F5"/>
<path d="M45.0185 20.6952H47.2611C47.336 20.6952 47.3968 20.6346 47.3968 20.5596V20.2587C47.3968 20.1838 47.3361 20.123 47.2611 20.123H45.0185C44.9436 20.123 44.8828 20.1837 44.8828 20.2587V20.5596C44.8829 20.6346 44.9437 20.6952 45.0185 20.6952ZM47.8113 20.6952H50.0574C50.1323 20.6952 50.1931 20.6346 50.1931 20.5596V20.2587C50.1931 20.1838 50.1324 20.123 50.0574 20.123H47.8113C47.7364 20.123 47.6757 20.1837 47.6757 20.2587V20.5596C47.6756 20.6346 47.7363 20.6952 47.8113 20.6952Z" fill="#F5F5F5"/>
<path d="M50.0575 31.9043H50.05C49.9751 31.9043 49.9143 31.9649 49.9143 32.0399V32.3337C49.9143 32.4086 49.8537 32.4693 49.7787 32.4693H49.2097C49.1348 32.4693 49.074 32.4087 49.074 32.3337V32.0399C49.074 31.965 49.0134 31.9043 48.9384 31.9043H47.8151C47.7402 31.9043 47.6795 31.9649 47.6795 32.0399V32.6199C47.6795 32.6948 47.7401 32.7556 47.8151 32.7556H48.3806C48.4555 32.7556 48.5162 32.6949 48.5162 32.6199V32.6051C48.5162 32.5302 48.4556 32.4694 48.3806 32.4694H48.0939C48.019 32.4694 47.9583 32.4088 47.9583 32.3338V32.319C47.9583 32.2441 48.0189 32.1834 48.0939 32.1834H48.6596C48.7345 32.1834 48.7952 32.244 48.7952 32.319V32.6199C48.7952 32.6948 48.8559 32.7556 48.9309 32.7556H50.0576C50.1325 32.7556 50.1932 32.6949 50.1932 32.6199V32.0399C50.1932 31.965 50.1325 31.9043 50.0575 31.9043ZM49.4962 31.9043H49.4885C49.4136 31.9043 49.3528 31.9649 49.3528 32.0399V32.0477C49.3528 32.1226 49.4135 32.1833 49.4885 32.1833H49.4962C49.5711 32.1833 49.6318 32.1227 49.6318 32.0477V32.0399C49.6318 31.965 49.5711 31.9043 49.4962 31.9043ZM50.0575 33.0415H46.6959C46.621 33.0415 46.5603 33.1021 46.5603 33.1771V33.192C46.5603 33.2669 46.6209 33.3276 46.6959 33.3276H50.0575C50.1324 33.3276 50.1932 33.267 50.1932 33.192V33.1771C50.1932 33.1021 50.1325 33.0415 50.0575 33.0415ZM46.696 31.9043H47.2614C47.3363 31.9043 47.3971 31.9649 47.3971 32.0399V32.6199C47.3971 32.6948 47.3364 32.7556 47.2614 32.7556H46.4169C46.342 32.7556 46.2812 32.8162 46.2812 32.8912V33.1921C46.2812 33.267 46.2206 33.3277 46.1456 33.3277H46.1381C46.0632 33.3277 46.0024 33.2671 46.0024 33.1921V32.319C46.0024 32.2441 45.9418 32.1834 45.8668 32.1834H45.8591C45.7842 32.1834 45.7234 32.244 45.7234 32.319V33.1921C45.7234 33.267 45.6628 33.3277 45.5878 33.3277H45.5803C45.5054 33.3277 45.4446 33.2671 45.4446 33.1921V32.319C45.4446 32.2441 45.384 32.1834 45.309 32.1834H45.2978C45.2229 32.1834 45.1621 32.244 45.1621 32.319V33.1921C45.1621 33.267 45.1015 33.3277 45.0265 33.3277H45.0224C44.9475 33.3277 44.8867 33.2671 44.8867 33.1921V32.04C44.8867 31.9651 44.9474 31.9044 45.0224 31.9044H46.1456C46.2205 31.9044 46.2812 31.965 46.2812 32.04V32.3338C46.2812 32.4087 46.3419 32.4694 46.4169 32.4694H46.9823C47.0572 32.4694 47.118 32.4088 47.118 32.3338V32.319C47.118 32.2441 47.0573 32.1834 46.9823 32.1834H46.6959C46.621 32.1834 46.5603 32.1228 46.5603 32.0478V32.04C46.5603 31.965 46.6211 31.9043 46.696 31.9043Z" fill="#F5F5F5"/>
<path d="M44.4689 31.9043H44.4577C44.3828 31.9043 44.3221 31.9649 44.3221 32.0399V32.3337C44.3221 32.4086 44.2614 32.4693 44.1864 32.4693H43.6245C43.5496 32.4693 43.4889 32.4087 43.4889 32.3337V32.0399C43.4889 31.965 43.4282 31.9043 43.3532 31.9043H42.23C42.1551 31.9043 42.0943 31.9649 42.0943 32.0399V32.6199C42.0943 32.6948 42.155 32.7556 42.23 32.7556H42.7954C42.8703 32.7556 42.931 32.6949 42.931 32.6199V32.6051C42.931 32.5302 42.8704 32.4694 42.7954 32.4694H42.5088C42.4339 32.4694 42.3731 32.4088 42.3731 32.3338V32.319C42.3731 32.2441 42.4338 32.1834 42.5088 32.1834H43.0744C43.1493 32.1834 43.2101 32.244 43.2101 32.319V32.6199C43.2101 32.6948 43.2707 32.7556 43.3457 32.7556H44.4689C44.5438 32.7556 44.6046 32.6949 44.6046 32.6199V32.0399C44.6045 31.965 44.5437 31.9043 44.4689 31.9043ZM43.911 31.9043H43.9035C43.8286 31.9043 43.7679 31.9649 43.7679 32.0399V32.0477C43.7679 32.1226 43.8285 32.1833 43.9035 32.1833H43.911C43.9859 32.1833 44.0467 32.1227 44.0467 32.0477V32.0399C44.0466 31.965 43.9859 31.9043 43.911 31.9043ZM44.4689 33.0415H41.1107C41.0358 33.0415 40.9751 33.1021 40.9751 33.1771V33.192C40.9751 33.2669 41.0357 33.3276 41.1107 33.3276H44.4689C44.5438 33.3276 44.6046 33.267 44.6046 33.192V33.1771C44.6045 33.1021 44.5437 33.0415 44.4689 33.0415ZM41.1107 31.9043H41.6798C41.7547 31.9043 41.8154 31.9649 41.8154 32.0399V32.6199C41.8154 32.6948 41.7548 32.7556 41.6798 32.7556H40.8353C40.7603 32.7556 40.6996 32.8162 40.6996 32.8912V33.1921C40.6996 33.267 40.639 33.3277 40.564 33.3277H40.5527C40.4778 33.3277 40.4171 33.2671 40.4171 33.1921V32.319C40.4171 32.2441 40.3564 32.1834 40.2814 32.1834H40.2702C40.1953 32.1834 40.1346 32.244 40.1346 32.319V33.1921C40.1346 33.267 40.0739 33.3277 39.9989 33.3277H39.9948C39.9199 33.3277 39.8592 33.2671 39.8592 33.1921V32.319C39.8592 32.2441 39.7985 32.1834 39.7235 32.1834H39.7123C39.6374 32.1834 39.5767 32.244 39.5767 32.319V33.1921C39.5767 33.267 39.516 33.3277 39.441 33.3277H39.4335C39.3586 33.3277 39.2979 33.2671 39.2979 33.1921V32.04C39.2979 31.9651 39.3585 31.9044 39.4335 31.9044H40.5639C40.6388 31.9044 40.6995 31.965 40.6995 32.04V32.3338C40.6995 32.4087 40.7602 32.4694 40.8352 32.4694H41.3971C41.472 32.4694 41.5327 32.4088 41.5327 32.3338V32.319C41.5327 32.2441 41.4721 32.1834 41.3971 32.1834H41.1104C41.0355 32.1834 40.9748 32.1228 40.9748 32.0478V32.04C40.9751 31.965 41.0358 31.9043 41.1107 31.9043Z" fill="#F5F5F5"/>
<path d="M38.8828 31.9043H38.8753C38.8004 31.9043 38.7396 31.9649 38.7396 32.0399V32.3337C38.7396 32.4086 38.679 32.4693 38.604 32.4693H38.0384C37.9635 32.4693 37.9027 32.4087 37.9027 32.3337V32.0399C37.9027 31.965 37.8421 31.9043 37.7671 31.9043H36.6403C36.5654 31.9043 36.5047 31.9649 36.5047 32.0399V32.6199C36.5047 32.6948 36.5653 32.7556 36.6403 32.7556H37.2058C37.2807 32.7556 37.3414 32.6949 37.3414 32.6199V32.6051C37.3414 32.5302 37.2808 32.4694 37.2058 32.4694H36.9191C36.8442 32.4694 36.7835 32.4088 36.7835 32.3338V32.319C36.7835 32.2441 36.8441 32.1834 36.9191 32.1834H37.4882C37.5631 32.1834 37.6238 32.244 37.6238 32.319V32.6199C37.6238 32.6948 37.6845 32.7556 37.7595 32.7556H38.8827C38.9576 32.7556 39.0184 32.6949 39.0184 32.6199V32.0399C39.0185 31.965 38.9577 31.9043 38.8828 31.9043ZM38.325 31.9043H38.3175C38.2426 31.9043 38.1818 31.9649 38.1818 32.0399V32.0477C38.1818 32.1226 38.2425 32.1833 38.3175 32.1833H38.325C38.3999 32.1833 38.4606 32.1227 38.4606 32.0477V32.0399C38.4606 31.965 38.3999 31.9043 38.325 31.9043ZM38.8828 33.0415H35.521C35.4461 33.0415 35.3854 33.1021 35.3854 33.1771V33.192C35.3854 33.2669 35.446 33.3276 35.521 33.3276H38.8828C38.9577 33.3276 39.0185 33.267 39.0185 33.192V33.1771C39.0185 33.1021 38.9577 33.0415 38.8828 33.0415ZM35.5211 31.9043H36.0901C36.165 31.9043 36.2258 31.9649 36.2258 32.0399V32.6199C36.2258 32.6948 36.1651 32.7556 36.0901 32.7556H35.2458C35.1709 32.7556 35.1102 32.8162 35.1102 32.8912V33.1921C35.1102 33.267 35.0495 33.3277 34.9745 33.3277H34.9668C34.8919 33.3277 34.8312 33.2671 34.8312 33.1921V32.319C34.8312 32.2441 34.7705 32.1834 34.6955 32.1834H34.6843C34.6094 32.1834 34.5486 32.244 34.5486 32.319V33.1921C34.5486 33.267 34.488 33.3277 34.413 33.3277H34.4018C34.3269 33.3277 34.2661 33.2671 34.2661 33.1921V32.319C34.2661 32.2441 34.2055 32.1834 34.1305 32.1834H34.1264C34.0515 32.1834 33.9907 32.244 33.9907 32.319V33.1921C33.9907 33.267 33.9301 33.3277 33.8551 33.3277H33.8476C33.7727 33.3277 33.7119 33.2671 33.7119 33.1921V32.04C33.7119 31.9651 33.7726 31.9044 33.8476 31.9044H34.9745C35.0494 31.9044 35.1102 31.965 35.1102 32.04V32.3338C35.1102 32.4087 35.1708 32.4694 35.2458 32.4694H35.8112C35.8861 32.4694 35.9469 32.4088 35.9469 32.3338V32.319C35.9469 32.2441 35.8862 32.1834 35.8112 32.1834H35.5209C35.446 32.1834 35.3853 32.1228 35.3853 32.0478V32.04C35.3854 31.965 35.4462 31.9043 35.5211 31.9043Z" fill="#F5F5F5"/>
<path d="M33.2979 31.9043H33.2904C33.2155 31.9043 33.1548 31.9649 33.1548 32.0399V32.3337C33.1548 32.4086 33.0941 32.4693 33.0191 32.4693H32.4537C32.3788 32.4693 32.3181 32.4087 32.3181 32.3337V32.0399C32.3181 31.965 32.2574 31.9043 32.1824 31.9043H31.0555C30.9806 31.9043 30.9198 31.9649 30.9198 32.0399V32.6199C30.9198 32.6948 30.9805 32.7556 31.0555 32.7556H31.6245C31.6994 32.7556 31.7601 32.6949 31.7601 32.6199V32.6051C31.7601 32.5302 31.6995 32.4694 31.6245 32.4694H31.3379C31.263 32.4694 31.2022 32.4088 31.2022 32.3338V32.319C31.2022 32.2441 31.2629 32.1834 31.3379 32.1834H31.9033C31.9782 32.1834 32.039 32.244 32.039 32.319V32.6199C32.039 32.6948 32.0996 32.7556 32.1746 32.7556H33.2978C33.3727 32.7556 33.4335 32.6949 33.4335 32.6199V32.0399C33.4335 31.965 33.3727 31.9043 33.2979 31.9043ZM32.74 31.9043H32.7325C32.6576 31.9043 32.5969 31.9649 32.5969 32.0399V32.0477C32.5969 32.1226 32.6575 32.1833 32.7325 32.1833H32.74C32.8149 32.1833 32.8757 32.1227 32.8757 32.0477V32.0399C32.8756 31.965 32.8149 31.9043 32.74 31.9043ZM33.2979 33.0415H29.9397C29.8648 33.0415 29.8041 33.1021 29.8041 33.1771V33.192C29.8041 33.2669 29.8647 33.3276 29.9397 33.3276H33.2979C33.3728 33.3276 33.4336 33.267 33.4336 33.192V33.1771C33.4335 33.1021 33.3727 33.0415 33.2979 33.0415ZM29.9397 31.9043H30.5088C30.5837 31.9043 30.6444 31.9649 30.6444 32.0399V32.6199C30.6444 32.6948 30.5838 32.7556 30.5088 32.7556H29.6571C29.5822 32.7556 29.5215 32.8162 29.5215 32.8912V33.1921C29.5215 33.267 29.4608 33.3277 29.3858 33.3277H29.3783C29.3034 33.3277 29.2427 33.2671 29.2427 33.1921V32.319C29.2427 32.2441 29.182 32.1834 29.107 32.1834H29.1029C29.028 32.1834 28.9673 32.244 28.9673 32.319V33.1921C28.9673 33.267 28.9066 33.3277 28.8316 33.3277H28.8204C28.7455 33.3277 28.6848 33.2671 28.6848 33.1921V32.319C28.6848 32.2441 28.6241 32.1834 28.5491 32.1834H28.5414C28.4665 32.1834 28.4058 32.244 28.4058 32.319V33.1921C28.4058 33.267 28.3451 33.3277 28.2701 33.3277H28.2626C28.1877 33.3277 28.127 33.2671 28.127 33.1921V32.04C28.127 31.9651 28.1876 31.9044 28.2626 31.9044H29.3858C29.4607 31.9044 29.5215 31.965 29.5215 32.04V32.3338C29.5215 32.4087 29.5821 32.4694 29.6571 32.4694H30.2262C30.3011 32.4694 30.3618 32.4088 30.3618 32.3338V32.319C30.3618 32.2441 30.3012 32.1834 30.2262 32.1834H29.9395C29.8646 32.1834 29.8039 32.1228 29.8039 32.0478V32.04C29.8042 31.965 29.8648 31.9043 29.9397 31.9043Z" fill="#F5F5F5"/>
<path d="M27.713 31.9043H27.7053C27.6304 31.9043 27.5696 31.9649 27.5696 32.0399V32.3337C27.5696 32.4086 27.509 32.4693 27.434 32.4693H26.8685C26.7936 32.4693 26.7329 32.4087 26.7329 32.3337V32.0399C26.7329 31.965 26.6723 31.9043 26.5973 31.9043H25.4703C25.3954 31.9043 25.3347 31.9649 25.3347 32.0399V32.6199C25.3347 32.6948 25.3953 32.7556 25.4703 32.7556H26.0393C26.1142 32.7556 26.175 32.6949 26.175 32.6199V32.6051C26.175 32.5302 26.1143 32.4694 26.0393 32.4694H25.7493C25.6744 32.4694 25.6137 32.4088 25.6137 32.3338V32.319C25.6137 32.2441 25.6743 32.1834 25.7493 32.1834H26.3147C26.3896 32.1834 26.4504 32.244 26.4504 32.319V32.6199C26.4504 32.6948 26.511 32.7556 26.586 32.7556H27.713C27.7879 32.7556 27.8486 32.6949 27.8486 32.6199V32.0399C27.8485 31.965 27.7879 31.9043 27.713 31.9043ZM27.1515 31.9043H27.1474C27.0725 31.9043 27.0117 31.9649 27.0117 32.0399V32.0477C27.0117 32.1226 27.0724 32.1833 27.1474 32.1833H27.1515C27.2264 32.1833 27.2871 32.1227 27.2871 32.0477V32.0399C27.2871 31.965 27.2264 31.9043 27.1515 31.9043ZM27.713 33.0415H24.3512C24.2763 33.0415 24.2155 33.1021 24.2155 33.1771V33.192C24.2155 33.2669 24.2762 33.3276 24.3512 33.3276H27.713C27.7879 33.3276 27.8486 33.267 27.8486 33.192V33.1771C27.8485 33.1021 27.7879 33.0415 27.713 33.0415ZM24.3511 31.9043H24.9201C24.995 31.9043 25.0558 31.9649 25.0558 32.0399V32.6199C25.0558 32.6948 24.9951 32.7556 24.9201 32.7556H24.0721C23.9972 32.7556 23.9364 32.8162 23.9364 32.8912V33.1921C23.9364 33.267 23.8758 33.3277 23.8008 33.3277H23.7933C23.7184 33.3277 23.6576 33.2671 23.6576 33.1921V32.319C23.6576 32.2441 23.597 32.1834 23.522 32.1834H23.5143C23.4394 32.1834 23.3786 32.244 23.3786 32.319V33.1921C23.3786 33.267 23.318 33.3277 23.243 33.3277H23.2354C23.1605 33.3277 23.0998 33.2671 23.0998 33.1921V32.319C23.0998 32.2441 23.0392 32.1834 22.9642 32.1834H22.9566C22.8817 32.1834 22.821 32.244 22.821 32.319V33.1921C22.821 33.267 22.7604 33.3277 22.6854 33.3277H22.6776C22.6027 33.3277 22.542 33.2671 22.542 33.1921V32.04C22.542 31.9651 22.6026 31.9044 22.6776 31.9044H23.8009C23.8758 31.9044 23.9365 31.965 23.9365 32.04V32.3338C23.9365 32.4087 23.9972 32.4694 24.0722 32.4694H24.6412C24.7161 32.4694 24.7769 32.4088 24.7769 32.3338V32.319C24.7769 32.2441 24.7162 32.1834 24.6412 32.1834H24.3512C24.2763 32.1834 24.2155 32.1228 24.2155 32.0478V32.04C24.2155 31.965 24.2762 31.9043 24.3511 31.9043Z" fill="#F5F5F5"/>
<path d="M22.127 31.9043H22.1193C22.0444 31.9043 21.9837 31.9649 21.9837 32.0399V32.3337C21.9837 32.4086 21.923 32.4693 21.848 32.4693H21.2826C21.2077 32.4693 21.147 32.4087 21.147 32.3337V32.0399C21.147 31.965 21.0863 31.9043 21.0113 31.9043H19.8844C19.8095 31.9043 19.7487 31.9649 19.7487 32.0399V32.6199C19.7487 32.6948 19.8094 32.7556 19.8844 32.7556H20.45C20.5249 32.7556 20.5856 32.6949 20.5856 32.6199V32.6051C20.5856 32.5302 20.525 32.4694 20.45 32.4694H20.1669C20.092 32.4694 20.0312 32.4088 20.0312 32.3338V32.319C20.0312 32.2441 20.0919 32.1834 20.1669 32.1834H20.7288C20.8037 32.1834 20.8644 32.244 20.8644 32.319V32.6199C20.8644 32.6948 20.9251 32.7556 21.0001 32.7556H22.127C22.2019 32.7556 22.2627 32.6949 22.2627 32.6199V32.0399C22.2627 31.965 22.2019 31.9043 22.127 31.9043ZM21.5656 31.9043H21.5615C21.4866 31.9043 21.4259 31.9649 21.4259 32.0399V32.0477C21.4259 32.1226 21.4865 32.1833 21.5615 32.1833H21.5656C21.6405 32.1833 21.7013 32.1227 21.7013 32.0477V32.0399C21.7012 31.965 21.6405 31.9043 21.5656 31.9043ZM22.127 33.0415H18.7652C18.6903 33.0415 18.6296 33.1021 18.6296 33.1771V33.192C18.6296 33.2669 18.6902 33.3276 18.7652 33.3276H22.1269C22.2018 33.3276 22.2626 33.267 22.2626 33.192V33.1771C22.2627 33.1021 22.2019 33.0415 22.127 33.0415ZM18.7652 31.9043H19.3307C19.4056 31.9043 19.4663 31.9649 19.4663 32.0399V32.6199C19.4663 32.6948 19.4057 32.7556 19.3307 32.7556H18.4863C18.4114 32.7556 18.3507 32.8162 18.3507 32.8912V33.1921C18.3507 33.267 18.29 33.3277 18.215 33.3277H18.2073C18.1324 33.3277 18.0717 33.2671 18.0717 33.1921V32.319C18.0717 32.2441 18.011 32.1834 17.936 32.1834H17.9285C17.8536 32.1834 17.7929 32.244 17.7929 32.319V33.1921C17.7929 33.267 17.7322 33.3277 17.6572 33.3277H17.6495C17.5746 33.3277 17.5139 33.2671 17.5139 33.1921V32.319C17.5139 32.2441 17.4532 32.1834 17.3782 32.1834H17.3707C17.2958 32.1834 17.2351 32.244 17.2351 32.319V33.1921C17.2351 33.267 17.1744 33.3277 17.0994 33.3277H17.0917C17.0168 33.3277 16.9561 33.2671 16.9561 33.1921V32.04C16.9561 31.9651 17.0167 31.9044 17.0917 31.9044H18.2152C18.2901 31.9044 18.3509 31.965 18.3509 32.04V32.3338C18.3509 32.4087 18.4115 32.4694 18.4865 32.4694H19.0555C19.1304 32.4694 19.1911 32.4088 19.1911 32.3338V32.319C19.1911 32.2441 19.1305 32.1834 19.0555 32.1834H18.7654C18.6905 32.1834 18.6298 32.1228 18.6298 32.0478V32.04C18.6296 31.965 18.6904 31.9043 18.7652 31.9043Z" fill="#F5F5F5"/>
<path d="M16.5412 31.9043H16.5335C16.4586 31.9043 16.3978 31.9649 16.3978 32.0399V32.3337C16.3978 32.4086 16.3372 32.4693 16.2622 32.4693H15.6933C15.6184 32.4693 15.5576 32.4087 15.5576 32.3337V32.0399C15.5576 31.965 15.497 31.9043 15.422 31.9043H14.2984C14.2235 31.9043 14.1628 31.9649 14.1628 32.0399V32.6199C14.1628 32.6948 14.2234 32.7556 14.2984 32.7556H14.8641C14.939 32.7556 14.9997 32.6949 14.9997 32.6199V32.6051C14.9997 32.5302 14.9391 32.4694 14.8641 32.4694H14.5737C14.4988 32.4694 14.4381 32.4088 14.4381 32.3338V32.319C14.4381 32.2441 14.4987 32.1834 14.5737 32.1834H15.1465C15.2214 32.1834 15.2821 32.244 15.2821 32.319V32.6199C15.2821 32.6948 15.3428 32.7556 15.4178 32.7556H16.541C16.6159 32.7556 16.6767 32.6949 16.6767 32.6199V32.0399C16.6767 31.965 16.6161 31.9043 16.5412 31.9043ZM15.9833 31.9043H15.9721C15.8972 31.9043 15.8364 31.9649 15.8364 32.0399V32.0477C15.8364 32.1226 15.8971 32.1833 15.9721 32.1833H15.9833C16.0582 32.1833 16.1189 32.1227 16.1189 32.0477V32.0399C16.1189 31.965 16.0582 31.9043 15.9833 31.9043ZM16.5412 33.0415H13.1795C13.1046 33.0415 13.0438 33.1021 13.0438 33.1771V33.192C13.0438 33.2669 13.1045 33.3276 13.1795 33.3276H16.5412C16.6161 33.3276 16.6768 33.267 16.6768 33.192V33.1771C16.6767 33.1021 16.6161 33.0415 16.5412 33.0415ZM13.1793 31.9043H13.7447C13.8196 31.9043 13.8804 31.9649 13.8804 32.0399V32.6199C13.8804 32.6948 13.8197 32.7556 13.7447 32.7556H12.9004C12.8255 32.7556 12.7647 32.8162 12.7647 32.8912V33.1921C12.7647 33.267 12.7041 33.3277 12.6291 33.3277H12.6214C12.5465 33.3277 12.4857 33.2671 12.4857 33.1921V32.319C12.4857 32.2441 12.4251 32.1834 12.3501 32.1834H12.3426C12.2677 32.1834 12.2069 32.244 12.2069 32.319V33.1921C12.2069 33.267 12.1463 33.3277 12.0713 33.3277H12.0636C11.9887 33.3277 11.9279 33.2671 11.9279 33.1921V32.319C11.9279 32.2441 11.8673 32.1834 11.7923 32.1834H11.7811C11.7062 32.1834 11.6454 32.244 11.6454 32.319V33.1921C11.6454 33.267 11.5848 33.3277 11.5098 33.3277H11.5058C11.4309 33.3277 11.3701 33.2671 11.3701 33.1921V32.04C11.3701 31.9651 11.4308 31.9044 11.5058 31.9044H12.629C12.7039 31.9044 12.7646 31.965 12.7646 32.04V32.3338C12.7646 32.4087 12.8253 32.4694 12.9003 32.4694H13.4622C13.5371 32.4694 13.5978 32.4088 13.5978 32.3338V32.319C13.5978 32.2441 13.5372 32.1834 13.4622 32.1834H13.1791C13.1042 32.1834 13.0435 32.1228 13.0435 32.0478V32.04C13.0437 31.965 13.1044 31.9043 13.1793 31.9043Z" fill="#F5F5F5"/>
<path d="M10.9532 31.9043H10.9491C10.8742 31.9043 10.8135 31.9649 10.8135 32.0399V32.3337C10.8135 32.4086 10.7528 32.4693 10.6778 32.4693H10.1122C10.0373 32.4693 9.97655 32.4087 9.97655 32.3337V32.0399C9.97655 31.965 9.91591 31.9043 9.84091 31.9043H8.71435C8.63945 31.9043 8.57871 31.9649 8.57871 32.0399V32.6199C8.57871 32.6948 8.63935 32.7556 8.71435 32.7556H9.27607C9.35097 32.7556 9.41171 32.6949 9.41171 32.6199V32.6051C9.41171 32.5302 9.35107 32.4694 9.27607 32.4694H8.98964C8.91474 32.4694 8.854 32.4088 8.854 32.3338V32.319C8.854 32.2441 8.91464 32.1834 8.98964 32.1834H9.55868C9.63359 32.1834 9.69433 32.244 9.69433 32.319V32.6199C9.69433 32.6948 9.75497 32.7556 9.82997 32.7556H10.9535C11.0284 32.7556 11.0891 32.6949 11.0891 32.6199V32.0399C11.089 31.965 11.0281 31.9043 10.9532 31.9043ZM10.3954 31.9043H10.3877C10.3128 31.9043 10.252 31.9649 10.252 32.0399V32.0477C10.252 32.1226 10.3127 32.1833 10.3877 32.1833H10.3954C10.4703 32.1833 10.531 32.1227 10.531 32.0477V32.0399C10.531 31.965 10.4703 31.9043 10.3954 31.9043ZM10.9532 33.0415H7.58789C7.51299 33.0415 7.45224 33.1021 7.45224 33.1771V33.192C7.45224 33.2669 7.51289 33.3276 7.58789 33.3276H10.9533C11.0282 33.3276 11.089 33.267 11.089 33.192V33.1771C11.089 33.1021 11.0281 33.0415 10.9532 33.0415ZM7.58789 31.9043H8.16064C8.23554 31.9043 8.29628 31.9649 8.29628 32.0399V32.6199C8.29628 32.6948 8.23564 32.7556 8.16064 32.7556H7.31611C7.24121 32.7556 7.18047 32.8162 7.18047 32.8912V33.1921C7.18047 33.267 7.11982 33.3277 7.04482 33.3277H7.03359C6.95869 33.3277 6.89795 33.2671 6.89795 33.1921V32.319C6.89795 32.2441 6.8373 32.1834 6.7623 32.1834H6.75478C6.67988 32.1834 6.61914 32.244 6.61914 32.319V33.1921C6.61914 33.267 6.55849 33.3277 6.4835 33.3277H6.47939C6.40449 33.3277 6.34375 33.2671 6.34375 33.1921V32.319C6.34375 32.2441 6.2831 32.1834 6.2081 32.1834H6.19687C6.12197 32.1834 6.06123 32.244 6.06123 32.319V33.1921C6.06123 33.267 6.00059 33.3277 5.92559 33.3277H5.91787C5.84297 33.3277 5.78223 33.2671 5.78223 33.1921V32.04C5.78223 31.9651 5.84287 31.9044 5.91787 31.9044H7.04482C7.11972 31.9044 7.18047 31.965 7.18047 32.04V32.3338C7.18047 32.4087 7.24111 32.4694 7.31611 32.4694H7.88154C7.95644 32.4694 8.01718 32.4088 8.01718 32.3338V32.319C8.01718 32.2441 7.95654 32.1834 7.88154 32.1834H7.58808C7.51318 32.1834 7.45244 32.1228 7.45244 32.0478V32.04C7.45215 31.965 7.51299 31.9043 7.58789 31.9043Z" fill="#F5F5F5"/>
<path d="M5.36776 31.9043H5.36005C5.28515 31.9043 5.22441 31.9649 5.22441 32.0399V32.3337C5.22441 32.4086 5.16376 32.4693 5.08876 32.4693H4.52333C4.44843 32.4693 4.38769 32.4087 4.38769 32.3337V32.0399C4.38769 31.965 4.32704 31.9043 4.25204 31.9043H3.12519C3.05029 31.9043 2.98955 31.9649 2.98955 32.0399V32.6199C2.98955 32.6948 3.05019 32.7556 3.12519 32.7556H3.6871C3.76201 32.7556 3.82275 32.6949 3.82275 32.6199V32.6051C3.82275 32.5302 3.7621 32.4694 3.6871 32.4694H3.40048C3.32558 32.4694 3.26484 32.4088 3.26484 32.3338V32.319C3.26484 32.2441 3.32548 32.1834 3.40048 32.1834H3.97324C4.04814 32.1834 4.10888 32.244 4.10888 32.319V32.6199C4.10888 32.6948 4.16952 32.7556 4.24452 32.7556H5.36776C5.44267 32.7556 5.50341 32.6949 5.50341 32.6199V32.0399C5.50341 31.965 5.44267 31.9043 5.36776 31.9043ZM4.80995 31.9043H4.80224C4.72734 31.9043 4.66659 31.9649 4.66659 32.0399V32.0477C4.66659 32.1226 4.72724 32.1833 4.80224 32.1833H4.80995C4.88485 32.1833 4.9456 32.1227 4.9456 32.0477V32.0399C4.9455 31.965 4.88485 31.9043 4.80995 31.9043ZM5.36776 33.0415H2.00966C1.93476 33.0415 1.87402 33.1021 1.87402 33.1771V33.192C1.87402 33.2669 1.93466 33.3276 2.00966 33.3276H5.36786C5.44276 33.3276 5.50351 33.267 5.50351 33.192V33.1771C5.50341 33.1021 5.44267 33.0415 5.36776 33.0415ZM2.00966 31.9043H2.57509C2.65 31.9043 2.71074 31.9649 2.71074 32.0399V32.6199C2.71074 32.6948 2.65009 32.7556 2.57509 32.7556H1.72363C1.64873 32.7556 1.58799 32.8162 1.58799 32.8912V33.1921C1.58799 33.267 1.52734 33.3277 1.45234 33.3277H1.45195C1.37705 33.3277 1.31631 33.2671 1.31631 33.1921V32.319C1.31631 32.2441 1.25566 32.1834 1.18066 32.1834H1.16562C1.09072 32.1834 1.02998 32.244 1.02998 32.319V33.1921C1.02998 33.267 0.969335 33.3277 0.894335 33.3277H0.894042C0.819139 33.3277 0.758397 33.2671 0.758397 33.1921V32.319C0.758397 32.2441 0.697753 32.1834 0.622753 32.1834H0.614941C0.540038 32.1834 0.479296 32.244 0.479296 32.319V33.1921C0.479296 33.267 0.418652 33.3277 0.343652 33.3277H0.329004C0.254101 33.3277 0.193359 33.2671 0.193359 33.1921V32.04C0.193359 31.9651 0.254004 31.9044 0.329004 31.9044H1.45224C1.52715 31.9044 1.58789 31.965 1.58789 32.04V32.3338C1.58789 32.4087 1.64853 32.4694 1.72353 32.4694H2.29619C2.37109 32.4694 2.43183 32.4088 2.43183 32.3338V32.319C2.43183 32.2441 2.37119 32.1834 2.29619 32.1834H2.00976C1.93486 32.1834 1.87412 32.1228 1.87412 32.0478V32.04C1.87402 31.965 1.93476 31.9043 2.00966 31.9043Z" fill="#F5F5F5"/>
<path d="M50.0575 31.0391H47.815C47.7401 31.0391 47.6794 31.0997 47.6794 31.1747V31.4756C47.6794 31.5505 47.74 31.6112 47.815 31.6112H50.0575C50.1324 31.6112 50.1932 31.5506 50.1932 31.4756V31.1747C50.1932 31.0997 50.1325 31.0391 50.0575 31.0391ZM47.2613 31.0391H45.0224C44.9475 31.0391 44.8867 31.0997 44.8867 31.1747V31.4756C44.8867 31.5505 44.9474 31.6112 45.0224 31.6112H47.2613C47.3362 31.6112 47.397 31.5506 47.397 31.4756V31.1747C47.397 31.0997 47.3362 31.0391 47.2613 31.0391Z" fill="#F5F5F5"/>
<path d="M44.4687 31.0391H42.2298C42.1549 31.0391 42.0941 31.0997 42.0941 31.1747V31.4756C42.0941 31.5505 42.1548 31.6112 42.2298 31.6112H44.4687C44.5436 31.6112 44.6044 31.5506 44.6044 31.4756V31.1747C44.6043 31.0997 44.5435 31.0391 44.4687 31.0391ZM41.6796 31.0391H39.4335C39.3586 31.0391 39.2979 31.0997 39.2979 31.1747V31.4756C39.2979 31.5505 39.3585 31.6112 39.4335 31.6112H41.6796C41.7545 31.6112 41.8152 31.5506 41.8152 31.4756V31.1747C41.8152 31.0997 41.7546 31.0391 41.6796 31.0391Z" fill="#F5F5F5"/>
<path d="M38.8836 31.0391H36.6411C36.5662 31.0391 36.5055 31.0997 36.5055 31.1747V31.4756C36.5055 31.5505 36.5661 31.6112 36.6411 31.6112H38.8836C38.9585 31.6112 39.0192 31.5506 39.0192 31.4756V31.1747C39.0193 31.0997 38.9585 31.0391 38.8836 31.0391ZM36.091 31.0391H33.8485C33.7736 31.0391 33.7129 31.0997 33.7129 31.1747V31.4756C33.7129 31.5505 33.7735 31.6112 33.8485 31.6112H36.091C36.1659 31.6112 36.2267 31.5506 36.2267 31.4756V31.1747C36.2267 31.0997 36.1658 31.0391 36.091 31.0391Z" fill="#F5F5F5"/>
<path d="M33.2978 31.0391H31.0554C30.9805 31.0391 30.9197 31.0997 30.9197 31.1747V31.4756C30.9197 31.5505 30.9804 31.6112 31.0554 31.6112H33.2978C33.3727 31.6112 33.4335 31.5506 33.4335 31.4756V31.1747C33.4334 31.0997 33.3726 31.0391 33.2978 31.0391ZM30.5087 31.0391H28.2626C28.1877 31.0391 28.127 31.0997 28.127 31.1747V31.4756C28.127 31.5505 28.1876 31.6112 28.2626 31.6112H30.5087C30.5836 31.6112 30.6443 31.5506 30.6443 31.4756V31.1747C30.6443 31.0997 30.5837 31.0391 30.5087 31.0391Z" fill="#F5F5F5"/>
<path d="M27.713 31.0391H25.4703C25.3954 31.0391 25.3347 31.0997 25.3347 31.1747V31.4756C25.3347 31.5505 25.3953 31.6112 25.4703 31.6112H27.713C27.7879 31.6112 27.8486 31.5506 27.8486 31.4756V31.1747C27.8485 31.0997 27.7879 31.0391 27.713 31.0391ZM24.9203 31.0391H22.6776C22.6027 31.0391 22.542 31.0997 22.542 31.1747V31.4756C22.542 31.5505 22.6026 31.6112 22.6776 31.6112H24.9203C24.9952 31.6112 25.056 31.5506 25.056 31.4756V31.1747C25.0559 31.0997 24.9952 31.0391 24.9203 31.0391Z" fill="#F5F5F5"/>
<path d="M22.127 31.0391H19.8844C19.8095 31.0391 19.7487 31.0997 19.7487 31.1747V31.4756C19.7487 31.5505 19.8094 31.6112 19.8844 31.6112H22.127C22.2019 31.6112 22.2627 31.5506 22.2627 31.4756V31.1747C22.2627 31.0997 22.2019 31.0391 22.127 31.0391ZM19.3307 31.0391H17.0917C17.0168 31.0391 16.9561 31.0997 16.9561 31.1747V31.4756C16.9561 31.5505 17.0167 31.6112 17.0917 31.6112H19.3307C19.4056 31.6112 19.4663 31.5506 19.4663 31.4756V31.1747C19.4663 31.0997 19.4056 31.0391 19.3307 31.0391Z" fill="#F5F5F5"/>
<path d="M16.5419 31.0391H14.2992C14.2243 31.0391 14.1636 31.0997 14.1636 31.1747V31.4756C14.1636 31.5505 14.2242 31.6112 14.2992 31.6112H16.5419C16.6168 31.6112 16.6775 31.5506 16.6775 31.4756V31.1747C16.6774 31.0997 16.6168 31.0391 16.5419 31.0391ZM13.7455 31.0391H11.5067C11.4318 31.0391 11.3711 31.0997 11.3711 31.1747V31.4756C11.3711 31.5505 11.4317 31.6112 11.5067 31.6112H13.7455C13.8204 31.6112 13.8811 31.5506 13.8811 31.4756V31.1747C13.881 31.0997 13.8204 31.0391 13.7455 31.0391Z" fill="#F5F5F5"/>
<path d="M10.9532 31.0391H8.71435C8.63945 31.0391 8.5787 31.0997 8.5787 31.1747V31.4756C8.5787 31.5505 8.63935 31.6112 8.71435 31.6112H10.9533C11.0282 31.6112 11.089 31.5506 11.089 31.4756V31.1747C11.089 31.0997 11.0281 31.0391 10.9532 31.0391ZM8.16054 31.0391H5.91787C5.84297 31.0391 5.78223 31.0997 5.78223 31.1747V31.4756C5.78223 31.5505 5.84287 31.6112 5.91787 31.6112H8.16054C8.23544 31.6112 8.29619 31.5506 8.29619 31.4756V31.1747C8.29619 31.0997 8.23544 31.0391 8.16054 31.0391Z" fill="#F5F5F5"/>
<path d="M5.36776 31.0391H3.12519C3.05029 31.0391 2.98955 31.0997 2.98955 31.1747V31.4756C2.98955 31.5505 3.05019 31.6112 3.12519 31.6112H5.36786C5.44276 31.6112 5.50351 31.5506 5.50351 31.4756V31.1747C5.50341 31.0997 5.44267 31.0391 5.36776 31.0391ZM2.575 31.0391H0.329004C0.254004 31.0391 0.193359 31.0997 0.193359 31.1747V31.4756C0.193359 31.5505 0.254004 31.6112 0.329004 31.6112H2.57509C2.65 31.6112 2.71074 31.5506 2.71074 31.4756V31.1747C2.71074 31.0997 2.65 31.0391 2.575 31.0391Z" fill="#F5F5F5"/>
<path d="M24.4779 21.7929C24.7335 21.861 25.0066 21.7859 25.1941 21.595C25.4771 21.8815 25.9408 21.8884 26.2342 21.6088C26.4252 21.4246 26.5036 21.1449 26.4354 20.8926C26.1865 21.295 25.6614 21.4246 25.259 21.1722C25.2385 21.1584 25.2113 21.1448 25.1943 21.1312C24.8158 21.4107 24.2805 21.3357 23.994 20.9607C23.9836 20.9401 23.9633 20.9129 23.9495 20.8926C23.8471 21.2884 24.0858 21.6974 24.4779 21.7929Z" fill="#FF4B55"/>
<path d="M26.0671 29.7589C26.9837 29.2556 27.7486 28.4628 28.1681 27.4184C28.8823 25.6284 28.4325 23.6079 27.0662 22.2974C27.0192 22.2523 26.9479 22.3126 26.9819 22.3681C28.3295 24.5656 27.7986 27.4534 25.7134 29.0358L25.8131 22.6523C25.8145 22.5657 25.7758 22.4832 25.7085 22.4286L25.3693 22.1545C25.2654 22.0705 25.117 22.071 25.0137 22.1555L24.6795 22.4286C24.6128 22.4831 24.5747 22.5651 24.5761 22.6513L24.673 29.0392C22.5874 27.4576 22.0554 24.5672 23.4009 22.3682C23.4349 22.3127 23.3635 22.2524 23.3166 22.2975C21.9529 23.6081 21.5003 25.6285 22.2145 27.4184C22.6339 28.4626 23.3987 29.2555 24.3156 29.7588C23.7321 29.9588 23.1189 30.0648 22.4987 30.047C22.4332 30.0452 22.42 30.1374 22.4828 30.1563C23.2707 30.3955 24.0811 30.4119 24.843 30.2411L25.1421 30.8215C25.1628 30.8615 25.2201 30.8617 25.2409 30.8216L25.5421 30.2414C26.304 30.4119 27.1147 30.3952 27.9031 30.156C27.9658 30.1371 27.9527 30.0449 27.8872 30.0468C27.2663 30.0648 26.6516 29.9588 26.0671 29.7589Z" fill="#FF4B55"/>
<path d="M29.7974 23.8248C29.3282 22.9483 28.5491 22.284 27.6217 21.9585C27.5636 21.9381 27.5183 22.0148 27.5657 22.054C29.6132 23.7406 30.0236 26.7446 28.4403 28.9194C28.3584 29.0286 28.2697 29.1445 28.1845 29.2398C30.1283 28.1963 30.8478 25.7685 29.7974 23.8248Z" fill="#FF4B55"/>
<path d="M21.9444 28.9193C20.3611 26.7445 20.7683 23.7406 22.8153 22.054C22.8629 22.0147 22.8175 21.9381 22.7594 21.9584C21.8331 22.284 21.0594 22.9482 20.5872 23.8247C19.5302 25.7684 20.2566 28.1962 22.2036 29.2396C22.1116 29.1443 22.023 29.0285 21.9444 28.9193Z" fill="#FF4B55"/>
</g>
<defs>
<clipPath id="clip0_3462_30977">
<rect width="50" height="50" fill="white" transform="translate(0.191406 0.867188)"/>
</clipPath>
</defs>
</svg>
