<svg width="51" height="51" viewBox="0 0 51 51" fill="none" xmlns="http://www.w3.org/2000/svg">
<g clip-path="url(#clip0_3462_30965)">
<path d="M50.6044 19.7009H0.604492V9.64336C0.604492 9.16728 0.990527 8.78125 1.4666 8.78125H49.7424C50.2185 8.78125 50.6045 9.16728 50.6045 9.64336L50.6044 19.7009Z" fill="#FF4B55"/>
<path d="M49.7423 41.5386H1.4666C0.990527 41.5386 0.604492 41.1526 0.604492 40.6765V30.6191H50.6044V40.6765C50.6044 41.1527 50.2184 41.5386 49.7423 41.5386Z" fill="#464655"/>
<path d="M50.6044 19.6992H0.604492V30.6181H50.6044V19.6992Z" fill="#F5F5F5"/>
<path d="M30.6883 22.9653C30.5977 22.9181 30.4904 22.7493 30.5238 22.6755C30.5591 22.5981 30.5042 22.6047 30.6895 22.6598C31.0244 22.7465 31.2412 22.707 31.454 22.5258L31.6432 22.3761L31.864 22.4864C31.9861 22.5415 32.1121 22.5809 32.1477 22.573C32.2501 22.5493 32.4474 22.2971 32.4433 22.2104C32.4393 22.0924 32.526 22.1239 32.5694 22.2499C32.66 22.4865 32.4933 22.8944 32.2648 22.9495C32.1546 22.981 32.0521 22.9732 31.8785 22.9181C31.6737 22.8392 31.642 22.8392 31.5319 22.9181C31.3031 23.0993 30.976 23.1153 30.6883 22.9653Z" fill="#73AF00"/>
<path d="M31.5513 22.0523C31.4408 21.8973 31.3079 21.355 31.3468 21.2223C31.3853 21.1005 31.4241 21.0784 31.5292 21.1116C31.7174 21.1779 31.7618 21.2998 31.7394 21.7426C31.7063 22.0744 31.6622 22.1852 31.5513 22.0523Z" fill="#73AF00"/>
<path d="M24.1397 24.4492C23.6855 24.7076 23.0099 24.7521 23.0099 25.4682C22.0207 25.505 20.8541 25.5493 19.8019 25.5272C20.0871 25.1588 21.8918 23.4907 22.6423 22.8296C22.7666 22.7202 22.8087 22.5085 22.7365 22.3596L22.717 22.3196C22.6088 22.0964 22.3145 22.0433 22.1352 22.2147C21.3874 22.9301 20.6462 23.5967 20.5255 23.711C19.5574 24.6895 19.2734 24.9746 19.1212 25.1277C19.0129 25.2368 18.9527 25.3842 18.9535 25.5379V25.548C18.9552 25.8673 19.2145 26.1252 19.5337 26.1252H23.7702C24.0102 26.1252 23.715 25.2909 24.0249 25.2909C24.2405 25.2909 24.2603 25.5902 24.2508 25.9073C24.2436 26.1485 24.0449 26.3394 23.8037 26.3397C21.9721 26.3422 20.0655 26.3597 18.2713 26.3613C18.1232 26.3614 18.0043 26.2412 18.0043 26.093V25.7702C18.0043 25.4966 17.7004 25.3375 17.4716 25.4877C17.4632 25.4932 17.455 25.4985 17.4468 25.5035C17.3273 25.5782 17.2662 25.7245 17.3129 25.8574C17.3431 25.9438 17.3563 26.0488 17.3591 26.1587C17.363 26.3039 17.2448 26.4236 17.0996 26.4281C16.5062 26.4463 15.8614 26.4517 15.6783 26.1018C15.575 25.9045 15.3551 25.8113 15.1558 25.911L15.1294 25.9242C14.9196 26.0291 14.8356 26.2886 14.9505 26.493C15.169 26.8816 15.3684 27.3323 15.2649 27.9637C15.1805 28.1626 15.0215 28.2872 14.8493 28.3993C14.6579 28.5239 14.778 28.8155 15.0025 28.774C15.5468 28.6734 15.9219 28.2426 16.0367 27.7348H24.4761C24.7856 27.7348 25.0366 27.4838 25.0366 27.1743V25.3428C24.9592 24.7963 24.3722 24.8185 24.1397 24.4492Z" fill="#73AF00"/>
<path d="M34.8446 22.0295C34.9691 22.1095 35.0938 22.1897 35.2328 22.2559C35.3848 22.3285 35.4429 22.514 35.354 22.657C35.3305 22.6948 35.3109 22.7371 35.2997 22.7884V26.4209C35.5479 26.4726 35.6904 26.4237 35.8036 26.3457C35.9313 26.2576 36.104 26.3216 36.1443 26.4714C36.23 26.7901 36.3702 27.1013 36.445 27.3847C36.4918 27.5618 36.3588 27.7351 36.1756 27.7351H34.7525C34.6266 27.7351 34.5244 27.633 34.5244 27.507V22.2043C34.5243 22.0399 34.7063 21.9405 34.8446 22.0295Z" fill="#73AF00"/>
<path d="M33.1213 22.9137C33.1224 23.9168 33.1341 24.9972 33.1358 26.0724C33.136 26.2118 33.023 26.3247 32.8836 26.3247H32.8673C32.7281 26.3247 32.6154 26.2119 32.6154 26.0727V23.5249C32.6154 23.3862 32.4524 23.3121 32.3481 23.4033L32.0141 23.6919C31.9457 23.7509 31.9065 23.8357 31.9062 23.926C31.9051 24.3404 31.9014 25.547 31.8999 26.0738C31.8995 26.2126 31.7868 26.3247 31.648 26.3247H31.6251C31.4866 26.3247 31.3741 26.2134 31.3732 26.075C31.3707 25.7243 31.3664 25.0744 31.3647 24.5869C31.3641 24.4467 31.1983 24.3734 31.0928 24.4658C30.7468 24.769 30.6669 24.8376 30.4854 25.0252C30.5001 25.1212 30.5741 25.0252 30.6183 25.0989V25.5863C29.3577 25.349 29.2637 26.356 29.3109 27.4365C29.318 27.5989 29.4513 27.7273 29.6138 27.7273H33.5714C33.7182 27.7273 33.8371 27.6084 33.8371 27.4616V22.5416C33.8371 22.3772 33.6421 22.2928 33.5208 22.4039C33.4241 22.4924 33.3209 22.5809 33.2322 22.6611C33.1612 22.7261 33.1212 22.8173 33.1213 22.9137ZM30.2087 26.2879C30.1313 26.0663 30.5669 25.985 30.6185 26.1845C30.6369 26.4281 30.3048 26.4355 30.2087 26.2879Z" fill="#73AF00"/>
<path d="M17.1371 28.127C17.2885 28.127 17.4102 28.2525 17.4102 28.4001C17.4102 28.5553 17.2885 28.6733 17.1371 28.6733C16.9821 28.6733 16.8564 28.5553 16.8564 28.4001C16.8565 28.2525 16.9822 28.127 17.1371 28.127Z" fill="#73AF00"/>
<path d="M26.1351 22.1398C26.209 22.1842 26.285 22.2267 26.3659 22.2649C26.512 22.334 26.5696 22.5155 26.4803 22.6502C26.4534 22.6907 26.4305 22.7367 26.417 22.7949V26.42C26.6801 26.4785 26.8239 26.4212 26.9387 26.3363C27.0529 26.2518 27.2174 26.3102 27.254 26.4474C27.3197 26.6935 27.4186 26.9369 27.4948 27.1679C27.5882 27.4504 27.3786 27.7416 27.0811 27.7416H25.971C25.7912 27.7416 25.6455 27.5959 25.6455 27.416V22.4206C25.6455 22.1694 25.9196 22.0104 26.1351 22.1398Z" fill="#73AF00"/>
</g>
<defs>
<clipPath id="clip0_3462_30965">
<rect width="50" height="50" fill="white" transform="translate(0.603516 0.160156)"/>
</clipPath>
</defs>
</svg>
