<svg width="51" height="51" viewBox="0 0 51 51" fill="none" xmlns="http://www.w3.org/2000/svg">
<g clip-path="url(#clip0_3462_30901)">
<path d="M49.461 41.5399H1.18535C0.709277 41.5399 0.323242 41.1539 0.323242 40.6778V9.64336C0.323242 9.16728 0.709277 8.78125 1.18535 8.78125H49.4611C49.9372 8.78125 50.3232 9.16728 50.3232 9.64336V40.6778C50.3231 41.1539 49.9371 41.5399 49.461 41.5399Z" fill="#FF4B55"/>
<path d="M25.4468 25.1965L25.208 25.3344C24.7943 24.7387 24.817 23.2816 24.817 23.265C24.8213 23.2219 24.7954 23.1829 24.7565 23.1657L22.9668 22.3824L22.9771 22.1987C23.9103 22.3063 24.9894 22.7405 25.0043 22.7479C25.041 22.7711 25.0874 22.7653 25.1202 22.7383L26.6054 21.5L26.925 21.7856C26.4619 22.3544 25.3353 23.14 25.3207 23.1481C25.2809 23.1654 25.2594 23.2068 25.2632 23.2492L25.4468 25.1965Z" fill="#FFE15A"/>
<path d="M31.9412 16.3748C31.9776 16.3935 32.0215 16.3898 32.0545 16.3654L32.4426 16.0781L32.3193 16.4363C32.3056 16.4771 32.3175 16.5226 32.3495 16.552L32.5322 16.7153C32.4779 16.807 32.4564 16.9198 32.4543 17.0375L32.1835 17.175C32.1605 17.1867 32.1425 17.2062 32.1325 17.2301L31.9306 17.719L31.8199 17.3136C31.8057 17.2602 31.7549 17.2275 31.7012 17.2349L31.2139 17.3015L31.6095 16.8534C31.6306 16.8294 31.6399 16.7974 31.6353 16.766L31.5471 16.1743L31.9412 16.3748Z" fill="#FFE15A"/>
<path d="M27.5266 32.3417C27.4926 32.3645 27.4744 32.4045 27.4797 32.4452L27.5425 32.9238L27.2892 32.6422C27.2603 32.6103 27.2147 32.5987 27.1733 32.6124L26.9419 32.6929C26.8881 32.601 26.7999 32.5273 26.698 32.4685L26.7093 32.165C26.7102 32.1393 26.7019 32.114 26.6859 32.0937L26.3564 31.6799L26.7647 31.7799C26.8182 31.7934 26.8715 31.7646 26.891 31.7143L27.0692 31.2559L27.269 31.8191C27.2798 31.8493 27.3032 31.8729 27.3329 31.8841L27.8931 32.0942L27.5266 32.3417Z" fill="#FFE15A"/>
<path d="M15.6736 21.1161C15.6685 21.0756 15.6406 21.0414 15.6019 21.0279L15.1455 20.8703L15.5107 20.7695C15.5521 20.7579 15.5829 20.7224 15.5891 20.6792L15.6204 20.4362C15.7267 20.4292 15.8319 20.3831 15.9302 20.3184L16.1967 20.4641C16.2193 20.4764 16.2456 20.4803 16.2709 20.4749L16.7885 20.3651L16.5166 20.6856C16.4806 20.7275 16.4824 20.7879 16.5188 20.828L16.8493 21.1924L16.2562 21.1194C16.2243 21.1155 16.1928 21.126 16.1694 21.1476L15.7312 21.5548L15.6736 21.1161Z" fill="#FFE15A"/>
<path d="M25.166 35.7695C24.9025 36.301 24.3322 36.7416 24.1896 36.7676C24.1636 36.7719 24.142 36.7633 24.1205 36.7416C24.0557 36.6681 24.0255 36.4694 24.1119 36.2059C24.1205 36.1799 24.1293 36.1454 24.1422 36.1065L25.166 35.7695Z" fill="#F5F5F5"/>
<path d="M25.3564 35.2207C25.3219 35.3244 25.2916 35.428 25.27 35.5059L24.2158 35.8559C24.2461 35.7608 24.2763 35.6571 24.3065 35.5447L25.3564 35.2207Z" fill="#F5F5F5"/>
<path d="M25.5901 34.6289C25.5383 34.7456 25.4908 34.8579 25.4476 34.9659L24.376 35.2942C24.4062 35.1776 24.4408 35.0566 24.471 34.9356L25.5901 34.6289Z" fill="#FFE15A"/>
<path d="M25.8024 34.2012C25.7722 34.2573 25.742 34.3136 25.7117 34.374L24.5322 34.6938C24.5841 34.4907 24.6272 34.2919 24.6618 34.1191L25.8024 34.2012Z" fill="#F5F5F5"/>
<path d="M26.135 33.7525C26.0659 33.8174 26.001 33.8994 25.9362 33.9944L24.6963 33.9037C24.7136 33.7913 24.7265 33.692 24.7265 33.6186C24.7265 33.5624 24.7222 33.5105 24.7179 33.4543C24.7654 33.4586 24.8172 33.4586 24.8604 33.4586C25.1716 33.4586 25.3919 33.4024 25.5518 33.3203C25.7288 33.5797 25.9578 33.6964 26.135 33.7525Z" fill="#F5F5F5"/>
<path d="M26.3853 33.5755C26.3074 33.5669 25.9619 33.5323 25.7284 33.1953C25.8451 33.096 25.9013 32.988 25.9271 32.9144C26.0567 32.5516 25.1538 31.9855 24.6008 31.6831C24.3415 31.5405 24.1385 31.2598 23.957 30.9356C23.9786 30.9399 23.9959 30.9399 24.0175 30.9399C24.2939 30.9399 24.5144 30.8104 24.631 30.7109C24.7347 30.8838 24.8297 31.0436 24.9161 31.1818C25.3093 31.8473 25.4908 32.1496 25.9099 32.4435C25.9228 32.452 25.94 32.4607 25.9574 32.4607C26.1604 32.4867 26.748 32.6162 26.7826 32.8755C26.8303 33.2298 26.7006 33.4545 26.3853 33.5755Z" fill="#F5F5F5"/>
<path d="M25.7239 32.8394C25.6764 32.9776 25.4777 33.2887 24.6913 33.2369C24.6222 32.7876 24.4234 32.4679 24.108 32.321C23.6976 32.1266 22.1637 31.0292 21.4639 30.3767C21.6021 29.9359 21.965 29.5774 22.4792 29.3872C22.5527 29.3569 22.6175 29.3311 22.6736 29.3008C22.8119 29.4132 22.9372 29.5384 23.0409 29.681C23.2009 29.9057 23.3391 30.1907 23.4859 30.4933C23.7581 31.0463 24.039 31.621 24.497 31.8715C25.3437 32.3382 25.7628 32.74 25.7239 32.8394Z" fill="#F5F5F5"/>
<path d="M24.5144 30.5253C24.4323 30.6074 24.1602 30.7932 23.8318 30.6981C23.78 30.5988 23.7325 30.4994 23.6807 30.4001C23.5295 30.089 23.3869 29.7952 23.2141 29.5575C23.1147 29.4149 22.9894 29.2896 22.8555 29.1773C23.0499 29.0088 23.0802 28.8273 23.0888 28.6719C23.4301 28.9656 23.7499 29.3329 24.0436 29.7865C24.2292 30.0673 24.3805 30.3092 24.5144 30.5253Z" fill="#F5F5F5"/>
<path d="M22.8856 28.511C22.8813 28.5456 22.877 28.5846 22.877 28.6234C22.8685 28.7703 22.8555 28.913 22.6826 29.0425C22.3197 28.7832 21.9006 28.6061 21.542 28.4895C21.7062 28.3209 21.8142 28.1524 21.866 27.9883C21.866 27.9883 21.866 27.9883 21.8703 27.9883C22.2245 28.0875 22.5659 28.2647 22.8856 28.511Z" fill="#F5F5F5"/>
<path d="M22.4709 29.1551C22.4493 29.1637 22.432 29.1767 22.4061 29.1853C21.866 29.384 21.4685 29.7513 21.2914 30.205C21.0797 29.9933 20.9285 29.8031 20.8074 29.652C20.6734 29.4791 20.5612 29.3451 20.4229 29.2501C20.8116 29.0514 21.1228 28.8525 21.3604 28.6582C21.3647 28.6582 21.3647 28.6582 21.369 28.6582C21.7062 28.7619 22.1166 28.9174 22.4709 29.1551Z" fill="#F5F5F5"/>
<path d="M21.1574 28.5403C20.9327 28.7175 20.6174 28.9162 20.1723 29.1322C20.0686 29.1062 19.9649 29.0847 19.8785 29.0675C19.6668 29.0286 19.5285 28.9983 19.4205 28.8773C19.3557 28.8082 19.2304 28.6138 19.1094 28.3676C19.1268 28.3762 19.1439 28.3849 19.1612 28.3892C19.2865 28.4194 19.4636 28.3632 19.684 28.2854C19.9562 28.1947 20.2889 28.0823 20.5913 28.1212C20.8635 28.1558 20.937 28.2638 21.0233 28.3848C21.0624 28.4366 21.1013 28.4928 21.1574 28.5403Z" fill="#F5F5F5"/>
<path d="M21.6719 27.8924C21.6373 28.0264 21.5423 28.1948 21.3262 28.3978C21.2743 28.3633 21.2398 28.3157 21.2009 28.2596C21.1059 28.1256 20.9849 27.9571 20.6219 27.9096C20.2719 27.862 19.909 27.9831 19.6152 28.0824C19.451 28.1386 19.2781 28.1991 19.2091 28.1817C19.1356 28.1644 19.0405 28.0478 19.0362 27.9311C19.0319 27.7971 19.1529 27.7366 19.2523 27.7063C19.477 27.6373 19.7491 27.6891 20.017 27.7366C20.2892 27.7885 20.5485 27.8359 20.7558 27.7539C20.8984 27.6978 21.0626 27.5206 21.2612 27.2656C21.3995 27.2958 21.5161 27.3435 21.5853 27.4428C21.6849 27.5855 21.7109 27.7369 21.6719 27.8924Z" fill="#FFE15A"/>
<path d="M21.0097 27.2378C20.8757 27.4021 20.759 27.5229 20.6728 27.5575C20.5259 27.618 20.2969 27.5748 20.0549 27.5272C19.7784 27.4754 19.463 27.4192 19.1907 27.5013C19.0265 27.5488 18.9358 27.6309 18.8839 27.7086C18.8363 27.471 18.8363 27.242 18.9443 27.0605C19.0523 26.8704 19.1949 26.7105 19.3419 26.5508C19.5363 26.5768 19.6788 26.6156 20.1714 27.0477C20.3399 27.1945 20.6121 27.2119 20.8757 27.2248C20.9189 27.2291 20.9664 27.2335 21.0097 27.2378Z" fill="#F5F5F5"/>
<path d="M25.024 25.4522C24.54 25.772 22.3842 27.1891 21.9348 27.3749C21.9132 27.3835 21.8959 27.4009 21.8829 27.4181C21.87 27.4396 21.8613 27.4569 21.8483 27.4785C21.8268 27.4224 21.7965 27.3705 21.7619 27.3187C21.6755 27.1935 21.5459 27.1243 21.4033 27.0811C21.4682 26.999 21.5329 26.9126 21.602 26.8176C21.9132 26.3898 22.2718 25.9103 22.6822 25.4825C23.3865 24.748 24.3283 24.2641 24.6437 24.1172C24.6914 24.5752 24.795 25.1153 25.024 25.4522Z" fill="#F5F5F5"/>
<path d="M24.6214 23.8887C24.3967 23.988 23.3296 24.4936 22.5259 25.3317C22.1025 25.7725 21.7266 26.2779 21.4284 26.6884C21.3377 26.8094 21.2513 26.926 21.1691 27.0341C21.0741 27.0255 20.9791 27.0168 20.8883 27.0125C20.6507 26.9952 20.426 26.9822 20.3136 26.8829C19.8988 26.52 19.7043 26.412 19.5186 26.3644C19.5359 26.3472 19.5488 26.3299 19.5661 26.3126C19.8383 26.0361 20.1234 25.7467 20.3481 25.3448C20.7369 24.6492 22.0375 23.1326 22.8844 22.584L24.5997 23.3358C24.5997 23.4394 24.6042 23.6425 24.6214 23.8887Z" fill="#F5F5F5"/>
<path d="M13.6615 17.4746C13.3039 17.0014 13.1645 16.2943 13.205 16.1551C13.2128 16.13 13.2301 16.1145 13.2591 16.1049C13.3539 16.0798 13.5452 16.1415 13.7423 16.3366C13.7617 16.3559 13.7886 16.379 13.8176 16.408L13.6615 17.4746Z" fill="#F5F5F5"/>
<path d="M14.0671 17.8901C13.9898 17.8129 13.9105 17.7394 13.8506 17.6853L14.0087 16.5859C14.0803 16.6555 14.1595 16.7288 14.2464 16.8061L14.0671 17.8901Z" fill="#F5F5F5"/>
<path d="M14.4936 18.3639C14.4123 18.2653 14.3331 18.1727 14.2559 18.0857L14.441 16.9805C14.5318 17.0597 14.6246 17.1447 14.7193 17.2257L14.4936 18.3639Z" fill="#FFE15A"/>
<path d="M14.781 18.7432C14.7442 18.691 14.7074 18.6389 14.667 18.5848L14.908 17.3867C15.0665 17.5238 15.225 17.6513 15.3642 17.7595L14.781 18.7432Z" fill="#F5F5F5"/>
<path d="M15.035 19.2413C15.0079 19.1505 14.9634 19.0559 14.9072 18.9555L15.5425 17.8867C15.6353 17.9523 15.7184 18.0084 15.7841 18.0412C15.8343 18.0663 15.8827 18.0856 15.9349 18.1068C15.9098 18.1475 15.8866 18.1938 15.8673 18.2325C15.7283 18.5108 15.68 18.7331 15.682 18.9128C15.371 18.9553 15.1644 19.108 15.035 19.2413Z" fill="#F5F5F5"/>
<path d="M15.0807 19.5452C15.1232 19.4795 15.3086 19.1857 15.7143 19.1276C15.751 19.2765 15.8226 19.3749 15.8767 19.431C16.1434 19.7091 17.0534 19.1542 17.571 18.7946C17.8145 18.6265 18.1564 18.5703 18.5274 18.5527C18.5139 18.5701 18.5062 18.5856 18.4964 18.6049C18.3728 18.8521 18.3904 19.1072 18.4271 19.2561C18.2261 19.2716 18.0407 19.2852 17.8784 19.3007C17.1075 19.3551 16.7557 19.3822 16.3056 19.6259C16.292 19.6336 16.2766 19.6452 16.269 19.6606C16.1551 19.8307 15.7765 20.2984 15.5292 20.2136C15.1911 20.0978 15.048 19.8814 15.0807 19.5452Z" fill="#F5F5F5"/>
<path d="M16.0334 19.2828C15.9309 19.1785 15.7415 18.8617 16.1392 18.1814C16.5721 18.3203 16.9468 18.2854 17.2193 18.0689C17.5766 17.7887 19.2439 16.9068 20.1402 16.5723C20.4726 16.8929 20.6312 17.3778 20.5715 17.9227C20.5659 18.0019 20.56 18.0715 20.562 18.1352C20.3997 18.2087 20.2316 18.2647 20.0577 18.2937C19.7852 18.3363 19.4683 18.3326 19.1321 18.3289C18.5157 18.3252 17.8761 18.3197 17.4473 18.6175C16.6515 19.1667 16.1048 19.362 16.0334 19.2828Z" fill="#F5F5F5"/>
<path d="M18.6459 19.2353C18.6092 19.1251 18.5646 18.7986 18.7963 18.5474C18.9084 18.5453 19.0185 18.5473 19.1306 18.5453C19.4765 18.5491 19.803 18.5527 20.0929 18.5044C20.2649 18.4792 20.4328 18.4231 20.5933 18.3535C20.6572 18.6027 20.806 18.7108 20.9412 18.7881C20.5258 18.9621 20.0545 19.0841 19.5173 19.1441C19.183 19.1849 18.899 19.212 18.6459 19.2353Z" fill="#F5F5F5"/>
<path d="M21.1748 18.6769C21.1458 18.6575 21.113 18.6363 21.0781 18.6188C20.9506 18.5455 20.8288 18.4701 20.79 18.2576C21.1841 18.0488 21.5299 17.753 21.7945 17.4844C21.8719 17.7065 21.9744 17.8784 22.098 17.9982C22.098 17.9982 22.098 17.9982 22.0961 18.0021C21.8491 18.2747 21.538 18.5009 21.1748 18.6769Z" fill="#F5F5F5"/>
<path d="M20.7843 18.0191C20.7862 17.996 20.7823 17.9747 20.7862 17.9477C20.8498 17.3757 20.6988 16.856 20.3721 16.4947C20.6562 16.3999 20.8937 16.3496 21.0831 16.309C21.2976 16.2664 21.4676 16.2258 21.6144 16.1445C21.6185 16.5812 21.6571 16.9483 21.7249 17.2478C21.7229 17.2517 21.7229 17.2517 21.721 17.2555C21.4776 17.5107 21.1552 17.8084 20.7843 18.0191Z" fill="#F5F5F5"/>
<path d="M21.92 17.1182C21.8619 16.838 21.8251 16.4671 21.8306 15.9724C21.9002 15.8912 21.9659 15.808 22.0199 15.7386C22.1493 15.5666 22.2381 15.4563 22.3946 15.4138C22.4854 15.3867 22.7153 15.3615 22.9897 15.3634C22.9743 15.375 22.9588 15.3865 22.9472 15.4001C22.8641 15.4987 22.8353 15.6822 22.8064 15.9141C22.766 16.1981 22.7177 16.546 22.5478 16.7991C22.3953 17.0271 22.2658 17.0446 22.1189 17.0679C22.0552 17.0795 21.9877 17.0892 21.92 17.1182Z" fill="#F5F5F5"/>
<path d="M22.2704 17.8672C22.166 17.7765 22.0578 17.6161 21.9727 17.3321C22.0268 17.3011 22.0848 17.2914 22.1522 17.2818C22.3145 17.2566 22.5193 17.2237 22.724 16.9202C22.9229 16.6284 22.977 16.2496 23.0192 15.9424C23.0424 15.7704 23.0654 15.5887 23.1118 15.5347C23.1601 15.4767 23.3069 15.4438 23.4132 15.492C23.535 15.5481 23.535 15.6833 23.5176 15.7857C23.479 16.0176 23.311 16.2379 23.1487 16.4563C22.9808 16.6767 22.8224 16.8873 22.8031 17.1095C22.7896 17.2622 22.8748 17.4882 23.014 17.7799C22.9252 17.8901 22.8305 17.9733 22.7107 17.9906C22.5391 18.0158 22.3922 17.9715 22.2704 17.8672Z" fill="#FFE15A"/>
<path d="M23.1527 17.5692C23.0656 17.3761 23.0097 17.2176 23.0173 17.1248C23.0288 16.9663 23.1698 16.7809 23.3204 16.5855C23.4903 16.3614 23.6816 16.1043 23.7298 15.8241C23.7607 15.6561 23.7277 15.5381 23.6813 15.457C23.915 15.5207 24.1199 15.623 24.234 15.8008C24.3558 15.9823 24.4351 16.1813 24.5124 16.3842C24.4023 16.5466 24.3038 16.6567 23.6972 16.9042C23.4905 16.9894 23.3533 17.2251 23.224 17.4551C23.201 17.4919 23.1759 17.5325 23.1527 17.5692Z" fill="#F5F5F5"/>
<path d="M22.9553 21.9572C22.8855 21.3814 22.5812 18.8194 22.6157 18.3345C22.6177 18.3113 22.6099 18.2882 22.6002 18.2688C22.5866 18.2476 22.5751 18.2321 22.5615 18.2107C22.6215 18.2166 22.6813 18.2127 22.7432 18.2049C22.8939 18.1836 23.0137 18.0985 23.116 17.9902C23.1605 18.085 23.2088 18.1815 23.263 18.2858C23.5066 18.7553 23.7754 19.2903 23.9746 19.8487C24.317 20.807 24.3289 21.8658 24.3194 22.2136C23.8963 22.1207 23.4062 22.016 22.9553 21.9572Z" fill="#F5F5F5"/>
<path d="M24.5338 22.2963C24.5453 22.0509 24.57 20.8703 24.1793 19.7768C23.9742 19.201 23.69 18.6389 23.4561 18.1887C23.3884 18.0534 23.3227 17.924 23.2627 17.8022C23.3129 17.7211 23.3631 17.6398 23.4075 17.5606C23.5292 17.3558 23.6411 17.1605 23.7803 17.1045C24.2903 16.8957 24.4738 16.7699 24.5993 16.625C24.607 16.6481 24.6168 16.6675 24.6244 16.6907C24.7502 17.0577 24.8816 17.4422 25.1407 17.8228C25.5893 18.4815 26.3647 20.3226 26.4772 21.3254L25.0383 22.5239C24.9454 22.4777 24.7618 22.3909 24.5338 22.2963Z" fill="#F5F5F5"/>
<path d="M36.083 16.7753C36.6756 16.7478 37.3376 17.0326 37.4296 17.1447C37.446 17.1653 37.4489 17.1884 37.4404 17.2178C37.4077 17.3101 37.2486 17.433 36.9762 17.4853C36.9493 17.4904 36.9148 17.4996 36.8747 17.5071L36.083 16.7753Z" fill="#F5F5F5"/>
<path d="M35.5107 16.8753C35.6182 16.8553 35.7235 16.8313 35.802 16.8125L36.6197 17.5645C36.522 17.5842 36.4166 17.608 36.3037 17.6361L35.5107 16.8753Z" fill="#F5F5F5"/>
<path d="M34.8809 16.9588C35.008 16.9475 35.1292 16.9346 35.2446 16.9199L36.0518 17.6974C35.9351 17.7275 35.8125 17.756 35.6921 17.7883L34.8809 16.9588Z" fill="#FFE15A"/>
<path d="M34.4043 16.9811C34.4681 16.9802 34.5318 16.9794 34.5994 16.9766L35.4514 17.8526C35.2486 17.9059 35.0539 17.9646 34.886 18.0182L34.4043 16.9811Z" fill="#F5F5F5"/>
<path d="M33.8504 16.9082C33.9406 16.9372 34.0438 16.954 34.1584 16.9646L34.681 18.0928C34.5744 18.1322 34.4811 18.169 34.417 18.2047C34.3679 18.2319 34.3246 18.2608 34.2776 18.2919C34.2583 18.2482 34.2332 18.2029 34.2122 18.1651C34.0612 17.8932 33.9052 17.7277 33.7559 17.6278C33.8964 17.3472 33.8872 17.0903 33.8504 16.9082Z" fill="#F5F5F5"/>
<path d="M33.574 16.7748C33.6042 16.847 33.7417 17.166 33.5604 17.5335C33.4168 17.4797 33.2951 17.4831 33.2184 17.496C32.8382 17.5588 32.7815 18.6231 32.7854 19.2533C32.7866 19.5491 32.6396 19.863 32.4444 20.179C32.4378 20.158 32.4294 20.1429 32.4188 20.124C32.2847 19.8823 32.0644 19.7525 31.9209 19.6987C32.0217 19.5241 32.1153 19.3635 32.1942 19.2208C32.5852 18.5541 32.7616 18.2487 32.815 17.7397C32.8163 17.7241 32.8154 17.7049 32.807 17.6898C32.7312 17.4997 32.5593 16.923 32.7692 16.7669C33.0559 16.5533 33.3152 16.5578 33.574 16.7748Z" fill="#F5F5F5"/>
<path d="M33.2522 17.7093C33.3962 17.6837 33.7646 17.7064 34.101 18.4192C33.7417 18.6977 33.5585 19.0266 33.5832 19.3737C33.6124 19.8269 33.3974 21.7007 33.1665 22.6292C32.7142 22.7221 32.2244 22.5789 31.8086 22.2217C31.7465 22.1721 31.6924 22.128 31.6387 22.0936C31.6698 21.9182 31.7186 21.7478 31.7929 21.5881C31.9117 21.3392 32.0939 21.08 32.287 20.8048C32.6384 20.2984 33.0046 19.7739 33.0015 19.2518C32.9985 18.285 33.1465 17.7235 33.2522 17.7093Z" fill="#F5F5F5"/>
<path d="M31.8144 19.8906C31.926 19.9226 32.2205 20.0704 32.2968 20.4035C32.2351 20.4971 32.1712 20.5868 32.1095 20.6805C31.9108 20.9637 31.7231 21.2309 31.5993 21.4974C31.5229 21.6534 31.4741 21.8237 31.4409 21.9954C31.1992 21.9071 31.026 21.9687 30.8857 22.0368C30.9771 21.5958 31.1429 21.138 31.397 20.6609C31.5522 20.3622 31.6904 20.1126 31.8144 19.8906Z" fill="#F5F5F5"/>
<path d="M30.8447 22.2914C30.877 22.2783 30.9131 22.2633 30.947 22.2445C31.0796 22.1808 31.2106 22.1228 31.4078 22.2111C31.3572 22.6541 31.4057 23.1067 31.4778 23.4768C31.2507 23.4151 31.051 23.4024 30.8823 23.4367C30.8823 23.4367 30.8823 23.4367 30.8802 23.4329C30.7953 23.0749 30.7845 22.6905 30.8447 22.2914Z" fill="#F5F5F5"/>
<path d="M31.609 22.3418C31.6269 22.3564 31.6467 22.3653 31.6669 22.3838C32.1027 22.7596 32.6168 22.9288 33.0994 22.8636C33.0171 23.1514 32.9242 23.376 32.8507 23.5551C32.7645 23.7561 32.7019 23.9193 32.686 24.0863C32.3235 23.8428 31.9988 23.6673 31.7134 23.5539C31.7114 23.5501 31.7114 23.5501 31.7092 23.5464C31.6364 23.2013 31.5731 22.7669 31.609 22.3418Z" fill="#F5F5F5"/>
<path d="M31.7096 23.7891C31.9735 23.8995 32.3003 24.0788 32.7052 24.3631C32.7329 24.4663 32.7643 24.5675 32.791 24.6515C32.8598 24.8555 32.9004 24.991 32.8471 25.1441C32.8181 25.2344 32.7089 25.4382 32.5523 25.6636C32.5514 25.6442 32.5505 25.625 32.546 25.6077C32.5116 25.4835 32.3766 25.3559 32.2016 25.201C31.9902 25.007 31.7305 24.7707 31.6176 24.4873C31.5157 24.2325 31.5745 24.1158 31.6384 23.9816C31.6652 23.9225 31.6952 23.8611 31.7096 23.7891Z" fill="#F5F5F5"/>
<path d="M30.8931 23.6539C31.027 23.6191 31.2204 23.6205 31.5028 23.7108C31.4978 23.7729 31.473 23.8263 31.4427 23.8875C31.3717 24.0355 31.2831 24.2231 31.4177 24.5636C31.5459 24.8927 31.8279 25.1512 32.0573 25.3598C32.1861 25.4762 32.3229 25.5979 32.3414 25.6668C32.362 25.7394 32.3061 25.8791 32.2062 25.9395C32.0912 26.0083 31.9795 25.9319 31.9049 25.8597C31.7354 25.6968 31.6486 25.4336 31.5602 25.1764C31.4735 24.9132 31.3892 24.6636 31.2167 24.5221C31.0984 24.4246 30.8638 24.3671 30.5445 24.317C30.5038 24.1814 30.4889 24.0564 30.5422 23.9476C30.6186 23.7914 30.7382 23.6953 30.8931 23.6539Z" fill="#FFE15A"/>
<path d="M30.6406 24.5488C30.8491 24.5862 31.0115 24.6295 31.0837 24.6883C31.2078 24.7874 31.2812 25.0085 31.357 25.2432C31.4459 25.5101 31.5498 25.8131 31.7537 26.0112C31.8749 26.1317 31.9908 26.1712 32.0839 26.1788C31.8992 26.3357 31.699 26.4468 31.4879 26.4404C31.2692 26.4383 31.0604 26.3912 30.8492 26.3403C30.7775 26.1578 30.7423 26.0143 30.8812 25.3738C30.9278 25.1552 30.8107 24.9089 30.6942 24.6721C30.677 24.6324 30.6577 24.5888 30.6406 24.5488Z" fill="#F5F5F5"/>
<path d="M27.1322 21.9062C27.6467 22.1741 29.932 23.3715 30.3125 23.6741C30.3305 23.6888 30.354 23.6956 30.3754 23.6984C30.4006 23.6993 30.4199 23.6984 30.4451 23.6993C30.4065 23.7454 30.3758 23.7971 30.3473 23.8524C30.2796 23.9889 30.282 24.1357 30.3136 24.2813C30.2103 24.2645 30.1033 24.2498 29.9866 24.2354C29.4616 24.171 28.8683 24.0903 28.2951 23.939C27.3111 23.6797 26.4309 23.091 26.1494 22.8865C26.4601 22.6089 26.8709 22.2489 27.1322 21.9062Z" fill="#F5F5F5"/>
<path d="M25.9596 23.0176C26.1555 23.1657 27.1154 23.8536 28.2382 24.1494C28.829 24.3058 29.4534 24.3891 29.9569 24.4505C30.1067 24.4711 30.2507 24.49 30.385 24.5095C30.4235 24.5968 30.4621 24.6841 30.5024 24.7655C30.6026 24.9817 30.7004 25.1844 30.668 25.3309C30.5519 25.8696 30.5519 26.0921 30.6005 26.2776C30.5769 26.2708 30.5556 26.268 30.532 26.2612C30.1581 26.1574 29.7666 26.0486 29.3062 26.0471C28.5093 26.0447 26.5522 25.6436 25.6614 25.1695L25.4863 23.305C25.5772 23.2545 25.7526 23.1521 25.9596 23.0176Z" fill="#F5F5F5"/>
<path d="M37.6272 17.0536C37.6167 17.0348 37.6083 17.0197 37.5961 17.0067C37.4287 16.8032 36.4494 16.4276 35.7548 16.6006C35.0048 16.7896 33.9838 16.8374 33.7308 16.6221C33.4067 16.3354 33.0466 16.3241 32.6907 16.5667L32.547 16.4384L32.7602 15.8191C32.7702 15.7893 32.7668 15.7576 32.7523 15.7315C32.7449 15.7182 32.7347 15.7063 32.7217 15.6968C32.6834 15.6688 32.6317 15.6689 32.5935 15.697L31.9795 16.1514L31.4583 15.8866C31.4223 15.8682 31.379 15.8715 31.3464 15.8951C31.3137 15.9187 31.2967 15.9587 31.3028 15.9986L31.4143 16.7476L30.8598 17.3757C30.8299 17.4097 30.8242 17.4584 30.8455 17.4983C30.867 17.5242 30.9106 17.5604 30.9553 17.5543L31.6366 17.4612L31.8055 18.0807C31.8181 18.1265 31.8569 18.1574 31.903 18.1601C31.949 18.163 31.9918 18.1364 32.0096 18.0936L32.3172 17.3491L32.4733 17.2699C32.5052 17.4774 32.5699 17.6663 32.5976 17.7403C32.5454 18.1893 32.3724 18.4829 32.0109 19.1135C31.8001 19.4727 31.5427 19.9169 31.2067 20.5581C30.6473 21.6246 30.4673 22.6091 30.6713 23.4842C30.6097 23.4888 30.5169 23.4907 30.42 23.4854C29.9043 23.0995 27.2417 21.7212 27.1289 21.6604C27.1227 21.6571 26.6896 21.2853 26.6896 21.2853C26.5696 20.2353 25.7865 18.3903 25.3234 17.7009C25.0779 17.3415 24.9522 16.9745 24.8303 16.619C24.7143 16.2906 24.6097 15.9776 24.4184 15.6839C23.9931 15.0271 22.6619 15.1203 22.3411 15.2017C22.113 15.2618 21.9894 15.4221 21.8485 15.6076C21.7924 15.6812 21.7288 15.7604 21.6496 15.8512C21.5182 15.9981 21.3347 16.0368 21.039 16.0969C20.8072 16.1452 20.5154 16.2073 20.1348 16.3407C19.2422 16.6577 17.465 17.6053 17.0863 17.8991C16.7134 18.191 16.1705 17.9922 15.8806 17.8474C15.471 17.6428 14.2338 16.5128 13.8975 16.1807C13.6635 15.9528 13.3989 15.8447 13.2038 15.897C13.1207 15.9182 13.0549 15.9724 13.0203 16.0419C13.0106 16.0613 13.0029 16.0767 12.9991 16.0941C12.9257 16.3472 13.1696 17.3673 13.705 17.8424C14.2849 18.3542 14.9016 19.1694 14.8669 19.4998C14.8135 19.9292 15.0078 20.2327 15.4092 20.3892L15.3846 20.5802L14.7534 20.7544C14.7232 20.7629 14.699 20.7836 14.6856 20.8104C14.6788 20.8239 14.6748 20.8392 14.6743 20.8552C14.6728 20.9027 14.7022 20.9452 14.747 20.9608L15.4689 21.2104L15.5451 21.7902C15.5503 21.8302 15.5775 21.8641 15.6155 21.8777C15.6534 21.8914 15.696 21.8827 15.7255 21.8552L16.2804 21.3398L17.112 21.442C17.1569 21.4475 17.2003 21.4245 17.2211 21.3846C17.2305 21.3522 17.2356 21.2958 17.2053 21.2623L16.7432 20.753L17.1587 20.2635C17.1894 20.2272 17.1929 20.1778 17.1692 20.1383C17.1456 20.0987 17.0994 20.0783 17.0542 20.0879L16.266 20.255L16.1126 20.171C16.2658 20.0274 16.3848 19.8672 16.4303 19.8026C16.8302 19.5918 17.1703 19.5685 17.8949 19.5102C18.3103 19.4811 18.8223 19.4422 19.5411 19.357C20.7371 19.2155 21.6508 18.8074 22.2574 18.1445C22.296 18.1927 22.3501 18.2681 22.4003 18.3511C22.3735 18.9946 22.7418 21.9699 22.7554 22.0976C22.7563 22.1042 22.7491 22.4191 22.7491 22.4191C21.8636 22.9983 20.569 24.5145 20.1601 25.2353C19.9484 25.6154 19.6761 25.8919 19.4126 26.1599C19.1707 26.4106 18.9374 26.6439 18.7602 26.9462C18.3626 27.6202 19.0411 28.7694 19.2571 29.0201C19.4126 29.1973 19.6114 29.2361 19.8404 29.2794C19.9311 29.2967 20.0305 29.3183 20.1472 29.3484C20.3373 29.4003 20.4541 29.5472 20.6398 29.7849C20.7867 29.9706 20.9724 30.2039 21.262 30.4848C21.9446 31.1416 23.5864 32.308 24.0185 32.5154C24.4462 32.7186 24.5111 33.2932 24.5111 33.6172C24.5111 34.0752 24.0531 35.6868 23.9062 36.136C23.8069 36.4472 23.8284 36.7322 23.9623 36.8835C24.0185 36.9483 24.0963 36.9828 24.1741 36.9828C24.1956 36.9828 24.2129 36.9828 24.2302 36.9785C24.4895 36.9309 25.293 36.2569 25.4789 35.5657C25.6777 34.8183 26.1313 33.9023 26.4424 33.7856C26.8504 33.6415 27.0351 33.3321 26.9956 32.9031L27.1776 32.8397L27.6155 33.3268C27.6366 33.3499 27.6659 33.3624 27.6958 33.3624C27.7111 33.3624 27.7264 33.3593 27.741 33.3524C27.7839 33.3326 27.809 33.2872 27.8031 33.2401L27.7037 32.4828L28.1883 32.1557C28.2218 32.1331 28.2401 32.0936 28.2352 32.0535C28.2306 32.0134 28.2037 31.9793 28.166 31.9651L27.457 31.6991L27.1768 30.9095C27.1616 30.8669 27.1217 30.8382 27.0766 30.8375C27.0435 30.8437 26.9908 30.8644 26.9743 30.9063L26.7249 31.5475L26.1013 31.3945C26.0551 31.3833 26.0093 31.4022 25.9846 31.4412C25.9597 31.48 25.9622 31.5305 25.991 31.5668L26.4927 32.1972L26.4863 32.372C26.2893 32.2991 26.0927 32.2641 26.0146 32.2523C25.6473 31.9888 25.4746 31.695 25.0987 31.0729C24.887 30.7143 24.6234 30.2735 24.2259 29.6687C23.5648 28.662 22.7915 28.0269 21.9273 27.7805C21.9533 27.7243 21.9964 27.6422 22.0483 27.5601C22.6359 27.2965 25.1332 25.6374 25.2412 25.5683C25.2426 25.5673 25.2424 25.5649 25.2439 25.5638L25.5817 25.3687C26.5181 25.8616 28.4756 26.2569 29.3042 26.2647C29.7394 26.2653 30.1133 26.3691 30.4753 26.4695C30.8118 26.5594 31.1291 26.6502 31.4795 26.6583C32.2617 26.6787 32.9374 25.5278 33.0517 25.2174C33.1311 24.9954 33.0686 24.8027 32.9952 24.5817C32.9663 24.494 32.9369 24.3965 32.9068 24.2798C32.8598 24.0884 32.9317 23.9152 33.0492 23.6373C33.1405 23.4188 33.2542 23.143 33.3593 22.7537C33.6022 21.8381 33.8253 19.8364 33.797 19.358C33.7669 18.8855 34.2379 18.5499 34.5212 18.3927C34.9216 18.1704 36.553 17.7887 37.0171 17.6991C37.3373 17.6349 37.5762 17.4778 37.6434 17.2872C37.6725 17.2065 37.6651 17.1217 37.6272 17.0536ZM32.4543 17.0372L32.1835 17.1747C32.1606 17.1865 32.1425 17.206 32.1325 17.2298L31.9306 17.7188L31.82 17.3133C31.8057 17.2599 31.7549 17.2273 31.7013 17.2346L31.2139 17.3012L31.6095 16.8532C31.6307 16.8291 31.64 16.7971 31.6353 16.7658L31.5471 16.1741L31.9412 16.3743C31.9777 16.393 32.0215 16.3894 32.0545 16.3651L32.4426 16.0778L32.3194 16.436C32.3056 16.4767 32.3175 16.5222 32.3495 16.5517L32.5323 16.715C32.478 16.8067 32.4566 16.9196 32.4543 17.0372ZM32.1933 19.22C32.5842 18.5533 32.7607 18.248 32.8141 17.7389C32.8154 17.7234 32.8145 17.7041 32.8061 17.6889C32.7302 17.4988 32.5583 16.9221 32.7683 16.766C33.055 16.5525 33.3143 16.5569 33.5732 16.774C33.6033 16.8461 33.7408 17.1652 33.5595 17.5326C33.4159 17.4788 33.2943 17.4823 33.2175 17.4951C32.8373 17.5579 32.7807 18.6222 32.7846 19.2525C32.7858 19.5484 32.6388 19.8621 32.4436 20.1781C32.4369 20.1572 32.4285 20.142 32.418 20.1232C32.2838 19.8815 32.0635 19.7516 31.92 19.6979C32.0206 19.5234 32.1143 19.3627 32.1933 19.22ZM31.3966 20.6605C31.552 20.3617 31.6902 20.1121 31.8141 19.8901C31.9257 19.922 32.2202 20.0698 32.2965 20.4031C32.2348 20.4967 32.1709 20.5865 32.1092 20.6801C31.9106 20.9633 31.7229 21.2305 31.599 21.497C31.5226 21.653 31.4738 21.8234 31.4406 21.995C31.1989 21.9068 31.0256 21.9684 30.8854 22.0364C30.9766 21.5952 31.1425 21.1375 31.3966 20.6605ZM30.8442 22.2914C30.8765 22.2785 30.9126 22.2633 30.9465 22.2445C31.0791 22.1808 31.2101 22.1228 31.4073 22.2111C31.3567 22.6541 31.4052 23.1067 31.4773 23.4768C31.2502 23.4151 31.0505 23.4024 30.8818 23.4367C30.8818 23.4367 30.8818 23.4367 30.8796 23.4329C30.7948 23.0749 30.784 22.6905 30.8442 22.2914ZM30.3748 23.6983C30.4 23.6991 30.4194 23.6983 30.4446 23.6991C30.4059 23.7452 30.3752 23.7969 30.3467 23.8523C30.2791 23.9886 30.2815 24.1356 30.313 24.2812C30.2098 24.2644 30.1028 24.2496 29.9861 24.2353C29.4611 24.1708 28.8677 24.0902 28.2946 23.9388C27.3105 23.6795 26.4303 23.0908 26.1489 22.8863C26.4195 22.6284 26.8111 22.3247 27.1316 21.906C27.646 22.1738 29.9314 23.3712 30.3118 23.6738C30.33 23.6887 30.3535 23.6953 30.3748 23.6983ZM25.4473 25.1967L25.2085 25.3346C24.7949 24.7389 24.8175 23.2819 24.8175 23.2653C24.8218 23.2221 24.7959 23.1831 24.7571 23.1659L22.9673 22.3826L22.9776 22.1989C23.9109 22.3066 24.9899 22.7407 25.0048 22.7482C25.0415 22.7713 25.0879 22.7655 25.1207 22.7385L26.6059 21.5002L26.9255 21.7859C26.4624 22.3546 25.3358 23.1403 25.3212 23.1484C25.2814 23.1656 25.2599 23.207 25.2637 23.2494L25.4473 25.1967ZM24.6003 16.6251C24.608 16.6483 24.6178 16.6677 24.6254 16.6908C24.7512 17.0578 24.8827 17.4424 25.1417 17.8229C25.5903 18.4816 26.3658 20.3227 26.4782 21.3254L25.0392 22.5239C24.9464 22.4777 24.7628 22.3907 24.5348 22.2961C24.5463 22.0507 24.571 20.8701 24.1803 19.7766C23.9752 19.2008 23.691 18.6387 23.4571 18.1885C23.3894 18.0532 23.3237 17.9239 23.2637 17.8021C23.3139 17.7209 23.3641 17.6397 23.4085 17.5605C23.5302 17.3556 23.6421 17.1604 23.7813 17.1043C24.2913 16.8958 24.4747 16.77 24.6003 16.6251ZM24.2348 15.8002C24.3566 15.9818 24.4359 16.1808 24.5132 16.3836C24.4032 16.546 24.3047 16.6562 23.698 16.9036C23.4914 16.9888 23.3541 17.2245 23.2248 17.4545C23.2017 17.4912 23.1766 17.5319 23.1534 17.5685C23.0663 17.3753 23.0103 17.2168 23.0179 17.1241C23.0294 16.9656 23.1705 16.7801 23.3211 16.5848C23.4911 16.3607 23.6823 16.1035 23.7305 15.8234C23.7615 15.6553 23.7285 15.5373 23.682 15.4563C23.9158 15.5201 24.1206 15.6226 24.2348 15.8002ZM22.0205 15.7373C22.1499 15.5654 22.2386 15.4551 22.3952 15.4125C22.486 15.3855 22.7159 15.3603 22.9903 15.3621C22.9748 15.3738 22.9593 15.3853 22.9478 15.3989C22.8647 15.4975 22.8359 15.681 22.807 15.9128C22.7665 16.1969 22.7183 16.5448 22.5484 16.798C22.3958 17.026 22.2664 17.0435 22.1195 17.0667C22.0557 17.0783 21.9881 17.0879 21.9205 17.117C21.8624 16.8368 21.8255 16.4659 21.8311 15.9712C21.9006 15.89 21.9664 15.807 22.0205 15.7373ZM21.0834 16.3076C21.2979 16.2651 21.4679 16.2243 21.6148 16.1432C21.6188 16.5798 21.6576 16.947 21.7253 17.2464C21.7234 17.2503 21.7234 17.2503 21.7214 17.2541C21.4781 17.5093 21.1555 17.807 20.7846 18.0177C20.7866 17.9946 20.7827 17.9732 20.7866 17.9462C20.8501 17.3742 20.6992 16.8545 20.3726 16.4933C20.6564 16.3987 20.8942 16.3483 21.0834 16.3076ZM17.2197 18.0674C17.577 17.7871 19.2443 16.9053 20.1406 16.5707C20.473 16.8913 20.6316 17.3762 20.5719 17.9211C20.5663 18.0003 20.5604 18.0699 20.5624 18.1336C20.4 18.2072 20.232 18.2632 20.0581 18.2922C19.7856 18.3348 19.4687 18.3311 19.1325 18.3274C18.5161 18.3237 17.8765 18.3182 17.4477 18.6158C16.6518 19.1649 16.1051 19.3603 16.0336 19.2811C15.9311 19.1768 15.7417 18.86 16.1395 18.1797C16.5725 18.3189 16.9474 18.2839 17.2197 18.0674ZM13.6623 17.4737C13.3047 17.0004 13.1653 16.2933 13.2058 16.1541C13.2135 16.129 13.2309 16.1136 13.2599 16.1039C13.3547 16.0788 13.546 16.1406 13.7431 16.3356C13.7625 16.3549 13.7894 16.3781 13.8184 16.4071L13.6623 17.4737ZM14.0682 17.8889C13.9909 17.8116 13.9117 17.7382 13.8517 17.6841L14.0098 16.5847C14.0813 16.6542 14.1606 16.7276 14.2475 16.8048L14.0682 17.8889ZM14.2557 18.0839L14.4409 16.9786C14.5317 17.0578 14.6245 17.1429 14.7192 17.2239L14.4935 18.362C14.4123 18.2636 14.3331 18.1709 14.2557 18.0839ZM14.7814 18.7427C14.7447 18.6906 14.7079 18.6384 14.6674 18.5843L14.9085 17.3863C15.067 17.5235 15.2254 17.6508 15.3646 17.759L14.7814 18.7427ZM14.9072 18.9552L15.5425 17.8865C15.6353 17.9521 15.7184 18.0081 15.7841 18.0409C15.8343 18.066 15.8828 18.0854 15.9349 18.1066C15.9098 18.1471 15.8867 18.1935 15.8673 18.2323C15.7284 18.5106 15.68 18.7328 15.6821 18.9124C15.371 18.955 15.1643 19.1078 15.0349 19.2411C15.0078 19.1503 14.9632 19.0556 14.9072 18.9552ZM16.1973 20.4641C16.22 20.4764 16.2463 20.4804 16.2715 20.4749L16.7891 20.3652L16.5172 20.6857C16.4812 20.7276 16.4831 20.7879 16.5195 20.828L16.85 21.1924L16.2568 21.1195C16.225 21.1155 16.1934 21.126 16.1702 21.1476L15.7319 21.5548L15.6743 21.1164C15.6691 21.0759 15.6413 21.0417 15.6025 21.0282L15.1462 20.8706L15.5114 20.7697C15.5528 20.7581 15.5836 20.7226 15.5897 20.6794L15.6211 20.4364C15.7273 20.4294 15.8326 20.3833 15.9308 20.3186L16.1973 20.4641ZM18.497 18.6041C18.3734 18.8514 18.391 19.1065 18.4277 19.2553C18.2267 19.2708 18.0413 19.2844 17.879 19.2999C17.1081 19.3543 16.7563 19.3815 16.3062 19.6251C16.2926 19.6327 16.2772 19.6445 16.2696 19.6599C16.1557 19.8299 15.7771 20.2977 15.5297 20.2128C15.1915 20.097 15.0485 19.8806 15.0812 19.5444C15.1237 19.4786 15.309 19.1849 15.7148 19.1268C15.7515 19.2756 15.8231 19.374 15.8772 19.4301C16.1439 19.7082 17.0539 19.1533 17.5715 18.7938C17.815 18.6256 18.1569 18.5695 18.5279 18.5519C18.5145 18.5693 18.5068 18.5847 18.497 18.6041ZM19.5175 19.1428C19.1833 19.1835 18.8992 19.2107 18.646 19.234C18.6093 19.1239 18.5648 18.7974 18.7964 18.5461C18.9085 18.5441 19.0186 18.546 19.1307 18.5441C19.4766 18.5479 19.8032 18.5516 20.093 18.5032C20.265 18.4781 20.4331 18.4219 20.5934 18.3523C20.6573 18.6015 20.8061 18.7096 20.9414 18.7868C20.526 18.9608 20.0546 19.0826 19.5175 19.1428ZM22.0966 18.0019C21.8495 18.2744 21.5384 18.5006 21.1751 18.6766C21.1461 18.6573 21.1133 18.6361 21.0785 18.6186C20.9509 18.5452 20.8291 18.4699 20.7904 18.2574C21.1844 18.0486 21.5302 17.7529 21.7948 17.4841C21.8721 17.7063 21.9747 17.8782 22.0983 17.998C22.0986 17.998 22.0986 17.998 22.0966 18.0019ZM22.2705 17.8665C22.1662 17.7757 22.0579 17.6155 21.9727 17.3314C22.0268 17.3004 22.0848 17.2908 22.1523 17.2811C22.3146 17.2559 22.5194 17.223 22.7241 16.9196C22.923 16.6278 22.977 16.249 23.0193 15.9417C23.0424 15.7698 23.0655 15.588 23.1119 15.534C23.1601 15.476 23.307 15.4431 23.4132 15.4913C23.535 15.5474 23.535 15.6826 23.5176 15.785C23.479 16.0169 23.3111 16.2372 23.1489 16.4556C22.9809 16.676 22.8225 16.8867 22.8033 17.1088C22.7898 17.2616 22.8749 17.4875 23.0141 17.7793C22.9253 17.8895 22.8306 17.9727 22.7109 17.9901C22.5391 18.0152 22.3922 17.9708 22.2705 17.8665ZM22.6165 18.3339C22.6184 18.3108 22.6106 18.2876 22.6009 18.2682C22.5873 18.247 22.5758 18.2316 22.5623 18.2102C22.6222 18.216 22.6821 18.2121 22.7438 18.2043C22.8946 18.183 23.0143 18.098 23.1166 17.9897C23.1612 18.0844 23.2094 18.181 23.2636 18.2853C23.5073 18.7548 23.776 19.2898 23.9752 19.8482C24.3176 20.8065 24.3295 21.8653 24.3201 22.2131C23.9012 22.1222 23.4759 22.0277 22.9558 21.9567C22.8863 21.381 22.582 18.819 22.6165 18.3339ZM19.5678 26.3113C19.84 26.0349 20.1251 25.7454 20.3499 25.3436C20.7386 24.648 22.0392 23.1314 22.8861 22.5827L24.6014 23.3346C24.6014 23.4383 24.6057 23.6414 24.623 23.8876C24.3983 23.9869 23.3312 24.4925 22.5275 25.3307C22.1041 25.7714 21.7282 26.2769 21.43 26.6873C21.3393 26.8083 21.2529 26.9249 21.1708 27.033C21.0757 27.0244 20.9807 27.0157 20.8899 27.0114C20.6523 26.9942 20.4276 26.9812 20.3152 26.8818C19.9004 26.519 19.7059 26.4109 19.5202 26.3634C19.5376 26.3459 19.5505 26.3286 19.5678 26.3113ZM18.8852 27.7069C18.8376 27.4693 18.8376 27.2403 18.9457 27.0589C19.0537 26.8689 19.1962 26.7089 19.3432 26.5491C19.5376 26.5751 19.6801 26.614 20.1727 27.046C20.3413 27.1929 20.6134 27.2103 20.877 27.2232C20.9202 27.2275 20.9677 27.2317 21.011 27.236C20.877 27.4003 20.7603 27.5212 20.6741 27.5558C20.5272 27.6162 20.2982 27.5731 20.0562 27.5255C19.7797 27.4736 19.4643 27.4175 19.192 27.4995C19.0278 27.547 18.9371 27.6291 18.8852 27.7069ZM19.2525 27.7069C19.4772 27.6379 19.7494 27.6897 20.0172 27.7372C20.2894 27.7891 20.5487 27.8365 20.756 27.7545C20.8986 27.6983 21.0628 27.5212 21.2615 27.2662C21.3998 27.2964 21.5164 27.3441 21.5855 27.4434C21.6848 27.5859 21.7108 27.7371 21.6719 27.8927C21.6374 28.0267 21.5423 28.1951 21.3262 28.3982C21.2744 28.3636 21.2398 28.316 21.2009 28.2599C21.1059 28.1259 20.9849 27.9574 20.6219 27.9099C20.2719 27.8623 19.909 27.9834 19.6153 28.0827C19.451 28.1389 19.2782 28.1994 19.2091 28.182C19.1356 28.1647 19.0406 28.0481 19.0363 27.9314C19.0321 27.7977 19.1531 27.7372 19.2525 27.7069ZM20.1727 29.1326C20.069 29.1066 19.9654 29.0851 19.879 29.0679C19.6672 29.029 19.529 28.9987 19.4209 28.8777C19.3561 28.8086 19.2308 28.6142 19.1098 28.368C19.1272 28.3766 19.1444 28.3853 19.1617 28.3896C19.287 28.4198 19.464 28.3636 19.6844 28.2858C19.9566 28.1951 20.2893 28.0827 20.5917 28.1216C20.8639 28.1562 20.9374 28.2642 21.0238 28.3852C21.0626 28.437 21.1016 28.4932 21.1578 28.5406C20.9332 28.7179 20.6177 28.9166 20.1727 29.1326ZM20.8079 29.6512C20.6739 29.4783 20.5617 29.3443 20.4233 29.2493C20.8121 29.0506 21.1232 28.8518 21.3609 28.6574C21.3652 28.6574 21.3652 28.6574 21.3695 28.6574C21.7064 28.7611 22.1169 28.9167 22.4712 29.1543C22.4497 29.1629 22.4324 29.1759 22.4064 29.1845C21.8664 29.3832 21.4688 29.7505 21.2917 30.2042C21.08 29.9925 20.9289 29.8023 20.8079 29.6512ZM24.1088 32.3212C23.6984 32.1268 22.1645 31.0294 21.4647 30.3769C21.603 29.9361 21.9659 29.5776 22.48 29.3874C22.5536 29.3571 22.6183 29.3313 22.6745 29.301C22.8127 29.4134 22.938 29.5386 23.0417 29.6812C23.2017 29.9059 23.3399 30.1909 23.4868 30.4935C23.7589 31.0465 24.0398 31.6212 24.4978 31.8717C25.3447 32.3383 25.7637 32.7401 25.7248 32.8395C25.6773 32.9777 25.4787 33.2888 24.6922 33.237C24.6229 32.7879 24.4243 32.4682 24.1088 32.3212ZM24.1908 36.7671C24.1648 36.7714 24.1432 36.7628 24.1217 36.7411C24.0569 36.6676 24.0267 36.4689 24.1131 36.2054C24.1217 36.1794 24.1305 36.1449 24.1434 36.106L25.1674 35.769C24.9038 36.3005 24.3334 36.7413 24.1908 36.7671ZM25.2709 35.5055L24.2167 35.8555C24.247 35.7604 24.2772 35.6567 24.3075 35.5443L25.3574 35.2203C25.3228 35.324 25.2926 35.4278 25.2709 35.5055ZM25.4481 34.9654L24.3765 35.2937C24.4068 35.1771 24.4414 35.0561 24.4715 34.9352L25.5905 34.6283C25.5389 34.7451 25.4913 34.8574 25.4481 34.9654ZM25.7118 34.3734L24.5323 34.6932C24.5841 34.4901 24.6273 34.2913 24.6619 34.1186L25.8025 34.2007C25.7722 34.2569 25.742 34.313 25.7118 34.3734ZM25.9364 33.9933L24.6964 33.9025C24.7137 33.7901 24.7266 33.6908 24.7266 33.6174C24.7266 33.5612 24.7223 33.5094 24.718 33.4531C24.7656 33.4574 24.8173 33.4574 24.8606 33.4574C25.1717 33.4574 25.392 33.4013 25.5519 33.3191C25.729 33.5784 25.958 33.695 26.1352 33.7512C26.0661 33.8161 26.0011 33.8982 25.9364 33.9933ZM26.3569 31.6796L26.7651 31.7796C26.8186 31.7931 26.8719 31.7644 26.8914 31.714L27.0697 31.2556L27.2695 31.8188C27.2802 31.849 27.3037 31.8727 27.3333 31.8838L27.8935 32.0939L27.527 32.3414C27.493 32.3642 27.4748 32.4042 27.4801 32.4449L27.5429 32.9236L27.2896 32.642C27.2607 32.6101 27.2152 32.5985 27.1738 32.6122L26.9423 32.6927C26.8885 32.6008 26.8003 32.5271 26.6985 32.4683L26.7097 32.1648C26.7106 32.1391 26.7023 32.1138 26.6864 32.0936L26.3569 31.6796ZM24.9166 31.1806C25.3098 31.846 25.4913 32.1483 25.9104 32.4422C25.9233 32.4508 25.9406 32.4595 25.9579 32.4595C26.161 32.4854 26.7486 32.6149 26.7831 32.8742C26.8307 33.2285 26.701 33.4532 26.3856 33.5741C26.3078 33.5655 25.9622 33.531 25.7288 33.1939C25.8455 33.0946 25.9017 32.9866 25.9276 32.9131C26.0572 32.5502 25.1542 31.9842 24.6012 31.6817C24.3419 31.5392 24.1389 31.2584 23.9575 30.9343C23.979 30.9386 23.9963 30.9386 24.0179 30.9386C24.2944 30.9386 24.5148 30.809 24.6314 30.7096C24.7352 30.8825 24.8303 31.0424 24.9166 31.1806ZM24.0439 29.7852C24.2296 30.066 24.3808 30.308 24.5148 30.5239C24.4327 30.6061 24.1605 30.7918 23.8322 30.6968C23.7803 30.5975 23.7329 30.4981 23.681 30.3987C23.5298 30.0876 23.3873 29.7939 23.2144 29.5562C23.1151 29.4136 22.9897 29.2883 22.8558 29.176C23.0502 29.0074 23.0805 28.826 23.0891 28.6705C23.4305 28.9643 23.7501 29.3315 24.0439 29.7852ZM22.8861 28.5106C22.8818 28.5451 22.8775 28.5841 22.8775 28.623C22.8689 28.7698 22.8559 28.9125 22.6831 29.042C22.3202 28.7827 21.901 28.6056 21.5424 28.489C21.7067 28.3204 21.8146 28.152 21.8665 27.9878C21.8665 27.9878 21.8665 27.9878 21.8707 27.9878C22.2249 28.087 22.5664 28.2643 22.8861 28.5106ZM21.9355 27.3742C21.9139 27.3828 21.8966 27.4002 21.8836 27.4174C21.8707 27.439 21.8621 27.4563 21.8491 27.4778C21.8275 27.4217 21.7972 27.3698 21.7626 27.3181C21.6762 27.1928 21.5466 27.1236 21.4041 27.0805C21.4689 26.9983 21.5336 26.9119 21.6028 26.8169C21.9139 26.3892 22.2725 25.9096 22.683 25.4818C23.3873 24.7474 24.329 24.2634 24.6445 24.1165C24.692 24.5745 24.7956 25.1146 25.0247 25.4516C24.5408 25.7712 22.3849 27.1884 21.9355 27.3742ZM30.6676 25.3296C30.5516 25.8684 30.5514 26.0908 30.6001 26.2763C30.5766 26.2696 30.5552 26.2666 30.5317 26.2599C30.1577 26.1561 29.7662 26.0473 29.3059 26.0457C28.509 26.0434 26.5519 25.6423 25.6611 25.1682L25.486 23.3036C25.5766 23.2533 25.752 23.1509 25.959 23.0163C26.1549 23.1645 27.1149 23.8524 28.2377 24.1482C28.8285 24.3045 29.453 24.3878 29.9565 24.4492C30.1063 24.4699 30.2502 24.4888 30.3845 24.5082C30.4231 24.5955 30.4617 24.6828 30.502 24.7643C30.6023 24.9804 30.6999 25.1832 30.6676 25.3296ZM31.4872 26.4411C31.2686 26.439 31.0597 26.3919 30.8486 26.341C30.7769 26.1585 30.7416 26.015 30.8805 25.3745C30.9272 25.1559 30.8101 24.9096 30.6936 24.6728C30.6763 24.6329 30.6571 24.5893 30.64 24.5494C30.8485 24.5869 31.0109 24.6301 31.083 24.689C31.2073 24.788 31.2806 25.0092 31.3564 25.2439C31.4452 25.5108 31.5492 25.8138 31.7532 26.0119C31.8743 26.1324 31.9903 26.1719 32.0833 26.1795C31.8986 26.3364 31.6983 26.4476 31.4872 26.4411ZM32.2062 25.9383C32.0912 26.007 31.9795 25.9307 31.9049 25.8584C31.7354 25.6955 31.6487 25.4323 31.5602 25.1751C31.4735 24.9119 31.3892 24.6622 31.2167 24.5208C31.0984 24.4234 30.8638 24.3658 30.5446 24.3157C30.5038 24.1802 30.4889 24.0551 30.5422 23.9464C30.6186 23.7903 30.7382 23.6943 30.8931 23.6528C31.0269 23.618 31.2204 23.6194 31.5029 23.7097C31.4978 23.7718 31.473 23.8251 31.4428 23.8863C31.3718 24.0344 31.2832 24.222 31.4178 24.5624C31.5461 24.8915 31.8281 25.15 32.0575 25.3587C32.1863 25.475 32.323 25.5968 32.3414 25.6656C32.362 25.7382 32.3062 25.8779 32.2062 25.9383ZM32.8469 25.1428C32.8179 25.233 32.7087 25.4369 32.5522 25.6623C32.5513 25.643 32.5505 25.6236 32.5459 25.6065C32.5115 25.4822 32.3765 25.3546 32.2015 25.1997C31.9901 25.0058 31.7304 24.7694 31.6175 24.486C31.5157 24.2313 31.5744 24.1146 31.6382 23.9804C31.6647 23.9212 31.6949 23.8599 31.7092 23.7878C31.9731 23.8983 32.2999 24.0776 32.7048 24.3618C32.7325 24.4651 32.7639 24.5662 32.7908 24.6502C32.8597 24.8541 32.9003 24.9897 32.8469 25.1428ZM32.85 23.5549C32.7639 23.7559 32.7013 23.9192 32.6853 24.0861C32.3228 23.8426 31.9981 23.6671 31.7127 23.5537C31.7107 23.5499 31.7107 23.5499 31.7085 23.5462C31.6357 23.2013 31.5724 22.7669 31.6083 22.3418C31.6263 22.3565 31.646 22.3654 31.6662 22.3838C32.1021 22.7596 32.6161 22.9288 33.0988 22.8636C33.0163 23.1512 32.9236 23.3758 32.85 23.5549ZM33.5826 19.373C33.6118 19.8262 33.3968 21.6999 33.1659 22.6284C32.7136 22.7214 32.2239 22.5781 31.808 22.2209C31.7459 22.1713 31.6918 22.1273 31.6381 22.0929C31.6693 21.9175 31.718 21.7471 31.7923 21.5873C31.9112 21.3385 32.0934 21.0792 32.2865 20.804C32.6378 20.2977 33.004 19.7732 33.0009 19.2511C32.9979 18.2842 33.1458 17.7228 33.2516 17.7085C33.3955 17.6829 33.764 17.7057 34.1003 18.4185C33.7411 18.6969 33.558 19.0259 33.5826 19.373ZM34.4161 18.2036C34.367 18.2309 34.3238 18.2598 34.2768 18.2908C34.2574 18.2472 34.2323 18.2019 34.2114 18.1641C34.0604 17.8921 33.9043 17.7267 33.755 17.6268C33.8957 17.3461 33.8865 17.0893 33.8497 16.9072C33.94 16.9362 34.0432 16.953 34.1577 16.9635L34.6803 18.0917C34.5735 18.1311 34.4803 18.168 34.4161 18.2036ZM34.8858 18.017L34.4039 16.9798C34.4677 16.9789 34.5315 16.9782 34.599 16.9753L35.451 17.8514C35.2484 17.9047 35.0536 17.9635 34.8858 18.017ZM35.692 17.7869L34.8807 16.9575C35.0078 16.9461 35.1292 16.9332 35.2445 16.9186L36.0516 17.696C35.935 17.7262 35.8124 17.7547 35.692 17.7869ZM36.3042 17.6349L35.5113 16.8742C35.6188 16.8542 35.7241 16.8303 35.8027 16.8115L36.6203 17.5634C36.5226 17.5828 36.4172 17.6068 36.3042 17.6349ZM36.9766 17.4841C36.9497 17.4891 36.9153 17.4984 36.8751 17.5059L36.0835 16.7741C36.6761 16.7466 37.3381 17.0314 37.4301 17.1435C37.4465 17.1641 37.4494 17.1871 37.4409 17.2165C37.4081 17.3088 37.2489 17.4317 36.9766 17.4841Z" fill="#464655"/>
</g>
<defs>
<clipPath id="clip0_3462_30901">
<rect width="50" height="50" fill="white" transform="translate(0.324219 0.160156)"/>
</clipPath>
</defs>
</svg>
