<svg width="51" height="51" viewBox="0 0 51 51" fill="none" xmlns="http://www.w3.org/2000/svg">
<g clip-path="url(#clip0_3462_30897)">
<path d="M49.8897 41.5399H1.61406C1.13799 41.5399 0.751953 41.1539 0.751953 40.6778V9.64336C0.751953 9.16728 1.13799 8.78125 1.61406 8.78125H49.8898C50.3659 8.78125 50.752 9.16728 50.752 9.64336V40.6778C50.7519 41.1539 50.3658 41.5399 49.8897 41.5399Z" fill="#41479B"/>
<path d="M50.7519 14.8145H0.751953V35.5039H50.7519V14.8145Z" fill="#F5F5F5"/>
<path d="M30.2314 25.1609L32.471 21.2819H27.992L25.752 17.4023L23.5122 21.2819H19.0332L21.2727 25.1609L19.0332 29.0399H23.5122L25.752 32.9195L27.9919 29.0399H32.4709L30.2314 25.1609ZM30.2737 22.5506L29.499 23.8924L28.7243 22.5506H30.2737ZM28.7666 25.1609L27.2595 27.7713H24.2445L22.7375 25.1609L24.2446 22.5506H27.2596L28.7666 25.1609ZM25.752 19.9396L26.527 21.282H24.977L25.752 19.9396ZM21.2304 22.5506H22.7797L22.005 23.8924L21.2304 22.5506ZM21.2304 27.7713L22.0051 26.4295L22.7798 27.7713H21.2304ZM25.752 30.3822L24.977 29.0398H26.527L25.752 30.3822ZM29.499 26.4295L30.2737 27.7713H28.7244L29.499 26.4295Z" fill="#41479B"/>
</g>
<defs>
<clipPath id="clip0_3462_30897">
<rect width="50" height="50" fill="white" transform="translate(0.751953 0.160156)"/>
</clipPath>
</defs>
</svg>
