<svg width="51" height="51" viewBox="0 0 51 51" fill="none" xmlns="http://www.w3.org/2000/svg">
<g clip-path="url(#clip0_3462_30883)">
<path d="M49.1769 8.78125H0.90117C0.425097 8.78125 0.0390625 9.16719 0.0390625 9.64326V40.6777C0.0390625 41.1538 0.425097 41.5398 0.90117 41.5398H49.177C49.653 41.5398 50.0391 41.1538 50.0391 40.6777V9.64326C50.039 9.16719 49.6529 8.78125 49.1769 8.78125Z" fill="#73AF00"/>
<path d="M50.039 9.64336C50.039 9.16728 49.6529 8.78125 49.1769 8.78125H45.3193L25.039 22.0685L4.75868 8.78135H0.90117C0.425097 8.78135 0.0390625 9.16728 0.0390625 9.64336V11.8734L20.3194 25.1606L0.0390625 38.4478V40.6779C0.0390625 41.1539 0.425097 41.54 0.90117 41.54H4.75868L25.039 28.2527L45.3193 41.5399H49.1769C49.6529 41.5399 50.039 41.1538 50.039 40.6778V38.4477L29.7586 25.1606L50.039 11.8734V9.64336Z" fill="#FFE15A"/>
<path d="M50.0381 11.873V38.4474L29.7578 25.1602L50.0381 11.873Z" fill="#464655"/>
<path d="M0.0390625 38.4474V11.873L20.3194 25.1602L0.0390625 38.4474Z" fill="#464655"/>
</g>
<defs>
<clipPath id="clip0_3462_30883">
<rect width="50" height="50" fill="white" transform="translate(0.0390625 0.160156)"/>
</clipPath>
</defs>
</svg>
