<svg width="51" height="51" viewBox="0 0 51 51" fill="none" xmlns="http://www.w3.org/2000/svg">
<g clip-path="url(#clip0_3462_30880)">
<path d="M49.6075 41.5399H1.33183C0.855761 41.5399 0.469727 41.1539 0.469727 40.6778V9.64336C0.469727 9.16728 0.855761 8.78125 1.33183 8.78125H49.6076C50.0837 8.78125 50.4697 9.16728 50.4697 9.64336V40.6778C50.4696 41.1539 50.0836 41.5399 49.6075 41.5399Z" fill="#F5F5F5"/>
<path d="M25.4687 34.6425C30.7057 34.6425 34.9511 30.3971 34.9511 25.1601C34.9511 19.9232 30.7057 15.6777 25.4687 15.6777C20.2317 15.6777 15.9863 19.9232 15.9863 25.1601C15.9863 30.3971 20.2317 34.6425 25.4687 34.6425Z" fill="#FF4B55"/>
</g>
<defs>
<clipPath id="clip0_3462_30880">
<rect width="50" height="50" fill="white" transform="translate(0.46875 0.160156)"/>
</clipPath>
</defs>
</svg>
