<svg width="51" height="51" viewBox="0 0 51 51" fill="none" xmlns="http://www.w3.org/2000/svg">
<g clip-path="url(#clip0_3462_30827)">
<path d="M50.0362 41.5399H1.76055C1.28447 41.5399 0.898438 41.1539 0.898438 40.6778V9.64336C0.898438 9.16728 1.28447 8.78125 1.76055 8.78125H50.0363C50.5124 8.78125 50.8984 9.16728 50.8984 9.64336V40.6778C50.8983 41.1539 50.5123 41.5399 50.0362 41.5399Z" fill="#F5F5F5"/>
<path d="M50.8983 9.64336C50.8983 9.16728 50.5123 8.78125 50.0362 8.78125H47.7522L25.8984 23.0994L4.04453 8.78135H1.76055C1.28447 8.78135 0.898438 9.16728 0.898438 9.64336V10.8425L22.7523 25.1606L0.898438 39.4787V40.6778C0.898438 41.1539 1.28447 41.5399 1.76055 41.5399H4.04462L25.8984 27.2218L47.7523 41.5399H50.0363C50.5124 41.5399 50.8984 41.1539 50.8984 40.6778V39.4787L29.0445 25.1606L50.8983 10.8426V9.64336Z" fill="#FF4B55"/>
<path d="M28.492 12.5479C28.492 12.5479 28.219 12.1385 27.8096 12.4114C27.8096 12.4114 28.2831 12.7527 27.9631 13.111C27.6245 13.4902 27.1591 13.1193 27.1299 12.8476C27.254 12.8381 27.3521 12.7354 27.3521 12.6089C27.3521 12.476 27.2445 12.3684 27.1116 12.3684C26.9787 12.3684 26.8711 12.476 26.8711 12.6089C26.8711 12.7126 26.9371 12.8002 27.0291 12.834C26.9704 13.0666 26.3602 13.2446 26.1844 12.8594C25.9863 12.4257 26.2996 12.0574 26.7219 12.1086C26.7219 12.1086 26.6408 11.5712 26.0693 11.7972C26.0693 11.7972 26.3082 11.1829 25.8987 10.7734C25.4893 11.1829 25.7281 11.7972 25.7281 11.7972C25.1565 11.5711 25.0756 12.1086 25.0756 12.1086C25.4978 12.0574 25.811 12.4255 25.6131 12.8594C25.4372 13.2446 24.827 13.0666 24.7684 12.834C24.8603 12.8003 24.9264 12.7127 24.9264 12.6089C24.9264 12.476 24.8187 12.3684 24.6858 12.3684C24.5529 12.3684 24.4453 12.476 24.4453 12.6089C24.4453 12.7355 24.5435 12.8381 24.6676 12.8476C24.6384 13.1193 24.1728 13.4902 23.8344 13.111C23.5145 12.7527 23.9879 12.4114 23.9879 12.4114C23.5784 12.1385 23.3055 12.5479 23.3055 12.5479C23.1689 12.002 22.623 12.1385 22.623 12.1385C23.169 12.8209 23.5705 14.2287 23.5705 14.2287H28.2274C28.2274 14.2287 28.6288 12.821 29.1749 12.1385C29.1744 12.1385 28.6284 12.002 28.492 12.5479Z" fill="#FFE15A"/>
<path d="M28.2261 14.2303C27.4727 13.9647 26.6851 13.832 25.8977 13.832C25.1102 13.832 24.3226 13.9647 23.5692 14.2303C22.3479 19.5817 25.8977 21.0121 25.8977 21.0121C25.8977 21.0121 29.4474 19.5817 28.2261 14.2303Z" fill="#FF4B55"/>
<path d="M24.1934 16.1326C24.1934 16.1326 24.0815 16.1115 23.9841 16.1894C23.9841 16.1894 23.95 16.0548 24.1251 16.0224C24.3004 15.9898 24.1934 16.1326 24.1934 16.1326Z" fill="#82AFFF"/>
<path d="M24.0589 15.9625C24.0589 15.9625 23.9702 15.891 23.8477 15.9136C23.8477 15.9136 23.8813 15.779 24.051 15.8332C24.2207 15.8873 24.0589 15.9625 24.0589 15.9625Z" fill="#82AFFF"/>
<path d="M24.132 16.0329C24.132 16.0329 24.0098 16.0119 23.9033 16.0898C23.9033 16.0898 23.8661 15.9552 24.0575 15.9228C24.2489 15.8903 24.132 16.0329 24.132 16.0329Z" fill="#82AFFF"/>
<path d="M26.2508 16.391C26.2508 16.391 26.137 16.3964 26.0603 16.4948C26.0603 16.4948 25.9961 16.3717 26.159 16.2996C26.3218 16.2275 26.2508 16.391 26.2508 16.391Z" fill="#82AFFF"/>
<path d="M26.084 16.2441C26.084 16.2441 25.9812 16.1951 25.8672 16.2455C25.8672 16.2455 25.8687 16.1066 26.0463 16.1201C26.2239 16.1335 26.084 16.2441 26.084 16.2441Z" fill="#82AFFF"/>
<path d="M26.1671 16.3072C26.1671 16.3072 26.0432 16.3149 25.9578 16.4153C25.9578 16.4153 25.8904 16.293 26.0692 16.2171C26.248 16.1413 26.1671 16.3072 26.1671 16.3072Z" fill="#82AFFF"/>
<path d="M27.5497 16.4609C27.5497 16.4609 27.5071 16.4609 27.4308 16.5327C27.4308 16.5327 27.3762 16.4106 27.537 16.3507C27.6979 16.2907 27.5497 16.4609 27.5497 16.4609Z" fill="#82AFFF"/>
<path d="M27.4683 16.2922C27.4683 16.2922 27.3723 16.2391 27.2598 16.2809C27.2598 16.2809 27.2692 16.1475 27.4393 16.1707C27.6093 16.194 27.4683 16.2922 27.4683 16.2922Z" fill="#82AFFF"/>
<path d="M27.5456 16.3592C27.5456 16.3592 27.426 16.3595 27.3381 16.451C27.3381 16.451 27.2805 16.3294 27.4568 16.2668C27.633 16.2043 27.5456 16.3592 27.5456 16.3592Z" fill="#82AFFF"/>
<path d="M24.0065 15.2887C24.0065 15.2887 23.9037 15.2203 23.7734 15.2565C23.7734 15.2565 23.7967 15.1082 23.9853 15.15C24.1741 15.1918 24.0065 15.2887 24.0065 15.2887Z" fill="#82AFFF"/>
<path d="M23.9981 15.0328C23.9981 15.0328 23.9317 14.9284 23.79 14.9192C23.79 14.9192 23.8817 14.7785 24.0428 14.8865C24.2039 14.9943 23.9981 15.0328 23.9981 15.0328Z" fill="#82AFFF"/>
<path d="M23.9987 15.168C23.9987 15.168 23.8903 15.0879 23.7471 15.1174C23.7471 15.1174 23.7793 14.9609 23.9822 15.0187C24.1853 15.0767 23.9987 15.168 23.9987 15.168Z" fill="#82AFFF"/>
<path d="M27.2227 15.6366C27.4027 15.6415 27.6167 15.5701 27.6508 15.3836C27.6899 15.1692 27.5063 15.0608 27.26 15.0705C27.0801 15.0776 26.6245 15.181 26.2982 15.1694C25.9755 15.1581 25.9667 14.8388 26.4556 14.8727C27.1806 14.9229 27.2957 14.8289 27.2957 14.8289C26.9064 14.9019 26.7508 14.7656 26.3372 14.7656C25.9236 14.7656 25.8442 15.0521 26.0112 15.2084C26.1983 15.3836 26.8772 15.2668 27.0573 15.2327C27.2374 15.1986 27.4657 15.1969 27.4838 15.3235C27.4999 15.4371 27.1983 15.431 26.9847 15.4228C26.6446 15.4097 26.1497 15.502 25.7095 15.5247C25.3427 15.5437 25.2916 15.4402 25.2081 15.3343C25.2276 15.299 25.2388 15.2597 25.2388 15.2181C25.2388 15.1971 25.2354 15.1768 25.2302 15.157C25.2579 15.1267 25.287 15.078 25.3003 14.999C25.3003 14.999 25.2064 14.9825 25.1355 15.0184C25.0787 14.9735 25.0034 14.9455 24.9201 14.9455C24.8367 14.9455 24.7615 14.9735 24.7047 15.0184C24.6338 14.9826 24.5399 14.999 24.5399 14.999C24.5533 15.0781 24.5824 15.1266 24.6101 15.157C24.6048 15.1767 24.6015 15.1969 24.6015 15.2181C24.6015 15.2944 24.6382 15.3635 24.6975 15.413C24.726 15.4369 24.7473 15.4684 24.7545 15.5049L24.7647 15.5567C24.7692 15.5795 24.7839 15.5973 24.8029 15.6081C24.5006 15.577 24.3574 15.3869 24.284 15.2812C24.2011 15.1621 24.1494 14.8985 24.0229 14.8693L23.9482 15.2668C23.9482 15.2668 24.1081 15.6365 24.4056 15.7874C24.7413 15.9576 24.8046 15.9626 24.9148 16.0112C24.9277 16.0696 24.7072 16.1053 24.4834 16.06C24.3271 16.0283 24.1166 15.8014 23.9967 15.8176L24.1364 16.128C24.5159 16.3681 24.8477 16.3731 25.1322 16.3227C25.3333 16.287 25.4098 16.1232 25.423 16.0531C25.5052 16.0379 25.5946 16.0209 25.8718 15.9528C25.9878 15.9243 26.1215 15.9093 26.2545 15.903C26.292 15.9886 26.3777 16.0981 26.6729 16.1085C26.6729 16.1085 26.7442 16.2221 26.5011 16.1993C26.2577 16.1766 26.1954 16.1008 26.0525 16.117L26.1799 16.4199C26.1799 16.4199 26.4913 16.3129 26.874 16.3519C26.874 16.3519 26.9453 16.3714 26.9876 16.3098C27.0297 16.2481 27.0103 16.2125 26.9713 16.1573C26.9494 16.1263 26.9367 16.0257 26.9299 15.9434C27.0701 15.9786 27.5003 15.8913 27.6558 15.9044C27.8114 15.9173 27.8342 16.099 27.7984 16.1606C27.7628 16.2223 27.4368 16.1696 27.4368 16.1696L27.5463 16.4688C27.5463 16.4688 27.5792 16.453 27.6622 16.3748C27.7298 16.3112 28.0061 16.3327 28.0061 16.284V15.7297C28.0061 15.7034 27.9832 15.6829 27.957 15.6852C27.3475 15.7383 27.2227 15.6366 27.2227 15.6366Z" fill="#FFE15A"/>
<path d="M24.793 15.4395C24.8021 15.4573 24.8089 15.4768 24.8126 15.4974L24.8218 15.5492C24.825 15.5674 24.8394 15.5806 24.856 15.5806H24.9974C25.014 15.5806 25.0283 15.5674 25.0315 15.5492L25.0407 15.4974C25.0444 15.4768 25.0512 15.4574 25.0604 15.4395H24.793Z" fill="#FF4B55"/>
<path d="M24.926 15.543C24.8934 15.543 24.8679 15.547 24.8714 15.5923L24.8846 15.7861C24.8868 15.8157 24.9047 15.8383 24.926 15.8383C24.9472 15.8383 24.9653 15.8157 24.9674 15.7861L24.9806 15.5923C24.984 15.547 24.9585 15.543 24.926 15.543Z" fill="#82AFFF"/>
<path d="M24.5049 18.049C24.5049 18.049 24.4136 18.0317 24.3342 18.0953C24.3342 18.0953 24.3064 17.9855 24.4493 17.9589C24.5923 17.9327 24.5049 18.049 24.5049 18.049Z" fill="#82AFFF"/>
<path d="M24.3949 17.909C24.3949 17.909 24.3227 17.8507 24.2227 17.8692C24.2227 17.8692 24.25 17.7592 24.3885 17.8035C24.527 17.8476 24.3949 17.909 24.3949 17.909Z" fill="#82AFFF"/>
<path d="M24.4545 17.967C24.4545 17.967 24.3547 17.9497 24.268 18.0133C24.268 18.0133 24.2376 17.9035 24.3938 17.8769C24.5498 17.8506 24.4545 17.967 24.4545 17.967Z" fill="#82AFFF"/>
<path d="M26.1831 18.2576C26.1831 18.2576 26.0903 18.262 26.0278 18.3421C26.0278 18.3421 25.9753 18.2417 26.1082 18.1829C26.2413 18.1242 26.1831 18.2576 26.1831 18.2576Z" fill="#82AFFF"/>
<path d="M26.047 18.139C26.047 18.139 25.9632 18.0991 25.8701 18.1401C25.8701 18.1401 25.8713 18.0268 26.0162 18.0379C26.1611 18.0488 26.047 18.139 26.047 18.139Z" fill="#82AFFF"/>
<path d="M26.1155 18.1893C26.1155 18.1893 26.0145 18.1956 25.9447 18.2774C25.9447 18.2774 25.8898 18.1776 26.0356 18.1158C26.1815 18.0539 26.1155 18.1893 26.1155 18.1893Z" fill="#82AFFF"/>
<path d="M27.243 18.3151C27.243 18.3151 27.2083 18.3151 27.146 18.3736C27.146 18.3736 27.1014 18.274 27.2326 18.2253C27.3639 18.1764 27.243 18.3151 27.243 18.3151Z" fill="#82AFFF"/>
<path d="M27.176 18.1794C27.176 18.1794 27.0977 18.136 27.0059 18.1702C27.0059 18.1702 27.0136 18.0614 27.1523 18.0803C27.291 18.0992 27.176 18.1794 27.176 18.1794Z" fill="#82AFFF"/>
<path d="M27.2392 18.232C27.2392 18.232 27.1416 18.2322 27.0699 18.3069C27.0699 18.3069 27.0228 18.2078 27.1666 18.1567C27.3105 18.1056 27.2392 18.232 27.2392 18.232Z" fill="#82AFFF"/>
<path d="M24.3522 17.3594C24.3522 17.3594 24.2685 17.3037 24.1621 17.3332C24.1621 17.3332 24.1811 17.2121 24.3351 17.2463C24.489 17.2805 24.3522 17.3594 24.3522 17.3594Z" fill="#82AFFF"/>
<path d="M24.3455 17.1507C24.3455 17.1507 24.2913 17.0654 24.1758 17.058C24.1758 17.058 24.2506 16.9433 24.3819 17.0312C24.5133 17.1193 24.3455 17.1507 24.3455 17.1507Z" fill="#82AFFF"/>
<path d="M24.3459 17.2611C24.3459 17.2611 24.2574 17.1957 24.1406 17.2199C24.1406 17.2199 24.1669 17.0921 24.3324 17.1394C24.498 17.1866 24.3459 17.2611 24.3459 17.2611Z" fill="#82AFFF"/>
<path d="M26.9751 17.6439C27.122 17.6479 27.2966 17.5897 27.3243 17.4376C27.3562 17.2628 27.2065 17.1743 27.0055 17.1823C26.8587 17.1882 26.4871 17.2724 26.221 17.263C25.9577 17.2537 25.9505 16.9933 26.3493 17.0209C26.9407 17.0619 27.0346 16.9853 27.0346 16.9853C26.7171 17.0447 26.59 16.9336 26.2526 16.9336C25.9152 16.9336 25.8506 17.1672 25.9867 17.2948C26.1394 17.4377 26.6932 17.3425 26.84 17.3146C26.9869 17.2868 27.1732 17.2854 27.188 17.3888C27.2013 17.4813 26.9551 17.4764 26.7809 17.4697C26.5034 17.4591 26.0998 17.5344 25.7406 17.5528C25.4414 17.5683 25.3998 17.4839 25.3316 17.3976C25.3476 17.3688 25.3566 17.3368 25.3566 17.3028C25.3566 17.2857 25.3538 17.2692 25.3495 17.2531C25.3722 17.2283 25.3958 17.1887 25.4067 17.1242C25.4067 17.1242 25.3301 17.1107 25.2724 17.1399C25.2261 17.1034 25.1646 17.0806 25.0966 17.0806C25.0285 17.0806 24.9672 17.1034 24.9208 17.1399C24.8631 17.1107 24.7864 17.1242 24.7864 17.1242C24.7973 17.1887 24.821 17.2283 24.8437 17.2531C24.8394 17.2691 24.8365 17.2856 24.8365 17.3028C24.8365 17.3651 24.8666 17.4215 24.9148 17.4618C24.9381 17.4813 24.9555 17.5069 24.9613 17.5368L24.9697 17.5792C24.9734 17.5978 24.9854 17.6122 25.0009 17.6211C24.7542 17.5957 24.6375 17.4407 24.5776 17.3545C24.5101 17.2573 24.4679 17.0423 24.3646 17.0185L24.3037 17.3426C24.3037 17.3426 24.4342 17.6442 24.6768 17.7673C24.9506 17.9062 25.0021 17.9102 25.0922 17.9498C25.1027 17.9975 24.9229 18.0266 24.7402 17.9895C24.6128 17.9636 24.4411 17.7786 24.3432 17.7917L24.4571 18.0449C24.7667 18.2407 25.0373 18.2448 25.2694 18.2036C25.4334 18.1745 25.4958 18.041 25.5066 17.9838C25.5735 17.9714 25.6465 17.9575 25.8727 17.902C25.9674 17.8787 26.0764 17.8664 26.185 17.8613C26.2155 17.9312 26.2855 18.0206 26.5263 18.0289C26.5263 18.0289 26.5845 18.1215 26.386 18.1029C26.1875 18.0844 26.1367 18.0226 26.0202 18.0358L26.1241 18.2829C26.1241 18.2829 26.3781 18.1956 26.6904 18.2273C26.6904 18.2273 26.7486 18.2432 26.783 18.193C26.8174 18.1427 26.8016 18.1136 26.7697 18.0687C26.7519 18.0434 26.7416 17.9612 26.7359 17.894C26.8503 17.9229 27.2013 17.8516 27.3279 17.8621C27.455 17.8727 27.4734 18.0208 27.4443 18.0712C27.4152 18.1215 27.1493 18.0785 27.1493 18.0785L27.2387 18.3226C27.2387 18.3226 27.2655 18.3097 27.3333 18.2458C27.3884 18.1939 27.6138 18.2114 27.6138 18.1718V17.7196C27.6138 17.6981 27.5951 17.6814 27.5738 17.6833C27.077 17.7268 26.9751 17.6439 26.9751 17.6439Z" fill="#FFE15A"/>
<path d="M24.9922 17.4824C24.9996 17.4971 25.0053 17.5129 25.0081 17.5296L25.0155 17.572C25.0181 17.5868 25.0299 17.5976 25.0434 17.5976H25.1587C25.1722 17.5976 25.1839 17.5868 25.1865 17.572L25.1939 17.5296C25.197 17.5129 25.2024 17.497 25.2099 17.4824H24.9922Z" fill="#FF4B55"/>
<path d="M25.0995 17.5664C25.0728 17.5664 25.0522 17.5696 25.0549 17.6067L25.0657 17.7648C25.0675 17.7891 25.0821 17.8074 25.0995 17.8074C25.1169 17.8074 25.1315 17.7891 25.1333 17.7648L25.144 17.6067C25.1468 17.5696 25.1261 17.5664 25.0995 17.5664Z" fill="#82AFFF"/>
<path d="M24.8482 19.5703C24.8482 19.5703 24.7799 19.5574 24.7204 19.605C24.7204 19.605 24.6996 19.5228 24.8066 19.5029C24.9136 19.4831 24.8482 19.5703 24.8482 19.5703Z" fill="#82AFFF"/>
<path d="M24.7657 19.4659C24.7657 19.4659 24.7115 19.4222 24.6367 19.436C24.6367 19.436 24.6572 19.3537 24.7608 19.3868C24.8645 19.42 24.7657 19.4659 24.7657 19.4659Z" fill="#82AFFF"/>
<path d="M24.8104 19.5078C24.8104 19.5078 24.7357 19.4949 24.6707 19.5425C24.6707 19.5425 24.648 19.4603 24.7649 19.4404C24.8818 19.4206 24.8104 19.5078 24.8104 19.5078Z" fill="#82AFFF"/>
<path d="M26.1044 19.7272C26.1044 19.7272 26.0349 19.7305 25.9881 19.7905C25.9881 19.7905 25.9488 19.7153 26.0484 19.6714C26.1479 19.6273 26.1044 19.7272 26.1044 19.7272Z" fill="#82AFFF"/>
<path d="M26.0025 19.6369C26.0025 19.6369 25.9397 19.6069 25.8701 19.6378C25.8701 19.6378 25.8711 19.553 25.9795 19.5611C26.0881 19.5693 26.0025 19.6369 26.0025 19.6369Z" fill="#82AFFF"/>
<path d="M26.0534 19.6765C26.0534 19.6765 25.9777 19.6813 25.9256 19.7425C25.9256 19.7425 25.8844 19.6678 25.9936 19.6215C26.1027 19.5752 26.0534 19.6765 26.0534 19.6765Z" fill="#82AFFF"/>
<path d="M26.8975 19.7704C26.8975 19.7704 26.8715 19.7704 26.8248 19.8143C26.8248 19.8143 26.7914 19.7397 26.8897 19.7031C26.9879 19.6665 26.8975 19.7704 26.8975 19.7704Z" fill="#82AFFF"/>
<path d="M26.848 19.6677C26.848 19.6677 26.7895 19.6353 26.7207 19.6608C26.7207 19.6608 26.7266 19.5794 26.8304 19.5934C26.9343 19.6076 26.848 19.6677 26.848 19.6677Z" fill="#82AFFF"/>
<path d="M26.8951 19.708C26.8951 19.708 26.822 19.7082 26.7682 19.7642C26.7682 19.7642 26.733 19.69 26.8407 19.6517C26.9484 19.6134 26.8951 19.708 26.8951 19.708Z" fill="#82AFFF"/>
<path d="M24.7342 19.0541C24.7342 19.0541 24.6714 19.0124 24.5918 19.0344C24.5918 19.0344 24.6061 18.9438 24.7213 18.9694C24.8365 18.9949 24.7342 19.0541 24.7342 19.0541Z" fill="#82AFFF"/>
<path d="M24.7286 18.8975C24.7286 18.8975 24.6881 18.8337 24.6016 18.8281C24.6016 18.8281 24.6576 18.7422 24.7559 18.808C24.8543 18.874 24.7286 18.8975 24.7286 18.8975Z" fill="#82AFFF"/>
<path d="M24.7289 18.9818C24.7289 18.9818 24.6626 18.9328 24.5752 18.9509C24.5752 18.9509 24.5948 18.8553 24.7188 18.8907C24.8429 18.9259 24.7289 18.9818 24.7289 18.9818Z" fill="#82AFFF"/>
<path d="M26.6993 19.2663C26.8093 19.2693 26.94 19.2257 26.9608 19.1118C26.9848 18.9809 26.8727 18.9147 26.7222 18.9206C26.6122 18.9249 26.3341 18.9881 26.1348 18.9811C25.9377 18.9741 25.9323 18.7791 26.2309 18.7998C26.6736 18.8305 26.744 18.773 26.744 18.773C26.5063 18.8177 26.4111 18.7344 26.1586 18.7344C25.9061 18.7344 25.8575 18.9093 25.9595 19.0049C26.0737 19.1119 26.4885 19.0405 26.5983 19.0197C26.7083 18.9989 26.8478 18.9978 26.8589 19.0752C26.8688 19.1445 26.6846 19.1408 26.554 19.1357C26.3463 19.1277 26.0441 19.1841 25.7751 19.198C25.5511 19.2096 25.5198 19.1464 25.4688 19.0817C25.4808 19.0602 25.4876 19.0362 25.4876 19.0108C25.4876 18.998 25.4855 18.9856 25.4823 18.9736C25.4992 18.955 25.517 18.9254 25.5252 18.8771C25.5252 18.8771 25.4679 18.867 25.4245 18.8888C25.3898 18.8614 25.3439 18.8442 25.293 18.8442C25.242 18.8442 25.1961 18.8613 25.1614 18.8888C25.1181 18.8669 25.0607 18.8771 25.0607 18.8771C25.0689 18.9253 25.0867 18.955 25.1036 18.9736C25.1004 18.9855 25.0983 18.9979 25.0983 19.0108C25.0983 19.0575 25.1209 19.0996 25.1569 19.1299C25.1744 19.1444 25.1873 19.1637 25.1917 19.186L25.1979 19.2177C25.2007 19.2315 25.2097 19.2424 25.2212 19.249C25.0365 19.23 24.9491 19.1139 24.9043 19.0494C24.8536 18.9767 24.8221 18.8157 24.7448 18.7978L24.6992 19.0404C24.6992 19.0404 24.797 19.2663 24.9785 19.3584C25.1836 19.4624 25.2222 19.4654 25.2895 19.4951C25.2976 19.5308 25.1627 19.5525 25.0261 19.5249C24.9306 19.5055 24.802 19.3669 24.7288 19.3769L24.8142 19.5665C25.046 19.7131 25.2485 19.7162 25.4224 19.6853C25.5452 19.6636 25.5919 19.5636 25.5999 19.5208C25.65 19.5115 25.7047 19.5011 25.8739 19.4595C25.9448 19.442 26.0264 19.4328 26.1077 19.4291C26.1307 19.4813 26.183 19.5482 26.3632 19.5545C26.3632 19.5545 26.4067 19.6238 26.2582 19.61C26.1096 19.5961 26.0715 19.5498 25.9843 19.5597L26.0621 19.7447C26.0621 19.7447 26.2523 19.6793 26.486 19.7031C26.486 19.7031 26.5296 19.7149 26.5554 19.6773C26.5811 19.6397 26.5692 19.6179 26.5454 19.5843C26.532 19.5653 26.5243 19.5038 26.5201 19.4536C26.6058 19.4752 26.8685 19.4218 26.9635 19.4298C27.0585 19.4378 27.0725 19.5486 27.0507 19.5862C27.0289 19.6238 26.8298 19.5917 26.8298 19.5917L26.8966 19.7744C26.8966 19.7744 26.9166 19.7647 26.9674 19.717C27.0087 19.6782 27.1774 19.6912 27.1774 19.6615V19.3229C27.1774 19.3069 27.1636 19.2944 27.1475 19.2958C26.7755 19.3285 26.6993 19.2663 26.6993 19.2663Z" fill="#FFE15A"/>
<path d="M25.2148 19.1465C25.2204 19.1575 25.2245 19.1693 25.2268 19.1818L25.2323 19.2135C25.2343 19.2246 25.2431 19.2326 25.2531 19.2326H25.3395C25.3496 19.2326 25.3583 19.2245 25.3603 19.2135L25.3658 19.1818C25.3681 19.1693 25.3722 19.1574 25.3777 19.1465H25.2148Z" fill="#FF4B55"/>
<path d="M25.2963 19.209C25.2764 19.209 25.2608 19.2113 25.2629 19.2392L25.271 19.3575C25.2723 19.3756 25.2833 19.3895 25.2963 19.3895C25.3094 19.3895 25.3202 19.3757 25.3216 19.3575L25.3297 19.2392C25.3317 19.2113 25.3162 19.209 25.2963 19.209Z" fill="#82AFFF"/>
</g>
<defs>
<clipPath id="clip0_3462_30827">
<rect width="50" height="50" fill="white" transform="translate(0.898438 0.160156)"/>
</clipPath>
</defs>
</svg>
