<svg width="51" height="51" viewBox="0 0 51 51" fill="none" xmlns="http://www.w3.org/2000/svg">
<g clip-path="url(#clip0_3462_30821)">
<path d="M50.1923 19.7009H0.192383V9.64336C0.192383 9.16728 0.578417 8.78125 1.05449 8.78125H49.3303C49.8064 8.78125 50.1924 9.16728 50.1924 9.64336L50.1923 19.7009Z" fill="#464655"/>
<path d="M49.3302 41.5386H1.05449C0.578417 41.5386 0.192383 41.1526 0.192383 40.6765V30.6191H50.1923V40.6765C50.1923 41.1527 49.8063 41.5386 49.3302 41.5386Z" fill="#73AF00"/>
<path d="M50.1923 19.6992H0.192383V30.6181H50.1923V19.6992Z" fill="#F5F5F5"/>
<path d="M0.510351 41.332L29.7205 25.51C29.9976 25.3599 29.9976 24.9622 29.7205 24.8121L0.510351 8.99023C0.32041 9.14834 0.192383 9.37744 0.192383 9.64385V40.6783C0.192383 40.9448 0.32041 41.1739 0.510351 41.332Z" fill="#FF4B55"/>
<path d="M9.50854 22.9309L10.0209 24.0423L11.2093 23.75C11.2835 23.7318 11.345 23.8087 11.3107 23.8771L10.7613 24.9707L11.7308 25.7175C11.7913 25.7642 11.7694 25.8603 11.6946 25.876L10.497 26.1283L10.5176 27.352C10.5189 27.4284 10.43 27.4711 10.3711 27.4226L9.42729 26.6436L8.48344 27.4226C8.42446 27.4712 8.33569 27.4285 8.33696 27.352L8.35756 26.1283L7.16001 25.876C7.0852 25.8603 7.06333 25.7642 7.12378 25.7175L8.09331 24.9707L7.54389 23.8771C7.50962 23.8087 7.57104 23.7317 7.64526 23.75L8.83364 24.0423L9.34604 22.9309C9.37787 22.8616 9.47651 22.8616 9.50854 22.9309Z" fill="#F5F5F5"/>
</g>
<defs>
<clipPath id="clip0_3462_30821">
<rect width="50" height="50" fill="white" transform="translate(0.191406 0.160156)"/>
</clipPath>
</defs>
</svg>
