<svg width="51" height="51" viewBox="0 0 51 51" fill="none" xmlns="http://www.w3.org/2000/svg">
<g clip-path="url(#clip0_3462_30783)">
<path d="M49.7423 9.07422H1.4666C0.990527 9.07422 0.604492 9.46016 0.604492 9.93623V40.9706C0.604492 41.4467 0.990527 41.8328 1.4666 41.8328H49.7424C50.2185 41.8328 50.6045 41.4467 50.6045 40.9706V9.93623C50.6044 9.46016 50.2184 9.07422 49.7423 9.07422Z" fill="#82C3D2"/>
<path d="M6.4165 12.9961C6.33847 12.6657 6.31904 12.5439 6.46728 12.3958C6.53954 12.3235 6.53954 12.2064 6.46728 12.1342C6.39501 12.0619 6.27792 12.0619 6.20566 12.1342C5.90566 12.4343 5.97724 12.7457 6.05488 13.0755C5.81835 12.9982 5.57304 13.0556 5.4416 13.2214C5.37636 13.3041 5.25019 13.5361 5.48662 13.9066C5.5416 13.9927 5.65527 14.018 5.74209 13.9635C5.82832 13.9085 5.85341 13.7939 5.79843 13.708C5.70976 13.5685 5.70712 13.4824 5.73193 13.451C5.76123 13.4138 5.85205 13.3941 5.94716 13.4278C6.00859 13.4491 6.15136 13.5228 6.15136 13.7455C6.15136 13.9233 6.06914 14.0863 5.92578 14.1922C5.78212 14.2984 5.59619 14.3284 5.41699 14.2728C5.1957 14.2052 5.04111 13.9721 5.04111 13.7058C5.04111 13.5152 5.08193 13.3227 5.15693 13.1539C5.16884 13.129 5.45166 12.5432 5.52451 12.3248C5.66855 11.8929 5.52216 11.6757 5.42226 11.585C5.28857 11.4632 5.09316 11.4328 4.925 11.5065C4.89941 11.5179 4.87832 11.5343 4.85615 11.5495C4.83398 11.5342 4.81279 11.5179 4.7873 11.5065C4.61924 11.4328 4.42392 11.4632 4.29004 11.585C4.19013 11.6757 4.04375 11.893 4.18779 12.3248C4.26064 12.5432 4.54336 13.129 4.55273 13.1485C4.63017 13.3228 4.67109 13.5153 4.67109 13.7059C4.67109 13.9723 4.5166 14.2053 4.29521 14.2728C4.11533 14.3284 3.92998 14.2988 3.78642 14.1923C3.64307 14.0863 3.56084 13.9234 3.56084 13.7456C3.56084 13.5229 3.70361 13.4493 3.76504 13.4279C3.86045 13.3943 3.95078 13.4138 3.98027 13.4511C4.00508 13.4825 4.00244 13.5686 3.91377 13.7081C3.85879 13.7941 3.88389 13.9087 3.97012 13.9636C4.05703 14.0186 4.17109 13.9929 4.22558 13.9067C4.46191 13.5362 4.33584 13.3043 4.2706 13.2215C4.13906 13.0557 3.89385 12.9983 3.65732 13.0756C3.73506 12.746 3.80654 12.4344 3.50654 12.1343C3.43428 12.062 3.31719 12.062 3.24492 12.1343C3.17266 12.2065 3.17266 12.3236 3.24492 12.3959C3.39307 12.544 3.37383 12.6658 3.2957 12.9962C3.24883 13.1941 3.19062 13.441 3.19062 13.7453C3.19062 13.9478 3.26182 14.1414 3.38154 14.3005H3.37559C3.27334 14.3005 3.19053 14.3832 3.19053 14.4855C3.19053 14.5878 3.27324 14.6706 3.37559 14.6706H3.38154C3.26182 14.8297 3.19062 15.0232 3.19062 15.2257C3.19062 15.53 3.24883 15.7768 3.29561 15.9749C3.37363 16.3053 3.39307 16.427 3.24482 16.5752C3.17256 16.6475 3.17256 16.7645 3.24482 16.8368C3.28096 16.8729 3.32832 16.891 3.37568 16.891C3.42295 16.891 3.47041 16.8729 3.50654 16.8368C3.80654 16.5367 3.73496 16.2252 3.65732 15.8955C3.89385 15.9725 4.13916 15.9154 4.2706 15.7496C4.33584 15.6669 4.46201 15.4349 4.22558 15.0644C4.1708 14.9783 4.05644 14.9527 3.97012 15.0075C3.88389 15.0625 3.85879 15.177 3.91377 15.263C4.00244 15.4025 4.00508 15.4886 3.98027 15.52C3.95088 15.5568 3.86045 15.5764 3.76504 15.5432C3.70361 15.5219 3.56084 15.4481 3.56084 15.2255C3.56084 15.0477 3.64307 14.8847 3.78642 14.7788C3.93008 14.6726 4.11582 14.6422 4.29521 14.6982C4.5165 14.7658 4.67109 14.9989 4.67109 15.2652C4.67109 15.4558 4.63027 15.6483 4.55273 15.8226L3.34072 18.5492C3.24111 18.7732 3.19053 19.0115 3.19053 19.2568C3.19053 19.5725 3.33408 19.8608 3.56006 20.0368C3.33418 20.2128 3.19053 20.5011 3.19053 20.8168C3.19053 21.0622 3.24121 21.3004 3.34072 21.5244L4.55254 24.2509C4.62998 24.4251 4.6709 24.6177 4.6709 24.8082C4.6709 25.0746 4.5164 25.3076 4.29502 25.3752C4.11513 25.4312 3.92978 25.4011 3.78623 25.2946C3.64287 25.1886 3.56064 25.0258 3.56064 24.8479C3.56064 24.6253 3.70342 24.5516 3.76484 24.5303C3.86025 24.497 3.95058 24.5161 3.98008 24.5534C4.00488 24.5848 4.00224 24.6709 3.91357 24.8104C3.85859 24.8965 3.88369 25.011 3.96992 25.0659C4.05683 25.1209 4.1709 25.0955 4.22539 25.0091C4.46172 24.6386 4.33564 24.4066 4.27041 24.3238C4.13887 24.158 3.89365 24.1009 3.65713 24.1779C3.73486 23.8483 3.80635 23.5367 3.50635 23.2366C3.43408 23.1643 3.31699 23.1643 3.24473 23.2366C3.17246 23.3089 3.17246 23.426 3.24473 23.4982C3.39287 23.6464 3.37363 23.7681 3.29551 24.0985C3.24873 24.2966 3.19053 24.5434 3.19053 24.8477C3.19053 25.0502 3.26172 25.2438 3.38144 25.4029H3.37549C3.27324 25.4029 3.19043 25.4856 3.19043 25.588C3.19043 25.6903 3.27314 25.773 3.37549 25.773H3.38144C3.26162 25.9321 3.19053 26.1257 3.19053 26.3282C3.19053 26.6325 3.24873 26.8794 3.29551 27.0774C3.37353 27.4078 3.39297 27.5296 3.24473 27.6777C3.17246 27.75 3.17246 27.8671 3.24473 27.9393C3.28086 27.9755 3.32822 27.9935 3.37559 27.9935C3.42285 27.9935 3.47031 27.9755 3.50644 27.9393C3.80644 27.6392 3.73486 27.3277 3.65723 26.998C3.89375 27.075 4.13906 27.0179 4.27051 26.8521C4.33574 26.7694 4.46191 26.5374 4.22549 26.1669C4.1707 26.0808 4.05635 26.0552 3.97002 26.11C3.88379 26.165 3.85869 26.2796 3.91367 26.3655C4.00234 26.5051 4.00498 26.5911 3.98017 26.6225C3.95078 26.6597 3.86035 26.6794 3.76494 26.6457C3.70351 26.6244 3.56074 26.5507 3.56074 26.328C3.56074 26.1502 3.64297 25.9872 3.78633 25.8813C3.92998 25.7751 4.11572 25.7447 4.29512 25.8008C4.5164 25.8683 4.67099 26.1014 4.67099 26.3677C4.67099 26.5583 4.63017 26.7509 4.55263 26.9251L3.34072 29.652C3.24111 29.876 3.19053 30.1143 3.19053 30.3596C3.19053 30.6754 3.33408 30.9636 3.56006 31.1396C3.33418 31.3156 3.19053 31.6039 3.19053 31.9196C3.19053 32.165 3.24121 32.4032 3.34072 32.6272L4.55254 35.3537C4.62998 35.5279 4.6709 35.7205 4.6709 35.911C4.6709 36.1774 4.5164 36.4104 4.29502 36.478C4.11513 36.534 3.92978 36.5037 3.78623 36.3974C3.64287 36.2915 3.56064 36.1286 3.56064 35.9507C3.56064 35.7281 3.70342 35.6544 3.76484 35.6331C3.86025 35.5998 3.95058 35.6189 3.98008 35.6562C4.00488 35.6877 4.00224 35.7737 3.91357 35.9132C3.85859 35.9993 3.88369 36.1137 3.96992 36.1687C4.05683 36.2237 4.1709 36.1983 4.22539 36.1119C4.46172 35.7414 4.33564 35.5094 4.27041 35.4266C4.13887 35.2603 3.89365 35.2035 3.65713 35.2807C3.73486 34.9511 3.80635 34.6395 3.50635 34.3394C3.43408 34.2671 3.31699 34.2671 3.24473 34.3394C3.17246 34.4117 3.17246 34.5288 3.24473 34.601C3.39287 34.7492 3.37363 34.871 3.29551 35.2013C3.24873 35.3994 3.19053 35.6461 3.19053 35.9504C3.19053 36.2405 3.32949 36.5167 3.56182 36.6907C3.32949 36.8647 3.19053 37.1409 3.19053 37.4309C3.19053 37.7352 3.24873 37.9821 3.29551 38.1801C3.37353 38.5104 3.39297 38.6323 3.24473 38.7804C3.17246 38.8527 3.17246 38.9698 3.24473 39.042C3.28086 39.0782 3.32822 39.0962 3.37559 39.0962C3.42285 39.0962 3.47031 39.0782 3.50644 39.042C3.80644 38.7419 3.73486 38.4304 3.65723 38.1007C3.89375 38.1777 4.13906 38.1207 4.27051 37.9548C4.33574 37.8721 4.46191 37.6401 4.22549 37.2696C4.1707 37.1835 4.05635 37.1583 3.97002 37.2127C3.88379 37.2677 3.85869 37.3823 3.91367 37.4682C4.00234 37.6078 4.00498 37.6938 3.98017 37.7252C3.95078 37.7625 3.86035 37.7816 3.76494 37.7484C3.70351 37.7271 3.56074 37.6534 3.56074 37.4307C3.56074 37.2529 3.64297 37.0899 3.78633 36.984C3.92998 36.8778 4.11572 36.8478 4.29512 36.9035C4.5164 36.971 4.67099 37.2042 4.67099 37.4705C4.67099 37.661 4.63017 37.8536 4.55517 38.0223C4.54326 38.0472 4.26045 38.6331 4.1876 38.8514C4.04355 39.2833 4.18994 39.5005 4.28984 39.5913C4.37529 39.669 4.48535 39.7098 4.59785 39.7098C4.66162 39.7098 4.72627 39.6964 4.7872 39.6698C4.81279 39.6584 4.83388 39.642 4.85605 39.6268C4.87822 39.6421 4.89941 39.6584 4.9249 39.6698C4.98574 39.6965 5.05048 39.7098 5.11425 39.7098C5.22646 39.7098 5.33671 39.669 5.42226 39.5913C5.52216 39.5005 5.66855 39.2833 5.52451 38.8514C5.45166 38.6331 5.16894 38.0472 5.15957 38.0277C5.08213 37.8535 5.04121 37.6609 5.04121 37.4704C5.04121 37.204 5.1957 36.9709 5.41709 36.9034C5.59707 36.8477 5.78232 36.8777 5.92587 36.9839C6.06923 37.0899 6.15146 37.2528 6.15146 37.4306C6.15146 37.6533 6.00869 37.7269 5.94726 37.7483C5.85224 37.7816 5.76123 37.7625 5.73203 37.7251C5.70722 37.6937 5.70986 37.6077 5.79853 37.4681C5.85351 37.3821 5.82841 37.2676 5.74218 37.2126C5.65576 37.1584 5.54179 37.1837 5.48671 37.2695C5.25039 37.64 5.37646 37.8719 5.4417 37.9547C5.57324 38.1206 5.81845 38.1777 6.05498 38.1006C5.97724 38.4302 5.90576 38.7418 6.20576 39.0419C6.24189 39.0781 6.28925 39.0961 6.33662 39.0961C6.38398 39.0961 6.43134 39.0781 6.46747 39.0419C6.53974 38.9697 6.53974 38.8526 6.46747 38.7803C6.31933 38.6322 6.33857 38.5104 6.41669 38.18C6.46347 37.982 6.52167 37.7351 6.52167 37.4308C6.52167 37.1408 6.38271 36.8646 6.15039 36.6906C6.38271 36.5166 6.52167 36.2405 6.52167 35.9503C6.52167 35.6461 6.46347 35.3992 6.41669 35.2011C6.33867 34.8709 6.31923 34.749 6.46747 34.6008C6.53974 34.5286 6.53974 34.4115 6.46747 34.3392C6.39521 34.267 6.27812 34.267 6.20585 34.3392C5.90585 34.6393 5.97744 34.9507 6.05507 35.2805C5.81855 35.2033 5.57324 35.2601 5.44179 35.4264C5.37656 35.5091 5.25039 35.7412 5.48681 36.1117C5.54179 36.1977 5.65546 36.223 5.74228 36.1685C5.82851 36.1135 5.85361 35.999 5.79863 35.913C5.70996 35.7735 5.70732 35.6875 5.73212 35.656C5.76142 35.6188 5.85224 35.5997 5.94736 35.6329C6.00878 35.6542 6.15156 35.7279 6.15156 35.9505C6.15156 36.1284 6.06933 36.2914 5.92597 36.3972C5.78232 36.5035 5.59638 36.5338 5.41718 36.4778C5.19589 36.4102 5.0413 36.1771 5.0413 35.9108C5.0413 35.7203 5.08213 35.5277 5.15966 35.3535L6.37148 32.627C6.47109 32.403 6.52167 32.1647 6.52167 31.9194C6.52167 31.6037 6.37812 31.3154 6.15214 31.1394C6.37802 30.9634 6.52167 30.6752 6.52167 30.3594C6.52167 30.114 6.47099 29.8758 6.37148 29.6518L5.15976 26.9256C5.08232 26.7513 5.0414 26.5588 5.0414 26.3682C5.0414 26.1018 5.19589 25.8688 5.41728 25.8012C5.59726 25.7456 5.78251 25.7756 5.92607 25.8818C6.06943 25.9878 6.15165 26.1507 6.15165 26.3285C6.15165 26.5511 6.00888 26.6248 5.94746 26.6462C5.85244 26.6798 5.76142 26.6603 5.73222 26.623C5.70742 26.5916 5.71005 26.5055 5.79873 26.366C5.85371 26.28 5.82861 26.1655 5.74238 26.1105C5.65595 26.0563 5.54199 26.0816 5.48691 26.1674C5.25058 26.5379 5.37666 26.7698 5.44189 26.8526C5.57343 27.0184 5.81865 27.0756 6.05517 26.9985C5.97744 27.3281 5.90595 27.6397 6.20595 27.9398C6.24208 27.9759 6.28945 27.994 6.33681 27.994C6.38417 27.994 6.43154 27.9759 6.46767 27.9398C6.53994 27.8676 6.53994 27.7505 6.46767 27.6782C6.31953 27.53 6.33876 27.4083 6.41689 27.0779C6.46367 26.8799 6.52187 26.633 6.52187 26.3287C6.52187 26.1262 6.45068 25.9326 6.33095 25.7735H6.33691C6.43915 25.7735 6.52197 25.6908 6.52197 25.5885C6.52197 25.4862 6.43925 25.4034 6.33691 25.4034H6.33095C6.45077 25.2443 6.52187 25.0509 6.52187 24.8482C6.52187 24.5439 6.46367 24.297 6.41689 24.099C6.33886 23.7686 6.31943 23.6469 6.46767 23.4987C6.53994 23.4264 6.53994 23.3094 6.46767 23.2371C6.3954 23.1648 6.27831 23.1648 6.20605 23.2371C5.90605 23.5372 5.97763 23.8487 6.05527 24.1784C5.81875 24.1014 5.57343 24.1585 5.44199 24.3243C5.37675 24.407 5.25058 24.639 5.48701 25.0095C5.54199 25.0956 5.65566 25.1206 5.74248 25.0664C5.82871 25.0114 5.8538 24.8969 5.79882 24.8109C5.71015 24.6714 5.70751 24.5853 5.73232 24.5539C5.76162 24.5167 5.85244 24.4975 5.94755 24.5307C6.00898 24.552 6.15175 24.6258 6.15175 24.8484C6.15175 25.0262 6.06953 25.1892 5.92617 25.2951C5.78251 25.4013 5.59658 25.4313 5.41738 25.3757C5.19609 25.3081 5.0415 25.075 5.0415 24.8087C5.0415 24.6181 5.08232 24.4256 5.15986 24.2513L6.37167 21.5249C6.47128 21.3009 6.52187 21.0626 6.52187 20.8173C6.52187 20.5015 6.37831 20.2133 6.15234 20.0373C6.37822 19.8613 6.52187 19.573 6.52187 19.2573C6.52187 19.0119 6.47119 18.7737 6.37167 18.5497L5.15986 15.8232C5.08242 15.649 5.0415 15.4564 5.0415 15.2659C5.0415 14.9995 5.19599 14.7665 5.41738 14.6989C5.59736 14.6433 5.78261 14.6732 5.92617 14.7795C6.06953 14.8854 6.15175 15.0483 6.15175 15.2262C6.15175 15.4488 6.00898 15.5225 5.94755 15.5438C5.85253 15.5771 5.76152 15.5575 5.73232 15.5207C5.70751 15.4893 5.71015 15.4032 5.79882 15.2637C5.8538 15.1776 5.82871 15.0631 5.74248 15.0082C5.65605 14.954 5.54209 14.9789 5.48701 15.0649C5.25068 15.4354 5.37675 15.6674 5.44199 15.7502C5.57353 15.916 5.81875 15.9731 6.05527 15.8961C5.97753 16.2257 5.90605 16.5373 6.20605 16.8374C6.24218 16.8735 6.28955 16.8916 6.33691 16.8916C6.38427 16.8916 6.43163 16.8735 6.46777 16.8374C6.54003 16.7651 6.54003 16.648 6.46777 16.5758C6.31962 16.4276 6.33886 16.3059 6.41699 15.9755C6.46376 15.7774 6.52197 15.5306 6.52197 15.2263C6.52197 15.0238 6.45077 14.8302 6.33105 14.6711H6.33701C6.43925 14.6711 6.52206 14.5884 6.52206 14.486C6.52206 14.3838 6.43935 14.301 6.33701 14.301H6.33105C6.45087 14.1419 6.52197 13.9484 6.52197 13.7458C6.52138 13.441 6.46318 13.1941 6.4165 12.9961ZM4.53857 12.2075C4.47285 12.0103 4.4958 11.8979 4.53916 11.8584C4.56748 11.8316 4.61045 11.8327 4.63769 11.845C4.67109 11.8599 4.67109 11.8834 4.67109 11.8949C4.67109 11.9972 4.75381 12.08 4.85615 12.08C4.95839 12.08 5.04121 11.9973 5.04121 11.8949C5.04121 11.8834 5.04121 11.8599 5.07461 11.845C5.10136 11.8327 5.14404 11.8316 5.17314 11.8584C5.2165 11.8979 5.23945 12.0103 5.17373 12.2075C5.12588 12.3506 4.95273 12.723 4.85625 12.9252C4.76172 12.7277 4.58672 12.3516 4.53857 12.2075ZM4.85605 19.8428C4.90918 19.9149 4.96923 19.9821 5.04228 20.0368C4.96923 20.0916 4.90918 20.1587 4.85605 20.2308C4.80293 20.1587 4.74287 20.0915 4.66982 20.0368C4.74287 19.982 4.80293 19.915 4.85605 19.8428ZM4.85605 30.9455C4.90918 31.0176 4.96923 31.0848 5.04228 31.1395C4.96923 31.1943 4.90918 31.2614 4.85605 31.3336C4.80293 31.2614 4.74287 31.1942 4.66982 31.1395C4.74287 31.0847 4.80293 31.0178 4.85605 30.9455ZM5.17343 38.9689C5.23916 39.1662 5.21621 39.2786 5.17285 39.318C5.14375 39.3444 5.10107 39.3433 5.07431 39.3314C5.04091 39.3166 5.04091 39.2931 5.04091 39.2815C5.04091 39.1792 4.9582 39.0964 4.85586 39.0964C4.75351 39.0964 4.6708 39.1791 4.6708 39.2815C4.6708 39.293 4.6708 39.3166 4.6374 39.3314C4.61025 39.3433 4.56728 39.3445 4.53886 39.318C4.49551 39.2786 4.47256 39.1662 4.53828 38.9689C4.58613 38.8258 4.75927 38.4534 4.85576 38.2512C4.95029 38.4486 5.12529 38.8249 5.17343 38.9689ZM5.04052 36.6909C4.9705 36.7454 4.9084 36.8106 4.85605 36.8843C4.80381 36.8106 4.7416 36.7455 4.67158 36.6909C4.7416 36.6364 4.80371 36.5711 4.85605 36.4974C4.9083 36.5711 4.97041 36.6364 5.04052 36.6909ZM6.0329 32.4767L4.85595 35.1248L3.679 32.4767C3.60156 32.3025 3.56064 32.1099 3.56064 31.9194C3.56064 31.653 3.71514 31.4199 3.93652 31.3524C4.1164 31.2967 4.30195 31.3267 4.44531 31.433C4.58867 31.5389 4.6709 31.7018 4.6709 31.8797C4.6709 32.1023 4.52812 32.1759 4.4667 32.1973C4.37129 32.2306 4.28056 32.2115 4.25146 32.1742C4.22666 32.1427 4.22929 32.0567 4.31797 31.9172C4.37295 31.8311 4.34785 31.7166 4.26162 31.6617C4.17519 31.6075 4.06123 31.6328 4.00615 31.7185C3.76982 32.089 3.8959 32.321 3.96113 32.4038C4.09512 32.5729 4.34717 32.6311 4.58818 32.5468C4.61562 32.5374 4.64345 32.5255 4.6709 32.5116V32.9796C4.6709 32.9795 4.6706 32.9793 4.6706 32.9793C4.66504 32.8818 4.58437 32.8049 4.48594 32.8049C4.38369 32.8049 4.30088 32.8877 4.30088 32.99C4.30088 33.1107 4.38525 33.3201 4.6709 33.3849V33.7301C4.6709 33.8324 4.75361 33.9152 4.85595 33.9152C4.9583 33.9152 5.04101 33.8325 5.04101 33.7301V33.3849C5.32666 33.3201 5.41103 33.1107 5.41103 32.99C5.41103 32.8878 5.32851 32.7989 5.22636 32.7989C5.12412 32.7989 5.0417 32.8755 5.0417 32.9778C5.0416 32.9781 5.04101 32.9786 5.04091 32.9789V32.5118C5.06836 32.5257 5.09619 32.5376 5.12363 32.547C5.36464 32.6312 5.6166 32.573 5.75068 32.404C5.81591 32.3213 5.94208 32.0892 5.70566 31.7187C5.65068 31.6327 5.53652 31.6074 5.45019 31.6619C5.36396 31.7169 5.33886 31.8314 5.39384 31.9173C5.48252 32.0569 5.48515 32.1429 5.46035 32.1744C5.43105 32.2116 5.34033 32.2307 5.24511 32.1975C5.18369 32.1762 5.04091 32.1025 5.04091 31.8798C5.04091 31.702 5.12314 31.539 5.2665 31.4332C5.41015 31.3269 5.59609 31.2965 5.77529 31.3526C5.99658 31.4202 6.15117 31.6533 6.15117 31.9196C6.15136 32.1099 6.11054 32.3026 6.0329 32.4767ZM6.0329 29.8023C6.11035 29.9765 6.15126 30.1691 6.15126 30.3596C6.15126 30.626 5.99677 30.859 5.77539 30.9266C5.5958 30.9827 5.40996 30.9523 5.2666 30.8461C5.12324 30.7401 5.04101 30.5772 5.04101 30.3994C5.04101 30.1767 5.18379 30.1031 5.24521 30.0817C5.34043 30.0484 5.43125 30.0675 5.46045 30.1048C5.48525 30.1363 5.48261 30.2223 5.39394 30.3619C5.33896 30.4479 5.36406 30.5624 5.45029 30.6173C5.5372 30.6723 5.65126 30.6469 5.70576 30.5605C5.94208 30.19 5.81601 29.9581 5.75078 29.8753C5.61669 29.7061 5.36474 29.6486 5.12373 29.7322C5.09629 29.7417 5.06845 29.7536 5.04101 29.7674V29.2994L5.0413 29.3C5.04687 29.3971 5.12754 29.4742 5.22597 29.4742C5.32822 29.4742 5.41103 29.3915 5.41103 29.2891C5.41103 29.1684 5.32666 28.9591 5.04101 28.8942V28.549C5.04101 28.4467 4.9583 28.3639 4.85595 28.3639C4.75361 28.3639 4.6709 28.4467 4.6709 28.549V28.8942C4.38525 28.9591 4.30088 29.1684 4.30088 29.2891C4.30088 29.3914 4.3834 29.4802 4.48554 29.4802C4.58779 29.4802 4.67021 29.4036 4.67021 29.3013C4.67031 29.301 4.6709 29.3006 4.6709 29.3006L4.67099 29.7674C4.64355 29.7534 4.61572 29.7416 4.58828 29.7321C4.34726 29.6486 4.09521 29.7061 3.96123 29.8752C3.89599 29.9579 3.76982 30.1899 4.00625 30.5604C4.06123 30.6465 4.17539 30.6715 4.26172 30.6173C4.34795 30.5623 4.37304 30.4477 4.31806 30.3618C4.22939 30.2222 4.22676 30.1362 4.25156 30.1048C4.28066 30.0675 4.37138 30.0484 4.46679 30.0816C4.52822 30.1029 4.67099 30.1766 4.67099 30.3993C4.67099 30.5771 4.58877 30.7401 4.44541 30.846C4.30176 30.9522 4.11621 30.9826 3.93662 30.9265C3.71533 30.8589 3.56074 30.6258 3.56074 30.3595C3.56074 30.169 3.60156 29.9764 3.6791 29.8022L4.85605 27.1542L6.0329 29.8023ZM5.04052 25.5883C4.9705 25.6427 4.9084 25.708 4.85605 25.7817C4.80381 25.708 4.7416 25.6428 4.67158 25.5883C4.7416 25.5338 4.80371 25.4685 4.85605 25.3948C4.9083 25.4684 4.97041 25.5337 5.04052 25.5883ZM6.0329 21.3741L4.85595 24.0221L3.679 21.3741C3.60156 21.1999 3.56064 21.0073 3.56064 20.8168C3.56064 20.5504 3.71514 20.3174 3.93652 20.2498C4.1164 20.1941 4.30195 20.2241 4.44531 20.3304C4.58867 20.4363 4.6709 20.5992 4.6709 20.777C4.6709 20.9997 4.52812 21.0733 4.4667 21.0947C4.37129 21.1283 4.28056 21.1089 4.25146 21.0716C4.22666 21.0401 4.22929 20.9541 4.31797 20.8145C4.37295 20.7285 4.34785 20.6139 4.26162 20.5591C4.17519 20.5046 4.06123 20.5298 4.00615 20.6159C3.76982 20.9864 3.8959 21.2183 3.96113 21.3012C4.09512 21.4703 4.34717 21.5281 4.58818 21.4442C4.61562 21.4347 4.64345 21.4229 4.6709 21.409V21.8769L4.6706 21.8763C4.66504 21.7792 4.58437 21.7021 4.48594 21.7021C4.38369 21.7021 4.30088 21.7848 4.30088 21.8872C4.30088 22.0079 4.38525 22.2173 4.6709 22.2821V22.6273C4.6709 22.7296 4.75361 22.8124 4.85595 22.8124C4.9583 22.8124 5.04101 22.7297 5.04101 22.6273V22.2821C5.32666 22.2173 5.41103 22.0079 5.41103 21.8872C5.41103 21.7849 5.32851 21.696 5.22636 21.696C5.12412 21.696 5.0417 21.7726 5.0417 21.8749C5.0416 21.8752 5.04101 21.8757 5.04101 21.8757L5.04091 21.4089C5.06836 21.4228 5.09619 21.4347 5.12363 21.4441C5.36464 21.5279 5.6166 21.4701 5.75068 21.3011C5.81591 21.2183 5.94208 20.9863 5.70566 20.6158C5.65068 20.5294 5.53652 20.5042 5.45019 20.559C5.36396 20.614 5.33886 20.7285 5.39384 20.8144C5.48252 20.954 5.48515 21.04 5.46035 21.0715C5.43105 21.1087 5.34033 21.1283 5.24511 21.0946C5.18369 21.0733 5.04091 20.9996 5.04091 20.7769C5.04091 20.5991 5.12314 20.4361 5.2665 20.3303C5.41015 20.224 5.59609 20.194 5.77529 20.2497C5.99658 20.3173 6.15117 20.5504 6.15117 20.8167C6.15136 21.0073 6.11054 21.1999 6.0329 21.3741ZM6.0329 18.6996C6.11035 18.8738 6.15126 19.0664 6.15126 19.2569C6.15126 19.5233 5.99677 19.7563 5.77539 19.8239C5.5958 19.88 5.40996 19.8496 5.2666 19.7433C5.12324 19.6374 5.04101 19.4745 5.04101 19.2967C5.04101 19.074 5.18379 19.0004 5.24521 18.979C5.34043 18.9457 5.43125 18.9648 5.46045 19.0021C5.48525 19.0336 5.48261 19.1196 5.39394 19.2592C5.33896 19.3452 5.36406 19.4597 5.45029 19.5146C5.5372 19.5691 5.65126 19.5442 5.70576 19.4578C5.94208 19.0873 5.81601 18.8554 5.75078 18.7725C5.61669 18.6034 5.36474 18.5456 5.12373 18.6295C5.09629 18.639 5.06845 18.6508 5.04101 18.6647V18.1968C5.04101 18.1969 5.0413 18.1971 5.0413 18.1971C5.04687 18.2945 5.12754 18.3714 5.22597 18.3714C5.32822 18.3714 5.41103 18.2887 5.41103 18.1863C5.41103 18.0656 5.32666 17.8562 5.04101 17.7914V17.4462C5.04101 17.3439 4.9583 17.2611 4.85595 17.2611C4.75361 17.2611 4.6709 17.3438 4.6709 17.4462V17.7914C4.38525 17.8562 4.30088 18.0656 4.30088 18.1863C4.30088 18.2886 4.3834 18.3775 4.48554 18.3775C4.58779 18.3775 4.67021 18.3009 4.67021 18.1986C4.67031 18.1983 4.6709 18.1978 4.67099 18.1975V18.6646C4.64355 18.6507 4.61572 18.6389 4.58828 18.6294C4.34726 18.5456 4.09521 18.6034 3.96123 18.7724C3.89599 18.8552 3.76982 19.0872 4.00625 19.4577C4.06123 19.5437 4.17539 19.5687 4.26172 19.5145C4.34795 19.4596 4.37304 19.345 4.31806 19.2591C4.22939 19.1195 4.22676 19.0335 4.25156 19.002C4.28066 18.9648 4.37138 18.9457 4.46679 18.9789C4.52822 19.0002 4.67099 19.0739 4.67099 19.2966C4.67099 19.4744 4.58877 19.6374 4.44541 19.7432C4.30176 19.8495 4.11621 19.8799 3.93662 19.8238C3.71533 19.7562 3.56074 19.5231 3.56074 19.2568C3.56074 19.0663 3.60156 18.8737 3.6791 18.6995L4.85605 16.0515L6.0329 18.6996ZM4.67148 14.4855C4.7415 14.4311 4.80361 14.3658 4.85595 14.2921C4.9082 14.3658 4.97041 14.431 5.04043 14.4855C4.97041 14.54 4.9083 14.6053 4.85595 14.679C4.80371 14.6053 4.7416 14.54 4.67148 14.4855Z" fill="#FFE15A"/>
<path d="M27.0435 27.8586C29.5033 27.8586 31.4972 25.8646 31.4972 23.4049C31.4972 20.9452 29.5033 18.9512 27.0435 18.9512C24.5838 18.9512 22.5898 20.9452 22.5898 23.4049C22.5898 25.8646 24.5838 27.8586 27.0435 27.8586Z" fill="#FFE15A"/>
<path d="M27.3781 17.7268C27.3781 17.9112 27.2285 18.0608 27.044 18.0608C26.8596 18.0608 26.71 17.9112 26.71 17.7268C26.71 17.5423 27.044 16.7246 27.044 16.7246C27.044 16.7246 27.3781 17.5423 27.3781 17.7268Z" fill="#FFE15A"/>
<path d="M26.71 29.0841C26.71 28.8996 26.8596 28.75 27.044 28.75C27.2285 28.75 27.3781 28.8996 27.3781 29.0841C27.3781 29.2686 27.044 30.0862 27.044 30.0862C27.044 30.0862 26.71 29.2687 26.71 29.0841Z" fill="#FFE15A"/>
<path d="M32.7228 23.7385C32.5383 23.7385 32.3887 23.5889 32.3887 23.4044C32.3887 23.2199 32.5383 23.0703 32.7228 23.0703C32.9072 23.0703 33.7249 23.4044 33.7249 23.4044C33.7249 23.4044 32.9072 23.7385 32.7228 23.7385Z" fill="#FFE15A"/>
<path d="M21.3654 23.0703C21.5499 23.0703 21.6995 23.2199 21.6995 23.4044C21.6995 23.5889 21.5499 23.7385 21.3654 23.7385C21.181 23.7385 20.3633 23.4044 20.3633 23.4044C20.3633 23.4044 21.181 23.0703 21.3654 23.0703Z" fill="#FFE15A"/>
<path d="M31.2959 19.6246C31.1655 19.7551 30.954 19.7551 30.8235 19.6246C30.6929 19.4941 30.693 19.2827 30.8235 19.1521C30.9539 19.0216 31.7683 18.6797 31.7683 18.6797C31.7683 18.6797 31.4265 19.4941 31.2959 19.6246Z" fill="#FFE15A"/>
<path d="M22.7927 27.1838C22.9231 27.0533 23.1346 27.0533 23.2651 27.1838C23.3957 27.3143 23.3956 27.5257 23.2651 27.6563C23.1347 27.7868 22.3203 28.1286 22.3203 28.1286C22.3203 28.1286 22.6622 27.3144 22.7927 27.1838Z" fill="#FFE15A"/>
<path d="M30.8234 27.6563C30.693 27.5258 30.693 27.3144 30.8234 27.1838C30.9539 27.0533 31.1653 27.0534 31.2959 27.1838C31.4265 27.3143 31.7684 28.1286 31.7684 28.1286C31.7684 28.1286 30.9539 27.7867 30.8234 27.6563Z" fill="#FFE15A"/>
<path d="M23.2652 19.154C23.3957 19.2845 23.3957 19.4959 23.2652 19.6265C23.1348 19.757 22.9233 19.7569 22.7928 19.6265C22.6622 19.496 22.3203 18.6816 22.3203 18.6816C22.3203 18.6816 23.1348 19.0236 23.2652 19.154Z" fill="#FFE15A"/>
<path d="M25.1795 18.0306C25.2501 18.2011 25.1691 18.3964 24.9986 18.467C24.8281 18.5376 24.6328 18.4566 24.5622 18.2861C24.4916 18.1156 24.4873 17.2324 24.4873 17.2324C24.4873 17.2324 25.1089 17.8601 25.1795 18.0306Z" fill="#FFE15A"/>
<path d="M28.9083 28.7803C28.8377 28.6098 28.9187 28.4145 29.0892 28.3439C29.2597 28.2733 29.455 28.3542 29.5256 28.5247C29.5962 28.6952 29.6005 29.5784 29.6005 29.5784C29.6005 29.5784 28.9788 28.9508 28.9083 28.7803Z" fill="#FFE15A"/>
<path d="M32.418 21.5398C32.2475 21.6104 32.0522 21.5295 31.9816 21.359C31.911 21.1885 31.9919 20.9932 32.1624 20.9226C32.3329 20.852 33.216 20.8477 33.216 20.8477C33.216 20.8477 32.5885 21.4691 32.418 21.5398Z" fill="#FFE15A"/>
<path d="M21.6702 25.2697C21.8407 25.199 22.036 25.28 22.1066 25.4505C22.1772 25.621 22.0963 25.8163 21.9258 25.8869C21.7553 25.9575 20.8721 25.9618 20.8721 25.9618C20.8721 25.9618 21.4997 25.3404 21.6702 25.2697Z" fill="#FFE15A"/>
<path d="M29.5256 18.286C29.455 18.4565 29.2596 18.5374 29.0891 18.4669C28.9186 18.3963 28.8378 18.2009 28.9083 18.0305C28.9789 17.8601 29.6004 17.2324 29.6004 17.2324C29.6004 17.2324 29.5962 18.1156 29.5256 18.286Z" fill="#FFE15A"/>
<path d="M24.5621 28.5227C24.6327 28.3522 24.8281 28.2714 24.9985 28.3419C25.169 28.4125 25.2499 28.6079 25.1794 28.7783C25.1088 28.9488 24.4873 29.5764 24.4873 29.5764C24.4873 29.5764 24.4915 28.6932 24.5621 28.5227Z" fill="#FFE15A"/>
<path d="M32.1634 25.8869C31.9929 25.8163 31.912 25.6209 31.9825 25.4505C32.0531 25.28 32.2485 25.1991 32.4189 25.2696C32.5893 25.3401 33.217 25.9617 33.217 25.9617C33.217 25.9617 32.3337 25.9576 32.1634 25.8869Z" fill="#FFE15A"/>
<path d="M21.9257 20.9225C22.0962 20.9931 22.177 21.1885 22.1065 21.3589C22.0359 21.5293 21.8405 21.6103 21.6701 21.5397C21.4997 21.4691 20.8721 20.8477 20.8721 20.8477C20.8721 20.8477 21.7554 20.8518 21.9257 20.9225Z" fill="#FFE15A"/>
<path d="M26.2639 17.7693C26.2999 17.9503 26.1824 18.1262 26.0014 18.1621C25.8204 18.1981 25.6445 18.0807 25.6086 17.8996C25.5725 17.7187 25.7407 16.8516 25.7407 16.8516C25.7407 16.8516 26.2278 17.5884 26.2639 17.7693Z" fill="#FFE15A"/>
<path d="M27.8249 29.0399C27.7888 28.8589 27.9063 28.6831 28.0874 28.6471C28.2684 28.6111 28.4442 28.7286 28.4801 28.9096C28.5162 29.0906 28.348 29.9577 28.348 29.9577C28.348 29.9577 27.8608 29.2209 27.8249 29.0399Z" fill="#FFE15A"/>
<path d="M32.6795 22.6252C32.4986 22.6612 32.3227 22.5437 32.2868 22.3627C32.2507 22.1816 32.3682 22.0058 32.5493 21.9699C32.7302 21.9339 33.5973 22.102 33.5973 22.102C33.5973 22.102 32.8605 22.5892 32.6795 22.6252Z" fill="#FFE15A"/>
<path d="M21.409 24.1862C21.5899 24.1501 21.7658 24.2676 21.8018 24.4487C21.8378 24.6297 21.7203 24.8055 21.5393 24.8415C21.3583 24.8775 20.4912 24.7093 20.4912 24.7093C20.4912 24.7093 21.228 24.2221 21.409 24.1862Z" fill="#FFE15A"/>
<path d="M30.4771 18.8686C30.3746 19.022 30.1671 19.0632 30.0137 18.9606C29.8603 18.8581 29.8191 18.6507 29.9216 18.4973C30.0241 18.3438 30.7561 17.8496 30.7561 17.8496C30.7561 17.8496 30.5795 18.715 30.4771 18.8686Z" fill="#FFE15A"/>
<path d="M23.611 27.9414C23.7135 27.788 23.921 27.7468 24.0744 27.8493C24.2278 27.9518 24.269 28.1593 24.1665 28.3127C24.0641 28.4661 23.332 28.9604 23.332 28.9604C23.332 28.9604 23.5086 28.095 23.611 27.9414Z" fill="#FFE15A"/>
<path d="M31.5801 26.8384C31.4267 26.736 31.3855 26.5285 31.488 26.375C31.5906 26.2216 31.798 26.1804 31.9514 26.2829C32.1048 26.3854 32.5991 27.1174 32.5991 27.1174C32.5991 27.1174 31.7335 26.9409 31.5801 26.8384Z" fill="#FFE15A"/>
<path d="M22.5082 19.9724C22.6616 20.0748 22.7028 20.2823 22.6003 20.4357C22.4978 20.5892 22.2903 20.6304 22.1369 20.5278C21.9835 20.4253 21.4893 19.6934 21.4893 19.6934C21.4893 19.6934 22.3549 19.8699 22.5082 19.9724Z" fill="#FFE15A"/>
<path d="M24.1665 18.4972C24.2689 18.6506 24.2277 18.858 24.0744 18.9605C23.9211 19.0631 23.7136 19.0218 23.611 18.8685C23.5086 18.715 23.332 17.8496 23.332 17.8496C23.332 17.8496 24.0641 18.3438 24.1665 18.4972Z" fill="#FFE15A"/>
<path d="M29.9215 28.3127C29.8191 28.1592 29.8603 27.9518 30.0136 27.8493C30.167 27.7468 30.3745 27.788 30.477 27.9414C30.5795 28.0948 30.756 28.9602 30.756 28.9602C30.756 28.9602 30.0241 28.466 29.9215 28.3127Z" fill="#FFE15A"/>
<path d="M31.9513 20.5278C31.7979 20.6303 31.5905 20.5891 31.488 20.4357C31.3855 20.2823 31.4267 20.0749 31.58 19.9724C31.7335 19.8699 32.5989 19.6934 32.5989 19.6934C32.5989 19.6934 32.1048 20.4254 31.9513 20.5278Z" fill="#FFE15A"/>
<path d="M22.1368 26.2829C22.2902 26.1804 22.4977 26.2216 22.6002 26.375C22.7026 26.5284 22.6614 26.7358 22.5081 26.8383C22.3547 26.9408 21.4893 27.1173 21.4893 27.1173C21.4893 27.1173 21.9834 26.3853 22.1368 26.2829Z" fill="#FFE15A"/>
<path d="M28.4801 17.8996C28.4441 18.0806 28.2683 18.1981 28.0873 18.1621C27.9064 18.1261 27.7888 17.9503 27.8249 17.7693C27.8609 17.5884 28.348 16.8516 28.348 16.8516C28.348 16.8516 28.5161 17.7187 28.4801 17.8996Z" fill="#FFE15A"/>
<path d="M25.6086 28.9096C25.6446 28.7287 25.8204 28.6111 26.0013 28.6471C26.1823 28.6832 26.2999 28.8589 26.2638 29.0399C26.2278 29.2208 25.7407 29.9577 25.7407 29.9577C25.7407 29.9577 25.5726 29.0906 25.6086 28.9096Z" fill="#FFE15A"/>
<path d="M32.5483 24.8415C32.3673 24.8054 32.2498 24.6296 32.2858 24.4487C32.3218 24.2677 32.4976 24.1501 32.6786 24.1862C32.8595 24.2222 33.5963 24.7093 33.5963 24.7093C33.5963 24.7093 32.7292 24.8774 32.5483 24.8415Z" fill="#FFE15A"/>
<path d="M21.5393 21.9699C21.7202 22.0059 21.8378 22.1817 21.8018 22.3627C21.7657 22.5436 21.5899 22.6612 21.409 22.6252C21.228 22.5891 20.4912 22.102 20.4912 22.102C20.4912 22.102 21.3583 21.9339 21.5393 21.9699Z" fill="#FFE15A"/>
<path d="M37.5209 24.5777C37.3904 24.5228 37.2413 24.5857 37.1869 24.7154C37.1869 24.716 37.1869 24.716 37.1869 24.716C37.1859 24.7184 37.1808 24.7305 37.1721 24.751C36.9791 25.2019 36.5797 25.861 36.1763 26.481C36.552 25.2718 36.8955 23.9802 36.9194 23.8893C36.9552 23.7537 36.875 23.6144 36.7395 23.5776C36.6039 23.5412 36.4644 23.6201 36.4264 23.7552C36.2511 24.3833 35.8927 25.2099 35.5619 25.9098C35.6225 25.1295 35.634 24.4066 35.6347 24.3543C35.6368 24.2161 35.5285 24.1018 35.3903 24.0953C35.2603 24.0993 35.1349 24.1941 35.1247 24.3322C34.7976 28.831 30.4686 30.8435 30.0472 31.0287C29.8266 31.0507 28.7994 31.1664 27.8671 31.4901C27.7614 31.5268 27.6714 31.5636 27.5817 31.6002C27.5484 31.5877 27.5127 31.5806 27.4751 31.5829C24.6136 31.7899 22.3319 30.6161 20.6921 28.1013C19.4531 26.2011 19.0646 24.2065 19.0607 24.1866C19.0346 24.0479 18.9018 23.9586 18.7625 23.9831C18.6238 24.0095 18.5327 24.1427 18.559 24.2813C18.5693 24.3364 18.7399 25.207 19.2094 26.3528C18.5812 25.3611 18.1434 24.1598 17.9893 23.5341C17.9861 23.5216 17.9781 23.5121 17.9734 23.5006C17.9662 23.4829 17.9602 23.4651 17.9495 23.4498C17.942 23.439 17.9321 23.431 17.9233 23.4216C17.9093 23.4068 17.8959 23.3924 17.8788 23.3813C17.8691 23.375 17.8581 23.3719 17.8475 23.3669C17.8286 23.3581 17.8102 23.3494 17.7892 23.3454C17.7746 23.3426 17.7598 23.3444 17.7446 23.3441C17.7293 23.3439 17.7149 23.34 17.6991 23.3428C17.6957 23.3434 17.6931 23.3457 17.6897 23.3465C17.6863 23.3472 17.6832 23.3461 17.6799 23.3468C17.6662 23.3501 17.6558 23.3587 17.6433 23.3641C17.6274 23.371 17.611 23.3762 17.5971 23.3858C17.5833 23.3953 17.5731 23.4076 17.5616 23.4194C17.5502 23.4311 17.5383 23.4415 17.5293 23.4551C17.5202 23.4688 17.5153 23.4844 17.5089 23.4997C17.5027 23.5146 17.4956 23.5287 17.4924 23.5448C17.4891 23.5613 17.4905 23.5783 17.4906 23.5956C17.4906 23.6094 17.4868 23.6225 17.4893 23.6366C17.4902 23.6427 17.4922 23.6487 17.4933 23.6546V23.6556C17.4936 23.6566 17.494 23.6581 17.4942 23.6593C17.6523 24.5902 18.0288 25.5553 18.3693 26.2912C17.8286 25.6776 17.3768 24.9707 17.2166 24.552C17.212 24.5398 17.2027 24.5313 17.1965 24.5204C17.187 24.5035 17.1787 24.4862 17.1659 24.4723C17.1568 24.4623 17.1458 24.4558 17.1355 24.4475C17.1199 24.435 17.1052 24.4225 17.0872 24.4139C17.0757 24.4084 17.0632 24.4066 17.051 24.4028C17.0321 24.3972 17.0139 24.3909 16.9939 24.3896C16.9781 24.3886 16.9625 24.3926 16.9466 24.3946C16.9318 24.3965 16.9173 24.3946 16.9026 24.3992C16.8998 24.4001 16.8979 24.4023 16.8952 24.4033C16.8925 24.4042 16.8898 24.4036 16.887 24.4047C16.8732 24.4099 16.8633 24.4202 16.8509 24.4275C16.8363 24.4361 16.8208 24.4433 16.8084 24.4544C16.7957 24.4658 16.7869 24.48 16.777 24.4935C16.7675 24.5063 16.7569 24.5178 16.7499 24.532C16.7426 24.547 16.7399 24.5632 16.7357 24.5793C16.7315 24.595 16.7259 24.6097 16.7248 24.6262C16.7236 24.6427 16.7277 24.6592 16.7299 24.6759C16.7317 24.6903 16.7298 24.7047 16.7343 24.7189C17.0122 25.6154 17.6806 26.682 18.2042 27.4334C17.7679 27.0972 17.4472 26.7335 17.3541 26.6237C17.3441 26.6118 17.3342 26.5998 17.3241 26.5879C17.2341 26.4796 17.075 26.4641 16.9659 26.5524C16.8572 26.6412 16.8401 26.801 16.928 26.91C16.9328 26.9161 16.952 26.94 16.984 26.9774C17.3672 27.4334 17.7847 27.8589 18.1629 28.2181L17.6455 27.9976C17.5275 27.9468 17.3889 27.9927 17.3243 28.1049C17.2597 28.2172 17.2889 28.3593 17.3924 28.4371C17.4428 28.4745 18.359 29.159 19.1522 29.5636C19.0774 29.568 18.9896 29.5626 18.8913 29.5551C18.7714 29.5435 18.6534 29.6294 18.6242 29.7511C18.5955 29.8732 18.6594 29.998 18.7754 30.0459C18.7949 30.0539 19.0366 30.1536 19.3351 30.2598C19.2654 30.2883 19.2101 30.3467 19.1871 30.4224C19.1527 30.5357 19.2011 30.6585 19.3038 30.7173C19.3306 30.7328 19.6916 30.9398 20.1384 31.1233C20.1265 31.1418 20.1167 31.1617 20.1094 31.1837C20.0744 31.2909 20.1144 31.4087 20.2074 31.473C20.285 31.5263 22.0198 32.7037 24.046 32.7037C24.179 32.7037 24.3134 32.6987 24.4485 32.6878C24.589 32.6767 24.694 32.5536 24.6828 32.4129C24.6716 32.2721 24.5496 32.1659 24.4077 32.1789C23.1349 32.2827 21.9086 31.8048 21.1793 31.4395C21.2756 31.416 21.331 31.3946 21.3447 31.3891C21.4572 31.3432 21.5221 31.225 21.5001 31.1057C21.4781 30.9866 21.3754 30.8992 21.2539 30.8967C20.9578 30.8906 20.5478 30.7465 20.1945 30.5918C20.3279 30.525 20.4059 30.461 20.4127 30.4555C20.4896 30.3912 20.522 30.2885 20.4958 30.1917C20.4694 30.0954 20.389 30.023 20.2903 30.0071C20.1818 29.9891 20.0466 29.9542 19.905 29.9113C20.0427 29.832 20.1013 29.7447 20.1237 29.7003C20.1592 29.6295 20.16 29.5466 20.126 29.4753C20.0918 29.404 20.0268 29.3525 19.9493 29.336C19.8825 29.3216 19.8068 29.2971 19.7251 29.2652C19.74 29.2503 19.7538 29.2333 19.7649 29.2138C19.83 29.1036 19.8031 28.9619 19.7022 28.8826C19.6969 28.8786 19.4986 28.723 19.1984 28.464C19.2461 28.4466 19.2882 28.4141 19.3187 28.3703C19.383 28.2775 19.3786 28.1533 19.3079 28.0654C19.3023 28.0584 19.1037 27.8088 18.8301 27.4297C18.9204 27.4998 19.0107 27.5715 19.1009 27.6295C19.1434 27.6564 19.1914 27.6699 19.2391 27.6699C19.3037 27.6699 19.3675 27.6455 19.4166 27.598C19.4368 27.5785 19.4526 27.556 19.4651 27.5321C19.6201 27.6976 19.7829 27.8479 19.9539 27.9762C19.9762 27.9929 20.0032 27.9926 20.0282 28.001C20.1007 28.1224 20.1761 28.2441 20.2552 28.3658C21.8063 30.7523 23.9933 32.0306 26.6163 32.1074C26.3748 32.2541 26.1126 32.4056 25.6975 32.5674C25.6068 32.6027 25.5268 32.6381 25.4463 32.6735C25.4074 32.6811 25.371 32.6952 25.3406 32.7193C24.616 33.0548 24.316 33.3862 24.1943 33.618C24.0728 33.8485 24.1776 34.0849 24.326 34.2077C24.3721 34.2456 24.4308 34.265 24.4895 34.265C24.53 34.265 24.5704 34.256 24.607 34.2376C24.6974 34.1926 24.7577 34.0973 24.7537 33.9971C24.7642 33.9857 24.8086 33.9488 24.9477 33.9442C25.0492 33.9357 25.2628 33.9587 25.512 33.9786C25.7491 33.9981 26.0335 34.0203 26.3358 34.0358C26.1467 34.2563 25.9268 34.5119 25.9268 34.5119C25.8608 34.5887 25.8463 34.6974 25.8902 34.7887C25.9344 34.8805 26.0295 34.9375 26.1292 34.9339C26.331 34.9268 26.4682 34.9228 26.5582 34.921C26.6367 35.0238 26.7331 35.0646 26.7952 35.0805C26.9709 35.1255 27.146 35.0551 27.2778 34.9718C27.3776 35.0437 27.4774 35.0741 27.5565 35.0856C27.7349 35.11 27.9 35.0582 28.0194 34.9993C28.1432 35.0792 28.2643 35.0996 28.3567 35.0996C28.358 35.0996 28.3595 35.0996 28.3609 35.0996C28.5602 35.0986 28.7347 35.0023 28.858 34.908C28.9671 34.9728 29.0713 34.9937 29.1518 34.9973C29.3348 35.0038 29.4863 34.9335 29.5871 34.8675C29.9471 34.9398 30.2573 34.7703 30.4624 34.5832C30.5559 34.6376 30.6449 34.651 30.7158 34.6475C30.8981 34.6411 31.037 34.5302 31.1262 34.431C31.5343 34.4803 31.8271 34.405 31.9964 34.2041C32.0887 34.0948 32.1262 33.9717 32.1363 33.8593C33.2685 33.8529 33.371 33.2347 33.3793 33.1584C33.3867 33.0889 33.3656 33.0197 33.3205 32.9664C33.2756 32.9131 33.2104 32.8801 33.1409 32.876L30.1725 32.6975C30.0483 32.6885 29.9375 32.7718 29.9087 32.8931C29.9081 32.8951 29.8575 33.0837 29.6992 33.2344C29.4861 33.4379 29.1431 33.5453 28.7699 33.6022C28.7713 33.568 28.7665 33.5333 28.7534 33.4993C28.7025 33.3676 28.5544 33.3037 28.4231 33.3532C27.8103 33.591 26.8182 33.5611 26.042 33.5071C26.161 33.4098 26.3044 33.3134 26.4189 33.2506C26.5157 33.1972 26.5677 33.088 26.5472 32.9793C26.5323 32.9003 26.4752 32.8453 26.4062 32.8099C26.6221 32.7009 26.799 32.5957 26.9669 32.4933C27.2583 32.3148 27.5336 32.1466 28.0349 31.9725C29.0027 31.6363 30.1227 31.5341 30.134 31.533C30.1594 31.5309 30.1844 31.5245 30.208 31.515C30.2478 31.4985 33.407 30.1751 34.8954 27.1214C34.8759 27.2137 34.855 27.298 34.8322 27.3718C34.7933 27.4975 34.8561 27.6317 34.9773 27.6825C35.0711 27.722 35.1776 27.7014 35.2498 27.6347C35.1557 27.8826 35.0707 28.0776 35.0012 28.1929C34.9304 28.3101 34.9646 28.4623 35.0786 28.5381C35.1053 28.5555 35.134 28.5675 35.1634 28.5745C35.0481 28.7431 34.9313 28.9027 34.8148 29.0489C34.7373 29.1462 34.7418 29.2849 34.8228 29.3767C34.6228 29.5862 34.4455 29.7589 34.3107 29.8686C34.2227 29.9399 34.194 30.0592 34.2344 30.161C34.1045 30.2353 33.9977 30.2878 33.9237 30.3101C33.7995 30.3475 33.7232 30.4727 33.7467 30.6005C33.7589 30.6678 33.7968 30.7247 33.8491 30.7621C33.6929 30.804 33.522 30.8444 33.3365 30.8812C33.232 30.9021 33.1513 30.9855 33.1343 31.0907C33.1174 31.196 33.1673 31.3008 33.2596 31.3536C33.2677 31.3581 33.3549 31.4075 33.4885 31.4643C32.9943 31.6634 32.1121 31.9233 30.6643 32.066C30.5241 32.08 30.4214 32.2052 30.4353 32.3454C30.449 32.4856 30.5703 32.5829 30.7147 32.5749C33.463 32.303 34.3116 31.6151 34.3463 31.5856C34.4256 31.5192 34.457 31.411 34.4256 31.3123C34.4047 31.2469 34.3588 31.1941 34.2998 31.1635C35.1778 30.8872 35.5548 30.5813 35.5745 30.5649C35.6708 30.485 35.695 30.347 35.6316 30.2387C35.5677 30.1304 35.4348 30.0835 35.3188 30.1303C35.2862 30.1428 35.2341 30.1557 35.1681 30.1687C35.7574 29.7652 36.3829 29.2846 36.658 29.0702C36.7063 29.0344 36.7503 28.9998 36.7889 28.9674C36.8958 28.8776 36.9107 28.7188 36.8225 28.6107C36.735 28.503 36.5756 28.4849 36.4663 28.5713C36.4264 28.6027 36.3849 28.6351 36.3421 28.6685C36.2151 28.7629 36.0527 28.8696 35.8756 28.9793C36.5443 28.22 37.2176 27.3969 37.4098 27.1604C37.4273 27.1389 37.4445 27.1176 37.462 27.0961C37.5503 26.9863 37.5331 26.8257 37.4233 26.7374C37.3133 26.6476 37.1524 26.6661 37.0643 26.7753L37.0637 26.7759L37.0635 26.7765C37.0588 26.7819 37.0372 26.8089 37.0008 26.8538C36.7993 27.0997 36.5872 27.3378 36.3779 27.5601C37.0592 26.3255 37.575 25.1101 37.6506 24.9301C37.6533 24.9236 37.6558 24.9172 37.6586 24.9105C37.7127 24.7813 37.6511 24.6316 37.5209 24.5777ZM25.5492 33.1878L25.6189 33.1968C25.5334 33.2768 25.4638 33.3665 25.4085 33.4591C25.2872 33.4493 25.1771 33.4407 25.0909 33.4369C25.2098 33.3593 25.3627 33.275 25.5492 33.1878Z" fill="#FFE15A"/>
</g>
<defs>
<clipPath id="clip0_3462_30783">
<rect width="50" height="50" fill="white" transform="translate(0.603516 0.453125)"/>
</clipPath>
</defs>
</svg>
