<svg width="51" height="51" viewBox="0 0 51 51" fill="none" xmlns="http://www.w3.org/2000/svg">
<g clip-path="url(#clip0_3462_30764)">
<path d="M0.03125 30.9121H50.0312V40.9695C50.0312 41.4456 49.6451 41.8316 49.169 41.8316H0.893358C0.417284 41.8316 0.03125 41.4456 0.03125 40.9695V30.9121Z" fill="#73AF00"/>
<path d="M0.893358 9.07422H49.1691C49.6452 9.07422 50.0312 9.46025 50.0312 9.93633V19.9937H0.03125V9.93623C0.03125 9.46016 0.417284 9.07422 0.893358 9.07422Z" fill="#464655"/>
<path d="M50.0312 19.9922H0.03125V30.9111H50.0312V19.9922Z" fill="#C8414B"/>
<path d="M50.0312 19.418H0.03125V21.1421H50.0312V19.418Z" fill="#F5F5F5"/>
<path d="M50.0312 29.7637H0.03125V31.4878H50.0312V29.7637Z" fill="#F5F5F5"/>
<path d="M29.6474 18.1885C30.3416 16.7571 31.0659 13.4414 31.0659 13.4414C31.0659 13.4414 28.9104 16.063 28.2161 17.4942C28.0706 17.7942 28.1323 18.1392 28.3425 18.3726L20.4355 34.6748L20.9723 34.9351L28.8792 18.633C29.1929 18.6536 29.502 18.4885 29.6474 18.1885Z" fill="#F5F5F5"/>
<path d="M20.4155 18.1885C19.7214 16.7571 18.9971 13.4414 18.9971 13.4414C18.9971 13.4414 21.1525 16.063 21.8469 17.4942C21.9924 17.7942 21.9307 18.1392 21.7205 18.3726L29.6274 34.6748L29.0907 34.9351L21.1838 18.633C20.8701 18.6536 20.5609 18.4885 20.4155 18.1885Z" fill="#F5F5F5"/>
<path d="M29.3414 25.4527C29.3414 30.2138 25.8246 34.0734 25.031 34.0734C24.2375 34.0734 20.7207 30.2138 20.7207 25.4527C20.7207 20.6916 24.2375 16.832 25.031 16.832C25.8246 16.832 29.3414 20.6916 29.3414 25.4527Z" fill="#C8414B"/>
<path d="M28.4793 29.6115C28.987 28.378 29.3414 26.9611 29.3414 25.4522C29.3414 23.9434 28.9871 22.5266 28.4793 21.293C27.9716 22.5265 27.6172 23.9434 27.6172 25.4522C27.6172 26.9611 27.9716 28.378 28.4793 29.6115Z" fill="#464655"/>
<path d="M21.5828 21.293C21.0751 22.5265 20.7207 23.9434 20.7207 25.4522C20.7207 26.9611 21.075 28.3779 21.5828 29.6115C22.0905 28.378 22.4449 26.9611 22.4449 25.4522C22.4449 23.9434 22.0905 22.5266 21.5828 21.293Z" fill="#464655"/>
<path d="M25.032 26.7463C25.5082 26.7463 25.8941 26.1674 25.8941 25.4532C25.8941 24.7391 25.5082 24.1602 25.032 24.1602C24.5559 24.1602 24.1699 24.7391 24.1699 25.4532C24.1699 26.1674 24.5559 26.7463 25.032 26.7463Z" fill="#F5F5F5"/>
<path d="M25.1611 16.832V24.1596C25.3962 23.6703 25.8131 22.2245 25.8131 20.4958C25.8131 18.767 25.3962 17.3213 25.1611 16.832Z" fill="#F5F5F5"/>
<path d="M24.9029 16.832C24.6679 17.3213 24.251 18.767 24.251 20.4958C24.251 22.2246 24.6679 23.6704 24.9029 24.1596V16.832Z" fill="#F5F5F5"/>
<path d="M25.1611 26.7461V34.0736C25.3962 33.5844 25.8131 32.1386 25.8131 30.4099C25.8131 28.6811 25.3962 27.2354 25.1611 26.7461Z" fill="#F5F5F5"/>
<path d="M24.9029 26.7461C24.6679 27.2354 24.251 28.6811 24.251 30.4099C24.251 32.1387 24.6679 33.5845 24.9029 34.0736V26.7461Z" fill="#F5F5F5"/>
</g>
<defs>
<clipPath id="clip0_3462_30764">
<rect width="50" height="50" fill="white" transform="translate(0.03125 0.453125)"/>
</clipPath>
</defs>
</svg>
