<svg width="51" height="51" viewBox="0 0 51 51" fill="none" xmlns="http://www.w3.org/2000/svg">
<g clip-path="url(#clip0_3462_30750)">
<path d="M49.4609 41.8327H1.18535C0.709276 41.8327 0.323242 41.4467 0.323242 40.9706V9.93632C0.323242 9.46025 0.709276 9.07422 1.18535 9.07422H49.461C49.9371 9.07422 50.3231 9.46025 50.3231 9.93632V40.9706C50.323 41.4468 49.937 41.8327 49.4609 41.8327Z" fill="#FF4B55"/>
<path d="M30.1539 25.7254C29.9352 25.5373 29.6872 25.4004 29.4382 25.3003C30.8454 25.0228 31.977 23.8339 31.977 23.8339C31.2929 24.134 30.9749 24.1947 29.8862 23.8369C29.6123 23.7469 29.3307 23.7152 29.0625 23.718C30.2562 22.9231 30.8468 21.3919 30.8468 21.3919C30.3297 21.9308 30.0591 22.1088 28.9164 22.1948C28.6288 22.2165 28.3566 22.295 28.1097 22.4003C28.9086 21.2092 28.8681 19.5682 28.8681 19.5682C28.5966 20.2641 28.4148 20.5319 27.3919 21.0486C27.1344 21.1787 26.913 21.3556 26.7253 21.5472C27.0073 20.141 26.3421 18.6406 26.3421 18.6406C26.3576 19.3874 26.292 19.7045 25.5448 20.5734C25.3567 20.7921 25.2198 21.0401 25.1197 21.2891C24.8423 19.8819 23.6533 18.7503 23.6533 18.7503C23.9534 19.4344 24.0141 19.7523 23.6563 20.8411C23.5663 21.115 23.5346 21.3966 23.5375 21.6648C22.7426 20.4711 21.2113 19.8805 21.2113 19.8805C21.7503 20.3976 21.9282 20.6682 22.0142 21.8109C22.0359 22.0985 22.1144 22.3707 22.2196 22.6175C21.0283 21.8187 19.3876 21.8592 19.3876 21.8592C20.0835 22.1307 20.3514 22.3125 20.8681 23.3354C20.9981 23.5929 21.175 23.8142 21.3667 24.002C19.9604 23.7199 18.46 24.3852 18.46 24.3852C19.2068 24.3697 19.5238 24.4353 20.3929 25.1825C20.6115 25.3706 20.8596 25.5074 21.1085 25.6076C19.7014 25.885 18.5697 27.074 18.5697 27.074C19.2538 26.7739 19.5718 26.7131 20.6605 27.071C20.9346 27.161 21.2161 27.1926 21.4844 27.1898C20.2906 27.9846 19.6999 29.5161 19.6999 29.5161C20.217 28.9771 20.4876 28.7992 21.6304 28.7131C21.918 28.6915 22.1901 28.6129 22.4369 28.5078C21.6382 29.6991 21.6786 31.3398 21.6786 31.3398C21.9501 30.6438 22.1319 30.376 23.1549 29.8592C23.4123 29.7292 23.6337 29.5523 23.8215 29.3607C23.5393 30.7669 24.2047 32.2673 24.2047 32.2673C24.1891 31.5205 24.2548 31.2035 25.0019 30.3344C25.19 30.1158 25.3269 29.8677 25.427 29.6188C25.7045 31.0258 26.8934 32.1576 26.8934 32.1576C26.5933 31.4735 26.5326 31.1554 26.8904 30.0667C26.9804 29.7928 27.0121 29.5113 27.0092 29.243C27.8042 30.4368 29.3354 31.0274 29.3354 31.0274C28.7964 30.5103 28.6185 30.2397 28.5325 29.0969C28.5108 28.8094 28.4323 28.5372 28.3271 28.2904C29.5182 29.0891 31.1591 29.0487 31.1591 29.0487C30.4632 28.7771 30.1954 28.5954 29.6786 27.5724C29.5485 27.315 29.3716 27.0935 29.18 26.9058C30.5863 27.1879 32.0867 26.5226 32.0867 26.5226C31.3399 26.5382 31.0228 26.4728 30.1539 25.7254Z" fill="#FFE15A"/>
<path d="M28.7808 26.1408L32.2197 25.453L28.7808 24.7652L31.6948 22.8139L28.2545 23.4943L30.1999 20.5764L27.2819 22.5218L27.9625 19.0814L26.0111 21.9953L25.3232 18.5566L24.6355 21.9955L22.6842 19.0816L23.3647 22.522L20.4468 20.5766L22.3922 23.4945L18.9519 22.814L21.8658 24.7654L18.4268 25.4531L21.8656 26.1409L18.9517 28.0923L22.392 27.4117L20.4466 30.3296L23.3645 28.3842L22.684 31.8246L24.6353 28.9107L25.3232 32.3495L26.011 28.9106L27.9624 31.8245L27.2818 28.3841L30.1998 30.3295L28.2544 27.4116L31.6947 28.0922L28.7808 26.1408Z" fill="#FFD25A"/>
<path d="M25.3232 28.9004C27.2276 28.9004 28.7715 27.3565 28.7715 25.4521C28.7715 23.5477 27.2276 22.0039 25.3232 22.0039C23.4188 22.0039 21.875 23.5477 21.875 25.4521C21.875 27.3565 23.4188 28.9004 25.3232 28.9004Z" fill="#FFE15A"/>
<path d="M10.309 35.7972C12.81 35.7972 12.81 36.6593 15.3111 36.6593C17.8139 36.6593 17.8139 35.7972 20.3165 35.7972C22.8191 35.7972 22.8193 36.6593 25.322 36.6593C27.8191 36.6593 27.8191 35.7972 30.3164 35.7972C32.8149 35.7972 32.8149 36.6593 35.3133 36.6593C37.8129 36.6593 37.8129 35.7972 40.3124 35.7972C42.8119 35.7972 42.8119 36.6593 45.3114 36.6593C47.811 36.6593 47.811 35.7972 50.3106 35.7972C50.3146 35.7972 50.318 35.7974 50.322 35.7974V33.2111C50.318 33.2111 50.3146 33.2109 50.3106 33.2109C47.811 33.2109 47.811 34.073 45.3114 34.073C42.812 34.073 42.812 33.2109 40.3124 33.2109C37.8128 33.2109 37.8128 34.073 35.3133 34.073C32.8148 34.073 32.8148 33.2109 30.3164 33.2109C27.8192 33.2109 27.8192 34.073 25.322 34.073C22.8191 34.073 22.8191 33.2109 20.3165 33.2109C17.8139 33.2109 17.8137 34.073 15.3111 34.073C12.81 34.073 12.81 33.2109 10.309 33.2109C7.81022 33.2109 7.81022 34.073 5.31131 34.073C2.81513 34.073 2.81044 33.214 0.322266 33.2112V35.7975C2.81054 35.8003 2.81513 36.6593 5.31131 36.6593C7.81022 36.6593 7.81022 35.7972 10.309 35.7972Z" fill="#41479B"/>
<path d="M0.322266 30.6257C2.81054 30.6284 2.81513 31.4874 5.31131 31.4874C7.81022 31.4874 7.81022 30.6253 10.309 30.6253C12.81 30.6253 12.81 31.4874 15.3111 31.4874C17.8139 31.4874 17.8139 30.6253 20.3165 30.6253C22.8191 30.6253 22.8193 31.4874 25.322 31.4874C27.8191 31.4874 27.8191 30.6253 30.3164 30.6253C32.8149 30.6253 32.8149 31.4874 35.3133 31.4874C37.8129 31.4874 37.8129 30.6253 40.3124 30.6253C42.8119 30.6253 42.8119 31.4874 45.3114 31.4874C47.811 31.4874 47.811 30.6253 50.3106 30.6253C50.3146 30.6253 50.318 30.6255 50.322 30.6255V28.0393C50.318 28.0393 50.3146 28.0391 50.3106 28.0391C47.811 28.0391 47.811 28.9012 45.3114 28.9012C42.812 28.9012 42.812 28.0391 40.3124 28.0391C37.8128 28.0391 37.8128 28.9012 35.3133 28.9012C32.8148 28.9012 32.8148 28.0391 30.3164 28.0391C27.8192 28.0391 27.8192 28.9012 25.322 28.9012C22.8191 28.9012 22.8191 28.0391 20.3165 28.0391C17.8139 28.0391 17.8137 28.9012 15.3111 28.9012C12.81 28.9012 12.81 28.0391 10.309 28.0391C7.81022 28.0391 7.81022 28.9012 5.31131 28.9012C2.81513 28.9012 2.81044 28.0421 0.322266 28.0394L0.322266 30.6257Z" fill="#41479B"/>
<path d="M0.322266 38.3835C2.81054 38.3862 2.81513 39.2452 5.31131 39.2452C7.81022 39.2452 7.81022 38.3831 10.309 38.3831C12.81 38.3831 12.81 39.2452 15.3111 39.2452C17.8139 39.2452 17.8139 38.3831 20.3165 38.3831C22.8191 38.3831 22.8193 39.2452 25.322 39.2452C27.8191 39.2452 27.8191 38.3831 30.3164 38.3831C32.8149 38.3831 32.8149 39.2452 35.3133 39.2452C37.8129 39.2452 37.8129 38.3831 40.3124 38.3831C42.8119 38.3831 42.8119 39.2452 45.3114 39.2452C47.811 39.2452 47.811 38.3831 50.3106 38.3831C50.3146 38.3831 50.318 38.3833 50.322 38.3833V35.7971C50.318 35.7971 50.3146 35.7969 50.3106 35.7969C47.811 35.7969 47.811 36.659 45.3114 36.659C42.812 36.659 42.812 35.7969 40.3124 35.7969C37.8128 35.7969 37.8128 36.659 35.3133 36.659C32.8148 36.659 32.8148 35.7969 30.3164 35.7969C27.8192 35.7969 27.8192 36.659 25.322 36.659C22.8191 36.659 22.8191 35.7969 20.3165 35.7969C17.8139 35.7969 17.8137 36.659 15.3111 36.659C12.81 36.659 12.81 35.7969 10.309 35.7969C7.81022 35.7969 7.81022 36.659 5.31131 36.659C2.81513 36.659 2.81044 35.7999 0.322266 35.7972L0.322266 38.3835Z" fill="#F5F5F5"/>
<path d="M0.322266 33.2116C2.81054 33.2143 2.81513 34.0733 5.31131 34.0733C7.81022 34.0733 7.81022 33.2112 10.309 33.2112C12.81 33.2112 12.81 34.0733 15.3111 34.0733C17.8139 34.0733 17.8139 33.2112 20.3165 33.2112C22.8191 33.2112 22.8193 34.0733 25.322 34.0733C27.8191 34.0733 27.8191 33.2112 30.3164 33.2112C32.8149 33.2112 32.8149 34.0733 35.3133 34.0733C37.8129 34.0733 37.8129 33.2112 40.3124 33.2112C42.8119 33.2112 42.8119 34.0733 45.3114 34.0733C47.811 34.0733 47.811 33.2112 50.3106 33.2112C50.3146 33.2112 50.318 33.2114 50.322 33.2114V30.6252C50.318 30.6252 50.3146 30.625 50.3106 30.625C47.811 30.625 47.811 31.4871 45.3114 31.4871C42.812 31.4871 42.812 30.625 40.3124 30.625C37.8128 30.625 37.8128 31.4871 35.3133 31.4871C32.8148 31.4871 32.8148 30.625 30.3164 30.625C27.8192 30.625 27.8192 31.4871 25.322 31.4871C22.8191 31.4871 22.8191 30.625 20.3165 30.625C17.8139 30.625 17.8137 31.4871 15.3111 31.4871C12.81 31.4871 12.81 30.625 10.309 30.625C7.81022 30.625 7.81022 31.4871 5.31131 31.4871C2.81513 31.4871 2.81044 30.628 0.322266 30.6253L0.322266 33.2116Z" fill="#F5F5F5"/>
<path d="M0.322266 28.0397C2.81054 28.0425 2.81513 28.9015 5.31131 28.9015C7.81022 28.9015 7.81022 28.0393 10.309 28.0393C12.81 28.0393 12.81 28.9015 15.3111 28.9015C17.8139 28.9015 17.8139 28.0393 20.3165 28.0393C22.8191 28.0393 22.8193 28.9015 25.322 28.9015C27.8191 28.9015 27.8191 28.0393 30.3164 28.0393C32.8149 28.0393 32.8149 28.9015 35.3133 28.9015C37.8129 28.9015 37.8129 28.0393 40.3124 28.0393C42.8119 28.0393 42.8119 28.9015 45.3114 28.9015C47.811 28.9015 47.811 28.0393 50.3106 28.0393C50.3146 28.0393 50.318 28.0395 50.322 28.0395V25.4533C50.318 25.4533 50.3146 25.4531 50.3106 25.4531C47.811 25.4531 47.811 26.3152 45.3114 26.3152C42.812 26.3152 42.812 25.4531 40.3124 25.4531C37.8128 25.4531 37.8128 26.3152 35.3133 26.3152C32.8148 26.3152 32.8148 25.4531 30.3164 25.4531C27.8192 25.4531 27.8192 26.3152 25.322 26.3152C22.8191 26.3152 22.8191 25.4531 20.3165 25.4531C17.8139 25.4531 17.8137 26.3152 15.3111 26.3152C12.81 26.3152 12.81 25.4531 10.309 25.4531C7.81022 25.4531 7.81022 26.3152 5.31131 26.3152C2.81513 26.3152 2.81044 25.4562 0.322266 25.4534L0.322266 28.0397Z" fill="#F5F5F5"/>
<path d="M45.3123 39.2469C42.8129 39.2469 42.8129 38.3848 40.3133 38.3848C37.8137 38.3848 37.8137 39.2469 35.3142 39.2469C32.8157 39.2469 32.8157 38.3848 30.3173 38.3848C27.8201 38.3848 27.8201 39.2469 25.3229 39.2469C22.8201 39.2469 22.8201 38.3848 20.3175 38.3848C17.8149 38.3848 17.8147 39.2469 15.3121 39.2469C12.811 39.2469 12.811 38.3848 10.31 38.3848C7.8112 38.3848 7.8112 39.2469 5.31229 39.2469C2.8161 39.2469 2.81142 38.3878 0.323242 38.3851V40.971C0.323242 41.4471 0.709276 41.8331 1.18535 41.8331H49.461C49.9311 41.8331 50.31 41.4558 50.3196 40.9882C50.3207 39.4714 50.3219 38.3852 50.323 38.3852C50.319 38.3852 50.3157 38.385 50.3117 38.385C47.8119 38.3848 47.8119 39.2469 45.3123 39.2469Z" fill="#41479B"/>
<path d="M27.1187 13.6519C31.3108 13.4898 33.4415 11.6602 33.4415 11.6602C33.1405 11.7759 28.4389 12.1696 27.0956 12.2854C26.2472 12.3585 25.1889 13.3258 24.5224 14.0301C24.3429 13.5424 23.9921 13.0365 23.2972 12.934C21.8845 12.7256 18.1324 12.494 17.2061 12.0538C17.2061 12.0538 17.804 12.9781 20.8944 13.3972C22.3751 13.5979 23.1915 14.1058 23.5802 14.4515L23.2278 14.4393C23.2278 14.4393 23.2278 14.4393 22.6257 14.1382C22.0235 13.8371 21.4213 14.3466 21.4213 14.3466H20.4621C20.342 14.3466 20.2734 14.4838 20.3455 14.5798L20.4378 14.7028C20.5319 14.8285 20.6799 14.9024 20.8369 14.9024H21.8149C22.1624 15.5046 23.4825 16.13 24.5711 16.13C25.6595 16.13 28.9948 14.6477 29.319 14.6477L26.302 14.5445L27.1187 13.6519Z" fill="#FFE15A"/>
</g>
<defs>
<clipPath id="clip0_3462_30750">
<rect width="50" height="50" fill="white" transform="translate(0.324219 0.453125)"/>
</clipPath>
</defs>
</svg>
