<svg width="51" height="51" viewBox="0 0 51 51" fill="none" xmlns="http://www.w3.org/2000/svg">
<g clip-path="url(#clip0_3462_30740)">
<path d="M49.8897 41.8329H1.61406C1.13799 41.8329 0.751953 41.4468 0.751953 40.9707V9.93633C0.751953 9.46025 1.13799 9.07422 1.61406 9.07422H49.8898C50.3659 9.07422 50.752 9.46025 50.752 9.93633V40.9707C50.7519 41.4469 50.3658 41.8329 49.8897 41.8329Z" fill="#41479B"/>
<path d="M26.8567 20.2275C26.3584 20.1332 25.7522 19.5002 25.9677 19.15C26.1833 18.7998 25.7792 18.0185 25.2942 18.2878C24.8093 18.5573 24.486 18.8805 24.028 18.9882C23.57 19.096 23.1929 19.4462 23.543 19.7695C23.8932 20.0927 24.432 20.7393 23.9202 21.4128C23.4084 22.0864 23.57 21.6284 22.9504 21.9247C22.3307 22.221 21.8997 22.8136 22.0883 23.1639C22.2768 23.5141 22.4385 23.6489 21.8997 23.8913C21.3609 24.1336 21.1184 23.9721 20.6874 24.0798C20.2563 24.1875 19.2057 24.7264 18.8824 25.1843C18.5592 25.6423 17.8587 25.2113 17.5624 25.1574C17.2661 25.1035 16.6734 25.319 16.5387 25.6692C16.404 26.0194 16.6464 26.3427 17.1583 26.5043C17.6701 26.666 17.8856 26.6929 17.6433 27.124C17.4009 27.555 17.5624 28.3902 17.9665 28.6326C18.3706 28.875 19.1518 29.6293 19.1518 30.1412C19.1518 30.653 19.0441 31.4074 19.7984 31.5151C20.5527 31.6228 21.7111 31.9461 22.1152 32.6465C22.5193 33.3469 22.627 33.751 22.7079 34.1821C22.7887 34.6131 22.8695 34.9633 23.112 35.4483C23.3545 35.9332 23.5161 36.7683 23.2736 36.9569C23.0311 37.1454 22.8426 37.2801 23.0311 37.6438C23.2197 38.0074 23.2601 38.1421 23.6103 37.9401C23.9605 37.738 23.9605 37.9535 24.1491 37.9131C24.3377 37.8727 25.1998 37.5629 25.0381 37.1453C24.8764 36.7278 24.5262 35.7714 25.0246 35.2731C25.5229 34.7747 26.1965 34.6939 26.6275 34.3572C27.0586 34.0204 27.7724 33.9665 28.3247 33.4278C28.8769 32.889 29.4696 33.2122 29.5639 33.5894C29.6583 33.9665 29.8064 34.6939 30.2375 34.6804C30.6685 34.6669 30.7628 34.6669 30.8436 34.1416C30.9245 33.6163 31.5979 32.4445 31.8673 32.5926C32.1368 32.7408 32.3792 32.6196 32.3926 32.3906C32.4061 32.1616 32.9179 31.9595 33.1335 32.2828C33.349 32.6061 33.8204 32.862 33.807 32.4579C33.7935 32.0538 33.2413 32.1078 33.2278 31.6632C33.2143 31.2187 33.6723 30.9359 34.0764 30.7473C34.4805 30.5587 34.238 30.0738 34.3593 29.8044C34.4805 29.535 35.1406 29.1983 35.1675 28.9288C35.1945 28.6594 35.0059 28.5517 35.2887 28.4843C35.5716 28.4169 35.9218 28.2957 35.7198 27.986C35.5177 27.6762 35.5851 27.4472 35.8006 27.2991C36.0162 27.1509 36.1172 26.4477 35.8029 26.3563C35.4884 26.265 34.9206 26.5288 34.7786 26.7011C34.6366 26.8736 34.0586 26.1332 33.7846 25.9505C33.5108 25.768 31.7461 25.8795 31.7867 25.5753C31.8273 25.2711 32.5679 24.1606 32.2447 23.9855C31.9214 23.8104 31.4095 23.5544 30.992 23.4198C30.5744 23.2851 30.6687 23.743 30.4397 23.3793C30.2107 23.0157 30.1299 21.7225 29.874 21.7225C29.618 21.7225 29.4295 22.2613 29.3217 22.0592C29.214 21.8572 29.3622 20.4563 28.7695 20.4294C28.1768 20.4024 28.1633 20.7526 27.8266 20.4967C27.4898 20.241 27.5381 20.3563 26.8567 20.2275Z" fill="#FF9B55"/>
<path d="M23.1961 12.5629L22.7486 13.9047L21.3341 13.9157C21.2566 13.9164 21.2244 14.0153 21.2868 14.0613L22.4246 14.9016L21.998 16.2502C21.9746 16.3241 22.0587 16.3853 22.1219 16.3401L23.2726 15.5176L24.4234 16.3401C24.4864 16.3851 24.5706 16.3241 24.5473 16.2502L24.1206 14.9016L25.2584 14.0613C25.3208 14.0153 25.2887 13.9163 25.2112 13.9157L23.7967 13.9047L23.3491 12.5629C23.3247 12.4895 23.2206 12.4895 23.1961 12.5629Z" fill="#F5F5F5"/>
<path d="M28.1795 12.5629L27.732 13.9047L26.3175 13.9157C26.24 13.9164 26.2078 14.0153 26.2702 14.0613L27.408 14.9016L26.9814 16.2502C26.958 16.3241 27.0421 16.3853 27.1053 16.3401L28.2561 15.5176L29.4069 16.3401C29.4699 16.3851 29.5541 16.3241 29.5308 16.2502L29.1041 14.9016L30.2419 14.0613C30.3043 14.0153 30.2721 13.9163 30.1946 13.9157L28.7802 13.9047L28.3326 12.5629C28.308 12.4895 28.2039 12.4895 28.1795 12.5629Z" fill="#F5F5F5"/>
<path d="M18.2791 13.3852L17.8316 14.727L16.4171 14.7381C16.3396 14.7387 16.3074 14.8377 16.3699 14.8837L17.5076 15.7239L17.081 17.0725C17.0576 17.1465 17.1417 17.2077 17.2049 17.1625L18.3557 16.3399L19.5065 17.1625C19.5696 17.2075 19.6537 17.1465 19.6304 17.0725L19.2037 15.7239L20.3415 14.8837C20.4039 14.8377 20.3718 14.7386 20.2943 14.7381L18.8798 14.727L18.4323 13.3852C18.4077 13.3117 18.3036 13.3117 18.2791 13.3852Z" fill="#F5F5F5"/>
<path d="M13.6278 15.0746L13.1802 16.4164L11.7657 16.4274C11.6882 16.4281 11.6561 16.527 11.7185 16.573L12.8563 17.4133L12.4296 18.7619C12.4063 18.8358 12.4904 18.8971 12.5535 18.8518L13.7043 18.0293L14.8551 18.8518C14.9182 18.8969 15.0024 18.8358 14.979 18.7619L14.5524 17.4133L15.6902 16.573C15.7526 16.527 15.7204 16.428 15.6429 16.4274L14.2284 16.4164L13.7809 15.0746C13.7564 15.0012 13.6523 15.0012 13.6278 15.0746Z" fill="#F5F5F5"/>
<path d="M33.236 13.3852L33.6835 14.727L35.098 14.7381C35.1755 14.7387 35.2076 14.8377 35.1452 14.8837L34.0074 15.7239L34.4341 17.0725C34.4574 17.1465 34.3734 17.2077 34.3102 17.1625L33.1594 16.3399L32.0086 17.1625C31.9455 17.2075 31.8614 17.1465 31.8847 17.0725L32.3113 15.7239L31.1736 14.8837C31.1112 14.8377 31.1433 14.7386 31.2208 14.7381L32.6352 14.727L33.0827 13.3852C33.1073 13.3117 33.2114 13.3117 33.236 13.3852Z" fill="#F5F5F5"/>
<path d="M37.8873 15.0746L38.3349 16.4164L39.7493 16.4274C39.8268 16.4281 39.859 16.527 39.7966 16.573L38.6588 17.4133L39.0854 18.7619C39.1088 18.8358 39.0247 18.8971 38.9615 18.8518L37.8107 18.0293L36.66 18.8518C36.5969 18.8969 36.5127 18.8358 36.536 18.7619L36.9627 17.4133L35.8249 16.573C35.7625 16.527 35.7947 16.428 35.8722 16.4274L37.2866 16.4164L37.7342 15.0746C37.7587 15.0012 37.8628 15.0012 37.8873 15.0746Z" fill="#F5F5F5"/>
</g>
<defs>
<clipPath id="clip0_3462_30740">
<rect width="50" height="50" fill="white" transform="translate(0.751953 0.453125)"/>
</clipPath>
</defs>
</svg>
