<svg width="51" height="51" viewBox="0 0 51 51" fill="none" xmlns="http://www.w3.org/2000/svg">
<g clip-path="url(#clip0_3462_30735)">
<path d="M50.1786 19.9938H0.178711V9.93633C0.178711 9.46025 0.564745 9.07422 1.04082 9.07422H49.3166C49.7927 9.07422 50.1787 9.46025 50.1787 9.93633L50.1786 19.9938Z" fill="#73AF00"/>
<path d="M49.3165 41.8316H1.04082C0.564745 41.8316 0.178711 41.4456 0.178711 40.9695V30.9121H50.1786V40.9695C50.1786 41.4457 49.7926 41.8316 49.3165 41.8316Z" fill="#FF4B55"/>
<path d="M50.1786 19.9941H0.178711V30.9131H50.1786V19.9941Z" fill="#F5F5F5"/>
<path d="M0.496679 41.6249L13.9718 30.9285L13.9715 19.9793L0.496679 9.2832C0.306738 9.44131 0.178711 9.67041 0.178711 9.93681V40.9712C0.178711 41.2377 0.306738 41.4668 0.496679 41.6249Z" fill="#464655"/>
</g>
<defs>
<clipPath id="clip0_3462_30735">
<rect width="50" height="50" fill="white" transform="translate(0.179688 0.453125)"/>
</clipPath>
</defs>
</svg>
