<svg width="51" height="51" viewBox="0 0 51 51" fill="none" xmlns="http://www.w3.org/2000/svg">
<g clip-path="url(#clip0_3462_30715)">
<path d="M49.7472 41.8329H1.47148C0.995409 41.8329 0.609375 41.4468 0.609375 40.9707V9.93633C0.609375 9.46025 0.995409 9.07422 1.47148 9.07422H49.7473C50.2233 9.07422 50.6094 9.46025 50.6094 9.93633V40.9707C50.6093 41.4469 50.2232 41.8329 49.7472 41.8329Z" fill="#FF4B55"/>
<path d="M34.7282 28.0238C34.7282 28.0238 33.0108 27.7375 31.7386 26.6825C31.3634 26.3713 30.8187 26.1335 30.2883 25.9577C30.7147 25.9387 31.1671 25.9507 31.5945 26.0371C33.3652 26.3951 35.0821 25.5356 35.0821 25.5356C35.0821 25.5356 33.3498 25.7104 31.8453 25.0265C31.4384 24.8416 30.9106 24.7545 30.3955 24.7178C30.766 24.6112 31.1592 24.5278 31.5473 24.5063C33.3511 24.4063 34.7959 23.1418 34.7959 23.1418C34.7959 23.1418 33.1636 23.7476 31.5353 23.4651C31.0611 23.3828 30.479 23.4444 29.9373 23.5533C30.2936 23.3295 30.686 23.1203 31.0931 22.9856C32.8082 22.4181 33.8726 20.8202 33.8726 20.8202C33.8726 20.8202 32.4551 21.8312 30.8095 21.9837C30.3209 22.0289 29.7643 22.2483 29.2621 22.501C29.5518 22.1833 29.8826 21.8688 30.2488 21.6259C31.754 20.6269 32.3603 18.8052 32.3603 18.8052C32.3603 18.8052 31.2591 20.1537 29.7115 20.734C29.2896 20.8922 28.8524 21.209 28.4597 21.5504C28.6474 21.2092 28.868 20.8679 29.1302 20.5747C30.3342 19.2279 30.4604 17.3121 30.4604 17.3121C30.4604 17.3121 29.7355 18.8951 28.3849 19.8475C27.9912 20.1253 27.6232 20.5811 27.3172 21.0419C27.4107 20.6311 27.5399 20.2052 27.7326 19.8213C28.543 18.2067 28.1646 16.3244 28.1646 16.3244C28.1646 16.3244 27.8783 18.0418 26.8233 19.314C26.5121 19.6892 26.2743 20.2339 26.0985 20.7645C26.0796 20.3381 26.0915 19.8857 26.1779 19.4583C26.5359 17.6876 25.6765 15.9707 25.6765 15.9707C25.6765 15.9707 25.8513 17.703 25.1673 19.2075C24.9823 19.6144 24.8952 20.1422 24.8585 20.6573C24.7519 20.2868 24.6685 19.8936 24.6471 19.5055C24.5471 17.7017 23.2825 16.2569 23.2825 16.2569C23.2825 16.2569 23.8884 17.8892 23.6058 19.5175C23.5235 19.9917 23.5851 20.5738 23.694 21.1156C23.4702 20.7593 23.261 20.3669 23.1264 19.9597C22.5589 18.2446 20.9609 17.1802 20.9609 17.1802C20.9609 17.1802 21.972 18.5976 22.1244 20.2433C22.1696 20.7319 22.3891 21.2887 22.6418 21.7908C22.3241 21.5011 22.0097 21.1703 21.7666 20.804C20.7677 19.2988 18.9459 18.6926 18.9459 18.6926C18.9459 18.6926 20.2944 19.7938 20.8747 21.3414C21.0329 21.7633 21.3497 22.2006 21.6911 22.5931C21.3499 22.4055 21.0086 22.1848 20.7154 21.9227C19.3686 20.7187 17.4528 20.5925 17.4528 20.5925C17.4528 20.5925 19.0358 21.3174 19.9883 22.6681C20.2658 23.0617 20.7218 23.4298 21.1823 23.7358C20.7717 23.6423 20.3457 23.5131 19.9619 23.3204C18.3474 22.5099 16.465 22.8884 16.465 22.8884C16.465 22.8884 18.1824 23.1747 19.4546 24.2297C19.8299 24.5409 20.3745 24.7787 20.9052 24.9545C20.4787 24.9734 20.0264 24.9615 19.5989 24.8751C17.8282 24.5171 16.1113 25.3765 16.1113 25.3765C16.1113 25.3765 17.8436 25.2017 19.3481 25.8857C19.7551 26.0707 20.2828 26.1578 20.7979 26.1945C20.4274 26.3011 20.0343 26.3844 19.6461 26.4059C17.8423 26.5059 16.3976 27.7705 16.3976 27.7705C16.3976 27.7705 18.0298 27.1646 19.6581 27.4471C20.1323 27.5295 20.7144 27.4678 21.2562 27.359C20.8999 27.5828 20.5075 27.792 20.1003 27.9266C18.3853 28.4941 17.3208 30.0921 17.3208 30.0921C17.3208 30.0921 18.7383 29.081 20.3839 28.9286C20.8726 28.8834 21.4293 28.6639 21.9314 28.4112C21.6417 28.7289 21.3109 29.0433 20.9446 29.2864C19.4394 30.2853 18.8331 32.1071 18.8331 32.1071C18.8331 32.1071 19.9344 30.7586 21.4819 30.1783C21.9037 30.0201 22.341 29.7033 22.7336 29.3619C22.546 29.703 22.3253 30.0444 22.0634 30.3375C20.8594 31.6842 20.7331 33.6001 20.7331 33.6001C20.7331 33.6001 21.458 32.0171 22.8087 31.0646C23.2024 30.7869 23.5704 30.331 23.8765 29.8705C23.7829 30.2812 23.6537 30.7071 23.461 31.091C22.6506 32.7055 23.029 34.5879 23.029 34.5879C23.029 34.5879 23.3153 32.8705 24.3703 31.5983C24.6815 31.223 24.9193 30.6784 25.0951 30.1477C25.114 30.5744 25.1021 31.0266 25.0157 31.4541C24.6577 33.2248 25.5172 34.9416 25.5172 34.9416C25.5172 34.9416 25.3424 33.2093 26.0264 31.7048C26.2113 31.2979 26.2984 30.7701 26.3351 30.255C26.4417 30.6256 26.5251 31.0187 26.5466 31.4069C26.6466 33.2107 27.9111 34.6554 27.9111 34.6554C27.9111 34.6554 27.3053 33.0231 27.5878 31.3949C27.6701 30.9207 27.6085 30.3385 27.4996 29.7968C27.7234 30.1532 27.9326 30.5455 28.0673 30.9527C28.6347 32.6677 30.2327 33.7322 30.2327 33.7322C30.2327 33.7322 29.2217 32.3147 29.0692 30.669C29.024 30.1803 28.8046 29.6236 28.5518 29.1215C28.8695 29.4112 29.184 29.742 29.427 30.1083C30.426 31.6134 32.2477 32.2198 32.2477 32.2198C32.2477 32.2198 30.8992 31.1185 30.3189 29.571C30.1607 29.1492 29.8439 28.7119 29.5025 28.3193C29.8436 28.5069 30.1849 28.7276 30.4781 28.9895C31.8249 30.1935 33.7407 30.3198 33.7407 30.3198C33.7407 30.3198 32.1577 29.5949 31.2052 28.2442C30.9275 27.8505 30.4717 27.4824 30.0109 27.1764C30.4217 27.27 30.8475 27.3992 31.2314 27.5919C32.8459 28.4022 34.7282 28.0238 34.7282 28.0238ZM25.6077 29.8301C23.1904 29.8301 21.2309 27.8706 21.2309 25.4533C21.2309 23.036 23.1904 21.0765 25.6077 21.0765C28.025 21.0765 29.9845 23.036 29.9845 25.4533C29.9845 27.8706 28.025 29.8301 25.6077 29.8301Z" fill="#FFE15A"/>
<path d="M24.2209 23.6813C24.3143 23.6085 24.4071 23.5353 24.5015 23.4703C23.8813 23.1883 23.3231 23.0528 22.9315 22.9922C22.8692 23.06 22.813 23.1327 22.7559 23.205C23.1404 23.2797 23.6571 23.4223 24.2209 23.6813Z" fill="#FFE15A"/>
<path d="M23.1201 22.8C23.5409 22.8476 24.1501 22.9729 24.826 23.2636C24.9393 23.196 25.052 23.1362 25.1648 23.0785C24.4351 22.7789 23.7763 22.6673 23.3229 22.6328C23.2547 22.6881 23.184 22.74 23.1201 22.8Z" fill="#FFE15A"/>
<path d="M25.3103 24.8279C25.223 24.7455 25.1347 24.6675 25.0455 24.5938C24.2261 25.3736 23.5092 26.511 23.1855 28.1613C23.3032 28.2666 23.42 28.373 23.5506 28.4626C23.7884 26.7842 24.4854 25.6257 25.3103 24.8279Z" fill="#FFE15A"/>
<path d="M24.9933 24.104C25.0861 24.0293 25.1789 23.9543 25.273 23.8875C25.1584 23.8144 25.0441 23.7501 24.9303 23.6875C24.8327 23.7543 24.7351 23.8189 24.6387 23.894C24.7566 23.959 24.8746 24.0281 24.9933 24.104Z" fill="#FFE15A"/>
<path d="M27.2578 23.8915C27.9604 24.5086 28.6025 25.3775 29.0595 26.5822C29.1768 26.2245 29.2561 25.8495 29.2561 25.4526C29.2561 24.6991 29.027 23.9992 28.6355 23.418C28.2732 23.49 27.7868 23.6309 27.2578 23.8915Z" fill="#FFE15A"/>
<path d="M25.3369 24.3373C25.4284 24.4053 25.5181 24.482 25.6081 24.5575C25.698 24.4819 25.7877 24.4053 25.8793 24.3373C25.7893 24.2623 25.6994 24.1885 25.6081 24.1211C25.5168 24.1886 25.4271 24.2623 25.3369 24.3373Z" fill="#FFE15A"/>
<path d="M25.6081 23.2812C25.4936 23.3394 25.3789 23.4049 25.2637 23.473C25.3783 23.5333 25.4928 23.5979 25.6081 23.6687C25.7234 23.598 25.838 23.5334 25.9525 23.473C25.8373 23.4048 25.7227 23.3394 25.6081 23.2812Z" fill="#FFE15A"/>
<path d="M22.7888 27.7411C23.1746 26.1654 23.9019 25.0859 24.7159 24.3434C24.6021 24.263 24.4888 24.1893 24.3751 24.1211C23.5918 24.8099 22.883 25.8052 22.4463 27.2392C22.547 27.4171 22.6607 27.5836 22.7888 27.7411Z" fill="#FFE15A"/>
<path d="M23.9593 23.8916C23.4303 23.6309 22.9438 23.4902 22.5814 23.418C22.1899 23.9992 21.9609 24.6991 21.9609 25.4526C21.9609 25.8495 22.0402 26.2245 22.1575 26.5822C22.6145 25.3775 23.2566 24.5087 23.9593 23.8916Z" fill="#FFE15A"/>
<path d="M25.6083 22.8732C26.3843 22.5526 27.1001 22.4388 27.6092 22.4087C27.0343 22.0302 26.348 21.8066 25.6083 21.8066C24.8686 21.8066 24.1823 22.0303 23.6074 22.4087C24.1165 22.4388 24.8323 22.5525 25.6083 22.8732Z" fill="#FFE15A"/>
<path d="M25.6086 25.1367C24.8812 25.9429 24.2808 27.1003 24.0859 28.7579C24.5506 28.9726 25.0632 29.1005 25.6086 29.1005C26.1541 29.1005 26.6666 28.9726 27.1312 28.7579C26.9364 27.1004 26.336 25.9429 25.6086 25.1367Z" fill="#FFE15A"/>
<path d="M26.8418 24.1211C26.7282 24.1895 26.6148 24.263 26.501 24.3434C27.3148 25.0858 28.0423 26.1654 28.4281 27.7411C28.5562 27.5835 28.6699 27.4171 28.7706 27.2392C28.334 25.8053 27.6251 24.8099 26.8418 24.1211Z" fill="#FFE15A"/>
<path d="M28.031 28.1613C27.7074 26.511 26.9905 25.3737 26.1711 24.5938C26.0818 24.6675 25.9936 24.7455 25.9062 24.8279C26.7312 25.6257 27.4282 26.7842 27.6659 28.4625C27.7966 28.373 27.9134 28.2666 28.031 28.1613Z" fill="#FFE15A"/>
<path d="M26.0527 23.0786C26.1656 23.1363 26.2784 23.1962 26.3916 23.2637C27.0675 22.9729 27.6767 22.8477 28.0975 22.8001C28.0336 22.7401 27.9629 22.6882 27.8947 22.6328C27.4413 22.6675 26.7825 22.7791 26.0527 23.0786Z" fill="#FFE15A"/>
<path d="M26.2241 24.104C26.3428 24.0281 26.4607 23.9591 26.5787 23.894C26.4824 23.8189 26.3847 23.7543 26.2871 23.6875C26.1732 23.7502 26.0591 23.8144 25.9443 23.8875C26.0384 23.9543 26.1312 24.0294 26.2241 24.104Z" fill="#FFE15A"/>
<path d="M26.9956 23.6812C27.5594 23.4222 28.0761 23.2796 28.4604 23.205C28.4033 23.1327 28.3472 23.0599 28.2848 22.9922C27.8932 23.0528 27.335 23.1882 26.7148 23.4703C26.8094 23.5352 26.9023 23.6084 26.9956 23.6812Z" fill="#FFE15A"/>
</g>
<defs>
<clipPath id="clip0_3462_30715">
<rect width="50" height="50" fill="white" transform="translate(0.609375 0.453125)"/>
</clipPath>
</defs>
</svg>
