<svg width="51" height="51" viewBox="0 0 51 51" fill="none" xmlns="http://www.w3.org/2000/svg">
<g clip-path="url(#clip0_3462_30709)">
<path d="M50.038 15.9709H0.0380859V9.93633C0.0380859 9.46025 0.42412 9.07422 0.900194 9.07422H49.176C49.6521 9.07422 50.0381 9.46025 50.0381 9.93633L50.038 15.9709Z" fill="#FF4B55"/>
<path d="M49.1759 41.8321H0.900194C0.42412 41.8321 0.0380859 41.4461 0.0380859 40.97V34.9355H50.038V40.97C50.038 41.4462 49.652 41.8321 49.1759 41.8321Z" fill="#FF4B55"/>
<path d="M50.039 15.9707H0.0390625V34.9365H50.039V15.9707Z" fill="#41479B"/>
<path d="M25.0381 32.3496C28.8469 32.3496 31.9345 29.2619 31.9345 25.4531C31.9345 21.6443 28.8469 18.5566 25.0381 18.5566C21.2293 18.5566 18.1416 21.6443 18.1416 25.4531C18.1416 29.2619 21.2293 32.3496 25.0381 32.3496Z" fill="#F5F5F5"/>
</g>
<defs>
<clipPath id="clip0_3462_30709">
<rect width="50" height="50" fill="white" transform="translate(0.0390625 0.453125)"/>
</clipPath>
</defs>
</svg>
