<svg width="51" height="51" viewBox="0 0 51 51" fill="none" xmlns="http://www.w3.org/2000/svg">
<g clip-path="url(#clip0_3462_30700)">
<path d="M50.8974 15.9709H0.897461V9.93633C0.897461 9.46025 1.2835 9.07422 1.75957 9.07422H50.0354C50.5114 9.07422 50.8975 9.46025 50.8975 9.93633L50.8974 15.9709Z" fill="#FF4B55"/>
<path d="M50.0353 41.8321H1.75957C1.2835 41.8321 0.897461 41.4461 0.897461 40.97V34.9355H50.8974V40.97C50.8974 41.4462 50.5113 41.8321 50.0353 41.8321Z" fill="#FF4B55"/>
<path d="M50.8983 15.9707H0.898438V34.9365H50.8983V15.9707Z" fill="#F5F5F5"/>
<path d="M27.7399 31.2514L35.7067 29.658C36.2817 29.543 36.5384 28.8663 36.1843 28.3988C36.06 28.2346 35.8768 28.1252 35.6733 28.0934L27.1859 26.7701C26.9513 26.7335 26.7851 26.5132 26.8245 26.2697C26.8627 26.034 27.1017 25.8837 27.3384 25.9149L33.2231 26.6892C33.7014 26.7521 33.9947 26.1806 33.6648 25.8287L33.1923 25.3248C33.0154 25.1361 32.7836 25.0081 32.5297 24.959L27.6138 24.0069L31.8053 24.3089C32.1266 24.332 32.3127 23.9522 32.0976 23.7124L31.8826 23.4728C31.7527 23.3281 31.5801 23.2285 31.3897 23.1888L27.2282 22.3191L30.1857 22.2336C30.4472 22.2261 30.5802 21.9159 30.4054 21.7213L30.2728 21.5735C30.1689 21.4578 30.0345 21.3736 29.8851 21.3308L27.2474 20.5734H29.3202C29.5253 20.5734 29.6632 20.3633 29.5817 20.1752L29.5117 20.0139C29.4279 19.8203 29.2661 19.6712 29.0665 19.6033L27.1496 18.9512L28.0924 18.9481C28.3726 18.9473 28.5605 18.66 28.449 18.403C28.3593 18.1959 28.2009 18.0261 28.0005 17.9222L25.8979 16.832L23.795 17.9224C23.5947 18.0263 23.4362 18.1961 23.3464 18.4032C23.235 18.6603 23.4229 18.9476 23.7031 18.9483L24.6458 18.9515L22.7289 19.6036C22.5292 19.6715 22.3675 19.8206 22.2837 20.0142L22.2138 20.1755C22.1323 20.3637 22.2702 20.5737 22.4752 20.5737H24.5481L21.9104 21.331C21.761 21.3739 21.6266 21.4581 21.5227 21.5738L21.3901 21.7216C21.2154 21.9163 21.3484 22.2264 21.6098 22.2339L24.5672 22.3194L20.4058 23.1891C20.2154 23.2288 20.0426 23.3284 19.9128 23.4731L19.6979 23.7127C19.4827 23.9524 19.6688 24.3323 19.9902 24.3092L24.1817 24.0072L19.2658 24.9593C19.0119 25.0084 18.78 25.1364 18.6032 25.3251L18.1307 25.829C17.8007 26.1809 18.0942 26.7525 18.5724 26.6895L24.4571 25.9152C24.6938 25.8841 24.9328 26.0343 24.9709 26.27C25.0104 26.5137 24.8442 26.7339 24.6096 26.7704L16.1222 28.0937C15.9188 28.1254 15.7356 28.2349 15.6112 28.399C15.2571 28.8664 15.5137 29.5431 16.0887 29.6582L24.0556 31.2516V32.246C24.0556 32.7887 23.84 33.3093 23.4562 33.6931L22.2139 34.9356H25.8979H29.582L28.3394 33.693C27.9556 33.3092 27.74 32.7886 27.74 32.2459V31.2514H27.7399Z" fill="#73AF00"/>
</g>
<defs>
<clipPath id="clip0_3462_30700">
<rect width="50" height="50" fill="white" transform="translate(0.898438 0.453125)"/>
</clipPath>
</defs>
</svg>
