<svg width="51" height="51" viewBox="0 0 51 51" fill="none" xmlns="http://www.w3.org/2000/svg">
<g clip-path="url(#clip0_3462_30695)">
<path d="M0.192383 31.0469H50.1923V41.1043C50.1923 41.5804 49.8063 41.9664 49.3302 41.9664H1.05449C0.578417 41.9664 0.192383 41.5804 0.192383 41.1043V31.0469Z" fill="#73AF00"/>
<path d="M1.05449 9.20898H49.3303C49.8064 9.20898 50.1924 9.59502 50.1924 10.0711V20.1285H0.192383V10.071C0.192383 9.59492 0.578417 9.20898 1.05449 9.20898Z" fill="#41479B"/>
<path d="M50.1923 20.127H0.192383V31.0459H50.1923V20.127Z" fill="#F5F5F5"/>
<path d="M28.1686 27.5322L27.9682 27.6343C27.941 27.6481 27.9116 27.6601 27.8838 27.6736L26.1136 25.4375C26.4774 24.6466 26.6931 23.5671 26.6931 23.0764C26.6931 22.27 26.164 21.5982 25.4678 21.4562C25.4212 21.351 25.3163 21.2773 25.1938 21.2773C25.0714 21.2773 24.9665 21.351 24.9199 21.4562C24.2238 21.5982 23.6946 22.2701 23.6946 23.0764C23.6946 23.5671 23.9103 24.6465 24.2741 25.4375L22.504 27.6736C22.4765 27.6602 22.4471 27.6483 22.4199 27.6345L22.2195 27.5324L21.4717 29.0025L21.6721 29.1045C22.6927 29.6236 23.9104 29.898 25.1938 29.898C26.4773 29.898 27.6955 29.6234 28.7163 29.1044L28.9167 29.0024L28.1686 27.5322ZM26.3932 23.0764C26.3932 23.4411 26.2577 24.2078 26.0067 24.9106C25.9736 25.0032 25.9397 25.091 25.905 25.1742L25.6435 24.8439V23.6761H26.0934L25.4936 23.0764V21.7714C26.01 21.9218 26.3932 22.4489 26.3932 23.0764ZM24.3809 24.9105C24.1299 24.2077 23.9944 23.441 23.9944 23.0763C23.9944 22.4489 24.3775 21.9218 24.894 21.7713V23.0763L24.2943 23.676H24.7441V24.8438L24.4827 25.1741C24.4478 25.091 24.414 25.0031 24.3809 24.9105ZM22.3645 28.239L22.4257 28.4909L22.2059 28.5509L22.3645 28.239ZM22.1028 28.8122L22.4789 28.7097L22.5479 28.9938C22.3963 28.9378 22.2472 28.8783 22.1028 28.8122ZM22.673 28.2393C22.8441 28.307 23.0222 28.3667 23.2052 28.4199L23.2593 28.5857L22.7857 28.7025L22.673 28.2393ZM22.8844 29.1085L22.8388 28.9211L23.3292 28.8001L23.4812 29.266C23.2778 29.2218 23.0788 29.1689 22.8844 29.1085ZM23.55 28.5101C23.7382 28.554 23.9298 28.5918 24.1254 28.6204L24.2068 28.7661L23.6863 28.9283L23.55 28.5101ZM23.8178 29.3309L23.7561 29.1422L24.3189 28.9668L24.574 29.4229C24.3175 29.4038 24.0651 29.3733 23.8178 29.3309ZM24.4938 28.6646C24.7249 28.6865 24.9586 28.6986 25.1937 28.6986C25.2438 28.6986 25.2936 28.6959 25.3436 28.6948L25.4062 28.7908L24.7144 29.0592L24.4938 28.6646ZM25.1937 29.4482C25.1046 29.4482 25.0166 29.4444 24.9282 29.4417L24.8252 29.2574L25.5317 28.9834L25.8182 29.4225C25.6122 29.4378 25.4045 29.4482 25.1937 29.4482ZM25.6916 28.6797C25.9293 28.6638 26.1642 28.6367 26.3946 28.5985L26.4621 28.6847L25.9144 29.0213L25.6916 28.6797ZM26.1553 29.3906L26.0373 29.2096L26.6016 28.863L26.9152 29.264C26.6676 29.3184 26.4139 29.3604 26.1553 29.3906ZM26.7262 28.5357C26.9223 28.4934 27.1142 28.4438 27.3002 28.3857L27.37 28.4762L26.9719 28.8499L26.7262 28.5357ZM27.2359 29.1874L27.1109 29.0276L27.5081 28.6549L27.7849 29.0134C27.6059 29.0778 27.4236 29.1372 27.2359 29.1874ZM27.5998 28.2831C27.7261 28.2362 27.8502 28.1869 27.9695 28.1327L28.0281 28.248L27.8365 28.5898L27.5998 28.2831ZM28.0769 28.901L27.986 28.7832L28.1509 28.4891L28.3099 28.8016C28.2338 28.8368 28.1551 28.8685 28.0769 28.901Z" fill="#464655"/>
</g>
<defs>
<clipPath id="clip0_3462_30695">
<rect width="50" height="50" fill="white" transform="translate(0.191406 0.587891)"/>
</clipPath>
</defs>
</svg>
