<svg width="51" height="51" viewBox="0 0 51 51" fill="none" xmlns="http://www.w3.org/2000/svg">
<g clip-path="url(#clip0_3462_30681)">
<path d="M50.6044 12.4801H0.604492V10.3641C0.604492 9.88799 0.990527 9.50195 1.4666 9.50195H49.7424C50.2185 9.50195 50.6045 9.88799 50.6045 10.3641L50.6044 12.4801Z" fill="#FF4B55"/>
<path d="M50.6044 12.4805H0.604492V15.4585H50.6044V12.4805Z" fill="#F5F5F5"/>
<path d="M50.6044 15.457H0.604492V18.4351H50.6044V15.457Z" fill="#FF4B55"/>
<path d="M50.6044 18.4355H0.604492V21.4136H50.6044V18.4355Z" fill="#F5F5F5"/>
<path d="M50.6044 24.3921H1.4666C0.990527 24.3921 0.604492 24.006 0.604492 23.53V21.4141H50.6044V24.3921Z" fill="#FF4B55"/>
<path d="M50.6044 27.3701H0.604492V23.2949H1.4664L1.4666 24.3922H50.6044V27.3701Z" fill="#F5F5F5"/>
<path d="M50.6044 27.3711H0.604492V30.3491H50.6044V27.3711Z" fill="#FF4B55"/>
<path d="M50.6044 30.3477H0.604492V33.3257H50.6044V30.3477Z" fill="#F5F5F5"/>
<path d="M50.6044 33.3262H0.604492V36.3042H50.6044V33.3262Z" fill="#FF4B55"/>
<path d="M50.6044 36.3047H0.604492V39.2827H50.6044V36.3047Z" fill="#F5F5F5"/>
<path d="M49.7423 42.2612H1.4666C0.990527 42.2612 0.604492 41.8752 0.604492 41.3991V39.2832H50.6044V41.3991C50.6044 41.8753 50.2184 42.2612 49.7423 42.2612Z" fill="#FF4B55"/>
<path d="M14.3975 24.3924H1.4666C0.990527 24.3924 0.604492 24.0063 0.604492 23.5302V10.3641C0.604492 9.88799 0.990527 9.50195 1.4666 9.50195H14.3976C14.8737 9.50195 15.2597 9.88799 15.2597 10.3641V23.5302C15.2596 24.0063 14.8736 24.3924 14.3975 24.3924Z" fill="#41479B"/>
<path d="M7.68545 13.3553L6.8624 15.823L4.26104 15.8432C4.01163 15.8451 3.90811 16.1634 4.1088 16.3116L6.20147 17.857L5.4168 20.3373C5.34161 20.5751 5.61241 20.7719 5.81533 20.6268L7.93193 19.1141L10.0483 20.6268C10.2513 20.7719 10.5221 20.5751 10.4469 20.3373L9.6622 17.857L11.7549 16.3116C11.9556 16.1635 11.852 15.845 11.6026 15.8432L9.00127 15.823L8.17822 13.3553C8.09912 13.1186 7.76445 13.1186 7.68545 13.3553Z" fill="#F5F5F5"/>
</g>
<defs>
<clipPath id="clip0_3462_30681">
<rect width="50" height="50" fill="white" transform="translate(0.603516 0.880859)"/>
</clipPath>
</defs>
</svg>
