<svg width="51" height="51" viewBox="0 0 51 51" fill="none" xmlns="http://www.w3.org/2000/svg">
<g clip-path="url(#clip0_3462_30674)">
<path d="M0.03125 33.6387H50.0312V41.3972C50.0312 41.8733 49.6451 42.2594 49.169 42.2594H0.893358C0.417284 42.2594 0.03125 41.8733 0.03125 41.3972V33.6387Z" fill="#73AF00"/>
<path d="M0.893358 9.50195H49.1691C49.6452 9.50195 50.0312 9.88799 50.0312 10.3641V18.1226H0.03125V10.364C0.03125 9.88789 0.417284 9.50195 0.893358 9.50195Z" fill="#FF4B55"/>
<path d="M50.0312 18.123H0.03125V33.6406H50.0312V18.123Z" fill="#464655"/>
<path d="M29.9204 23.0921L31.2179 24.7892L33.2438 24.1111C33.357 24.0732 33.4533 24.2013 33.3856 24.2996L32.1723 26.058L33.4432 27.775C33.5142 27.871 33.4222 28.0023 33.3077 27.9681L31.2606 27.3577L30.0202 29.097C29.9508 29.1943 29.7976 29.1472 29.7946 29.0279L29.7426 26.8922L27.7051 26.2501C27.5912 26.2143 27.5885 26.0541 27.7012 26.0143L29.7162 25.3049L29.6974 23.1687C29.6963 23.0492 29.8479 22.9971 29.9204 23.0921Z" fill="#F5F5F5"/>
<path d="M26.3989 30.071C24.0872 30.071 22.2118 28.1957 22.2118 25.8817C22.2118 23.5721 24.0871 21.6926 26.3989 21.6926C27.2591 21.6926 28.0522 21.9571 28.7133 22.4049C28.8144 22.4734 28.9301 22.3404 28.8453 22.2523C27.8574 21.2253 26.4592 20.5986 24.9089 20.6515C22.2454 20.7424 20.0405 22.8778 19.8704 25.5374C19.6755 28.5837 22.0875 31.1153 25.0906 31.1153C26.5699 31.1153 27.8994 30.4968 28.8489 29.508C28.9327 29.4206 28.817 29.2896 28.7167 29.3576C28.055 29.806 27.2605 30.071 26.3989 30.071Z" fill="#F5F5F5"/>
</g>
<defs>
<clipPath id="clip0_3462_30674">
<rect width="50" height="50" fill="white" transform="translate(0.03125 0.880859)"/>
</clipPath>
</defs>
</svg>
