<svg width="51" height="51" viewBox="0 0 51 51" fill="none" xmlns="http://www.w3.org/2000/svg">
<g clip-path="url(#clip0_3462_30663)">
<path d="M50.3231 25.8813H0.323242V10.3641C0.323242 9.88799 0.709277 9.50195 1.18535 9.50195H49.4611C49.9372 9.50195 50.3232 9.88799 50.3232 10.3641L50.3231 25.8813Z" fill="#41479B"/>
<path d="M0.323242 25.8809H50.3231V41.3981C50.3231 41.8742 49.9371 42.2602 49.461 42.2602H1.18535C0.709277 42.2602 0.323242 41.8742 0.323242 41.3981V25.8809Z" fill="#FF4B55"/>
<path d="M16.342 19.3067C16.3307 19.2736 16.3054 19.2467 16.2728 19.2336C16.2695 19.2323 16.2018 19.2065 16.0932 19.176C16.141 19.1113 16.1747 19.0355 16.1747 18.9492C16.1747 18.8752 16.1484 18.8099 16.1124 18.7509C16.2317 18.6842 16.3158 18.5614 16.3158 18.4154C16.3158 18.2997 16.2627 18.1985 16.1822 18.1271C16.2787 18.0562 16.3455 17.9474 16.3455 17.8188C16.3455 17.6754 16.2638 17.555 16.1479 17.4874C16.2088 17.4186 16.2488 17.3308 16.2488 17.2319C16.2488 17.06 16.1348 16.9183 15.9798 16.8669C16.0151 16.8083 16.041 16.7434 16.041 16.67C16.041 16.4587 15.8712 16.2879 15.6609 16.2825C15.6696 16.2501 15.6809 16.2185 15.6809 16.1834C15.6809 15.9686 15.5062 15.7939 15.2914 15.7939C15.2552 15.7939 15.2225 15.8054 15.1892 15.8146C15.1898 15.806 15.1942 15.7987 15.1942 15.7898C15.1942 15.5751 15.0195 15.4004 14.8048 15.4004C14.7309 15.4004 14.6659 15.4265 14.6069 15.4622C14.5615 15.2976 14.4168 15.1737 14.238 15.1737C14.1306 15.1737 14.0334 15.2174 13.9629 15.2879C13.897 15.1662 13.7724 15.0804 13.6246 15.0804C13.4896 15.0804 13.3764 15.1535 13.3065 15.2579C13.2354 15.1823 13.1363 15.1338 13.0246 15.1338C12.8805 15.1338 12.7594 15.2161 12.6921 15.3327C12.6208 15.2528 12.5199 15.2003 12.4046 15.2003C12.262 15.2003 12.1425 15.281 12.0746 15.3954C12.0083 15.3433 11.9285 15.3071 11.8379 15.3071C11.6742 15.3071 11.535 15.4093 11.4775 15.5527C11.4074 15.485 11.3128 15.4422 11.2077 15.4422C11.0592 15.4422 10.9341 15.5287 10.8684 15.6513C10.8397 15.6335 10.8104 15.6194 10.7775 15.6096C10.8597 15.4883 10.9076 15.342 10.9076 15.1848C10.9076 14.8796 10.7258 14.6177 10.4657 14.4967L10.5749 14.2782C10.5918 14.2445 10.5918 14.2045 10.5749 14.1707L10.4434 13.9078C10.453 13.8991 10.4621 13.89 10.4708 13.8805L10.734 14.0119C10.7509 14.0203 10.7691 14.0244 10.7875 14.0244C10.8058 14.0244 10.8242 14.02 10.841 14.0116L11.481 13.6916C11.5219 13.6712 11.5474 13.6298 11.5474 13.5844C11.5474 13.539 11.5218 13.4976 11.481 13.4771L10.841 13.1571C10.8073 13.1402 10.7675 13.1402 10.7338 13.1571L10.4709 13.2886C10.4621 13.2789 10.4529 13.2697 10.4433 13.2608L10.5748 12.9979C10.5917 12.9643 10.5917 12.9242 10.5748 12.8904L10.2548 12.2504C10.2141 12.1691 10.0807 12.1691 10.04 12.2504L9.72001 12.8904C9.70311 12.9241 9.70311 12.9643 9.72001 12.9979L9.85145 13.2608C9.84188 13.2695 9.8328 13.2786 9.82411 13.2882L9.56093 13.1567C9.52723 13.1398 9.48739 13.1401 9.4537 13.157L8.81366 13.477C8.77284 13.4975 8.74726 13.5389 8.74726 13.5843C8.74726 13.6297 8.77294 13.6711 8.81366 13.6915L9.4537 14.0115C9.47059 14.0199 9.48886 14.0243 9.50722 14.0243C9.52567 14.0243 9.54393 14.0199 9.56073 14.0115L9.82362 13.8801C9.83241 13.8897 9.84159 13.8989 9.85116 13.9078L9.71972 14.1707C9.70282 14.2044 9.70282 14.2445 9.71972 14.2782L9.82889 14.4967C9.56884 14.6176 9.387 14.8796 9.387 15.1848C9.387 15.3388 9.43378 15.4817 9.51278 15.6016C9.46522 15.6106 9.42216 15.6266 9.38231 15.6514C9.31669 15.5288 9.19159 15.4423 9.04306 15.4423C8.93808 15.4423 8.84335 15.485 8.77323 15.5528C8.71581 15.4094 8.57665 15.3072 8.41288 15.3072C8.32216 15.3072 8.24228 15.3434 8.17616 15.3955C8.10829 15.281 7.98866 15.2004 7.84618 15.2004C7.73085 15.2004 7.62997 15.2529 7.55868 15.3328C7.4913 15.2161 7.37031 15.1339 7.22617 15.1339C7.11454 15.1339 7.01533 15.1825 6.94423 15.258C6.87431 15.1536 6.76103 15.0805 6.62617 15.0805C6.47832 15.0805 6.3539 15.1663 6.28789 15.288C6.21738 15.2175 6.12011 15.1738 6.01279 15.1738C5.83388 15.1738 5.68916 15.2977 5.64384 15.4623C5.58506 15.4266 5.51982 15.4005 5.44599 15.4005C5.23125 15.4005 5.05654 15.5752 5.05654 15.7899C5.05654 15.7986 5.06094 15.8061 5.06152 15.8147C5.02822 15.8055 4.9956 15.794 4.95937 15.794C4.74453 15.794 4.56982 15.9687 4.56982 16.1835C4.56982 16.2186 4.58115 16.2502 4.58984 16.2826C4.37959 16.288 4.20977 16.4588 4.20977 16.6701C4.20977 16.7434 4.23564 16.8084 4.271 16.867C4.11592 16.9184 4.00195 17.06 4.00195 17.232C4.00195 17.3309 4.04189 17.4187 4.10283 17.4875C3.98701 17.5551 3.90527 17.6754 3.90527 17.8189C3.90527 17.9476 3.97207 18.0563 4.06855 18.1272C3.98809 18.1987 3.93496 18.2998 3.93496 18.4155C3.93496 18.5615 4.01914 18.6843 4.13838 18.751C4.10234 18.81 4.07607 18.8753 4.07607 18.9493C4.07607 19.0402 4.1123 19.1203 4.16465 19.1866C4.07793 19.2123 4.02471 19.2325 4.02178 19.2337C3.98916 19.2469 3.96377 19.2736 3.95264 19.3068C3.94141 19.3402 3.94541 19.3768 3.96338 19.4071C3.97285 19.4227 4.9165 21.0073 5.2289 22.569C5.23662 22.6077 5.26465 22.6326 5.29765 22.6482C5.53759 22.9723 7.61659 23.2257 10.1473 23.2257C12.6779 23.2257 14.7568 22.9723 14.9969 22.6482C15.0299 22.6325 15.058 22.6077 15.0656 22.569C15.3777 21.0085 16.3216 19.4227 16.3311 19.4071C16.3492 19.3768 16.3532 19.3402 16.342 19.3067Z" fill="#FFE15A"/>
<path d="M16.342 19.3067C16.3307 19.2736 16.3054 19.2467 16.2728 19.2336C16.2695 19.2323 16.2018 19.2065 16.0932 19.176C16.141 19.1113 16.1747 19.0355 16.1747 18.9492C16.1747 18.8752 16.1484 18.8099 16.1124 18.7509C16.2317 18.6842 16.3158 18.5614 16.3158 18.4154C16.3158 18.2997 16.2627 18.1985 16.1822 18.1271C16.2787 18.0562 16.3455 17.9474 16.3455 17.8188C16.3455 17.6754 16.2638 17.555 16.1479 17.4874C16.2088 17.4186 16.2488 17.3308 16.2488 17.2319C16.2488 17.06 16.1348 16.9183 15.9798 16.8669C16.0151 16.8083 16.041 16.7434 16.041 16.67C16.041 16.4587 15.8712 16.2879 15.6609 16.2825C15.6696 16.2501 15.6809 16.2185 15.6809 16.1834C15.6809 15.9686 15.5062 15.7939 15.2914 15.7939C15.2552 15.7939 15.2225 15.8054 15.1892 15.8146C15.1898 15.806 15.1942 15.7987 15.1942 15.7898C15.1942 15.5751 15.0195 15.4004 14.8048 15.4004C14.7309 15.4004 14.6659 15.4265 14.6069 15.4622C14.5615 15.2976 14.4168 15.1737 14.238 15.1737C14.1306 15.1737 14.0334 15.2174 13.9629 15.2879C13.897 15.1662 13.7724 15.0804 13.6246 15.0804C13.4896 15.0804 13.3764 15.1535 13.3065 15.2579C13.2354 15.1823 13.1363 15.1338 13.0246 15.1338C12.8805 15.1338 12.7594 15.2161 12.6921 15.3327C12.6208 15.2528 12.5199 15.2003 12.4046 15.2003C12.262 15.2003 12.1425 15.281 12.0746 15.3954C12.0083 15.3433 11.9285 15.3071 11.8379 15.3071C11.6742 15.3071 11.535 15.4093 11.4775 15.5527C11.4074 15.485 11.3128 15.4422 11.2077 15.4422C11.0592 15.4422 10.9341 15.5287 10.8684 15.6513C10.8397 15.6335 10.8104 15.6194 10.7775 15.6096C10.8597 15.4883 10.9076 15.342 10.9076 15.1848C10.9076 14.8796 10.7258 14.6177 10.4657 14.4967L10.5749 14.2782C10.5918 14.2445 10.5918 14.2045 10.5749 14.1707L10.4434 13.9078C10.453 13.8991 10.4621 13.89 10.4708 13.8805L10.734 14.0119C10.7509 14.0203 10.7691 14.0244 10.7875 14.0244C10.8058 14.0244 10.8242 14.02 10.841 14.0116L11.481 13.6916C11.5219 13.6712 11.5474 13.6298 11.5474 13.5844C11.5474 13.539 11.5218 13.4976 11.481 13.4771L10.841 13.1571C10.8073 13.1402 10.7675 13.1402 10.7338 13.1571L10.4709 13.2886C10.4621 13.2789 10.4529 13.2697 10.4433 13.2608L10.5748 12.9979C10.5917 12.9643 10.5917 12.9242 10.5748 12.8904L10.2548 12.2504C10.2141 12.1691 10.0807 12.1691 10.04 12.2504L9.72001 12.8904C9.70311 12.9241 9.70311 12.9643 9.72001 12.9979L9.85145 13.2608C9.84188 13.2695 9.8328 13.2786 9.82411 13.2882L9.56093 13.1567C9.52723 13.1398 9.48739 13.1401 9.4537 13.157L8.81366 13.477C8.77284 13.4975 8.74726 13.5389 8.74726 13.5843C8.74726 13.6297 8.77294 13.6711 8.81366 13.6915L9.4537 14.0115C9.47059 14.0199 9.48886 14.0243 9.50722 14.0243C9.52567 14.0243 9.54393 14.0199 9.56073 14.0115L9.82362 13.8801C9.83241 13.8897 9.84159 13.8989 9.85116 13.9078L9.71972 14.1707C9.70282 14.2044 9.70282 14.2445 9.71972 14.2782L9.82889 14.4967C9.56884 14.6176 9.387 14.8796 9.387 15.1848C9.387 15.3388 9.43378 15.4817 9.51278 15.6016C9.46522 15.6106 9.42216 15.6266 9.38231 15.6514C9.31669 15.5288 9.19159 15.4423 9.04306 15.4423C8.93808 15.4423 8.84335 15.485 8.77323 15.5528C8.71581 15.4094 8.57665 15.3072 8.41288 15.3072C8.32216 15.3072 8.24228 15.3434 8.17616 15.3955C8.10829 15.281 7.98866 15.2004 7.84618 15.2004C7.73085 15.2004 7.62997 15.2529 7.55868 15.3328C7.4913 15.2161 7.37031 15.1339 7.22617 15.1339C7.11454 15.1339 7.01533 15.1825 6.94423 15.258C6.87431 15.1536 6.76103 15.0805 6.62617 15.0805C6.47832 15.0805 6.3539 15.1663 6.28789 15.288C6.21738 15.2175 6.12011 15.1738 6.01279 15.1738C5.83388 15.1738 5.68916 15.2977 5.64384 15.4623C5.58506 15.4266 5.51982 15.4005 5.44599 15.4005C5.23125 15.4005 5.05654 15.5752 5.05654 15.7899C5.05654 15.7986 5.06094 15.8061 5.06152 15.8147C5.02822 15.8055 4.9956 15.794 4.95937 15.794C4.74453 15.794 4.56982 15.9687 4.56982 16.1835C4.56982 16.2186 4.58115 16.2502 4.58984 16.2826C4.37959 16.288 4.20977 16.4588 4.20977 16.6701C4.20977 16.7434 4.23564 16.8084 4.271 16.867C4.11592 16.9184 4.00195 17.06 4.00195 17.232C4.00195 17.3309 4.04189 17.4187 4.10283 17.4875C3.98701 17.5551 3.90527 17.6754 3.90527 17.8189C3.90527 17.9476 3.97207 18.0563 4.06855 18.1272C3.98809 18.1987 3.93496 18.2998 3.93496 18.4155C3.93496 18.5615 4.01914 18.6843 4.13838 18.751C4.10234 18.81 4.07607 18.8753 4.07607 18.9493C4.07607 19.0402 4.1123 19.1203 4.16465 19.1866C4.07793 19.2123 4.02471 19.2325 4.02178 19.2337C3.98916 19.2469 3.96377 19.2736 3.95264 19.3068C3.94141 19.3402 3.94541 19.3768 3.96338 19.4071C3.97285 19.4227 4.9165 21.0073 5.2289 22.569C5.23662 22.6077 5.26465 22.6326 5.29765 22.6482C5.53759 22.9723 7.61659 23.2257 10.1473 23.2257C12.6779 23.2257 14.7568 22.9723 14.9969 22.6482C15.0299 22.6325 15.058 22.6077 15.0656 22.569C15.3777 21.0085 16.3216 19.4227 16.3311 19.4071C16.3492 19.3768 16.3532 19.3402 16.342 19.3067ZM12.9492 18.5337V16.6555C13.1014 16.6423 13.2495 16.6381 13.3919 16.6431V18.5942C13.2595 18.5303 13.1099 18.5116 12.9492 18.5337ZM11.5678 15.9755C11.5711 15.9787 11.5758 15.9801 11.5792 15.9832C11.5741 15.9843 11.569 15.9853 11.5639 15.9865C11.5655 15.9828 11.5664 15.9791 11.5678 15.9755ZM15.7851 18.7998C15.8675 18.7998 15.9344 18.8667 15.9344 18.9491C15.9344 19.0316 15.8675 19.0984 15.7851 19.0984C15.7028 19.0984 15.6358 19.0315 15.6358 18.9491C15.6358 18.8667 15.7028 18.7998 15.7851 18.7998ZM15.926 18.5647C15.8437 18.5647 15.7767 18.4978 15.7767 18.4154C15.7767 18.3329 15.8437 18.2661 15.926 18.2661C16.0086 18.2661 16.0757 18.333 16.0757 18.4154C16.0757 18.4979 16.0087 18.5647 15.926 18.5647ZM15.8066 17.8187C15.8066 17.7362 15.8736 17.6694 15.9559 17.6694C16.0383 17.6694 16.1052 17.7363 16.1052 17.8187C16.1052 17.9013 16.0383 17.9681 15.9559 17.9681C15.8736 17.9681 15.8066 17.9013 15.8066 17.8187ZM11.3436 19.3067C11.2003 18.7617 11.0142 17.9413 10.9357 17.1212C11.0182 17.0923 11.16 17.0449 11.3436 16.9893V19.3067ZM9.34306 17.1309C9.25858 18.0037 9.05243 18.8779 8.90722 19.4161V16.9892C9.11308 17.0515 9.26747 17.1041 9.34306 17.1309ZM10.2968 16.1448C10.2968 16.2273 10.2298 16.2941 10.1474 16.2941C10.0651 16.2941 9.99813 16.2272 9.99813 16.1448C9.99813 16.0623 10.0651 15.9955 10.1474 15.9955C10.2298 15.9953 10.2968 16.0623 10.2968 16.1448ZM8.68319 15.9763L8.68222 15.9761C8.68222 15.9761 8.6828 15.9758 8.683 15.9755C8.6831 15.9758 8.6831 15.9761 8.68319 15.9763ZM4.29482 17.6694C4.37715 17.6694 4.44414 17.7363 4.44414 17.8187C4.44414 17.9013 4.37715 17.9681 4.29482 17.9681C4.2125 17.9681 4.14551 17.9012 4.14551 17.8187C4.14541 17.7362 4.2125 17.6694 4.29482 17.6694ZM4.47402 18.4154C4.47402 18.4979 4.40703 18.5647 4.32471 18.5647C4.24219 18.5647 4.1751 18.4978 4.1751 18.4154C4.1751 18.3329 4.24209 18.2661 4.32471 18.2661C4.40703 18.266 4.47402 18.3328 4.47402 18.4154ZM4.46562 18.7998C4.54795 18.7998 4.61494 18.8667 4.61494 18.9491C4.61494 19.0316 4.54795 19.0984 4.46562 19.0984C4.3833 19.0984 4.31631 19.0315 4.31631 18.9491C4.31621 18.8667 4.3833 18.7998 4.46562 18.7998ZM5.08193 16.7777C5.31689 16.3976 5.77548 15.9447 6.62685 15.9447C7.4581 15.9447 8.63095 16.1987 9.38212 16.3854C9.38241 16.5483 9.37499 16.7153 9.36347 16.8833C8.85097 16.7049 6.81259 16.0524 5.9456 16.6458C4.96445 17.3186 5.27451 18.6021 5.45781 19.1337C5.30176 19.0914 5.14394 19.0723 4.99287 19.0692C4.63848 18.3582 4.67402 17.4378 5.08193 16.7777ZM5.758 19.2501C5.67363 19.0539 5.13408 17.6969 5.93613 16.963V19.3573C5.87851 19.3161 5.81875 19.2812 5.758 19.2501ZM6.17617 16.7939C6.30292 16.7282 6.45234 16.6856 6.61884 16.663V18.7987C6.37812 19.0428 6.27109 19.3786 6.22392 19.6311C6.20869 19.612 6.19189 19.5966 6.17607 19.5787V16.7939H6.17617ZM6.85898 16.6429C7.00136 16.6379 7.14941 16.6421 7.30165 16.6553V18.5315C7.27548 18.5292 7.24814 18.5224 7.22255 18.5224C7.10458 18.5224 6.99384 18.5472 6.89326 18.5977C6.88085 18.6039 6.87079 18.6123 6.85888 18.6188V16.6428H6.85898V16.6429ZM7.54169 16.681C7.69042 16.7008 7.83886 16.7267 7.98437 16.7558V18.8101C7.83202 18.7051 7.68378 18.6291 7.54169 18.5827V16.681ZM8.2245 16.8073C8.38183 16.8435 8.53036 16.8815 8.66718 16.9197V19.4599C8.53485 19.2925 8.38241 19.1341 8.2245 18.9963V16.8073ZM9.62108 16.4461C9.80155 16.493 9.94393 16.5319 10.0274 16.5555V18.591C9.70214 18.6239 9.4536 18.79 9.26395 18.9942C9.4329 18.2905 9.61483 17.3302 9.62108 16.4461ZM10.2674 16.5555C10.3487 16.5326 10.4852 16.4951 10.6589 16.45C10.6655 17.3251 10.8439 18.2739 11.0113 18.975C10.824 18.7801 10.582 18.6229 10.2675 18.5912V16.5556H10.2674V16.5555V16.5555ZM11.5837 16.9199C11.7206 16.8818 11.869 16.8437 12.0264 16.8075V19.0151C12.0264 19.0207 12.0288 19.0256 12.0296 19.031C11.868 19.177 11.7149 19.3445 11.5837 19.5182V16.9199ZM12.2664 16.7559C12.412 16.7268 12.5603 16.701 12.7091 16.6812V18.5939C12.5667 18.6462 12.4181 18.7291 12.2664 18.8388V16.7559ZM13.6319 16.6632C13.7985 16.6858 13.9478 16.7282 14.0746 16.794V19.6054C14.0746 19.6116 14.0771 19.6171 14.0781 19.623C14.0758 19.6261 14.073 19.6283 14.0707 19.6312C14.0209 19.3644 13.9023 19.0064 13.6319 18.7602V16.6632ZM14.3146 16.9632C15.1739 17.7499 14.4894 19.2586 14.482 19.2746C14.4812 19.2763 14.4814 19.2779 14.4808 19.2796C14.4238 19.312 14.3686 19.3501 14.3146 19.392V16.9632ZM14.3051 16.6458C13.4553 16.0638 11.4756 16.6809 10.9155 16.8735C10.9045 16.7101 10.8973 16.5478 10.8976 16.3892C11.648 16.202 12.831 15.9447 13.6678 15.9447C14.5191 15.9447 14.9778 16.3976 15.2127 16.7777C15.6206 17.4379 15.6562 18.3582 15.3018 19.0693C15.1348 19.0726 14.9598 19.0962 14.788 19.1484C14.9705 18.6259 15.2951 17.3247 14.3051 16.6458ZM15.8593 17.3812C15.7769 17.3812 15.7099 17.3143 15.7099 17.2319C15.7099 17.1494 15.7769 17.0826 15.8593 17.0826C15.9418 17.0826 16.0089 17.1495 16.0089 17.2319C16.0089 17.3143 15.9417 17.3812 15.8593 17.3812ZM15.801 16.6698C15.801 16.7523 15.734 16.8195 15.6513 16.8195C15.569 16.8195 15.502 16.7522 15.502 16.6698C15.502 16.5873 15.569 16.5205 15.6513 16.5205C15.734 16.5205 15.801 16.5873 15.801 16.6698ZM15.441 16.1832C15.441 16.2657 15.374 16.3325 15.2914 16.3325C15.2091 16.3325 15.1421 16.2656 15.1421 16.1832C15.1421 16.1007 15.2091 16.0339 15.2914 16.0339C15.3738 16.0338 15.441 16.1008 15.441 16.1832ZM14.8048 15.6403C14.8871 15.6403 14.9541 15.7072 14.9541 15.7896C14.9541 15.8722 14.8871 15.9393 14.8048 15.9393C14.7222 15.9393 14.6552 15.8721 14.6552 15.7896C14.6552 15.7072 14.7222 15.6403 14.8048 15.6403ZM14.238 15.4137C14.3203 15.4137 14.3873 15.4806 14.3873 15.563C14.3873 15.6455 14.3203 15.7123 14.238 15.7123C14.1556 15.7123 14.0887 15.6454 14.0887 15.563C14.0886 15.4806 14.1556 15.4137 14.238 15.4137ZM13.6246 15.3202C13.7069 15.3202 13.7739 15.3871 13.7739 15.4695C13.7739 15.552 13.7069 15.6192 13.6246 15.6192C13.5421 15.6192 13.475 15.5519 13.475 15.4695C13.475 15.3872 13.5421 15.3202 13.6246 15.3202ZM13.0245 15.3737C13.1068 15.3737 13.1738 15.4406 13.1738 15.523C13.1738 15.6055 13.1068 15.6724 13.0245 15.6724C12.942 15.6724 12.8749 15.6055 12.8749 15.523C12.8749 15.4406 12.942 15.3737 13.0245 15.3737ZM12.4045 15.4403C12.4868 15.4403 12.5538 15.5072 12.5538 15.5896C12.5538 15.6722 12.4868 15.7393 12.4045 15.7393C12.322 15.7393 12.2549 15.6721 12.2549 15.5896C12.2549 15.5072 12.3219 15.4403 12.4045 15.4403ZM11.8376 15.5472C11.9199 15.5472 11.9869 15.6141 11.9869 15.6965C11.9869 15.7789 11.9199 15.8458 11.8376 15.8458C11.7553 15.8458 11.6883 15.7789 11.6883 15.6965C11.6883 15.6141 11.7553 15.5472 11.8376 15.5472ZM11.2076 15.6822C11.2899 15.6822 11.3569 15.7491 11.3569 15.8315C11.3569 15.914 11.2899 15.9809 11.2076 15.9809C11.1253 15.9809 11.0583 15.914 11.0583 15.8315C11.0583 15.7491 11.1251 15.6822 11.2076 15.6822ZM10.6675 16.126C10.5851 16.126 10.5182 16.0591 10.5182 15.9767C10.5182 15.8941 10.5851 15.8273 10.6675 15.8273C10.7498 15.8273 10.8168 15.8942 10.8168 15.9767C10.8168 16.0592 10.7498 16.126 10.6675 16.126ZM9.94735 13.5844C9.94735 13.474 10.037 13.3844 10.1474 13.3844C10.2577 13.3844 10.3473 13.474 10.3473 13.5844C10.3473 13.6947 10.2577 13.7844 10.1474 13.7844C10.0371 13.7845 9.94735 13.6947 9.94735 13.5844ZM10.7874 13.3984L11.1592 13.5845L10.7874 13.7705L10.5791 13.6663C10.5842 13.6396 10.5874 13.6125 10.5874 13.5845C10.5874 13.5564 10.5842 13.5292 10.5791 13.5025L10.7874 13.3984ZM9.96151 12.9442L10.1473 12.5726L10.333 12.9442L10.2288 13.1525C10.2023 13.1475 10.1751 13.1442 10.1472 13.1442C10.1191 13.1442 10.092 13.1475 10.0655 13.1525L9.96151 12.9442ZM9.50722 13.7703L9.13544 13.5843L9.50722 13.3982L9.71552 13.5024C9.71044 13.5291 9.70721 13.5562 9.70721 13.5843C9.70721 13.6123 9.71044 13.6395 9.71552 13.6662L9.50722 13.7703ZM9.96151 14.2244L10.0657 14.0161C10.0922 14.0212 10.1194 14.0244 10.1474 14.0244C10.1753 14.0244 10.2025 14.0212 10.229 14.0161L10.3332 14.2244L10.2291 14.4327C10.2019 14.4298 10.1754 14.4244 10.1474 14.4244C10.1194 14.4244 10.093 14.4297 10.0658 14.4327L9.96151 14.2244ZM10.1474 14.6645C10.4341 14.6645 10.6674 14.8977 10.6674 15.1846C10.6674 15.4715 10.4341 15.7046 10.1474 15.7046C9.86063 15.7046 9.62733 15.4714 9.62733 15.1846C9.62733 14.8977 9.86053 14.6645 10.1474 14.6645ZM9.58339 15.8272C9.66571 15.8272 9.7327 15.8941 9.7327 15.9766C9.7327 16.0591 9.66571 16.1259 9.58339 16.1259C9.50106 16.1259 9.43407 16.059 9.43407 15.9766C9.43397 15.894 9.50097 15.8272 9.58339 15.8272ZM9.04335 15.6822C9.12567 15.6822 9.19267 15.7491 9.19267 15.8315C9.19267 15.914 9.12567 15.9809 9.04335 15.9809C8.96102 15.9809 8.89403 15.914 8.89403 15.8315C8.89403 15.7491 8.96093 15.6822 9.04335 15.6822ZM8.41317 15.5472C8.4955 15.5472 8.56249 15.6141 8.56249 15.6965C8.56249 15.7789 8.4955 15.8458 8.41317 15.8458C8.33085 15.8458 8.26386 15.7789 8.26386 15.6965C8.26386 15.6141 8.33085 15.5472 8.41317 15.5472ZM7.84648 15.4403C7.929 15.4403 7.99609 15.5072 7.99609 15.5896C7.99609 15.6722 7.92909 15.7393 7.84648 15.7393C7.76415 15.7393 7.69716 15.6721 7.69716 15.5896C7.69696 15.5072 7.76405 15.4403 7.84648 15.4403ZM7.22636 15.3737C7.30888 15.3737 7.37597 15.4406 7.37597 15.523C7.37597 15.6055 7.30898 15.6724 7.22636 15.6724C7.14404 15.6724 7.07704 15.6055 7.07704 15.523C7.07704 15.4406 7.14404 15.3737 7.22636 15.3737ZM6.62617 15.3202C6.70869 15.3202 6.77578 15.3871 6.77578 15.4695C6.77578 15.552 6.70878 15.6192 6.62617 15.6192C6.54384 15.6192 6.47685 15.5519 6.47685 15.4695C6.47685 15.3872 6.54384 15.3202 6.62617 15.3202ZM6.01289 15.4137C6.09521 15.4137 6.1622 15.4806 6.1622 15.563C6.1622 15.6455 6.09521 15.7123 6.01289 15.7123C5.93056 15.7123 5.86357 15.6454 5.86357 15.563C5.86347 15.4806 5.93056 15.4137 6.01289 15.4137ZM5.44609 15.6403C5.52861 15.6403 5.5957 15.7072 5.5957 15.7896C5.5957 15.8722 5.52871 15.9393 5.44609 15.9393C5.36377 15.9393 5.29677 15.8721 5.29677 15.7896C5.29668 15.7072 5.36367 15.6403 5.44609 15.6403ZM4.95947 16.0338C5.04179 16.0338 5.10879 16.1007 5.10879 16.1831C5.10879 16.2656 5.04179 16.3324 4.95947 16.3324C4.87695 16.3324 4.80986 16.2655 4.80986 16.1831C4.80996 16.1008 4.87695 16.0338 4.95947 16.0338ZM4.59941 16.5205C4.68174 16.5205 4.74873 16.5874 4.74873 16.6698C4.74873 16.7523 4.68174 16.8195 4.59941 16.8195C4.51689 16.8195 4.4498 16.7522 4.4498 16.6698C4.4498 16.5873 4.51699 16.5205 4.59941 16.5205ZM4.3915 17.0824C4.47383 17.0824 4.54082 17.1493 4.54082 17.2317C4.54082 17.3142 4.47383 17.381 4.3915 17.381C4.30898 17.381 4.24189 17.3142 4.24189 17.2317C4.24209 17.1492 4.30908 17.0824 4.3915 17.0824ZM14.8526 22.4212C14.2992 22.1474 12.4054 21.9455 10.1474 21.9455C7.88954 21.9455 5.9956 22.1474 5.44218 22.4212C5.15595 21.0961 4.47158 19.814 4.24346 19.4111C4.62353 19.2945 5.71162 19.0633 6.19951 20.039C6.22451 20.0888 6.28066 20.115 6.33447 20.1022C6.38867 20.0894 6.42705 20.041 6.42705 19.9853C6.42705 19.9766 6.43359 19.0961 7.00078 18.8124C7.56239 18.533 8.47099 19.4605 8.76005 20.0391C8.76005 20.0391 8.76034 20.0393 8.76034 20.0395C8.76981 20.0584 8.78563 20.0729 8.8039 20.0847C8.8077 20.087 8.81122 20.0891 8.81532 20.091C8.8205 20.0935 8.8246 20.0975 8.83026 20.0994C8.84267 20.1035 8.85517 20.1054 8.86737 20.1054C8.86962 20.1054 8.87147 20.1034 8.87372 20.1033C8.87606 20.1033 8.87792 20.1048 8.88036 20.1047C8.89169 20.1034 8.89999 20.0957 8.91015 20.0915C8.92089 20.0872 8.93173 20.0851 8.94081 20.078C8.95194 20.0693 8.9578 20.0567 8.96542 20.0445C8.9704 20.0364 8.9787 20.0316 8.98183 20.0223C8.98534 20.0112 9.00028 19.9646 9.02235 19.892C9.12724 19.5888 9.45956 18.8253 10.1477 18.8253C10.7318 18.8253 11.0595 19.3754 11.2096 19.7273C11.2585 19.8964 11.293 20.0047 11.2987 20.0223C11.3153 20.0732 11.3623 20.1054 11.413 20.1054C11.4252 20.1054 11.4377 20.1035 11.4501 20.0994C11.4522 20.0986 11.4538 20.097 11.4559 20.0962C11.4893 20.0877 11.5195 20.071 11.5354 20.0391C11.8247 19.4602 12.7341 18.5349 13.2947 18.8124C13.3324 18.8312 13.3673 18.8531 13.4001 18.8768C13.4326 18.9043 13.4546 18.9246 13.4917 18.9544C13.8613 19.3151 13.8684 19.9776 13.8684 19.9853C13.8685 20.0409 13.9069 20.0894 13.961 20.1022C14.0155 20.1147 14.0711 20.0888 14.096 20.039C14.5829 19.0654 15.6712 19.2952 16.0519 19.4115C15.823 19.8147 15.1388 21.0965 14.8526 22.4212Z" fill="#464655"/>
<path d="M10.6215 19.7825C10.6059 19.7953 10.5908 19.8089 10.5757 19.8229C10.4593 19.9325 10.2678 19.8465 10.2678 19.6865V19.6649C10.2678 19.5986 10.214 19.5449 10.1478 19.5449C10.0816 19.5449 10.0278 19.5987 10.0278 19.6649V19.6865C10.0278 19.8465 9.83639 19.9325 9.71989 19.8229C9.70505 19.809 9.68971 19.7955 9.67419 19.7825C9.62321 19.7406 9.54743 19.7469 9.50524 19.7984C9.46286 19.8494 9.46989 19.9251 9.52097 19.9675C9.84889 20.2391 10.0276 20.8813 10.0276 21.1352V21.2652C10.0276 21.3315 10.0814 21.3853 10.1476 21.3853C10.2138 21.3853 10.2676 21.3314 10.2676 21.2652V21.1352C10.2676 20.8813 10.4465 20.2392 10.7743 19.9675C10.8254 19.925 10.8324 19.8494 10.79 19.7984C10.7481 19.7474 10.6724 19.7407 10.6215 19.7825Z" fill="#464655"/>
<path d="M13.3432 20.2867C13.329 20.2857 13.315 20.2853 13.3009 20.2857C13.1885 20.2934 13.0787 20.1338 13.1332 20.01C13.1355 20.0048 13.1378 19.9995 13.1401 19.9943C13.1611 19.9464 13.1451 19.8681 13.1051 19.8172C13.0651 19.7664 13.0133 19.7692 12.9885 19.8254C12.9859 19.8315 12.9832 19.8373 12.9805 19.8435C12.9238 19.9722 12.7607 19.9337 12.735 19.7446C12.7317 19.7202 12.7284 19.6955 12.7246 19.6709C12.712 19.5909 12.666 19.5355 12.617 19.5576C12.5683 19.5789 12.5354 19.6687 12.5471 19.7499C12.6165 20.2865 12.5369 20.8523 12.446 21.058C12.4301 21.0944 12.414 21.1307 12.3981 21.1671C12.3733 21.2232 12.4049 21.2665 12.4692 21.2618C12.5337 21.257 12.6037 21.2127 12.6248 21.165C12.6388 21.1333 12.6527 21.1016 12.6666 21.0699C12.7527 20.8736 13.1136 20.4383 13.4092 20.4609C13.4567 20.4606 13.477 20.4296 13.458 20.3831C13.4392 20.337 13.3891 20.2907 13.3432 20.2867Z" fill="#464655"/>
<path d="M15.1232 20.661C15.1115 20.661 15.0999 20.6617 15.0881 20.663C14.9937 20.6788 14.9138 20.5324 14.9683 20.4086C14.9705 20.4034 14.9729 20.3981 14.9752 20.3928C14.9962 20.345 14.9886 20.2703 14.9589 20.2241C14.9293 20.1779 14.8858 20.1842 14.861 20.2406C14.8585 20.2466 14.8558 20.2525 14.853 20.2586C14.7964 20.3873 14.6631 20.3619 14.6554 20.1807C14.6545 20.1574 14.6534 20.1338 14.6521 20.1102C14.6476 20.0338 14.6132 19.9834 14.5706 20.0085C14.5283 20.0327 14.4944 20.1219 14.4983 20.1997C14.5171 20.714 14.4095 21.2674 14.3186 21.4732C14.3026 21.5095 14.2865 21.5459 14.2706 21.5823C14.2459 21.6383 14.2691 21.678 14.3231 21.6688C14.3773 21.6593 14.439 21.6115 14.46 21.5636C14.4739 21.532 14.4879 21.5003 14.5018 21.4685C14.5879 21.2722 14.9207 20.8247 15.1656 20.825C15.2054 20.8212 15.2244 20.7898 15.2121 20.7462C15.1998 20.7027 15.1613 20.6613 15.1232 20.661Z" fill="#464655"/>
<path d="M7.84836 21.058C7.75744 20.8524 7.67785 20.2865 7.74728 19.7499C7.759 19.6688 7.72609 19.5791 7.67736 19.5576C7.62834 19.5355 7.58225 19.5909 7.56975 19.6709C7.56594 19.6955 7.56262 19.7201 7.55939 19.7446C7.53361 19.9337 7.37053 19.972 7.31389 19.8435C7.31115 19.8374 7.30861 19.8314 7.30588 19.8254C7.28107 19.7691 7.22941 19.7664 7.18928 19.8172C7.14934 19.8681 7.13322 19.9463 7.15422 19.9943C7.15647 19.9995 7.15881 20.0048 7.16115 20.01C7.21564 20.1338 7.10578 20.2934 6.99348 20.2857C6.97932 20.2853 6.96535 20.2857 6.95119 20.2867C6.90529 20.2907 6.8551 20.3369 6.83615 20.3832C6.81721 20.4297 6.83742 20.4606 6.88498 20.461C7.18059 20.4383 7.54143 20.8736 7.62756 21.07C7.64143 21.1016 7.65549 21.1333 7.66936 21.1651C7.69035 21.2129 7.76037 21.2571 7.82492 21.2619C7.88937 21.2667 7.92082 21.2234 7.89611 21.1672C7.88029 21.1307 7.86437 21.0944 7.84836 21.058Z" fill="#464655"/>
<path d="M5.97551 21.4732C5.88469 21.2675 5.77698 20.714 5.79573 20.1997C5.79963 20.1219 5.76555 20.0328 5.72346 20.0085C5.68088 19.9834 5.64651 20.0338 5.64192 20.1102C5.64055 20.1338 5.63957 20.1573 5.63869 20.1807C5.63108 20.3619 5.49778 20.3872 5.44104 20.2586C5.4383 20.2525 5.43577 20.2464 5.43303 20.2406C5.40823 20.1842 5.36487 20.1779 5.33518 20.2241C5.30559 20.2703 5.29778 20.345 5.31887 20.3928C5.32112 20.3981 5.32346 20.4034 5.32581 20.4086C5.3803 20.5324 5.30022 20.6788 5.20598 20.663C5.19416 20.6617 5.18245 20.661 5.17083 20.661C5.13274 20.6613 5.09436 20.7026 5.08186 20.7461C5.06946 20.7896 5.0887 20.8211 5.12834 20.8249C5.37327 20.8246 5.70618 21.272 5.79221 21.4684C5.80608 21.5001 5.82014 21.5318 5.83401 21.5635C5.855 21.6114 5.91672 21.6592 5.97082 21.6687C6.02492 21.678 6.04807 21.6383 6.02336 21.5822C6.00754 21.546 5.99153 21.5095 5.97551 21.4732Z" fill="#464655"/>
</g>
<defs>
<clipPath id="clip0_3462_30663">
<rect width="50" height="50" fill="white" transform="translate(0.324219 0.880859)"/>
</clipPath>
</defs>
</svg>
