<svg width="51" height="51" viewBox="0 0 51 51" fill="none" xmlns="http://www.w3.org/2000/svg">
<g clip-path="url(#clip0_3462_30640)">
<path d="M49.7472 42.2606H1.47148C0.995409 42.2606 0.609375 41.8746 0.609375 41.3985V10.3641C0.609375 9.88799 0.995409 9.50195 1.47148 9.50195H49.7473C50.2233 9.50195 50.6094 9.88799 50.6094 10.3641V41.3985C50.6093 41.8746 50.2232 42.2606 49.7472 42.2606Z" fill="#5AA587"/>
<path d="M27.6725 30.3358C28.639 30.5669 29.6707 30.5848 30.7024 30.3287C32.52 29.8774 33.9577 28.6924 34.7931 27.1708C33.3429 26.2167 31.5179 25.8418 29.7004 26.2931C28.7232 26.5357 27.866 27.001 27.1434 27.6065C27.1503 27.5974 27.1559 27.5886 27.1628 27.5795C29.8392 25.1659 32.8272 25.9451 32.8272 25.9451L33.5341 25.3411C33.5341 25.3411 30.5203 24.2998 27.8207 26.5329C29.4915 23.2981 27.6885 20.5233 27.6885 20.5233L27.2727 21.3549C27.2727 21.3549 28.772 24.1043 27.0179 27.3122C27.0159 27.3145 27.0138 27.3171 27.0118 27.3194C27.4392 26.4608 27.6885 25.4983 27.6885 24.4734C27.6885 22.6007 26.8849 20.9197 25.6095 19.7422C24.3341 20.9197 23.5304 22.6007 23.5304 24.4734C23.5304 25.4984 23.7796 26.4608 24.2071 27.3194C24.2051 27.3171 24.203 27.3144 24.201 27.3122C22.4469 24.1043 23.9462 21.3549 23.9462 21.3549L23.5304 20.5233C23.5304 20.5233 21.7275 23.2981 23.3982 26.5329C20.6986 24.2999 17.6848 25.3411 17.6848 25.3411L18.3917 25.9451C18.3917 25.9451 21.3796 25.1658 24.0561 27.5795C24.063 27.5886 24.0686 27.5974 24.0755 27.6065C23.353 27.001 22.4957 26.5357 21.5185 26.2931C19.701 25.8418 17.876 26.2167 16.4258 27.1708C17.2612 28.6924 18.6989 29.8773 20.5166 30.3287C21.5482 30.5848 22.58 30.5669 23.5465 30.3358C19.9454 31.3427 17.5901 29.1736 17.5901 29.1736L16.6828 29.3767C16.6828 29.3767 20.3224 33.2795 25.6095 29.451C30.8966 33.2794 34.5361 29.3767 34.5361 29.3767L33.6288 29.1736C33.629 29.1736 31.2736 31.3426 27.6725 30.3358Z" fill="#F5F5F5"/>
<path d="M20.3555 34.8281C20.7312 35.0614 21.1241 35.2693 21.5309 35.4519H29.6889C30.0959 35.2693 30.4887 35.0614 30.8643 34.8281H20.3555Z" fill="#F5F5F5"/>
<path d="M22.2627 35.7461C23.3095 36.1189 24.436 36.3234 25.6108 36.3234C26.7856 36.3234 27.9122 36.1188 28.959 35.7461H22.2627Z" fill="#F5F5F5"/>
<path d="M18.1436 32.9629C18.2695 33.1048 18.3983 33.2441 18.532 33.3787H32.6883C32.8219 33.2441 32.9508 33.1049 33.0767 32.9629H18.1436Z" fill="#F5F5F5"/>
<path d="M19.0566 33.8672C19.2649 34.0488 19.4799 34.2228 19.7029 34.3869H31.5185C31.7415 34.2228 31.9566 34.0487 32.1648 33.8672H19.0566Z" fill="#F5F5F5"/>
<path d="M29.7681 31.8541C27.4393 31.8541 25.846 30.2977 25.8301 30.2818L25.6094 30.0625L25.3894 30.2822C25.3736 30.298 23.7905 31.8541 21.4518 31.8541H17.29C17.432 32.0683 17.583 32.2758 17.7408 32.4778H21.452C23.544 32.4778 25.0629 31.3835 25.6101 30.9223C26.1573 31.3836 27.6762 32.4778 29.7682 32.4778H33.4795C33.6372 32.2758 33.7882 32.0683 33.9302 31.8541H29.7681Z" fill="#F5F5F5"/>
<path d="M25.5006 15.5182L25.1358 16.6122L23.9826 16.6212C23.872 16.6221 23.8261 16.7632 23.9151 16.8288L24.8429 17.514L24.4951 18.6136C24.4617 18.7191 24.5818 18.8063 24.6718 18.7419L25.6101 18.0713L26.5484 18.7419C26.6383 18.8063 26.7584 18.719 26.7251 18.6136L26.3773 17.514L27.3051 16.8288C27.3941 16.7631 27.3482 16.622 27.2376 16.6212L26.0844 16.6122L25.7196 15.5182C25.684 15.4132 25.5356 15.4132 25.5006 15.5182Z" fill="#FFE15A"/>
<path d="M20.0424 17.7571L20.2537 18.5241L19.5963 18.9723C19.5333 19.0152 19.5612 19.1138 19.6376 19.1172L20.4324 19.1534L20.6554 19.9171C20.6769 19.9903 20.7792 19.9942 20.806 19.9228L21.086 19.178L21.8812 19.2019C21.9575 19.2041 21.9927 19.108 21.9332 19.0605L21.3114 18.564L21.5798 17.8151C21.6056 17.7432 21.5251 17.68 21.4614 17.722L20.7971 18.1599L20.1678 17.6732C20.1072 17.6265 20.0221 17.6836 20.0424 17.7571Z" fill="#FFE15A"/>
<path d="M16.8607 21.6202L17.436 22.1699L17.1023 22.892C17.0703 22.9614 17.1449 23.0315 17.212 22.9952L17.9124 22.618L18.4961 23.1586C18.5521 23.2105 18.6418 23.1612 18.6282 23.0862L18.4858 22.3034L19.1804 21.9153C19.247 21.8781 19.2279 21.7775 19.1522 21.7673L18.3638 21.6609L18.2093 20.8804C18.1945 20.8055 18.0929 20.7927 18.0599 20.8615L17.7149 21.5784L16.925 21.484C16.8492 21.4749 16.8056 21.5675 16.8607 21.6202Z" fill="#FFE15A"/>
<path d="M31.3573 17.7571L31.146 18.5241L31.8033 18.9723C31.8664 19.0152 31.8385 19.1138 31.7621 19.1172L30.9673 19.1534L30.7443 19.9171C30.7228 19.9903 30.6205 19.9942 30.5937 19.9228L30.3137 19.178L29.5185 19.2019C29.4422 19.2041 29.407 19.108 29.4665 19.0605L30.0883 18.564L29.8199 17.8151C29.7941 17.7432 29.8746 17.68 29.9383 17.722L30.6026 18.1599L31.2319 17.6732C31.2925 17.6265 31.3775 17.6836 31.3573 17.7571Z" fill="#FFE15A"/>
<path d="M34.5401 21.6202L33.9648 22.1699L34.2985 22.892C34.3305 22.9614 34.2559 23.0315 34.1888 22.9952L33.4884 22.618L32.9047 23.1586C32.8487 23.2105 32.759 23.1612 32.7726 23.0862L32.915 22.3034L32.2204 21.9153C32.1538 21.8781 32.1729 21.7775 32.2486 21.7673L33.037 21.6609L33.1915 20.8804C33.2063 20.8055 33.3079 20.7927 33.3409 20.8615L33.6859 21.5784L34.4758 21.484C34.5516 21.4749 34.5952 21.5675 34.5401 21.6202Z" fill="#FFE15A"/>
</g>
<defs>
<clipPath id="clip0_3462_30640">
<rect width="50" height="50" fill="white" transform="translate(0.609375 0.880859)"/>
</clipPath>
</defs>
</svg>
