<svg width="51" height="51" viewBox="0 0 51 51" fill="none" xmlns="http://www.w3.org/2000/svg">
<g clip-path="url(#clip0_3462_30630)">
<path d="M33.8027 8.63672H49.6073C50.0834 8.63672 50.4694 9.02275 50.4694 9.49883V40.5333C50.4694 41.0094 50.0834 41.3954 49.6073 41.3954H33.8027V8.63672Z" fill="#41479B"/>
<path d="M33.8027 8.63672H17.1357V41.3955H33.8027V8.63672Z" fill="#FFE15A"/>
<path d="M1.33184 8.63672H17.1364V41.3953H1.33184C0.855762 41.3953 0.469727 41.0093 0.469727 40.5332V9.49873C0.469727 9.02266 0.855762 8.63672 1.33184 8.63672Z" fill="#41479B"/>
<path d="M29.7794 22.8598H27.6242V20.7046L28.9173 18.9805H27.6242H23.3139H22.0208L23.3139 20.7046V22.8598H21.1587L19.4346 21.5667V22.8598V27.1701V28.4632L21.1587 27.1701H23.3139V29.3253L22.0208 31.0494H23.3139H27.6242H28.9173L27.6242 29.3253V27.1701H29.7794L31.5035 28.4632V27.1701V22.8598V21.5667L29.7794 22.8598Z" fill="#FF4B55"/>
<path d="M29.7799 24.1533H26.3316V20.7051H24.6074V24.1533H21.1592V25.8775H24.6074V29.3258H26.3316V25.8775H29.7799V24.1533Z" fill="#F5F5F5"/>
</g>
<defs>
<clipPath id="clip0_3462_30630">
<rect width="50" height="50" fill="white" transform="translate(0.46875 0.015625)"/>
</clipPath>
</defs>
</svg>
