<svg width="51" height="51" viewBox="0 0 51 51" fill="none" xmlns="http://www.w3.org/2000/svg">
<g clip-path="url(#clip0_3462_30611)">
<path d="M50.8983 11.8419H0.898438V10.3641C0.898438 9.88799 1.28447 9.50195 1.76055 9.50195H50.0363C50.5124 9.50195 50.8984 9.88799 50.8984 10.3641L50.8983 11.8419Z" fill="#FF4B55"/>
<path d="M50.8983 11.8418H0.898438V14.1816H50.8983V11.8418Z" fill="#F5F5F5"/>
<path d="M50.8983 14.1816H0.898438V16.5215H50.8983V14.1816Z" fill="#FF4B55"/>
<path d="M50.8983 16.5215H0.898438V18.8613H50.8983V16.5215Z" fill="#F5F5F5"/>
<path d="M50.8983 18.8613H0.898438V21.2012H50.8983V18.8613Z" fill="#FF4B55"/>
<path d="M50.8983 21.2012H0.898438V23.541H50.8983V21.2012Z" fill="#F5F5F5"/>
<path d="M50.8983 23.541H0.898438V25.8809H50.8983V23.541Z" fill="#FF4B55"/>
<path d="M50.8983 25.8809H0.898438V28.2207H50.8983V25.8809Z" fill="#F5F5F5"/>
<path d="M50.8983 30.56H0.898438V26.7422H1.76055L1.76074 28.2199H50.8983V30.56Z" fill="#FF4B55"/>
<path d="M50.8983 30.5605H0.898438V32.9004H50.8983V30.5605Z" fill="#F5F5F5"/>
<path d="M50.8983 32.9004H0.898438V35.2402H50.8983V32.9004Z" fill="#FF4B55"/>
<path d="M50.8983 35.2422H0.898438V37.582H50.8983V35.2422Z" fill="#F5F5F5"/>
<path d="M50.8983 37.5801H0.898438V39.9199H50.8983V37.5801Z" fill="#FF4B55"/>
<path d="M50.0362 42.2599H1.76055C1.28447 42.2599 0.898438 41.8738 0.898438 41.3977V39.9199H50.8983V41.3977C50.8983 41.8739 50.5123 42.2599 50.0362 42.2599Z" fill="#F5F5F5"/>
<path d="M31.0708 28.2212H1.76055C1.28447 28.2212 0.898438 27.8351 0.898438 27.359V10.3641C0.898438 9.88799 1.28447 9.50195 1.76055 9.50195H31.0708C31.5469 9.50195 31.9329 9.88799 31.9329 10.3641V27.359C31.9329 27.8353 31.5469 28.2212 31.0708 28.2212Z" fill="#41479B"/>
<path d="M9.08673 18.8527C9.08673 15.5923 11.7332 12.9474 14.9906 12.9474C15.8103 12.9474 16.5896 13.1152 17.2993 13.4176C17.3914 13.4568 17.4608 13.3286 17.3781 13.2721C16.2038 12.4727 14.7677 12.0347 13.2273 12.1148C9.84064 12.2909 7.07141 15.0187 6.85246 18.4029C6.59787 22.3392 9.71271 25.6001 13.5867 25.6001C14.9867 25.6001 16.2881 25.1687 17.3688 24.4374C17.4521 24.381 17.3831 24.2526 17.2906 24.2918C16.5832 24.5918 15.807 24.7582 14.9908 24.7582C11.7332 24.7581 9.08673 22.1132 9.08673 18.8527Z" fill="#FFE15A"/>
<path d="M22.5832 18.8522L25.0791 17.8864C25.2024 17.8387 25.1604 17.6544 25.0285 17.665L22.3617 17.8785L24.1943 15.9196C24.2847 15.823 24.167 15.6754 24.0527 15.742L21.7365 17.0932L22.5359 14.5369C22.5754 14.4108 22.4052 14.3288 22.3313 14.4384L20.8319 16.6596L20.4472 14.0084C20.4283 13.8775 20.2392 13.8774 20.2201 14.0083L19.9744 15.6859L19.8724 16.3958L19.8332 16.6597L18.3338 14.4404C18.2597 14.3308 18.0894 14.4128 18.1292 14.539L18.9315 17.0931L16.6155 15.7419C16.5012 15.6752 16.3835 15.8229 16.4739 15.9195L18.3064 17.8784L15.6389 17.6649C15.507 17.6543 15.4649 17.8386 15.5884 17.8863L18.0865 18.8521L15.5883 19.818C15.4647 19.8657 15.5069 20.05 15.6388 20.0395L18.3064 19.8259L16.4738 21.7898C16.3835 21.8865 16.5015 22.0339 16.6157 21.9671L18.9316 20.6111L18.1293 23.1652C18.0896 23.2914 18.2597 23.3735 18.3339 23.2639L19.8333 21.0445L19.8725 21.3147L19.9745 22.0184L20.2203 23.7004C20.2394 23.8314 20.4285 23.8313 20.4474 23.7003L20.8321 21.0447L22.3315 23.2659C22.4055 23.3755 22.5756 23.2938 22.5361 23.1674L21.7367 20.6111L24.0526 21.9671C24.1668 22.0339 24.2847 21.8865 24.1945 21.7898L22.3618 19.8259L25.0287 20.0395C25.1606 20.05 25.2027 19.8657 25.0793 19.818L22.5832 18.8522Z" fill="#FFE15A"/>
</g>
<defs>
<clipPath id="clip0_3462_30611">
<rect width="50" height="50" fill="white" transform="translate(0.898438 0.880859)"/>
</clipPath>
</defs>
</svg>
