<svg width="51" height="51" viewBox="0 0 51 51" fill="none" xmlns="http://www.w3.org/2000/svg">
<g clip-path="url(#clip0_3462_30582)">
<path d="M0.192383 30.4746H50.1923V40.532C50.1923 41.0081 49.8063 41.3941 49.3302 41.3941H1.05449C0.578417 41.3941 0.192383 41.0081 0.192383 40.532V30.4746Z" fill="#73AF00"/>
<path d="M1.05449 8.63672H49.3303C49.8064 8.63672 50.1924 9.02275 50.1924 9.49883V19.5562H0.192383V9.49873C0.192383 9.02266 0.578417 8.63672 1.05449 8.63672Z" fill="#464655"/>
<path d="M50.1933 19.5547H0.193359V30.4736H50.1933V19.5547Z" fill="#FF4B55"/>
<path d="M31.8904 18.5253C30.5449 16.2219 28.0529 14.6699 25.1928 14.6699C22.3326 14.6699 19.8406 16.2219 18.4951 18.5253H31.8904Z" fill="#FF4B55"/>
<path d="M25.6389 11.007C25.6389 11.3938 25.1935 13.8088 25.1935 13.8088C25.1935 13.8088 24.748 11.3939 24.748 11.007C24.748 10.6202 24.9475 10.3066 25.1935 10.3066C25.4395 10.3066 25.6389 10.6201 25.6389 11.007Z" fill="#FF4B55"/>
<path d="M33.5665 14.6597C33.293 14.9332 31.2705 16.3259 31.2705 16.3259C31.2705 16.3259 32.6632 14.3033 32.9367 14.0299C33.2103 13.7563 33.573 13.6756 33.747 13.8496C33.9208 14.0233 33.84 14.3862 33.5665 14.6597Z" fill="#FF4B55"/>
<path d="M17.4507 14.03C17.7242 14.3035 19.1169 16.326 19.1169 16.326C19.1169 16.326 17.0943 14.9333 16.8209 14.6598C16.5474 14.3862 16.4666 14.0234 16.6406 13.8495C16.8143 13.6756 17.1771 13.7564 17.4507 14.03Z" fill="#FF4B55"/>
<path d="M21.2444 11.7039C21.3924 12.0613 21.905 14.4629 21.905 14.4629C21.905 14.4629 20.5694 12.4023 20.4214 12.0449C20.2735 11.6876 20.3376 11.3216 20.5649 11.2274C20.792 11.1331 21.0962 11.3465 21.2444 11.7039Z" fill="#FF4B55"/>
<path d="M29.966 12.045C29.818 12.4024 28.4824 14.463 28.4824 14.463C28.4824 14.463 28.995 12.0615 29.1431 11.704C29.2911 11.3466 29.5953 11.1332 29.8226 11.2273C30.0498 11.3215 30.1142 11.6876 29.966 12.045Z" fill="#FF4B55"/>
<path d="M23.3646 11.1467C23.4415 11.5258 23.485 13.9811 23.485 13.9811C23.485 13.9811 22.5685 11.7029 22.4915 11.3237C22.4146 10.9446 22.5478 10.5977 22.7888 10.5487C23.03 10.4998 23.2878 10.7675 23.3646 11.1467Z" fill="#FF4B55"/>
<path d="M31.8604 13.1493C31.6468 13.4718 29.9414 15.2387 29.9414 15.2387C29.9414 15.2387 30.9042 12.9797 31.1179 12.6572C31.3315 12.3348 31.671 12.1835 31.8761 12.3194C32.0811 12.4554 32.0741 12.8269 31.8604 13.1493Z" fill="#FF4B55"/>
<path d="M15.9403 15.7352C16.2628 15.9489 18.0297 17.6543 18.0297 17.6543C18.0297 17.6543 15.7707 16.6915 15.4483 16.4778C15.1258 16.2641 14.9745 15.9247 15.1105 15.7196C15.2464 15.5146 15.618 15.5216 15.9403 15.7352Z" fill="#FF4B55"/>
<path d="M19.1966 12.7016C19.4128 13.0224 20.3925 15.2741 20.3925 15.2741C20.3925 15.2741 18.674 13.5201 18.4578 13.1993C18.2416 12.8785 18.2319 12.507 18.436 12.3696C18.6399 12.2322 18.9805 12.3808 19.1966 12.7016Z" fill="#FF4B55"/>
<path d="M34.8929 16.4056C34.5721 16.6218 32.3203 17.6015 32.3203 17.6015C32.3203 17.6015 34.0743 15.8829 34.3951 15.6668C34.7159 15.4506 35.0875 15.4408 35.2249 15.6449C35.3624 15.849 35.2137 16.1896 34.8929 16.4056Z" fill="#FF4B55"/>
<path d="M27.8112 11.3035C27.7372 11.6831 26.8379 13.9681 26.8379 13.9681C26.8379 13.9681 26.8629 11.5127 26.937 11.133C27.0111 10.7534 27.2668 10.4837 27.5082 10.5307C27.7497 10.5778 27.8853 10.9238 27.8112 11.3035Z" fill="#FF4B55"/>
<path d="M28.0771 11.3698C27.9646 11.7399 27.6895 14.1802 27.6895 14.1802C27.6895 14.1802 28.817 11.9988 28.9294 11.6285C29.0418 11.2584 28.942 10.9004 28.7066 10.8289C28.4714 10.7574 28.1895 10.9997 28.0771 11.3698Z" fill="#FF4B55"/>
<path d="M19.4309 12.5618C19.6132 12.903 21.144 14.823 21.144 14.823C21.144 14.823 20.3989 12.4832 20.2166 12.142C20.0343 11.8008 19.7106 11.6182 19.4937 11.7341C19.2766 11.8501 19.2485 12.2205 19.4309 12.5618Z" fill="#FF4B55"/>
<path d="M35.0347 16.6398C34.6936 16.8221 32.7734 18.353 32.7734 18.353C32.7734 18.353 35.1133 17.6079 35.4545 17.4256C35.7956 17.2432 35.9783 16.9196 35.8624 16.7026C35.7466 16.4856 35.376 16.4575 35.0347 16.6398Z" fill="#FF4B55"/>
<path d="M32.08 13.3127C31.8345 13.6117 30.6465 15.7607 30.6465 15.7607C30.6465 15.7607 32.5231 14.1769 32.7686 13.8778C33.0141 13.5788 33.0589 13.2099 32.8687 13.0538C32.6787 12.8977 32.3255 13.0137 32.08 13.3127Z" fill="#FF4B55"/>
<path d="M16.1037 15.5159C16.4027 15.7614 18.5518 16.9494 18.5518 16.9494C18.5518 16.9494 16.968 15.0727 16.6688 14.8273C16.3697 14.5819 16.001 14.537 15.8448 14.7271C15.6888 14.9174 15.8046 15.2705 16.1037 15.5159Z" fill="#FF4B55"/>
<path d="M23.6352 11.1053C23.673 11.4904 24.3526 13.85 24.3526 13.85C24.3526 13.85 24.5596 11.4031 24.5217 11.0181C24.4839 10.633 24.2547 10.3406 24.01 10.3647C23.7652 10.3887 23.5974 10.7202 23.6352 11.1053Z" fill="#FF4B55"/>
<path d="M25.8828 11.0194C25.8443 11.4044 26.0474 13.8515 26.0474 13.8515C26.0474 13.8515 26.7306 11.4929 26.7691 11.108C26.8076 10.723 26.6403 10.3912 26.3955 10.3667C26.1507 10.3422 25.9213 10.6345 25.8828 11.0194Z" fill="#FF4B55"/>
<path d="M17.6312 13.8659C17.8762 14.1652 19.7502 15.752 19.7502 15.752C19.7502 15.752 18.5655 13.6011 18.3206 13.3018C18.0756 13.0024 17.7227 12.886 17.5323 13.0417C17.3419 13.1975 17.3861 13.5665 17.6312 13.8659Z" fill="#FF4B55"/>
<path d="M33.7299 14.8401C33.4306 15.0851 31.8438 16.9591 31.8438 16.9591C31.8438 16.9591 33.9947 15.7745 34.294 15.5296C34.5934 15.2846 34.7098 14.9316 34.5541 14.7413C34.3983 14.5509 34.0294 14.5951 33.7299 14.8401Z" fill="#FF4B55"/>
<path d="M30.1865 12.149C30.0036 12.4899 29.2549 14.8285 29.2549 14.8285C29.2549 14.8285 30.7887 12.9108 30.9716 12.57C31.1545 12.2291 31.1269 11.8584 30.9102 11.7421C30.6934 11.6258 30.3694 11.808 30.1865 12.149Z" fill="#FF4B55"/>
<path d="M14.9399 17.41C15.2809 17.5929 17.6194 18.3416 17.6194 18.3416C17.6194 18.3416 15.7018 16.8078 15.3609 16.6249C15.02 16.442 14.6494 16.4696 14.5331 16.6864C14.4169 16.9031 14.599 17.227 14.9399 17.41Z" fill="#FF4B55"/>
<path d="M21.4734 11.622C21.5852 11.9924 22.7095 14.1756 22.7095 14.1756C22.7095 14.1756 22.4382 11.7349 22.3263 11.3647C22.2146 10.9943 21.9329 10.7518 21.6975 10.8229C21.462 10.8939 21.3616 11.2517 21.4734 11.622Z" fill="#FF4B55"/>
</g>
<defs>
<clipPath id="clip0_3462_30582">
<rect width="50" height="50" fill="white" transform="translate(0.191406 0.015625)"/>
</clipPath>
</defs>
</svg>
