<svg width="51" height="51" viewBox="0 0 51 51" fill="none" xmlns="http://www.w3.org/2000/svg">
<g clip-path="url(#clip0_3462_30578)">
<path d="M49.7423 41.5536H1.4666C0.990527 41.5536 0.604492 41.1675 0.604492 40.6915V9.65703C0.604492 9.18096 0.990527 8.79492 1.4666 8.79492H49.7424C50.2185 8.79492 50.6045 9.18096 50.6045 9.65703V40.6915C50.6044 41.1676 50.2184 41.5536 49.7423 41.5536Z" fill="#FF4B55"/>
<path d="M43.7077 15.6914V34.6569H7.50098V15.6914H43.7077Z" fill="#73AF00"/>
<path d="M23.8836 25.1758C23.8836 21.9116 26.1069 19.178 29.1167 18.3862C29.2169 18.3599 29.2097 18.2149 29.1069 18.2018C28.8339 18.1666 28.5561 18.1465 28.2736 18.1465C24.3884 18.1465 21.2432 21.2912 21.2432 25.1758C21.2432 29.0435 24.3884 32.1968 28.2736 32.1968C28.5566 32.1968 28.8347 32.1764 29.108 32.1413C29.2107 32.128 29.2179 31.9832 29.1178 31.9568C26.1074 31.1637 23.8836 28.4262 23.8836 25.1758Z" fill="#F5F5F5"/>
</g>
<defs>
<clipPath id="clip0_3462_30578">
<rect width="50" height="50" fill="white" transform="translate(0.603516 0.173828)"/>
</clipPath>
</defs>
</svg>
