<svg width="51" height="51" viewBox="0 0 51 51" fill="none" xmlns="http://www.w3.org/2000/svg">
<g clip-path="url(#clip0_3462_30562)">
<path d="M49.4611 8.79492H25.3232V41.5535H49.4611C49.9372 41.5535 50.3232 41.1675 50.3232 40.6914V9.65693C50.3232 9.18086 49.9372 8.79492 49.4611 8.79492Z" fill="#FF4B55"/>
<path d="M1.18535 41.5535H25.3232V8.79492H1.18535C0.709277 8.79492 0.323242 9.18086 0.323242 9.65693V40.6914C0.323242 41.1676 0.709277 41.5535 1.18535 41.5535Z" fill="#F5F5F5"/>
<path d="M7.50772 10.8069V13.1136C7.63477 13.1186 7.77647 13.1762 7.89424 13.2939C8.01201 13.4117 8.06982 13.5534 8.07461 13.6805H10.3812V15.9793H8.07451C8.06953 16.1063 8.01191 16.248 7.89414 16.3658C7.77637 16.4836 7.63467 16.5412 7.50762 16.5462V18.8528H5.20879V16.5462C5.08174 16.5412 4.94004 16.4836 4.82227 16.3658C4.70449 16.248 4.64687 16.1063 4.64189 15.9793H2.33525V13.6806H4.64189C4.64687 13.5535 4.70449 13.4118 4.82227 13.294C4.94004 13.1763 5.08174 13.1187 5.20879 13.1137V10.807H7.50772V10.8069ZM7.79492 10.5195H7.50752H5.20869H4.92139V10.8069V12.8873C4.81172 12.9322 4.70879 13.0011 4.61904 13.0907C4.5293 13.1805 4.46055 13.2834 4.41553 13.3931H2.33525H2.04785V13.6805V15.9793V16.2667H2.33525H4.41563C4.46064 16.3764 4.52939 16.4794 4.61914 16.569C4.70879 16.6587 4.81172 16.7275 4.92139 16.7725V18.8528V19.1401H5.20879H7.50762H7.79502V18.8527V16.7724C7.90469 16.7274 8.00762 16.6586 8.09736 16.5688C8.18701 16.4792 8.25586 16.3763 8.30078 16.2666H10.3812H10.6685V15.9792V13.6804V13.393H10.3811H8.30088C8.25596 13.2833 8.18711 13.1804 8.09736 13.0906C8.00771 13.001 7.90478 12.9321 7.79502 12.8872V10.8069L7.79492 10.5195Z" fill="#FF4B55"/>
<path d="M10.3809 13.6801H7.50742V10.8066H5.2085V13.6801H2.33496V15.979H5.2085V18.8525H7.50742V15.979H10.3809V13.6801Z" fill="#CDCDCD"/>
<path d="M6.3584 15.9785C6.9932 15.9785 7.50781 15.4639 7.50781 14.8291C7.50781 14.1943 6.9932 13.6797 6.3584 13.6797C5.72359 13.6797 5.20898 14.1943 5.20898 14.8291C5.20898 15.4639 5.72359 15.9785 6.3584 15.9785Z" fill="#B4A08C"/>
<path d="M5.32903 15.8593C5.12942 15.6597 4.85436 15.6111 4.71467 15.7508C4.57497 15.8905 4.62354 16.1655 4.82315 16.3651C5.02276 16.5647 5.29782 16.6133 5.43751 16.4736C5.57721 16.3339 5.52864 16.0589 5.32903 15.8593Z" fill="#B4A08C"/>
<path d="M7.89465 16.3632C8.09425 16.1636 8.14282 15.8885 8.00313 15.7488C7.86343 15.6092 7.58837 15.6577 7.38877 15.8573C7.18916 16.0569 7.14059 16.332 7.28028 16.4717C7.41998 16.6114 7.69504 16.5628 7.89465 16.3632Z" fill="#B4A08C"/>
<path d="M7.38777 13.7989C7.58738 13.9986 7.86244 14.0471 8.00213 13.9074C8.14182 13.7677 8.09326 13.4927 7.89365 13.2931C7.69404 13.0935 7.41898 13.0449 7.27929 13.1846C7.13959 13.3243 7.18816 13.5993 7.38777 13.7989Z" fill="#B4A08C"/>
<path d="M4.82215 13.293C4.62254 13.4927 4.57397 13.7677 4.71367 13.9074C4.85336 14.0471 5.12842 13.9985 5.32803 13.7989C5.52764 13.5993 5.57621 13.3243 5.43651 13.1846C5.29682 13.0449 5.02176 13.0934 4.82215 13.293Z" fill="#B4A08C"/>
<path d="M6.35869 16.4029C5.49102 16.4029 4.78516 15.6973 4.78516 14.8294C4.78516 13.9615 5.49102 13.2559 6.35869 13.2559C7.22637 13.2559 7.93223 13.9617 7.93223 14.8294C7.93223 15.6971 7.22637 16.4029 6.35869 16.4029ZM6.35869 13.3996C5.57041 13.3996 4.92891 14.0411 4.92891 14.8294C4.92891 15.6177 5.57041 16.2592 6.35869 16.2592C7.14697 16.2592 7.78848 15.6177 7.78848 14.8294C7.78848 14.0411 7.14697 13.3996 6.35869 13.3996Z" fill="#B4A08C"/>
</g>
<defs>
<clipPath id="clip0_3462_30562">
<rect width="50" height="50" fill="white" transform="translate(0.324219 0.173828)"/>
</clipPath>
</defs>
</svg>
