<svg width="51" height="51" viewBox="0 0 51 51" fill="none" xmlns="http://www.w3.org/2000/svg">
<g clip-path="url(#clip0_3462_30557)">
<path d="M49.8897 41.5536H1.61406C1.13799 41.5536 0.751953 41.1675 0.751953 40.6915V9.65703C0.751953 9.18096 1.13799 8.79492 1.61406 8.79492H49.8898C50.3659 8.79492 50.752 9.18096 50.752 9.65703V40.6915C50.7519 41.1676 50.3658 41.5536 49.8897 41.5536Z" fill="#41479B"/>
<path d="M1.14043 41.3915L50.7519 20.8626V14.8281L0.751953 40.6902C0.751953 40.9874 0.911621 41.2364 1.14043 41.3915Z" fill="#F5F5F5"/>
<path d="M50.4255 8.99805L0.751953 39.8298V40.6919L50.7519 14.8299V9.65742C50.7519 9.38721 50.6199 9.15615 50.4255 8.99805Z" fill="#FF9B55"/>
<path d="M15.001 20.6982L20.5801 20.0014L15.001 19.3048L17.8286 17.5705L14.3103 18.4307L16.4515 15.5095L13.5304 17.6507L14.3905 14.1324L12.6563 16.96L11.9596 11.3809L11.2628 16.96L9.5285 14.1324L10.3888 17.6507L7.46747 15.5095L9.60868 18.4307L6.09042 17.5705L8.91806 19.3048L3.33887 20.0014L8.91806 20.6982L6.09042 22.4325L9.60868 21.5722L7.46747 24.4935L10.3888 22.3523L9.5285 25.8706L11.2628 23.0429L11.9596 28.6221L12.6563 23.0429L14.3905 25.8706L13.5304 22.3523L16.4515 24.4935L14.3103 21.5722L17.8286 22.4325L15.001 20.6982Z" fill="#F5F5F5"/>
</g>
<defs>
<clipPath id="clip0_3462_30557">
<rect width="50" height="50" fill="white" transform="translate(0.751953 0.173828)"/>
</clipPath>
</defs>
</svg>
