<svg width="51" height="51" viewBox="0 0 51 51" fill="none" xmlns="http://www.w3.org/2000/svg">
<g clip-path="url(#clip0_3462_30549)">
<path d="M49.3165 41.5535H1.04082C0.564745 41.5535 0.178711 41.1674 0.178711 40.6913V9.65703C0.178711 9.18096 0.564745 8.79492 1.04082 8.79492H49.3166C49.7927 8.79492 50.1787 9.18096 50.1787 9.65703V40.6913C50.1786 41.1675 49.7926 41.5535 49.3165 41.5535Z" fill="#41479B"/>
<path d="M50.1786 23.4501H26.9028V8.79492H23.4544V23.4501H0.178711V26.8983H23.4544V41.5535H26.9028V26.8983H50.1786V23.4501Z" fill="#F5F5F5"/>
<path d="M17.0151 20.0098C16.9904 19.8632 16.9347 19.6894 16.8644 19.5776C16.7247 19.3844 16.5629 19.2492 16.4063 19.165C15.172 18.598 14.1387 18.7092 13.1527 18.7053C12.1788 18.7303 11.2676 18.8983 10.528 19.0602C10.3272 19.1007 10.1533 19.1308 9.96725 19.1658C10.0592 18.9758 10.3965 18.738 10.8506 18.5938C11.9576 18.2157 13.2213 18.0638 14.4632 17.8219C14.7769 17.7604 15.0949 17.6885 15.4205 17.5959C15.5958 17.5358 15.7433 17.4889 15.9498 17.393C16.0822 17.3181 16.2126 17.2239 16.3241 17.1232C16.4428 17.0164 16.4337 16.9865 16.4949 16.9144C16.7769 16.3776 16.5099 15.9954 16.2861 15.7958C16.0704 15.6187 15.8886 15.5496 15.7157 15.4784C15.3799 15.3606 15.0689 15.2868 14.7687 15.2242C14.1903 15.1085 13.6216 14.9947 13.0649 14.8833C12.8005 14.8221 12.5447 14.7541 12.3203 14.6717C12.1221 14.6188 11.8422 14.423 11.8838 14.4764C11.3721 14.4323 12.5844 13.8617 13.4586 13.543C13.6909 13.4404 13.9218 13.3369 14.1585 13.1908C14.3906 13.0374 14.6297 12.9072 14.8877 12.4775C14.9383 12.3884 14.9362 12.3667 14.9628 12.3084L14.9922 12.2343C15.0562 12.0058 15.0211 12.0675 15.0359 11.9684C15.0661 11.7288 14.972 11.4726 14.8232 11.2593C14.5194 10.9309 14.2172 10.837 13.9928 10.7741C13.0647 10.5542 12.3969 10.6143 11.8168 10.6166C10.7166 10.6684 10.0878 10.6978 10.0878 10.6978L10.0453 10.6998C10.044 10.6999 10.0428 10.6999 10.0415 10.7C9.68981 10.7206 9.42155 11.0223 9.44216 11.3738C9.44411 11.4082 9.46023 11.437 9.46735 11.4695C8.96911 11.6068 8.18074 11.7473 7.40076 11.5634C7.28201 11.536 7.17234 11.6074 7.1449 11.7211C7.11755 11.8357 7.18894 11.9503 7.30261 11.9769C7.60906 12.0492 7.91306 12.0775 8.2029 12.0775C8.81862 12.0775 9.3446 11.9522 9.70378 11.8422C9.8196 11.9282 9.96042 11.9824 10.1157 11.9733C10.1157 11.9733 10.751 11.9361 11.863 11.8711C12.3836 11.8523 13.0832 11.8249 13.6605 11.9605C13.7083 11.968 13.7338 11.9828 13.7655 11.9962C13.77 11.945 13.6723 12.0892 13.5197 12.1633C13.3715 12.2589 13.1788 12.3505 12.9782 12.4415C12.568 12.6273 12.0987 12.7871 11.5784 13.0671C11.3272 13.2153 11.0167 13.3659 10.7587 13.8064C10.6381 14.0105 10.5808 14.3405 10.6442 14.5731L10.663 14.668L10.6736 14.7148L10.6793 14.7381C10.6393 14.6552 10.74 14.8781 10.7321 14.858L10.7841 14.9447C10.8303 15.0107 10.8231 15.0381 10.934 15.1533C11.023 15.2496 11.1235 15.3418 11.2271 15.4222C11.3179 15.4847 11.3857 15.5142 11.4674 15.5605C11.6285 15.6555 11.7747 15.6994 11.9272 15.7593C12.228 15.8652 12.5209 15.9372 12.8133 16.0018C13.3779 16.1081 13.9547 16.2166 14.5414 16.327C14.7874 16.3746 15.0175 16.4346 15.2303 16.5001C14.9578 16.5983 14.5763 16.6973 14.2473 16.7607C13.0505 17.0133 11.7815 17.166 10.4908 17.6193C10.1677 17.7423 9.83679 17.8892 9.51228 18.1378C9.20671 18.3693 8.88552 18.8311 8.92663 19.3385C8.81716 19.3538 8.69138 19.3761 8.59021 19.3874C7.49529 19.5323 7.03513 19.3395 7.06482 19.334C6.92185 19.2496 6.73757 19.2969 6.6532 19.4399C6.56873 19.5828 6.61609 19.7672 6.75906 19.8515C6.75906 19.8515 6.94675 19.979 7.28181 20.0524C7.61521 20.1278 8.08425 20.1624 8.65554 20.1174C8.81286 20.1066 8.99714 20.0831 9.17019 20.0648C9.28982 20.2373 9.42917 20.4275 9.55896 20.5197C9.86061 20.7727 10.18 20.9345 10.4984 21.0762C11.7799 21.5719 13.0608 21.676 14.3096 21.6269C14.9366 21.5799 15.5536 21.5067 16.1872 21.224C16.4826 21.0862 16.888 20.8692 17.0132 20.2416C17.0136 20.1612 17.0274 20.1246 17.0151 20.0098ZM16.0934 20.2075C16.0771 20.1147 16.026 20.3252 15.7868 20.3832C15.375 20.5641 14.8129 20.6469 14.2603 20.676C13.1461 20.7127 11.9293 20.5826 10.8859 20.1594C10.7219 20.0837 10.5882 19.9883 10.4474 19.897C10.5248 19.8852 10.5919 19.877 10.6712 19.8645C11.4465 19.741 12.2546 19.5956 13.1828 19.5802C14.0669 19.564 15.1926 19.5762 15.9402 19.9481C16.027 19.9949 16.065 20.0436 16.0937 20.073C16.0937 20.073 16.0689 20.0432 16.0965 20.0243C16.1088 20.0432 16.0934 20.1491 16.0934 20.2075Z" fill="#F5F5F5"/>
<path d="M43.7396 20.0098C43.7149 19.8632 43.6592 19.6894 43.5889 19.5776C43.4492 19.3844 43.2875 19.2492 43.1308 19.165C41.8965 18.598 40.8632 18.7092 39.8772 18.7053C38.9033 18.7303 37.9922 18.8983 37.2525 19.0602C37.0517 19.1007 36.8778 19.1308 36.6918 19.1658C36.7838 18.9758 37.121 18.738 37.5751 18.5938C38.6821 18.2157 39.9458 18.0638 41.1877 17.8219C41.5014 17.7604 41.8194 17.6885 42.145 17.5959C42.3203 17.5358 42.4678 17.4889 42.6743 17.393C42.8067 17.3181 42.9371 17.2239 43.0486 17.1232C43.1673 17.0164 43.1583 16.9865 43.2194 16.9144C43.5014 16.3776 43.2345 15.9954 43.0106 15.7958C42.7949 15.6187 42.6132 15.5496 42.4402 15.4784C42.1044 15.3606 41.7934 15.2868 41.4932 15.2242C40.9148 15.1085 40.3461 14.9947 39.7894 14.8833C39.525 14.8221 39.2692 14.7541 39.0448 14.6717C38.8466 14.6188 38.5667 14.423 38.6083 14.4764C38.0966 14.4323 39.3089 13.8617 40.1831 13.543C40.4154 13.4404 40.6463 13.3369 40.883 13.1908C41.1151 13.0374 41.3543 12.9072 41.6122 12.4775C41.6628 12.3884 41.6607 12.3667 41.6873 12.3084L41.7168 12.2343C41.7807 12.0058 41.7456 12.0675 41.7604 11.9684C41.7906 11.7288 41.6965 11.4726 41.5477 11.2593C41.2439 10.9309 40.9418 10.837 40.7173 10.7741C39.7892 10.5542 39.1214 10.6143 38.5413 10.6166C37.4411 10.6684 36.8123 10.6978 36.8123 10.6978L36.7698 10.6998C36.7685 10.6999 36.7674 10.6999 36.766 10.7C36.4143 10.7206 36.1461 11.0223 36.1667 11.3738C36.1686 11.4082 36.1847 11.437 36.1919 11.4695C35.6936 11.6068 34.9052 11.7473 34.1253 11.5634C34.0065 11.536 33.8968 11.6074 33.8694 11.7211C33.8421 11.8357 33.9135 11.9503 34.0271 11.9769C34.3336 12.0492 34.6376 12.0775 34.9274 12.0775C35.5431 12.0775 36.0691 11.9522 36.4283 11.8422C36.5441 11.9282 36.6849 11.9824 36.8402 11.9733C36.8402 11.9733 37.4756 11.9361 38.5875 11.8711C39.1081 11.8523 39.8077 11.8249 40.385 11.9605C40.4328 11.968 40.4584 11.9828 40.49 11.9962C40.4945 11.945 40.3968 12.0892 40.2442 12.1633C40.0961 12.2589 39.9033 12.3505 39.7027 12.4415C39.2925 12.6273 38.8232 12.7871 38.3029 13.0671C38.0517 13.2153 37.7412 13.3659 37.4832 13.8064C37.3626 14.0105 37.3053 14.3405 37.3687 14.5731L37.3875 14.668L37.3981 14.7148L37.4039 14.7381C37.3639 14.6552 37.4646 14.8781 37.4567 14.858L37.5088 14.9447C37.5549 15.0107 37.5477 15.0381 37.6587 15.1533C37.7476 15.2496 37.8481 15.3418 37.9517 15.4222C38.0425 15.4847 38.1103 15.5142 38.1921 15.5605C38.3531 15.6555 38.4993 15.6994 38.6518 15.7593C38.9526 15.8652 39.2455 15.9372 39.5379 16.0018C40.1025 16.1081 40.6794 16.2166 41.266 16.327C41.512 16.3746 41.7421 16.4346 41.9549 16.5001C41.6824 16.5983 41.3009 16.6973 40.9719 16.7607C39.7752 17.0133 38.5061 17.166 37.2154 17.6193C36.8924 17.7423 36.5614 17.8892 36.2369 18.1378C35.9313 18.3693 35.6101 18.8311 35.6512 19.3385C35.5418 19.3538 35.416 19.3761 35.3148 19.3874C34.2199 19.5323 33.7597 19.3395 33.7894 19.334C33.6465 19.2496 33.4622 19.2969 33.3778 19.4399C33.2933 19.5828 33.3407 19.7672 33.4837 19.8515C33.4837 19.8515 33.6714 19.979 34.0064 20.0524C34.3398 20.1278 34.8089 20.1624 35.3801 20.1174C35.5375 20.1066 35.7217 20.0831 35.8948 20.0648C36.0144 20.2373 36.1538 20.4275 36.2836 20.5197C36.5852 20.7727 36.9047 20.9345 37.223 21.0762C38.5046 21.5719 39.7855 21.676 41.0342 21.6269C41.6612 21.5799 42.2782 21.5067 42.9118 21.224C43.2072 21.0862 43.6126 20.8692 43.7378 20.2416C43.7379 20.1612 43.7517 20.1246 43.7396 20.0098ZM42.8178 20.2075C42.8015 20.1147 42.7504 20.3252 42.5112 20.3832C42.0994 20.5641 41.5373 20.6469 40.9847 20.676C39.8705 20.7127 38.6537 20.5826 37.6103 20.1594C37.4464 20.0837 37.3126 19.9883 37.1718 19.897C37.2492 19.8852 37.3163 19.877 37.3956 19.8645C38.1709 19.741 38.979 19.5956 39.9072 19.5802C40.7913 19.564 41.917 19.5762 42.6646 19.9481C42.7514 19.9949 42.7894 20.0436 42.8181 20.073C42.8181 20.073 42.7933 20.0432 42.8209 20.0243C42.8333 20.0432 42.8179 20.1491 42.8178 20.2075Z" fill="#F5F5F5"/>
<path d="M17.0151 38.1134C16.9904 37.9667 16.9347 37.7929 16.8644 37.6811C16.7247 37.488 16.5629 37.3527 16.4063 37.2685C15.172 36.7015 14.1387 36.8127 13.1527 36.8088C12.1788 36.8339 11.2676 37.0018 10.528 37.1637C10.3272 37.2042 10.1533 37.2344 9.96725 37.2693C10.0592 37.0793 10.3965 36.8415 10.8506 36.6973C11.9576 36.3192 13.2213 36.1674 14.4632 35.9254C14.7769 35.8639 15.0949 35.792 15.4205 35.6994C15.5958 35.6393 15.7433 35.5925 15.9498 35.4966C16.0822 35.4217 16.2126 35.3274 16.3241 35.2267C16.4428 35.1199 16.4337 35.09 16.4949 35.0179C16.7769 34.4811 16.5099 34.0989 16.2861 33.8993C16.0704 33.7222 15.8886 33.6531 15.7157 33.5819C15.3799 33.4641 15.0689 33.3903 14.7687 33.3277C14.1903 33.212 13.6216 33.0982 13.0649 32.9868C12.8005 32.9256 12.5447 32.8576 12.3203 32.7752C12.1221 32.7223 11.8422 32.5265 11.8838 32.58C11.3721 32.5358 12.5844 31.9652 13.4586 31.6465C13.6909 31.5439 13.9218 31.4403 14.1585 31.2943C14.3906 31.1409 14.6297 31.0107 14.8877 30.581C14.9383 30.4919 14.9362 30.4702 14.9628 30.4119L14.9922 30.3378C15.0562 30.1094 15.0211 30.171 15.0359 30.072C15.0661 29.8323 14.972 29.5762 14.8232 29.3628C14.5194 29.0345 14.2172 28.9405 13.9928 28.8776C13.0647 28.6577 12.3969 28.7179 11.8168 28.7201C10.7166 28.7719 10.0878 28.8014 10.0878 28.8014L10.0453 28.8033C10.044 28.8034 10.0428 28.8034 10.0415 28.8035C9.68981 28.8241 9.42155 29.1258 9.44216 29.4773C9.44411 29.5117 9.46023 29.5405 9.46735 29.573C8.96911 29.7103 8.18074 29.8508 7.40076 29.6669C7.28201 29.6395 7.17234 29.7109 7.1449 29.8246C7.11755 29.9392 7.18894 30.0538 7.30261 30.0805C7.60906 30.1527 7.91306 30.181 8.2029 30.181C8.81862 30.181 9.3446 30.0558 9.70378 29.9457C9.8196 30.0317 9.96042 30.0859 10.1157 30.0768C10.1157 30.0768 10.751 30.0396 11.863 29.9746C12.3836 29.9559 13.0832 29.9284 13.6605 30.0641C13.7083 30.0715 13.7338 30.0863 13.7655 30.0997C13.77 30.0485 13.6723 30.1927 13.5197 30.2668C13.3715 30.3624 13.1788 30.454 12.9782 30.545C12.568 30.7308 12.0987 30.8906 11.5784 31.1705C11.3272 31.3187 11.0167 31.4693 10.7587 31.9098C10.6381 32.114 10.5808 32.4439 10.6442 32.6765L10.663 32.7714L10.6736 32.8182L10.6793 32.8415C10.6393 32.7586 10.74 32.9815 10.7321 32.9614L10.7841 33.0481C10.8303 33.1141 10.8231 33.1415 10.934 33.2567C11.023 33.3531 11.1235 33.4452 11.2271 33.5257C11.3179 33.5882 11.3857 33.6177 11.4674 33.6639C11.6285 33.7589 11.7747 33.8028 11.9272 33.8627C12.228 33.9686 12.5209 34.0406 12.8133 34.1053C13.3779 34.2115 13.9547 34.32 14.5414 34.4305C14.7874 34.478 15.0175 34.538 15.2303 34.6035C14.9578 34.7017 14.5763 34.8008 14.2473 34.8641C13.0505 35.1167 11.7815 35.2694 10.4908 35.7227C10.1677 35.8457 9.83679 35.9927 9.51228 36.2412C9.20671 36.4727 8.88552 36.9345 8.92663 37.4419C8.81716 37.4572 8.69138 37.4796 8.59021 37.4908C7.49529 37.6357 7.03513 37.4429 7.06482 37.4374C6.92185 37.353 6.73757 37.4003 6.6532 37.5433C6.56873 37.6862 6.61609 37.8706 6.75906 37.955C6.75906 37.955 6.94675 38.0824 7.28181 38.1558C7.61521 38.2312 8.08425 38.2657 8.65554 38.2208C8.81286 38.21 8.99714 38.1865 9.17019 38.1682C9.28982 38.3407 9.42917 38.5309 9.55896 38.6231C9.86061 38.8761 10.18 39.038 10.4984 39.1797C11.7799 39.6754 13.0608 39.7795 14.3096 39.7303C14.9366 39.6833 15.5536 39.6101 16.1872 39.3274C16.4826 39.1896 16.888 38.9726 17.0132 38.345C17.0136 38.2648 17.0274 38.2282 17.0151 38.1134ZM16.0934 38.3111C16.0771 38.2183 16.026 38.4288 15.7868 38.4868C15.375 38.6677 14.8129 38.7506 14.2603 38.7797C13.1461 38.8163 11.9293 38.6862 10.8859 38.2631C10.7219 38.1873 10.5882 38.0919 10.4474 38.0007C10.5248 37.9888 10.5919 37.9806 10.6712 37.9681C11.4465 37.8446 12.2546 37.6992 13.1828 37.6839C14.0669 37.6677 15.1926 37.6799 15.9402 38.0517C16.027 38.0985 16.065 38.1472 16.0937 38.1766C16.0937 38.1766 16.0689 38.1469 16.0965 38.1279C16.1088 38.1469 16.0934 38.2527 16.0934 38.3111Z" fill="#F5F5F5"/>
<path d="M43.7396 38.1134C43.7149 37.9667 43.6592 37.7929 43.5889 37.6811C43.4492 37.488 43.2875 37.3527 43.1308 37.2685C41.8965 36.7015 40.8632 36.8127 39.8772 36.8088C38.9033 36.8339 37.9922 37.0018 37.2525 37.1637C37.0517 37.2042 36.8778 37.2344 36.6918 37.2693C36.7838 37.0793 37.121 36.8415 37.5751 36.6973C38.6821 36.3192 39.9458 36.1674 41.1877 35.9254C41.5014 35.8639 41.8194 35.792 42.145 35.6994C42.3203 35.6393 42.4678 35.5925 42.6743 35.4966C42.8067 35.4217 42.9371 35.3274 43.0486 35.2267C43.1673 35.1199 43.1583 35.09 43.2194 35.0179C43.5014 34.4811 43.2345 34.0989 43.0106 33.8993C42.7949 33.7222 42.6132 33.6531 42.4402 33.5819C42.1044 33.4641 41.7934 33.3903 41.4932 33.3277C40.9148 33.212 40.3461 33.0982 39.7894 32.9868C39.525 32.9256 39.2692 32.8576 39.0448 32.7752C38.8466 32.7223 38.5667 32.5265 38.6083 32.58C38.0966 32.5358 39.3089 31.9652 40.1831 31.6465C40.4154 31.5439 40.6463 31.4403 40.883 31.2943C41.1151 31.1409 41.3543 31.0107 41.6122 30.581C41.6628 30.4919 41.6607 30.4702 41.6873 30.4119L41.7168 30.3378C41.7807 30.1094 41.7456 30.171 41.7604 30.072C41.7906 29.8323 41.6965 29.5762 41.5477 29.3628C41.2439 29.0345 40.9418 28.9405 40.7173 28.8776C39.7892 28.6577 39.1214 28.7179 38.5413 28.7201C37.4411 28.7719 36.8123 28.8014 36.8123 28.8014L36.7698 28.8033C36.7685 28.8034 36.7674 28.8034 36.766 28.8035C36.4143 28.8241 36.1461 29.1258 36.1667 29.4773C36.1686 29.5117 36.1847 29.5405 36.1919 29.573C35.6936 29.7103 34.9052 29.8508 34.1253 29.6669C34.0065 29.6395 33.8968 29.7109 33.8694 29.8246C33.8421 29.9392 33.9135 30.0538 34.0271 30.0805C34.3336 30.1527 34.6376 30.181 34.9274 30.181C35.5431 30.181 36.0691 30.0558 36.4283 29.9457C36.5441 30.0317 36.6849 30.0859 36.8402 30.0768C36.8402 30.0768 37.4756 30.0396 38.5875 29.9746C39.1081 29.9559 39.8077 29.9284 40.385 30.0641C40.4328 30.0715 40.4584 30.0863 40.49 30.0997C40.4945 30.0485 40.3968 30.1927 40.2442 30.2668C40.0961 30.3624 39.9033 30.454 39.7027 30.545C39.2925 30.7308 38.8232 30.8906 38.3029 31.1705C38.0517 31.3187 37.7412 31.4693 37.4832 31.9098C37.3626 32.114 37.3053 32.4439 37.3687 32.6765L37.3875 32.7714L37.3981 32.8182L37.4039 32.8415C37.3639 32.7586 37.4646 32.9815 37.4567 32.9614L37.5088 33.0481C37.5549 33.1141 37.5477 33.1415 37.6587 33.2567C37.7476 33.3531 37.8481 33.4452 37.9517 33.5257C38.0425 33.5882 38.1103 33.6177 38.1921 33.6639C38.3531 33.7589 38.4993 33.8028 38.6518 33.8627C38.9526 33.9686 39.2455 34.0406 39.5379 34.1053C40.1025 34.2115 40.6794 34.32 41.266 34.4305C41.512 34.478 41.7421 34.538 41.9549 34.6035C41.6824 34.7017 41.3009 34.8008 40.9719 34.8641C39.7752 35.1167 38.5061 35.2694 37.2154 35.7227C36.8924 35.8457 36.5614 35.9927 36.2369 36.2412C35.9313 36.4727 35.6101 36.9345 35.6512 37.4419C35.5418 37.4572 35.416 37.4796 35.3148 37.4908C34.2199 37.6357 33.7597 37.4429 33.7894 37.4374C33.6465 37.353 33.4622 37.4003 33.3778 37.5433C33.2933 37.6862 33.3407 37.8706 33.4837 37.955C33.4837 37.955 33.6714 38.0824 34.0064 38.1558C34.3398 38.2312 34.8089 38.2657 35.3801 38.2208C35.5375 38.21 35.7217 38.1865 35.8948 38.1682C36.0144 38.3407 36.1538 38.5309 36.2836 38.6231C36.5852 38.8761 36.9047 39.038 37.223 39.1797C38.5046 39.6754 39.7855 39.7795 41.0342 39.7303C41.6612 39.6833 42.2782 39.6101 42.9118 39.3274C43.2072 39.1896 43.6126 38.9726 43.7378 38.345C43.7379 38.2648 43.7517 38.2282 43.7396 38.1134ZM42.8178 38.3111C42.8015 38.2183 42.7504 38.4288 42.5112 38.4868C42.0994 38.6677 41.5373 38.7506 40.9847 38.7797C39.8705 38.8163 38.6537 38.6862 37.6103 38.2631C37.4464 38.1873 37.3126 38.0919 37.1718 38.0007C37.2492 37.9888 37.3163 37.9806 37.3956 37.9681C38.1709 37.8446 38.979 37.6992 39.9072 37.6839C40.7913 37.6677 41.917 37.6799 42.6646 38.0517C42.7514 38.0985 42.7894 38.1472 42.8181 38.1766C42.8181 38.1766 42.7933 38.1469 42.8209 38.1279C42.8333 38.1469 42.8179 38.2527 42.8178 38.3111Z" fill="#F5F5F5"/>
</g>
<defs>
<clipPath id="clip0_3462_30549">
<rect width="50" height="50" fill="white" transform="translate(0.179688 0.173828)"/>
</clipPath>
</defs>
</svg>
