<svg width="51" height="51" viewBox="0 0 51 51" fill="none" xmlns="http://www.w3.org/2000/svg">
<g clip-path="url(#clip0_3462_30544)">
<path d="M49.7472 41.5536H1.47148C0.995409 41.5536 0.609375 41.1675 0.609375 40.6915V9.65703C0.609375 9.18096 0.995409 8.79492 1.47148 8.79492H49.7473C50.2233 8.79492 50.6094 9.18096 50.6094 9.65703V40.6915C50.6093 41.1676 50.2232 41.5536 49.7472 41.5536Z" fill="#73AF00"/>
<path d="M34.8922 22.1439C34.8691 21.9966 34.6555 22.0039 34.6387 22.1521C34.1245 26.6835 30.2807 30.2041 25.6102 30.2041C20.9412 30.2041 17.0961 26.6835 16.5817 22.1523C16.5649 22.0041 16.3514 21.9967 16.3283 22.1441C16.2568 22.5999 16.2178 23.066 16.2178 23.542C16.2177 28.7244 20.4237 32.9317 25.6102 32.9317C30.7985 32.9317 35.0028 28.7244 35.0028 23.542C35.0026 23.066 34.9634 22.5998 34.8922 22.1439Z" fill="#FFE15A"/>
<path d="M25.4936 18.2654L24.8144 20.3019L22.6677 20.3185C22.55 20.3194 22.5012 20.4696 22.5959 20.5395L24.3229 21.8148L23.6754 23.8616C23.6399 23.9738 23.7677 24.0667 23.8635 23.9983L25.6098 22.7499L27.3564 23.9983C27.4522 24.0667 27.58 23.9739 27.5445 23.8616L26.8969 21.8148L28.624 20.5395C28.7187 20.4696 28.6699 20.3194 28.5522 20.3185L26.4054 20.3019L25.7262 18.2654C25.6888 18.1537 25.5308 18.1537 25.4936 18.2654Z" fill="#FFE15A"/>
</g>
<defs>
<clipPath id="clip0_3462_30544">
<rect width="50" height="50" fill="white" transform="translate(0.609375 0.173828)"/>
</clipPath>
</defs>
</svg>
