<svg width="51" height="51" viewBox="0 0 51 51" fill="none" xmlns="http://www.w3.org/2000/svg">
<g clip-path="url(#clip0_3462_30452)">
<path d="M49.6075 41.823H1.33183C0.855761 41.823 0.469727 41.437 0.469727 40.9609V9.92656C0.469727 9.45049 0.855761 9.06445 1.33183 9.06445H49.6076C50.0837 9.06445 50.4697 9.45049 50.4697 9.92656V40.9609C50.4696 41.437 50.0836 41.823 49.6075 41.823Z" fill="#4173CD"/>
<path d="M21.6137 34.0633C21.5413 35.3512 22.3938 35.5099 22.8556 35.5168C23.3174 35.5238 24.0172 35.7268 24.6681 35.8597C25.319 35.9927 25.5288 35.4537 25.5288 35.4537C25.9138 35.9576 26.2893 35.8037 26.2893 35.8037C26.5972 35.4958 27.4184 35.3418 27.7403 35.3207C28.0621 35.2996 27.9852 34.8589 27.9852 34.8589C28.3225 34.6713 28.5507 34.4564 28.7139 34.2391C28.7209 34.2422 28.7271 34.2471 28.734 34.2501C29.2868 34.488 29.7138 33.9842 29.8047 33.7952C29.861 33.6783 29.964 33.6267 30.0376 33.6015L30.0637 33.8932C30.3016 33.5503 30.8196 33.6763 30.8196 33.6763C30.2876 32.8575 29.7489 33.2355 29.7489 33.2355L29.9576 33.4338C29.6408 33.5935 29.4528 34.2256 28.9861 34.0402C28.9462 34.0244 28.9124 34.0017 28.8769 33.9809C29.0653 33.6073 29.0714 33.255 29.021 33.0536C28.9301 32.6898 28.3701 32.6058 28.0973 32.9767C27.9066 33.2359 28.0273 33.6364 28.3037 33.9368C28.1577 34.0387 27.9713 34.1334 27.7265 34.2014C26.9706 34.4113 25.837 33.4176 25.0533 33.3756C24.2695 33.3336 23.5836 33.9914 23.1917 34.4112C22.7998 34.8312 22.274 34.4592 22.282 34.1873L21.6137 34.0633ZM28.4752 33.1234C28.6222 33.0606 28.6852 33.1725 28.7062 33.3544C28.715 33.4307 28.6731 33.5555 28.5703 33.6896C28.4083 33.4405 28.3818 33.1635 28.4752 33.1234Z" fill="#73AF00"/>
<path d="M23.8339 35.6187L23.416 35.8337L23.5328 35.5449L23.8339 35.6187Z" fill="#F5F5F5"/>
<path d="M23.4439 35.5192L23.0576 35.7181L23.1656 35.4512L23.4439 35.5192Z" fill="#F5F5F5"/>
<path d="M23.0833 35.4457L22.7979 35.6067L22.8716 35.4023L23.0833 35.4457Z" fill="#F5F5F5"/>
<path d="M26.2899 35.8058L25.835 35.9242L26.0122 35.668L26.2899 35.8058Z" fill="#F5F5F5"/>
<path d="M25.9734 35.6375L25.5498 35.7335L25.721 35.502L25.9734 35.6375Z" fill="#F5F5F5"/>
<path d="M25.6775 35.4822L25.3867 35.6335L25.4673 35.4316L25.6775 35.4822Z" fill="#F5F5F5"/>
<path d="M19.6527 19.9618C19.5635 20.0245 19.5577 20.1696 19.6395 20.2859C19.7213 20.4022 19.8599 20.4457 19.949 20.383C20.0381 20.3203 20.044 20.1752 19.9622 20.0589C19.8803 19.9426 19.7418 19.8991 19.6527 19.9618Z" fill="#F5F5F5"/>
<path d="M30.991 20.3844C31.0801 20.4471 31.2186 20.4036 31.3005 20.2872C31.3823 20.1709 31.3764 20.0258 31.2873 19.9631C31.1982 19.9004 31.0596 19.9439 30.9778 20.0602C30.896 20.1766 30.9019 20.3217 30.991 20.3844Z" fill="#F5F5F5"/>
<path d="M28.1739 24.4377V29.4604C28.1739 30.9517 26.9606 32.1649 25.4694 32.1649C23.9782 32.1649 22.7649 30.9516 22.7649 29.4604V24.4377H28.1739ZM29.7193 22.5059H21.2193C21.006 22.5059 20.833 22.6788 20.833 22.8922V29.4603C20.833 32.0209 22.9088 34.0967 25.4693 34.0967C28.0299 34.0967 30.1056 32.0209 30.1056 29.4603V22.8923C30.1057 22.6788 29.9327 22.5059 29.7193 22.5059Z" fill="#F5F5F5"/>
<path d="M22.7647 24.4357H20.833V23.366C20.833 22.8899 21.219 22.5039 21.6951 22.5039H22.7648L22.7647 24.4357Z" fill="#FF4B55"/>
<path d="M26.4356 22.5039H24.5039V24.4356H26.4356V22.5039Z" fill="#FF4B55"/>
<path d="M22.7647 26.3672H20.833V28.2989H22.7647V26.3672Z" fill="#FF4B55"/>
<path d="M30.1075 26.3672H28.1758V28.2989H30.1075V26.3672Z" fill="#FF4B55"/>
<path d="M30.1056 24.4356H28.1738V22.5039H29.2436C29.7196 22.5039 30.1057 22.8899 30.1057 23.366V24.4356H30.1056Z" fill="#FF4B55"/>
<path d="M27.1131 33.7896L26.3699 32.0059C26.0878 32.106 25.7855 32.1632 25.4696 32.1632C25.1537 32.1632 24.8515 32.1059 24.5693 32.0059L23.8262 33.7896C24.3377 33.984 24.8901 34.095 25.4697 34.095C26.0491 34.095 26.6016 33.984 27.1131 33.7896Z" fill="#FF4B55"/>
<path d="M22.0503 32.582L23.5613 31.3733C23.179 30.9919 22.9121 30.4963 22.8116 29.9434L20.9492 30.4755C21.1285 31.2764 21.5157 31.9968 22.0503 32.582Z" fill="#FF4B55"/>
<path d="M29.991 30.4755L28.1286 29.9434C28.0282 30.4963 27.7612 30.9919 27.3789 31.3733L28.8899 32.582C29.4245 31.9969 29.8118 31.2765 29.991 30.4755Z" fill="#FF4B55"/>
<path d="M22.1849 22.8906H21.4121V24.0497H22.1849V22.8906Z" fill="#FFE15A"/>
<path d="M22.1849 26.7539H21.4121V27.913H22.1849V26.7539Z" fill="#FFE15A"/>
<path d="M22.5716 30.6172H21.7988V31.7763H22.5716V30.6172Z" fill="#FFE15A"/>
<path d="M29.139 30.6172H28.3662V31.7763H29.139V30.6172Z" fill="#FFE15A"/>
<path d="M29.5257 22.8906H28.7529V24.0497H29.5257V22.8906Z" fill="#FFE15A"/>
<path d="M22.1849 24.8105H21.4121V25.9696H22.1849V24.8105Z" fill="#FF4B55"/>
<path d="M29.5257 24.8105H28.7529V25.9696H29.5257V24.8105Z" fill="#FF4B55"/>
<path d="M22.1849 28.6426H21.4121V29.8017H22.1849V28.6426Z" fill="#FF4B55"/>
<path d="M23.8499 32.0605H23.0771V33.2196H23.8499V32.0605Z" fill="#FF4B55"/>
<path d="M27.8587 32.0605H27.0859V33.2196H27.8587V32.0605Z" fill="#FF4B55"/>
<path d="M29.5257 28.6426H28.7529V29.8017H29.5257V28.6426Z" fill="#FF4B55"/>
<path d="M25.8558 22.8906H25.083V24.0497H25.8558V22.8906Z" fill="#FFE15A"/>
<path d="M24.0188 22.8906H23.2461V24.0497H24.0188V22.8906Z" fill="#FF4B55"/>
<path d="M27.6575 22.8906H26.8848V24.0497H27.6575V22.8906Z" fill="#FF4B55"/>
<path d="M29.5267 26.7559H28.7539V27.9149H29.5267V26.7559Z" fill="#FFE15A"/>
<path d="M25.8558 32.5508H25.083V33.7099H25.8558V32.5508Z" fill="#FFE15A"/>
<path d="M25.4693 25.1737C26.215 25.1737 26.8216 25.7803 26.8216 26.526C26.8216 27.2717 26.2149 27.8782 25.4693 27.8782C24.7237 27.8782 24.1171 27.2717 24.1171 26.526C24.1171 25.7804 24.7238 25.1737 25.4693 25.1737ZM25.4693 24.9805C24.6158 24.9805 23.9238 25.6724 23.9238 26.526C23.9238 27.3795 24.6157 28.0715 25.4693 28.0715C26.3229 28.0715 27.0148 27.3796 27.0148 26.526C27.0148 25.6724 26.3229 24.9805 25.4693 24.9805Z" fill="#FFE15A"/>
<path d="M25.236 26.4174C24.8528 26.4174 24.6136 26.5253 24.4639 26.6593C24.5254 26.3559 24.6534 26.031 24.9221 26.031C24.9754 26.031 25.0186 25.9875 25.0186 25.9344C25.0186 25.8812 24.9755 25.8378 24.9221 25.8378C24.6557 25.8378 24.4899 26.0233 24.3862 26.2562C24.3226 24.9892 24.1258 24.9844 24.0528 24.9844C23.9995 24.9844 23.9562 25.0278 23.9562 25.081C23.9562 25.1274 23.9887 25.1659 24.0323 25.1753C24.0727 25.2235 24.1072 25.386 24.1353 25.6113C24.0103 25.3459 23.8286 25.1534 23.5619 25.1534C23.5086 25.1534 23.4653 25.1969 23.4653 25.25C23.4653 25.3031 23.5085 25.3466 23.5619 25.3466C23.8257 25.3466 23.9877 25.6684 24.0844 26.055C23.899 25.7906 23.6193 25.5964 23.2079 25.5964C23.1546 25.5964 23.1113 25.6398 23.1113 25.693C23.1113 25.7461 23.1545 25.7895 23.2079 25.7895C23.6353 25.7895 23.8805 26.036 24.0219 26.3209C23.8562 26.1806 23.6198 26.0793 23.2803 26.0793C23.227 26.0793 23.1837 26.1228 23.1837 26.1759C23.1837 26.229 23.2269 26.2725 23.2803 26.2725C24.1993 26.2725 24.2138 27.1372 24.2139 27.1742C24.2139 27.1882 24.2234 27.1981 24.2288 27.2102C24.2337 27.2208 24.2339 27.2339 24.242 27.2419L24.2422 27.2422C24.2597 27.2597 24.2838 27.2705 24.3103 27.2705H24.3105C24.3205 27.2704 24.327 27.2628 24.3359 27.26C24.3654 27.2508 24.3857 27.2308 24.3955 27.2016C24.3987 27.1921 24.4068 27.1852 24.4069 27.1747C24.4073 27.1517 24.4235 26.6105 25.236 26.6105C25.2894 26.6105 25.3326 26.5671 25.3326 26.514C25.3326 26.4606 25.2894 26.4174 25.236 26.4174Z" fill="#73AF00"/>
<path d="M25.7108 26.4174C26.094 26.4174 26.3333 26.5253 26.483 26.6593C26.4215 26.3559 26.2935 26.031 26.0248 26.031C25.9715 26.031 25.9282 25.9875 25.9282 25.9344C25.9282 25.8812 25.9714 25.8378 26.0248 25.8378C26.2912 25.8378 26.4569 26.0233 26.5606 26.2562C26.6243 24.9892 26.8211 24.9844 26.894 24.9844C26.9474 24.9844 26.9906 25.0278 26.9906 25.081C26.9906 25.1274 26.9582 25.1659 26.9145 25.1753C26.8742 25.2235 26.8396 25.386 26.8116 25.6113C26.9366 25.3459 27.1183 25.1534 27.385 25.1534C27.4383 25.1534 27.4815 25.1969 27.4815 25.25C27.4815 25.3031 27.4384 25.3466 27.385 25.3466C27.1212 25.3466 26.9592 25.6684 26.8625 26.055C27.0478 25.7906 27.3275 25.5964 27.739 25.5964C27.7923 25.5964 27.8355 25.6398 27.8355 25.693C27.8355 25.7461 27.7924 25.7895 27.739 25.7895C27.3116 25.7895 27.0664 26.036 26.925 26.3209C27.0907 26.1806 27.327 26.0793 27.6666 26.0793C27.7199 26.0793 27.7632 26.1228 27.7632 26.1759C27.7632 26.229 27.72 26.2725 27.6666 26.2725C26.7476 26.2725 26.7331 27.1372 26.733 27.1742C26.733 27.1882 26.7234 27.1981 26.7181 27.2102C26.7132 27.2208 26.713 27.2339 26.7049 27.2419L26.7047 27.2422C26.6872 27.2597 26.6631 27.2705 26.6365 27.2705H26.6363C26.6264 27.2704 26.6199 27.2628 26.6109 27.26C26.5814 27.2508 26.5611 27.2308 26.5514 27.2016C26.5481 27.1921 26.54 27.1852 26.5399 27.1747C26.5396 27.1517 26.5233 26.6105 25.7108 26.6105C25.6575 26.6105 25.6143 26.5671 25.6143 26.514C25.6143 26.4606 25.6574 26.4174 25.7108 26.4174Z" fill="#73AF00"/>
<path d="M23.9785 26.9121C24.1508 27.5775 24.7501 28.0712 25.4693 28.0712C26.1886 28.0712 26.7878 27.5775 26.9601 26.9121H23.9785V26.9121Z" fill="#FF4B55"/>
<path d="M25.4688 28.0712C26.1881 28.0712 26.7872 27.5775 26.9596 26.9121H25.4688V28.0712Z" fill="#FFE15A"/>
<path d="M25.4693 28.6754C26.215 28.6754 26.8216 29.2819 26.8216 30.0276C26.8216 30.7733 26.2149 31.3799 25.4693 31.3799C24.7237 31.3799 24.1171 30.7733 24.1171 30.0276C24.1171 29.2821 24.7238 28.6754 25.4693 28.6754ZM25.4693 28.4824C24.6158 28.4824 23.9238 29.1743 23.9238 30.0279C23.9238 30.8814 24.6157 31.5734 25.4693 31.5734C26.3229 31.5734 27.0148 30.8815 27.0148 30.0279C27.0148 29.1742 26.3229 28.4824 25.4693 28.4824Z" fill="#FFE15A"/>
<path d="M25.236 29.9193C24.8528 29.9193 24.6136 30.0272 24.4639 30.1612C24.5254 29.8578 24.6534 29.5329 24.9221 29.5329C24.9754 29.5329 25.0186 29.4895 25.0186 29.4363C25.0186 29.3831 24.9755 29.3397 24.9221 29.3397C24.6557 29.3397 24.4899 29.5253 24.3862 29.7581C24.3226 28.4911 24.1258 28.4863 24.0528 28.4863C23.9995 28.4863 23.9562 28.5298 23.9562 28.5829C23.9562 28.6294 23.9887 28.6679 24.0323 28.6772C24.0727 28.7255 24.1072 28.888 24.1353 29.1133C24.0103 28.8478 23.8286 28.6554 23.5619 28.6554C23.5086 28.6554 23.4653 28.6988 23.4653 28.752C23.4653 28.8052 23.5085 28.8485 23.5619 28.8485C23.8257 28.8485 23.9877 29.1703 24.0844 29.5569C23.899 29.2926 23.6193 29.0983 23.2079 29.0983C23.1546 29.0983 23.1113 29.1418 23.1113 29.1949C23.1113 29.2481 23.1545 29.2915 23.2079 29.2915C23.6353 29.2915 23.8805 29.538 24.0219 29.8228C23.8562 29.6825 23.6198 29.5812 23.2803 29.5812C23.227 29.5812 23.1837 29.6247 23.1837 29.6778C23.1837 29.731 23.2269 29.7744 23.2803 29.7744C24.1993 29.7744 24.2138 30.6392 24.2139 30.6762C24.2139 30.6901 24.2234 30.7001 24.2288 30.712C24.2337 30.7226 24.2339 30.7356 24.242 30.7436L24.2422 30.7439C24.2597 30.7614 24.2838 30.7723 24.3103 30.7723H24.3105C24.3205 30.7722 24.327 30.7645 24.3359 30.7617C24.3654 30.7525 24.3857 30.7325 24.3955 30.7033C24.3987 30.6938 24.4068 30.687 24.4069 30.6765C24.4073 30.6534 24.4235 30.1123 25.236 30.1123C25.2894 30.1123 25.3326 30.0688 25.3326 30.0157C25.3326 29.9628 25.2894 29.9193 25.236 29.9193Z" fill="#73AF00"/>
<path d="M25.7108 29.9193C26.094 29.9193 26.3333 30.0272 26.483 30.1612C26.4215 29.8578 26.2935 29.5329 26.0248 29.5329C25.9715 29.5329 25.9282 29.4895 25.9282 29.4363C25.9282 29.3831 25.9714 29.3397 26.0248 29.3397C26.2912 29.3397 26.4569 29.5253 26.5606 29.7581C26.6243 28.4911 26.8211 28.4863 26.894 28.4863C26.9474 28.4863 26.9906 28.5298 26.9906 28.5829C26.9906 28.6294 26.9582 28.6679 26.9145 28.6772C26.8742 28.7255 26.8396 28.888 26.8116 29.1133C26.9366 28.8478 27.1183 28.6554 27.385 28.6554C27.4383 28.6554 27.4815 28.6988 27.4815 28.752C27.4815 28.8052 27.4384 28.8485 27.385 28.8485C27.1212 28.8485 26.9592 29.1703 26.8625 29.5569C27.0478 29.2926 27.3275 29.0983 27.739 29.0983C27.7923 29.0983 27.8355 29.1418 27.8355 29.1949C27.8355 29.2481 27.7924 29.2915 27.739 29.2915C27.3116 29.2915 27.0664 29.538 26.925 29.8228C27.0907 29.6825 27.327 29.5812 27.6666 29.5812C27.7199 29.5812 27.7632 29.6247 27.7632 29.6778C27.7632 29.731 27.72 29.7744 27.6666 29.7744C26.7476 29.7744 26.7331 30.6392 26.733 30.6762C26.733 30.6901 26.7234 30.7001 26.7181 30.712C26.7132 30.7226 26.713 30.7356 26.7049 30.7436L26.7047 30.7439C26.6872 30.7614 26.6631 30.7723 26.6365 30.7723H26.6363C26.6264 30.7722 26.6199 30.7645 26.6109 30.7617C26.5814 30.7525 26.5611 30.7325 26.5514 30.7033C26.5481 30.6938 26.54 30.687 26.5399 30.6765C26.5396 30.6534 26.5233 30.1123 25.7108 30.1123C25.6575 30.1123 25.6143 30.0688 25.6143 30.0157C25.6143 29.9628 25.6574 29.9193 25.7108 29.9193Z" fill="#73AF00"/>
<path d="M23.9785 30.4141C24.1508 31.0795 24.7501 31.5731 25.4693 31.5731C26.1886 31.5731 26.7878 31.0795 26.9601 30.4141H23.9785Z" fill="#FF4B55"/>
<path d="M25.4697 31.5731C26.1891 31.5731 26.7882 31.0795 26.9605 30.4141H25.4697V31.5731Z" fill="#FFE15A"/>
<path d="M20.0617 23.6633V22.8906H18.1299V23.6633H18.5162V32.1634H18.1299V32.936H18.5162H19.6753H20.0617V32.1634H19.6753V23.6633H20.0617Z" fill="#F5F5F5"/>
<path d="M32.8117 23.6633V22.8906H30.8799V23.6633H31.2662V32.1634H30.8799V32.936H31.2662H32.4253H32.8117V32.1634H32.4253V23.6633H32.8117Z" fill="#F5F5F5"/>
<path d="M29.719 22.5045H21.219C20.7923 22.5045 20.4463 22.1585 20.4463 21.7317C20.4463 21.305 20.7923 20.959 21.219 20.959H29.719C30.1458 20.959 30.4918 21.305 30.4918 21.7317C30.4918 22.1586 30.1459 22.5045 29.719 22.5045Z" fill="#FFE15A"/>
<path d="M25.7589 22.0229H25.1794C25.0193 22.0229 24.8896 21.8931 24.8896 21.7331C24.8896 21.573 25.0194 21.4434 25.1794 21.4434H25.7589C25.9189 21.4434 26.0486 21.5731 26.0486 21.7331C26.0486 21.8931 25.9188 22.0229 25.7589 22.0229Z" fill="#FF4B55"/>
<path d="M28.6583 22.0229H28.0788C27.9187 22.0229 27.7891 21.8931 27.7891 21.7331C27.7891 21.573 27.9188 21.4434 28.0788 21.4434H28.6583C28.8184 21.4434 28.948 21.5731 28.948 21.7331C28.9481 21.8931 28.8184 22.0229 28.6583 22.0229Z" fill="#73AF00"/>
<path d="M22.8624 22.0229H22.2829C22.1229 22.0229 21.9932 21.8931 21.9932 21.7331C21.9932 21.573 22.1229 21.4434 22.2829 21.4434H22.8624C23.0225 21.4434 23.1521 21.5731 23.1521 21.7331C23.1522 21.8931 23.0226 22.0229 22.8624 22.0229Z" fill="#73AF00"/>
<path d="M30.8944 19.3569L30.3309 19.5501L30.3852 20.0876C29.763 20.7947 29.4507 20.8403 29.3221 20.7956C29.1629 20.7406 29.0895 20.5138 29.0599 20.3399L29.2925 20.5725C30.4515 19.4134 29.7875 17.7109 29.7875 17.7109C29.4615 17.7713 29.3166 18.0731 29.3166 18.0731C29.0147 18.049 28.7009 18.0731 28.7009 18.0731C28.6767 18.3388 28.7733 18.713 28.7733 18.713C28.1107 18.8496 27.838 19.2087 27.838 19.2087C27.9516 19.5269 28.3146 19.7996 28.3146 19.7996C28.206 20.0652 28.3388 20.3791 28.3388 20.3791C28.5046 20.3791 28.648 20.3291 28.7495 20.2801C28.3168 20.8195 28.1131 20.8324 28.044 20.8064C27.8349 20.7289 27.7819 20.1114 27.8113 19.6977C27.8143 19.6555 27.7892 19.6161 27.7497 19.6008C27.7104 19.586 27.6653 19.598 27.6389 19.6313L27.3057 20.0561C25.9153 18.2037 27.0147 17.095 27.0147 17.095V16.3223H26.6284V16.7086H26.2973V16.3223H25.9661V16.7086H25.6349V16.3223H25.3038V16.7086H24.9726V16.3223H24.6415V16.7086H24.3103V16.3223H23.924V17.095C23.924 17.095 25.0233 18.2035 23.633 20.0561L23.2998 19.6313C23.2734 19.5977 23.2282 19.5853 23.1891 19.6008C23.1494 19.6161 23.1244 19.6556 23.1274 19.6977C23.1568 20.1114 23.1041 20.7288 22.8947 20.8064C22.8254 20.8315 22.6214 20.8191 22.1878 20.2782C22.2894 20.328 22.4341 20.3792 22.6021 20.3792C22.6021 20.3792 22.7351 20.0653 22.6263 19.7997C22.6263 19.7997 22.9892 19.5269 23.1029 19.2088C23.1029 19.2088 22.8302 18.8497 22.1676 18.7131C22.1676 18.7131 22.2642 18.3389 22.24 18.0732C22.24 18.0732 21.9262 18.0491 21.6243 18.0732C21.6243 18.0732 21.4794 17.7714 21.1534 17.711C21.1534 17.711 20.4893 19.4134 21.6484 20.5725L21.8783 20.3427C21.8484 20.5163 21.7751 20.741 21.6167 20.7958C21.4874 20.8406 21.1762 20.795 20.5555 20.0901L20.61 19.5504L20.0465 19.3572C19.7567 18.4799 19.0645 18.5845 19.0645 18.5845C19.5232 18.9789 19.6198 19.985 19.6198 19.985L20.8111 21.144L20.8756 20.9589C20.8489 20.8041 20.8075 20.683 20.7629 20.585C21.1366 20.9302 21.44 21.0623 21.6802 20.9781C21.9159 20.8965 22.0159 20.6301 22.0582 20.429C22.3751 20.8206 22.6297 21.0091 22.8423 21.0091C22.8838 21.0091 22.9236 21.0018 22.9619 20.9875C23.2657 20.8751 23.3243 20.3392 23.3286 19.981L23.5379 20.2478V20.9589H25.0834C25.0834 20.7455 25.2563 20.5725 25.4697 20.5725C25.6831 20.5725 25.856 20.7455 25.856 20.9589H27.4015V20.2478L27.6108 19.981C27.6151 20.3392 27.6739 20.8751 27.9775 20.9875C28.0158 21.0018 28.0556 21.0091 28.0972 21.0091C28.3097 21.0091 28.5642 20.8204 28.8812 20.429C28.9235 20.6301 29.0235 20.8965 29.2593 20.9781C29.5006 21.0623 29.805 20.9294 30.1801 20.5819C30.135 20.6806 30.0929 20.8025 30.0659 20.959L30.1303 21.1441L31.3217 19.9851C31.3217 19.9851 31.4182 18.9789 31.877 18.5846C31.8763 18.5842 31.1842 18.4796 30.8944 19.3569Z" fill="#FFE15A"/>
<path d="M24.0202 22.0229C23.8602 22.0229 23.7305 21.8931 23.7305 21.7331C23.7305 21.573 23.8603 21.4434 24.0202 21.4434C24.1803 21.4434 24.31 21.5731 24.31 21.7331C24.31 21.8931 24.1802 22.0229 24.0202 22.0229Z" fill="#F5F5F5"/>
<path d="M26.9187 22.0229C26.7586 22.0229 26.6289 21.8931 26.6289 21.7331C26.6289 21.573 26.7587 21.4434 26.9187 21.4434C27.0787 21.4434 27.2084 21.5731 27.2084 21.7331C27.2085 21.8931 27.0787 22.0229 26.9187 22.0229Z" fill="#F5F5F5"/>
<path d="M29.8181 22.0229C29.658 22.0229 29.5283 21.8931 29.5283 21.7331C29.5283 21.573 29.6581 21.4434 29.8181 21.4434C29.9781 21.4434 30.1078 21.5731 30.1078 21.7331C30.1078 21.8931 29.9781 22.0229 29.8181 22.0229Z" fill="#FF4B55"/>
<path d="M21.1247 22.0229C20.9646 22.0229 20.835 21.8931 20.835 21.7331C20.835 21.573 20.9647 21.4434 21.1247 21.4434C21.2848 21.4434 21.4145 21.5731 21.4145 21.7331C21.4145 21.8931 21.2847 22.0229 21.1247 22.0229Z" fill="#FF4B55"/>
<path d="M25.4684 19.0285C25.6817 19.0285 25.8547 18.8555 25.8547 18.6422C25.8547 18.4288 25.6817 18.2559 25.4684 18.2559C25.255 18.2559 25.082 18.4288 25.082 18.6422C25.082 18.8555 25.255 19.0285 25.4684 19.0285Z" fill="#F5F5F5"/>
<path d="M21.5195 18.9973C21.3858 19.031 21.3092 19.1841 21.3484 19.3393C21.3875 19.4944 21.5276 19.5929 21.6613 19.5591C21.795 19.5254 21.8716 19.3723 21.8324 19.2171C21.7933 19.062 21.6532 18.9635 21.5195 18.9973Z" fill="#F5F5F5"/>
<path d="M29.2789 19.5585C29.4126 19.5922 29.5527 19.4938 29.5918 19.3386C29.631 19.1835 29.5544 19.0304 29.4207 18.9966C29.2871 18.9629 29.147 19.0613 29.1078 19.2165C29.0687 19.3716 29.1453 19.5248 29.2789 19.5585Z" fill="#F5F5F5"/>
<path d="M20.8321 26.2436C20.4672 26.1746 19.981 26.1242 19.4473 26.1805C18.9245 26.2356 18.314 26.3981 17.7412 26.7872V29.2345C18.5409 27.3016 20.3243 27.6752 20.8321 27.8286V26.2436Z" fill="#F5F5F5"/>
<path d="M30.1045 26.2436C30.4694 26.1746 30.9557 26.1242 31.4894 26.1805C32.0121 26.2356 32.6227 26.3981 33.1954 26.7872V29.2345C32.3957 27.3016 30.6123 27.6752 30.1045 27.8286V26.2436V26.2436Z" fill="#F5F5F5"/>
<path d="M23.3613 32.7815C23.3613 32.7815 22.945 33.4349 22.7343 33.4981C22.7343 33.4981 22.4486 33.7062 22.3906 33.6853L23.393 32.5234L23.3613 32.7815Z" fill="#FF4B55"/>
<path d="M23.3244 33.1586C23.1285 33.1376 22.9745 33.2495 22.8766 33.3825C22.7786 33.5155 22.5147 33.5592 22.4874 33.3865C22.4628 33.2311 23.0102 32.7456 23.0102 32.7456C23.0102 32.7456 22.9192 32.5819 22.6692 32.6456C22.4315 32.7061 22.1978 33.0885 22.1978 33.0885C22.1978 33.0885 21.9602 32.9956 21.7692 33.1545L20.9521 34.0892C20.9521 34.0892 21.9558 34.9466 23.2335 33.6833L23.0166 33.6132C23.0864 33.3475 23.3244 33.1586 23.3244 33.1586Z" fill="#73AF00"/>
<path d="M22.1183 33.4943C22.1706 33.4943 22.2131 33.4519 22.2131 33.3995C22.2131 33.3471 22.1706 33.3047 22.1183 33.3047C22.0659 33.3047 22.0234 33.3471 22.0234 33.3995C22.0234 33.4519 22.0659 33.4943 22.1183 33.4943Z" fill="#F5F5F5"/>
<path d="M18.1279 16.8683C19.3147 16.8642 20.4925 17.0716 21.6052 17.483V16.2724C20.4884 15.8873 19.3115 15.7045 18.1279 15.7334V16.8683Z" fill="#F5F5F5"/>
<path d="M27.7867 15.5506C26.2629 15.1848 24.6741 15.1848 23.1504 15.5506C23.1504 15.1643 23.1504 14.7779 23.1504 14.3916C24.6742 14.0257 26.263 14.0257 27.7867 14.3916C27.7867 14.7779 27.7867 15.1642 27.7867 15.5506Z" fill="#F5F5F5"/>
<path d="M23.5362 14.668C22.591 14.7558 21.66 14.9771 20.7725 15.3315C20.828 15.7139 20.8836 16.0963 20.9392 16.4786C21.7743 16.1451 22.6484 15.9319 23.5362 15.8342V14.668Z" fill="#F5F5F5"/>
<path d="M17.7412 18.1901C18.2676 18.0432 18.8035 17.9349 19.346 17.8753V16.709C18.8042 16.7593 18.2683 16.8588 17.7412 16.9967V18.1901Z" fill="#F5F5F5"/>
<path d="M32.8093 16.8683C31.6225 16.8642 30.4447 17.0716 29.332 17.483V16.2724C30.4488 15.8873 31.6257 15.7045 32.8093 15.7334V16.8683V16.8683Z" fill="#F5F5F5"/>
<path d="M27.4004 14.668C28.3456 14.7558 29.2767 14.9771 30.1642 15.3315C30.1086 15.7139 30.053 16.0963 29.9975 16.4786C29.1623 16.1451 28.2882 15.9319 27.4004 15.8342V14.668Z" fill="#F5F5F5"/>
<path d="M33.1956 18.1901C32.6692 18.0432 32.1333 17.9349 31.5908 17.8753V16.709C32.1326 16.7593 32.6686 16.8588 33.1956 16.9967V18.1901Z" fill="#F5F5F5"/>
</g>
<defs>
<clipPath id="clip0_3462_30452">
<rect width="50" height="50" fill="white" transform="translate(0.46875 0.443359)"/>
</clipPath>
</defs>
</svg>
