<svg width="51" height="51" viewBox="0 0 51 51" fill="none" xmlns="http://www.w3.org/2000/svg">
<g clip-path="url(#clip0_3462_30427)">
<path d="M17.5651 41.5536H1.76055C1.28447 41.5536 0.898438 41.1676 0.898438 40.6915V9.65703C0.898438 9.18096 1.28447 8.79492 1.76055 8.79492H17.5651V41.5536Z" fill="#73AF00"/>
<path d="M34.2324 8.79492H17.5654V41.5537H34.2324V8.79492Z" fill="#F5F5F5"/>
<path d="M50.036 41.5535H34.2314V8.79492H50.036C50.5121 8.79492 50.8981 9.18096 50.8981 9.65703V40.6915C50.8981 41.1677 50.5121 41.5535 50.036 41.5535Z" fill="#FF4B55"/>
<path d="M27.3853 25.9453L25.8984 26.6889V27.4323H26.6419L27.3853 25.9453Z" fill="#FFD250"/>
<path d="M25.8962 29.289C25.6907 29.289 25.5244 29.1227 25.5244 28.9172V27.4304C25.5244 27.2249 25.6907 27.0586 25.8962 27.0586C26.1017 27.0586 26.268 27.2249 26.268 27.4304V28.9172C26.268 29.1227 26.1017 29.289 25.8962 29.289Z" fill="#00C3A0"/>
<path d="M25.8964 27.8023C24.4363 27.8023 23.0265 27.2389 21.9263 26.216C21.776 26.0762 21.7673 25.841 21.9069 25.6908C22.0478 25.5409 22.2827 25.5329 22.4321 25.6715C23.3944 26.5663 24.6247 27.0589 25.8963 27.0589C27.1679 27.0589 28.3981 26.5663 29.3604 25.6715C29.5103 25.5325 29.7452 25.5401 29.8856 25.6908C30.0254 25.8411 30.0167 26.0763 29.8663 26.216C28.7663 27.239 27.3564 27.8023 25.8964 27.8023Z" fill="#00C3A0"/>
<path d="M25.898 29.29C24.9451 29.29 24.0221 29.0116 23.2285 28.4846L23.6401 27.8652C24.9818 28.7567 26.8143 28.7567 28.1559 27.8652L28.5675 28.4846C27.774 29.0117 26.851 29.29 25.898 29.29Z" fill="#00AADC"/>
<path d="M25.3099 24.2715L24.4891 25.5417L24.3496 25.9598L26.487 25.4642L25.3099 24.2715Z" fill="#732D37"/>
<path d="M23.6234 26.3686C22.6408 26.3686 21.4613 25.5416 21.1484 23.699L21.8817 23.5749C22.1417 25.1071 23.0843 25.6262 23.6503 25.6248C23.8238 25.62 24.0049 25.5602 24.0191 25.4375C24.0358 25.2908 24.0398 25.2561 23.6511 25.1246C23.4397 25.053 23.2002 24.9722 23.0321 24.7798C22.3521 24.0033 23.2728 23.1815 23.715 22.7866C23.7931 22.7169 23.8254 22.6577 23.8171 22.6353C23.7928 22.5717 23.6469 22.4756 23.4824 22.4756C23.0102 22.4756 22.6519 22.2088 22.5478 21.7797C22.4395 21.3354 22.6439 20.8671 23.0331 20.666L23.3744 21.3267C23.2832 21.3738 23.2471 21.5081 23.2702 21.604C23.2793 21.6425 23.3015 21.7321 23.4826 21.7321C23.9378 21.7321 24.3709 22.0008 24.5117 22.3703C24.572 22.5278 24.6627 22.9373 24.2104 23.3413C23.7222 23.7773 23.43 24.1055 23.5919 24.2902C23.6285 24.3319 23.7857 24.3854 23.8895 24.4202C24.2242 24.5335 24.8472 24.744 24.7579 25.5227C24.702 26.0123 24.2649 26.352 23.6711 26.3682C23.6551 26.3682 23.6391 26.3686 23.6234 26.3686Z" fill="#AAD264"/>
<path d="M26.6419 22.2275C26.6419 22.2275 27.3854 20.7407 25.8984 19.9972C25.8984 19.9972 31.1024 19.2538 30.359 25.9447L30.3587 25.9444C29.8708 25.5541 29.1464 24.8407 28.8877 24.2719L26.6419 22.9709V22.2275Z" fill="#874150"/>
<path d="M25.8984 23.7148L29.6155 25.9451C29.6155 25.9451 29.6155 25.9451 28.1287 26.6886L25.8984 24.4584V23.7148Z" fill="#732D37"/>
<path d="M24.4111 21.4836C24.8217 21.4836 25.1546 21.8165 25.1546 22.2271L25.1538 22.2278C24.7103 22.6714 24.6004 23.3488 24.8809 23.9099L25.0488 24.2459C25.1188 24.3859 25.211 24.5139 25.3218 24.6246L27.385 26.6878V25.6604C27.385 24.3804 27.087 23.118 26.5146 21.9731C26.1367 21.2176 25.3645 20.7402 24.5197 20.7402H24.4112V21.4838H24.4111V21.4836V21.4836Z" fill="#783C46"/>
<path d="M24.4114 20.7402L23.668 21.4837V22.2271C23.668 22.2271 24.5523 21.7788 24.8504 21.6359C25.0587 21.5361 25.0208 21.3001 24.9013 21.1863C24.8082 21.0979 24.4114 20.7402 24.4114 20.7402Z" fill="#FFD250"/>
<path d="M25.8982 30.7762C22.4138 30.7762 19.5791 27.9415 19.5791 24.457H20.3226C20.3226 27.5317 22.8236 30.0328 25.8983 30.0328C28.973 30.0328 31.4741 27.5317 31.4741 24.457H32.2176C32.2174 27.9415 29.3827 30.7762 25.8982 30.7762Z" fill="#AAD264"/>
<path d="M20.3648 27.1691C20.6435 27.1691 20.8693 26.9433 20.8693 26.6646C20.8693 26.386 20.6435 26.1602 20.3648 26.1602C20.0862 26.1602 19.8604 26.386 19.8604 26.6646C19.8604 26.9433 20.0862 27.1691 20.3648 27.1691Z" fill="#FFE15A"/>
<path d="M21.4801 28.9504C21.7587 28.9504 21.9846 28.7245 21.9846 28.4459C21.9846 28.1673 21.7587 27.9414 21.4801 27.9414C21.2015 27.9414 20.9756 28.1673 20.9756 28.4459C20.9756 28.7245 21.2015 28.9504 21.4801 28.9504Z" fill="#FFE15A"/>
<path d="M23.2916 30.2961C23.5702 30.2961 23.7961 30.0702 23.7961 29.7916C23.7961 29.513 23.5702 29.2871 23.2916 29.2871C23.013 29.2871 22.7871 29.513 22.7871 29.7916C22.7871 30.0702 23.013 30.2961 23.2916 30.2961Z" fill="#FFE15A"/>
<path d="M31.4889 27.1691C31.7675 27.1691 31.9934 26.9433 31.9934 26.6646C31.9934 26.386 31.7675 26.1602 31.4889 26.1602C31.2102 26.1602 30.9844 26.386 30.9844 26.6646C30.9844 26.9433 31.2102 27.1691 31.4889 27.1691Z" fill="#FFE15A"/>
<path d="M30.3727 28.9504C30.6513 28.9504 30.8771 28.7245 30.8771 28.4459C30.8771 28.1673 30.6513 27.9414 30.3727 27.9414C30.094 27.9414 29.8682 28.1673 29.8682 28.4459C29.8682 28.7245 30.094 28.9504 30.3727 28.9504Z" fill="#FFE15A"/>
<path d="M28.5611 30.2961C28.8398 30.2961 29.0656 30.0702 29.0656 29.7916C29.0656 29.513 28.8398 29.2871 28.5611 29.2871C28.2825 29.2871 28.0566 29.513 28.0566 29.7916C28.0566 30.0702 28.2825 30.2961 28.5611 30.2961Z" fill="#FFE15A"/>
<path d="M26.2701 29.6627H25.5267C25.1161 29.6627 24.7832 29.3298 24.7832 28.9192C24.7832 28.5087 25.1161 28.1758 25.5267 28.1758H26.2701C26.6807 28.1758 27.0136 28.5087 27.0136 28.9192C27.0136 29.3299 26.6807 29.6627 26.2701 29.6627Z" fill="#FFB478"/>
<path d="M28.8877 24.2718C29.1355 24.9998 29.6621 25.6658 30.3587 25.9443L30.359 25.9446C31.1024 19.2539 25.8984 19.9972 25.8984 19.9972C29.6155 19.9972 28.8877 24.2718 28.8877 24.2718Z" fill="#9B4B5A"/>
</g>
<defs>
<clipPath id="clip0_3462_30427">
<rect width="50" height="50" fill="white" transform="translate(0.898438 0.173828)"/>
</clipPath>
</defs>
</svg>
