<svg width="51" height="51" viewBox="0 0 51 51" fill="none" xmlns="http://www.w3.org/2000/svg">
<g clip-path="url(#clip0_3462_30420)">
<path d="M49.3302 41.8231H1.05449C0.578417 41.8231 0.192383 41.4371 0.192383 40.961V9.92656C0.192383 9.45049 0.578417 9.06445 1.05449 9.06445H49.3303C49.8064 9.06445 50.1924 9.45049 50.1924 9.92656V40.961C50.1923 41.4371 49.8063 41.8231 49.3302 41.8231Z" fill="#82AFFF"/>
<path d="M25.0796 13.781L24.4154 15.7724L22.3163 15.7887C22.2013 15.7896 22.1535 15.9365 22.2461 16.005L23.9348 17.2519L23.3016 19.2533C23.2669 19.363 23.3918 19.4539 23.4854 19.3869L25.1931 18.1662L26.901 19.3869C26.9946 19.4538 27.1195 19.3631 27.0848 19.2533L26.4516 17.2519L28.1402 16.005C28.2328 15.9366 28.1851 15.7897 28.07 15.7887L25.9709 15.7724L25.3067 13.781C25.2704 13.6719 25.1159 13.6719 25.0796 13.781Z" fill="#F5F5F5"/>
<path d="M25.0796 31.5604L24.4154 33.5518L22.3163 33.5681C22.2013 33.569 22.1535 33.7159 22.2461 33.7843L23.9348 35.0313L23.3016 37.0327C23.2669 37.1423 23.3918 37.2332 23.4854 37.1662L25.1931 35.9455L26.901 37.1662C26.9946 37.2331 27.1195 37.1424 27.0848 37.0327L26.4516 35.0313L28.1402 33.7843C28.2328 33.716 28.1851 33.5691 28.07 33.5681L25.9709 33.5518L25.3067 31.5604C25.2704 31.4512 25.1159 31.4512 25.0796 31.5604Z" fill="#F5F5F5"/>
<path d="M36.8562 25.3315L34.8648 24.6674L34.8485 22.5683C34.8476 22.4532 34.7008 22.4055 34.6323 22.4981L33.3853 24.1867L31.384 23.5535C31.2743 23.5189 31.1835 23.6438 31.2504 23.7373L32.4711 25.445L31.2504 27.1529C31.1835 27.2466 31.2742 27.3715 31.384 27.3367L33.3853 26.7035L34.6323 28.3922C34.7007 28.4848 34.8475 28.437 34.8485 28.322L34.8648 26.2229L36.8562 25.5587C36.9653 25.5224 36.9653 25.3679 36.8562 25.3315Z" fill="#F5F5F5"/>
<path d="M13.5301 25.3315L15.5215 24.6674L15.5378 22.5683C15.5386 22.4532 15.6855 22.4055 15.754 22.4981L17.0009 24.1867L19.0023 23.5535C19.112 23.5189 19.2029 23.6438 19.1359 23.7373L17.9152 25.4451L19.1359 27.153C19.2028 27.2467 19.1121 27.3716 19.0023 27.3368L17.0009 26.7036L15.754 28.3923C15.6856 28.4849 15.5387 28.4371 15.5378 28.3221L15.5215 26.223L13.5301 25.5588C13.421 25.5224 13.421 25.3679 13.5301 25.3315Z" fill="#F5F5F5"/>
</g>
<defs>
<clipPath id="clip0_3462_30420">
<rect width="50" height="50" fill="white" transform="translate(0.191406 0.443359)"/>
</clipPath>
</defs>
</svg>
