<svg width="51" height="51" viewBox="0 0 51 51" fill="none" xmlns="http://www.w3.org/2000/svg">
<g clip-path="url(#clip0_3462_30370)">
<path d="M33.9375 9.22266H49.7421C50.2182 9.22266 50.6042 9.60869 50.6042 10.0848V41.1192C50.6042 41.5953 50.2182 41.9813 49.7421 41.9813H33.9375V9.22266Z" fill="#FF4B55"/>
<path d="M33.9385 9.22266H17.2715V41.9814H33.9385V9.22266Z" fill="#FFE15A"/>
<path d="M1.4666 9.22266H17.2712V41.9812H1.4666C0.990527 41.9812 0.604492 41.5952 0.604492 41.1191V10.0847C0.604492 9.60859 0.990527 9.22266 1.4666 9.22266Z" fill="#41479B"/>
<path d="M28.6591 31.5098L29.0879 31.1602L27.1337 28.7634L26.7049 29.1131L28.6591 31.5098Z" fill="#FFCD5A"/>
<path d="M27.3493 30.3433L28.207 29.6445L27.3474 28.5893L26.4896 29.2881L27.3493 30.3433Z" fill="#FFBE5A"/>
<path d="M24.7433 29.1133L24.3145 28.7637L22.3603 31.1604L22.7891 31.5101L24.7433 29.1133Z" fill="#FFCD5A"/>
<path d="M24.9574 29.2886L24.0996 28.5898L23.24 29.6451L24.0977 30.3438L24.9574 29.2886Z" fill="#FFBE5A"/>
<path d="M25.0325 29.6621L23.6494 32.4284L25.5857 33.8115V29.9388L25.0325 29.6621Z" fill="#FFE15A"/>
<path d="M26.1383 29.6621L27.5214 32.4284L25.585 33.8115V29.9388L26.1383 29.6621Z" fill="#FFCD5A"/>
<path d="M21.7129 29.6631V22.4707H22.5428C22.5428 22.4707 22.5428 27.1734 22.5428 28.0032C22.5428 28.8332 21.7129 29.6631 21.7129 29.6631Z" fill="#FFBE5A"/>
<path d="M21.1592 31.0463V22.4707H21.9891C21.9891 22.4707 21.9891 28.5565 21.9891 29.3864C21.989 30.2163 21.1592 31.0463 21.1592 31.0463Z" fill="#FFCD5A"/>
<path d="M20.6064 32.1527V22.4707H21.4363C21.4363 22.4707 21.4363 29.6631 21.4363 30.493C21.4363 31.3228 20.6064 32.1527 20.6064 32.1527Z" fill="#FFE15A"/>
<path d="M22.542 22.7461C22.542 22.7461 22.542 26.688 22.542 28.0021C22.542 29.3853 24.5476 29.2008 25.5849 30.215C26.6223 29.2007 28.6277 29.3852 28.6277 28.0021C28.6277 26.6881 28.6277 22.7461 28.6277 22.7461H22.542Z" fill="#FF4B55"/>
<path d="M22.542 25.7892C22.542 26.6649 22.542 27.5146 22.542 28.0022C22.542 29.3855 24.5476 29.201 25.5849 30.2152C26.6223 29.2009 28.6277 29.3854 28.6277 28.0022C28.6277 27.5146 28.6277 26.6648 28.6277 25.7891L22.542 25.7892Z" fill="#41479B"/>
<path d="M25.5843 29.387L24.7544 28.8338V28.5571L25.0311 28.2806V26.6207L24.2012 26.0675L25.0311 24.9609H25.3076L25.5843 25.2377L25.8609 24.9609H26.1376L26.9675 26.0675L26.1376 26.6207V28.2806L26.4142 28.5571V28.8338L25.5843 29.387Z" fill="#FFE15A"/>
<path d="M24.4785 23.0234C24.4785 23.0234 23.3721 23.3001 23.3721 24.4066C23.3721 25.5132 24.4785 26.0664 24.4785 26.0664L25.0317 25.2365C23.372 24.6832 24.4785 23.0234 24.4785 23.0234Z" fill="#FFE15A"/>
<path d="M26.6909 23.0234C26.6909 23.0234 27.7974 23.3001 27.7974 24.4066C27.7974 25.5132 26.6909 26.0664 26.6909 26.0664L26.1377 25.2365C27.7974 24.6832 26.6909 23.0234 26.6909 23.0234Z" fill="#FFE15A"/>
<path d="M22.8184 25.7903L23.3716 26.0669L23.9249 25.7903L23.3716 25.5137L22.8184 25.7903Z" fill="#FFE15A"/>
<path d="M27.2441 25.7903L27.7974 26.0669L28.3507 25.7903L27.7974 25.5137L27.2441 25.7903Z" fill="#FFE15A"/>
<path d="M25.5851 23.1621L25.7862 23.3682L26.074 23.3646L26.0707 23.6525L26.2767 23.8537L26.0707 24.0548L26.074 24.3427L25.7862 24.3393L25.5851 24.5453L25.384 24.3393L25.096 24.3427L25.0995 24.0548L24.8936 23.8537L25.0995 23.6525L25.096 23.3646L25.384 23.3682L25.5851 23.1621Z" fill="#FFE15A"/>
<path d="M23.7067 26.9978L23.9061 27.2197L24.1835 27.1097C24.3271 27.0528 24.4619 27.209 24.3846 27.3427L24.2352 27.601L24.4256 27.8309C24.5241 27.9499 24.4172 28.1264 24.2661 28.0942L23.9743 28.0319L23.8145 28.284C23.7318 28.4144 23.5309 28.3673 23.5148 28.2135L23.4838 27.9168L23.1948 27.8427C23.0451 27.8044 23.0279 27.5988 23.169 27.5361L23.4417 27.415L23.4228 27.1173C23.4134 26.9628 23.6035 26.8829 23.7067 26.9978Z" fill="#FFE15A"/>
<path d="M27.3903 27.628C27.4514 27.3134 27.7109 27.0906 28.0136 27.057C27.9515 27.0236 27.8855 26.996 27.8127 26.9819C27.4252 26.9068 27.0502 27.1601 26.9751 27.5475C26.9 27.935 27.1531 28.31 27.5406 28.3851C27.6135 28.3992 27.6851 28.3983 27.755 28.3905C27.4869 28.2463 27.3294 27.9427 27.3903 27.628Z" fill="#FFE15A"/>
<path d="M24.478 22.7472L25.0313 19.9809L23.9248 19.151L24.2015 18.8743H24.7547C24.7547 18.8743 25.0313 18.5977 25.5846 18.5977C26.1378 18.5977 26.691 18.8743 26.691 19.7041C26.691 20.5339 26.9677 22.747 26.9677 22.747H24.478V22.7472V22.7472Z" fill="#FFE15A"/>
<path d="M22.543 21.6406C21.9318 21.6406 21.4365 22.136 21.4365 22.7471H23.6496C23.6495 22.136 23.154 21.6406 22.543 21.6406Z" fill="#FFAA5A"/>
<path d="M22.2662 22.7475H20.6064V20.9062C20.6064 20.548 20.8968 20.2578 21.2548 20.2578H21.6179C21.976 20.2578 22.2662 20.5481 22.2662 20.9062V22.7475Z" fill="#FFBE5A"/>
<path d="M29.4578 29.6631V22.4707H28.6279C28.6279 22.4707 28.6279 27.1734 28.6279 28.0032C28.6279 28.8332 29.4578 29.6631 29.4578 29.6631Z" fill="#FFBE5A"/>
<path d="M30.0115 31.0463V22.4707H29.1816C29.1816 22.4707 29.1816 28.5565 29.1816 29.3864C29.1816 30.2163 30.0115 31.0463 30.0115 31.0463Z" fill="#FFCD5A"/>
<path d="M30.5643 32.1527V22.4707H29.7344C29.7344 22.4707 29.7344 29.6631 29.7344 30.493C29.7343 31.3228 30.5643 32.1527 30.5643 32.1527Z" fill="#FFE15A"/>
<path d="M28.6281 21.6406C29.2393 21.6406 29.7346 22.136 29.7346 22.7471H27.5215C27.5216 22.136 28.017 21.6406 28.6281 21.6406Z" fill="#FFAA5A"/>
<path d="M28.9053 22.7475H30.565V20.9062C30.565 20.548 30.2747 20.2578 29.9167 20.2578H29.5537C29.1956 20.2578 28.9054 20.5481 28.9054 20.9062L28.9053 22.7475Z" fill="#FFBE5A"/>
<path d="M32.1083 25.8975L31.7539 25.6816L27.8801 32.0432L28.2345 32.259L32.1083 25.8975Z" fill="#FFAA5A"/>
<path d="M28.73 31.8936L29.4209 31.0293L28.745 30.489L28.0541 31.3533L28.73 31.8936Z" fill="#FFE15A"/>
<path d="M32.2226 25.9689L31.6318 25.6094L30.802 26.9728L31.3928 27.3323L32.2226 25.9689Z" fill="#FFCD5A"/>
<path d="M23.48 32.0382L19.5752 25.998L19.3429 26.1482L23.2476 32.1884L23.48 32.0382Z" fill="#73AF00"/>
<path d="M22.0311 28.8633C21.9318 28.9758 21.866 29.1464 21.8494 29.3431C21.713 29.2054 21.5563 29.1177 21.4104 29.0941C21.372 29.2368 21.3876 29.4157 21.4572 29.5966C21.271 29.531 21.0886 29.5209 20.9453 29.5652C20.9856 29.7691 21.1518 29.9904 21.4063 30.1423C21.6608 30.2942 21.9346 30.3353 22.1331 30.2739L22.1899 30.2372C22.3273 30.0812 22.4022 29.8149 22.3683 29.5205C22.334 29.2261 22.2003 28.9838 22.0311 28.8633Z" fill="#73AF00"/>
<path d="M22.1624 30.5318C22.3152 30.5318 22.4391 30.408 22.4391 30.2552C22.4391 30.1024 22.3152 29.9785 22.1624 29.9785C22.0096 29.9785 21.8857 30.1024 21.8857 30.2552C21.8857 30.408 22.0096 30.5318 22.1624 30.5318Z" fill="#FF4B55"/>
<path d="M20.9803 27.2363C20.8811 27.3488 20.8152 27.5194 20.7986 27.7161C20.6622 27.5784 20.5056 27.4907 20.3597 27.4672C20.3212 27.6099 20.3368 27.7888 20.4064 27.9696C20.2202 27.904 20.0378 27.8939 19.8945 27.9383C19.9349 28.1422 20.101 28.3635 20.3556 28.5153C20.6101 28.6673 20.8838 28.7083 21.0823 28.647L21.1392 28.6103C21.2766 28.4543 21.3515 28.188 21.3175 27.8936C21.2833 27.599 21.1496 27.3567 20.9803 27.2363Z" fill="#73AF00"/>
<path d="M21.1116 28.9049C21.2644 28.9049 21.3883 28.781 21.3883 28.6282C21.3883 28.4754 21.2644 28.3516 21.1116 28.3516C20.9588 28.3516 20.835 28.4754 20.835 28.6282C20.835 28.781 20.9588 28.9049 21.1116 28.9049Z" fill="#FF4B55"/>
<path d="M19.9295 25.6094C19.8303 25.7219 19.7645 25.8925 19.7479 26.0892C19.6114 25.9515 19.4548 25.8638 19.3089 25.8402C19.2704 25.9829 19.286 26.1618 19.3557 26.3427C19.1694 26.2771 18.987 26.267 18.8438 26.3113C18.8841 26.5152 19.0502 26.7365 19.3048 26.8884C19.5593 27.0403 19.833 27.0813 20.0315 27.02L20.0884 26.9833C20.2258 26.8273 20.3007 26.561 20.2667 26.2666C20.2323 25.9721 20.0987 25.7298 19.9295 25.6094Z" fill="#73AF00"/>
<path d="M20.0599 27.2799C20.2127 27.2799 20.3365 27.156 20.3365 27.0032C20.3365 26.8504 20.2127 26.7266 20.0599 26.7266C19.9071 26.7266 19.7832 26.8504 19.7832 27.0032C19.7832 27.156 19.9071 27.2799 20.0599 27.2799Z" fill="#FF4B55"/>
<path d="M23.3941 31.3546L22.7031 30.4902L22.0272 31.0305L22.7181 31.8949L23.3941 31.3546Z" fill="#FFE15A"/>
<path d="M24.2032 18.0449H23.9258V19.9813H24.2032V18.0449Z" fill="#FFE15A"/>
<path d="M24.4783 18.3203H23.6484V18.597H24.4783V18.3203Z" fill="#FFE15A"/>
<path d="M23.9258 19.1496L24.7557 19.7721V18.873H24.2024L23.9258 19.1496Z" fill="#FF875A"/>
<path d="M24.2025 18.0434V18.32H24.4791V18.5967H24.2025V18.8733H24.7557C24.7557 18.8733 25.0324 18.5967 25.5856 18.5967C26.1388 18.5967 26.692 18.8733 26.692 19.7031C26.692 20.533 26.9687 22.746 26.9687 22.746H27.5219C27.5219 22.1349 28.0173 21.6396 28.6283 21.6396C28.7244 21.6396 28.816 21.6556 28.905 21.6787V21.0863C28.905 20.628 29.2766 20.2564 29.7349 20.2564C30.1932 20.2564 30.5648 20.628 30.5648 21.0863V22.4695V22.7462V27.6315L30.922 27.0447L30.8039 26.9729L31.6338 25.6094L31.7519 25.6812L31.9291 25.7893L32.2245 25.969L31.3947 27.3325L31.2765 27.2606L30.5648 28.43V32.152C30.5648 32.152 29.9042 31.4896 29.7628 30.7567C29.6617 30.6269 29.5453 30.4612 29.4429 30.2731L29.1263 30.7933L29.4206 31.0285L28.7297 31.8929L28.5462 31.7462L28.2335 32.26L27.8791 32.0441L28.2195 31.485L28.0542 31.3528L28.2895 31.0584L27.5636 30.1682L27.3491 30.343L26.7036 29.551C26.5319 29.62 26.362 29.6959 26.1987 29.7826L27.5216 32.4286L25.5852 33.8118L23.6488 32.4286L24.9717 29.7826C24.8741 29.7308 24.7748 29.6816 24.6734 29.6369L24.0981 30.343L23.8835 30.1682L23.1576 31.0584L23.3929 31.3528L23.1579 31.5406L23.479 32.0373L23.2467 32.1875L22.9408 31.7143L22.7174 31.8928L22.0265 31.0284L22.3369 30.7803L22.1724 30.5257C22.1685 30.5258 22.1647 30.5259 22.1608 30.5259C22.0703 30.5259 21.9818 30.4855 21.9291 30.404C21.9067 30.3693 21.8946 30.3314 21.8892 30.2932C21.8371 30.29 21.7844 30.2826 21.7295 30.2695C21.6267 30.4591 21.5095 30.626 21.4078 30.7567C21.2665 31.4896 20.6059 32.152 20.6059 32.152V28.6231C20.5223 28.5969 20.438 28.5635 20.3551 28.514C20.1006 28.362 19.9344 28.1407 19.8941 27.9369C19.9523 27.9189 20.0168 27.91 20.0856 27.91C20.1862 27.91 20.2955 27.9294 20.4061 27.9683C20.37 27.8745 20.3491 27.7817 20.3421 27.6938L20.07 27.2729C20.0661 27.273 20.0623 27.2731 20.0584 27.2731C19.968 27.2731 19.8794 27.2328 19.8268 27.1513C19.8043 27.1166 19.7922 27.0787 19.7867 27.0404C19.6336 27.0312 19.4658 26.9844 19.304 26.8879C19.0495 26.7359 18.8833 26.5146 18.843 26.3108C18.9012 26.2929 18.9659 26.2839 19.0345 26.2839C19.1351 26.2839 19.2445 26.3032 19.355 26.3422C19.2854 26.1612 19.2698 25.9824 19.3082 25.8397C19.4541 25.8633 19.6108 25.951 19.7472 26.0887C19.7638 25.892 19.8296 25.7214 19.9287 25.6089C20.0981 25.7294 20.2317 25.9717 20.2657 26.2662C20.2873 26.4535 20.2612 26.6257 20.2066 26.7691C20.2393 26.7899 20.2689 26.8164 20.2912 26.8512C20.3462 26.9362 20.3443 27.0385 20.3023 27.1229L20.5743 27.5438C20.5849 27.5497 20.5952 27.5567 20.6058 27.5633V22.7465V22.4698V21.0866C20.6058 20.6283 20.9774 20.2567 21.4357 20.2567C21.894 20.2567 22.2656 20.6283 22.2656 21.0866V21.679C22.3544 21.656 22.446 21.6398 22.5422 21.6398C23.1533 21.6398 23.6487 22.1353 23.6487 22.7463H24.4785L25.0318 19.98L24.7551 19.7726L24.2019 19.3576V19.9801H23.9252V18.5969H23.6486V18.3202H23.9252V18.0436H24.203L24.2025 18.0434ZM28.6431 30.6159L28.7452 30.4881L28.7996 30.5315L29.2455 29.799C29.2067 29.6636 29.1818 29.5246 29.1818 29.3853C29.1818 29.3717 29.1818 29.353 29.1818 29.3366C28.9404 29.019 28.6285 28.5109 28.6285 28.0021C28.6285 28.5847 28.2709 28.8882 27.7815 29.1214L28.2073 29.6439L27.9929 29.8186L28.6431 30.6159ZM22.5547 30.6062L22.7026 30.488L22.8047 30.6158L23.4549 29.8183L23.2406 29.6437L23.5926 29.2116C23.0017 28.9648 22.5426 28.6625 22.5426 28.002C22.5426 28.3724 22.3773 28.742 22.1943 29.0387C22.2812 29.1662 22.3467 29.3293 22.3686 29.5182C22.3903 29.7055 22.3641 29.8776 22.3095 30.0211C22.3422 30.0419 22.3718 30.0684 22.3942 30.1031C22.4492 30.1882 22.4472 30.2903 22.4052 30.3749L22.5547 30.6062ZM24.2025 17.8359H23.9258C23.8113 17.8359 23.7184 17.9288 23.7184 18.0434V18.1125H23.6492C23.5347 18.1125 23.4418 18.2054 23.4418 18.3199V18.5966C23.4418 18.7111 23.5347 18.804 23.6492 18.804H23.7184V19.9797C23.7184 20.0942 23.8113 20.1871 23.9258 20.1871H24.2025C24.317 20.1871 24.4099 20.0942 24.4099 19.9797V19.7723L24.6312 19.9382L24.8032 20.0672L24.3088 22.5385H23.8402C23.7404 21.9122 23.1965 21.432 22.5425 21.432C22.5196 21.432 22.4966 21.4328 22.4734 21.4342V21.0862C22.4734 20.5143 22.0079 20.0488 21.436 20.0488C20.864 20.0488 20.3986 20.5143 20.3986 21.0862V22.4694V22.7461V25.9275C20.3237 25.721 20.2019 25.5481 20.0492 25.4395C20.0129 25.4136 19.9708 25.401 19.9291 25.401C19.8714 25.401 19.8142 25.425 19.7735 25.4712C19.7096 25.5438 19.6571 25.632 19.6179 25.7316C19.5271 25.6824 19.4336 25.6492 19.3414 25.6344C19.3303 25.6325 19.3193 25.6316 19.3083 25.6316C19.216 25.6316 19.133 25.6934 19.1082 25.7851C19.0839 25.8751 19.0758 25.9739 19.0834 26.077C19.0671 26.0762 19.0509 26.0758 19.0348 26.0758C18.945 26.0758 18.8599 26.088 18.7821 26.112C18.6806 26.1434 18.6192 26.2463 18.6397 26.3505C18.6934 26.6216 18.902 26.889 19.1979 27.0654C19.3344 27.1469 19.4826 27.2027 19.6331 27.23C19.6392 27.2414 19.6457 27.2525 19.6528 27.2634C19.7208 27.3688 19.8277 27.4412 19.9498 27.4683L20.101 27.7021C20.0959 27.702 20.0909 27.7021 20.086 27.7021C19.9961 27.7021 19.9111 27.7143 19.8332 27.7383C19.7318 27.7696 19.6703 27.8726 19.6908 27.9768C19.7446 28.2479 19.9532 28.5152 20.2491 28.6917C20.2963 28.7199 20.3455 28.7449 20.3987 28.7675V32.1511C20.3987 32.2351 20.4493 32.3107 20.5269 32.3428C20.5526 32.3533 20.5794 32.3585 20.6061 32.3585C20.6602 32.3585 20.7133 32.3374 20.7531 32.2975C20.7813 32.2692 21.432 31.6098 21.6016 30.8444C21.6713 30.7527 21.7358 30.6603 21.7944 30.5677C21.8612 30.6448 21.9515 30.698 22.0525 30.7205L22.0615 30.7343L21.8976 30.8653C21.8546 30.8997 21.827 30.9497 21.8209 31.0045C21.8148 31.0591 21.8307 31.1141 21.8651 31.157L22.556 32.0214C22.5904 32.0644 22.6404 32.092 22.6951 32.098C22.7028 32.0989 22.7105 32.0993 22.7181 32.0993C22.765 32.0993 22.8107 32.0835 22.8476 32.0539L22.8917 32.0187L23.0731 32.2992C23.103 32.3454 23.1499 32.3779 23.2037 32.3895C23.2182 32.3926 23.2327 32.394 23.2473 32.394C23.2869 32.394 23.3262 32.3827 23.3599 32.3607L23.4941 32.274L23.4637 32.3349C23.418 32.4262 23.4456 32.5371 23.5286 32.5965L25.4651 33.9797C25.5012 34.0055 25.5434 34.0184 25.5857 34.0184C25.628 34.0184 25.6701 34.0055 25.7063 33.9797L27.6427 32.5965C27.7258 32.5371 27.7533 32.4263 27.7076 32.3349L26.4775 29.8744C26.5296 29.8498 26.584 29.8254 26.6409 29.8009L27.1887 30.473C27.2297 30.5233 27.2895 30.5494 27.3497 30.5494C27.3958 30.5494 27.4422 30.5341 27.4807 30.5027L27.5345 30.459L28.0234 31.0586L27.8927 31.2221C27.8583 31.265 27.8425 31.3199 27.8486 31.3746C27.8547 31.4294 27.8823 31.4794 27.9252 31.5138L27.9479 31.5318L27.7024 31.9351C27.6428 32.0329 27.6739 32.1604 27.7717 32.2201L28.1261 32.4359C28.1588 32.4559 28.1962 32.4662 28.2341 32.4662C28.2505 32.4662 28.267 32.4643 28.2831 32.4603C28.3366 32.4472 28.3827 32.4136 28.4114 32.3665L28.6015 32.0541C28.6397 32.0843 28.685 32.0989 28.7302 32.0989C28.791 32.0989 28.8514 32.0722 28.8924 32.021L29.5833 31.1566C29.6087 31.1248 29.6233 31.0878 29.6275 31.0502C29.8529 31.7243 30.3929 32.2715 30.4185 32.2972C30.4581 32.3369 30.5114 32.3582 30.5655 32.3582C30.5922 32.3582 30.619 32.353 30.6447 32.3425C30.7222 32.3103 30.7729 32.2348 30.7729 32.1508V28.487L31.3527 27.5347C31.3668 27.5376 31.381 27.5391 31.3951 27.5391C31.4652 27.5391 31.5335 27.5036 31.5726 27.4394L32.4025 26.0759C32.4312 26.0289 32.4399 25.9725 32.4268 25.9189C32.4137 25.8655 32.38 25.8193 32.333 25.7907L32.0376 25.6109L31.8605 25.503L31.7421 25.4311C31.7085 25.4105 31.6712 25.4009 31.6346 25.4009C31.5646 25.4009 31.4962 25.4363 31.4573 25.5006L30.773 26.6248V22.7454V22.4687V21.086C30.773 20.5141 30.3075 20.0486 29.7356 20.0486C29.1636 20.0486 28.6982 20.5141 28.6982 21.086V21.434C28.675 21.4326 28.652 21.4318 28.629 21.4318C27.975 21.4318 27.4312 21.912 27.3314 22.5383H27.153C27.0875 21.9937 26.9 20.3729 26.9 19.7028C26.9 18.7341 26.2212 18.3889 25.5861 18.3889C25.1157 18.3889 24.8121 18.5682 24.682 18.6655H24.6751C24.6827 18.6438 24.6869 18.6206 24.6869 18.5964V18.3197C24.6869 18.2052 24.5941 18.1123 24.4795 18.1123H24.4104V18.0432C24.4099 17.9288 24.317 17.8359 24.2025 17.8359ZM22.4357 29.0384C22.4888 28.9449 22.5351 28.8527 22.5749 28.7619C22.7479 28.994 22.9967 29.1591 23.2616 29.2897L23.0799 29.5127C23.0451 29.5554 23.0287 29.6101 23.0343 29.6648C23.0399 29.7196 23.0669 29.7699 23.1096 29.8046L23.1629 29.8481L22.7933 30.3015C22.7722 30.2911 22.7492 30.2845 22.7254 30.2817C22.7178 30.2809 22.71 30.2805 22.7025 30.2805C22.6818 30.2805 22.6615 30.2836 22.6418 30.2895C22.6513 30.1853 22.6266 30.0806 22.5685 29.9905C22.5615 29.9797 22.5539 29.969 22.546 29.9589C22.5829 29.8105 22.5929 29.6524 22.5747 29.4944C22.556 29.3322 22.5084 29.177 22.4357 29.0384ZM28.1026 29.1871C28.2853 29.0806 28.4627 28.9456 28.5973 28.7643C28.7032 29.0062 28.8425 29.2262 28.9743 29.4058C28.976 29.5213 28.9918 29.6402 29.0223 29.7665L28.7074 30.284C28.6892 30.2873 28.6712 30.2932 28.6543 30.3015L28.2847 29.8481L28.338 29.8046C28.3807 29.7698 28.4077 29.7195 28.4133 29.6648C28.4189 29.6102 28.4026 29.5554 28.3677 29.5127L28.1026 29.1871ZM24.0984 30.55C24.1586 30.55 24.2183 30.5239 24.2594 30.4736L24.6093 30.0443L23.6623 31.9383C23.6598 31.9335 23.657 31.9288 23.6539 31.9241L23.4348 31.585L23.5232 31.5143C23.5661 31.4799 23.5938 31.4299 23.5998 31.3751C23.606 31.3205 23.5901 31.2655 23.5557 31.2227L23.425 31.0592L23.9139 30.4595L23.9677 30.5032C24.0059 30.5349 24.0523 30.55 24.0984 30.55ZM29.3986 30.7446L29.4437 30.6704C29.4833 30.7288 29.5253 30.787 29.5695 30.845C29.5734 30.8625 29.5775 30.8798 29.5819 30.8972C29.5727 30.8858 29.5621 30.8754 29.5503 30.8659L29.3986 30.7446Z" fill="#FFAA5A"/>
</g>
<defs>
<clipPath id="clip0_3462_30370">
<rect width="50" height="50" fill="white" transform="translate(0.603516 0.601562)"/>
</clipPath>
</defs>
</svg>
