<svg width="51" height="51" viewBox="0 0 51 51" fill="none" xmlns="http://www.w3.org/2000/svg">
<g clip-path="url(#clip0_3462_30351)">
<path d="M33.6572 9.22266H49.4618C49.9379 9.22266 50.3239 9.60869 50.3239 10.0848V41.1192C50.3239 41.5953 49.9379 41.9813 49.4618 41.9813H33.6572V9.22266Z" fill="#FF4B55"/>
<path d="M33.6572 9.22266H16.9902V41.9814H33.6572V9.22266Z" fill="#41479B"/>
<path d="M1.18535 9.22266H16.9899V41.9812H1.18535C0.709277 41.9812 0.323242 41.5952 0.323242 41.1191V10.0847C0.323242 9.60859 0.709277 9.22266 1.18535 9.22266Z" fill="#FF4B55"/>
<path d="M8.69004 22.7714C7.38721 22.7714 6.27051 21.9864 5.77852 20.8652C5.77822 20.8823 5.77344 20.8982 5.77344 20.9153C5.77344 22.5261 7.0793 23.8319 8.69004 23.8319C10.3008 23.8319 11.6065 22.5261 11.6065 20.9153C11.6065 20.8982 11.6018 20.8823 11.6015 20.8653C11.1095 21.9864 9.99277 22.7714 8.69004 22.7714Z" fill="#F9CF02"/>
<path d="M8.69043 22.2422C9.86188 22.2422 10.8115 21.2925 10.8115 20.1211C10.8115 18.9496 9.86188 18 8.69043 18C7.51898 18 6.56934 18.9496 6.56934 20.1211C6.56934 21.2925 7.51898 22.2422 8.69043 22.2422Z" fill="#F9CF02"/>
<path d="M7.36426 16.1432C7.36426 16.8753 7.95781 17.4689 8.68994 17.4689C9.42207 17.4689 10.0156 16.8753 10.0156 16.1432C10.0156 15.6129 9.68418 15.5466 9.68418 15.3478C9.68418 15.1489 9.88301 14.8838 9.48535 14.5523C9.68418 14.8838 9.35283 14.9501 9.35283 15.2814C9.35283 15.6128 9.48535 15.6129 9.48535 15.878C9.48535 16.0245 9.3666 16.1431 9.22031 16.1431C9.07383 16.1431 8.95527 16.0243 8.95527 15.878C8.95527 15.613 9.22031 15.3478 9.22031 14.95C9.22031 14.5522 9.154 14.4197 8.95527 14.0883C8.75645 13.7568 8.425 13.4917 8.69023 13.2266C8.29248 13.3591 8.49141 13.8894 8.49141 14.2209C8.49141 14.5523 8.22637 14.7512 8.22637 15.1489C8.22637 15.5467 8.4252 15.6129 8.4252 15.878C8.4252 16.0245 8.30645 16.1431 8.16016 16.1431C8.01387 16.1431 7.89512 16.0243 7.89512 15.878C7.89512 15.613 8.02764 15.613 8.02764 15.2814C8.02764 14.9499 7.69619 14.8837 7.89512 14.5523C7.49736 14.8838 7.69629 15.1489 7.69629 15.3478C7.6957 15.5466 7.36426 15.6128 7.36426 16.1432Z" fill="#F9CF02"/>
<path d="M2.85742 24.5821V36.871C2.85742 36.9919 2.95547 37.0898 3.07627 37.0898H5.28984C5.41074 37.0898 5.50869 36.9918 5.50869 36.871V24.5821C5.50869 24.4612 5.41064 24.3633 5.28984 24.3633H3.07627C2.95547 24.3632 2.85742 24.4612 2.85742 24.5821Z" fill="#F9CF02"/>
<path d="M11.8721 24.5821V36.871C11.8721 36.9919 11.9701 37.0898 12.0909 37.0898H14.3045C14.4254 37.0898 14.5233 36.9918 14.5233 36.871V24.5821C14.5233 24.4612 14.4253 24.3633 14.3045 24.3633H12.0909C11.97 24.3632 11.8721 24.4612 11.8721 24.5821Z" fill="#F9CF02"/>
<path d="M6.03906 26.7032V27.326C6.03906 27.4469 6.13711 27.5448 6.25791 27.5448H11.1229C11.2437 27.5448 11.3417 27.4468 11.3417 27.326V26.7032C11.3417 26.5823 11.2437 26.4844 11.1229 26.4844H6.25791C6.13701 26.4844 6.03906 26.5824 6.03906 26.7032Z" fill="#F9CF02"/>
<path d="M6.03906 34.1271V34.7498C6.03906 34.8707 6.13711 34.9687 6.25791 34.9687H11.1229C11.2437 34.9687 11.3417 34.8706 11.3417 34.7498V34.1271C11.3417 34.0062 11.2437 33.9082 11.1229 33.9082H6.25791C6.13701 33.9082 6.03906 34.0062 6.03906 34.1271Z" fill="#F9CF02"/>
<path d="M6.43381 24.3633H10.9463C11.0573 24.3633 11.0978 24.5095 11.0027 24.5666L8.8591 25.8528C8.7551 25.9152 8.62512 25.9152 8.52131 25.8528L6.37756 24.5666C6.28235 24.5095 6.32287 24.3633 6.43381 24.3633Z" fill="#F9CF02"/>
<path d="M6.43383 35.498H10.9463C11.0574 35.498 11.0978 35.6442 11.0027 35.7014L8.85893 36.9875C8.75493 37.0499 8.62495 37.0499 8.52114 36.9875L6.37748 35.7013C6.28237 35.6441 6.32289 35.498 6.43383 35.498Z" fill="#F9CF02"/>
<path d="M8.94922 28.0956C8.86563 28.0876 8.78467 28.0703 8.69902 28.0703C7.24092 28.0703 6.05469 29.2565 6.05469 30.7146C6.05469 31.5801 6.47744 32.3418 7.12334 32.8224C7.19766 32.8776 7.2959 32.7978 7.25977 32.7123C7.18232 32.5288 7.13877 32.3277 7.13877 32.116C7.13877 31.2542 7.84121 30.5533 8.70381 30.556C9.15723 30.5573 9.59189 30.3334 9.79258 29.9268C10.2077 29.0858 9.70117 28.25 8.94922 28.0956ZM8.69902 29.842C8.40703 29.842 8.17012 29.6053 8.17012 29.3131C8.17012 29.0211 8.40693 28.7843 8.69902 28.7843C8.99102 28.7843 9.22783 29.021 9.22783 29.3131C9.22773 29.6053 8.99102 29.842 8.69902 29.842Z" fill="#F9CF02"/>
<path d="M10.2753 28.6061C10.201 28.5509 10.1027 28.6309 10.1388 28.7162C10.2164 28.8997 10.2598 29.1008 10.2598 29.3124C10.2598 30.1743 9.5573 30.8752 8.6948 30.8726C8.24139 30.8712 7.80662 31.0951 7.60604 31.5017C7.19109 32.3428 7.69764 33.1787 8.44959 33.3329C8.53318 33.3409 8.61414 33.3582 8.69979 33.3582C10.1578 33.3582 11.3441 32.172 11.3441 30.7139C11.3439 29.8485 10.9212 29.0868 10.2753 28.6061ZM8.69979 32.6442C8.40779 32.6442 8.17088 32.4075 8.17088 32.1153C8.17088 31.8233 8.4077 31.5865 8.69979 31.5865C8.99178 31.5865 9.22859 31.8232 9.22859 32.1153C9.2285 32.4074 8.99178 32.6442 8.69979 32.6442Z" fill="#F9CF02"/>
</g>
<defs>
<clipPath id="clip0_3462_30351">
<rect width="50" height="50" fill="white" transform="translate(0.324219 0.601562)"/>
</clipPath>
</defs>
</svg>
