<svg width="51" height="51" viewBox="0 0 51 51" fill="none" xmlns="http://www.w3.org/2000/svg">
<g clip-path="url(#clip0_3462_30337)">
<path d="M49.0282 10.9473H2.47656V40.2578H49.0282V10.9473Z" fill="#C8414B"/>
<path d="M49.8897 9.22266H1.61406C1.13799 9.22266 0.751953 9.60859 0.751953 10.0847V41.1191C0.751953 41.5952 1.13799 41.9812 1.61406 41.9812H49.8898C50.3659 41.9812 50.752 41.5952 50.752 41.1191V10.0847C50.7519 9.60859 50.3658 9.22266 49.8897 9.22266ZM49.0277 40.2571H2.47607V10.9468H49.0277V40.2571Z" fill="#E6B432"/>
<path d="M32.8255 32.3209C33.55 32.3209 34.1373 31.7336 34.1373 31.0091C34.1373 30.2846 33.55 29.6973 32.8255 29.6973C32.101 29.6973 31.5137 30.2846 31.5137 31.0091C31.5137 31.7336 32.101 32.3209 32.8255 32.3209Z" fill="#41479B"/>
<path d="M35.1274 23.477C34.162 24.2887 33.5127 24.3228 33.5127 24.3228C35.23 23.6223 35.0506 22.2894 35.0506 22.2894C34.2389 23.3574 33.4101 23.6564 33.4101 23.6564C35.136 22.4859 34.8626 20.9139 34.8626 20.9139C34.2987 22.1613 33.5853 22.6482 33.5853 22.6482C35.0207 20.7387 34.3158 19.5084 34.3158 19.5084C33.7519 21.2769 33.2777 21.7896 33.2777 21.7896C34.3799 18.842 33.4358 17.9919 33.4358 17.9919C33.4358 19.5725 32.8463 20.4781 32.8463 20.4781C33.4615 18.3935 32.496 17.1973 32.496 17.1973C32.496 17.1973 32.4869 18.8969 32.1595 19.7871C32.081 19.6678 32.0345 19.6836 32.0345 19.6836C31.8681 20.7753 31.2814 21.5438 31.0281 21.833C30.9719 21.5609 30.8027 21.4776 30.8027 21.4776C30.8027 21.4776 30.7722 21.7447 30.5326 22.1387C30.3756 22.3968 29.6338 22.9986 29.5141 23.5283C29.4182 23.953 29.8388 24.3057 29.9755 24.3912C30.1122 24.4766 30.2574 24.6305 30.1975 24.8781C30.1378 25.1259 29.6934 25.1002 29.3773 25.0917C29.0612 25.0832 29.0185 25.6043 28.6681 25.5873L28.6088 25.976L28.4716 26.0059C28.4716 26.0059 27.0362 28.8662 26.914 29.8394L25.8571 29.9788L24.8002 29.8394C24.678 28.8662 23.2427 26.0059 23.2427 26.0059L23.1055 25.976L23.0461 25.5873C22.6958 25.6044 22.6531 25.0832 22.3369 25.0917C22.0207 25.1002 21.5765 25.1259 21.5167 24.8781C21.4569 24.6304 21.6021 24.4765 21.7388 24.3912C21.8755 24.3057 22.2961 23.9529 22.2001 23.5283C22.0805 22.9985 21.3387 22.3968 21.1816 22.1387C20.942 21.7448 20.9115 21.4776 20.9115 21.4776C20.9115 21.4776 20.7424 21.5609 20.6861 21.833C20.4329 21.5436 19.8462 20.7753 19.6798 19.6836C19.6798 19.6836 19.6333 19.6679 19.5548 19.7871C19.2274 18.8968 19.2184 17.1973 19.2184 17.1973C19.2184 17.1973 18.2529 18.3934 18.8681 20.4781C18.8681 20.4781 18.2785 19.5726 18.2785 17.9919C18.2785 17.9919 17.3345 18.842 18.4366 21.7896C18.4366 21.7896 17.9625 21.277 17.3985 19.5084C17.3985 19.5084 16.6937 20.7387 18.129 22.6482C18.129 22.6482 17.4156 22.1613 16.8518 20.9139C16.8518 20.9139 16.5784 22.4859 18.3042 23.6564C18.3042 23.6564 17.4754 23.3574 16.6638 22.2894C16.6638 22.2894 16.4844 23.6224 18.2017 24.3228C18.2017 24.3228 17.5523 24.2887 16.5869 23.477C16.5869 23.477 16.416 24.6561 18.6545 25.2627C18.6545 25.2627 17.7402 25.2456 16.809 24.6219C16.809 24.6219 16.7833 25.7838 18.6972 26.0145C18.6972 26.0145 18.0649 26.1085 17.3558 25.8522C17.3558 25.8522 17.3814 26.792 19.0475 26.9116C19.0475 26.9116 18.3895 26.9629 17.9624 26.8603C17.9624 26.8603 18.0051 27.8258 19.3209 27.6635C19.3209 27.6635 18.8766 27.8087 18.7313 27.8513C18.7313 27.8513 18.757 28.6395 20.1282 28.3576C20.1282 28.3576 19.8847 28.5093 19.5515 28.5605C19.5515 28.5605 19.8334 29.2184 20.9783 28.9279L20.7434 29.1843C20.7434 29.1843 21.6276 29.6969 22.3068 28.992L22.0633 29.4277C22.0633 29.4277 22.64 29.6456 22.9988 29.0817C22.9988 29.0817 22.9006 29.9275 21.7044 30.0814C21.7044 30.0814 21.7471 30.2608 21.7983 30.3292C21.7983 30.3292 21.7214 30.4744 21.0294 30.594C21.0294 30.594 21.1746 30.8161 21.3284 30.8845C21.3284 30.8845 21.0294 31.1409 20.8671 31.1921C20.8671 31.1921 21.1234 31.3202 21.2857 31.3459C21.2857 31.3459 20.9269 31.6962 20.4826 31.7047C20.0383 31.7132 19.2438 31.6619 19.2438 31.6619C19.2438 31.6619 19.2353 31.2347 19.0303 30.8673C18.8252 30.4999 18.7569 30.4721 18.7569 30.4721C18.7569 30.4721 18.8018 30.1774 18.6736 30.0556C18.5455 29.9339 18.475 29.8762 18.475 29.8762C18.475 29.8762 18.5434 29.2867 18.3554 28.9193C18.1675 28.5519 17.501 27.7488 17.4668 27.1508C17.4326 26.5527 17.4583 26.3306 17.4583 26.3306L17.2532 26.3818L17.1165 26.0999L17.3472 26.0742L17.2532 25.6471L16.937 25.7667L16.8942 25.3993L16.5184 25.5531L16.7062 25.8863L16.373 25.9803L16.5696 26.3732L16.826 26.2109L16.8943 26.5526C16.8943 26.5526 16.7405 26.5868 16.6551 26.7235C16.6551 26.7235 17.0778 27.0041 17.2019 27.3388C17.3984 27.8685 17.3386 29.0646 17.6205 29.4234C17.9024 29.7822 18.1246 30.03 18.1246 30.03C18.1246 30.03 18.0456 30.2735 18.1353 30.408C18.225 30.5426 18.3531 30.581 18.3531 30.581C18.3531 30.581 18.2762 31.1258 18.4749 31.4845C18.6735 31.8433 18.7889 31.9332 18.7889 31.9332C18.7889 31.9332 18.0647 32.3753 18.5774 32.888C18.5774 32.888 18.5091 33.3536 18.9961 33.4647C18.9961 33.4647 19.0218 33.8321 19.4404 33.7894C19.4404 33.7894 19.6455 33.7297 19.6968 33.8322C19.748 33.9346 19.6968 34.5242 19.6968 34.5242C19.6968 34.5242 19.8847 34.5071 20.0043 34.4217L20.3802 34.6096L20.3887 34.191L20.8586 34.0031C20.8586 34.0031 20.6535 34.0373 20.2349 33.6443C20.2349 33.6443 20.3032 33.6015 20.3545 33.2683C20.3545 33.2683 20.6877 33.0035 20.7561 32.7899C20.8245 32.5763 21.2944 32.1064 21.8412 31.9526L21.916 32.2858C21.916 32.2858 22.6978 31.5938 23.0245 31.5553L23.2936 31.9098C23.2936 31.9098 24.3018 30.4147 24.7461 30.1498C24.7119 30.2694 24.9597 30.2865 24.4086 30.9016C23.8575 31.5169 24.1992 32.0038 24.1992 32.0038C23.8575 32.2857 23.9259 32.5421 23.883 32.8326C23.8403 33.1231 22.7039 33.875 22.7039 33.875C23.0627 34.3278 23.4643 34.2253 23.4643 34.2253C23.2422 34.3705 23.3105 34.8575 23.3105 34.8575C23.6352 34.9429 23.9599 34.7977 23.9599 34.7977C23.8487 35.1052 24.0196 35.3188 24.0196 35.3188C24.2247 35.1907 24.6946 35.1137 24.6946 35.1137C24.6349 35.6435 24.9765 35.9254 24.9765 35.9254L25.2756 35.6007C25.3268 36.1987 25.8566 36.5405 25.8566 36.5405C25.8566 36.5405 26.3864 36.1987 26.4377 35.6007L26.7367 35.9254C26.7367 35.9254 27.0785 35.6434 27.0186 35.1137C27.0186 35.1137 27.4886 35.1907 27.6936 35.3188C27.6936 35.3188 27.8645 35.1052 27.7534 34.7977C27.7534 34.7977 28.0781 34.9429 28.4027 34.8575C28.4027 34.8575 28.4711 34.3705 28.2489 34.2253C28.2489 34.2253 28.6506 34.3277 29.0094 33.875C29.0094 33.875 27.873 33.1231 27.8303 32.8326C27.7876 32.5421 27.8559 32.2858 27.514 32.0038C27.514 32.0038 27.8557 31.5168 27.3047 30.9016C26.7536 30.2864 27.0013 30.2693 26.9672 30.1498C27.4115 30.4146 28.4196 31.9098 28.4196 31.9098L28.6888 31.5553C29.0156 31.5938 29.7972 32.2858 29.7972 32.2858L29.872 31.9526L29.8862 31.9372C30.2938 32.1567 30.9671 32.4536 31.2391 32.6616C31.5297 32.8838 31.7689 32.9008 32.4694 32.6616C33.1701 32.4223 34.4735 32.0545 34.2807 31.6192C34.2702 31.5955 34.2583 31.5796 34.2467 31.561C34.2773 31.4486 34.2899 31.2524 34.0842 31.0809C34.0842 31.0809 34.0866 31.1287 34.0849 31.19L33.4171 30.9411C33.395 30.882 33.362 30.8241 33.2982 30.7734C33.2982 30.7734 33.2992 30.8247 33.29 30.8938L33.1187 30.83L33.4606 29.8681C33.4347 29.8537 33.4056 29.8456 33.3788 29.8329C33.3857 29.7458 33.4021 29.6254 33.4276 29.4995C33.5111 29.5287 33.5874 29.5647 33.6426 29.6099L33.7391 29.2578C33.7391 29.2578 33.6353 29.251 33.4985 29.2254C33.5331 29.1191 33.5741 29.0237 33.6228 28.9621L33.17 28.8254C33.17 28.8254 33.1817 28.9626 33.1737 29.1338C33.0873 29.0987 33.0049 29.0542 32.9383 28.9971L32.8321 29.388C32.8685 29.3901 32.9922 29.4008 33.1354 29.4263C33.1095 29.5411 33.0639 29.6428 32.9986 29.7192C32.9825 29.7171 32.9676 29.7112 32.9511 29.7096L32.6191 30.6437L31.7187 30.3082C31.6802 30.3689 31.6504 30.4351 31.6225 30.5021C31.6273 30.4924 31.6316 30.4771 31.6367 30.471C31.6367 30.471 31.2884 30.6532 31.2931 30.9209C31.229 30.9452 31.1727 30.9933 31.141 31.0768C31.0386 31.346 31.6664 31.9483 31.5127 32.0252C31.3617 32.1006 30.5729 31.451 30.4465 31.3419C30.6091 31.3103 30.8463 31.1922 30.8463 31.1922C30.6839 31.1409 30.3849 30.8846 30.3849 30.8846C30.5387 30.8163 30.684 30.5941 30.684 30.5941C29.992 30.4745 29.915 30.3293 29.915 30.3293C29.9663 30.2609 30.009 30.0815 30.009 30.0815C28.8129 29.9277 28.7145 29.0818 28.7145 29.0818C29.0733 29.6457 29.6501 29.4278 29.6501 29.4278L29.4065 28.9921C30.0857 29.697 30.97 29.1844 30.97 29.1844L30.735 28.928C31.8799 29.2185 32.1619 28.5606 32.1619 28.5606C31.8287 28.5094 31.5851 28.3577 31.5851 28.3577C32.9564 28.6396 32.982 27.8514 32.982 27.8514C32.8368 27.8087 32.3925 27.6636 32.3925 27.6636C33.7082 27.826 33.7509 26.8604 33.7509 26.8604C33.3238 26.9629 32.6659 26.9117 32.6659 26.9117C34.3319 26.7921 34.3576 25.8523 34.3576 25.8523C33.6484 26.1087 33.0162 26.0146 33.0162 26.0146C34.93 25.784 34.9044 24.622 34.9044 24.622C33.9731 25.2457 33.0589 25.2628 33.0589 25.2628C35.2983 24.656 35.1274 23.477 35.1274 23.477ZM33.1858 31.929C33.0945 31.7807 33.3121 31.6481 33.41 31.507L33.7887 31.648C33.6601 31.8014 33.28 32.0818 33.1858 31.929ZM32.9328 31.3292C32.8099 31.5195 32.7245 31.733 32.3464 31.7431C31.8722 31.7559 31.7953 31.333 31.6928 31.1023C31.663 31.035 31.6114 30.9843 31.5522 30.9494C31.552 30.908 31.5542 30.8626 31.5578 30.8167L32.9328 31.3292Z" fill="#E6B432"/>
<path d="M25.7174 22.3024C25.7174 22.3024 25.1087 21.7834 24.9292 21.5015C24.9292 21.5015 25.1343 21.4182 25.2367 21.29C25.2367 21.29 24.6856 20.9953 24.3909 20.6941C24.3909 20.6941 24.5832 20.6621 24.7306 20.5403C24.7306 20.5403 24.2356 20.4509 23.9847 20.0456C24.5568 19.8502 24.3653 19.3164 24.3653 19.3164C24.25 19.4702 23.7758 19.6624 23.2632 19.4445C22.7506 19.2267 22.1867 19.3804 22.1867 19.6624C22.1867 19.6624 21.0333 19.3292 21.3217 20.4442C21.3217 20.4442 21.5074 20.0277 21.9176 20.1815C22.3277 20.3354 22.7442 20.8607 22.7442 20.8607C22.7442 20.8607 22.4879 21.0017 22.0138 20.8479C22.0138 20.8479 22.2061 21.5848 23.0711 21.2132C23.0711 21.2132 23.4128 21.3969 23.4299 21.9352C23.4299 21.9352 23.5751 21.8582 23.6691 21.6874C23.6691 21.6874 23.8059 22.2085 23.6265 22.6357C23.6265 22.6357 23.8657 22.5931 23.9427 22.5161C23.9427 22.5161 24.011 22.9689 23.712 23.3363C23.712 23.3363 25.0256 23.9622 25.8587 23.2766C25.8587 23.2766 25.5447 22.9178 25.4422 22.5846C25.4418 22.5844 25.6147 22.5139 25.7174 22.3024Z" fill="#E6B432"/>
<path d="M29.53 19.6624C29.53 19.3805 28.9661 19.2267 28.4535 19.4445C27.9409 19.6624 27.4667 19.4702 27.3514 19.3164C27.3514 19.3164 27.1598 19.8502 27.732 20.0456C27.4811 20.4509 26.9861 20.5403 26.9861 20.5403C27.1336 20.6621 27.3258 20.6941 27.3258 20.6941C27.0311 20.9953 26.48 21.29 26.48 21.29C26.5824 21.4182 26.7875 21.5015 26.7875 21.5015C26.6081 21.7834 25.9993 22.3024 25.9993 22.3024C26.1018 22.5139 26.2749 22.5844 26.2749 22.5844C26.1725 22.9176 25.8584 23.2764 25.8584 23.2764C26.6914 23.962 28.0051 23.3361 28.0051 23.3361C27.7061 22.9687 27.7744 22.5159 27.7744 22.5159C27.8514 22.5929 28.0906 22.6355 28.0906 22.6355C27.9112 22.2084 28.0479 21.6872 28.0479 21.6872C28.1419 21.8581 28.2872 21.935 28.2872 21.935C28.3043 21.3967 28.646 21.213 28.646 21.213C29.511 21.5847 29.7033 20.8478 29.7033 20.8478C29.2292 21.0016 28.9728 20.8605 28.9728 20.8605C28.9728 20.8605 29.3893 20.3352 29.7995 20.1813C30.2097 20.0275 30.3954 20.444 30.3954 20.444C30.6833 19.3292 29.53 19.6624 29.53 19.6624Z" fill="#E6B432"/>
<path d="M29.0075 26.4696C28.895 25.8147 28.798 25.2491 29.0805 24.6011L29.1332 24.4801L28.0144 23.1953L27.8822 23.2394C27.8707 23.2433 26.7013 23.6256 25.9516 23.2506L25.8581 23.2038L25.7645 23.2506C25.0183 23.6245 23.8457 23.2433 23.8336 23.2392L23.7014 23.1955L22.5828 24.4801L22.6355 24.6011C22.918 25.2491 22.821 25.8147 22.7085 26.4696C22.6026 27.088 22.4824 27.789 22.6939 28.6437C22.9235 29.5717 23.6966 29.9015 24.3785 30.1929C24.9041 30.4172 25.4005 30.6291 25.6812 31.0739L25.858 31.3542L26.0347 31.0739C26.3154 30.6291 26.8118 30.4173 27.3374 30.1929C28.0195 29.9015 28.7924 29.5718 29.022 28.6437C29.2336 27.7889 29.1133 27.0879 29.0075 26.4696ZM23.0693 24.5579L23.8372 23.6764C24.185 23.772 25.1252 23.9788 25.858 23.6678C26.5906 23.9789 27.5308 23.7719 27.8788 23.6764L28.6466 24.5579C28.377 25.2681 28.4831 25.8871 28.5953 26.5403C28.6791 27.0298 28.7626 27.534 28.6925 28.1146H23.0234C22.9534 27.534 23.0369 27.0298 23.1207 26.5403C23.2328 25.8871 23.3389 25.268 23.0693 24.5579ZM27.1734 29.8083C26.6982 30.0112 26.2092 30.2198 25.858 30.6158C25.5067 30.2198 25.0177 30.0112 24.5425 29.8083C23.8757 29.5236 23.3004 29.2748 23.1107 28.5761H28.605C28.4155 29.2748 27.8402 29.5237 27.1734 29.8083Z" fill="#E6B432"/>
<path d="M23.0691 24.5581L23.837 23.6766C24.1849 23.7722 25.1251 23.979 25.8578 23.668C26.5904 23.9791 27.5307 23.7721 27.8786 23.6766L28.6465 24.5581C28.3769 25.2683 28.483 25.8873 28.5951 26.5405C28.679 27.03 28.7625 27.5342 28.6924 28.1148H23.0232C22.9532 27.5342 23.0367 27.03 23.1205 26.5405C23.2326 25.8873 23.3388 25.2682 23.0691 24.5581Z" fill="#41479B"/>
<path d="M23.0811 28.4531C23.0876 28.4831 23.0918 28.5119 23.0994 28.5424C23.279 29.2681 23.8645 29.518 24.5424 29.8073C25.0176 30.0103 25.5065 30.2188 25.8578 30.6148C26.2091 30.2188 26.698 30.0103 27.1732 29.8073C27.8512 29.5179 28.4366 29.268 28.6162 28.5424C28.6237 28.512 28.6279 28.4831 28.6346 28.4531H23.0811Z" fill="#73AF00"/>
<path d="M28.365 26.0306C28.365 25.6526 28.0058 25.593 27.6792 25.5995C27.3525 25.606 26.8748 25.5463 26.8627 25.2924C26.8552 25.1341 27.1208 25.1194 27.2938 25.1748C27.3942 25.2071 28.0188 25.3186 28.2148 24.9005C28.2148 24.9005 27.9864 24.9079 27.7453 24.8538C27.5596 24.8121 26.7974 24.907 26.6601 25.2009C26.5229 25.4949 26.9653 25.7882 27.4748 25.7882C27.9843 25.7882 28.0542 25.8902 28.0502 26.0144C28.0449 26.1777 27.6409 26.2239 27.4087 26.2217C27.0432 26.089 26.1902 26.1929 26.1861 26.1768C26.1812 26.1571 25.9894 25.8277 25.9894 25.8277C25.9894 25.8277 26.3386 25.8031 26.3828 25.7391C26.427 25.6752 26.1179 25.4296 26.1179 25.4296C26.1179 25.4296 26.3779 25.3259 26.3878 25.2522C26.3985 25.171 26.1767 24.979 26.1767 24.979C26.1767 24.979 26.2624 24.8945 26.3268 24.7502C26.3729 24.6472 26.0068 24.6197 26.0068 24.6197C26.0265 24.5414 26.0189 24.4653 25.9219 24.4302C25.8469 24.4032 25.5691 24.5085 25.3798 24.5085C25.1904 24.5085 25.1185 24.6457 25.1185 24.6457C25.1185 24.6457 24.7853 24.685 24.7395 24.7241C24.6938 24.7633 24.7526 25.018 24.7526 25.018C24.5828 24.9919 24.5045 24.8416 24.5045 24.8416C24.4195 25.227 24.8181 25.2663 24.8181 25.2663L24.8834 25.4753C24.8834 25.4753 24.8834 25.4753 25.0467 25.495C25.21 25.5146 25.1316 25.6713 24.8769 25.6713C24.6221 25.6713 24.514 25.9752 24.514 25.9752C24.3369 25.9802 24.2386 25.8375 24.1992 25.6555C24.1559 25.4552 24.1814 25.1474 24.214 24.9523C24.2533 24.7162 24.1353 24.6473 24.1353 24.6473L24.0565 24.8441C24.0517 24.6424 23.8745 24.6228 23.8745 24.6228L23.845 24.8687C23.7564 24.7064 23.6041 24.7801 23.6041 24.7801C23.6041 24.7801 23.7517 25.3113 23.7468 25.3408C23.7418 25.3703 23.6927 25.3949 23.6238 25.321C23.555 25.2472 23.5059 25.2964 23.5059 25.2964C23.5797 25.8276 23.8645 25.7497 23.8645 25.7497C23.8645 25.7497 23.8771 25.9161 23.9632 26.2539C24.055 26.6145 24.4327 26.5466 24.4327 26.5466C24.4327 26.6642 24.5242 26.834 24.5503 27.2259C24.5764 27.6178 24.2172 27.8922 24.2172 27.8922C23.8905 27.8857 23.9232 28.2058 23.9232 28.2058H24.8246C24.8246 27.3723 25.1829 27.2294 25.1829 27.2294C25.7141 27.254 26.2256 27.0327 26.2256 27.0327C26.1469 27.3524 26.2847 27.4851 26.2847 27.4851C26.5011 27.4556 26.3929 27.8834 26.3289 27.8834C26.265 27.8834 26.1321 27.8834 26.0535 27.8834C25.9749 27.8834 25.7485 28.1293 25.7485 28.1293H26.683C26.683 28.1293 26.8257 27.9228 26.8748 27.8196C26.9239 27.7162 26.7666 27.5737 26.7568 27.4655C26.7471 27.3573 26.9191 27.2884 26.9191 27.2884C27.1012 27.5441 27.5191 27.5589 27.5191 27.5589L27.5094 27.3671C27.5094 27.3671 27.7258 27.441 27.775 27.5048C27.8241 27.5687 27.8143 27.8639 27.5537 27.8983C27.2931 27.9327 27.2733 28.1196 27.2733 28.1196C27.2733 28.1196 27.8684 28.1196 27.9865 28.1196C28.1046 28.1196 28.1979 27.8983 28.1979 27.8146C28.1979 27.731 28.1979 27.1851 28.1979 27.0669C28.1979 26.949 28.0996 26.9637 27.8684 26.939C27.6585 26.9167 27.6786 26.687 27.5921 26.4203C27.8956 26.4101 28.365 26.3437 28.365 26.0306Z" fill="#E6B432"/>
<path d="M28.3101 17.0928C28.2516 16.577 27.8405 15.9203 26.2746 15.6125C26.2694 15.4461 26.167 15.3051 26.0207 15.2457V14.9583H26.277V14.6508H26.0207V14.3945H25.7131V14.6509H25.4568V14.9584H25.7131V15.2458C25.5669 15.3052 25.4644 15.4462 25.4592 15.6126C23.8933 15.9205 23.4822 16.5771 23.4237 17.0929C23.3507 17.7359 23.8113 18.3457 24.2265 18.5794V18.9057H27.5074V18.5794C27.9225 18.3457 28.383 17.7358 28.3101 17.0928ZM26.5925 18.0854H26.1334V16.1939C26.5119 16.3649 26.746 16.6271 26.8142 16.9873C26.8991 17.4357 26.7198 17.893 26.5925 18.0854ZM24.9195 16.987C24.9877 16.6269 25.2217 16.3647 25.6003 16.1938V18.0853H25.1411C25.0136 17.893 24.8344 17.4355 24.9195 16.987ZM24.5399 16.4677C24.4645 16.6187 24.4164 16.7698 24.3919 16.9086C24.3176 17.3287 24.4027 17.7557 24.5433 18.0854H24.4356C24.2055 17.927 23.9099 17.5374 23.9536 17.1529C23.9839 16.8839 24.1879 16.6531 24.5399 16.4677ZM27.2982 18.0854H27.1902C27.3308 17.7559 27.416 17.3289 27.3418 16.9088C27.3172 16.77 27.2692 16.6187 27.1937 16.4676C27.5458 16.653 27.7498 16.884 27.7801 17.1528C27.8238 17.5374 27.5282 17.927 27.2982 18.0854Z" fill="#E6B432"/>
</g>
<defs>
<clipPath id="clip0_3462_30337">
<rect width="50" height="50" fill="white" transform="translate(0.751953 0.601562)"/>
</clipPath>
</defs>
</svg>
