<svg width="51" height="51" viewBox="0 0 51 51" fill="none" xmlns="http://www.w3.org/2000/svg">
<g clip-path="url(#clip0_3462_30307)">
<path d="M49.3165 41.9813H1.04082C0.564745 41.9813 0.178711 41.5953 0.178711 41.1192V10.0848C0.178711 9.60869 0.564745 9.22266 1.04082 9.22266H49.3166C49.7927 9.22266 50.1787 9.60869 50.1787 10.0848V41.1192C50.1786 41.5954 49.7926 41.9813 49.3165 41.9813Z" fill="#41479B"/>
<path d="M24.3166 9.22266H22.8191L14.8338 14.4545V9.22266H10.5234V14.4545L2.53808 9.22266H1.04082C0.564745 9.22266 0.178711 9.60859 0.178711 10.0847V10.7685L7.02977 15.257H0.178711V19.5674H7.02977L0.178711 24.056V24.7398C0.178711 25.2159 0.564745 25.6019 1.04082 25.6019H2.53828L10.5236 20.3701V25.6019H14.834V20.3701L22.8192 25.6019H24.3167C24.7927 25.6019 25.1788 25.2159 25.1788 24.7398V24.056L18.3277 19.5675H25.1787V15.2571H18.3276L25.1787 10.7686V10.0848C25.1787 9.60859 24.7926 9.22266 24.3166 9.22266Z" fill="#F5F5F5"/>
<path d="M25.1796 16.1192H13.9727V9.22266H11.3866V16.1192H0.179688V18.7054H11.3866V25.6019H13.9727V18.7054H25.1796V16.1192Z" fill="#FF4B55"/>
<path d="M9.66141 15.2579L0.58955 9.36914C0.348144 9.52187 0.178711 9.77861 0.178711 10.0854V10.1302L8.07801 15.2579H9.66141Z" fill="#FF4B55"/>
<path d="M16.4174 15.2571L25.0476 9.65498C24.8976 9.40117 24.633 9.22266 24.3167 9.22266H24.1303L14.834 15.2571H16.4174Z" fill="#FF4B55"/>
<path d="M8.91649 19.5684L0.302734 25.1598C0.451269 25.4197 0.720019 25.6028 1.04092 25.6028H1.20351L10.5 19.5684H8.91649V19.5684Z" fill="#FF4B55"/>
<path d="M25.165 24.8084L17.0922 19.5684H15.5088L24.6762 25.519C24.9508 25.3916 25.1391 25.1245 25.165 24.8084Z" fill="#FF4B55"/>
<path d="M43.4043 18.8867H31.9521V27.7373H43.4043V18.8867Z" fill="#82AFFF"/>
<path d="M31.9531 27.7363C31.9531 30.7552 35.3368 33.2023 37.6795 33.2023C39.7618 33.2023 43.4058 30.7551 43.4058 27.7363H31.9531Z" fill="#C86464"/>
<path d="M39.2084 22.1191C39.3928 22.1517 39.7073 22.1951 39.7398 22.6397C39.7724 23.0844 39.6097 24.6679 39.4471 24.863C39.4471 24.863 39.9785 26.0669 40.0002 26.7826C40.0219 27.4984 39.9243 29.6403 39.9894 29.9819C40.0545 30.3235 40.2984 31.0231 40.2984 31.0231C40.2984 31.0231 39.5501 30.5839 39.2573 30.8604C38.9645 31.1369 37.8908 31.5112 37.4678 31.072C37.4678 31.072 37.9721 29.6404 37.9721 28.0136C37.9721 26.3867 37.9721 22.3686 37.9721 22.3686C37.9721 22.3686 38.1836 22.2005 38.4601 22.195C38.7366 22.1896 39.2084 22.1191 39.2084 22.1191Z" fill="#73AF00"/>
<path d="M39.3166 30.7188C39.3491 30.9248 39.4358 31.0767 39.3924 31.1525C39.349 31.2285 39.0671 31.9226 39.2297 31.9226C39.3923 31.9226 39.6744 31.8358 39.7503 31.684C39.8262 31.5321 39.8587 31.3044 39.9022 31.2394C39.9457 31.1743 39.8262 30.8489 39.7287 30.7947C39.6311 30.7404 39.3166 30.7188 39.3166 30.7188Z" fill="#FFF5E1"/>
<path d="M37.4404 22.5744L36.8439 22.6504C36.8439 22.6504 36.9198 22.26 36.9306 21.9888C36.9415 21.7177 36.9632 21.2187 36.9632 21.2187C36.9632 21.2187 37.3861 20.9585 37.3969 20.915C37.4023 20.8934 37.4525 20.7578 37.4133 20.6873C37.374 20.6168 37.2452 20.6113 37.2452 20.6113C37.2452 20.6113 36.7463 20.8716 36.7463 20.915C36.7463 20.9585 36.7463 21.2187 36.6921 21.3163C36.6379 21.414 36.3342 22.2273 36.3125 22.4442C36.2908 22.6611 36.2583 23.1167 36.345 23.1384C36.4317 23.1601 37.3319 23.2577 37.4296 23.2143C37.5271 23.1709 37.4404 22.5744 37.4404 22.5744Z" fill="#FFF5E1"/>
<path d="M40.143 20.4331H37.972V19.4082H37.2237V20.4331H35.0527V21.1814H37.2237V31.0237H37.972V21.1814H40.143V20.4331Z" fill="#464655"/>
<path d="M38.861 21.7616C38.861 21.7616 39.5877 21.9709 39.6852 21.7291C39.7991 21.4471 39.4195 21.4092 39.349 21.111C39.3411 21.0776 39.2731 20.6772 38.9803 20.6013C38.6875 20.5253 38.4163 20.6013 38.4055 20.7965C38.3947 20.9917 38.861 21.7616 38.861 21.7616Z" fill="#963C3C"/>
<path d="M38.4707 22.684C38.4492 22.6875 38.4165 22.4671 38.4599 22.1959C38.5033 21.9248 38.4599 21.838 38.4599 21.838C38.4599 21.838 38.1562 21.8705 38.1562 21.7513C38.1562 21.632 38.2213 21.0788 38.4057 20.7969C38.4057 20.7969 38.5358 20.9596 38.7744 20.9596C38.7744 20.9596 38.7636 21.1548 38.8937 21.2849C38.8937 21.2849 38.7311 21.4258 38.807 21.5234C38.883 21.6211 39.0239 21.7403 39.0239 21.7403C39.0239 21.7403 39.0348 21.9682 39.2083 22.1199C39.2082 22.1201 38.9913 22.5973 38.4707 22.684Z" fill="#FFF5E1"/>
<path d="M35.5642 27.3906H35.499V28.6811H35.5642V27.3906Z" fill="#464655"/>
<path d="M35.8269 27.1406H35.7617V28.931H35.8269V27.1406Z" fill="#464655"/>
<path d="M36.0877 26.9121H36.0225V29.1592H36.0877V26.9121Z" fill="#464655"/>
<path d="M36.3494 26.584H36.2842V29.4832H36.3494V26.584Z" fill="#464655"/>
<path d="M36.6111 26.1582H36.5459V29.9105H36.6111V26.1582Z" fill="#464655"/>
<path d="M36.8728 26.1582H36.8076V30.0859H36.8728V26.1582Z" fill="#464655"/>
<path d="M37.9825 28.2138C37.695 26.7182 36.898 25.8494 36.616 25.8062C36.334 25.7628 36.1281 25.9905 36.1064 26.1532C36.0847 26.3159 35.9328 26.804 35.6183 27.0317C35.3037 27.2595 34.7181 27.3896 34.588 27.8125C34.4578 28.2355 34.8049 28.4198 35.011 28.3764C35.0264 28.3732 35.0415 28.3671 35.057 28.362L37.2741 31.0893C37.3545 31.1883 37.5114 31.1722 37.5675 31.0573C37.7953 30.5917 38.2279 29.489 37.9825 28.2138ZM35.2431 28.2441C35.33 28.1507 35.3667 28.0221 35.2713 27.8885C35.1086 27.6607 34.9243 27.9861 34.9243 27.9861C34.9243 27.9861 34.8701 27.7041 35.293 27.5632C35.716 27.4223 36.1932 27.1837 36.4101 26.6738C36.627 26.1642 36.6161 26.2616 36.6161 26.2616C36.6161 26.2616 37.4838 26.7497 37.6031 28.2789C37.7224 29.8081 37.2994 30.4264 37.2994 30.4264L35.2431 28.2441Z" fill="#FFE15A"/>
<path d="M37.2225 24.9414C37.1229 25.0051 37.0332 25.06 36.9704 25.0927C36.767 25.1983 36.5229 25.3042 36.4986 25.4018C36.4743 25.4994 36.3359 25.5808 36.3441 25.6945C36.3523 25.8084 36.3441 26.15 36.3441 26.15C36.4661 26.1257 36.7101 26.0849 36.7916 25.9385C36.8729 25.792 36.946 25.5073 37.2064 25.3854C37.211 25.3832 37.2178 25.381 37.2227 25.3788V24.9414H37.2225Z" fill="#FFF5E1"/>
<path d="M39.3777 22.8644C39.2558 22.9213 38.8897 23.3606 38.8328 23.564C38.7759 23.7673 38.597 24.2473 38.597 24.2473C38.597 24.2473 38.2273 24.2955 37.9707 24.4392V25.1495C38.113 25.1083 38.2388 25.0677 38.3123 25.0282C38.5238 24.9144 38.8247 24.7029 38.9793 24.6622C39.1338 24.6216 39.264 24.3612 39.3209 24.2068C39.3778 24.0523 39.5567 23.5967 39.5811 23.2876C39.6056 22.9782 39.4997 22.8074 39.3777 22.8644Z" fill="#FFF5E1"/>
<path d="M37.6791 33.3878L37.6507 33.3833C31.8373 32.4654 31.7705 27.4304 31.7705 27.2167V18.7051H43.5878V27.2166C43.5878 27.4304 43.521 32.4653 37.7076 33.3832L37.6791 33.3878ZM32.1351 19.0695V27.2165C32.1351 27.4174 32.1979 32.1371 37.6791 33.0186C43.1603 32.1371 43.2231 27.4174 43.2231 27.2165V19.0695H32.1351Z" fill="#F5F5F5"/>
</g>
<defs>
<clipPath id="clip0_3462_30307">
<rect width="50" height="50" fill="white" transform="translate(0.179688 0.601562)"/>
</clipPath>
</defs>
</svg>
