<svg width="51" height="51" viewBox="0 0 51 51" fill="none" xmlns="http://www.w3.org/2000/svg">
<g clip-path="url(#clip0_3462_30304)">
<path d="M49.7472 41.9813H1.47148C0.995409 41.9813 0.609375 41.5953 0.609375 41.1192V10.0848C0.609375 9.60869 0.995409 9.22266 1.47148 9.22266H49.7473C50.2233 9.22266 50.6094 9.60869 50.6094 10.0848V41.1192C50.6093 41.5954 50.2232 41.9813 49.7472 41.9813Z" fill="#FF4B55"/>
<path d="M29.7065 27.7457L36.2918 22.9139H28.1366L25.6097 15.1367L23.0829 22.9139H14.9277L21.513 27.7457L19.0057 35.4627L25.6033 30.7469L25.6097 30.7515L25.6162 30.7469L32.2138 35.4627L29.7065 27.7457ZM31.0275 24.638L29.1454 26.0189L28.6967 24.638H31.0275ZM23.5379 27.0929L24.3356 24.6379H26.8839L27.6816 27.0929L25.6097 28.6133L23.5379 27.0929ZM25.6097 20.7166L26.3236 22.9139H24.8957L25.6097 20.7166ZM20.192 24.638H22.5228L22.0741 26.0189L20.192 24.638ZM22.2638 31.0142L22.9768 28.8197L24.14 29.6731L22.2638 31.0142ZM28.2427 28.8197L28.9558 31.0142L27.0797 29.6732L28.2427 28.8197Z" fill="#5A8250"/>
</g>
<defs>
<clipPath id="clip0_3462_30304">
<rect width="50" height="50" fill="white" transform="translate(0.609375 0.601562)"/>
</clipPath>
</defs>
</svg>
