<svg width="51" height="51" viewBox="0 0 51 51" fill="none" xmlns="http://www.w3.org/2000/svg">
<g clip-path="url(#clip0_3462_30285)">
<path d="M50.039 20.1423H0.0390625V10.0848C0.0390625 9.60869 0.425097 9.22266 0.90117 9.22266H49.177C49.653 9.22266 50.0391 9.60869 50.0391 10.0848L50.039 20.1423Z" fill="#5AA587"/>
<path d="M49.1769 41.9801H0.90117C0.425097 41.9801 0.0390625 41.594 0.0390625 41.1179V31.0605H50.039V41.1179C50.039 41.5941 49.6529 41.9801 49.1769 41.9801Z" fill="#FFE15A"/>
<path d="M50.039 20.1426H0.0390625V31.0615H50.039V20.1426Z" fill="#464655"/>
<path d="M50.038 19.1719H0.0380859V20.5334H50.038V19.1719Z" fill="#F5F5F5"/>
<path d="M50.038 30.6699H0.0380859V32.0314H50.038V30.6699Z" fill="#F5F5F5"/>
<path d="M0.357031 41.7734L20.1657 26.0493C20.4534 25.821 20.4534 25.3841 20.1657 25.1556L0.357031 9.43164C0.16709 9.58975 0.0390625 9.81885 0.0390625 10.0853V41.1197C0.0390625 41.3862 0.16709 41.6153 0.357031 41.7734Z" fill="#FF4B55"/>
<path d="M8.02833 19.9944L9.28858 23.7732L13.2719 23.8042C13.4946 23.8059 13.5869 24.0902 13.4077 24.2226L10.2033 26.5889L11.4048 30.3868C11.4719 30.5992 11.2302 30.7749 11.0489 30.6453L7.80821 28.3289L4.56749 30.6453C4.38625 30.7748 4.14445 30.5992 4.21164 30.3868L5.4131 26.5889L2.20881 24.2226C2.02961 24.0902 2.12199 23.8059 2.34465 23.8042L6.32794 23.7732L7.58819 19.9944C7.6589 19.7831 7.95782 19.7831 8.02833 19.9944Z" fill="#FFE15A"/>
<path d="M7.57695 27.0111L7.26543 27.3246H4.66016L5.37119 24.7155L5.66172 24.5703L5.19531 26.8965C5.19141 26.9252 5.19726 26.9538 5.21631 26.9768C5.23359 26.9997 5.26025 27.0111 5.28896 27.0111H7.57695Z" fill="#F5F5F5"/>
<path d="M8.20254 27.4465C8.08974 27.5306 7.95215 27.5784 7.80879 27.5784C7.66543 27.5784 7.52783 27.5307 7.41504 27.4465L7.80879 27.0527L8.20254 27.4465Z" fill="#F5F5F5"/>
<path d="M10.9568 27.3246H8.35156L8.04004 27.0111H10.3279C10.3566 27.0111 10.3833 26.9997 10.4006 26.9768C10.4196 26.9538 10.4255 26.9251 10.4216 26.8965L9.95517 24.5703L10.2457 24.7155L10.9568 27.3246Z" fill="#F5F5F5"/>
<path d="M10.2104 26.8205H7.90332V24.4408C8.28945 24.1139 9.3082 24.3375 9.74013 24.4713L10.2104 26.8205Z" fill="#F5F5F5"/>
<path d="M7.7123 24.4407V26.8205H5.40527L5.87549 24.4714C6.30752 24.3375 7.32627 24.114 7.7123 24.4407Z" fill="#F5F5F5"/>
<path d="M11.1758 27.3963L10.4207 24.6248C10.4131 24.5998 10.3959 24.577 10.371 24.5655L9.86639 24.3132C9.86444 24.3113 9.86249 24.3113 9.85878 24.3113C9.85682 24.3113 9.85682 24.3093 9.85497 24.3074C9.79374 24.2864 8.39657 23.8314 7.80976 24.2768C7.22294 23.8314 5.82568 24.2864 5.76454 24.3074C5.76259 24.3093 5.76259 24.3093 5.76074 24.3113C5.75683 24.3113 5.75507 24.3113 5.75312 24.3132L5.24853 24.5655C5.22363 24.5769 5.20654 24.5998 5.19882 24.6248L4.44375 27.3963C4.43613 27.425 4.44179 27.4556 4.45908 27.4786C4.47812 27.5015 4.50683 27.5168 4.53554 27.5168H7.21152C7.37011 27.6754 7.58427 27.7691 7.80976 27.7691C8.03534 27.7691 8.2494 27.6754 8.408 27.5168H11.084C11.1127 27.5168 11.1413 27.5015 11.1604 27.4786C11.1776 27.4556 11.1834 27.425 11.1758 27.3963ZM7.90526 24.4413C8.2914 24.1144 9.31014 24.338 9.74208 24.4718L10.2123 26.8209H7.90526C7.90526 26.821 7.90526 24.4413 7.90526 24.4413ZM5.87724 24.4719C6.30927 24.3381 7.32802 24.1145 7.71405 24.4414V26.8211H5.40703L5.87724 24.4719ZM4.66162 27.3256L5.37265 24.7165L5.66318 24.5713L5.19677 26.8975C5.19287 26.9262 5.19873 26.9548 5.21777 26.9778C5.23505 27.0007 5.26171 27.0121 5.29042 27.0121H7.57831L7.26679 27.3256H4.66162ZM7.80966 27.578C7.6663 27.578 7.5287 27.5302 7.41591 27.446L7.80966 27.0523L8.20341 27.446C8.09071 27.5301 7.95312 27.578 7.80966 27.578ZM8.35253 27.3256L8.04101 27.0121H10.3289C10.3576 27.0121 10.3843 27.0007 10.4015 26.9778C10.4206 26.9548 10.4265 26.9261 10.4225 26.8975L9.95614 24.5713L10.2467 24.7165L10.9577 27.3256H8.35253V27.3256Z" fill="#464655"/>
<path d="M10.1985 21.9455C10.101 22.0134 9.96898 22.0018 9.8849 21.9177L9.75775 21.7905V22.1018L8.97973 22.8798H8.6685L7.42377 24.1246H7.11254L4.71919 26.518C4.6602 26.5769 4.63969 26.6641 4.66606 26.7432L4.77866 27.0809L4.31186 27.5477H4.00063L3.04917 28.4992C2.97319 28.5752 2.97319 28.6984 3.04917 28.7745L3.6771 29.4024C3.76772 29.4931 3.91636 29.4874 3.99975 29.39L5.40112 27.7033L5.55668 27.2365L5.86791 26.9253L6.49037 27.8589L6.95717 27.3921L6.45922 26.6452L6.58325 26.5212C6.70385 26.4006 6.70385 26.2052 6.58325 26.0846L6.49037 25.9917L6.57778 25.9043C7.24194 26.4734 8.03939 26.6206 8.79867 26.2951L8.53861 25.6883C7.91127 25.9571 7.39897 25.7322 7.04262 25.4393L8.35746 24.1245L8.30561 23.8651L8.66869 23.502H8.97992L11.314 21.168L10.1985 21.9455Z" fill="#464655"/>
<path d="M5.5583 21.6348L5.24707 21.946C5.16123 22.0318 5.16123 22.1712 5.24707 22.2572L5.29892 22.3091L4.78027 22.4129L3.37988 23.8133L4.15791 24.5913L5.5583 23.1909L5.66201 22.6722L5.86953 22.8797L6.02509 22.7241L11.2009 27.8999L11.5121 27.5886L6.33632 22.4129L6.49189 22.2573L5.86943 21.6349C5.78359 21.5488 5.64433 21.5488 5.5583 21.6348Z" fill="#464655"/>
</g>
<defs>
<clipPath id="clip0_3462_30285">
<rect width="50" height="50" fill="white" transform="translate(0.0390625 0.601562)"/>
</clipPath>
</defs>
</svg>
