<svg width="51" height="51" viewBox="0 0 51 51" fill="none" xmlns="http://www.w3.org/2000/svg">
<g clip-path="url(#clip0_3462_30280)">
<path d="M0.469727 31.3301H50.4696V41.3875C50.4696 41.8636 50.0836 42.2496 49.6075 42.2496H1.33183C0.855761 42.2496 0.469727 41.8636 0.469727 41.3875V31.3301Z" fill="#FF4B55"/>
<path d="M1.33183 9.49219H49.6076C50.0837 9.49219 50.4697 9.87822 50.4697 10.3543V20.4117H0.469727V10.3542C0.469727 9.87812 0.855761 9.49219 1.33183 9.49219Z" fill="#FFE15A"/>
<path d="M50.4696 20.4121H0.469727V31.331H50.4696V20.4121Z" fill="#73AF00"/>
<path d="M25.9604 15.028L28.5419 22.7685L36.7013 22.8317C37.199 22.8357 37.4054 23.4707 37.0051 23.7664L30.4412 28.6136L32.9024 36.3932C33.0525 36.8678 32.5122 37.2602 32.1073 36.9709L25.469 32.2261L18.8307 36.9709C18.4257 37.2603 17.8855 36.8678 18.0356 36.3932L20.4968 28.6136L13.9329 23.7664C13.5325 23.4707 13.7389 22.8355 14.2367 22.8317L22.3961 22.7685L24.9776 15.028C25.135 14.5558 25.8029 14.5558 25.9604 15.028Z" fill="#F5F5F5"/>
</g>
<defs>
<clipPath id="clip0_3462_30280">
<rect width="50" height="50" fill="white" transform="translate(0.46875 0.871094)"/>
</clipPath>
</defs>
</svg>
