<svg width="51" height="51" viewBox="0 0 51 51" fill="none" xmlns="http://www.w3.org/2000/svg">
<g clip-path="url(#clip0_3462_30269)">
<path d="M0.898438 34.2227V10.0848C0.898438 9.60869 1.28447 9.22266 1.76055 9.22266H38.8295L0.898438 34.2227Z" fill="#41479B"/>
<path d="M50.8988 16.9805V41.1184C50.8988 41.5944 50.5128 41.9805 50.0367 41.9805H12.9678L50.8988 16.9805Z" fill="#73AF00"/>
<path d="M50.8984 17.4675V10.0848C50.8984 9.60869 50.5124 9.22266 50.0363 9.22266H38.3144L0.898438 33.7366V41.1192C0.898438 41.5953 1.28447 41.9813 1.76055 41.9813H13.4825L50.8984 17.4675Z" fill="#F5F5F5"/>
<path d="M50.8984 14.3762V10.0848C50.8984 9.60869 50.5124 9.22266 50.0363 9.22266H43.0326L0.898438 36.8279V41.1193C0.898438 41.5954 1.28447 41.9814 1.76055 41.9814H8.76426L50.8984 14.3762Z" fill="#FF4B55"/>
<path d="M9.70908 14.8489C10.5578 14.8489 11.326 15.1928 11.8823 15.7487L12.1875 13.631L10.5044 14.9553L9.70898 12.9668L8.91357 14.9553L7.23047 13.631L7.53564 15.7487C8.09219 15.1927 8.86035 14.8489 9.70908 14.8489Z" fill="#FFE15A"/>
<path d="M7.53389 20.0971C6.97793 19.5407 6.63408 18.7724 6.63408 17.9238C6.63408 17.0751 6.97793 16.3069 7.53389 15.7506L5.41611 15.4453L6.74043 17.1284L4.75195 17.9238L6.74043 18.7192L5.41611 20.4023L7.53389 20.0971Z" fill="#FFE15A"/>
<path d="M14.6657 17.9237L12.6772 17.1283L14.0016 15.4453L11.8838 15.7505C12.4397 16.3068 12.7836 17.0752 12.7836 17.9237C12.7836 18.7724 12.4397 19.5406 11.8838 20.097L14.0016 20.4021L12.6772 18.719L14.6657 17.9237Z" fill="#FFE15A"/>
<path d="M9.70889 20.9975C8.86016 20.9975 8.09199 20.6536 7.53564 20.0977L7.23047 22.2154L8.91357 20.8911L9.70898 22.8796L10.5044 20.8911L12.1875 22.2154L11.8823 20.0977C11.3258 20.6537 10.5576 20.9975 9.70889 20.9975Z" fill="#FFE15A"/>
<path d="M9.70889 20.4334C11.0955 20.4334 12.2195 19.3093 12.2195 17.9228C12.2195 16.5362 11.0955 15.4121 9.70889 15.4121C8.3223 15.4121 7.19824 16.5362 7.19824 17.9228C7.19824 19.3093 8.3223 20.4334 9.70889 20.4334Z" fill="#FFE15A"/>
</g>
<defs>
<clipPath id="clip0_3462_30269">
<rect width="50" height="50" fill="white" transform="translate(0.898438 0.601562)"/>
</clipPath>
</defs>
</svg>
