<svg width="51" height="51" viewBox="0 0 51 51" fill="none" xmlns="http://www.w3.org/2000/svg">
<g clip-path="url(#clip0_3462_30261)">
<path d="M49.3302 9.49219H1.05449C0.578417 9.49219 0.192383 9.87812 0.192383 10.3542V41.3886C0.192383 41.8647 0.578417 42.2507 1.05449 42.2507H49.3303C49.8064 42.2507 50.1924 41.8647 50.1924 41.3886V10.3542C50.1923 9.87812 49.8063 9.49219 49.3302 9.49219Z" fill="#41479B"/>
<path d="M34.7228 25.6601L32.2506 25.1107C31.8955 21.7986 29.2656 19.1701 25.9536 18.8147L25.4039 16.3411C25.3601 16.1441 25.0267 16.1441 24.983 16.3411L24.4347 18.8089C21.1212 19.1633 18.4918 21.7975 18.1365 25.1107L15.664 25.6601C15.5653 25.682 15.4951 25.7696 15.4951 25.8706C15.4951 25.9715 15.5653 26.0591 15.6639 26.081L18.1364 26.6304C18.4916 29.943 21.1211 32.5743 24.4339 32.9291L24.9829 35.3999C25.0049 35.4986 25.0925 35.5688 25.1934 35.5688C25.2944 35.5688 25.382 35.4986 25.4039 35.4L25.9538 32.9254C29.2655 32.5701 31.8954 29.9423 32.2506 26.6305L34.723 26.0811C34.8215 26.0591 34.8918 25.9716 34.8918 25.8706C34.8918 25.7695 34.8214 25.682 34.7228 25.6601ZM31.8141 25.0136L27.0982 23.9657L26.0508 19.2524C29.049 19.6392 31.4278 22.0153 31.8141 25.0136ZM24.3361 19.2516L23.2885 23.9659L18.574 25.0135C18.9607 22.0153 21.338 19.6383 24.3361 19.2516ZM23.4006 24.3825L24.8886 25.8706H16.704L23.4006 24.3825ZM18.5742 26.7279L23.2887 27.7755L24.3365 32.491C21.338 32.1044 18.9607 29.726 18.5742 26.7279ZM25.1933 34.3599L23.7053 27.6632L25.1933 26.1754V34.3599ZM25.1933 25.5658V17.3812L26.6814 24.0779L25.1933 25.5658ZM26.0515 32.4851L27.0981 27.7753L31.8139 26.7274C31.4277 29.7251 29.0492 32.0978 26.0515 32.4851ZM26.9861 27.3586L25.4981 25.8706H33.6827L26.9861 27.3586Z" fill="#F5F5F5"/>
<path d="M13.9866 26.0854H1.91768C1.79863 26.0854 1.70215 25.9889 1.70215 25.8698C1.70215 25.7508 1.79863 25.6543 1.91768 25.6543H13.9866C14.1056 25.6543 14.2021 25.7508 14.2021 25.8698C14.2021 25.9889 14.1057 26.0854 13.9866 26.0854Z" fill="#F5F5F5"/>
<path d="M48.47 26.0854H36.4011C36.282 26.0854 36.1855 25.9889 36.1855 25.8698C36.1855 25.7508 36.282 25.6543 36.4011 25.6543H48.47C48.589 25.6543 48.6855 25.7508 48.6855 25.8698C48.6855 25.9889 48.589 26.0854 48.47 26.0854Z" fill="#F5F5F5"/>
<path d="M25.1931 14.8793C25.074 14.8793 24.9775 14.7828 24.9775 14.6638V11.2155C24.9775 11.0965 25.074 11 25.1931 11C25.3121 11 25.4086 11.0965 25.4086 11.2155V14.6638C25.4086 14.7829 25.3121 14.8793 25.1931 14.8793Z" fill="#F5F5F5"/>
<path d="M25.1931 40.7406C25.074 40.7406 24.9775 40.6441 24.9775 40.5251V37.0769C24.9775 36.9578 25.074 36.8613 25.1931 36.8613C25.3121 36.8613 25.4086 36.9578 25.4086 37.0769V40.5251C25.4086 40.6441 25.3121 40.7406 25.1931 40.7406Z" fill="#F5F5F5"/>
</g>
<defs>
<clipPath id="clip0_3462_30261">
<rect width="50" height="50" fill="white" transform="translate(0.191406 0.871094)"/>
</clipPath>
</defs>
</svg>
