<svg width="51" height="51" viewBox="0 0 51 51" fill="none" xmlns="http://www.w3.org/2000/svg">
<g clip-path="url(#clip0_3462_30257)">
<path d="M49.7423 42.2761H1.4666C0.990527 42.2761 0.604492 41.8901 0.604492 41.414V10.3797C0.604492 9.90361 0.990527 9.51758 1.4666 9.51758H49.7424C50.2185 9.51758 50.6045 9.90361 50.6045 10.3797V41.414C50.6044 41.8902 50.2184 42.2761 49.7423 42.2761Z" fill="#41479B"/>
<path d="M50.6044 24.1719H0.604492V27.6201H50.6044V24.1719Z" fill="#FFE15A"/>
<path d="M12.2426 31.0684L12.7446 33.0742L14.1822 31.5881L13.6142 33.5762L15.6021 33.008L14.1162 34.4458L16.1219 34.9476L14.1162 35.4497L15.6021 36.8873L13.6142 36.3192L14.1822 38.3073L12.7446 36.8213L12.2426 38.827L11.7405 36.8213L10.3029 38.3073L10.8711 36.3192L8.88301 36.8873L10.369 35.4497L8.36328 34.9476L10.369 34.4458L8.88301 33.008L10.8711 33.5762L10.3029 31.5881L11.7405 33.0742L12.2426 31.0684Z" fill="#F5F5F5"/>
</g>
<defs>
<clipPath id="clip0_3462_30257">
<rect width="50" height="50" fill="white" transform="translate(0.603516 0.896484)"/>
</clipPath>
</defs>
</svg>
