<svg width="51" height="51" viewBox="0 0 51 51" fill="none" xmlns="http://www.w3.org/2000/svg">
<g clip-path="url(#clip0_3462_30250)">
<path d="M49.169 42.2762H0.893358C0.417284 42.2762 0.03125 41.8902 0.03125 41.4141V10.3797C0.03125 9.90361 0.417284 9.51758 0.893358 9.51758H49.1691C49.6452 9.51758 50.0312 9.90361 50.0312 10.3797V41.4141C50.0312 41.8903 49.6451 42.2762 49.169 42.2762Z" fill="#F5F5F5"/>
<path d="M1.15195 11.7234L19.0121 24.7751H7.76014H5.25019L6.92557 26.6439L19.935 41.1543H1.15195V11.7234ZM0.332128 9.73633C0.151172 9.89443 0.03125 10.1194 0.03125 10.3784V41.4128C0.03125 41.8889 0.417284 42.2749 0.893358 42.2749H22.4451L7.76014 25.8957H22.4451L0.332128 9.73633Z" fill="#41479B"/>
<path d="M1.15234 11.7246L19.0125 24.7761H7.76053H5.25058L6.92616 26.6449L19.9355 41.1554H1.15234V11.7246Z" fill="#FF4B55"/>
<path d="M6.60783 29.842L7.29787 31.2661L8.60753 30.3778C8.66525 30.3386 8.74288 30.3834 8.7378 30.453L8.62345 32.0313L10.2018 31.917C10.2714 31.9119 10.3162 31.9895 10.277 32.0472L9.38868 33.3569L10.8128 34.047C10.8756 34.0774 10.8756 34.1669 10.8128 34.1973L9.38868 34.8874L10.277 36.197C10.3162 36.2548 10.2714 36.3324 10.2018 36.3273L8.62345 36.213L8.7378 37.7913C8.74288 37.8609 8.66525 37.9057 8.60753 37.8665L7.29787 36.9782L6.60783 38.4023C6.57736 38.4651 6.48791 38.4651 6.45744 38.4023L5.7674 36.9782L4.45773 37.8665C4.40002 37.9057 4.32238 37.8609 4.32746 37.7913L4.44182 36.213L2.8635 36.3273C2.79387 36.3324 2.74905 36.2548 2.7883 36.197L3.67658 34.8874L2.25217 34.1976C2.18938 34.1672 2.18938 34.0777 2.25217 34.0472L3.67629 33.3572L2.78801 32.0475C2.74875 31.9898 2.79358 31.9122 2.86321 31.9173L4.44152 32.0316L4.32717 30.4533C4.32209 30.3837 4.39973 30.3389 4.45744 30.3781L5.76711 31.2664L6.45715 29.8423C6.48781 29.7792 6.57736 29.7792 6.60783 29.842Z" fill="#F5F5F5"/>
<path d="M8.40018 21.6057L7.80106 21.1964L8.3285 20.6436L7.57684 20.5063L7.83388 19.7869L7.0914 19.9673L7.03349 19.2056L6.4286 19.6723L6.06601 19L5.70331 19.6725L5.09843 19.2058L5.04052 19.9675L4.29804 19.7871L4.55507 20.5065L3.80341 20.6437L4.33085 21.1966L3.73173 21.6059C2.97578 21.2529 2.31113 20.7372 1.78809 20.0993C2.13945 22.1463 3.91845 23.7057 6.06581 23.7057C8.21317 23.7057 9.99207 22.1463 10.3435 20.0993C9.82079 20.7371 9.15604 21.2527 8.40018 21.6057Z" fill="#F5F5F5"/>
</g>
<defs>
<clipPath id="clip0_3462_30250">
<rect width="50" height="50" fill="white" transform="translate(0.03125 0.896484)"/>
</clipPath>
</defs>
</svg>
