<svg width="51" height="51" viewBox="0 0 51 51" fill="none" xmlns="http://www.w3.org/2000/svg">
<g clip-path="url(#clip0_3462_30229)">
<path d="M49.8897 42.2762H1.61406C1.13799 42.2762 0.751953 41.8902 0.751953 41.4141V10.3797C0.751953 9.90361 1.13799 9.51758 1.61406 9.51758H49.8898C50.3659 9.51758 50.752 9.90361 50.752 10.3797V41.4141C50.7519 41.8903 50.3658 42.2762 49.8897 42.2762Z" fill="#41479B"/>
<path d="M24.8898 9.51758H23.3923L15.407 14.7494V9.51758H11.0967V14.7494L3.11132 9.51758H1.61406C1.13799 9.51758 0.751953 9.90351 0.751953 10.3796V11.0634L7.60301 15.5519H0.751953V19.8623H7.60301L0.751953 24.351V25.0347C0.751953 25.5108 1.13799 25.8968 1.61406 25.8968H3.11152L11.0969 20.665V25.8968H15.4072V20.665L23.3924 25.8968H24.8899C25.366 25.8968 25.752 25.5108 25.752 25.0347V24.351L18.9009 19.8624H25.7519V15.552H18.9008L25.7519 11.0635V10.3797C25.7519 9.90352 25.3659 9.51758 24.8898 9.51758Z" fill="#F5F5F5"/>
<path d="M25.7519 16.4141H14.545V9.51758H11.9589V16.4141H0.751953V19.0003H11.9589V25.8968H14.545V19.0003H25.7519V16.4141Z" fill="#FF4B55"/>
<path d="M10.2346 15.5528L1.16279 9.66406C0.921386 9.8168 0.751953 10.0735 0.751953 10.3804V10.4251L8.65125 15.5528H10.2346Z" fill="#FF4B55"/>
<path d="M16.9906 15.552L25.6209 9.9499C25.4709 9.69609 25.2062 9.51758 24.8899 9.51758H24.7035L15.4072 15.552H16.9906Z" fill="#FF4B55"/>
<path d="M9.48973 19.8633L0.875977 25.4547C1.02451 25.7146 1.29326 25.8977 1.61416 25.8977H1.77676L11.0732 19.8633H9.48973V19.8633Z" fill="#FF4B55"/>
<path d="M25.7383 25.1033L17.6654 19.8633H16.082L25.2494 25.814C25.524 25.6865 25.7124 25.4194 25.7383 25.1033Z" fill="#FF4B55"/>
<path d="M39.3725 36.8462C39.3375 36.8462 39.3023 36.8352 39.2723 36.8142L38.252 36.0851L37.2316 36.8142C37.2017 36.8352 37.1663 36.8462 37.1314 36.8462C37.0956 36.8462 37.0603 36.8352 37.03 36.8133C36.9703 36.7695 36.9446 36.6921 36.9668 36.6214L37.3453 35.4259L36.3368 34.6817C36.277 34.6371 36.2522 34.5605 36.2749 34.4898C36.2981 34.4191 36.3633 34.3711 36.4378 34.3703L37.6918 34.3602L38.0884 33.1706C38.1121 33.1008 38.1781 33.0527 38.2522 33.0527C38.3263 33.0527 38.3924 33.1007 38.416 33.1706L38.8125 34.3602L40.0665 34.3703C40.141 34.3712 40.2063 34.4191 40.2294 34.4898C40.2522 34.5605 40.2273 34.6371 40.1676 34.6817L39.1591 35.4259L39.5375 36.6214C39.5598 36.6921 39.5342 36.7695 39.4744 36.8133C39.4437 36.8352 39.4079 36.8462 39.3725 36.8462Z" fill="#FF4B55"/>
<path d="M38.2525 33.2237L38.6881 34.5302L40.0652 34.5408L38.9573 35.3589L39.3728 36.6719L38.2525 35.8712L37.132 36.6721L37.5475 35.3591L36.4396 34.541L37.8167 34.5304L38.2525 33.2237ZM38.2525 32.8789C38.1041 32.8789 37.9723 32.9738 37.9253 33.1146L37.5676 34.1873L36.4369 34.1961C36.2886 34.1972 36.1575 34.2932 36.1116 34.4344C36.0657 34.5756 36.1154 34.7302 36.2347 34.8184L37.1442 35.49L36.8032 36.5681C36.7585 36.7096 36.8093 36.8639 36.9293 36.9511C36.9898 36.9949 37.0609 37.0169 37.132 37.0169C37.2023 37.0169 37.2726 36.9954 37.3326 36.9525L38.2525 36.295L39.1725 36.9525C39.2325 36.9953 39.3027 37.0169 39.373 37.0169C39.4441 37.0169 39.5152 36.9949 39.5757 36.9511C39.6957 36.8638 39.7465 36.7096 39.7018 36.5681L39.3608 35.49L40.2703 34.8184C40.3898 34.7302 40.4393 34.5756 40.3934 34.4344C40.3475 34.2933 40.2165 34.1972 40.0681 34.1961L38.9374 34.1873L38.5797 33.1146C38.5326 32.9739 38.4008 32.8789 38.2525 32.8789Z" fill="#F5F5F5"/>
<path d="M39.3725 22.9457C39.3371 22.9457 39.3023 22.9347 39.2723 22.9137L38.252 22.1839L37.2316 22.9138C37.2017 22.9348 37.1663 22.9458 37.1314 22.9458C37.096 22.9458 37.0603 22.9348 37.03 22.9129C36.9703 22.8691 36.9446 22.7917 36.9668 22.721L37.3453 21.5255L36.3368 20.7805C36.277 20.7358 36.2522 20.6584 36.2749 20.5886C36.2981 20.5179 36.3637 20.4698 36.4378 20.469L37.6918 20.4598L38.0884 19.2702C38.1121 19.2004 38.1781 19.1523 38.2522 19.1523C38.3263 19.1523 38.3924 19.2003 38.416 19.2702L38.8125 20.4598L40.0665 20.469C40.1407 20.4699 40.2063 20.5179 40.2294 20.5886C40.2522 20.6584 40.2273 20.7358 40.1676 20.7805L39.1591 21.5255L39.5375 22.721C39.5598 22.7917 39.5342 22.8691 39.4744 22.9129C39.4437 22.9348 39.4079 22.9457 39.3725 22.9457Z" fill="#FF4B55"/>
<path d="M38.2525 19.3253L38.6881 20.6317L40.0652 20.6424L38.9573 21.4604L39.3728 22.7735L38.2525 21.9726L37.132 22.7735L37.5475 21.4604L36.4396 20.6424L37.8167 20.6317L38.2525 19.3253ZM38.2525 18.9805C38.1041 18.9805 37.9723 19.0754 37.9253 19.2162L37.5676 20.2889L36.4369 20.2977C36.2886 20.2987 36.1575 20.3947 36.1116 20.5359C36.0657 20.6771 36.1154 20.8317 36.2347 20.9199L37.1442 21.5916L36.8032 22.6696C36.7585 22.8111 36.8093 22.9654 36.9293 23.0526C36.9898 23.0965 37.0609 23.1184 37.132 23.1184C37.2023 23.1184 37.2726 23.097 37.3326 23.0541L38.2525 22.3966L39.1725 23.0541C39.2325 23.0969 39.3027 23.1184 39.373 23.1184C39.4441 23.1184 39.5152 23.0965 39.5757 23.0526C39.6957 22.9653 39.7465 22.8111 39.7018 22.6696L39.3608 21.5916L40.2703 20.9199C40.3898 20.8317 40.4393 20.6771 40.3934 20.5359C40.3475 20.3947 40.2165 20.2987 40.0681 20.2977L38.9374 20.2889L38.5797 19.2162C38.5326 19.0754 38.4008 18.9805 38.2525 18.9805Z" fill="#F5F5F5"/>
<path d="M45.4066 27.2563C45.3712 27.2563 45.3364 27.2453 45.3064 27.2243L44.2862 26.4944L43.2658 27.2243C43.2359 27.2453 43.2005 27.2563 43.1656 27.2563C43.1302 27.2563 43.0945 27.2453 43.0642 27.2234C43.0044 27.1797 42.9788 27.1022 43.001 27.0315L43.3794 25.836L42.3709 25.091C42.3112 25.0464 42.2864 24.9689 42.3091 24.8991C42.3323 24.8284 42.3979 24.7804 42.472 24.7796L43.726 24.7703L44.1226 23.5808C44.1462 23.5109 44.2122 23.4629 44.2864 23.4629C44.3605 23.4629 44.4266 23.5108 44.4501 23.5808L44.8467 24.7703L46.1007 24.7796C46.1748 24.7805 46.2405 24.8284 46.2636 24.8991C46.2864 24.9689 46.2615 25.0464 46.2018 25.091L45.1933 25.836L45.5717 27.0315C45.594 27.1022 45.5684 27.1797 45.5085 27.2234C45.4778 27.2453 45.442 27.2563 45.4066 27.2563Z" fill="#FF4B55"/>
<path d="M44.2866 23.6358L44.7223 24.9423L46.0994 24.9529L44.9915 25.771L45.4069 27.0841L44.2865 26.2832L43.1661 27.0841L43.5816 25.7711L42.4736 24.953L43.8508 24.9424L44.2866 23.6358ZM44.2866 23.291C44.1383 23.291 44.0065 23.3859 43.9595 23.5268L43.6018 24.5994L42.4711 24.6082C42.3228 24.6093 42.1917 24.7053 42.1458 24.8465C42.0999 24.9877 42.1496 25.1423 42.2689 25.2305L43.1784 25.9021L42.8374 26.9802C42.7927 27.1217 42.8435 27.276 42.9635 27.3632C43.0239 27.407 43.095 27.429 43.1662 27.429C43.2364 27.429 43.3067 27.4075 43.3667 27.3646L44.2866 26.7071L45.2066 27.3646C45.2666 27.4074 45.3368 27.429 45.4071 27.429C45.4782 27.429 45.5494 27.407 45.6099 27.3632C45.7299 27.2759 45.7807 27.1217 45.7359 26.9802L45.3949 25.9021L46.3045 25.2305C46.4239 25.1423 46.4734 24.9877 46.4275 24.8465C46.3816 24.7053 46.2507 24.6093 46.1023 24.6082L44.9716 24.5994L44.6139 23.5268C44.5668 23.3859 44.4351 23.291 44.2866 23.291Z" fill="#F5F5F5"/>
<path d="M33.3382 28.981C33.3029 28.981 33.268 28.9699 33.238 28.9489L32.2178 28.219L31.1974 28.9489C31.1675 28.9699 31.1322 28.981 31.0972 28.981C31.0619 28.981 31.0261 28.9699 30.9958 28.948C30.9361 28.9043 30.9104 28.8268 30.9327 28.7561L31.3111 27.5606L30.3026 26.8156C30.2428 26.771 30.218 26.6936 30.2408 26.6237C30.2639 26.553 30.3295 26.505 30.4037 26.5042L31.6577 26.4949L32.0542 25.3054C32.0779 25.2355 32.1439 25.1875 32.218 25.1875C32.2921 25.1875 32.3582 25.2354 32.3818 25.3054L32.7784 26.4949L34.0324 26.5042C34.1065 26.5051 34.1721 26.553 34.1953 26.6237C34.218 26.6936 34.1931 26.771 34.1334 26.8156L33.1249 27.5606L33.5034 28.7561C33.5256 28.8268 33.5 28.9043 33.4402 28.948C33.4094 28.97 33.3737 28.981 33.3382 28.981Z" fill="#FF4B55"/>
<path d="M32.2173 25.3604L32.6529 26.6669L34.0301 26.6775L32.9222 27.4956L33.3376 28.8087L32.2172 28.0078L31.0968 28.8087L31.5122 27.4956L30.4043 26.6775L31.7815 26.6669L32.2173 25.3604ZM32.2173 25.0156C32.069 25.0156 31.9371 25.1105 31.8901 25.2514L31.5324 26.324L30.4018 26.3328C30.2534 26.3339 30.1224 26.4299 30.0765 26.5711C30.0306 26.7123 30.0803 26.8669 30.1995 26.9551L31.1091 27.6268L30.7681 28.7048C30.7233 28.8463 30.7741 29.0006 30.8941 29.0878C30.9546 29.1316 31.0257 29.1536 31.0969 29.1536C31.1671 29.1536 31.2374 29.1321 31.2974 29.0893L32.2173 28.4317L33.1372 29.0893C33.1973 29.132 33.2675 29.1536 33.3377 29.1536C33.4088 29.1536 33.48 29.1316 33.5404 29.0878C33.6605 29.0005 33.7112 28.8463 33.6665 28.7048L33.3255 27.6268L34.2351 26.9551C34.3545 26.8669 34.404 26.7123 34.3581 26.5711C34.3122 26.4299 34.1813 26.3339 34.0328 26.3328L32.9022 26.324L32.5444 25.2514C32.4975 25.1105 32.3656 25.0156 32.2173 25.0156Z" fill="#F5F5F5"/>
</g>
<defs>
<clipPath id="clip0_3462_30229">
<rect width="50" height="50" fill="white" transform="translate(0.751953 0.896484)"/>
</clipPath>
</defs>
</svg>
