<svg width="51" height="51" viewBox="0 0 51 51" fill="none" xmlns="http://www.w3.org/2000/svg">
<g clip-path="url(#clip0_3462_30184)">
<path d="M50.1796 20.4372H0.179688V10.3797C0.179688 9.90361 0.565722 9.51758 1.0418 9.51758H49.3176C49.7937 9.51758 50.1797 9.90361 50.1797 10.3797L50.1796 20.4372Z" fill="#41479B"/>
<path d="M49.3165 42.2769H1.04082C0.564745 42.2769 0.178711 41.8909 0.178711 41.4148V31.3574H50.1786V41.4148C50.1786 41.891 49.7926 42.2769 49.3165 42.2769Z" fill="#41479B"/>
<path d="M50.1786 20.4355H0.178711V31.3545H50.1786V20.4355Z" fill="#F5F5F5"/>
<path d="M25.1784 22.7402L22.5488 26.6073H27.808L25.1784 22.7402Z" fill="#AFEBFF"/>
<path d="M22.5492 26.6074L20.8477 29.0824H29.5099L27.8084 26.6074H22.5492Z" fill="#557DE6"/>
<path d="M25.8525 26.391C25.863 26.3694 25.874 26.3482 25.8835 26.3262C25.8741 26.348 25.863 26.3694 25.8525 26.391Z" fill="#73AF00"/>
<path d="M25.9248 26.2123C25.9312 26.1929 25.9391 26.174 25.9446 26.1543C25.939 26.1739 25.9312 26.1928 25.9248 26.2123Z" fill="#73AF00"/>
<path d="M25.7637 26.5522C25.777 26.5311 25.79 26.51 25.8024 26.4883C25.7901 26.5101 25.7769 26.5312 25.7637 26.5522Z" fill="#73AF00"/>
<path d="M26.1646 25.832C26.141 25.832 26.1185 25.8359 26.0977 25.8429C26.1185 25.8358 26.141 25.832 26.1646 25.832Z" fill="#73AF00"/>
<path d="M26.0417 25.873C26.009 25.8986 25.9865 25.9343 25.9814 25.9749V25.9751V25.9749C25.9866 25.9343 26.0089 25.8985 26.0417 25.873Z" fill="#73AF00"/>
<path d="M25.9619 27.0269C25.9987 27.0619 26.0353 27.0951 26.072 27.127C26.2683 26.957 26.4731 26.7411 26.6169 26.4885C26.6065 26.5065 26.5954 26.5241 26.5845 26.5419C26.4502 26.295 26.3793 26.0814 26.3449 25.9548C26.3253 25.8825 26.2505 25.8321 26.165 25.832C26.1979 26.1205 26.2687 26.6507 25.9619 27.0269Z" fill="#73AF00"/>
<path d="M26.7402 26.2123C26.7467 26.1929 26.7545 26.174 26.7601 26.1543C26.7545 26.1739 26.7467 26.1928 26.7402 26.2123Z" fill="#73AF00"/>
<path d="M26.8571 25.873C26.8244 25.8986 26.802 25.9343 26.7969 25.9749V25.9751V25.9749C26.8021 25.9343 26.8243 25.8985 26.8571 25.873Z" fill="#73AF00"/>
<path d="M26.668 26.391C26.6784 26.3694 26.6895 26.3482 26.6989 26.3262C26.6894 26.348 26.6784 26.3694 26.668 26.391Z" fill="#73AF00"/>
<path d="M28.3371 27.227C28.039 27.227 27.7568 27.0839 27.5846 26.8405C27.3251 26.4739 27.2074 26.1321 27.1599 25.9568C27.1402 25.8844 27.0652 25.834 26.9797 25.834L26.98 25.8341C27.0192 26.1784 27.1126 26.8668 26.5531 27.2271H26.1889C26.1739 27.2152 26.1594 27.2039 26.144 27.1914C26.1443 27.1917 26.1447 27.192 26.145 27.1923C26.0431 27.3254 25.8392 27.3627 25.681 27.2812C25.0191 26.9401 25.1219 26.1963 25.1632 25.8341C25.0777 25.8342 25.0029 25.8845 24.9833 25.9568C24.9489 26.0835 24.878 26.2971 24.7437 26.5439C24.7329 26.5262 24.7217 26.5087 24.7113 26.4905C24.873 26.7747 25.113 27.0145 25.3298 27.1923C25.2278 27.3254 25.0239 27.3627 24.8658 27.2812C24.2039 26.9401 24.3066 26.1962 24.3479 25.8341C24.2625 25.8342 24.1877 25.8845 24.1681 25.9568C24.1337 26.0835 24.0628 26.2971 23.9285 26.5439C23.9177 26.5262 23.9064 26.5087 23.8961 26.4905C24.0578 26.7747 24.2977 27.0145 24.5145 27.1923C24.4126 27.3254 24.2087 27.3627 24.0506 27.2812C23.3887 26.9401 23.4914 26.1963 23.5327 25.8341L23.533 25.834C23.4475 25.834 23.3725 25.8843 23.3528 25.9568C23.3053 26.1321 23.1876 26.4739 22.9281 26.8405C22.756 27.084 22.4738 27.227 22.1756 27.227H21.9307V27.5363H28.2727H28.4273V27.227H28.3371Z" fill="#73AF00"/>
<path d="M25.4453 26.3262C25.4548 26.3482 25.4658 26.3695 25.4763 26.391C25.4658 26.3695 25.4547 26.3481 25.4453 26.3262Z" fill="#73AF00"/>
<path d="M25.3848 26.1543C25.3902 26.174 25.3981 26.1929 25.4046 26.2123C25.398 26.1929 25.3902 26.174 25.3848 26.1543Z" fill="#73AF00"/>
<path d="M25.3474 25.9751V25.9749C25.3423 25.9343 25.32 25.8986 25.2871 25.873C25.3198 25.8986 25.3423 25.9343 25.3474 25.9749V25.9751Z" fill="#73AF00"/>
<path d="M25.5273 26.4883C25.5397 26.5101 25.5529 26.5311 25.5661 26.5522C25.5529 26.5311 25.5397 26.51 25.5273 26.4883Z" fill="#73AF00"/>
<path d="M25.6696 26.7024C25.668 26.7004 25.6666 26.6982 25.665 26.6961C25.6783 26.6784 25.691 26.6606 25.7038 26.6426C25.6911 26.6605 25.678 26.6783 25.6648 26.6959C25.6516 26.6783 25.6386 26.6606 25.626 26.6426C25.6402 26.6628 25.6547 26.6826 25.6696 26.7024Z" fill="#73AF00"/>
<path d="M25.7373 26.7891C25.7523 26.8071 25.7674 26.8252 25.7828 26.8426C25.7674 26.8252 25.7523 26.8071 25.7373 26.7891Z" fill="#73AF00"/>
<path d="M25.9031 26.9703C25.8887 26.9559 25.8746 26.9407 25.8604 26.9258C25.8747 26.9408 25.8887 26.9559 25.9031 26.9703Z" fill="#73AF00"/>
<path d="M26.9801 25.8322L26.9798 25.8321C26.9328 25.8321 26.8895 25.8475 26.8567 25.8729C26.824 25.8985 26.8015 25.9342 26.7964 25.9748V25.975C26.7888 26.036 26.7758 26.0955 26.7595 26.154C26.754 26.1737 26.7461 26.1926 26.7397 26.212C26.7271 26.2503 26.7141 26.2884 26.6983 26.3254C26.6888 26.3475 26.6778 26.3687 26.6673 26.3902C26.6513 26.4234 26.6349 26.4565 26.6166 26.4886C26.4729 26.7411 26.268 26.9571 26.0717 27.127C26.0351 27.0954 25.9986 27.0621 25.9616 27.027C26.2683 26.6508 26.1977 26.1206 26.1649 25.8321L26.1646 25.832C26.141 25.832 26.1185 25.8359 26.0977 25.8429C26.0769 25.8499 26.0578 25.8602 26.0414 25.8729C26.0087 25.8984 25.9863 25.9341 25.9812 25.9747V25.9749C25.9736 26.0359 25.9606 26.0954 25.9442 26.1539C25.9387 26.1736 25.9308 26.1925 25.9243 26.2119C25.9117 26.2502 25.8988 26.2883 25.8829 26.3253C25.8735 26.3474 25.8624 26.3687 25.852 26.3901C25.836 26.4233 25.8196 26.4564 25.8013 26.4885C25.7889 26.5103 25.7757 26.5312 25.7625 26.5524C25.7434 26.5831 25.7238 26.6135 25.703 26.643C25.6903 26.661 25.6774 26.679 25.6642 26.6965C25.6509 26.6788 25.6378 26.661 25.625 26.643C25.6042 26.6135 25.5846 26.5832 25.5655 26.5524C25.5522 26.5312 25.5391 26.5102 25.5267 26.4885C25.5083 26.4563 25.4921 26.4232 25.476 26.3901C25.4656 26.3686 25.4545 26.3474 25.445 26.3253C25.4292 26.2884 25.4162 26.2502 25.4036 26.2119C25.3972 26.1925 25.3894 26.1736 25.3838 26.1539C25.3674 26.0955 25.3545 26.0359 25.3469 25.9749V25.9747C25.3418 25.9341 25.3196 25.8984 25.2867 25.8729C25.2539 25.8473 25.2106 25.832 25.1636 25.832L25.1633 25.8321C25.1221 26.1943 25.0193 26.9382 25.6812 27.2792C25.7928 27.3367 25.9268 27.3345 26.0319 27.2815C26.099 27.2477 26.171 27.2251 26.2461 27.2251H26.5533C27.1127 26.8649 27.0194 26.1765 26.9801 25.8322Z" fill="#FFE15A"/>
<path d="M24.5693 26.1543C24.5748 26.174 24.5827 26.1929 24.5892 26.2123C24.5827 26.1929 24.5749 26.174 24.5693 26.1543Z" fill="#73AF00"/>
<path d="M24.5319 25.9751V25.9749C24.5269 25.9343 24.5046 25.8986 24.4717 25.873C24.5044 25.8986 24.5269 25.9343 24.5319 25.9749V25.9751Z" fill="#73AF00"/>
<path d="M24.6309 26.3242C24.6403 26.3463 24.6514 26.3676 24.6618 26.3891C24.6513 26.3676 24.6403 26.3462 24.6309 26.3242Z" fill="#73AF00"/>
<path d="M24.3486 25.832C24.3722 25.832 24.3947 25.8359 24.4155 25.8429C24.3946 25.8358 24.3721 25.832 24.3486 25.832Z" fill="#73AF00"/>
<path d="M24.8658 27.2791C25.024 27.3605 25.2279 27.3232 25.3297 27.1902C25.1129 27.0125 24.8731 26.7728 24.7113 26.4885C24.6929 26.4563 24.6767 26.4232 24.6606 26.3901C24.6502 26.3686 24.6391 26.3474 24.6296 26.3253C24.6138 26.2884 24.6008 26.2502 24.5882 26.2119C24.5818 26.1925 24.574 26.1736 24.5684 26.1539C24.552 26.0955 24.5391 26.0359 24.5315 25.9749V25.9747C24.5264 25.9341 24.5042 25.8984 24.4713 25.8729C24.4548 25.8602 24.4358 25.8499 24.415 25.8429C24.3942 25.8358 24.3716 25.832 24.3481 25.832L24.3478 25.8321C24.3067 26.1942 24.2039 26.938 24.8658 27.2791Z" fill="#FFE15A"/>
<path d="M23.7529 26.1543C23.7584 26.174 23.7663 26.1929 23.7728 26.2123C23.7663 26.1929 23.7585 26.174 23.7529 26.1543Z" fill="#73AF00"/>
<path d="M23.8145 26.3262C23.8239 26.3482 23.835 26.3695 23.8454 26.391C23.835 26.3695 23.8238 26.3481 23.8145 26.3262Z" fill="#73AF00"/>
<path d="M23.7165 25.9751V25.9749C23.7114 25.9343 23.6892 25.8986 23.6562 25.873C23.689 25.8986 23.7114 25.9343 23.7165 25.9749V25.9751Z" fill="#73AF00"/>
<path d="M24.0504 27.2791C24.2086 27.3605 24.4125 27.3232 24.5144 27.1902C24.2976 27.0125 24.0578 26.7728 23.8959 26.4885C23.8776 26.4563 23.8614 26.4232 23.8453 26.3901C23.8348 26.3686 23.8238 26.3474 23.8143 26.3253C23.7985 26.2884 23.7855 26.2502 23.7729 26.2119C23.7665 26.1925 23.7586 26.1736 23.7531 26.1539C23.7367 26.0955 23.7238 26.0359 23.7162 25.9749V25.9747C23.7111 25.9341 23.6888 25.8984 23.6559 25.8729C23.6232 25.8473 23.5798 25.832 23.5328 25.832L23.5325 25.8321C23.4913 26.1942 23.3883 26.938 24.0504 27.2791Z" fill="#FFE15A"/>
<path d="M23.8755 24.6021C23.8627 24.6515 23.8497 24.7009 23.8369 24.7502C24.2592 24.6235 24.7252 24.5475 25.2309 24.5475C25.7365 24.5478 26.2025 24.6232 26.6248 24.7502C26.612 24.7009 26.599 24.6515 26.5862 24.6021C26.1662 24.4938 25.7142 24.4314 25.2309 24.4316C24.7477 24.4315 24.2956 24.4938 23.8755 24.6021Z" fill="#41479B"/>
<path d="M23.8931 24.5383C23.8803 24.5876 23.8673 24.637 23.8545 24.6863C24.2721 24.5594 24.7324 24.4832 25.2316 24.483C25.731 24.4832 26.1912 24.5593 26.6088 24.6863C26.596 24.637 26.583 24.5876 26.5702 24.5383C26.1549 24.4291 25.7086 24.3673 25.2316 24.3672C24.7546 24.3673 24.3084 24.4294 23.8931 24.5383Z" fill="#5AA0E6"/>
<path d="M23.9077 24.4784C23.8949 24.5277 23.8819 24.5772 23.8691 24.6265C24.2826 24.4991 24.7375 24.4224 25.2308 24.4226C25.7242 24.4226 26.179 24.499 26.5924 24.6265C26.5796 24.5772 26.5666 24.5277 26.5538 24.4784C26.143 24.3692 25.7019 24.3066 25.2308 24.3066C24.7596 24.3065 24.3187 24.3692 23.9077 24.4784Z" fill="#9BC800"/>
<path d="M23.9253 24.4107C23.9125 24.4601 23.8995 24.5095 23.8867 24.5588C24.2953 24.431 24.7441 24.3542 25.2307 24.3542C25.7172 24.3544 26.166 24.431 26.5746 24.5588C26.5618 24.5095 26.5488 24.4601 26.536 24.4107C26.13 24.3012 25.6953 24.2385 25.2307 24.2383C24.766 24.2384 24.3312 24.3012 23.9253 24.4107Z" fill="#FFE14E"/>
<path d="M23.9429 24.3449C23.9301 24.3942 23.9171 24.4437 23.9043 24.493C24.3082 24.3648 24.7508 24.2878 25.2308 24.2877C25.7107 24.288 26.1534 24.3647 26.5572 24.493C26.5444 24.4437 26.5314 24.3942 26.5186 24.3449C26.1177 24.2352 25.6889 24.1719 25.2308 24.1719C24.7727 24.1721 24.3439 24.2349 23.9429 24.3449Z" fill="#FFB14E"/>
<path d="M23.9509 24.3159C23.9418 24.3505 23.9329 24.385 23.9238 24.4196C24.3225 24.2913 24.7588 24.2135 25.2313 24.2136C25.7041 24.2134 26.1403 24.291 26.5389 24.4196C26.5298 24.3851 26.5209 24.3506 26.5118 24.3159C26.1129 24.2059 25.6866 24.1427 25.2312 24.1426C24.7761 24.1423 24.3499 24.2058 23.9509 24.3159Z" fill="#FF4B55"/>
<path d="M29.5104 29.2313H20.8481C20.7909 29.2313 20.7386 29.1998 20.7116 29.1497C20.6847 29.0994 20.6878 29.0382 20.7193 28.9908L25.0506 22.494C25.108 22.4083 25.2506 22.4083 25.308 22.494L29.6392 28.9908C29.6708 29.0382 29.6738 29.0993 29.6469 29.1497C29.6199 29.1999 29.5676 29.2313 29.5104 29.2313ZM21.1369 28.9219H29.2214L25.1792 22.8587L21.1369 28.9219Z" fill="#FFE15A"/>
<path d="M25.4749 25.2062C25.4749 25.0701 25.337 24.8633 25.1162 24.8633C24.9872 24.8633 24.8826 24.9422 24.8826 25.0394C24.8826 25.088 24.9087 25.1318 24.9508 25.1637C24.9506 25.1654 24.9505 25.1674 24.9504 25.169C24.8977 25.2014 24.8633 25.25 24.8633 25.3052C24.8633 25.3979 24.9589 25.4731 25.0797 25.48L25.1791 25.6788L25.2688 25.4993C25.3867 25.4693 25.4749 25.3498 25.4749 25.2062Z" fill="#FF4B55"/>
</g>
<defs>
<clipPath id="clip0_3462_30184">
<rect width="50" height="50" fill="white" transform="translate(0.179688 0.896484)"/>
</clipPath>
</defs>
</svg>
