<svg width="51" height="51" viewBox="0 0 51 51" fill="none" xmlns="http://www.w3.org/2000/svg">
<g clip-path="url(#clip0_3462_30179)">
<path d="M0.609375 31.3555H50.6093V41.4129C50.6093 41.8889 50.2232 42.275 49.7472 42.275H1.47148C0.995409 42.275 0.609375 41.8889 0.609375 41.4129V31.3555Z" fill="#73AF00"/>
<path d="M1.47148 9.51758H49.7473C50.2233 9.51758 50.6094 9.90361 50.6094 10.3797V20.4371H0.609375V10.3796C0.609375 9.90351 0.995409 9.51758 1.47148 9.51758Z" fill="#FF9B55"/>
<path d="M50.6093 20.4355H0.609375V31.3545H50.6093V20.4355Z" fill="#F5F5F5"/>
<path d="M25.6094 30.207C27.99 30.207 29.9199 28.2771 29.9199 25.8965C29.9199 23.5158 27.99 21.5859 25.6094 21.5859C23.2287 21.5859 21.2988 23.5158 21.2988 25.8965C21.2988 28.2771 23.2287 30.207 25.6094 30.207Z" fill="#FF9B55"/>
</g>
<defs>
<clipPath id="clip0_3462_30179">
<rect width="50" height="50" fill="white" transform="translate(0.609375 0.896484)"/>
</clipPath>
</defs>
</svg>
