<svg width="51" height="51" viewBox="0 0 51 51" fill="none" xmlns="http://www.w3.org/2000/svg">
<g clip-path="url(#clip0_3462_30158)">
<path d="M49.6075 41.5456H1.33183C0.855761 41.5456 0.469727 41.1596 0.469727 40.6835V9.64922C0.469727 9.17314 0.855761 8.78711 1.33183 8.78711H49.6076C50.0837 8.78711 50.4697 9.17314 50.4697 9.64922V40.6835C50.4696 41.1597 50.0836 41.5456 49.6075 41.5456Z" fill="#FFE15A"/>
<path d="M24.6076 25.1664H1.33183C0.855761 25.1664 0.469727 24.7803 0.469727 24.3043V9.64922C0.469727 9.17314 0.855761 8.78711 1.33183 8.78711H24.6076C25.0836 8.78711 25.4697 9.17314 25.4697 9.64922V24.3044C25.4696 24.7805 25.0837 25.1664 24.6076 25.1664Z" fill="#41479B"/>
<path d="M24.6076 8.78711H23.1102L15.1249 14.0188V8.78711H10.8145V14.0188L2.82919 8.78711H1.33183C0.855761 8.78711 0.469727 9.17314 0.469727 9.64922V10.333L7.32079 14.8216H0.469727V19.1319H7.32079L0.469727 23.6206V24.3043C0.469727 24.7803 0.855761 25.1664 1.33183 25.1664H2.82919L10.8145 19.9346V25.1664H15.1249V19.9346L23.1101 25.1664H24.6075C25.0835 25.1664 25.4696 24.7803 25.4696 24.3043V23.6205L18.6186 19.1319H25.4696V14.8216H18.6185L25.4696 10.333V9.64922C25.4696 9.17314 25.0837 8.78711 24.6076 8.78711Z" fill="#F5F5F5"/>
<path d="M25.4696 15.6837H14.2628V8.78711H11.6765V15.6837H0.469727V18.2698H11.6765V25.1664H14.2628V18.2698H25.4696V15.6837Z" fill="#FF4B55"/>
<path d="M9.95242 14.8224L0.880566 8.93359C0.63916 9.08643 0.469727 9.34307 0.469727 9.65V9.69472L8.36903 14.8224H9.95242Z" fill="#FF4B55"/>
<path d="M16.7084 14.8216L25.3387 9.21943C25.1887 8.96562 24.924 8.78711 24.6077 8.78711H24.4213L15.125 14.8216H16.7084Z" fill="#FF4B55"/>
<path d="M9.2075 19.1328L0.59375 24.7242C0.742285 24.9842 1.01103 25.1673 1.33193 25.1673H1.49453L10.7909 19.1328H9.2075Z" fill="#FF4B55"/>
<path d="M25.4559 24.3729L17.3831 19.1328H15.7998L24.9671 25.0834C25.2418 24.9559 25.4301 24.6889 25.4559 24.3729Z" fill="#FF4B55"/>
<path d="M12.969 19.5631C14.3974 19.5631 15.5553 18.4052 15.5553 16.9769C15.5553 15.5485 14.3974 14.3906 12.969 14.3906C11.5407 14.3906 10.3828 15.5485 10.3828 16.9769C10.3828 18.4052 11.5407 19.5631 12.969 19.5631Z" fill="#41479B"/>
<path d="M13.1442 14.8797L13.5763 16.1752L14.942 16.1858C15.1188 16.1872 15.1921 16.4128 15.0499 16.5178L13.9512 17.329L14.3632 18.6311C14.4165 18.7997 14.2246 18.9391 14.0807 18.8363L12.9697 18.0422L11.8587 18.8363C11.7148 18.9391 11.5229 18.7997 11.5762 18.6311L11.9882 17.329L10.8895 16.5178C10.7472 16.4127 10.8206 16.1872 10.9974 16.1858L12.3631 16.1752L12.7952 14.8797C12.851 14.712 13.0884 14.712 13.1442 14.8797Z" fill="#FFE15A"/>
<path d="M5.98762 15.9348L6.21995 16.6314L6.95422 16.637C7.04924 16.6378 7.08869 16.7591 7.01223 16.8155L6.42161 17.2518L6.64309 17.9518C6.6718 18.0424 6.56848 18.1174 6.49123 18.0621L5.89397 17.6352L5.29671 18.0621C5.21936 18.1174 5.11624 18.0424 5.14485 17.9518L5.36633 17.2518L4.77571 16.8155C4.69925 16.7591 4.7386 16.6377 4.83372 16.637L5.56799 16.6314L5.80032 15.9348C5.8301 15.8447 5.95754 15.8447 5.98762 15.9348Z" fill="#FFE15A"/>
<path d="M20.2044 15.9348L20.4367 16.6314L21.171 16.637C21.266 16.6378 21.3055 16.7591 21.229 16.8155L20.6384 17.2518L20.8599 17.9518C20.8886 18.0424 20.7853 18.1174 20.708 18.0621L20.1108 17.6352L19.5135 18.0621C19.4362 18.1174 19.333 18.0424 19.3616 17.9518L19.5831 17.2518L18.9925 16.8155C18.916 16.7591 18.9554 16.6377 19.0505 16.637L19.7848 16.6314L20.0171 15.9348C20.0469 15.8447 20.1743 15.8447 20.2044 15.9348Z" fill="#FFE15A"/>
<path d="M13.0746 10.7024L13.307 11.399L14.0412 11.4046C14.1363 11.4054 14.1757 11.5267 14.0992 11.5831L13.5085 12.0193L13.73 12.7193C13.7587 12.8099 13.6554 12.8849 13.5781 12.8296L12.9809 12.4027L12.3836 12.8296C12.3063 12.8849 12.2032 12.8099 12.2318 12.7193L12.4532 12.0193L11.8626 11.583C11.7862 11.5266 11.8255 11.4052 11.9206 11.4045L12.6549 11.3989L12.8872 10.7023C12.917 10.6122 13.0447 10.6122 13.0746 10.7024Z" fill="#FFE15A"/>
<path d="M13.0746 21.2903L13.307 21.9869L14.0412 21.9925C14.1363 21.9933 14.1757 22.1146 14.0992 22.171L13.5085 22.6072L13.73 23.3072C13.7587 23.3978 13.6554 23.4728 13.5781 23.4175L12.9809 22.9906L12.3836 23.4175C12.3063 23.4728 12.2032 23.3978 12.2318 23.3072L12.4532 22.6072L11.8626 22.1709C11.7862 22.1145 11.8255 21.9931 11.9206 21.9924L12.6549 21.9868L12.8872 21.2902C12.917 21.2001 13.0447 21.2001 13.0746 21.2903Z" fill="#FFE15A"/>
</g>
<defs>
<clipPath id="clip0_3462_30158">
<rect width="50" height="50" fill="white" transform="translate(0.46875 0.166016)"/>
</clipPath>
</defs>
</svg>
