<svg width="51" height="51" viewBox="0 0 51 51" fill="none" xmlns="http://www.w3.org/2000/svg">
<g clip-path="url(#clip0_3462_30152)">
<path d="M17.5651 42.2762H1.76055C1.28447 42.2762 0.898438 41.8901 0.898438 41.4141V10.3797C0.898438 9.90361 1.28447 9.51758 1.76055 9.51758H17.5651V42.2762Z" fill="#73AF00"/>
<path d="M34.2324 9.51758H17.5654V42.2764H34.2324V9.51758Z" fill="#F5F5F5"/>
<path d="M50.036 42.2762H34.2314V9.51758H50.036C50.5121 9.51758 50.8981 9.90361 50.8981 10.3797V41.4141C50.8981 41.8902 50.5121 42.2762 50.036 42.2762Z" fill="#73AF00"/>
<path d="M31.6555 34.3527L28.9801 18.7461C28.8779 18.1502 28.6659 17.5784 28.3549 17.06L25.8978 12.9648L23.4406 17.0601C23.1295 17.5785 22.9176 18.1503 22.8154 18.7462L20.14 34.3529C20.0889 34.651 20.3184 34.9233 20.6209 34.9233H24.9218V38.827H26.8736V34.9232H31.1745C31.477 34.9232 31.7067 34.651 31.6555 34.3527Z" fill="#73AF00"/>
</g>
<defs>
<clipPath id="clip0_3462_30152">
<rect width="50" height="50" fill="white" transform="translate(0.898438 0.896484)"/>
</clipPath>
</defs>
</svg>
