<svg width="51" height="51" viewBox="0 0 51 51" fill="none" xmlns="http://www.w3.org/2000/svg">
<g clip-path="url(#clip0_3462_30145)">
<path d="M49.3302 41.5457H1.05449C0.578417 41.5457 0.192383 41.1597 0.192383 40.6836V9.64922C0.192383 9.17314 0.578417 8.78711 1.05449 8.78711H49.3303C49.8064 8.78711 50.1924 9.17314 50.1924 9.64922V40.6836C50.1923 41.1598 49.8063 41.5457 49.3302 41.5457Z" fill="#F5F5F5"/>
<path d="M50.1923 12.2344H0.192383V15.6826H50.1923V12.2344Z" fill="#FF4B55"/>
<path d="M50.1933 34.6465H0.193359V38.0947H50.1933V34.6465Z" fill="#FF4B55"/>
<path d="M24.461 22.5127L25.6746 24.1002L27.5694 23.4659C27.6754 23.4305 27.7655 23.5503 27.702 23.6422L26.5673 25.2869L27.756 26.8931C27.8225 26.9828 27.7364 27.1056 27.6293 27.0736L25.7144 26.5026L24.5543 28.1296C24.4894 28.2205 24.3461 28.1765 24.3434 28.0649L24.2948 26.0673L22.389 25.4666C22.2824 25.433 22.2799 25.2831 22.3852 25.246L24.27 24.5824L24.2523 22.5843C24.2514 22.4727 24.3932 22.4239 24.461 22.5127Z" fill="#FF4B55"/>
<path d="M18.2097 31.3752C14.7825 31.3752 12.0023 28.595 12.0023 25.1647C12.0023 21.7406 14.7825 18.9542 18.2097 18.9542C19.4848 18.9542 20.6608 19.3463 21.6408 20.0102C21.7909 20.1118 21.962 19.9146 21.8365 19.784C20.3719 18.2613 18.299 17.3323 16.0007 17.4109C12.0521 17.5455 8.78336 20.7114 8.53101 24.6542C8.24205 29.1702 11.8179 32.9233 16.2703 32.9233C18.4633 32.9233 20.4344 32.0064 21.8419 30.5404C21.9662 30.4109 21.7947 30.2167 21.646 30.3175C20.6649 30.9825 19.487 31.3752 18.2097 31.3752Z" fill="#FF4B55"/>
</g>
<defs>
<clipPath id="clip0_3462_30145">
<rect width="50" height="50" fill="white" transform="translate(0.191406 0.166016)"/>
</clipPath>
</defs>
</svg>
