<svg width="51" height="51" viewBox="0 0 51 51" fill="none" xmlns="http://www.w3.org/2000/svg">
<g clip-path="url(#clip0_3462_30119)">
<path d="M49.7589 41.6843H1.4832C1.00713 41.6843 0.621094 41.2983 0.621094 40.8222V9.78789C0.621094 9.31182 1.00713 8.92578 1.4832 8.92578H49.759C50.2351 8.92578 50.6211 9.31182 50.6211 9.78789V40.8222C50.621 41.2984 50.235 41.6843 49.7589 41.6843Z" fill="#4173CD"/>
<path d="M25.6211 37.8046C18.7288 37.8046 13.1211 32.197 13.1211 25.3047C13.1211 18.4123 18.7287 12.8047 25.6211 12.8047C32.5134 12.8047 38.121 18.4123 38.121 25.3047C38.121 32.197 32.5134 37.8046 25.6211 37.8046ZM25.6211 15.3909C20.1544 15.3909 15.7073 19.8381 15.7073 25.3047C15.7073 30.7713 20.1545 35.2184 25.6211 35.2184C31.0877 35.2184 35.5348 30.7713 35.5348 25.3047C35.5348 19.8381 31.0878 15.3909 25.6211 15.3909Z" fill="#F5F5F5"/>
<path d="M25.6222 36.9437C19.2052 36.9437 13.9844 31.7229 13.9844 25.3058C13.9844 18.8888 19.2052 13.668 25.6222 13.668C32.0393 13.668 37.2602 18.8888 37.2602 25.3058C37.2602 31.7229 32.0394 36.9437 25.6222 36.9437ZM25.6222 14.53C19.6804 14.53 14.8464 19.3639 14.8464 25.3058C14.8464 31.2478 19.6803 36.0817 25.6222 36.0817C31.5642 36.0817 36.3981 31.2477 36.3981 25.3058C36.3981 19.364 31.5642 14.53 25.6222 14.53Z" fill="#FFDC00"/>
<path d="M14.4148 26.1676C14.891 26.1676 15.2769 25.7816 15.2769 25.3055C15.2769 24.8293 14.891 24.4434 14.4148 24.4434C13.9387 24.4434 13.5527 24.8293 13.5527 25.3055C13.5527 25.7816 13.9387 26.1676 14.4148 26.1676Z" fill="#FFDC00"/>
<path d="M36.8289 26.1676C37.305 26.1676 37.691 25.7816 37.691 25.3055C37.691 24.8293 37.305 24.4434 36.8289 24.4434C36.3528 24.4434 35.9668 24.8293 35.9668 25.3055C35.9668 25.7816 36.3528 26.1676 36.8289 26.1676Z" fill="#FFDC00"/>
<path d="M25.6219 14.9605C26.098 14.9605 26.484 14.5746 26.484 14.0984C26.484 13.6223 26.098 13.2363 25.6219 13.2363C25.1457 13.2363 24.7598 13.6223 24.7598 14.0984C24.7598 14.5746 25.1457 14.9605 25.6219 14.9605Z" fill="#FFDC00"/>
<path d="M17.6971 18.2418C18.1732 18.2418 18.5592 17.8558 18.5592 17.3797C18.5592 16.9036 18.1732 16.5176 17.6971 16.5176C17.2209 16.5176 16.835 16.9036 16.835 17.3797C16.835 17.8558 17.2209 18.2418 17.6971 18.2418Z" fill="#FFDC00"/>
<path d="M33.5467 18.2418C34.0228 18.2418 34.4088 17.8558 34.4088 17.3797C34.4088 16.9036 34.0228 16.5176 33.5467 16.5176C33.0706 16.5176 32.6846 16.9036 32.6846 17.3797C32.6846 17.8558 33.0706 18.2418 33.5467 18.2418Z" fill="#FFDC00"/>
<path d="M35.9754 21.8785C36.4515 21.8785 36.8375 21.4925 36.8375 21.0164C36.8375 20.5403 36.4515 20.1543 35.9754 20.1543C35.4993 20.1543 35.1133 20.5403 35.1133 21.0164C35.1133 21.4925 35.4993 21.8785 35.9754 21.8785Z" fill="#FFDC00"/>
<path d="M21.3328 15.8141C21.8089 15.8141 22.1949 15.4281 22.1949 14.952C22.1949 14.4758 21.8089 14.0898 21.3328 14.0898C20.8567 14.0898 20.4707 14.4758 20.4707 14.952C20.4707 15.4281 20.8567 15.8141 21.3328 15.8141Z" fill="#FFDC00"/>
<path d="M15.2684 21.8785C15.7445 21.8785 16.1305 21.4925 16.1305 21.0164C16.1305 20.5403 15.7445 20.1543 15.2684 20.1543C14.7922 20.1543 14.4062 20.5403 14.4062 21.0164C14.4062 21.4925 14.7922 21.8785 15.2684 21.8785Z" fill="#FFDC00"/>
<path d="M29.9109 15.8141C30.3871 15.8141 30.773 15.4281 30.773 14.952C30.773 14.4758 30.3871 14.0898 29.9109 14.0898C29.4348 14.0898 29.0488 14.4758 29.0488 14.952C29.0488 15.4281 29.4348 15.8141 29.9109 15.8141Z" fill="#FFDC00"/>
<path d="M36.6131 23.9801C37.0892 23.9801 37.4752 23.5941 37.4752 23.118C37.4752 22.6418 37.0892 22.2559 36.6131 22.2559C36.137 22.2559 35.751 22.6418 35.751 23.118C35.751 23.5941 36.137 23.9801 36.6131 23.9801Z" fill="#FFDC00"/>
<path d="M23.4353 15.1773C23.9115 15.1773 24.2975 14.7914 24.2975 14.3152C24.2975 13.8391 23.9115 13.4531 23.4353 13.4531C22.9592 13.4531 22.5732 13.8391 22.5732 14.3152C22.5732 14.7914 22.9592 15.1773 23.4353 15.1773Z" fill="#FFDC00"/>
<path d="M16.3035 19.941C16.7796 19.941 17.1656 19.555 17.1656 19.0789C17.1656 18.6028 16.7796 18.2168 16.3035 18.2168C15.8274 18.2168 15.4414 18.6028 15.4414 19.0789C15.4414 19.555 15.8274 19.941 16.3035 19.941Z" fill="#FFDC00"/>
<path d="M31.8484 16.8512C32.3246 16.8512 32.7105 16.4652 32.7105 15.9891C32.7105 15.5129 32.3246 15.127 31.8484 15.127C31.3723 15.127 30.9863 15.5129 30.9863 15.9891C30.9863 16.4652 31.3723 16.8512 31.8484 16.8512Z" fill="#FFDC00"/>
<path d="M34.9393 19.941C35.4154 19.941 35.8014 19.555 35.8014 19.0789C35.8014 18.6028 35.4154 18.2168 34.9393 18.2168C34.4631 18.2168 34.0771 18.6028 34.0771 19.0789C34.0771 19.555 34.4631 19.941 34.9393 19.941Z" fill="#FFDC00"/>
<path d="M19.3953 16.8512C19.8714 16.8512 20.2574 16.4652 20.2574 15.9891C20.2574 15.5129 19.8714 15.127 19.3953 15.127C18.9192 15.127 18.5332 15.5129 18.5332 15.9891C18.5332 16.4652 18.9192 16.8512 19.3953 16.8512Z" fill="#FFDC00"/>
<path d="M14.6307 23.9801C15.1068 23.9801 15.4928 23.5941 15.4928 23.118C15.4928 22.6418 15.1068 22.2559 14.6307 22.2559C14.1545 22.2559 13.7686 22.6418 13.7686 23.118C13.7686 23.5941 14.1545 23.9801 14.6307 23.9801Z" fill="#FFDC00"/>
<path d="M27.8084 15.1773C28.2845 15.1773 28.6705 14.7914 28.6705 14.3152C28.6705 13.8391 28.2845 13.4531 27.8084 13.4531C27.3323 13.4531 26.9463 13.8391 26.9463 14.3152C26.9463 14.7914 27.3323 15.1773 27.8084 15.1773Z" fill="#FFDC00"/>
<path d="M36.8272 25.7349C36.5889 25.7349 36.3962 25.5422 36.3962 25.3039C36.3962 19.362 31.5623 14.528 25.6203 14.528C19.6783 14.528 14.8445 19.3621 14.8445 25.3039C14.8445 25.5422 14.6518 25.7349 14.4135 25.7349C14.1752 25.7349 13.9824 25.5422 13.9824 25.3039C13.9824 18.8868 19.2032 13.666 25.6203 13.666C32.0374 13.666 37.2583 18.8868 37.2583 25.3039C37.2583 25.5422 37.0655 25.7349 36.8272 25.7349Z" fill="#FFA000"/>
<path d="M28.0157 38.2366H23.2253C22.2017 38.2366 21.4034 37.35 21.5106 36.332L23.0343 21.8574H28.2066L29.7303 36.332C29.8375 37.35 29.0392 38.2366 28.0157 38.2366Z" fill="#B4B4B4"/>
<path d="M28.182 21.8572H23.0383C22.8117 21.8572 22.6214 21.6865 22.5969 21.4612L22.2756 18.502C22.2203 17.9922 22.6197 17.5469 23.1327 17.5469H28.1078C28.6207 17.5469 29.0202 17.992 28.9648 18.502L28.6457 21.4413C28.62 21.6779 28.4201 21.8572 28.182 21.8572Z" fill="#AAAAAA"/>
<path d="M25.8201 18.5502L27.4181 23.1478L32.2844 23.2469C32.4847 23.251 32.5675 23.5055 32.4077 23.6267L28.5291 26.5672L29.9386 31.2259C29.9966 31.4177 29.7801 31.575 29.6156 31.4605L25.6204 28.6805L21.6252 31.4605C21.4608 31.575 21.2442 31.4177 21.3022 31.2259L22.7117 26.5672L18.8331 23.6267C18.6734 23.5057 18.7561 23.251 18.9564 23.2469L23.8227 23.1478L25.4207 18.5502C25.4866 18.3609 25.7542 18.3609 25.8201 18.5502Z" fill="#F5F5F5"/>
</g>
<defs>
<clipPath id="clip0_3462_30119">
<rect width="50" height="50" fill="white" transform="translate(0.621094 0.304688)"/>
</clipPath>
</defs>
</svg>
