<svg width="51" height="51" viewBox="0 0 51 51" fill="none" xmlns="http://www.w3.org/2000/svg">
<g clip-path="url(#clip0_3462_30111)">
<path d="M50.0528 41.6844H1.77715C1.30107 41.6844 0.915039 41.2984 0.915039 40.8223V9.78789C0.915039 9.31182 1.30107 8.92578 1.77715 8.92578H50.0529C50.529 8.92578 50.915 9.31182 50.915 9.78789V40.8223C50.9149 41.2985 50.5289 41.6844 50.0528 41.6844Z" fill="#41479B"/>
<path d="M50.9149 13.2363H0.915039V14.9604H50.9149V13.2363Z" fill="#F5F5F5"/>
<path d="M50.9159 35.6504H0.916016V37.3745H50.9159V35.6504Z" fill="#F5F5F5"/>
<path d="M50.9149 14.9609H0.915039V35.6503H50.9149V14.9609Z" fill="#FF4B55"/>
<path d="M14.708 32.2011C18.5168 32.2011 21.6045 29.1135 21.6045 25.3047C21.6045 21.4959 18.5168 18.4082 14.708 18.4082C10.8992 18.4082 7.81152 21.4959 7.81152 25.3047C7.81152 29.1135 10.8992 32.2011 14.708 32.2011Z" fill="#F5F5F5"/>
<path d="M14.8922 19.0269L16.2757 23.1751L20.6484 23.2091C20.8344 23.2105 20.9116 23.4479 20.7619 23.5584L17.2442 26.1561L18.5632 30.3252C18.6193 30.5026 18.4174 30.6492 18.266 30.5411L14.7086 27.9983L11.1511 30.541C10.9998 30.6492 10.7978 30.5025 10.8539 30.3251L12.1728 26.156L8.65517 23.5583C8.50546 23.4479 8.58261 23.2105 8.76865 23.209L13.1414 23.175L14.5249 19.0268C14.5838 18.8504 14.8333 18.8504 14.8922 19.0269Z" fill="#FF4B55"/>
</g>
<defs>
<clipPath id="clip0_3462_30111">
<rect width="50" height="50" fill="white" transform="translate(0.914062 0.304688)"/>
</clipPath>
</defs>
</svg>
