<svg width="51" height="51" viewBox="0 0 51 51" fill="none" xmlns="http://www.w3.org/2000/svg">
<g clip-path="url(#clip0_3462_30107)">
<path d="M49.4815 41.6844H1.20586C0.729784 41.6844 0.34375 41.2984 0.34375 40.8223V9.78789C0.34375 9.31182 0.729784 8.92578 1.20586 8.92578H49.4816C49.9577 8.92578 50.3437 9.31182 50.3437 9.78789V40.8223C50.3437 41.2985 49.9576 41.6844 49.4815 41.6844Z" fill="#FF4B55"/>
<path d="M50.3437 20.9947H22.7575V8.92578H14.1368V20.9947H0.34375V29.6154H14.1368V41.6843H22.7575V29.6154H50.3437V20.9947Z" fill="#F5F5F5"/>
<path d="M50.3437 22.7188H21.0334V8.92578H15.861V22.7188H0.34375V27.8913H15.861V41.6843H21.0334V27.8913H50.3437V22.7188Z" fill="#41479B"/>
</g>
<defs>
<clipPath id="clip0_3462_30107">
<rect width="50" height="50" fill="white" transform="translate(0.34375 0.304688)"/>
</clipPath>
</defs>
</svg>
