<svg width="51" height="51" viewBox="0 0 51 51" fill="none" xmlns="http://www.w3.org/2000/svg">
<g clip-path="url(#clip0_3462_30072)">
<path d="M50.6376 19.8454H0.637695V9.78789C0.637695 9.31182 1.02373 8.92578 1.4998 8.92578H49.7756C50.2517 8.92578 50.6377 9.31182 50.6377 9.78789L50.6376 19.8454Z" fill="#F5F5F5"/>
<path d="M49.7755 41.6832H1.4998C1.02373 41.6832 0.637695 41.2971 0.637695 40.8211V30.7637H50.6376V40.8211C50.6376 41.2972 50.2516 41.6832 49.7755 41.6832Z" fill="#73AF00"/>
<path d="M50.6386 19.8457H0.638672V30.7646H50.6386V19.8457Z" fill="#FF4B55"/>
<path d="M13.5697 41.6844H1.50078C1.02471 41.6844 0.638672 41.2984 0.638672 40.8223V9.78789C0.638672 9.31182 1.02471 8.92578 1.50078 8.92578H13.5697V41.6844Z" fill="#FF4B55"/>
<path d="M4.16013 16.0703C4.11176 16.0758 4.06506 16.0816 4.01953 16.0877V16.7017C4.06535 16.7133 4.11205 16.7248 4.16013 16.7361V16.0703Z" fill="#F5F5F5"/>
<path d="M6.28398 17.2402C6.15595 17.23 5.95927 17.2103 5.72451 17.1816L4.25195 18.4913C4.44268 18.5204 4.67129 18.5591 4.7667 18.5894C5.14512 18.2584 5.65234 17.8073 6.28398 17.2402Z" fill="#F5F5F5"/>
<path d="M8.49921 15.1573V15.0929V15.0312H5.88672V15.0929V15.1573V15.219H8.49921V15.1573Z" fill="#F5F5F5"/>
<path d="M6.56543 11.4214C6.56543 11.6054 6.84268 11.7607 7.1709 11.7607C7.49912 11.7607 7.77637 11.6054 7.77637 11.4214C7.77637 11.2374 7.49912 11.082 7.1709 11.082C6.84268 11.082 6.56543 11.2375 6.56543 11.4214Z" fill="#F5F5F5"/>
<path d="M5.99931 15.9866C5.40957 15.9837 4.821 16.0053 4.33984 16.0508V16.7757C4.90517 16.8969 5.56377 16.9899 5.99931 17.0362C5.99931 17.0361 5.99931 15.9866 5.99931 15.9866Z" fill="#F5F5F5"/>
<path d="M2.96094 19.5641C3.19404 19.5591 3.70605 19.467 4.05273 19.1962C4.16015 19.1122 4.34365 18.9577 4.60156 18.7337C4.42666 18.6979 4.1332 18.6543 3.97676 18.6328L2.96094 19.5641Z" fill="#F5F5F5"/>
<path d="M6.33525 14.8525V14.523C6.29111 14.4572 6.24551 14.3894 6.19893 14.3203L5.79785 14.612C5.87773 14.7492 5.92891 14.8364 5.93838 14.8524L6.33525 14.8525Z" fill="#F5F5F5"/>
<path d="M3.24999 16.3407C3.24872 16.3461 3.2456 16.3586 3.26571 16.3845C3.34013 16.4799 3.55546 16.571 3.8414 16.6539V16.1152C3.49814 16.1722 3.27333 16.2474 3.24999 16.3407Z" fill="#F5F5F5"/>
<path d="M7.83769 16.0824V15.3984H6.51465V17.0691H6.85107C7.39502 17.0691 7.83769 16.6264 7.83769 16.0824Z" fill="#F5F5F5"/>
<path d="M5.71113 13.5974C5.00273 12.5532 4.24619 11.4558 4.06152 11.2383C4.08799 11.3354 4.15186 11.5181 4.30107 11.86C4.49355 12.3012 4.96074 13.1468 5.34756 13.8276L5.71113 13.5974Z" fill="#F5F5F5"/>
<path d="M5.43652 13.9838C5.5373 14.1602 5.62959 14.3205 5.70742 14.4549L6.09873 14.1703C6.00566 14.0321 5.90986 13.8904 5.81211 13.7461L5.43652 13.9838Z" fill="#F5F5F5"/>
<path d="M6.33615 17.0657V15.9911C6.28377 15.99 6.23139 15.989 6.17871 15.9883V17.054C6.23932 17.0593 6.29209 17.0633 6.33615 17.0657Z" fill="#F5F5F5"/>
<path d="M7.83877 13.9297H6.51562V14.1175H7.83877V13.9297Z" fill="#F5F5F5"/>
<path d="M9.67676 14.8416V14.8528H9.74404C9.79365 14.8528 9.83369 14.8929 9.83369 14.9425V15.3098C9.83369 15.3594 9.79365 15.3994 9.74404 15.3994H9.67676V15.4106C9.67676 15.46 9.71699 15.5003 9.76641 15.5003H11.2801C11.3295 15.5003 11.3697 15.46 11.3697 15.4106V14.8416C11.3697 14.7923 11.3295 14.752 11.2801 14.752H9.7665C9.71699 14.7519 9.67676 14.7921 9.67676 14.8416Z" fill="#F5F5F5"/>
<path d="M11.3704 19.5591L10.3602 18.6328C10.2037 18.6544 9.91035 18.6978 9.73535 18.7337C9.99795 18.9615 10.1813 19.116 10.2842 19.1964C10.6255 19.4628 11.127 19.5562 11.3704 19.5591Z" fill="#F5F5F5"/>
<path d="M9.2959 15.0929V15.1573V15.219H9.65571V15.0312H9.2959V15.0929Z" fill="#F5F5F5"/>
<path d="M9.57051 18.5908C9.66592 18.5603 9.89482 18.5215 10.0859 18.4925L7.9166 16.5566C7.85781 16.6887 7.77578 16.8081 7.6748 16.9088L7.73193 16.9598C8.51777 17.6633 9.13213 18.208 9.57051 18.5908Z" fill="#F5F5F5"/>
<path d="M4.70966 15.4106V15.3994H4.64228C4.59267 15.3994 4.55263 15.3594 4.55263 15.3098V14.9425C4.55263 14.8929 4.59267 14.8528 4.64228 14.8528H4.70957V14.8416C4.70957 14.7923 4.66933 14.752 4.61992 14.752H3.10625C3.05684 14.752 3.0166 14.7923 3.0166 14.8416V15.4106C3.0166 15.46 3.05684 15.5003 3.10625 15.5003H4.61992C4.66943 15.5003 4.70966 15.4601 4.70966 15.4106Z" fill="#F5F5F5"/>
<path d="M5.09126 15.1573V15.0929V15.0312H4.73145V15.219H5.09126V15.1573Z" fill="#F5F5F5"/>
<path d="M8.53916 14.612L8.13809 14.3203C8.09707 14.3813 8.05693 14.441 8.01758 14.4995V14.8524H8.39863C8.40811 14.8364 8.45928 14.7492 8.53916 14.612Z" fill="#F5F5F5"/>
<path d="M6.63574 13.3799H7.71924L7.48076 13.1152H6.87422L6.63574 13.3799Z" fill="#F5F5F5"/>
<path d="M7.83877 13.5684H6.51562V13.7506H7.83877V13.5684Z" fill="#F5F5F5"/>
<path d="M7.17051 11.941C7.0833 11.941 7.00156 11.9298 6.92383 11.9132V12.9271H7.42275V11.9121C7.34346 11.9295 7.25967 11.941 7.17051 11.941Z" fill="#F5F5F5"/>
<path d="M6.51465 14.4847H7.83203C7.83183 14.4734 7.83379 14.4625 7.83789 14.4517V14.2969H6.51465V14.4847Z" fill="#F5F5F5"/>
<path d="M8.23828 14.1703L8.62959 14.4549C8.70742 14.3206 8.79971 14.1602 8.90049 13.9838L8.5249 13.7461C8.42705 13.8904 8.33145 14.0321 8.23828 14.1703Z" fill="#F5F5F5"/>
<path d="M7.83877 14.6641H6.51562V14.8519H7.83877V14.6641Z" fill="#F5F5F5"/>
<path d="M8.98867 13.8282C9.37539 13.1476 9.84258 12.3018 10.0352 11.8605C10.1848 11.5179 10.2485 11.3352 10.2749 11.2383C10.0936 11.4511 9.33515 12.5511 8.625 13.5979L8.98867 13.8282Z" fill="#F5F5F5"/>
<path d="M11.6187 19.5448L10.4489 18.4721C10.4293 18.4541 10.4028 18.4452 10.3762 18.4493C10.3663 18.4506 10.3437 18.4537 10.3137 18.4578C10.3121 18.4561 10.3115 18.4539 10.3096 18.4524L7.97791 16.3717C8.00174 16.279 8.0156 16.1824 8.0156 16.0825V15.3985H8.58123C8.65408 15.4933 8.76736 15.5556 8.89578 15.5556C9.02429 15.5556 9.13758 15.4933 9.21033 15.3985H9.49568V15.4098C9.49568 15.5581 9.61638 15.6788 9.76472 15.6788H11.2784C11.4267 15.6788 11.5474 15.5581 11.5474 15.4098V14.8407C11.5474 14.6924 11.4267 14.5717 11.2784 14.5717H9.76492C9.61658 14.5717 9.49588 14.6924 9.49588 14.8407V14.8519H9.21052C9.13767 14.7571 9.02439 14.6949 8.89597 14.6949C8.79851 14.6949 8.71043 14.7314 8.64119 14.7896C8.94353 14.2721 9.89343 12.6314 10.1985 11.9323C10.5258 11.1821 10.4994 11.0853 10.422 11.023C10.3404 10.9577 10.2371 11.0328 10.1981 11.0614C10.048 11.1705 8.59265 13.3206 8.0157 14.1776V13.47C8.0157 13.4681 8.01473 13.4663 8.01463 13.4644L8.01453 13.4643C8.01248 13.4339 7.99549 13.4086 7.97068 13.394L7.60086 12.9839V11.8561C7.81473 11.7643 7.95408 11.6057 7.95408 11.4211C7.95408 11.1303 7.60926 10.9023 7.16912 10.9023C6.72899 10.9023 6.38416 11.1303 6.38416 11.4211C6.38416 11.6071 6.52606 11.7666 6.74295 11.8579V12.9903L6.38016 13.3928C6.35291 13.4082 6.33367 13.4363 6.33367 13.4698V14.2009C5.76795 13.3603 4.2869 11.1714 4.13563 11.0613C4.09647 11.033 3.99305 10.9578 3.91161 11.0229C3.83417 11.0852 3.8078 11.182 4.13514 11.9322C4.43055 12.6092 5.33026 14.1684 5.66161 14.7368C5.60868 14.7107 5.54998 14.6948 5.48719 14.6948C5.35868 14.6948 5.2454 14.757 5.17264 14.8518H4.88739V14.8406C4.88739 14.6923 4.76669 14.5716 4.61835 14.5716H3.10448C2.95614 14.5716 2.83544 14.6923 2.83544 14.8406V15.4097C2.83544 15.558 2.95614 15.6787 3.10448 15.6787H4.61815C4.76649 15.6787 4.88719 15.558 4.88719 15.4097V15.3984H5.17254C5.2454 15.4933 5.35868 15.5555 5.48709 15.5555C5.61561 15.5555 5.72889 15.4933 5.80164 15.3984H6.33367V15.8115C5.50204 15.7937 3.1996 15.791 3.07343 16.2962C3.06171 16.343 3.06054 16.4155 3.12177 16.4938C3.36444 16.8047 4.59432 17.0315 5.48641 17.1515L4.02391 18.4522C4.02206 18.4539 4.02147 18.4561 4.01971 18.4578C3.98973 18.4536 3.96718 18.4506 3.95721 18.4493C3.93026 18.4454 3.90409 18.4541 3.88456 18.4721L2.71464 19.5448C2.67929 19.577 2.67567 19.6315 2.70644 19.6683C2.7452 19.7149 2.84374 19.7378 2.97548 19.7378C3.2997 19.7378 3.82577 19.5995 4.16112 19.3377C4.43749 19.1219 5.20311 18.4506 6.4369 17.3426C6.49031 17.2946 6.52567 17.2628 6.54129 17.2488H6.8493C7.10526 17.2488 7.34129 17.165 7.53387 17.0247L7.60984 17.0926C9.03035 18.364 9.89226 19.1193 10.172 19.3377C10.5074 19.5998 11.0333 19.7378 11.3575 19.7378C11.4893 19.7378 11.5878 19.715 11.6266 19.6683C11.6578 19.6315 11.654 19.577 11.6187 19.5448ZM6.51326 17.0692V15.3985H7.83641V16.0825C7.83641 16.6265 7.39373 17.0692 6.84969 17.0692H6.51326V17.0692ZM3.83905 16.6529C3.55331 16.5699 3.33788 16.4789 3.26337 16.3835C3.24315 16.3575 3.24628 16.3451 3.24765 16.3397C3.27099 16.2464 3.49579 16.1712 3.83905 16.1143V16.6529ZM4.06024 11.2389C4.24481 11.4563 5.00145 12.5536 5.70985 13.5979L5.34618 13.8282C4.95946 13.1474 4.49227 12.3018 4.29969 11.8605C4.15057 11.5187 4.08661 11.3362 4.06024 11.2389ZM6.19754 14.3197C6.24403 14.3887 6.28953 14.4564 6.33387 14.5225V14.8519H5.937C5.92752 14.8359 5.87635 14.7487 5.79647 14.6115L6.19754 14.3197ZM5.70594 14.4555C5.62811 14.3212 5.53582 14.1607 5.43504 13.9844L5.81063 13.7467C5.90848 13.8911 6.00418 14.0328 6.09725 14.1709L5.70594 14.4555ZM6.33387 15.9915V17.0661C6.29012 17.0637 6.23739 17.0597 6.17684 17.0544V15.9887C6.22928 15.9893 6.28153 15.9903 6.33387 15.9915ZM4.33798 16.0514C4.81922 16.0059 5.4077 15.9843 5.99744 15.9871V17.0367C5.5619 16.9905 4.90331 16.8974 4.33798 16.7762V16.0514V16.0514ZM4.01835 16.0876C4.06376 16.0815 4.11024 16.0758 4.15858 16.0702V16.7359C4.11063 16.7247 4.06405 16.7132 4.01835 16.7015C4.01835 16.7015 4.01835 16.0876 4.01835 16.0876ZM5.72274 17.1817C5.9575 17.2104 6.15418 17.2301 6.28221 17.2403C5.65057 17.8074 5.14334 18.2585 4.76512 18.5895C4.66962 18.5591 4.4411 18.5205 4.25038 18.4914L5.72274 17.1817ZM4.59989 18.7336C4.34198 18.9576 4.15848 19.1121 4.05106 19.1961C3.70438 19.467 3.19247 19.5592 2.95927 19.5639L3.97509 18.6326C4.13153 18.6543 4.42489 18.6977 4.59989 18.7336ZM5.88534 15.2191V15.1575V15.0931V15.0314H8.49793V15.0931V15.1575V15.2191H5.88534ZM7.77469 11.4211C7.77469 11.6051 7.49744 11.7604 7.16922 11.7604C6.841 11.7604 6.56375 11.6051 6.56375 11.4211C6.56375 11.2371 6.841 11.0817 7.16922 11.0817C7.49744 11.0817 7.77469 11.2372 7.77469 11.4211ZM6.51326 14.1175V13.9297H7.83641V14.1175H6.51326ZM7.83631 14.2969V14.4517C7.83221 14.4625 7.83025 14.4734 7.83045 14.4847H6.51326V14.2969H7.83631ZM6.51326 13.7502V13.568H7.83641V13.7502H6.51326ZM7.4783 13.1156L7.71678 13.3802H6.63328L6.87176 13.1156H7.4783ZM6.92254 12.9261V11.9121C7.00027 11.9287 7.08201 11.9399 7.16922 11.9399C7.25848 11.9399 7.34217 11.9284 7.42147 11.911V12.9261H6.92254ZM6.51326 14.6641H7.83641V14.8518H6.51326V14.6641ZM10.0341 11.8605C9.84158 12.3018 9.37439 13.1474 8.98758 13.8282L8.6239 13.5979C9.33406 12.5511 10.0925 11.4511 10.2738 11.2383C10.2474 11.3352 10.1836 11.5179 10.0341 11.8605ZM9.11453 15.093V15.1574C9.11453 15.278 9.01648 15.3761 8.89588 15.3761C8.77527 15.3761 8.67722 15.278 8.67722 15.1574V15.093C8.67722 14.9724 8.77527 14.8743 8.89588 14.8743C9.01648 14.8743 9.11453 14.9724 9.11453 15.093ZM8.62781 14.4555L8.2365 14.1709C8.32957 14.0327 8.42527 13.891 8.52312 13.7467L8.89871 13.9844C8.79793 14.1607 8.70554 14.3211 8.62781 14.4555ZM8.0157 14.4989C8.05506 14.4403 8.0951 14.3808 8.13621 14.3197L8.53728 14.6114C8.4574 14.7486 8.40623 14.8358 8.39676 14.8519H8.0157V14.4989V14.4989ZM7.91453 16.5555L10.0839 18.4913C9.89295 18.5205 9.66384 18.5592 9.56843 18.5896C9.12996 18.2067 8.5157 17.6622 7.72977 16.9585L7.67264 16.9075C7.77371 16.807 7.85574 16.6875 7.91453 16.5555ZM10.3587 18.6327L11.3689 19.559C11.1255 19.5561 10.624 19.4628 10.2827 19.1963C10.1799 19.1159 9.99646 18.9613 9.73386 18.7336C9.90886 18.6977 10.2022 18.6543 10.3587 18.6327ZM11.3684 14.8407V15.4098C11.3684 15.4591 11.3282 15.4994 11.2788 15.4994H9.76492C9.7155 15.4994 9.67527 15.4591 9.67527 15.4098V15.3985H9.74255C9.79216 15.3985 9.8322 15.3585 9.8322 15.3089V14.9416C9.8322 14.892 9.79216 14.8519 9.74255 14.8519H9.67527V14.8407C9.67527 14.7914 9.7155 14.7511 9.76492 14.7511H11.2786C11.3281 14.751 11.3684 14.7912 11.3684 14.8407ZM9.65281 15.2191H9.29402V15.1575V15.0931V15.0314H9.65281V15.2191ZM3.01474 15.4098V14.8407C3.01474 14.7914 3.05497 14.7511 3.10438 14.7511H4.61805C4.66747 14.7511 4.7077 14.7914 4.7077 14.8407V14.8519H4.64061C4.591 14.8519 4.55096 14.892 4.55096 14.9416V15.3089C4.55096 15.3585 4.591 15.3985 4.64061 15.3985H4.7079V15.4098C4.7079 15.4591 4.66766 15.4994 4.61825 15.4994H3.10458C3.05507 15.4994 3.01474 15.4592 3.01474 15.4098ZM4.73036 15.0313H5.08915V15.093V15.1574V15.219H4.73036V15.0313ZM5.70594 15.1574C5.70594 15.278 5.60789 15.3761 5.48729 15.3761C5.36668 15.3761 5.26864 15.278 5.26864 15.1574V15.093C5.26864 14.9724 5.36668 14.8743 5.48729 14.8743C5.60789 14.8743 5.70594 14.9724 5.70594 15.093V15.1574Z" fill="#D23741"/>
</g>
<defs>
<clipPath id="clip0_3462_30072">
<rect width="50" height="50" fill="white" transform="translate(0.636719 0.304688)"/>
</clipPath>
</defs>
</svg>
