<svg width="51" height="51" viewBox="0 0 51 51" fill="none" xmlns="http://www.w3.org/2000/svg">
<g clip-path="url(#clip0_3462_30062)">
<path d="M49.4978 41.6843H13.291V8.92578H49.4979C49.974 8.92578 50.36 9.31182 50.36 9.78789V40.8223C50.3599 41.2984 49.9739 41.6843 49.4978 41.6843Z" fill="#73AF00"/>
<path d="M13.2933 41.6844H1.22441C0.748339 41.6844 0.362305 41.2984 0.362305 40.8223V9.78789C0.362305 9.31182 0.748339 8.92578 1.22441 8.92578H13.2933V41.6844Z" fill="#F5F5F5"/>
<path d="M40.6016 29.8151C36.6337 33.3498 30.5594 32.9867 27.0317 29.0117C23.5108 25.044 23.8672 18.9521 27.835 15.4175C27.8409 15.4124 27.8466 15.4073 27.8524 15.4022C27.9462 15.3198 27.8556 15.1701 27.7391 15.2154C23.8261 16.7392 21.0518 20.5454 21.0518 25.0019C21.0518 30.807 25.7462 35.5084 31.5374 35.5084C35.5435 35.5084 39.0153 33.2542 40.7789 29.9451C40.8377 29.8346 40.6998 29.7272 40.6064 29.8106C40.6049 29.812 40.6032 29.8136 40.6016 29.8151Z" fill="#F5F5F5"/>
<path d="M35.498 17.1586L36.8769 18.7056L38.787 17.9017C39.0343 17.7976 39.2718 18.0682 39.1364 18.2998L38.0912 20.0894L39.446 21.6576C39.6214 21.8606 39.4374 22.1701 39.1753 22.1129L37.1504 21.6719L36.0776 23.445C35.9387 23.6744 35.5875 23.5951 35.5608 23.3282L35.3545 21.266L33.3367 20.7936C33.0755 20.7324 33.0424 20.374 33.2881 20.2661L35.1856 19.4328L35.0113 17.3678C34.9888 17.1005 35.3196 16.9584 35.498 17.1586Z" fill="#F5F5F5"/>
</g>
<defs>
<clipPath id="clip0_3462_30062">
<rect width="50" height="50" fill="white" transform="translate(0.359375 0.304688)"/>
</clipPath>
</defs>
</svg>
