<svg width="51" height="51" viewBox="0 0 51 51" fill="none" xmlns="http://www.w3.org/2000/svg">
<g clip-path="url(#clip0_3462_30059)">
<path d="M49.9269 41.6843H1.65117C1.1751 41.6843 0.789062 41.2983 0.789062 40.8222V9.78789C0.789062 9.31182 1.1751 8.92578 1.65117 8.92578H49.927C50.403 8.92578 50.7891 9.31182 50.7891 9.78789V40.8222C50.789 41.2984 50.4029 41.6843 49.9269 41.6843Z" fill="#3CC8FF"/>
<path d="M25.79 35.6484C31.5032 35.6484 36.1347 31.0169 36.1347 25.3037C36.1347 19.5905 31.5032 14.959 25.79 14.959C20.0768 14.959 15.4453 19.5905 15.4453 25.3037C15.4453 31.0169 20.0768 35.6484 25.79 35.6484Z" fill="#FFE15A"/>
</g>
<defs>
<clipPath id="clip0_3462_30059">
<rect width="50" height="50" fill="white" transform="translate(0.789062 0.304688)"/>
</clipPath>
</defs>
</svg>
