<svg width="51" height="51" viewBox="0 0 51 51" fill="none" xmlns="http://www.w3.org/2000/svg">
<g clip-path="url(#clip0_3462_30054)">
<path d="M50.0839 19.8454H0.0839844V9.78789C0.0839844 9.31182 0.470019 8.92578 0.946092 8.92578H49.2219C49.698 8.92578 50.084 9.31182 50.084 9.78789L50.0839 19.8454Z" fill="#464655"/>
<path d="M49.2218 41.6832H0.946092C0.470019 41.6832 0.0839844 41.2971 0.0839844 40.8211V30.7637H50.0839V40.8211C50.0839 41.2972 49.6979 41.6832 49.2218 41.6832Z" fill="#73AF00"/>
<path d="M50.0839 19.8457H0.0839844V30.7646H50.0839V19.8457Z" fill="#F5F5F5"/>
<path d="M0.401953 41.4765L20.2106 25.7524C20.4983 25.5241 20.4983 25.0872 20.2106 24.8588L0.401953 9.13477C0.212011 9.29287 0.0839844 9.52197 0.0839844 9.78838V40.8228C0.0839844 41.0893 0.212011 41.3184 0.401953 41.4765Z" fill="#FF4B55"/>
</g>
<defs>
<clipPath id="clip0_3462_30054">
<rect width="50" height="50" fill="white" transform="translate(0.0820312 0.304688)"/>
</clipPath>
</defs>
</svg>
