<svg width="51" height="51" viewBox="0 0 51 51" fill="none" xmlns="http://www.w3.org/2000/svg">
<g clip-path="url(#clip0_3462_30047)">
<path d="M49.6505 41.6844H1.3748C0.89873 41.6844 0.512695 41.2984 0.512695 40.8223V9.78789C0.512695 9.31182 0.89873 8.92578 1.3748 8.92578H49.6506C50.1267 8.92578 50.5127 9.31182 50.5127 9.78789V40.8223C50.5126 41.2985 50.1266 41.6844 49.6505 41.6844Z" fill="#F5F5F5"/>
<path d="M25.5127 25.3051H49.6505C50.1266 25.3051 50.5126 24.9191 50.5126 24.443V9.78789C50.5126 9.31182 50.1266 8.92578 49.6505 8.92578H26.3748C25.8987 8.92578 25.5127 9.31182 25.5127 9.78789V25.3051V25.3051Z" fill="#FF4B55"/>
<path d="M1.3748 41.684H24.6506C25.1267 41.684 25.5127 41.2979 25.5127 40.8218V25.3047H1.3748C0.89873 25.3047 0.512695 25.6907 0.512695 26.1668V40.8219C0.512695 41.298 0.89873 41.684 1.3748 41.684Z" fill="#4173CD"/>
<path d="M13.3447 13.4385L14.1666 15.9027L16.7643 15.9229C17.1006 15.9254 17.24 16.3547 16.9694 16.5544L14.8798 18.0975L15.6633 20.5742C15.7647 20.8949 15.3996 21.1601 15.126 20.9645L13.0127 19.4541L10.8993 20.9646C10.6257 21.1602 10.2607 20.8949 10.362 20.5743L11.1455 18.0976L9.05588 16.5545C8.78527 16.3547 8.92472 15.9255 9.26105 15.923L11.8587 15.9028L12.6806 13.4386C12.787 13.1194 13.2384 13.1194 13.3447 13.4385Z" fill="#4173CD"/>
<path d="M38.3447 29.8174L39.1666 32.2816L41.7643 32.3018C42.1006 32.3043 42.24 32.7336 41.9694 32.9333L39.8798 34.4764L40.6633 36.9531C40.7646 37.2738 40.3996 37.539 40.126 37.3435L38.0127 35.833L35.8993 37.3436C35.6257 37.5392 35.2607 37.2738 35.362 36.9532L36.1455 34.4765L34.0559 32.9334C33.7853 32.7336 33.9247 32.3044 34.2611 32.3019L36.8587 32.2817L37.6806 29.8175C37.787 29.4984 38.2384 29.4984 38.3447 29.8174Z" fill="#FF4B55"/>
</g>
<defs>
<clipPath id="clip0_3462_30047">
<rect width="50" height="50" fill="white" transform="translate(0.511719 0.304688)"/>
</clipPath>
</defs>
</svg>
