<svg width="51" height="51" viewBox="0 0 51 51" fill="none" xmlns="http://www.w3.org/2000/svg">
<g clip-path="url(#clip0_3462_30037)">
<path d="M49.9444 41.6844H1.66875C1.19268 41.6844 0.806641 41.2984 0.806641 40.8223V9.78789C0.806641 9.31182 1.19268 8.92578 1.66875 8.92578H49.9445C50.4206 8.92578 50.8066 9.31182 50.8066 9.78789V40.8223C50.8065 41.2985 50.4205 41.6844 49.9444 41.6844Z" fill="#FF4B55"/>
<path d="M1.12461 9.13477C0.934668 9.29287 0.806641 9.52197 0.806641 9.78838V40.8228C0.806641 41.2989 1.19268 41.6849 1.66875 41.6849H49.9445C50.1541 41.6849 50.3392 41.6009 50.4886 41.4765L1.12461 9.13477Z" fill="#464655"/>
<path d="M5.8354 24.747L5.34204 26.2263L3.78267 26.2384C3.63306 26.2395 3.57115 26.4304 3.69136 26.5192L4.94576 27.4455L4.47535 28.9322C4.43023 29.0748 4.59263 29.1928 4.71421 29.1059L5.98286 28.199L7.25151 29.1059C7.37319 29.1929 7.5355 29.0748 7.49038 28.9322L7.01997 27.4455L8.27436 26.5192C8.39458 26.4305 8.33266 26.2396 8.18306 26.2384L6.62368 26.2263L6.13032 24.747C6.08335 24.6052 5.88267 24.6052 5.8354 24.747Z" fill="#F5F5F5"/>
<path d="M16.4584 24.747L15.9651 26.2263L14.4057 26.2384C14.2561 26.2395 14.1942 26.4304 14.3144 26.5192L15.5688 27.4455L15.0984 28.9322C15.0533 29.0748 15.2157 29.1928 15.3373 29.1059L16.6059 28.199L17.8746 29.1059C17.9962 29.1929 18.1585 29.0748 18.1134 28.9322L17.643 27.4455L18.8974 26.5192C19.0176 26.4305 18.9557 26.2396 18.8061 26.2384L17.2467 26.2263L16.7534 24.747C16.7065 24.6052 16.5058 24.6052 16.4584 24.747Z" fill="#F5F5F5"/>
<path d="M11.1469 18.3075L10.6536 19.7868L9.0942 19.7989C8.94459 19.8001 8.88267 19.9909 9.00289 20.0798L10.2573 21.006L9.78687 22.4928C9.74175 22.6353 9.90416 22.7533 10.0257 22.6664L11.2944 21.7596L12.563 22.6664C12.6847 22.7533 12.847 22.6353 12.8019 22.4928L12.3315 21.006L13.5859 20.0798C13.7061 19.991 13.6442 19.8002 13.4946 19.7989L11.9352 19.7868L11.4418 18.3075C11.3949 18.1657 11.1943 18.1657 11.1469 18.3075Z" fill="#F5F5F5"/>
<path d="M11.1469 34.1415L10.6536 35.6208L9.0942 35.6329C8.94459 35.6341 8.88267 35.8249 9.00289 35.9138L10.2573 36.84L9.78687 38.3267C9.74175 38.4693 9.90416 38.5873 10.0257 38.5004L11.2944 37.5935L12.563 38.5004C12.6847 38.5874 12.847 38.4693 12.8019 38.3267L12.3315 36.84L13.5859 35.9138C13.7061 35.825 13.6442 35.6342 13.4946 35.6329L11.9352 35.6208L11.4418 34.1415C11.3949 33.9997 11.1943 33.9997 11.1469 34.1415Z" fill="#F5F5F5"/>
<path d="M13.6211 30.2831L13.3587 31.0697L12.5295 31.0762C12.45 31.0769 12.417 31.1782 12.481 31.2255L13.148 31.7181L12.8979 32.5087C12.8739 32.5846 12.9602 32.6473 13.0249 32.601L13.6997 32.1187L14.3744 32.601C14.439 32.6472 14.5253 32.5845 14.5014 32.5087L14.2513 31.7181L14.9183 31.2255C14.9823 31.1783 14.9494 31.0768 14.8698 31.0762L14.0406 31.0697L13.7782 30.2831C13.753 30.2077 13.6462 30.2077 13.6211 30.2831Z" fill="#F5F5F5"/>
<path d="M43.5375 24.5566C43.4113 23.5796 42.9939 22.6142 42.6907 22.018C42.8404 22.0929 43.0732 22.2278 43.0732 22.2278L42.8677 21.4828C43.3814 21.6883 43.7668 22.0865 43.7668 22.0865C43.5098 20.8022 43.1117 20.1987 43.1117 20.1987L43.4328 20.3143C42.8291 18.8244 41.93 18.4006 41.93 18.4006L42.4437 18.2722C41.686 17.3218 40.62 17.0007 40.62 17.0007L41.3135 16.6667C39.4769 15.6264 37.7046 16.7181 37.7046 16.7181C37.7046 16.7181 38.3211 16.076 38.5522 15.8063C38.7834 15.5366 38.2311 15.4467 38.2311 15.4467C38.2311 15.4467 38.7706 15.0742 38.7448 14.8559C38.719 14.6374 38.2311 14.7532 38.2311 14.7532C38.2311 14.7532 38.655 14.3165 38.655 14.0725C38.655 13.8285 38.2183 13.9826 38.2183 13.9826C38.2183 13.9826 38.3596 13.6872 38.3982 13.456C38.4368 13.2248 38.0129 13.4174 38.0129 13.4174C38.0129 13.4174 38.4881 12.5698 38.4625 12.39C38.4368 12.2101 37.2167 12.9679 36.3433 13.8028C35.47 14.6377 35.5748 15.9791 35.6521 16.2984C35.7295 16.6176 35.7779 17.3621 35.391 17.6232C35.0042 17.8843 34.314 17.2449 33.9715 16.851C33.629 16.4572 33.2009 16.5941 32.7557 16.7483C32.3104 16.9024 31.4713 16.6969 31.2144 16.6626C30.9575 16.6283 31.5055 16.9196 31.9679 17.0907C32.4303 17.2619 32.6357 17.673 33.2865 17.9127C33.8564 18.1228 34.3129 18.6559 33.8644 18.9016C33.515 19.0931 33.5177 18.786 31.9766 18.3879C30.4353 17.9899 28.5859 21.907 28.5859 21.907C29.576 21.7845 30.082 21.1914 30.082 21.1914L29.8145 21.9587C30.5462 21.8201 30.904 21.3752 30.904 21.3752L30.7105 22.1489C31.2714 21.9748 31.6583 21.3752 31.6583 21.3752L31.4938 22.1392C32.045 21.878 32.3352 21.3752 32.3352 21.3752C32.3933 21.6557 32.439 22.228 32.439 22.228C33.2927 21.7717 33.4921 21.1236 33.4921 21.1236C34.4682 24.0776 35.8809 24.5655 35.8809 24.5655L35.958 23.7949C36.3946 24.4114 37.0111 24.7196 37.0111 24.7196L36.9084 24.0518C38.4239 25.9012 40.1706 26.3636 40.1706 26.3636L39.7233 25.34L40.2733 25.4516C39.6825 24.9507 39.4641 24.0774 39.4641 24.0774L39.9265 24.1544C39.1816 23.4737 38.8092 22.6903 38.8092 22.6903L39.2588 22.7673C39.1175 22.5489 39.0018 21.7784 39.0018 21.7784C39.8238 22.0354 40.2476 22.3564 40.2476 22.3564L40.2964 22.0766C41.0015 22.5847 42.1595 23.5306 42.9621 24.7197C42.9632 25.1076 42.9005 25.4993 42.7393 25.8925C42.0032 27.688 40.0678 27.5707 39.2116 27.1939C39.2116 27.1939 41.8659 29.2659 43.3215 26.3205C43.4138 26.134 43.4715 25.9342 43.5129 25.7293C43.6944 26.1623 43.8199 26.6139 43.8439 27.0825C43.998 30.0879 40.8643 29.8054 40.8643 29.8054C40.8643 29.8054 44.332 31.1925 44.4862 27.1854C44.5202 26.2943 44.1429 25.4035 43.5375 24.5566ZM40.3867 21.5567L40.4018 21.4699C40.9285 21.624 41.4807 21.9966 41.4807 21.9966L41.6027 21.6306C42.1237 22.2567 42.5398 22.9304 42.7715 23.6278C42.0681 22.8722 41.2253 22.1704 40.3867 21.5567Z" fill="#FFE15A"/>
</g>
<defs>
<clipPath id="clip0_3462_30037">
<rect width="50" height="50" fill="white" transform="translate(0.804688 0.304688)"/>
</clipPath>
</defs>
</svg>
