<svg width="51" height="51" viewBox="0 0 51 51" fill="none" xmlns="http://www.w3.org/2000/svg">
<g clip-path="url(#clip0_3462_30029)">
<path d="M50.621 20.1384H0.621094V10.0809C0.621094 9.60478 1.00713 9.21875 1.4832 9.21875H49.759C50.2351 9.21875 50.6211 9.60478 50.6211 10.0809L50.621 20.1384Z" fill="#FF4B55"/>
<path d="M49.7589 41.9762H1.4832C1.00713 41.9762 0.621094 41.5901 0.621094 41.114V31.0566H50.621V41.114C50.621 41.5902 50.235 41.9762 49.7589 41.9762Z" fill="#41479B"/>
<path d="M50.621 20.1387H0.621094V31.0576H50.621V20.1387Z" fill="#F5F5F5"/>
<path d="M25.6209 21.2871C23.2404 21.2871 21.3105 23.2169 21.3105 25.5975C21.3105 27.978 23.2404 29.9078 25.6209 29.9078C28.0014 29.9078 29.9312 27.978 29.9312 25.5975C29.9312 23.2169 28.0014 21.2871 25.6209 21.2871ZM25.6209 28.8482C23.8257 28.8482 22.3701 27.3929 22.3701 25.5975C22.3701 23.802 23.8256 22.3467 25.6209 22.3467C27.4162 22.3467 28.8717 23.8021 28.8717 25.5975C28.8717 27.3928 27.4161 28.8482 25.6209 28.8482Z" fill="#FF4B55"/>
<path d="M25.6211 27.0937C26.4468 27.0937 27.1162 26.4244 27.1162 25.5986C27.1162 24.7729 26.4468 24.1035 25.6211 24.1035C24.7954 24.1035 24.126 24.7729 24.126 25.5986C24.126 26.4244 24.7954 27.0937 25.6211 27.0937Z" fill="#41479B"/>
<path d="M25.7184 24.4647L25.9593 25.1874L26.7209 25.1933C26.8196 25.1941 26.8605 25.32 26.7811 25.3786L26.1684 25.831L26.3982 26.5572C26.428 26.6512 26.321 26.7289 26.2407 26.6716L25.621 26.2288L25.0012 26.6716C24.921 26.7289 24.8139 26.6511 24.8437 26.5572L25.0735 25.831L24.4608 25.3786C24.3815 25.32 24.4223 25.1941 24.521 25.1933L25.2826 25.1874L25.5235 24.4647C25.5547 24.3711 25.6872 24.3711 25.7184 24.4647Z" fill="#FFE15A"/>
<path d="M28.4488 25.6329C28.4488 25.6329 28.5343 25.2378 28.1139 25.7119C28.1139 25.7119 28.12 25.5769 28.1081 25.4657C28.2006 25.3656 28.3152 25.1466 28.2883 24.6794C28.2883 24.6794 28.2223 24.2805 28.0059 24.8759C28.0059 24.8759 27.9469 24.7003 27.8841 24.603C27.9362 24.4948 27.9765 24.2978 27.8515 23.9246C27.8515 23.9246 27.7053 23.6052 27.6598 24.1539C27.6598 24.1539 27.5397 23.9744 27.4617 23.9302C27.4767 23.8418 27.4649 23.6898 27.2884 23.4438C27.2884 23.4438 27.1122 23.2465 27.2012 23.6514C27.2012 23.6514 27.0399 23.5209 26.9884 23.5362C26.9616 23.4589 26.8842 23.3281 26.6241 23.156C26.6241 23.156 26.3988 23.0327 26.6573 23.3547C26.6573 23.3547 26.4288 23.264 26.4315 23.316C26.4343 23.3679 26.5447 23.4637 26.6354 23.5065C26.6354 23.5065 26.3003 23.5413 26.4379 23.616C26.4379 23.616 26.7778 23.7333 26.982 23.6204C26.9984 23.6798 27.0317 23.7465 27.0811 23.7945C27.0811 23.7945 26.6823 23.7171 26.7903 23.8368C26.7903 23.8368 27.0894 24.0566 27.385 24.0229C27.3837 24.1044 27.4083 24.2095 27.4516 24.2883C27.4516 24.2883 26.976 24.0341 27.0661 24.2282C27.0661 24.2282 27.3505 24.6086 27.7288 24.6911C27.7133 24.7756 27.7136 24.8779 27.7341 24.9626C27.7341 24.9626 27.2827 24.5363 27.324 24.7792C27.324 24.7792 27.5127 25.2794 27.8951 25.4919C27.864 25.5553 27.8385 25.6263 27.8291 25.6926C27.8291 25.6926 27.5662 25.13 27.5153 25.3712C27.5153 25.3712 27.5066 25.9331 27.8066 26.2691C27.7428 26.3222 27.6802 26.3965 27.6418 26.4695C27.6418 26.4695 27.5843 25.8514 27.455 26.0611C27.455 26.0611 27.2763 26.5295 27.3973 26.9331C27.3173 26.9567 27.2302 27.0003 27.1657 27.0526C27.1657 27.0526 27.3564 26.4617 27.155 26.6035C27.155 26.6035 26.7962 26.9917 26.7687 27.4284C26.6736 27.4264 26.5448 27.4607 26.4515 27.5165C26.4515 27.5165 26.7244 26.9589 26.5047 27.0705C26.5047 27.0705 26.1133 27.3902 26.0122 27.8051C25.9196 27.858 25.7624 27.9477 25.6053 28.0368C25.5139 27.9837 25.4251 27.9322 25.3492 27.8878L25.3518 27.8837L24.462 27.1379L24.4797 27.3818L24.0329 26.5828L23.9777 26.8546L23.8314 25.9713L23.7017 26.1017L23.7519 25.2777L23.5827 25.3689L23.8899 24.756L23.7456 24.7967L24.1252 24.4329L23.9245 24.45L24.4044 24.2321L24.229 24.2051L24.6975 23.9679L24.4956 23.9582L25.1029 23.748L24.9917 23.6507L25.5174 23.4957L24.8875 23.4476L25.0669 23.2268L24.5863 23.4727L24.6553 23.1403L24.2349 23.5732L24.3079 23.2701L23.9145 23.6616L23.9398 23.3661L23.5509 24.0249L23.5007 23.73L23.1774 24.4697L23.0885 24.1474L22.9441 25.0647L22.8237 24.9282L22.982 25.8129L22.7812 25.6624L23.1493 26.4571C23.1493 26.4571 22.8816 26.34 22.8481 26.34C22.8146 26.34 23.4881 27.024 23.4881 27.024L23.1367 26.9864L23.8156 27.4637L23.5634 27.526L24.1281 27.7456L23.99 27.8524L25.1592 27.936C25.1592 27.936 25.2719 28.0298 25.4252 28.1385C25.3442 28.1842 25.273 28.224 25.229 28.2481C25.1846 28.2723 25.1324 28.2748 25.0856 28.2552C24.9746 28.2086 24.8141 28.143 24.7366 28.1121C24.7366 28.1121 24.7441 28.4444 25.0901 28.4527C25.2322 28.4559 25.426 28.3655 25.6061 28.2585C25.7906 28.3736 25.9942 28.4751 26.1413 28.4715C26.4798 28.4632 26.4872 28.1309 26.4872 28.1309C26.4114 28.162 26.2542 28.2276 26.1457 28.2741C26.0999 28.2936 26.0489 28.2912 26.0055 28.2669C25.9575 28.2401 25.8786 28.1951 25.7882 28.1428C25.8806 28.0802 25.958 28.0234 26.0124 27.9815C26.0975 28.0484 26.3413 28.166 26.886 27.9615C26.886 27.9615 27.2474 27.78 26.6144 27.7503C26.6144 27.7503 26.7319 27.664 26.8112 27.5822C26.915 27.6356 27.1716 27.6989 27.6593 27.4311C27.6593 27.4311 27.9911 27.2 27.3604 27.2607C27.3604 27.2607 27.4446 27.1787 27.5108 27.0953C27.6196 27.1075 27.8883 27.0784 28.2445 26.6227C28.2445 26.6227 28.4584 26.2796 27.9027 26.5839C27.9027 26.5839 27.9746 26.4127 27.9915 26.2981C28.1147 26.2387 28.3019 26.0774 28.4488 25.6329Z" fill="#64C86E"/>
</g>
<defs>
<clipPath id="clip0_3462_30029">
<rect width="50" height="50" fill="white" transform="translate(0.621094 0.597656)"/>
</clipPath>
</defs>
</svg>
