<svg width="51" height="51" viewBox="0 0 51 51" fill="none" xmlns="http://www.w3.org/2000/svg">
<g clip-path="url(#clip0_3462_30008)">
<path d="M0.661719 41.7695L25.3438 25.5986L0.661719 9.42773C0.471777 9.58584 0.34375 9.81494 0.34375 10.0813V41.1158C0.34375 41.3823 0.471777 41.6114 0.661719 41.7695Z" fill="#F5F5F5"/>
<path d="M0.661133 41.7686C0.810547 41.893 0.995605 41.977 1.20518 41.977H49.4811C49.9571 41.977 50.3432 41.5909 50.3432 41.1148V25.5977H25.3432L0.661133 41.7686Z" fill="#FF4B55"/>
<path d="M0.661133 9.42715C0.810547 9.30273 0.995605 9.21875 1.20518 9.21875H49.4811C49.9571 9.21875 50.3432 9.60478 50.3432 10.0809V25.598H25.3432L0.661133 9.42715Z" fill="#41479B"/>
<path d="M9.39746 28.3984C10.9448 28.3984 12.1992 27.1441 12.1992 25.5967C12.1992 24.0493 10.9448 22.7949 9.39746 22.7949C7.85009 22.7949 6.5957 24.0493 6.5957 25.5967C6.5957 27.1441 7.85009 28.3984 9.39746 28.3984Z" fill="#FFE15A"/>
<path d="M9.39736 25.5976L8.34668 21.395L9.39736 19.9941L10.4479 21.395L9.39736 25.5976Z" fill="#FFE15A"/>
<path d="M9.39736 25.5977L10.4479 29.8002L9.39736 31.2011L8.34668 29.8002L9.39736 25.5977Z" fill="#FFE15A"/>
<path d="M9.39648 25.5976L5.19385 26.6482L3.79297 25.5976L5.19385 24.5469L9.39648 25.5976Z" fill="#FFE15A"/>
<path d="M9.39746 25.5976L13.6 24.5469L15.0009 25.5976L13.6 26.6482L9.39746 25.5976Z" fill="#FFE15A"/>
<path d="M9.39746 25.5971L11.6262 21.8825L13.3597 21.6348L13.112 23.3683L9.39746 25.5971Z" fill="#FFE15A"/>
<path d="M9.39688 25.5977L7.16807 29.3122L5.43457 29.56L5.68232 27.8265L9.39688 25.5977Z" fill="#FFE15A"/>
<path d="M9.39688 25.5971L5.68232 23.3683L5.43457 21.6348L7.16807 21.8825L9.39688 25.5971Z" fill="#FFE15A"/>
<path d="M9.39746 25.5977L13.112 27.8265L13.3597 29.56L11.6262 29.3122L9.39746 25.5977Z" fill="#FFE15A"/>
<path d="M2.6553 13.4574L2.8014 14.5473L1.81741 15.0383C1.69007 15.1019 1.71683 15.291 1.85696 15.3166L2.9386 15.5145L3.10149 16.602C3.12259 16.7428 3.31077 16.7757 3.37845 16.6503L3.90091 15.6827L4.98548 15.8638C5.12591 15.8873 5.21536 15.7184 5.11712 15.6154L4.35833 14.8195L4.86566 13.844C4.93138 13.7177 4.79837 13.5804 4.67005 13.642L3.67864 14.1178L2.90765 13.3337C2.80804 13.2323 2.63646 13.3164 2.6553 13.4574Z" fill="#FFE15A"/>
<path d="M3.08971 34.6703L2.90514 35.7544L1.81979 35.9307C1.67926 35.9535 1.6487 36.1421 1.77477 36.2081L2.7487 36.7186L2.58102 37.8053C2.55934 37.946 2.72917 38.0333 2.83102 37.9338L3.61745 37.1652L4.59928 37.6606C4.72643 37.7248 4.86198 37.5901 4.79889 37.4626L4.311 36.4771L5.08542 35.6966C5.18561 35.5955 5.09967 35.425 4.95866 35.4456L3.87057 35.6051L3.36745 34.6272C3.30231 34.5008 3.11344 34.5299 3.08971 34.6703Z" fill="#FFE15A"/>
<path d="M20.1435 23.9909L19.5106 24.8901L18.4549 24.5825C18.3183 24.5427 18.2095 24.6998 18.2949 24.8137L18.9545 25.6935L18.3357 26.6024C18.2556 26.7201 18.3713 26.8721 18.5061 26.8261L19.5466 26.4706L20.2199 27.34C20.3071 27.4526 20.4873 27.3894 20.4852 27.2471L20.4686 26.1477L21.5036 25.776C21.6375 25.7278 21.6331 25.5368 21.4971 25.4949L20.4462 25.1709L20.4126 24.0718C20.4085 23.9293 20.2254 23.8744 20.1435 23.9909Z" fill="#FFE15A"/>
</g>
<defs>
<clipPath id="clip0_3462_30008">
<rect width="50" height="50" fill="white" transform="translate(0.34375 0.597656)"/>
</clipPath>
</defs>
</svg>
