<svg width="51" height="51" viewBox="0 0 51 51" fill="none" xmlns="http://www.w3.org/2000/svg">
<g clip-path="url(#clip0_3462_29939)">
<path d="M49.7755 41.9773H1.4998C1.02373 41.9773 0.637695 41.5913 0.637695 41.1152V10.0809C0.637695 9.60478 1.02373 9.21875 1.4998 9.21875H49.7756C50.2517 9.21875 50.6377 9.60478 50.6377 10.0809V41.1152C50.6376 41.5913 50.2516 41.9773 49.7755 41.9773Z" fill="#41479B"/>
<path d="M24.7755 9.21875H23.2782L15.2928 14.4505V9.21875H10.9825V14.4505L2.99716 9.21875H1.4998C1.02373 9.21875 0.637695 9.60478 0.637695 10.0809V10.7646L7.48876 15.2532H0.637695V19.5636H7.48876L0.637695 24.0522V24.7359C0.637695 25.212 1.02373 25.598 1.4998 25.598H2.99716L10.9825 20.3663V25.598H15.2928V20.3663L23.2781 25.598H24.7754C25.2515 25.598 25.6375 25.212 25.6375 24.7359V24.0521L18.7866 19.5636H25.6375V15.2532H18.7865L25.6375 10.7646V10.0809C25.6375 9.60478 25.2517 9.21875 24.7755 9.21875Z" fill="#F5F5F5"/>
<path d="M25.6385 16.1153H14.4317V9.21875H11.8455V16.1153H0.638672V18.7014H11.8455V25.598H14.4317V18.7014H25.6385V16.1153Z" fill="#FF4B55"/>
<path d="M10.1214 15.254L1.04951 9.36523C0.808105 9.51807 0.638672 9.77471 0.638672 10.0816V10.1264L8.53797 15.254H10.1214Z" fill="#FF4B55"/>
<path d="M16.8773 15.2532L25.5076 9.65107C25.3576 9.39727 25.0929 9.21875 24.7766 9.21875H24.5902L15.2939 15.2532H16.8773Z" fill="#FF4B55"/>
<path d="M9.37645 19.5645L0.762695 25.1558C0.91123 25.4158 1.17998 25.5989 1.50088 25.5989H1.66347L10.9598 19.5645H9.37645Z" fill="#FF4B55"/>
<path d="M25.6249 24.8046L17.552 19.5645H15.9688L25.136 25.515C25.4107 25.3876 25.599 25.1205 25.6249 24.8046Z" fill="#FF4B55"/>
<path d="M38.4509 17.9175C38.4315 17.9175 38.4116 17.9113 38.3947 17.8986C38.3813 17.8883 37.0434 16.8456 37.8314 15.0784C37.8523 15.0315 37.9072 15.0108 37.9543 15.0313C38.0012 15.0524 38.0222 15.1072 38.0014 15.1543C37.2745 16.7839 38.4566 17.7119 38.5073 17.7506C38.5482 17.7816 38.5561 17.8399 38.5249 17.8807C38.5066 17.9048 38.479 17.9175 38.4509 17.9175Z" fill="#73AF00"/>
<path d="M37.68 16.3904C37.6763 16.3904 37.6728 16.3902 37.6692 16.3898C37.6181 16.3837 37.5817 16.3376 37.5875 16.2867C37.6262 15.9525 37.7519 15.7193 37.9614 15.5937C38.2982 15.3912 38.7192 15.553 38.7368 15.5601C38.7846 15.5788 38.808 15.6325 38.7893 15.6803C38.7705 15.7282 38.7164 15.7519 38.6691 15.7331C38.6654 15.7318 38.3138 15.5982 38.0562 15.7535C37.8995 15.8482 37.8039 16.0347 37.7725 16.3081C37.7668 16.3555 37.7265 16.3904 37.68 16.3904Z" fill="#73AF00"/>
<path d="M37.9334 15.1926C37.9254 15.1721 37.7243 14.6947 36.8155 14.8979C35.7863 15.1284 35.7744 16.4862 35.7744 16.4997C35.7744 16.5464 35.8091 16.5861 35.8556 16.592C35.8596 16.5926 35.8636 16.5928 35.8674 16.5928C35.9092 16.5928 35.9466 16.5647 35.9572 16.5234C36.3408 15.0622 37.7694 15.3076 37.8301 15.3183C37.8645 15.3244 37.8975 15.3117 37.9187 15.286C37.9402 15.2598 37.946 15.2239 37.9334 15.1926Z" fill="#73AF00"/>
<path d="M37.7192 15.9501C37.7192 15.9501 37.0993 15.555 36.8435 16.0586C36.5878 16.5623 36.7816 17.1047 36.8823 17.3216C36.8823 17.3216 37.2518 16.9131 37.603 16.8567C38.037 16.7869 38.1455 16.2445 37.8432 15.9733C37.4821 15.6493 37.7192 15.9501 37.7192 15.9501Z" fill="#73AF00"/>
<path d="M38.3967 15.0234C38.3879 15.5658 38.6901 15.6369 38.6901 15.6369C38.8855 15.139 38.3967 15.0234 38.3967 15.0234Z" fill="#73AF00"/>
<path d="M38.3018 16.1624C38.3059 15.6478 38.6549 15.5898 38.6549 15.5898C38.8664 16.0683 38.3018 16.1624 38.3018 16.1624Z" fill="#73AF00"/>
<path d="M40.3144 15.7489C40.3144 15.7489 39.8208 15.676 39.6314 15.5865C39.4739 15.5122 39.2683 15.3327 39.0021 15.3678C38.7987 15.3678 38.6338 15.5326 38.6338 15.7361C38.6338 15.9396 38.7735 16.1833 39.5046 16.1292C39.859 16.1029 40.1609 16.2648 40.1609 16.2648C40.1145 16.0712 40.3144 15.7489 40.3144 15.7489Z" fill="#FF4B55"/>
<path d="M39.8021 15.9112C39.8021 15.9112 39.0451 15.9636 38.8789 15.8412C38.7255 15.7281 38.7655 15.548 38.9227 15.5305C39.159 15.5042 39.8021 15.9112 39.8021 15.9112Z" fill="#FFE15A"/>
<path d="M41.2747 16.7677L39.6009 17.8138L39.4091 17.6277L40.3272 16.7385L40.5422 16.8257L40.7515 16.5467L40.2517 16.2852C40.2517 16.2852 38.9266 17.5346 37.7992 17.6393C37.4199 17.6745 37.0334 17.6497 36.7319 17.5256L36.0557 18.4994L37.4736 19.7082L39.5542 19.6268L41.2744 17.2905L41.5766 17.43L41.8322 17.1278L41.2747 16.7677Z" fill="#B49B91"/>
<path d="M36.6111 19.5853C36.1455 19.5853 35.7666 19.2064 35.7666 18.741C35.7666 18.2754 36.1455 17.8965 36.6111 17.8965C37.0767 17.8965 37.4554 18.2754 37.4554 18.741C37.4556 19.2065 37.0767 19.5853 36.6111 19.5853ZM36.6111 18.1755C36.2993 18.1755 36.0456 18.4292 36.0456 18.741C36.0456 19.0528 36.2993 19.3064 36.6111 19.3064C36.9229 19.3064 37.1766 19.0529 37.1766 18.741C37.1766 18.4291 36.923 18.1755 36.6111 18.1755Z" fill="#9B8278"/>
<path d="M40.1302 20.3671C40.1302 20.3671 40.2851 20.2663 40.4401 19.7937L40.1225 19.8402C40.1225 19.8402 40.1844 19.5768 40.1147 19.383L39.7583 19.662C39.7583 19.662 39.5956 19.3211 39.5259 19.2746C39.5259 19.2746 39.2779 19.6233 39.1385 19.6697C39.1385 19.6697 38.999 19.166 38.8595 19.0653L38.6192 19.4062L38.2628 19.1272C38.2628 19.1272 38.2628 19.3675 38.2551 19.4218C38.2474 19.476 37.7901 18.9414 37.7901 18.9414C37.7901 18.9414 37.5887 19.0267 37.3175 19.4605L36.9766 19.1118L36.8371 19.569L36.3645 19.445L36.4419 19.7162L36.0312 19.6852C36.0312 19.6852 36.101 20.0881 36.3024 20.2276L40.1302 20.3671Z" fill="#73AF00"/>
<path d="M36.0233 22.0918C36.0233 22.0918 34.7448 23.719 32.3271 23.5331L34.954 23.8935L36.3022 22.6149L36.0233 22.0918Z" fill="#73AF00"/>
<path d="M31.8496 23.2874C32.1053 23.4735 33.6861 23.9268 34.8251 23.3804C34.8251 23.3804 34.8483 23.6478 34.7205 23.7988C34.7205 23.7988 35.5573 23.4617 36.0107 22.8341C36.4641 22.2064 35.0692 24.1823 35.0692 24.1823L32.9306 24.5775L32.0588 23.8568L31.8496 23.2874Z" fill="#FFE15A"/>
<path d="M31.6817 17.428C31.3978 17.4519 31.0906 17.6229 30.9335 17.8306C30.848 17.7942 30.6578 17.7781 30.5003 17.883C30.2905 18.0229 29.9028 18.5279 29.5775 18.3943C29.5775 18.3943 29.5484 18.8708 30.0539 18.8535C30.0539 18.8535 29.926 19.0512 29.9493 19.3649C29.9726 19.6787 29.7459 19.888 29.7459 19.888C29.7459 19.888 30.7688 20.0332 30.8095 19.2371C30.8145 19.1398 30.8194 19.0541 30.8241 18.9776C31.3579 19.2659 31.568 18.859 31.568 18.859C31.568 18.859 31.2472 18.556 31.5736 18.1246C31.9001 17.6932 32.7976 18.7102 32.7976 18.7102C32.8151 18.3032 32.7786 17.3358 31.6817 17.428Z" fill="#FFE15A"/>
<path d="M35.6348 20.1111C35.6348 20.1111 35.3403 20.3125 34.426 20.1266C34.426 20.1266 34.6274 19.6772 34.5345 19.4137C34.5345 19.4137 34.2865 19.6461 33.6821 19.8787C33.0777 20.1112 32.3339 20.855 32.1168 21.3354C32.1168 21.3354 33.4762 18.2018 32.3842 17.8833C32.0096 17.774 31.6874 17.9511 31.5734 18.1249C31.6285 18.1899 31.6814 18.2826 31.6868 18.4063C31.6984 18.6737 31.4311 20.4752 31.0359 21.7189C31.0359 21.7189 30.9196 21.2888 30.7338 21.0795C30.5479 20.8703 30.4084 20.5332 30.4084 20.5332C30.4084 20.5332 30.0946 20.7425 30.141 21.126C30.141 21.126 29.9667 20.9866 29.6296 21.0795C29.2925 21.1725 29.1646 20.9516 29.1646 20.9516C29.1646 20.9516 28.8856 21.6955 29.7109 22.079C29.7109 22.079 29.4901 22.1836 29.3855 22.2651C29.281 22.3464 29.1182 22.3464 29.1182 22.3464C29.1182 22.3464 29.4088 22.8811 30.0247 22.9392C30.6407 22.9973 30.9238 23.1729 31.1173 23.4893C31.745 24.5161 32.9461 25.2948 34.9065 24.0937C34.9065 24.0937 32.117 24.9616 31.993 23.1793C31.8845 21.6203 33.5892 21.3041 33.7597 21.6451C33.9302 21.986 33.7441 22.2805 33.7441 22.2805C33.7441 22.2805 34.674 22.0636 34.2245 21.2111C34.2245 21.2115 35.1389 21.351 35.6348 20.1111Z" fill="#73AF00"/>
<path d="M44.5889 23.288C44.3332 23.474 42.7176 24.1714 41.6017 23.0556C40.4858 21.9398 40.0507 20.2645 40.1139 20.452H38.998L39.37 23.7995L43.5079 24.5783L44.3797 23.8576L44.5889 23.288Z" fill="#73AF00"/>
<path d="M44.7563 17.428C45.0403 17.4519 45.3474 17.6229 45.5045 17.8306C45.5901 17.7942 45.7802 17.7781 45.9377 17.883C46.1475 18.0229 46.5351 18.5279 46.8606 18.3943C46.8606 18.3943 46.8897 18.8708 46.3841 18.8535C46.3841 18.8535 46.512 19.0512 46.4887 19.3649C46.4655 19.6787 46.6921 19.888 46.6921 19.888C46.6921 19.888 45.6693 20.0332 45.6285 19.2371C45.6236 19.1398 45.6186 19.0541 45.6139 18.9776C45.0801 19.2659 44.8701 18.859 44.8701 18.859C44.8701 18.859 45.1908 18.556 44.8643 18.1246C44.5378 17.6932 43.6404 18.7102 43.6404 18.7102C43.6229 18.3032 43.6594 17.3358 44.7563 17.428Z" fill="#73AF00"/>
<path d="M40.8027 20.1111C40.8027 20.1111 41.0972 20.3125 42.0115 20.1266C42.0115 20.1266 41.8101 19.6772 41.903 19.4137C41.903 19.4137 42.151 19.6461 42.7554 19.8787C43.3598 20.1112 44.1036 20.855 44.3207 21.3354C44.3207 21.3354 42.9613 18.2018 44.0533 17.8833C44.4279 17.774 44.7501 17.9511 44.8641 18.1249C44.809 18.1899 44.756 18.2826 44.7507 18.4063C44.7391 18.6737 45.0063 20.4752 45.4016 21.7189C45.4016 21.7189 45.5179 21.2888 45.7037 21.0795C45.8895 20.8703 46.0291 20.5332 46.0291 20.5332C46.0291 20.5332 46.3429 20.7425 46.2965 21.126C46.2965 21.126 46.4708 20.9866 46.8079 21.0795C47.145 21.1725 47.2728 20.9516 47.2728 20.9516C47.2728 20.9516 47.5518 21.6955 46.7266 22.079C46.7266 22.079 46.9474 22.1836 47.0519 22.2651C47.1565 22.3464 47.3193 22.3464 47.3193 22.3464C47.3193 22.3464 47.0287 22.8811 46.4128 22.9392C45.7968 22.9973 45.5137 23.1729 45.3202 23.4893C44.6925 24.5161 43.4914 25.2948 41.531 24.0937C41.531 24.0937 44.3205 24.9616 44.4445 23.1793C44.553 21.6203 42.8483 21.3041 42.6778 21.6451C42.5073 21.986 42.6934 22.2805 42.6934 22.2805C42.6934 22.2805 41.7635 22.0636 42.213 21.2111C42.2131 21.2115 41.2986 21.351 40.8027 20.1111Z" fill="#FFE15A"/>
<path d="M40.0117 22.7148C40.4689 23.3812 41.1043 23.9856 42.9485 24.559C44.7928 25.1323 45.2857 25.2176 46.2521 25.9993C46.2521 25.9993 46.4357 26.1932 46.506 26.5039C46.5886 26.8689 46.0257 27.9219 46.0257 27.9219C46.0257 27.9219 46.0799 27.6739 45.7389 27.1935C45.398 26.7132 43.3833 25.8453 42.3295 25.5818C41.2756 25.3184 39.4546 24.096 39.9584 23.1797L40.0117 22.7148Z" fill="#73AF00"/>
<path d="M46.2516 25.997C46.2524 25.9981 46.2527 25.9991 46.2536 26.0002C46.2523 25.9988 46.2513 25.9975 46.25 25.9961L46.2516 25.997Z" fill="#73AF00"/>
<path d="M46.2038 28.2635C46.2038 28.2635 46.2503 28.6006 45.9714 28.8912C45.6924 29.1818 45.4949 29.391 45.5064 29.635C45.5064 29.635 45.088 29.3329 45.1577 28.6587C45.1577 28.6587 44.6114 29.112 43.7861 28.6703C43.7861 28.6703 43.8675 27.8451 44.9369 27.7404C44.9369 27.7404 44.5185 27.415 45.0648 26.9152C45.0648 26.9152 45.1283 27.1388 45.6228 27.2523C46.0528 27.3512 46.818 26.8118 46.2521 26C47.2267 27.1011 46.7269 27.8565 46.2038 28.2635Z" fill="#FFE15A"/>
<path d="M39.6123 22.1035C39.6123 22.1035 39.848 22.4888 40.4608 22.8629C41.197 23.3123 41.2629 23.5215 41.2629 23.5215L40.7631 23.5099C40.7631 23.5099 41.4024 23.8586 41.5768 24.3003C41.5768 24.3003 41.3094 24.3468 41.0072 24.2653C41.0072 24.2653 41.2513 24.4861 41.1352 25.1952H39.8914L39.6123 22.1035Z" fill="#FFE15A"/>
<path d="M37.1372 25.288V22.3125C37.1372 22.3125 36.1272 24.0403 35.2549 25.288H37.1372Z" fill="#73AF00"/>
<path d="M36.2683 22.2507C36.0204 22.7001 35.2455 24.1802 33.4012 24.7536C31.557 25.327 31.2199 25.2186 30.2534 26.0002C30.2534 26.0002 30.0698 26.1941 29.9995 26.5048C29.917 26.8698 30.4798 27.9228 30.4798 27.9228C30.4798 27.9228 30.4256 27.6748 30.7666 27.1944C31.1075 26.7141 33.1108 25.7956 34.176 25.5827C35.6492 25.2882 36.982 23.7075 36.765 22.6847C36.5482 21.6618 36.2683 22.2507 36.2683 22.2507Z" fill="#FFE15A"/>
<path d="M30.2569 25.997C30.256 25.9981 30.2557 25.9991 30.2549 26.0002C30.2561 25.9988 30.2572 25.9975 30.2585 25.9961L30.2569 25.997Z" fill="#73AF00"/>
<path d="M30.3028 28.2635C30.3028 28.2635 30.2563 28.6006 30.5352 28.8912C30.8142 29.1818 31.0117 29.391 31.0001 29.635C31.0001 29.635 31.4186 29.3329 31.3489 28.6587C31.3489 28.6587 31.8952 29.112 32.7204 28.6703C32.7204 28.6703 32.6391 27.8451 31.5697 27.7404C31.5697 27.7404 31.9881 27.415 31.4418 26.9152C31.4418 26.9152 31.3784 27.1388 30.8839 27.2523C30.4539 27.3512 29.6887 26.8118 30.2545 26C29.2799 27.1011 29.7797 27.8565 30.3028 28.2635Z" fill="#73AF00"/>
<path d="M32.876 33.2217C32.876 33.2217 33.1395 34.4072 33.155 35.6315C33.155 35.6315 34.3096 35.6703 34.8675 34.8024C34.8675 34.8024 33.7517 34.2213 33.155 33.0977L32.876 33.2217Z" fill="#FFE15A"/>
<path d="M32.6276 30.6029C32.5812 30.045 32.8291 28.6348 33.9603 27.6119L33.9881 26.3594C33.9881 26.3594 33.6511 26.3944 33.3522 26.6561L32.7129 27.6468L32.1201 29.8901L32.6276 30.6029Z" fill="#73AF00"/>
<path d="M32.6586 31.0061C32.6586 31.0061 32.6586 32.1995 33.1545 33.0983L32.8755 33.2222C32.8755 33.2222 31.8759 32.4357 31.6667 30.8201C31.6667 30.8201 30.7717 31.4129 30.4424 30.2002C30.4424 30.2002 31.4032 30.5877 31.7132 29.7043C31.9928 28.9072 32.2755 27.4562 33.3521 26.6562C32.8403 27.4429 32.0696 29.4563 32.6663 30.1692C32.8243 30.358 33.2785 30.518 33.7756 30.3057C33.7433 30.7022 33.5541 31.3082 32.6586 31.0061Z" fill="#FFE15A"/>
<path d="M32.8034 33.4344L32.6401 33.1344C32.6116 33.0819 32.6309 33.0162 32.6835 32.9876L32.9814 32.8257C33.0339 32.7971 33.0995 32.8165 33.1281 32.869L33.2914 33.169C33.3199 33.2215 33.3006 33.2872 33.248 33.3158L32.9501 33.4777C32.8976 33.5062 32.832 33.4869 32.8034 33.4344Z" fill="#FFCE5A"/>
<path d="M42.886 33.2217C42.886 33.2217 42.6226 34.4072 42.607 35.6315C42.607 35.6315 41.4524 35.6703 40.8945 34.8024C40.8945 34.8024 42.0104 34.2213 42.607 33.0977L42.886 33.2217Z" fill="#FFE15A"/>
<path d="M43.1339 30.6029C43.1804 30.045 42.9324 28.6348 41.8012 27.6119L41.7734 26.3594C41.7734 26.3594 42.1104 26.3944 42.4093 26.6561L43.0486 27.6468L43.6414 29.8901L43.1339 30.6029Z" fill="#FFE15A"/>
<path d="M41.9873 30.3057C42.4844 30.518 42.9386 30.358 43.0966 30.1692C43.6933 29.4563 42.9226 27.4429 42.4107 26.6562C43.4875 27.4562 43.77 28.9072 44.0497 29.7043C44.3597 30.5877 45.3205 30.2002 45.3205 30.2002C44.9912 31.4129 44.0962 30.8201 44.0962 30.8201C43.8869 32.4357 42.8874 33.2222 42.8874 33.2222L42.6084 33.0983C43.1043 32.1994 43.1043 31.006 43.1043 31.006C42.2088 31.3081 42.0197 30.7021 41.9873 30.3057Z" fill="#73AF00"/>
<path d="M42.9592 33.4344L43.1224 33.1344C43.151 33.0819 43.1316 33.0162 43.0791 32.9876L42.7811 32.8257C42.7287 32.7971 42.6631 32.8165 42.6345 32.869L42.4712 33.169C42.4427 33.2215 42.462 33.2872 42.5145 33.3158L42.8125 33.4777C42.865 33.5062 42.9306 33.4869 42.9592 33.4344Z" fill="#FFCE5A"/>
<path d="M34.162 24.916C33.9566 24.916 33.79 25.0825 33.79 25.288V29.3794C33.79 30.4952 34.162 34.5866 37.8814 36.0744C41.601 34.5866 41.9728 30.4952 41.9728 29.3794V25.288C41.9728 25.0826 41.8063 24.916 41.6009 24.916H34.162Z" fill="#4173CD"/>
<path d="M37.6563 24.916L34.1289 31.6768C34.2172 31.9895 34.3272 32.3132 34.4654 32.6401L37.8818 26.092L41.2982 32.6401C41.4364 32.3131 41.5465 31.9894 41.6347 31.6768L38.1073 24.916H37.6563V24.916Z" fill="#FFE15A"/>
<path d="M41.2976 32.6399L37.8812 26.0918L34.4648 32.6399C35.0275 33.9719 36.0457 35.34 37.8812 36.0742C39.7168 35.3399 40.735 33.9718 41.2976 32.6399Z" fill="#73AF00"/>
<path d="M39.2643 33.0643L39.4893 33.1722C39.395 33.3116 39.1986 33.5372 38.823 33.7416C38.5393 33.896 38.2651 34.0787 38.0671 34.2186V31.149L38.997 31.0534V30.6814L38.0671 30.5858V30.1235C38.0671 30.0208 37.9838 29.9375 37.881 29.9375C37.7934 29.9375 37.7234 29.9993 37.7037 30.081C37.6419 30.0366 37.5702 30.0051 37.4887 30.0051C37.2806 30.0051 37.1111 30.1745 37.1111 30.3826C37.1111 30.4806 37.1509 30.5682 37.2124 30.6354L36.7653 30.6814V31.0534L37.6952 31.149V34.2186C37.4973 34.0787 37.223 33.8959 36.9393 33.7416C36.5636 33.5373 36.3673 33.3116 36.2729 33.1722L36.4979 33.0643L35.6494 31.9833V33.4711L35.9354 33.3339C36.0486 33.5162 36.2878 33.8105 36.7616 34.0682C37.158 34.2839 37.5427 34.5642 37.6951 34.6789L37.8811 34.823L38.0672 34.6789C38.2196 34.5642 38.6044 34.2839 39.0007 34.0682C39.4745 33.8105 39.7137 33.5162 39.8268 33.3339L40.1129 33.4711V31.9833L39.2643 33.0643ZM37.4887 30.5744C37.383 30.5744 37.2971 30.4886 37.2971 30.3828C37.2971 30.2771 37.3829 30.1912 37.4887 30.1912C37.5943 30.1912 37.6803 30.2771 37.6803 30.3828C37.6803 30.4886 37.5944 30.5744 37.4887 30.5744Z" fill="#FFE15A"/>
<path d="M38.1686 29.7516H37.5939C37.4444 29.7516 37.3232 29.6305 37.3232 29.481V28.5343C37.3232 28.3849 37.4443 28.2637 37.5939 28.2637H38.1686C38.318 28.2637 38.4392 28.3848 38.4392 28.5343V29.481C38.4392 29.6305 38.3181 29.7516 38.1686 29.7516Z" fill="#F5F5F5"/>
<path d="M40.4853 24.9154C39.7415 23.7996 39.7415 21.5679 39.7415 21.5679C39.7415 21.5679 39.7415 20.0801 37.8818 20.0801C36.9397 20.0801 36.4758 20.4619 36.2465 20.8386C35.3539 21.1972 34.9062 21.9397 34.9062 21.9397C35.2867 22.1301 35.6229 22.2207 35.928 22.2439C36.5344 22.9655 36.7361 23.6623 36.7897 24.1635C36.4405 24.5201 36.2469 25.3803 36.766 26.0311C36.766 26.0311 37.8663 25.7755 38.7952 24.9153H40.4852V24.9154H40.4853V24.9154Z" fill="#B49B91"/>
<path d="M38.7949 24.9152H40.1831C40.1133 24.2295 39.4391 24.3399 38.7949 24.9152Z" fill="#9B8278"/>
<path d="M40.1484 24.2124C39.7419 23.0583 39.7413 21.5671 39.7413 21.5671C39.7413 21.5671 39.7412 21.5429 39.7374 21.5012C39.2531 21.4355 38.7574 21.4711 37.7886 21.8461C36.757 22.2453 36.2521 22.2567 35.9277 22.2433C36.5341 22.9648 36.7358 23.6616 36.7894 24.1628L36.8044 24.9534C36.8044 24.9534 37.3855 25.0387 38.6641 24.3024C39.3019 23.9353 39.8426 23.9038 40.1484 24.2124Z" fill="#9B8278"/>
<path d="M38.168 21.4052C38.9224 21.2166 39.4037 21.236 39.7139 21.3461C39.6307 20.9317 39.2891 20.0801 37.8813 20.0801C36.9393 20.0801 36.4753 20.4619 36.246 20.8386L35.6807 21.6299C35.6807 21.6299 36.3877 21.8502 38.168 21.4052Z" fill="#9B8278"/>
<path d="M36.6522 19.9172C36.7255 19.9902 36.944 20.5172 36.899 20.5955C36.87 20.6458 36.288 20.7905 36.1936 20.7167C36.1095 20.6508 36.011 20.0833 36.0674 20.0177C36.1185 19.9586 36.5911 19.8562 36.6522 19.9172Z" fill="#FFE15A"/>
<path d="M37.4002 19.8895C37.4678 19.967 37.6209 20.4821 37.5603 20.5478C37.5213 20.5901 36.8726 20.6413 36.7824 20.5602C36.7022 20.488 36.6844 19.9521 36.7553 19.9C36.8194 19.8526 37.3439 19.8249 37.4002 19.8895Z" fill="#73AF00"/>
<path d="M38.1092 19.8703C38.1792 19.9432 38.339 20.4276 38.2763 20.4891C38.2359 20.5287 37.5649 20.5752 37.4715 20.4988C37.3882 20.4306 37.3686 19.9273 37.4417 19.8784C37.5082 19.8341 38.0508 19.8094 38.1092 19.8703Z" fill="#FFE15A"/>
<path d="M38.8303 19.9029C38.8923 19.9825 39.0091 20.4907 38.9441 20.5497C38.9023 20.5875 38.2517 20.5892 38.1676 20.5043C38.0926 20.4285 38.1121 19.9105 38.1865 19.8654C38.2535 19.8246 38.7785 19.8364 38.8303 19.9029Z" fill="#73AF00"/>
<path d="M40.3158 20.21C40.3637 20.2987 40.3591 20.7708 40.2852 20.8182C40.2376 20.8485 39.6519 20.7441 39.583 20.6465C39.5214 20.5594 39.6263 20.0518 39.7071 20.0194C39.7799 19.9902 40.2757 20.1358 40.3158 20.21Z" fill="#73AF00"/>
<path d="M39.6318 20.0112C39.6905 20.0921 39.7352 20.566 39.6644 20.6161C39.6189 20.6483 38.9486 20.5933 38.8674 20.5057C38.7948 20.4274 38.8478 19.939 38.9272 19.9026C38.9993 19.8696 39.5828 19.9438 39.6318 20.0112Z" fill="#FFE15A"/>
<path d="M36.6104 18.9941C36.75 18.9941 36.8633 18.8809 36.8633 18.7412C36.8633 18.6015 36.75 18.4883 36.6104 18.4883C36.4707 18.4883 36.3574 18.6015 36.3574 18.7412C36.3574 18.8809 36.4707 18.9941 36.6104 18.9941Z" fill="#9B8278"/>
</g>
<defs>
<clipPath id="clip0_3462_29939">
<rect width="50" height="50" fill="white" transform="translate(0.636719 0.597656)"/>
</clipPath>
</defs>
</svg>
