<svg width="51" height="51" viewBox="0 0 51 51" fill="none" xmlns="http://www.w3.org/2000/svg">
<g clip-path="url(#clip0_3462_29916)">
<path d="M49.4981 41.9774H1.22246C0.746386 41.9774 0.360352 41.5914 0.360352 41.1153V10.0809C0.360352 9.60478 0.746386 9.21875 1.22246 9.21875H49.4982C49.9743 9.21875 50.3604 9.60478 50.3604 10.0809V41.1153C50.3603 41.5914 49.9742 41.9774 49.4981 41.9774Z" fill="#FF4B55"/>
<path d="M18.4637 9.21875H1.22246C0.746386 9.21875 0.360352 9.60469 0.360352 10.0808V41.1152C0.360352 41.5913 0.746386 41.9773 1.22246 41.9773H18.4638V9.21875H18.4637Z" fill="#73AF00"/>
<path d="M18.4707 33.3496C22.752 33.3496 26.2226 29.8789 26.2226 25.5976C26.2226 21.3164 22.752 17.8457 18.4707 17.8457C14.1894 17.8457 10.7188 21.3164 10.7188 25.5976C10.7188 29.8789 14.1894 33.3496 18.4707 33.3496Z" fill="#FFE15A"/>
<path d="M21.0568 23.0112V26.4595C21.0568 27.8855 19.8967 29.0457 18.4706 29.0457C17.0445 29.0457 15.8844 27.8855 15.8844 26.4595V23.0112H21.0568V23.0112ZM21.9188 21.2871H15.0223C14.5462 21.2871 14.1602 21.6731 14.1602 22.1492V26.4596C14.1602 28.84 16.09 30.7699 18.4705 30.7699C20.851 30.7699 22.7808 28.84 22.7808 26.4596V22.1492C22.7809 21.6731 22.3949 21.2871 21.9188 21.2871Z" fill="#FF4B55"/>
<path d="M21.0572 23.0117V26.46C21.0572 27.886 19.8971 29.0462 18.471 29.0462C17.0449 29.0462 15.8848 27.886 15.8848 26.46V23.0117H21.0572" fill="#F5F5F5"/>
<path d="M15.0141 22.5809C15.2521 22.5809 15.4451 22.3879 15.4451 22.1498C15.4451 21.9117 15.2521 21.7188 15.0141 21.7188C14.776 21.7188 14.583 21.9117 14.583 22.1498C14.583 22.3879 14.776 22.5809 15.0141 22.5809Z" fill="#FFE15A"/>
<path d="M21.9105 22.5809C22.1486 22.5809 22.3416 22.3879 22.3416 22.1498C22.3416 21.9117 22.1486 21.7188 21.9105 21.7188C21.6725 21.7188 21.4795 21.9117 21.4795 22.1498C21.4795 22.3879 21.6725 22.5809 21.9105 22.5809Z" fill="#FFE15A"/>
<path d="M15.0141 26.0281C15.2521 26.0281 15.4451 25.8351 15.4451 25.5971C15.4451 25.359 15.2521 25.166 15.0141 25.166C14.776 25.166 14.583 25.359 14.583 25.5971C14.583 25.8351 14.776 26.0281 15.0141 26.0281Z" fill="#FFE15A"/>
<path d="M21.9105 26.0281C22.1486 26.0281 22.3416 25.8351 22.3416 25.5971C22.3416 25.359 22.1486 25.166 21.9105 25.166C21.6725 25.166 21.4795 25.359 21.4795 25.5971C21.4795 25.8351 21.6725 26.0281 21.9105 26.0281Z" fill="#FFE15A"/>
<path d="M18.4623 22.5809C18.7004 22.5809 18.8934 22.3879 18.8934 22.1498C18.8934 21.9117 18.7004 21.7188 18.4623 21.7188C18.2242 21.7188 18.0312 21.9117 18.0312 22.1498C18.0312 22.3879 18.2242 22.5809 18.4623 22.5809Z" fill="#FFE15A"/>
<path d="M21.0502 29.2078C21.2883 29.2078 21.4812 29.0148 21.4812 28.7768C21.4812 28.5387 21.2883 28.3457 21.0502 28.3457C20.8121 28.3457 20.6191 28.5387 20.6191 28.7768C20.6191 29.0148 20.8121 29.2078 21.0502 29.2078Z" fill="#FFE15A"/>
<path d="M15.9252 29.2078C16.1633 29.2078 16.3562 29.0148 16.3562 28.7768C16.3562 28.5387 16.1633 28.3457 15.9252 28.3457C15.6871 28.3457 15.4941 28.5387 15.4941 28.7768C15.4941 29.0148 15.6871 29.2078 15.9252 29.2078Z" fill="#FFE15A"/>
<path d="M19.0268 25.3789V26.1213C19.0268 26.4283 18.777 26.6781 18.4699 26.6781C18.1629 26.6781 17.9131 26.4283 17.9131 26.1213V25.3789H19.0268Z" fill="#41479B"/>
<path d="M19.0268 23.6191V24.3615C19.0268 24.6686 18.777 24.9184 18.4699 24.9184C18.1629 24.9184 17.9131 24.6686 17.9131 24.3615V23.6191H19.0268Z" fill="#41479B"/>
<path d="M19.0268 27.1562V27.8986C19.0268 28.2057 18.777 28.4555 18.4699 28.4555C18.1629 28.4555 17.9131 28.2057 17.9131 27.8986V27.1562H19.0268Z" fill="#41479B"/>
<path d="M20.5258 25.3789V26.1213C20.5258 26.4283 20.276 26.6781 19.9689 26.6781C19.6619 26.6781 19.4121 26.4283 19.4121 26.1213V25.3789H20.5258Z" fill="#41479B"/>
<path d="M17.5268 25.3789V26.1213C17.5268 26.4283 17.277 26.6781 16.9699 26.6781C16.6629 26.6781 16.4131 26.4283 16.4131 26.1213V25.3789H17.5268Z" fill="#41479B"/>
</g>
<defs>
<clipPath id="clip0_3462_29916">
<rect width="50" height="50" fill="white" transform="translate(0.359375 0.597656)"/>
</clipPath>
</defs>
</svg>
