<svg width="51" height="51" viewBox="0 0 51 51" fill="none" xmlns="http://www.w3.org/2000/svg">
<g clip-path="url(#clip0_3462_29907)">
<path d="M50.789 15.7706H0.789062V10.0809C0.789062 9.60478 1.1751 9.21875 1.65117 9.21875H49.927C50.403 9.21875 50.7891 9.60478 50.7891 10.0809L50.789 15.7706Z" fill="#FF4B55"/>
<path d="M50.789 15.7715H0.789062V22.3232H50.789V15.7715Z" fill="#F5F5F5"/>
<path d="M50.789 22.3223H0.789062V28.874H50.789V22.3223Z" fill="#FF4B55"/>
<path d="M49.9269 41.9775H1.65117C1.1751 41.9775 0.789062 41.5915 0.789062 41.1154V35.4258H50.789V41.1154C50.789 41.5916 50.4029 41.9775 49.9269 41.9775Z" fill="#FF4B55"/>
<path d="M50.789 28.875H0.789062V35.4267H50.789V28.875Z" fill="#F5F5F5"/>
<path d="M1.10703 41.7695L24.9684 26.1361C25.3557 25.8823 25.3557 25.3146 24.9684 25.061L1.10703 9.42773C0.91709 9.58584 0.789062 9.81494 0.789062 10.0813V41.1158C0.789062 41.3823 0.91709 41.6114 1.10703 41.7695Z" fill="#41479B"/>
<path d="M9.59627 21.596L10.496 24.2935L13.3395 24.3156C13.7076 24.3184 13.8603 24.7883 13.5642 25.007L11.2767 26.6963L12.1344 29.4075C12.2456 29.7585 11.8459 30.0489 11.5463 29.8347L9.23279 28.1812L6.91932 29.8347C6.61991 30.0489 6.2202 29.7585 6.33114 29.4075L7.18885 26.6963L4.90136 25.007C4.60527 24.7883 4.7578 24.3185 5.12607 24.3156L7.96961 24.2935L8.86932 21.596C8.98582 21.2467 9.47977 21.2467 9.59627 21.596Z" fill="#F5F5F5"/>
</g>
<defs>
<clipPath id="clip0_3462_29907">
<rect width="50" height="50" fill="white" transform="translate(0.789062 0.597656)"/>
</clipPath>
</defs>
</svg>
