<svg width="51" height="51" viewBox="0 0 51 51" fill="none" xmlns="http://www.w3.org/2000/svg">
<g clip-path="url(#clip0_3462_29904)">
<path d="M23.3598 41.9774H0.946092C0.470019 41.9774 0.0839844 41.5914 0.0839844 41.1153V10.0809C0.0839844 9.60478 0.470019 9.21875 0.946092 9.21875H23.3598V41.9774Z" fill="#F5F5F5"/>
<path d="M49.2216 9.21875H16.4287C16.4515 9.21875 16.4741 9.22207 16.496 9.22891L21.7095 10.8219C21.9266 10.8882 21.9265 11.1957 21.7093 11.2618L17.1844 12.6395C16.9671 12.7058 16.967 13.0132 17.1842 13.0795L21.7096 14.4625C21.9266 14.5288 21.9266 14.8363 21.7094 14.9023L17.1844 16.2802C16.9671 16.3464 16.967 16.6538 17.1842 16.7201L21.7096 18.1031C21.9266 18.1694 21.9266 18.4769 21.7094 18.543L17.1857 19.9202C16.9684 19.9865 16.9684 20.2941 17.1857 20.3602L21.7094 21.7375C21.9266 21.8037 21.9267 22.1111 21.7096 22.1774L17.1842 23.5604C16.9671 23.6268 16.9672 23.9343 17.1844 24.0004L21.7094 25.3781C21.9266 25.4441 21.9267 25.7517 21.7096 25.818L17.1842 27.201C16.9671 27.2674 16.9672 27.5749 17.1844 27.641L21.7094 29.0187C21.9266 29.0847 21.9267 29.3923 21.7096 29.4586L17.1842 30.8416C16.9671 30.908 16.9672 31.2155 17.1844 31.2815L21.7093 32.6593C21.9266 32.7253 21.9266 33.033 21.7095 33.0992L17.1842 34.4821C16.9671 34.5485 16.9672 34.8559 17.1844 34.922L21.708 36.2995C21.9254 36.3655 21.9254 36.6733 21.708 36.7393L17.1844 38.1167C16.9671 38.1828 16.967 38.4904 17.1842 38.5566L21.7096 39.9396C21.9266 40.0059 21.9266 40.3134 21.7094 40.3794L16.4959 41.9668C16.4742 41.9735 16.4516 41.9769 16.4289 41.9769H49.2217C49.6978 41.9769 50.0838 41.5909 50.0838 41.1148V10.0808C50.0837 9.60469 49.6977 9.21875 49.2216 9.21875Z" fill="#873250"/>
</g>
<defs>
<clipPath id="clip0_3462_29904">
<rect width="50" height="50" fill="white" transform="translate(0.0820312 0.597656)"/>
</clipPath>
</defs>
</svg>
