<svg width="51" height="51" viewBox="0 0 51 51" fill="none" xmlns="http://www.w3.org/2000/svg">
<g clip-path="url(#clip0_3462_29901)">
<path d="M49.6505 41.9773H1.3748C0.89873 41.9773 0.512695 41.5913 0.512695 41.1152V10.0809C0.512695 9.60478 0.89873 9.21875 1.3748 9.21875H49.6506C50.1267 9.21875 50.5127 9.60478 50.5127 10.0809V41.1152C50.5126 41.5913 50.1266 41.9773 49.6505 41.9773Z" fill="#F5F5F5"/>
<path d="M47.6381 14.4091C47.471 14.3501 47.285 14.4369 47.2256 14.6061C47.0122 15.2084 46.7811 15.7483 46.5416 16.2584C45.9323 16.8612 45.1736 17.3108 44.4413 17.4439C43.256 17.6595 42.6813 18.2342 42.6813 18.2342C40.598 17.6235 40.2028 18.7729 39.7358 19.2759C39.4742 19.5574 39.1352 19.6552 38.8296 19.6583C37.7139 19.0498 36.9623 18.308 36.9484 18.2941C36.823 18.167 36.6175 18.1661 36.4912 18.2917C36.3641 18.4171 36.3632 18.6218 36.4888 18.7488C36.5834 18.8446 38.4005 20.6457 40.7317 21.0201C40.055 21.2193 39.5564 21.3591 39.5564 21.3591C39.5564 21.3591 38.8021 21.3591 36.5392 23.191C34.2763 25.0229 32.6957 25.2025 31.6901 25.1667C30.6842 25.1308 29.9299 24.7716 28.8524 25.5977C27.7748 26.4239 26.374 26.2803 25.5119 26.2803C24.6497 26.2803 23.249 26.4239 22.1713 25.5977C21.0937 24.7716 20.3394 25.1308 19.3336 25.1667C18.328 25.2025 16.7474 25.023 14.4845 23.191C12.2216 21.359 11.4674 21.3591 11.4674 21.3591C11.4674 21.3591 10.9686 21.2193 10.292 21.0201C12.6231 20.6457 14.4402 18.8446 14.5349 18.7488C14.6603 18.6217 14.6595 18.4172 14.5325 18.2917C14.4062 18.1663 14.2008 18.1671 14.0754 18.2941C14.0614 18.3078 13.3098 19.0496 12.1941 19.6583C11.8885 19.6552 11.5495 19.5574 11.288 19.2759C10.821 18.7729 10.4258 17.6235 8.34246 18.2342C8.34246 18.2342 7.76775 17.6595 6.5824 17.4439C5.85017 17.3108 5.09139 16.8612 4.48211 16.2584C4.24276 15.7482 4.0116 15.2084 3.79813 14.6061C3.73875 14.4369 3.55272 14.3501 3.38563 14.4091C3.21717 14.4689 3.12879 14.6532 3.18866 14.8216C3.1951 14.8397 3.20252 14.8553 3.20907 14.8735C3.24051 15.0389 3.89637 18.3472 6.295 20.6409C7.98435 22.2562 9.62273 24.7211 10.318 26.1007C12.5809 30.5906 16.8913 36.6251 25.512 36.6251C34.1326 36.6251 38.4429 30.5906 40.7059 26.1007C41.4013 24.7211 43.0396 22.2561 44.7289 20.6409C47.1275 18.3473 47.7833 15.0389 47.8148 14.8735C47.8213 14.8554 47.8287 14.8398 47.8353 14.8216C47.8948 14.6533 47.8064 14.4689 47.6381 14.4091Z" fill="#FF4B55"/>
</g>
<defs>
<clipPath id="clip0_3462_29901">
<rect width="50" height="50" fill="white" transform="translate(0.511719 0.597656)"/>
</clipPath>
</defs>
</svg>
