<svg width="51" height="51" viewBox="0 0 51 51" fill="none" xmlns="http://www.w3.org/2000/svg">
<g clip-path="url(#clip0_3462_29889)">
<path d="M49.9444 41.9773H1.66875C1.19268 41.9773 0.806641 41.5913 0.806641 41.1152V10.0809C0.806641 9.60478 1.19268 9.21875 1.66875 9.21875H49.9445C50.4206 9.21875 50.8066 9.60478 50.8066 10.0809V41.1153C50.8065 41.5914 50.4205 41.9773 49.9444 41.9773Z" fill="#FF4B55"/>
<path d="M22.8516 22.4745C22.851 22.4749 22.8505 22.4754 22.85 22.4758L10.2906 9.21875H1.67002C1.46045 9.21875 1.27539 9.30273 1.12598 9.42715L22.2064 23.2384C22.3906 22.9578 22.6088 22.7044 22.8516 22.4745Z" fill="#FFE15A"/>
<path d="M21.5418 26.0395C21.5265 25.8923 21.4972 25.7492 21.4972 25.5979C21.4972 25.4467 21.5265 25.3036 21.5418 25.1563V25.1565L0.807617 23.0117V28.1842L21.5418 26.0392V26.0395Z" fill="#FFE15A"/>
<path d="M25.1379 21.3552C25.3577 21.3206 25.5784 21.2877 25.8079 21.2877C26.0374 21.2877 26.2581 21.3207 26.4779 21.3552H26.4778L28.3941 9.21875H23.2217L25.1379 21.3552Z" fill="#FFE15A"/>
<path d="M29.4089 23.2384L50.4894 9.42715C50.3399 9.30273 50.1549 9.21875 49.9454 9.21875H41.3247L28.7653 22.4759C28.7647 22.4755 28.7643 22.475 28.7637 22.4746C29.0064 22.7044 29.2247 22.9578 29.4089 23.2384Z" fill="#FFE15A"/>
<path d="M28.7637 28.721C28.7642 28.7206 28.7647 28.7201 28.7653 28.7197L41.3247 41.9768H49.9454C50.1549 41.9768 50.34 41.8928 50.4894 41.7684L29.4089 27.957C29.2247 28.2377 29.0064 28.4912 28.7637 28.721Z" fill="#FFE15A"/>
<path d="M30.0732 25.1566V25.1564C30.0885 25.3036 30.1178 25.4468 30.1178 25.598C30.1178 25.7493 30.0885 25.8924 30.0732 26.0396V26.0394L50.8074 28.1842V23.0117L30.0732 25.1566Z" fill="#FFE15A"/>
<path d="M26.4779 29.8418C26.2581 29.8763 26.0374 29.9093 25.8079 29.9093C25.5784 29.9093 25.3577 29.8763 25.1379 29.8418H25.138L23.2217 41.9782H28.3941L26.4779 29.8418Z" fill="#FFE15A"/>
<path d="M22.2065 27.957L1.12598 41.7684C1.27539 41.8928 1.46045 41.9768 1.67002 41.9768H10.2907L22.8501 28.7197C22.8506 28.7201 22.8511 28.7206 22.8517 28.721C22.6089 28.4912 22.3907 28.2377 22.2065 27.957Z" fill="#FFE15A"/>
<path d="M25.8076 29.0469C27.712 29.0469 29.2558 27.503 29.2558 25.5986C29.2558 23.6942 27.712 22.1504 25.8076 22.1504C23.9032 22.1504 22.3594 23.6942 22.3594 25.5986C22.3594 27.503 23.9032 29.0469 25.8076 29.0469Z" fill="#FFE15A"/>
</g>
<defs>
<clipPath id="clip0_3462_29889">
<rect width="50" height="50" fill="white" transform="translate(0.804688 0.597656)"/>
</clipPath>
</defs>
</svg>
