<svg width="51" height="51" viewBox="0 0 51 51" fill="none" xmlns="http://www.w3.org/2000/svg">
<g clip-path="url(#clip0_3462_29885)">
<path d="M49.7587 8.64648H35.9656L0.884766 41.1604C1.03994 41.3106 1.24971 41.4051 1.48281 41.4051H15.2759L50.3568 8.89121C50.2017 8.74082 49.9918 8.64648 49.7587 8.64648Z" fill="#FFE15A"/>
<path d="M35.9659 8.64648H1.4832C1.00713 8.64648 0.621094 9.03242 0.621094 9.5085V40.543C0.621094 40.7859 0.72334 41.0036 0.885059 41.1604L35.9659 8.64648Z" fill="#73AF00"/>
<path d="M50.3572 8.89062L15.2764 41.4045H49.7591C50.2352 41.4045 50.6212 41.0185 50.6212 40.5424V9.50791C50.6212 9.26484 50.5189 9.04727 50.3572 8.89062Z" fill="#FF4B55"/>
</g>
<defs>
<clipPath id="clip0_3462_29885">
<rect width="50" height="50" fill="white" transform="translate(0.621094 0.0253906)"/>
</clipPath>
</defs>
</svg>
