<svg width="51" height="51" viewBox="0 0 51 51" fill="none" xmlns="http://www.w3.org/2000/svg">
<g clip-path="url(#clip0_3462_29868)">
<path d="M50.6386 25.0258H0.638672V9.50859C0.638672 9.03252 1.02471 8.64648 1.50078 8.64648H49.7766C50.2526 8.64648 50.6387 9.03252 50.6387 9.50859L50.6386 25.0258Z" fill="#4173CD"/>
<path d="M0.638672 25.0254H50.6386V40.5427C50.6386 41.0187 50.2525 41.4048 49.7765 41.4048H1.50078C1.02471 41.4048 0.638672 41.0187 0.638672 40.5427V25.0254Z" fill="#4173CD"/>
<path d="M50.6376 25.0254H0.637695V33.2148H50.6376V25.0254Z" fill="#FFE15A"/>
<path d="M1.4998 41.4045H49.7756C50.2517 41.4045 50.6377 41.0184 50.6377 40.5424V33.2148H0.637695V40.5424C0.637695 41.0185 1.02373 41.4045 1.4998 41.4045Z" fill="#73AF00"/>
<path d="M45.3847 17.4208L48.9135 16.8366L45.3847 16.2524L48.4213 14.3624L44.9377 15.173L47.0198 12.2648L44.1116 14.347L44.9222 10.8634L43.0322 13.8999L42.4479 10.3711L41.8638 13.8998L39.9737 10.8633L40.7844 14.3469L37.8762 12.2647L39.9583 15.1729L36.4747 14.3623L39.5112 16.2523L35.9824 16.8366L39.5111 17.4208L36.4746 19.3108L39.9582 18.5002L37.8761 21.4084L40.7843 19.3263L39.9736 22.8098L41.8637 19.7733L42.4479 23.3021L43.0321 19.7734L44.9222 22.8099L44.1115 19.3263L47.0197 21.4085L44.9376 18.5003L48.4212 19.3109L45.3847 17.4208ZM42.4479 18.9918C41.2576 18.9918 40.2928 18.0269 40.2928 16.8366C40.2928 15.6463 41.2576 14.6814 42.4479 14.6814C43.6383 14.6814 44.6031 15.6463 44.6031 16.8366C44.6031 18.0269 43.6383 18.9918 42.4479 18.9918Z" fill="#FFE15A"/>
<path d="M42.4484 18.4535C43.3412 18.4535 44.0648 17.7298 44.0648 16.8371C44.0648 15.9444 43.3412 15.2207 42.4484 15.2207C41.5557 15.2207 40.832 15.9444 40.832 16.8371C40.832 17.7298 41.5557 18.4535 42.4484 18.4535Z" fill="#FFE15A"/>
</g>
<defs>
<clipPath id="clip0_3462_29868">
<rect width="50" height="50" fill="white" transform="translate(0.636719 0.0253906)"/>
</clipPath>
</defs>
</svg>
