<svg width="51" height="51" viewBox="0 0 51 51" fill="none" xmlns="http://www.w3.org/2000/svg">
<g clip-path="url(#clip0_3462_29863)">
<path d="M49.2042 41.4047H0.928514C0.452441 41.4047 0.0664062 41.0186 0.0664062 40.5426V25.0254H50.0663V40.5426C50.0663 41.0187 49.6803 41.4047 49.2042 41.4047Z" fill="#41479B"/>
<path d="M0.928514 8.64648H49.2043C49.6804 8.64648 50.0664 9.03252 50.0664 9.50859V25.0258H0.0664062V9.50859C0.0664062 9.03252 0.452441 8.64648 0.928514 8.64648Z" fill="#FF4B55"/>
<path d="M25.0663 8.64648L0.0664062 25.0257L25.0663 41.405L50.0663 25.0257L25.0663 8.64648Z" fill="#F5F5F5"/>
<path d="M25.3247 15.5238L27.3941 21.4771L33.6955 21.6055C33.9548 21.6108 34.062 21.9405 33.8552 22.0972L28.8327 25.9049L30.6578 31.9376C30.7329 32.1859 30.4525 32.3897 30.2394 32.2415L25.0661 28.6414L19.8926 32.2414C19.6796 32.3896 19.3992 32.1859 19.4743 31.9375L21.2994 25.9048L16.2768 22.0971C16.07 21.9403 16.1771 21.6107 16.4366 21.6054L22.738 21.477L24.8074 15.5237C24.8928 15.2786 25.2395 15.2786 25.3247 15.5238Z" fill="#FFE15A"/>
</g>
<defs>
<clipPath id="clip0_3462_29863">
<rect width="50" height="50" fill="white" transform="translate(0.0664062 0.0253906)"/>
</clipPath>
</defs>
</svg>
