<svg width="51" height="51" viewBox="0 0 51 51" fill="none" xmlns="http://www.w3.org/2000/svg">
<g clip-path="url(#clip0_3462_29855)">
<path d="M50.3603 19.5661H0.360352V9.50859C0.360352 9.03252 0.746386 8.64648 1.22246 8.64648H49.4982C49.9743 8.64648 50.3604 9.03252 50.3604 9.50859L50.3603 19.5661Z" fill="#464655"/>
<path d="M49.4981 41.4039H1.22246C0.746386 41.4039 0.360352 41.0179 0.360352 40.5418V30.4844H50.3603V40.5418C50.3603 41.0179 49.9742 41.4039 49.4981 41.4039Z" fill="#73AF00"/>
<path d="M50.3603 19.5645H0.360352V30.4834H50.3603V19.5645Z" fill="#F5F5F5"/>
<path d="M0.680273 41.1953L20.4889 25.4712C20.7766 25.2428 20.7766 24.8059 20.4889 24.5775L0.680273 8.85352C0.490332 9.01162 0.362305 9.24072 0.362305 9.50713V40.5415C0.362305 40.808 0.490332 41.0371 0.680273 41.1953Z" fill="#FF4B55"/>
<path d="M26.2366 25.0253C26.2366 23.0589 27.5209 21.3931 29.2962 20.8195C29.3982 20.7865 29.3849 20.6371 29.2782 20.6267C28.9374 20.5932 28.5853 20.5985 28.2257 20.6489C26.1403 20.9415 24.5316 22.705 24.431 24.8083C24.3097 27.3479 26.3327 29.445 28.8456 29.445C28.991 29.445 29.1346 29.4378 29.2763 29.424C29.3834 29.4136 29.3974 29.2638 29.2949 29.2307C27.5203 28.6567 26.2366 26.9911 26.2366 25.0253Z" fill="#FF4B55"/>
<path d="M29.9891 22.1202L29.4085 23.8614L27.573 23.8757C27.3354 23.8775 27.2368 24.1808 27.428 24.3219L28.9045 25.4122L28.3508 27.1622C28.2791 27.3889 28.5371 27.5762 28.7304 27.438L30.2235 26.3706L31.7167 27.438C31.91 27.5762 32.1679 27.3888 32.0963 27.1622L31.5426 25.4122L33.019 24.3219C33.2102 24.1807 33.1117 23.8774 32.874 23.8757L31.0386 23.8614L30.4579 22.1202C30.3833 21.8948 30.0644 21.8948 29.9891 22.1202Z" fill="#FF4B55"/>
</g>
<defs>
<clipPath id="clip0_3462_29855">
<rect width="50" height="50" fill="white" transform="translate(0.359375 0.0253906)"/>
</clipPath>
</defs>
</svg>
