<svg width="51" height="51" viewBox="0 0 51 51" fill="none" xmlns="http://www.w3.org/2000/svg">
<g clip-path="url(#clip0_3462_29845)">
<path d="M49.9269 41.405H1.65117C1.1751 41.405 0.789062 41.019 0.789062 40.5429V9.50859C0.789062 9.03252 1.1751 8.64648 1.65117 8.64648H49.927C50.403 8.64648 50.7891 9.03252 50.7891 9.50859V40.5429C50.789 41.0191 50.4029 41.405 49.9269 41.405Z" fill="#73AF00"/>
<path d="M37.4185 8.64648L0.789062 32.645V35.2216L41.351 8.64648H37.4185Z" fill="#FFE15A"/>
<path d="M50.7896 17.4067V14.8301L10.2275 41.4052H14.1601L50.7896 17.4067Z" fill="#FFE15A"/>
<path d="M50.789 14.8299V9.50859C50.789 9.03252 50.4029 8.64648 49.9269 8.64648H41.351L0.789062 35.2216V40.5429C0.789062 41.019 1.1751 41.405 1.65117 41.405H10.227L50.789 14.8299Z" fill="#464655"/>
<path d="M16.0254 26.9675L17.7948 28.3923L19.7157 27.1794C19.9644 27.0223 20.2699 27.2722 20.1651 27.5471L19.3568 29.6702L21.1039 31.1222C21.3301 31.3103 21.1868 31.6779 20.8931 31.6634L18.6241 31.5507L17.783 33.6611C17.674 33.9342 17.2801 33.9118 17.2031 33.6278L16.6092 31.435L14.3423 31.2872C14.0487 31.268 13.9485 30.8863 14.1947 30.7254L16.0966 29.4829L15.5366 27.2811C15.4644 26.9962 15.7964 26.7829 16.0254 26.9675Z" fill="#F5F5F5"/>
<path d="M32.333 16.2643L34.1024 17.6891L36.0233 16.4762C36.2721 16.3191 36.5775 16.569 36.4727 16.8439L35.6644 18.967L37.4115 20.419C37.6377 20.6071 37.4944 20.9747 37.2007 20.9602L34.9317 20.8475L34.0906 22.9579C33.9816 23.231 33.5877 23.2085 33.5107 22.9246L32.9168 20.7318L30.6499 20.584C30.3564 20.5648 30.2562 20.1831 30.5023 20.0223L32.4042 18.7797L31.8442 16.5779C31.7719 16.2932 32.1039 16.0798 32.333 16.2643Z" fill="#F5F5F5"/>
<path d="M50.7897 40.5426V17.4062L14.1602 41.4047H49.9275C50.4037 41.4047 50.7897 41.0188 50.7897 40.5426Z" fill="#FF4B55"/>
</g>
<defs>
<clipPath id="clip0_3462_29845">
<rect width="50" height="50" fill="white" transform="translate(0.789062 0.0253906)"/>
</clipPath>
</defs>
</svg>
