<svg width="51" height="51" viewBox="0 0 51 51" fill="none" xmlns="http://www.w3.org/2000/svg">
<g clip-path="url(#clip0_3462_29836)">
<path d="M49.2218 41.4051H0.946092C0.470019 41.4051 0.0839844 41.0191 0.0839844 40.543V9.50859C0.0839844 9.03252 0.470019 8.64648 0.946092 8.64648H49.2219C49.698 8.64648 50.084 9.03252 50.084 9.50859V40.543C50.0839 41.0192 49.6979 41.4051 49.2218 41.4051Z" fill="#FF4B55"/>
<path d="M0.946092 8.64648H24.2219C24.698 8.64648 25.084 9.03252 25.084 9.50859V24.1637C25.084 24.6398 24.698 25.0258 24.2219 25.0258H0.946092C0.470019 25.0257 0.0839844 24.6397 0.0839844 24.1636V9.50849C0.0839844 9.03242 0.470019 8.64648 0.946092 8.64648Z" fill="#41479B"/>
<path d="M12.367 19.3223L11.9712 20.5089L10.7203 20.5186C10.5584 20.5199 10.4912 20.7266 10.6215 20.8227L11.6277 21.5658L11.2505 22.7583C11.2016 22.9127 11.3774 23.0405 11.5092 22.9462L12.5268 22.2189L13.5445 22.9462C13.6763 23.0404 13.852 22.9127 13.8032 22.7583L13.4259 21.5658L14.4322 20.8227C14.5625 20.7265 14.4954 20.5198 14.3334 20.5186L13.0825 20.5089L12.6867 19.3223C12.6354 19.1686 12.4182 19.1686 12.367 19.3223Z" fill="#F5F5F5"/>
<path d="M12.3982 10.0698L12.0781 11.0298L11.0662 11.0377C10.9352 11.0386 10.8809 11.2058 10.9863 11.2837L11.8002 11.8847L11.4951 12.8495C11.4555 12.9744 11.5978 13.0777 11.7043 13.0015L12.5275 12.4132L13.3506 13.0015C13.4572 13.0777 13.5994 12.9744 13.5599 12.8495L13.2547 11.8847L14.0687 11.2837C14.1741 11.2058 14.1198 11.0386 13.9887 11.0377L12.9769 11.0298L12.6568 10.0698C12.6154 9.94548 12.4397 9.94548 12.3982 10.0698Z" fill="#F5F5F5"/>
<path d="M17.5163 12.9253L17.1962 13.8853L16.1844 13.8932C16.0534 13.8942 15.9991 14.0614 16.1044 14.1392L16.9184 14.7403L16.6132 15.705C16.5737 15.8299 16.7159 15.9332 16.8225 15.8571L17.6456 15.2687L18.4688 15.8571C18.5753 15.9332 18.7176 15.8299 18.6781 15.705L18.3729 14.7403L19.1868 14.1392C19.2922 14.0614 19.2379 13.8942 19.1069 13.8932L18.095 13.8853L17.7749 12.9253C17.7335 12.8009 17.5578 12.8009 17.5163 12.9253Z" fill="#F5F5F5"/>
<path d="M7.38743 14.0561L7.06731 15.0161L6.0555 15.024C5.92445 15.025 5.87015 15.1922 5.97552 15.27L6.78948 15.8711L6.48431 16.8358C6.44476 16.9607 6.58704 17.064 6.69358 16.9879L7.51673 16.3995L8.33987 16.9879C8.44641 17.064 8.5887 16.9607 8.54915 16.8358L8.24397 15.8711L9.05793 15.27C9.16331 15.1922 9.10901 15.025 8.97795 15.024L7.96614 15.0161L7.64602 14.0561C7.60462 13.9318 7.42884 13.9318 7.38743 14.0561Z" fill="#F5F5F5"/>
<path d="M15.3101 17.191L15.1304 17.7299L14.5624 17.7343C14.4889 17.7349 14.4584 17.8287 14.5176 17.8725L14.9745 18.2099L14.8032 18.7515C14.781 18.8216 14.8608 18.8796 14.9207 18.8368L15.3828 18.5066L15.8449 18.8368C15.9047 18.8796 15.9846 18.8216 15.9624 18.7515L15.7911 18.2099L16.248 17.8725C16.3072 17.8288 16.2767 17.735 16.2032 17.7343L15.6352 17.7299L15.4555 17.191C15.4321 17.1212 15.3334 17.1212 15.3101 17.191Z" fill="#F5F5F5"/>
</g>
<defs>
<clipPath id="clip0_3462_29836">
<rect width="50" height="50" fill="white" transform="translate(0.0820312 0.0253906)"/>
</clipPath>
</defs>
</svg>
