<svg width="51" height="51" viewBox="0 0 51 51" fill="none" xmlns="http://www.w3.org/2000/svg">
<g clip-path="url(#clip0_3462_29764)">
<path d="M50.5126 25.0259H0.512695V9.50859C0.512695 9.03252 0.89873 8.64648 1.3748 8.64648H49.6506C50.1267 8.64648 50.5127 9.03252 50.5127 9.50859L50.5126 25.0259Z" fill="#F5F5F5"/>
<path d="M0.512695 25.0254H50.5126V40.5427C50.5126 41.0187 50.1266 41.4048 49.6505 41.4048H1.3748C0.89873 41.4048 0.512695 41.0187 0.512695 40.5427V25.0254Z" fill="#82AFFF"/>
<path d="M25.5922 32.0554C25.4462 32.049 21.9993 31.8727 20.2695 29.5026C19.2613 28.1216 19.0601 26.2847 19.6715 24.043L19.9185 24.1104C19.3288 26.2727 19.5161 28.0356 20.4755 29.3508C22.1316 31.6212 25.5687 31.798 25.6034 31.7995L25.5922 32.0554Z" fill="#B46446"/>
<path d="M19.668 23.0488C19.4981 23.4915 19.5369 23.9551 19.7336 24.3064C20.1151 24.177 20.454 23.8585 20.6241 23.4158C20.794 22.9731 20.7552 22.5096 20.5584 22.1582C20.1769 22.2876 19.8379 22.6061 19.668 23.0488Z" fill="#41AA5A"/>
<path d="M21.8278 29.168C21.6392 29.4792 21.5896 29.8965 21.7295 30.3016C21.86 30.6801 22.1293 30.9593 22.4414 31.1002C22.1382 30.9412 21.7525 30.9015 21.374 31.032C20.9689 31.1717 20.6709 31.4679 20.542 31.8082C20.8532 31.9968 21.2704 32.0464 21.6756 31.9065C22.0807 31.7669 22.3787 31.4707 22.5076 31.1304L22.5072 31.1302C22.6943 30.8193 22.7434 30.4037 22.6041 30C22.4644 29.5949 22.1683 29.2968 21.8278 29.168Z" fill="#41AA5A"/>
<path d="M21.0895 28.0391C20.7985 28.2575 20.597 28.6263 20.5756 29.0542C20.5556 29.4541 20.7014 29.8136 20.9384 30.0606C20.7162 29.8001 20.3731 29.6193 19.9735 29.5993C19.5456 29.5778 19.1586 29.7416 18.9121 30.0094C19.1306 30.3004 19.4993 30.5019 19.9271 30.5233C20.3551 30.5448 20.7421 30.381 20.9886 30.1133C20.9885 30.1132 20.9884 30.1131 20.9884 30.1131C21.2777 29.8942 21.4781 29.5269 21.4996 29.1004C21.521 28.6725 21.3573 28.2854 21.0895 28.0391Z" fill="#41AA5A"/>
<path d="M20.7698 26.7656C20.4179 26.8581 20.092 27.1235 19.9107 27.5116C19.7412 27.8744 19.7406 28.2623 19.8669 28.5806C19.7595 28.2555 19.5101 27.9586 19.1474 27.7892C18.7591 27.6078 18.339 27.6133 18.0098 27.7683C18.1022 28.1202 18.3677 28.4461 18.7558 28.6273C19.144 28.8087 19.5642 28.8032 19.8934 28.6482C19.8934 28.6482 19.8933 28.6479 19.8932 28.6479C20.2438 28.5545 20.5681 28.2899 20.7487 27.9031C20.9303 27.5152 20.9249 27.0948 20.7698 26.7656Z" fill="#41AA5A"/>
<path d="M20.9511 25.5023C20.5889 25.4663 20.191 25.6016 19.8859 25.9023C19.6006 26.1834 19.4648 26.5468 19.4723 26.889C19.4849 26.547 19.3545 26.1817 19.0736 25.8966C18.7728 25.5913 18.3771 25.4501 18.0145 25.4806C17.9784 25.8429 18.1137 26.2405 18.4145 26.5459C18.7153 26.8513 19.111 26.9924 19.4736 26.9618C19.4736 26.9618 19.4736 26.9615 19.4736 26.9612C19.8348 26.9959 20.2309 26.861 20.5351 26.5613C20.8405 26.2607 20.9817 25.8649 20.9511 25.5023Z" fill="#41AA5A"/>
<path d="M21.2074 24.2982C20.8562 24.2027 20.4414 24.2704 20.0907 24.5164C19.7628 24.7464 19.5688 25.0822 19.5196 25.4212C19.5886 25.0858 19.5205 24.7042 19.2907 24.3765C19.0447 24.0257 18.6778 23.8209 18.315 23.791C18.2195 24.1422 18.2872 24.5569 18.5332 24.9077C18.7791 25.2585 19.146 25.4633 19.5088 25.4932C19.5088 25.493 19.5088 25.4929 19.5088 25.4929C19.8592 25.5867 20.2723 25.5191 20.6219 25.2739C20.9727 25.0278 21.1775 24.6609 21.2074 24.2982Z" fill="#41AA5A"/>
<path d="M21.3087 31.2014C21.456 31.2014 21.5754 31.082 21.5754 30.9347C21.5754 30.7874 21.456 30.668 21.3087 30.668C21.1614 30.668 21.042 30.7874 21.042 30.9347C21.042 31.082 21.1614 31.2014 21.3087 31.2014Z" fill="#FFE15A"/>
<path d="M22.5343 31.3498C22.6816 31.3498 22.801 31.2304 22.801 31.0831C22.801 30.9358 22.6816 30.8164 22.5343 30.8164C22.387 30.8164 22.2676 30.9358 22.2676 31.0831C22.2676 31.2304 22.387 31.3498 22.5343 31.3498Z" fill="#FFE15A"/>
<path d="M20.6046 29.1857C20.7519 29.1857 20.8713 29.0663 20.8713 28.919C20.8713 28.7717 20.7519 28.6523 20.6046 28.6523C20.4573 28.6523 20.3379 28.7717 20.3379 28.919C20.3379 29.0663 20.4573 29.1857 20.6046 29.1857Z" fill="#FFE15A"/>
<path d="M18.9083 27.1799C19.0556 27.1799 19.175 27.0605 19.175 26.9132C19.175 26.7659 19.0556 26.6465 18.9083 26.6465C18.761 26.6465 18.6416 26.7659 18.6416 26.9132C18.6416 27.0605 18.761 27.1799 18.9083 27.1799Z" fill="#FFE15A"/>
<path d="M20.0929 25.8225C20.2402 25.8225 20.3596 25.7031 20.3596 25.5558C20.3596 25.4085 20.2402 25.2891 20.0929 25.2891C19.9456 25.2891 19.8262 25.4085 19.8262 25.5558C19.8262 25.7031 19.9456 25.8225 20.0929 25.8225Z" fill="#FFE15A"/>
<path d="M19.6437 24.4299C19.7909 24.4299 19.9104 24.3105 19.9104 24.1632C19.9104 24.0159 19.7909 23.8965 19.6437 23.8965C19.4964 23.8965 19.377 24.0159 19.377 24.1632C19.377 24.3105 19.4964 24.4299 19.6437 24.4299Z" fill="#FFE15A"/>
<path d="M25.603 32.0536L25.5918 31.7975C25.6265 31.7963 29.0637 31.6192 30.7197 29.3488C31.6791 28.0339 31.8664 26.2708 31.2767 24.1084L31.5237 24.041C32.135 26.2827 31.9339 28.1197 30.9258 29.5007C29.196 31.871 25.7491 32.0473 25.603 32.0536Z" fill="#B46446"/>
<path d="M31.5245 23.0488C31.6944 23.4915 31.6556 23.9551 31.4588 24.3064C31.0774 24.177 30.7384 23.8585 30.5684 23.4158C30.3985 22.9731 30.4373 22.5096 30.634 22.1582C31.0155 22.2876 31.3544 22.6061 31.5245 23.0488Z" fill="#41AA5A"/>
<path d="M29.3659 29.168C29.5545 29.4792 29.6041 29.8965 29.4642 30.3016C29.3337 30.6801 29.0644 30.9593 28.7523 31.1002C29.0555 30.9412 29.4412 30.9015 29.8197 31.032C30.2248 31.1717 30.5228 31.4679 30.6517 31.8082C30.3405 31.9968 29.9233 32.0464 29.5181 31.9065C29.113 31.7669 28.815 31.4707 28.6861 31.1304C28.6862 31.1303 28.6864 31.1303 28.6864 31.1303C28.4996 30.8192 28.4505 30.4036 28.5897 30C28.7294 29.5949 29.0255 29.2968 29.3659 29.168Z" fill="#41AA5A"/>
<path d="M30.1044 28.0391C30.3954 28.2575 30.597 28.6263 30.6184 29.0542C30.6384 29.4541 30.4926 29.8136 30.2556 30.0606C30.4777 29.8001 30.8208 29.6193 31.2204 29.5993C31.6484 29.5778 32.0354 29.7416 32.2818 30.0094C32.0634 30.3004 31.6946 30.5019 31.2667 30.5233C30.8388 30.5448 30.4518 30.381 30.2053 30.1133C30.2054 30.1132 30.2055 30.1131 30.2055 30.1131C29.9161 29.8942 29.7156 29.5269 29.6943 29.1004C29.6729 28.6725 29.8366 28.2854 30.1044 28.0391Z" fill="#41AA5A"/>
<path d="M30.4234 26.7656C30.7754 26.8581 31.1012 27.1235 31.2825 27.5116C31.452 27.8744 31.4526 28.2623 31.3263 28.5806C31.4338 28.2555 31.6832 27.9586 32.0459 27.7892C32.4341 27.6078 32.8543 27.6133 33.1835 27.7683C33.091 28.1202 32.8256 28.4461 32.4375 28.6273C32.0492 28.8087 31.6291 28.8032 31.2999 28.6482C31.2999 28.6482 31.3 28.6479 31.3001 28.6479C30.9494 28.5545 30.6252 28.2899 30.4445 27.9031C30.2629 27.5152 30.2683 27.0948 30.4234 26.7656Z" fill="#41AA5A"/>
<path d="M30.2424 25.5023C30.6046 25.4663 31.0024 25.6016 31.3076 25.9023C31.5929 26.1834 31.7287 26.5468 31.7212 26.889C31.7086 26.547 31.8389 26.1817 32.1199 25.8966C32.4207 25.5913 32.8164 25.4501 33.179 25.4806C33.215 25.8429 33.0798 26.2405 32.779 26.5459C32.4782 26.8513 32.0825 26.9924 31.7199 26.9618C31.7199 26.9618 31.7199 26.9615 31.7199 26.9612C31.3587 26.9959 30.9626 26.861 30.6584 26.5613C30.353 26.2607 30.2118 25.8649 30.2424 25.5023Z" fill="#41AA5A"/>
<path d="M29.9863 24.2982C30.3375 24.2027 30.7522 24.2704 31.103 24.5164C31.4309 24.7464 31.6249 25.0822 31.6741 25.4212C31.6051 25.0858 31.6732 24.7042 31.903 24.3765C32.149 24.0257 32.5159 23.8209 32.8787 23.791C32.9742 24.1422 32.9065 24.5569 32.6605 24.9077C32.4145 25.2585 32.0477 25.4633 31.6849 25.4932C31.6849 25.493 31.6849 25.4929 31.6849 25.4929C31.3345 25.5867 30.9214 25.5191 30.5718 25.2739C30.221 25.0278 30.0162 24.6609 29.9863 24.2982Z" fill="#41AA5A"/>
<path d="M29.8858 31.2014C30.0331 31.2014 30.1525 31.082 30.1525 30.9347C30.1525 30.7874 30.0331 30.668 29.8858 30.668C29.7385 30.668 29.6191 30.7874 29.6191 30.9347C29.6191 31.082 29.7385 31.2014 29.8858 31.2014Z" fill="#FFE15A"/>
<path d="M28.6583 31.3498C28.8056 31.3498 28.925 31.2304 28.925 31.0831C28.925 30.9358 28.8056 30.8164 28.6583 30.8164C28.511 30.8164 28.3916 30.9358 28.3916 31.0831C28.3916 31.2304 28.511 31.3498 28.6583 31.3498Z" fill="#FFE15A"/>
<path d="M30.589 29.1857C30.7363 29.1857 30.8557 29.0663 30.8557 28.919C30.8557 28.7717 30.7363 28.6523 30.589 28.6523C30.4417 28.6523 30.3223 28.7717 30.3223 28.919C30.3223 29.0663 30.4417 29.1857 30.589 29.1857Z" fill="#FFE15A"/>
<path d="M32.2853 27.1799C32.4325 27.1799 32.552 27.0605 32.552 26.9132C32.552 26.7659 32.4325 26.6465 32.2853 26.6465C32.138 26.6465 32.0186 26.7659 32.0186 26.9132C32.0186 27.0605 32.138 27.1799 32.2853 27.1799Z" fill="#FFE15A"/>
<path d="M31.1017 25.8225C31.249 25.8225 31.3684 25.7031 31.3684 25.5558C31.3684 25.4085 31.249 25.2891 31.1017 25.2891C30.9544 25.2891 30.835 25.4085 30.835 25.5558C30.835 25.7031 30.9544 25.8225 31.1017 25.8225Z" fill="#FFE15A"/>
<path d="M31.5509 24.4299C31.6982 24.4299 31.8176 24.3105 31.8176 24.1632C31.8176 24.0159 31.6982 23.8965 31.5509 23.8965C31.4036 23.8965 31.2842 24.0159 31.2842 24.1632C31.2842 24.3105 31.4036 24.4299 31.5509 24.4299Z" fill="#FFE15A"/>
<path d="M27.0986 23.0957H24.0395C23.0873 23.0957 22.3154 23.8676 22.3154 24.8198V27.5146C22.3154 28.467 23.0873 29.2388 24.0395 29.2388H27.0986C28.0508 29.2388 28.8227 28.467 28.8227 27.5146V24.8198C28.8227 23.8676 28.0509 23.0957 27.0986 23.0957Z" fill="#8CD7FF"/>
<path d="M26.0739 25.4414V25.7828H25.7327V25.4414H25.4698V25.7828H25.1285V25.4414H24.915V26.1241L25.0857 26.3403V28.8548H26.1097V26.3403L26.2803 26.1241V25.4414H26.0739Z" fill="#F5F5F5"/>
<path d="M25.6476 24.3603C25.8164 24.2784 25.861 24.6235 25.861 24.6235C26.2165 24.4456 26.1238 24.157 26.0388 24.0191C25.925 23.8341 25.4699 23.763 25.278 24.1471C25.086 24.5312 25.6051 25.292 25.6051 25.292C25.6333 25.0572 25.4271 24.467 25.6476 24.3603Z" fill="#F5F5F5"/>
<path d="M27.828 26.0781V26.4195H27.4866V26.0781H27.2238V26.4195H26.8824V26.0781H26.6689V26.7609L26.8397 26.977V29.4915H27.8637V26.977L28.0343 26.7609V26.0781H27.828Z" fill="#F5F5F5"/>
<path d="M27.4025 24.997C27.5713 24.9151 27.6158 25.2602 27.6158 25.2602C27.9714 25.0823 27.8786 24.7938 27.7937 24.6558C27.6799 24.4708 27.2248 24.3997 27.0328 24.7838C26.8408 25.1679 27.36 25.9287 27.36 25.9287C27.3883 25.694 27.1822 25.1037 27.4025 24.997Z" fill="#F5F5F5"/>
<path d="M24.3192 26.0781V26.4195H23.9778V26.0781H23.715V26.4195H23.3737V26.0781H23.1602V26.7609L23.3309 26.977V29.4915H24.3549V26.977L24.5256 26.7609V26.0781H24.3192Z" fill="#F5F5F5"/>
<path d="M23.8927 24.997C24.0615 24.9151 24.1061 25.2602 24.1061 25.2602C24.4616 25.0823 24.3689 24.7938 24.2839 24.6558C24.1701 24.4708 23.7151 24.3997 23.5231 24.7838C23.3311 25.1679 23.8502 25.9287 23.8502 25.9287C23.8786 25.694 23.6724 25.1037 23.8927 24.997Z" fill="#F5F5F5"/>
<path d="M28.398 29.037C28.1701 28.9243 27.917 28.855 27.6455 28.855C27.3546 28.855 27.0849 28.9346 26.8451 29.063C26.5335 28.7271 26.0919 28.5137 25.5975 28.5137C25.103 28.5137 24.6616 28.7271 24.3498 29.063C24.1101 28.9346 23.8403 28.855 23.5494 28.855C23.2778 28.855 23.0247 28.9243 22.7969 29.037C23.2842 29.9308 24.2174 31.375 25.5975 31.9269C26.9775 31.375 27.9107 29.9308 28.398 29.037Z" fill="#6EC86E"/>
<path d="M25.585 17.5998L25.6011 17.5918C25.6011 17.5918 25.5957 17.5931 25.585 17.5998Z" fill="#FFE15A"/>
<path d="M25.5996 17.5918L25.6158 17.5998C25.6049 17.5931 25.5996 17.5918 25.5996 17.5918Z" fill="#FFE15A"/>
<path d="M28.8748 19.0528C28.7788 18.4982 28.0642 18.4021 27.2428 18.3488C26.4215 18.2955 26.0694 17.8262 26.0694 17.8262H25.1308C25.1308 17.8262 24.7787 18.2955 23.9574 18.3488C23.1361 18.4021 22.4214 18.4981 22.3254 19.0528C22.2294 19.6074 22.9334 20.4821 22.9334 20.4821L23.5521 19.9809C23.5521 19.9809 22.7947 19.2556 23.168 18.9889C23.5366 18.7255 24.6115 18.9079 25.0902 18.2757C25.07 18.4078 25.0771 18.5709 25.159 18.7719C25.3154 19.156 25.2586 19.6394 25.2586 19.6394H25.6H25.9414C25.9414 19.6394 25.8845 19.1559 26.041 18.7719C26.123 18.5709 26.1302 18.4076 26.1098 18.2757C26.5886 18.9079 27.6635 18.7255 28.032 18.9889C28.4054 19.2556 27.648 19.9809 27.648 19.9809L28.2666 20.4821C28.2668 20.4821 28.9708 19.6074 28.8748 19.0528Z" fill="#FFE15A"/>
<path d="M25.9481 15.9057H25.7703V15.7137C25.7703 15.6193 25.6939 15.543 25.5996 15.543C25.5053 15.543 25.4289 15.6193 25.4289 15.7137V15.9057H25.2439C25.1496 15.9057 25.0732 15.982 25.0732 16.0764C25.0732 16.1707 25.1496 16.2471 25.2439 16.2471H25.4289V16.7377C25.4289 16.832 25.5053 16.9084 25.5996 16.9084C25.6939 16.9084 25.7703 16.832 25.7703 16.7377V16.2471H25.9481C26.0425 16.2471 26.1188 16.1707 26.1188 16.0764C26.1188 15.982 26.0424 15.9057 25.9481 15.9057Z" fill="#FFE15A"/>
<path d="M25.5973 17.2492C25.7858 17.2492 25.9387 17.0964 25.9387 16.9078C25.9387 16.7193 25.7858 16.5664 25.5973 16.5664C25.4087 16.5664 25.2559 16.7193 25.2559 16.9078C25.2559 17.0964 25.4087 17.2492 25.5973 17.2492Z" fill="#FFF0E1"/>
<path d="M23.1512 23.7767C23.2887 23.8453 23.4492 23.9047 23.6134 23.9047C24.1789 23.9047 24.4561 23.5849 24.4561 23.0193C24.4561 22.4538 24.1149 22.0273 23.5494 22.0273C23.5494 22.0273 23.4857 22.0284 23.3835 22.044C23.3616 22.0476 23.3398 22.0509 23.3183 22.0558C22.7746 22.1595 21.4311 22.6604 21.1601 25.0993C20.7813 28.5087 23.5494 31.5846 25.5975 32.2673V31.9259C25.5974 31.926 20.7619 28.2282 23.1512 23.7767Z" fill="#FFC75A"/>
<path d="M23.5498 22.3691L25.5978 23.0519L23.5498 23.7345V22.3691Z" fill="#FFC75A"/>
<path d="M27.6456 23.7345L25.5977 23.0519L27.6456 22.3691V23.7345Z" fill="#FFE15A"/>
<path d="M21.4993 25.1373C21.7439 22.9363 22.8975 22.4838 23.3945 22.3888C23.4053 22.3863 23.4164 22.3847 23.4352 22.3816C23.4977 22.3721 23.5408 22.3694 23.5542 22.3688C23.9284 22.3714 24.1752 22.6533 24.1752 22.9946C24.1752 23.371 23.9547 23.5137 23.7344 23.5208C23.7344 23.5208 23.9122 23.151 23.5494 23.0515C23.3047 22.9842 22.9949 23.1795 23.0233 23.535C23.0433 23.7849 23.2805 24.0256 23.5494 24.0256C24.115 24.0256 24.5735 23.6169 24.5735 23.0514C24.5735 22.4858 24.115 22.0273 23.5494 22.0273C23.5494 22.0273 23.4857 22.0284 23.3835 22.044C23.3616 22.0476 23.3398 22.0509 23.3183 22.0558C22.7746 22.1595 21.4311 22.6604 21.1601 25.0993C20.7813 28.5087 23.5494 31.5846 25.5975 32.2673V31.9259C25.5975 31.9259 24.8722 31.5632 24.3763 31.2109C22.8442 30.1227 21.2228 27.6266 21.4993 25.1373Z" fill="#FFE15A"/>
<path d="M28.043 23.7767C27.9055 23.8453 27.7449 23.9047 27.5808 23.9047C27.0152 23.9047 26.7381 23.5849 26.7381 23.0193C26.7381 22.4538 27.0793 22.0273 27.6447 22.0273C27.6447 22.0273 27.7085 22.0284 27.8106 22.044C27.8326 22.0476 27.8544 22.0509 27.8759 22.0558C28.4195 22.1595 29.7631 22.6604 30.0341 25.0993C30.4129 28.5087 27.6447 31.5847 25.5967 32.2673V31.9259C25.5967 31.926 30.4322 28.2282 28.043 23.7767Z" fill="#FFC75A"/>
<path d="M27.6446 22.3691L25.5967 23.0519L27.6446 23.7345V22.3691Z" fill="#FFC75A"/>
<path d="M29.6958 25.1373C29.4513 22.9363 28.2976 22.4838 27.8007 22.3888C27.7898 22.3863 27.7787 22.3847 27.76 22.3816C27.6975 22.3721 27.6544 22.3694 27.6409 22.3688C27.2667 22.3714 27.0199 22.6533 27.0199 22.9946C27.0199 23.371 27.2404 23.5137 27.4607 23.5208C27.4607 23.5208 27.2829 23.151 27.6457 23.0515C27.8904 22.9842 28.2003 23.1795 28.1719 23.535C28.1518 23.7849 27.9146 24.0256 27.6457 24.0256C27.0802 24.0256 26.6217 23.6169 26.6217 23.0514C26.6217 22.4858 27.0802 22.0273 27.6457 22.0273C27.6457 22.0273 27.7095 22.0284 27.8116 22.044C27.8336 22.0476 27.8554 22.0509 27.8768 22.0558C28.4205 22.1595 29.7641 22.6604 30.035 25.0993C30.4139 28.5087 27.6457 31.5846 25.5977 32.2673V31.9259C25.5977 31.9259 26.3229 31.5632 26.8188 31.2109C28.3511 30.1227 29.9724 27.6266 29.6958 25.1373Z" fill="#FFE15A"/>
<path d="M25.5973 23.3937C25.7858 23.3937 25.9387 23.2409 25.9387 23.0523C25.9387 22.8638 25.7858 22.7109 25.5973 22.7109C25.4087 22.7109 25.2559 22.8638 25.2559 23.0523C25.2559 23.2409 25.4087 23.3937 25.5973 23.3937Z" fill="#FFE15A"/>
<path d="M28.035 20.3097C28.1257 20.075 28.003 19.7603 28.003 19.7603C27.6884 19.7497 27.4697 19.979 27.4697 19.979C27.4964 19.6964 27.3737 19.4403 27.3737 19.4403C26.9684 19.4883 26.835 19.7284 26.835 19.7284C26.8138 19.2857 26.547 19.1044 26.547 19.1044C26.1949 19.211 26.0884 19.595 26.0884 19.595C26.0351 19.1577 25.5977 18.9551 25.5977 18.9551C25.5977 18.9551 25.1604 19.1578 25.1071 19.595C25.1071 19.595 25.0005 19.2109 24.6485 19.1044C24.6485 19.1044 24.3818 19.2857 24.3604 19.7284C24.3604 19.7284 24.2271 19.4885 23.8218 19.4403C23.8218 19.4403 23.6991 19.6964 23.7258 19.979C23.7258 19.979 23.5071 19.7497 23.1925 19.7603C23.1925 19.7603 23.0698 20.075 23.1604 20.3097C23.1604 20.3097 22.8031 20.1978 22.5098 20.3683C22.5098 20.3683 23.0475 20.5763 23.2267 20.8322H27.9689C28.148 20.5762 28.6858 20.3683 28.6858 20.3683C28.3925 20.1977 28.035 20.3097 28.035 20.3097Z" fill="#FFC75A"/>
<path d="M27.9688 20.8336C27.9688 20.9871 27.61 21.4619 27.61 21.4619C27.61 21.4619 26.4466 21.6238 25.5977 21.6238C24.7435 21.6238 23.5773 21.4574 23.5773 21.4574C23.5773 21.4574 23.2266 20.9853 23.2266 20.8334C23.2266 20.3969 24.2882 20.043 25.5977 20.043C26.9072 20.0431 27.9688 20.3971 27.9688 20.8336Z" fill="#FFE15A"/>
<path d="M25.5974 22.0273C26.7287 22.0273 27.6459 21.7217 27.6459 21.3447C27.6459 20.9677 26.7287 20.6621 25.5974 20.6621C24.466 20.6621 23.5488 20.9677 23.5488 21.3447C23.5488 21.7217 24.466 22.0273 25.5974 22.0273Z" fill="#FFC75A"/>
<path d="M26.0992 17.5583C26.0992 17.3343 25.9321 17.0498 25.5979 17.249C25.2637 17.0498 25.0967 17.3343 25.0967 17.5583C25.0967 17.7824 24.8406 17.8144 24.8086 17.793C24.8086 17.793 25.022 18.0704 25.2672 17.889C25.2672 17.889 25.3987 18.081 25.5978 18.081C25.797 18.081 25.9286 17.889 25.9286 17.889C26.174 18.0704 26.3872 17.793 26.3872 17.793C26.3553 17.8143 26.0992 17.7823 26.0992 17.5583Z" fill="#FFC75A"/>
<path d="M24.917 34.1018C24.8978 34.1018 24.8783 34.0975 24.86 34.0881C24.7966 34.0568 24.771 33.9798 24.8026 33.9165L25.4852 32.5511C25.5169 32.4884 25.5937 32.4622 25.6569 32.4941C25.7203 32.5254 25.7459 32.6024 25.7142 32.6658L25.0316 34.0311C25.0091 34.0758 24.964 34.1018 24.917 34.1018Z" fill="#B46446"/>
<path d="M26.2825 34.1021C26.2355 34.1021 26.1904 34.0761 26.1679 34.0313L25.4852 32.666C25.4536 32.6026 25.4792 32.5257 25.5426 32.4943C25.6057 32.462 25.6825 32.4883 25.7142 32.5514L26.3969 33.9167C26.4285 33.9801 26.4029 34.057 26.3395 34.0884C26.3211 34.0978 26.3016 34.1021 26.2825 34.1021Z" fill="#B46446"/>
<path d="M28.6714 32.9075C26.6483 33.3598 24.5504 33.3598 22.5273 32.9075C22.5273 32.5661 22.5273 31.9272 22.5273 31.5859C24.5504 32.0382 26.6483 32.0382 28.6714 31.5859C28.6714 31.9273 28.6714 32.5663 28.6714 32.9075Z" fill="#F5F5F5"/>
<path d="M24.2194 32.4102C22.9131 32.6622 21.5743 32.7313 20.2422 32.6069C20.2646 32.7829 21.3181 33.306 21.3181 33.306C21.3181 33.306 20.3886 33.7552 20.4093 33.9179C21.6845 34.037 22.9662 33.9802 24.2194 33.7541V32.4102V32.4102Z" fill="#F5F5F5"/>
<path d="M26.9834 32.4102C28.2897 32.6622 29.6285 32.7313 30.9606 32.6069C30.9382 32.7829 29.8848 33.306 29.8848 33.306C29.8848 33.306 30.8143 33.7552 30.7936 33.9179C29.5184 34.037 28.2366 33.9802 26.9834 33.7541V32.4102V32.4102Z" fill="#F5F5F5"/>
</g>
<defs>
<clipPath id="clip0_3462_29764">
<rect width="50" height="50" fill="white" transform="translate(0.511719 0.0253906)"/>
</clipPath>
</defs>
</svg>
