<svg width="51" height="51" viewBox="0 0 51 51" fill="none" xmlns="http://www.w3.org/2000/svg">
<g clip-path="url(#clip0_3462_29757)">
<path d="M49.9444 41.405H1.66875C1.19268 41.405 0.806641 41.019 0.806641 40.5429V9.50859C0.806641 9.03252 1.19268 8.64648 1.66875 8.64648H49.9445C50.4206 8.64648 50.8066 9.03252 50.8066 9.50859V40.5429C50.8065 41.0191 50.4205 41.405 49.9444 41.405Z" fill="#73AF00"/>
<path d="M50.8065 16.4043H0.806641V33.6455H50.8065V16.4043Z" fill="#FFE15A"/>
<path d="M1.06699 41.1565L18.0479 25.0245L1.06699 8.89258C0.906933 9.04902 0.806641 9.26582 0.806641 9.50732V40.5416C0.806641 40.7831 0.906933 40.9999 1.06699 41.1565Z" fill="#FF4B55"/>
<path d="M27.9841 21.0971L28.8676 23.7461L31.66 23.7678C32.0215 23.7706 32.1714 24.2319 31.8806 24.4468L29.6343 26.1056L30.4767 28.768C30.5858 29.1127 30.1933 29.3978 29.8991 29.1876L27.6274 27.5638L25.3556 29.1876C25.0615 29.3978 24.669 29.1127 24.7781 28.768L25.6204 26.1056L23.3741 24.4468C23.0833 24.232 23.2332 23.7706 23.5948 23.7678L26.3871 23.7461L27.2706 21.0971C27.3846 20.7541 27.8697 20.7541 27.9841 21.0971Z" fill="#464655"/>
<path d="M40.8757 21.0971L41.7592 23.7461L44.5516 23.7678C44.9131 23.7706 45.063 24.2319 44.7722 24.4468L42.5259 26.1056L43.3683 28.768C43.4774 29.1127 43.0849 29.3978 42.7907 29.1876L40.519 27.5638L38.2472 29.1876C37.9531 29.3978 37.5606 29.1127 37.6697 28.768L38.512 26.1056L36.2657 24.4468C35.9749 24.232 36.1248 23.7706 36.4864 23.7678L39.2787 23.7461L40.1622 21.0971C40.2761 20.7541 40.7612 20.7541 40.8757 21.0971Z" fill="#464655"/>
</g>
<defs>
<clipPath id="clip0_3462_29757">
<rect width="50" height="50" fill="white" transform="translate(0.804688 0.0253906)"/>
</clipPath>
</defs>
</svg>
