<svg width="51" height="51" viewBox="0 0 51 51" fill="none" xmlns="http://www.w3.org/2000/svg">
<g clip-path="url(#clip0_3462_29749)">
<path d="M49.7589 41.698H1.4832C1.00713 41.698 0.621094 41.312 0.621094 40.8359V9.80156C0.621094 9.32549 1.00713 8.93945 1.4832 8.93945H49.759C50.2351 8.93945 50.6211 9.32549 50.6211 9.80156V40.8359C50.621 41.312 50.235 41.698 49.7589 41.698Z" fill="#F5F5F5"/>
<path d="M50.621 23.5946H27.3452V8.93945H23.8968V23.5946H0.621094V27.0428H23.8968V41.698H27.3452V27.0428H50.621V23.5946Z" fill="#FF4B55"/>
<path d="M16.748 16.6615C16.8928 16.3719 16.0924 15.4342 16.1347 15.2217C16.1772 15.0092 16.2721 14.6836 15.932 13.4512C15.5921 12.2187 14.5707 11.921 13.3383 11.7935C12.1058 11.6661 10.4766 12.5499 10.1086 13.5146C9.88652 14.0969 10.0367 14.7472 10.2697 15.3663C10.1651 15.3776 9.96484 15.3834 9.81718 15.2743C9.69961 15.1867 9.63525 15.0379 9.62402 14.8327C9.58281 14.0512 10.0092 12.771 10.0138 12.7584L10.0457 12.6628L8.70713 12.1907L8.78584 12.8188L7.75293 12.5983L7.81602 12.7716C7.90693 13.0213 8.70703 15.2164 8.81474 15.4102C8.9914 15.7269 9.23115 15.9296 9.52724 16.0119C9.63349 16.0418 9.73837 16.0531 9.83798 16.0531C9.85078 16.0531 9.86152 16.0498 9.87412 16.0494C9.81347 16.161 9.69082 16.3017 9.37851 16.4468C9.01211 16.6157 8.64121 16.7977 8.60058 17.4816L8.58955 17.4873C8.59287 17.4936 8.59668 17.497 8.6 17.5033C8.59121 17.684 8.59941 17.8905 8.64267 18.15C8.75019 18.7914 8.96865 19.4209 8.97802 19.4473L8.99922 19.5078L9.06299 19.5151C9.06758 19.5151 9.48798 19.5655 9.61679 20.0071C9.69111 20.2627 9.92548 20.4567 10.156 20.4567C10.1619 20.4567 10.1679 20.456 10.1738 20.456C10.2734 20.4514 10.5144 20.3996 10.5928 20.0091L10.6041 19.9527L9.97099 19.3702L10.1832 18.6705L10.0822 18.6432C10.0763 18.6418 9.65703 18.5155 9.22304 18.0423C9.18281 17.8473 9.18759 17.7065 9.23955 17.6266C9.29863 17.537 9.42412 17.5118 9.56953 17.4826C9.70498 17.4553 9.84511 17.4275 9.95869 17.3391C10.3236 17.0539 10.5278 16.5634 10.6313 16.2275C10.6874 16.3545 10.7411 16.4778 10.7887 16.5954C11.1499 17.4879 10.1513 18.5077 10.1513 18.5077C10.7887 18.7627 10.8524 18.9113 11.7449 20.0163C12.6374 21.1213 13.4447 20.6537 13.4447 20.6537C13.4447 20.6537 13.3299 19.9463 13.9164 19.6476C14.503 19.349 14.5163 18.9651 14.5163 18.9651C15.9802 19.3091 16.0681 18.7091 16.0041 18.5011C15.9401 18.2932 16.0201 17.9653 16.0201 17.9653C16.0201 17.9653 16.1676 17.9746 16.2761 17.9013C16.448 17.7854 16.3321 17.5094 16.3321 17.5094C16.5001 17.4294 16.5641 17.2535 16.4361 17.1175C16.3081 16.9814 16.3161 16.8296 16.3161 16.8296C16.3161 16.8296 16.6521 16.8534 16.748 16.6615ZM9.58222 15.8152C9.34052 15.7482 9.14199 15.5781 8.99258 15.3106C8.92158 15.1832 8.42412 13.8438 8.07031 12.8744L8.8126 13.0326L8.95215 14.1466L9.154 14.1214L8.9501 12.4932L9.78945 12.7888C9.68847 13.1082 9.3831 14.142 9.4209 14.8431C9.43476 15.1121 9.52714 15.3119 9.69511 15.4374C9.84716 15.551 10.0298 15.5774 10.1692 15.5774C10.2515 15.5774 10.3074 15.5694 10.3452 15.5628C10.366 15.6139 10.3875 15.6642 10.4089 15.7148C10.291 15.7728 9.94521 15.9181 9.58222 15.8152ZM10.3798 20.0236C10.3513 20.1238 10.2908 20.2466 10.1647 20.252C10.162 20.252 10.1588 20.252 10.1555 20.252C10.0167 20.252 9.86064 20.1159 9.8121 19.9499C9.80966 19.9414 9.80459 19.937 9.80185 19.9287L9.90537 19.5869L10.3798 20.0236ZM9.92959 18.8058L9.67021 19.6596C9.50205 19.4313 9.26621 19.3506 9.15205 19.3239C9.09619 19.1559 8.93027 18.6326 8.84394 18.1168C8.82588 18.0078 8.81699 17.915 8.80869 17.8234C9.23838 18.4523 9.72275 18.7237 9.92959 18.8058ZM9.8332 17.1784C9.7582 17.2368 9.64736 17.2588 9.52978 17.2826C9.36308 17.3158 9.17529 17.3536 9.06904 17.515C9.03027 17.5741 9.01103 17.6481 9.00117 17.7305C8.9334 17.6347 8.86396 17.5537 8.80049 17.4371C8.84541 16.9177 9.12802 16.7863 9.46406 16.6311C9.94853 16.4069 10.0609 16.1679 10.1089 16.0252C10.2815 15.9915 10.4109 15.938 10.4877 15.9016C10.4915 15.9104 10.4953 15.9186 10.4992 15.9275C10.4458 16.1631 10.262 16.8435 9.8332 17.1784ZM10.9727 16.2615L10.5568 15.3656L15.4523 13.0938C15.7723 13.7018 15.8044 14.4217 15.8044 14.4217L10.9727 16.2615Z" fill="#464655"/>
<path d="M43.4726 16.6615C43.6174 16.3719 42.817 15.4342 42.8594 15.2217C42.9018 15.0092 42.9967 14.6836 42.6566 13.4512C42.3167 12.2187 41.2953 11.921 40.0629 11.7935C38.8305 11.6661 37.2012 12.5499 36.8332 13.5146C36.6111 14.0969 36.7613 14.7472 36.9943 15.3663C36.8897 15.3776 36.6894 15.3834 36.5418 15.2743C36.4242 15.1867 36.3599 15.0379 36.3486 14.8327C36.3074 14.0512 36.7338 12.771 36.7384 12.7584L36.7703 12.6628L35.4317 12.1907L35.5104 12.8188L34.4775 12.5983L34.5406 12.7716C34.6315 13.0213 35.4316 15.2164 35.5394 15.4102C35.716 15.7269 35.9558 15.9296 36.2518 16.0119C36.3581 16.0418 36.4631 16.0531 36.5626 16.0531C36.5754 16.0531 36.5861 16.0498 36.5987 16.0494C36.5381 16.161 36.4154 16.3017 36.1031 16.4468C35.7367 16.6157 35.3658 16.7977 35.3252 17.4816L35.3142 17.4873C35.3175 17.4936 35.3213 17.497 35.3246 17.5033C35.3158 17.684 35.324 17.8905 35.3673 18.15C35.4748 18.7914 35.6934 19.4209 35.7026 19.4473L35.7238 19.5078L35.7876 19.5151C35.7922 19.5151 36.2126 19.5655 36.3414 20.0071C36.4157 20.2627 36.6501 20.4567 36.8806 20.4567C36.8865 20.4567 36.8925 20.456 36.8984 20.456C36.998 20.4514 37.2391 20.3996 37.3174 20.0091L37.3287 19.9527L36.6956 19.3702L36.9078 18.6705L36.8068 18.6432C36.8009 18.6418 36.3816 18.5155 35.9477 18.0423C35.9074 17.8473 35.9122 17.7065 35.9642 17.6266C36.0232 17.537 36.1487 17.5118 36.2941 17.4826C36.4296 17.4553 36.5697 17.4275 36.6833 17.3391C37.0482 17.0539 37.2524 16.5634 37.3559 16.2275C37.412 16.3545 37.4657 16.4778 37.5133 16.5954C37.8745 17.4879 36.8759 18.5077 36.8759 18.5077C37.5133 18.7627 37.577 18.9113 38.4695 20.0163C39.362 21.1212 40.1694 20.6537 40.1694 20.6537C40.1694 20.6537 40.0546 19.9463 40.6411 19.6476C41.2277 19.349 41.241 18.9651 41.241 18.9651C42.7049 19.3091 42.7929 18.7091 42.7288 18.5011C42.6648 18.2932 42.7448 17.9653 42.7448 17.9653C42.7448 17.9653 42.8923 17.9746 43.0008 17.9013C43.1727 17.7854 43.0568 17.5094 43.0568 17.5094C43.2248 17.4294 43.2889 17.2535 43.1608 17.1175C43.0328 16.9814 43.0408 16.8296 43.0408 16.8296C43.0408 16.8296 43.3766 16.8534 43.4726 16.6615ZM36.3067 15.8152C36.065 15.7482 35.8665 15.5781 35.7171 15.3106C35.6461 15.1832 35.1486 13.8438 34.7948 12.8744L35.5371 13.0326L35.6767 14.1466L35.8785 14.1214L35.6746 12.4932L36.514 12.7888C36.413 13.1082 36.1076 14.142 36.1454 14.8431C36.1593 15.1121 36.2517 15.3119 36.4196 15.4374C36.5717 15.551 36.7543 15.5774 36.8937 15.5774C36.976 15.5774 37.0319 15.5694 37.0697 15.5628C37.0905 15.6139 37.112 15.6642 37.1334 15.7148C37.0154 15.7728 36.6697 15.9181 36.3067 15.8152ZM37.1042 20.0236C37.0757 20.1238 37.0152 20.2466 36.8892 20.252C36.8864 20.252 36.8832 20.252 36.8799 20.252C36.7411 20.252 36.5851 20.1159 36.5365 19.9499C36.5341 19.9414 36.529 19.937 36.5263 19.9287L36.6298 19.5869L37.1042 20.0236ZM36.654 18.8058L36.3946 19.6596C36.2264 19.4313 35.9906 19.3506 35.8765 19.3239C35.8206 19.1559 35.6547 18.6326 35.5684 18.1168C35.5503 18.0078 35.5414 17.915 35.5331 17.8234C35.9629 18.4523 36.4473 18.7237 36.654 18.8058ZM36.5578 17.1784C36.4828 17.2368 36.372 17.2588 36.2544 17.2826C36.0877 17.3158 35.8999 17.3536 35.7936 17.515C35.7549 17.5741 35.7356 17.6481 35.7258 17.7305C35.658 17.6347 35.5886 17.5537 35.5251 17.4371C35.57 16.9177 35.8526 16.7863 36.1887 16.6311C36.6731 16.4069 36.7855 16.1679 36.8335 16.0252C37.0061 15.9915 37.1355 15.938 37.2123 15.9016C37.2161 15.9104 37.2199 15.9186 37.2238 15.9275C37.1703 16.1631 36.9865 16.8435 36.5578 17.1784ZM37.6973 16.2615L37.2813 15.3656L42.1768 13.0938C42.4969 13.7018 42.5289 14.4217 42.5289 14.4217L37.6973 16.2615Z" fill="#464655"/>
<path d="M16.749 34.765C16.8937 34.4755 16.0933 33.5377 16.1357 33.3252C16.1782 33.1127 16.273 32.7871 15.933 31.5547C15.5931 30.3222 14.5717 30.0245 13.3392 29.8971C12.1068 29.7696 10.4775 30.6534 10.1096 31.6181C9.8875 32.2004 10.0377 32.8508 10.2707 33.4698C10.1661 33.4811 9.96582 33.4869 9.81816 33.3778C9.70058 33.2902 9.63623 33.1414 9.625 32.9362C9.58378 32.1547 10.0102 30.8745 10.0147 30.8619L10.0467 30.7663L8.7081 30.2942L8.78681 30.9223L7.75391 30.7018L7.81699 30.8751C7.90791 31.1248 8.70801 33.3199 8.81572 33.5137C8.99238 33.8304 9.23213 34.0331 9.52822 34.1154C9.63447 34.1453 9.73935 34.1566 9.83896 34.1566C9.85175 34.1566 9.8625 34.1533 9.87509 34.1529C9.81445 34.2645 9.69179 34.4053 9.37949 34.5503C9.01308 34.7191 8.64219 34.9011 8.60156 35.585L8.59053 35.5908C8.59385 35.5971 8.59765 35.6006 8.60097 35.6068C8.59219 35.7875 8.60039 35.994 8.64365 36.2535C8.75117 36.8949 8.96963 37.5244 8.979 37.5508L9.00019 37.6113L9.06396 37.6186C9.06855 37.6186 9.48896 37.669 9.61777 38.1106C9.69209 38.3662 9.92646 38.5602 10.1569 38.5602C10.1629 38.5602 10.1688 38.5595 10.1748 38.5595C10.2744 38.5549 10.5154 38.5031 10.5937 38.1127L10.6051 38.0562L9.97197 37.4737L10.1842 36.774L10.0832 36.7467C10.0772 36.7453 9.658 36.619 9.22402 36.1458C9.18379 35.9509 9.18857 35.81 9.24052 35.7302C9.29961 35.6405 9.42509 35.6153 9.5705 35.5861C9.70595 35.5589 9.84609 35.531 9.95966 35.4427C10.3246 35.1574 10.5288 34.6669 10.6323 34.331C10.6884 34.458 10.7421 34.5813 10.7896 34.6989C11.1509 35.5914 10.1522 36.6112 10.1522 36.6112C10.7896 36.8662 10.8534 37.0148 11.7459 38.1198C12.6384 39.2248 13.4457 38.7572 13.4457 38.7572C13.4457 38.7572 13.3308 38.0498 13.9174 37.7511C14.504 37.4525 14.5173 37.0686 14.5173 37.0686C15.9811 37.4126 16.0691 36.8127 16.0051 36.6047C15.9411 36.3967 16.0211 36.0688 16.0211 36.0688C16.0211 36.0688 16.1685 36.0781 16.277 36.0049C16.449 35.8889 16.3331 35.613 16.3331 35.613C16.5011 35.533 16.5651 35.357 16.4371 35.221C16.3091 35.0849 16.3171 34.9331 16.3171 34.9331C16.3171 34.9331 16.6531 34.9569 16.749 34.765ZM9.5832 33.9187C9.3415 33.8517 9.14297 33.6816 8.99355 33.4141C8.92256 33.2867 8.4251 31.9473 8.07129 30.9779L8.81357 31.1361L8.95312 32.2501L9.15498 32.2249L8.95107 30.5968L9.79043 30.8923C9.68945 31.2117 9.38408 32.2455 9.42187 32.9467C9.43574 33.2156 9.52812 33.4154 9.69609 33.541C9.84814 33.6546 10.0308 33.681 10.1702 33.681C10.2524 33.681 10.3084 33.673 10.3462 33.6664C10.367 33.7176 10.3885 33.7678 10.4099 33.8184C10.292 33.8762 9.94619 34.0217 9.5832 33.9187ZM10.3808 38.1271C10.3522 38.2273 10.2918 38.3502 10.1657 38.3555C10.163 38.3555 10.1598 38.3555 10.1564 38.3555C10.0177 38.3555 9.86162 38.2194 9.81308 38.0534C9.81064 38.0449 9.80556 38.0405 9.80283 38.0322L9.90634 37.6904L10.3808 38.1271ZM9.93056 36.9093L9.67119 37.7632C9.50302 37.5348 9.26718 37.4541 9.15302 37.4274C9.09716 37.2594 8.93125 36.7361 8.84492 36.2203C8.82685 36.1113 8.81797 36.0185 8.80967 35.9269C9.23935 36.5558 9.72373 36.8273 9.93056 36.9093ZM9.83418 35.2821C9.75918 35.3405 9.64834 35.3625 9.53076 35.3863C9.36406 35.4195 9.17627 35.4573 9.07002 35.6187C9.03125 35.6778 9.01201 35.7518 9.00215 35.8343C8.93437 35.7385 8.86494 35.6574 8.80146 35.5408C8.84638 35.0215 9.129 34.89 9.46504 34.7348C9.94951 34.5106 10.0619 34.2717 10.1099 34.1289C10.2825 34.0952 10.4119 34.0417 10.4887 34.0053C10.4925 34.0141 10.4963 34.0223 10.5002 34.0312C10.4468 34.2666 10.263 34.947 9.83418 35.2821ZM10.9737 34.365L10.5578 33.4691L15.4533 31.1973C15.7733 31.8054 15.8054 32.5252 15.8054 32.5252L10.9737 34.365Z" fill="#464655"/>
<path d="M43.4726 34.765C43.6174 34.4755 42.817 33.5377 42.8594 33.3252C42.9018 33.1127 42.9967 32.7871 42.6566 31.5547C42.3167 30.3222 41.2953 30.0245 40.0629 29.8971C38.8305 29.7696 37.2012 30.6534 36.8332 31.6181C36.6111 32.2004 36.7613 32.8508 36.9943 33.4698C36.8897 33.4811 36.6894 33.4869 36.5418 33.3778C36.4242 33.2902 36.3599 33.1414 36.3486 32.9362C36.3074 32.1547 36.7338 30.8745 36.7384 30.8619L36.7703 30.7663L35.4317 30.2942L35.5104 30.9223L34.4775 30.7018L34.5406 30.8751C34.6315 31.1248 35.4316 33.3199 35.5394 33.5137C35.716 33.8304 35.9558 34.0331 36.2518 34.1154C36.3581 34.1453 36.4631 34.1566 36.5626 34.1566C36.5754 34.1566 36.5861 34.1533 36.5987 34.1529C36.5381 34.2645 36.4154 34.4053 36.1031 34.5503C35.7367 34.7191 35.3658 34.9011 35.3252 35.585L35.3142 35.5908C35.3175 35.5971 35.3213 35.6006 35.3246 35.6068C35.3158 35.7875 35.324 35.994 35.3673 36.2535C35.4748 36.8949 35.6934 37.5244 35.7026 37.5508L35.7238 37.6113L35.7876 37.6186C35.7922 37.6186 36.2126 37.669 36.3414 38.1106C36.4157 38.3662 36.6501 38.5602 36.8806 38.5602C36.8865 38.5602 36.8925 38.5595 36.8984 38.5595C36.998 38.5549 37.2391 38.5031 37.3174 38.1127L37.3287 38.0562L36.6956 37.4737L36.9078 36.774L36.8068 36.7467C36.8009 36.7453 36.3816 36.619 35.9477 36.1458C35.9074 35.9509 35.9122 35.81 35.9642 35.7301C36.0232 35.6405 36.1487 35.6153 36.2941 35.5861C36.4296 35.5589 36.5697 35.531 36.6833 35.4427C37.0482 35.1574 37.2524 34.6669 37.3559 34.331C37.412 34.458 37.4657 34.5813 37.5133 34.6989C37.8745 35.5914 36.8759 36.6112 36.8759 36.6112C37.5133 36.8662 37.577 37.0148 38.4695 38.1198C39.362 39.2247 40.1694 38.7572 40.1694 38.7572C40.1694 38.7572 40.0546 38.0498 40.6411 37.7511C41.2277 37.4525 41.241 37.0686 41.241 37.0686C42.7049 37.4126 42.7929 36.8127 42.7288 36.6047C42.6648 36.3967 42.7448 36.0688 42.7448 36.0688C42.7448 36.0688 42.8923 36.0781 43.0008 36.0049C43.1727 35.8889 43.0568 35.613 43.0568 35.613C43.2248 35.533 43.2889 35.357 43.1608 35.221C43.0328 35.0849 43.0408 34.9331 43.0408 34.9331C43.0408 34.9331 43.3766 34.9569 43.4726 34.765ZM36.3067 33.9187C36.065 33.8517 35.8665 33.6816 35.7171 33.4141C35.6461 33.2867 35.1486 31.9473 34.7948 30.9779L35.5371 31.1361L35.6767 32.2501L35.8785 32.2249L35.6746 30.5968L36.514 30.8923C36.413 31.2117 36.1076 32.2455 36.1454 32.9467C36.1593 33.2156 36.2517 33.4154 36.4196 33.541C36.5717 33.6546 36.7543 33.681 36.8937 33.681C36.976 33.681 37.0319 33.673 37.0697 33.6664C37.0905 33.7176 37.112 33.7678 37.1334 33.8184C37.0154 33.8762 36.6697 34.0217 36.3067 33.9187ZM37.1042 38.1271C37.0757 38.2273 37.0152 38.3502 36.8892 38.3555C36.8864 38.3555 36.8832 38.3555 36.8799 38.3555C36.7411 38.3555 36.5851 38.2194 36.5365 38.0534C36.5341 38.0449 36.529 38.0405 36.5263 38.0322L36.6298 37.6904L37.1042 38.1271ZM36.654 36.9093L36.3946 37.7632C36.2264 37.5348 35.9906 37.4541 35.8765 37.4274C35.8206 37.2594 35.6547 36.7361 35.5684 36.2203C35.5503 36.1113 35.5414 36.0185 35.5331 35.9269C35.9629 36.5558 36.4473 36.8273 36.654 36.9093ZM36.5578 35.2821C36.4828 35.3405 36.372 35.3625 36.2544 35.3863C36.0877 35.4195 35.8999 35.4573 35.7936 35.6187C35.7549 35.6778 35.7356 35.7518 35.7258 35.8343C35.658 35.7385 35.5886 35.6574 35.5251 35.5408C35.57 35.0215 35.8526 34.89 36.1887 34.7348C36.6731 34.5106 36.7855 34.2717 36.8335 34.1289C37.0061 34.0952 37.1355 34.0417 37.2123 34.0053C37.2161 34.0141 37.2199 34.0223 37.2238 34.0312C37.1703 34.2666 36.9865 34.947 36.5578 35.2821ZM37.6973 34.365L37.2813 33.4691L42.1768 31.1973C42.4969 31.8054 42.5289 32.5252 42.5289 32.5252L37.6973 34.365Z" fill="#464655"/>
</g>
<defs>
<clipPath id="clip0_3462_29749">
<rect width="50" height="50" fill="white" transform="translate(0.621094 0.318359)"/>
</clipPath>
</defs>
</svg>
