<svg width="51" height="51" viewBox="0 0 51 51" fill="none" xmlns="http://www.w3.org/2000/svg">
<g clip-path="url(#clip0_3462_29721)">
<path d="M50.0528 41.6981H1.77715C1.30107 41.6981 0.915039 41.3121 0.915039 40.836V9.80156C0.915039 9.32549 1.30107 8.93945 1.77715 8.93945H50.0529C50.529 8.93945 50.915 9.32549 50.915 9.80156V40.836C50.9149 41.3121 50.5289 41.6981 50.0528 41.6981Z" fill="#73AF00"/>
<path d="M11.2597 20.0731C11.3447 20.6177 11.6739 20.7886 11.9601 20.7663C12.2976 20.7401 12.5936 20.4315 12.5936 20.1055V18.2366C12.5936 18.143 12.6698 18.0667 12.7635 18.0667C12.8573 18.0667 12.9334 18.143 12.9334 18.2366V20.1135C12.9334 20.3392 13.045 20.5497 13.232 20.676C13.3461 20.7534 13.479 20.7931 13.6129 20.7931C13.6982 20.7931 13.7838 20.7768 13.8655 20.7443L14.0353 20.6764C14.0509 22.2453 13.9555 23.6241 13.9537 23.6494C13.9405 23.8366 14.0813 23.9992 14.2685 24.0125C14.2768 24.0132 14.2849 24.0134 14.2931 24.0134C14.4699 24.0134 14.619 23.8767 14.6318 23.6978C14.6397 23.5874 14.7444 22.0773 14.713 20.4053L14.8158 20.3643C14.9058 20.3285 15.007 20.3328 15.0936 20.376C15.4679 20.5625 15.9183 20.4897 16.2141 20.194L16.2753 20.1329C16.5499 19.8578 16.6444 19.4582 16.5214 19.0895L16.2321 18.2215C16.3885 18.2685 16.5604 18.1993 16.636 18.0486C16.72 17.8807 16.6519 17.6766 16.484 17.5927L15.8044 17.2528C15.6815 17.1911 15.5339 17.21 15.4297 17.2999C15.3258 17.3902 15.2866 17.5339 15.33 17.6642L15.8768 19.3047C15.9177 19.4274 15.8863 19.5608 15.7948 19.6524L15.7336 19.7136C15.6451 19.8021 15.5101 19.8237 15.3973 19.7679C15.1771 19.6579 14.9263 19.6373 14.691 19.6972C14.6433 18.6065 14.5258 17.5204 14.2756 16.7695C14.2163 16.5916 14.0243 16.4951 13.8456 16.5548C13.6676 16.6139 13.5714 16.8062 13.6308 16.9846C13.8756 17.7188 13.9823 18.8379 14.0202 19.9506L13.6133 20.1133V18.2363C13.6133 17.7678 13.2322 17.3867 12.7637 17.3867C12.2953 17.3867 11.9141 17.7677 11.9141 18.2363V19.8813L11.5674 18.1689C11.5305 17.9847 11.3514 17.8646 11.167 17.9031C10.9829 17.9406 10.864 18.1198 10.9014 18.3037L11.2597 20.0731Z" fill="#F5F5F5"/>
<path d="M11.9131 17.2168C12.1008 17.2168 12.2529 17.0648 12.2529 16.877V16.5371C12.2529 16.3493 12.1008 16.1973 11.9131 16.1973C11.7254 16.1973 11.5732 16.3492 11.5732 16.5371V16.877C11.5732 17.0647 11.7254 17.2168 11.9131 17.2168Z" fill="#F5F5F5"/>
<path d="M15.3115 16.877H15.6514C15.8391 16.877 15.9912 16.725 15.9912 16.5371C15.9912 16.3493 15.8391 16.1973 15.6514 16.1973H15.3115C15.1238 16.1973 14.9717 16.3492 14.9717 16.5371C14.9717 16.725 15.1238 16.877 15.3115 16.877Z" fill="#F5F5F5"/>
<path d="M13.0975 21.3435L11.3984 22.363C11.2374 22.4596 11.1853 22.6683 11.2819 22.8293C11.3456 22.9354 11.4581 22.9942 11.5736 22.9942C11.6332 22.9942 11.6934 22.9786 11.7482 22.9457L13.4474 21.9262C13.6084 21.8296 13.6604 21.6209 13.5639 21.4599C13.4673 21.2989 13.2587 21.2469 13.0975 21.3435Z" fill="#F5F5F5"/>
<path d="M17.6788 21.9442L17.6868 21.9389C17.7154 22.0537 17.7643 22.1648 17.8437 22.2582C17.9818 22.4208 18.1888 22.5025 18.4228 22.4832C18.7547 22.459 18.9803 22.3073 19.1297 22.1115C19.1525 22.1271 19.1764 22.1414 19.2014 22.154C19.3851 22.2466 19.5975 22.2396 19.7997 22.1347C20.3133 21.8702 20.424 21.2583 20.4083 20.9384C20.3991 20.7518 20.2406 20.6202 20.0545 20.6165C19.8679 20.6245 19.7226 20.7828 19.7293 20.9693C19.7295 20.9736 19.737 21.3768 19.4906 21.5266C19.4503 21.4705 19.4027 21.3443 19.3847 21.2401C19.356 21.0652 19.1953 20.9435 19.0225 20.9574C18.8463 20.9713 18.7102 21.1193 18.7096 21.2962C18.7094 21.3456 18.6985 21.7816 18.3618 21.8182C18.3227 21.7647 18.322 21.5397 18.3606 21.3734C18.3931 21.237 18.3384 21.0946 18.223 21.015C18.1074 20.9351 17.9549 20.9351 17.8388 21.0138L17.6492 21.1428C17.5591 19.1721 17.3516 16.8757 17.3491 16.8463C17.3322 16.6598 17.1679 16.5207 16.9799 16.5387C16.793 16.5556 16.6552 16.7209 16.6722 16.9081C16.6751 16.9395 16.9151 19.5965 16.9891 21.6255C16.9717 21.642 16.9538 21.6601 16.9368 21.6759C16.8025 21.3371 16.5361 21.1237 16.193 21.0912C15.7088 21.0484 15.1842 21.3779 14.9961 21.8485C14.834 22.2534 14.9361 22.6514 15.2559 22.862C15.4859 23.0137 15.8329 23.0614 16.2694 22.9085C16.1628 23.2828 15.9688 23.6625 15.7166 23.9561C15.4908 24.2193 15.1136 24.5229 14.631 24.5094C14.35 24.4983 14.1342 24.4064 13.971 24.2279C13.5776 23.7981 13.6115 23.0203 13.6118 23.012C13.6215 22.8248 13.4782 22.6652 13.2911 22.6549C13.1028 22.635 12.9434 22.788 12.933 22.9755C12.9307 23.0185 12.8814 24.0408 13.4666 24.6836C13.7547 25.0005 14.1374 25.1701 14.6042 25.1884C14.627 25.1893 14.6497 25.1896 14.6726 25.1896C15.241 25.1896 15.7926 24.9108 16.232 24.3988C16.6452 23.9176 16.9259 23.2639 17.0101 22.657C17.009 23.8195 16.3084 25.1306 15.3796 25.7083C14.9852 25.9532 14.3702 26.1742 13.6776 25.8327C12.8237 25.4112 12.9254 24.4352 12.9299 24.3954C12.9533 24.2092 12.8211 24.0393 12.6349 24.0161C12.4495 23.9935 12.2787 24.1246 12.2556 24.3111C12.248 24.3719 12.0847 25.8045 13.3769 26.442C13.7088 26.6058 14.0559 26.6872 14.4057 26.6872C14.855 26.6872 15.3085 26.5528 15.7384 26.2853C16.8693 25.5824 17.6901 24.0553 17.6901 22.6542C17.69 22.4351 17.6858 22.1959 17.6788 21.9442ZM15.6297 22.2945C15.569 22.2543 15.6164 22.126 15.6267 22.1004C15.6983 21.9212 15.9221 21.7662 16.1009 21.7662C16.1101 21.7662 16.1194 21.7665 16.1283 21.7675C16.1717 21.7715 16.287 21.7824 16.3367 22.039C16.3419 22.0662 16.3464 22.094 16.3499 22.1225C15.9712 22.345 15.7173 22.352 15.6297 22.2945Z" fill="#F5F5F5"/>
<path d="M12.0851 25.4199C11.9241 25.3253 11.716 25.3794 11.6205 25.5404C11.6049 25.5666 11.5842 25.5952 11.5631 25.621C11.5594 25.6124 11.5558 25.6031 11.5521 25.5931C11.4104 25.215 11.5113 24.6327 11.5622 24.4401C11.6102 24.259 11.5023 24.0732 11.3212 24.0246C11.1404 23.9781 10.9543 24.0837 10.9057 24.265C10.881 24.3568 10.6721 25.1818 10.9157 25.8316C11.0716 26.2472 11.3111 26.3521 11.4846 26.3662C11.5 26.3675 11.5153 26.3682 11.5304 26.3682C11.8962 26.3682 12.1397 25.9995 12.2074 25.8827C12.3012 25.7209 12.2462 25.5148 12.0851 25.4199Z" fill="#F5F5F5"/>
<path d="M18.3557 19.2556C18.4292 19.2556 18.5033 19.2319 18.5654 19.1829L20.2787 17.8379C20.3023 17.8193 20.3174 17.795 20.3347 17.7722C20.5815 17.6233 20.7484 17.3554 20.7484 17.0469C20.7484 16.5783 20.3672 16.1973 19.8988 16.1973C19.4303 16.1973 19.0492 16.5782 19.0492 17.0469C19.0492 17.3091 19.171 17.5408 19.3581 17.6968L18.1456 18.6487C17.998 18.7645 17.9723 18.9782 18.0881 19.1256C18.1552 19.211 18.255 19.2556 18.3557 19.2556ZM19.8989 16.8769C19.9926 16.8769 20.0688 16.9531 20.0688 17.0468C20.0688 17.1404 19.9926 17.2167 19.8989 17.2167C19.8051 17.2167 19.7289 17.1404 19.7289 17.0468C19.7289 16.9531 19.8051 16.8769 19.8989 16.8769Z" fill="#F5F5F5"/>
<path d="M19.4967 18.9337C19.3177 18.874 19.126 18.9705 19.0667 19.1484C19.0304 19.2572 18.866 19.8179 19.1991 20.1506C19.3284 20.28 19.4983 20.3447 19.7069 20.3443C19.8462 20.3443 20.0028 20.3158 20.1763 20.2577C20.3543 20.1986 20.4505 20.0062 20.3911 19.8279C20.3318 19.65 20.1397 19.5531 19.9612 19.6132C19.7713 19.6763 19.691 19.666 19.6837 19.6725C19.6637 19.6222 19.6769 19.4704 19.7117 19.3619C19.7705 19.1846 19.6743 18.9928 19.4967 18.9337Z" fill="#F5F5F5"/>
<path d="M23.3863 17.5273C23.4182 17.5366 23.4501 17.5409 23.4817 17.5409C23.6289 17.5409 23.7644 17.4447 23.8078 17.2963L24.006 16.6167C24.0585 16.4365 23.955 16.2476 23.775 16.1952C23.5944 16.143 23.4062 16.246 23.3536 16.4261L23.1553 17.1057C23.1027 17.2862 23.2062 17.475 23.3863 17.5273Z" fill="#F5F5F5"/>
<path d="M21.4061 17.4884C21.46 17.52 21.5192 17.5349 21.5773 17.5349C21.6941 17.5349 21.8078 17.4749 21.8709 17.3667C21.9657 17.2048 21.9112 16.9963 21.7492 16.9018C21.6808 16.862 21.6901 16.7495 21.6926 16.7272C21.7028 16.6379 21.756 16.5291 21.8486 16.5002C22.0278 16.4446 22.1279 16.2541 22.0721 16.0749C22.0161 15.8954 21.8259 15.796 21.6464 15.8511C21.3077 15.9566 21.0607 16.2703 21.0172 16.65C20.977 17.0033 21.126 17.3246 21.4061 17.4884Z" fill="#F5F5F5"/>
<path d="M18.71 22.9941C18.5223 22.9941 18.3701 23.1461 18.3701 23.334C18.3701 23.4999 18.489 23.638 18.6462 23.6678C18.6641 23.6939 18.7099 23.784 18.7099 24.0136C18.7099 24.2014 18.862 24.3534 19.0497 24.3534C19.2374 24.3534 19.3895 24.2015 19.3895 24.0136C19.3896 23.0058 18.7377 22.9941 18.71 22.9941Z" fill="#F5F5F5"/>
<path d="M24.4745 21.5871C24.5172 21.5941 24.5597 21.5973 24.6023 21.5973C24.8693 21.5973 25.139 21.4626 25.4062 21.1955C25.5389 21.0627 25.5389 20.8477 25.4062 20.715C25.2735 20.5823 25.0585 20.5823 24.9258 20.715C24.7225 20.9184 24.6132 20.9227 24.5851 20.9164C24.5203 20.9071 24.4615 20.8224 24.4484 20.7993C24.3632 20.6339 24.161 20.568 23.9946 20.6512C23.8267 20.7352 23.7586 20.9393 23.8427 21.1072C23.8637 21.1494 24.0598 21.5197 24.4745 21.5871Z" fill="#F5F5F5"/>
<path d="M30.2513 19.1984C30.2492 19.1931 30.2471 19.1881 30.2455 19.1834C30.1852 19.007 29.9927 18.911 29.8166 18.971C29.6383 19.0301 29.5422 19.2225 29.6015 19.4008C29.628 19.4804 29.7795 19.88 30.1545 19.9304C30.1796 19.9337 30.2045 19.9354 30.2292 19.9354C30.4646 19.9354 30.6854 19.7831 30.8864 19.4817C30.9904 19.3257 30.9482 19.1147 30.7921 19.0105C30.6357 18.9066 30.4247 18.9484 30.3209 19.1048C30.294 19.145 30.2708 19.1755 30.2513 19.1984Z" fill="#F5F5F5"/>
<path d="M29.5846 25.3712C29.5846 23.9221 29.5209 22.5626 29.4324 21.3714C29.9149 22.2082 30.349 23.0538 30.6256 23.7915C30.6768 23.928 30.8062 24.012 30.9437 24.012C30.9834 24.012 31.0237 24.0049 31.063 23.9904C31.2387 23.9244 31.3278 23.7286 31.2619 23.5527C30.8317 22.406 30.0587 21.0404 29.2967 19.8281C29.1109 17.9975 28.9029 16.8356 28.8993 16.8149C28.8658 16.6301 28.6892 16.5053 28.5043 16.5414C28.3196 16.5749 28.1972 16.7517 28.2306 16.9363C28.2334 16.951 28.3404 17.5496 28.4684 18.5569C28.2073 18.1695 27.9647 17.82 27.7612 17.5323L27.7778 17.5375C27.9568 17.5972 28.1483 17.5007 28.2078 17.3228C28.2672 17.1446 28.171 16.9521 27.993 16.893L26.9734 16.5532C26.832 16.5054 26.6768 16.5559 26.5903 16.6767C26.5672 16.7089 26.5514 16.7443 26.5406 16.7808C26.3372 16.6304 26.0763 16.5082 25.8313 16.6107C25.6832 16.6721 25.5066 16.8267 25.5066 17.2153C25.5066 17.5136 25.6204 17.8362 25.7411 18.178C25.9412 18.7448 26.0665 19.1616 25.8546 19.3604C25.7375 19.4702 25.6204 19.5117 25.5063 19.4829C25.2968 19.4297 25.0893 19.1506 24.9512 18.7362C24.9451 18.7182 24.9326 18.7051 24.924 18.689C24.9955 18.1626 24.9643 17.5285 24.8203 16.8088C24.7837 16.6247 24.6051 16.5048 24.4204 16.5423C24.2363 16.5792 24.1171 16.7581 24.1539 16.9422C24.3758 18.0519 24.3092 18.9572 23.9759 19.3638C23.847 19.5211 23.6854 19.5941 23.4677 19.5941C23.3988 19.5941 23.3518 19.5722 23.3051 19.5184C23.037 19.2094 23.0381 18.2125 23.1246 17.6029C23.1384 17.5057 23.1092 17.4068 23.0446 17.3324C22.9801 17.2581 22.8865 17.2153 22.7881 17.2153C22.2034 17.2153 21.9817 17.8803 21.786 18.467C21.7003 18.725 21.5403 19.2044 21.4288 19.2542C21.2231 19.2542 21.0901 18.6502 21.089 18.2344C21.0884 18.0469 20.9365 17.8953 20.7491 17.8953C20.7491 17.8953 20.7488 17.8953 20.7485 17.8953C20.561 17.8953 20.4092 18.0472 20.4092 18.2347C20.4092 19.0185 20.6762 19.9338 21.4287 19.9338C21.9891 19.9338 22.216 19.3232 22.4061 18.7557C22.4391 19.207 22.541 19.6746 22.7915 19.9633C22.9676 20.1665 23.2013 20.2736 23.4677 20.2736C23.8872 20.2736 24.2445 20.108 24.5014 19.7947C24.5479 19.738 24.588 19.6729 24.6275 19.6072C24.8248 19.8876 25.0669 20.0727 25.3396 20.1415C25.4196 20.1618 25.5001 20.172 25.5797 20.172C25.842 20.172 26.0983 20.0638 26.3197 19.8557C26.3657 19.8124 26.3981 19.7652 26.4332 19.7186C26.5163 19.7423 26.6006 19.7564 26.6843 19.7564C26.9596 19.7564 27.2246 19.6456 27.389 19.54C27.5464 19.4391 27.5919 19.2307 27.492 19.0727C27.3919 18.9151 27.1825 18.8679 27.0241 18.9668C27.0212 18.9682 26.7942 19.0987 26.6394 19.068C26.6398 18.6955 26.5051 18.2999 26.382 17.9513C26.312 17.7528 26.2401 17.5495 26.2062 17.3833C26.2343 17.4069 26.2616 17.4314 26.2861 17.4552C26.4185 17.5879 26.6338 17.5879 26.7665 17.4552C26.7885 17.4333 26.8012 17.4066 26.8158 17.3809C27.1681 17.8662 27.8926 18.8859 28.6378 20.0614C28.7801 21.5062 28.9049 23.3493 28.9049 25.3707C28.9049 25.5585 29.057 25.7106 29.2447 25.7106C29.4324 25.711 29.5846 25.5591 29.5846 25.3712Z" fill="#F5F5F5"/>
<path d="M29.9239 17.8962C29.9239 18.084 30.0761 18.236 30.2638 18.236C30.4514 18.236 30.6036 18.0841 30.6036 17.8962C30.6036 17.4963 30.2907 16.8502 30.2279 16.7247C30.1439 16.5571 29.94 16.4894 29.772 16.5727C29.6041 16.6567 29.5359 16.8608 29.62 17.0287C29.7426 17.2739 29.9239 17.7189 29.9239 17.8962Z" fill="#F5F5F5"/>
<path d="M28.3773 25.4101C28.2107 25.3251 28.006 25.3925 27.9211 25.5598C27.8846 25.6311 27.828 25.7105 27.7803 25.7615C27.7653 25.6265 27.8012 25.3567 27.8697 25.133C27.9153 24.9837 27.8534 24.8224 27.7197 24.7421C27.5865 24.6615 27.4148 24.6824 27.3045 24.7929L26.6249 25.4725C26.4922 25.6052 26.4922 25.8202 26.6249 25.9529C26.7576 26.0857 26.9727 26.0857 27.1054 25.9529L27.1227 25.9357C27.1521 26.0721 27.2083 26.1965 27.3046 26.2928C27.4321 26.4202 27.5861 26.4876 27.7461 26.4876C27.7772 26.4876 27.8083 26.4849 27.8396 26.48C28.2245 26.4176 28.4642 25.9932 28.5284 25.8647C28.6119 25.6971 28.5443 25.4945 28.3773 25.4101Z" fill="#F5F5F5"/>
<path d="M28.2455 22.6737H25.8504C25.8716 22.5891 25.8935 22.5083 25.9159 22.4318C26.871 22.2332 27.4386 21.9249 27.6055 21.5136C27.6632 21.3709 27.7235 21.0826 27.4777 20.751C27.2561 20.4523 26.9434 20.3183 26.6186 20.3846C26.1357 20.4825 25.7054 21.0028 25.3967 21.8358C24.4375 22 23.8234 22.3444 23.4346 22.6841C23.2967 21.2915 22.7562 20.4643 22.7298 20.4249C22.6256 20.2686 22.4145 20.2264 22.2587 20.3306C22.1025 20.4348 22.0604 20.6456 22.1643 20.8018C22.1705 20.8111 22.7869 21.7539 22.7869 23.3319C22.7869 24.8829 21.5501 26.0504 20.748 26.0504C20.3665 26.0504 20.1994 25.5969 20.126 25.2133C20.9114 24.6629 21.6044 24.026 21.7574 23.4141C21.9645 22.5861 21.7039 21.9758 21.5314 21.572C21.5233 21.5535 21.5148 21.5335 21.5062 21.5129C21.5135 21.5196 21.5205 21.5265 21.5274 21.5331C21.6598 21.6659 21.8751 21.6659 22.0078 21.5331C22.1405 21.4004 22.1405 21.1854 22.0078 21.0527C21.8091 20.8539 21.4234 20.5415 21.0727 20.6883C20.9246 20.7497 20.748 20.9043 20.748 21.2929C20.748 21.4685 20.8214 21.64 20.9063 21.8391C21.0593 22.1972 21.2497 22.6429 21.0979 23.2495C21.0082 23.6084 20.5674 24.0439 19.9856 24.4763C19.9232 24.4017 19.8332 24.3516 19.7285 24.3516H19.7279C19.5404 24.3519 19.3885 24.5036 19.3885 24.6911C19.3885 24.7522 19.3913 24.8175 19.3952 24.8846C18.6679 25.3556 17.845 25.7915 17.2089 26.0808C17.0382 26.1585 16.9627 26.3599 17.0403 26.5308C17.0972 26.6559 17.2207 26.7299 17.3498 26.7299C17.3968 26.7299 17.4447 26.7203 17.4902 26.6994C17.6812 26.6126 18.5882 26.1901 19.5198 25.6127C19.6914 26.1952 20.0549 26.7301 20.7479 26.7301C21.5631 26.7301 22.488 26.0635 23.0216 25.0683C23.0861 25.1821 23.1601 25.291 23.2485 25.3927C24.1039 26.379 25.7746 26.3903 25.8453 26.3903C26.0283 26.3903 26.1783 26.2455 26.1849 26.0627C26.1914 25.8798 26.052 25.7245 25.8696 25.7117C25.8669 25.7114 25.5961 25.6815 25.4455 25.5056C25.3545 25.3994 25.3182 25.2534 25.3342 25.0593C25.369 24.6406 26.7199 24.3275 27.9104 24.309C28.0523 24.3067 28.1779 24.2167 28.2254 24.083L28.5653 23.1274C28.6022 23.0235 28.5864 22.9077 28.5226 22.8178C28.4596 22.7274 28.3558 22.6737 28.2455 22.6737ZM26.7539 21.0509C26.7603 21.0497 26.7689 21.0476 26.7797 21.0476C26.8123 21.0476 26.8635 21.0635 26.9319 21.1558C26.9448 21.1731 26.9862 21.2321 26.9757 21.258C26.9368 21.3542 26.7021 21.5132 26.2133 21.6573C26.4283 21.2377 26.6385 21.0742 26.7539 21.0509ZM24.7016 25.518C24.3564 25.4058 24.0046 25.228 23.761 24.9462C23.4933 24.6367 23.3945 24.2451 23.4593 23.7495C23.4691 23.7235 23.4914 23.6722 23.5302 23.6055C24.0088 23.5617 25.2872 23.7502 25.3757 24.1163C24.9814 24.3176 24.691 24.6006 24.6574 25.003C24.6405 25.2048 24.6611 25.3757 24.7016 25.518Z" fill="#F5F5F5"/>
<path d="M31.9454 17.7892L31.6055 16.7697C31.5508 16.6058 31.3807 16.5078 31.2121 16.5449C31.0427 16.5812 30.9277 16.7387 30.945 16.911C31.1795 19.2559 31.623 23.8288 31.623 24.3532C31.623 24.8241 30.7854 25.7513 29.4321 26.428C29.2642 26.512 29.1961 26.716 29.2802 26.884C29.3397 27.0031 29.4597 27.0718 29.5845 27.0718C29.6354 27.0718 29.6874 27.0602 29.7361 27.0359C30.9723 26.4178 32.3027 25.3147 32.3027 24.3532C32.3027 23.8512 31.9555 20.2386 31.7565 18.2093C31.9176 18.1405 32.0017 17.9585 31.9454 17.7892Z" fill="#F5F5F5"/>
<path d="M34.781 20.8546C34.8464 20.92 34.9333 20.9542 35.0214 20.9542C35.0788 20.9542 35.1367 20.9397 35.1893 20.9097C35.3222 20.834 35.3882 20.6787 35.3506 20.5304C35.2898 20.2915 35.2695 19.9928 35.3017 19.8707C35.4719 19.876 35.6299 19.7549 35.6549 19.5793C35.6814 19.3935 35.5524 19.2212 35.3666 19.1948C35.1419 19.1643 34.9447 19.2303 34.8069 19.3835C34.7176 19.4831 34.6645 19.6109 34.6357 19.7483L34.2421 19.3547C34.1094 19.222 33.8944 19.222 33.7616 19.3547C33.6289 19.4874 33.6289 19.7025 33.7616 19.8352L34.781 20.8546Z" fill="#F5F5F5"/>
<path d="M35.5452 21.2087L34.2708 22.122C34.1184 22.2312 34.0831 22.4436 34.1925 22.5962C34.2589 22.6888 34.3632 22.7379 34.4692 22.7379C34.5377 22.7379 34.6069 22.7173 34.6668 22.6742L35.9411 21.7609C36.0936 21.6518 36.1288 21.4394 36.0195 21.2867C35.9099 21.134 35.6972 21.0984 35.5452 21.2087Z" fill="#F5F5F5"/>
<path d="M35.4329 22.4867C35.326 22.6244 35.3413 22.8183 35.4627 22.9374C35.4772 22.962 35.5435 23.092 35.5315 23.4266C35.5249 23.6144 35.6716 23.7717 35.8591 23.7783C35.8632 23.7786 35.8674 23.7786 35.8714 23.7786C36.0536 23.7786 36.2043 23.6342 36.2108 23.4511C36.2355 22.7575 36.0086 22.504 35.9098 22.4273C35.762 22.3115 35.5481 22.3388 35.4329 22.4867Z" fill="#F5F5F5"/>
<path d="M38.3986 24.9898C38.5863 24.9898 38.7385 24.8379 38.7385 24.65C38.7385 24.1486 38.7127 23.5889 38.6706 23.0065C39.0076 23.5587 39.2875 24.0678 39.467 24.4864C39.5221 24.6155 39.6475 24.6925 39.7794 24.6925C39.824 24.6925 39.8694 24.6839 39.9131 24.6649C40.0856 24.5909 40.1654 24.3911 40.0914 24.2189C39.7803 23.4929 39.1988 22.5312 38.5366 21.5383C38.4033 20.291 38.2292 19.0689 38.0939 18.1922C38.1658 18.1995 38.2405 18.1819 38.3061 18.1394C38.4134 18.0706 38.4637 17.9512 38.4565 17.8323C38.4651 17.8657 38.4745 17.8992 38.4941 17.93C38.4964 17.9333 38.7148 18.294 38.6179 18.762C38.5798 18.9455 38.6981 19.1254 38.8818 19.1635C38.9051 19.1681 38.9283 19.1705 38.951 19.1705C39.1087 19.1705 39.2501 19.06 39.2835 18.8994C39.4369 18.157 39.0825 17.589 39.0675 17.565C38.9666 17.407 38.7565 17.3607 38.5982 17.4608C38.4904 17.5295 38.4395 17.649 38.4464 17.7682C38.4376 17.7346 38.4279 17.7008 38.4081 17.67L37.8346 16.778C37.747 16.6419 37.5755 16.5868 37.4251 16.6453C37.2742 16.7044 37.186 16.8613 37.214 17.0206C37.2188 17.0474 37.4784 18.5386 37.7086 20.3359C37.4481 19.9681 37.1876 19.6084 36.935 19.265C36.894 18.7509 36.8528 18.2756 36.8171 17.8825C36.8359 17.877 36.8543 17.8696 36.8724 17.8607C37.0402 17.7767 37.1084 17.5726 37.0243 17.4047L36.6845 16.7251C36.6111 16.5784 36.4438 16.5054 36.2861 16.5505C36.1287 16.5963 36.0261 16.7476 36.0424 16.9108C36.0829 17.3164 36.1251 17.7653 36.1665 18.2369C35.9516 17.9536 35.7528 17.6942 35.5825 17.4746C35.6157 17.4461 35.6441 17.4107 35.665 17.3688C35.7489 17.2009 35.6809 16.9968 35.513 16.9128L34.8334 16.573C34.6908 16.502 34.5178 16.5392 34.4171 16.6633C34.3169 16.7874 34.3163 16.9646 34.4161 17.0894C34.4345 17.1122 35.2712 18.161 36.2721 19.5147C36.4457 21.76 36.5613 24.0956 36.3981 24.5852C36.3682 24.6748 36.316 24.7804 36.2671 24.7841C36.0617 24.8126 35.5715 24.3534 35.3253 23.8612C35.1834 23.5778 34.9793 23.5483 34.8701 23.5532C34.5049 23.5758 34.3624 23.9776 34.1034 24.7071C33.9178 25.2298 33.6871 25.8796 33.4281 26.1454C33.2878 25.9739 33.1064 25.3986 33.0056 24.8075C33.0529 24.9382 33.1752 25.0327 33.3223 25.0327C33.51 25.0327 33.6621 24.8808 33.6621 24.6929C33.6621 24.186 33.3077 20.3266 33.1098 18.2114C33.2751 18.145 33.362 17.9603 33.3049 17.789L32.9651 16.7694C32.9105 16.6056 32.7428 16.5089 32.5723 16.5444C32.4032 16.5803 32.2879 16.7372 32.3043 16.9092C32.5353 19.3334 32.9683 24.0158 32.9818 24.6621C32.9809 24.6562 32.9797 24.6506 32.9789 24.6447C32.9526 24.4589 32.7791 24.3314 32.5945 24.3563C32.4086 24.3832 32.2797 24.5552 32.3062 24.7409C32.4054 25.4355 32.659 26.6298 33.243 26.8243C33.2891 26.8399 33.3512 26.8538 33.424 26.8538C33.558 26.8538 33.7281 26.8063 33.9023 26.6321C34.2724 26.2621 34.5229 25.5565 34.7439 24.9344C34.7938 24.7936 34.853 24.627 34.9086 24.4844C35.2203 24.9396 35.7643 25.5064 36.3153 25.4621C36.5091 25.4482 36.8615 25.344 37.0428 24.8004C37.2235 24.2583 37.1521 22.3678 37.0303 20.5578C37.3166 20.9591 37.6031 21.37 37.8766 21.7758C37.9826 22.7935 38.0584 23.813 38.0584 24.6504C38.0589 24.8378 38.211 24.9898 38.3986 24.9898Z" fill="#F5F5F5"/>
<path d="M40.9767 23.2032C40.736 21.4098 40.4007 19.3324 40.1883 18.0574C40.2842 18.081 40.3887 18.0617 40.4729 17.997C40.6223 17.8832 40.6509 17.6697 40.5369 17.5208L39.921 16.7137C39.826 16.5895 39.6583 16.5458 39.5148 16.6085C39.3713 16.6712 39.2892 16.8239 39.316 16.9782C39.3222 17.013 39.9281 20.5014 40.3029 23.2934C40.4461 24.3603 40.2371 25.3138 39.7434 25.8434C39.4262 26.1837 39.0058 26.3376 38.497 26.308C38.3101 26.298 38.1481 26.4386 38.1364 26.6258C38.1247 26.813 38.2668 26.9744 38.4542 26.9862C38.5116 26.9899 38.5682 26.9915 38.6242 26.9915C39.265 26.9915 39.8212 26.7566 40.2405 26.3065C40.881 25.6198 41.1494 24.4884 40.9767 23.2032Z" fill="#F5F5F5"/>
<path d="M37.238 25.4431C37.1131 25.5788 37.1227 25.7925 37.2548 25.9207C37.2733 25.9386 37.2953 25.9738 37.2954 25.9911C37.2956 26.0007 37.2819 26.0293 37.2441 26.0671C37.1114 26.1998 37.1114 26.4148 37.2441 26.5476C37.3105 26.614 37.3974 26.6472 37.4844 26.6472C37.5713 26.6472 37.6583 26.614 37.7247 26.5476C37.9403 26.3321 37.9798 26.1135 37.9749 25.9678C37.9645 25.6542 37.7509 25.4518 37.7083 25.4143C37.5694 25.2935 37.3628 25.308 37.238 25.4431Z" fill="#F5F5F5"/>
<path d="M36.0406 32.8945H35.7007H33.6619V32.5547C33.6619 32.3669 33.5097 32.2148 33.322 32.2148C33.1343 32.2148 32.9822 32.3668 32.9822 32.5547V32.8945H14.9717C15.6513 33.5741 17.0105 33.9141 18.0301 33.9141C18.7612 33.9141 27.8815 33.9141 32.9822 33.9141V34.5936C32.9822 34.7814 33.1343 34.9335 33.322 34.9335H36.0406C36.6028 34.9335 37.0601 34.4762 37.0601 33.914C37.0601 33.3518 36.6028 32.8945 36.0406 32.8945ZM36.0406 34.2538H33.6618V33.914C35.2995 33.914 36.3803 33.914 36.3803 33.914L36.3193 33.731C36.3546 33.7846 36.3803 33.845 36.3803 33.914C36.3803 34.1016 36.2279 34.2538 36.0406 34.2538Z" fill="#F5F5F5"/>
</g>
<defs>
<clipPath id="clip0_3462_29721">
<rect width="50" height="50" fill="white" transform="translate(0.914062 0.318359)"/>
</clipPath>
</defs>
</svg>
