<svg width="51" height="51" viewBox="0 0 51 51" fill="none" xmlns="http://www.w3.org/2000/svg">
<g clip-path="url(#clip0_3462_29718)">
<path d="M49.4815 8.93945H1.20586C0.729784 8.93945 0.34375 9.32539 0.34375 9.80146V40.8359C0.34375 41.312 0.729784 41.698 1.20586 41.698H49.4816C49.9577 41.698 50.3437 41.312 50.3437 40.8359V9.80146C50.3437 9.32539 49.9576 8.93945 49.4815 8.93945Z" fill="#4173CD"/>
<path d="M50.3437 9.80156C50.3437 9.32549 49.9576 8.93945 49.4815 8.93945H45.624L25.3437 22.2267L5.06337 8.93955H1.20586C0.729784 8.93955 0.34375 9.32549 0.34375 9.80156V12.0316L20.6241 25.3188L0.34375 38.606V40.8361C0.34375 41.3122 0.729784 41.6982 1.20586 41.6982H5.06337L25.3437 28.4109L45.624 41.6981H49.4815C49.9576 41.6981 50.3437 41.3121 50.3437 40.836V38.6059L30.0633 25.3188L50.3437 12.0316V9.80156Z" fill="#F5F5F5"/>
</g>
<defs>
<clipPath id="clip0_3462_29718">
<rect width="50" height="50" fill="white" transform="translate(0.34375 0.318359)"/>
</clipPath>
</defs>
</svg>
