<svg width="51" height="51" viewBox="0 0 51 51" fill="none" xmlns="http://www.w3.org/2000/svg">
<g clip-path="url(#clip0_3462_29713)">
<path d="M17.3044 41.6981H1.4998C1.02373 41.6981 0.637695 41.3121 0.637695 40.836V9.80156C0.637695 9.32549 1.02373 8.93945 1.4998 8.93945H17.3044V41.6981Z" fill="#73AF00"/>
<path d="M33.9717 8.93945H17.3047V41.6982H33.9717V8.93945Z" fill="#FFE15A"/>
<path d="M49.7753 41.698H33.9707V8.93945H49.7753C50.2514 8.93945 50.6374 9.32549 50.6374 9.80156V40.836C50.6374 41.3122 50.2514 41.698 49.7753 41.698Z" fill="#FF4B55"/>
<path d="M25.8372 20.4132L26.9791 23.8372L30.5883 23.8652C30.7902 23.8669 30.8739 24.1244 30.7115 24.2442L27.808 26.3883L28.8966 29.8296C28.9575 30.0221 28.7384 30.1812 28.5742 30.0639L25.6379 27.9649L22.7015 30.0638C22.5373 30.1811 22.3182 30.022 22.3791 29.8295L23.4677 26.3882L20.5642 24.2441C20.4018 24.1242 20.4855 23.8667 20.6874 23.8651L24.2966 23.8371L25.4385 20.4131C25.5025 20.2217 25.7734 20.2217 25.8372 20.4132Z" fill="#73AF00"/>
</g>
<defs>
<clipPath id="clip0_3462_29713">
<rect width="50" height="50" fill="white" transform="translate(0.636719 0.318359)"/>
</clipPath>
</defs>
</svg>
