<svg width="51" height="51" viewBox="0 0 51 51" fill="none" xmlns="http://www.w3.org/2000/svg">
<g clip-path="url(#clip0_3462_29672)">
<path d="M0.0664062 30.7773H50.0663V40.8347C50.0663 41.3108 49.6803 41.6969 49.2042 41.6969H0.928514C0.452441 41.6969 0.0664062 41.3108 0.0664062 40.8347V30.7773Z" fill="#F5F5F5"/>
<path d="M0.928514 8.93945H49.2043C49.6804 8.93945 50.0664 9.32549 50.0664 9.80156V19.859H0.0664062V9.80146C0.0664062 9.32539 0.452441 8.93945 0.928514 8.93945Z" fill="#FF4B55"/>
<path d="M50.0663 19.8574H0.0664062V30.7763H50.0663V19.8574Z" fill="#41479B"/>
<path d="M16.9636 19.8564H10.7566L10.498 18.3047H17.2222L16.9636 19.8564Z" fill="#FFE15A"/>
<path d="M10.6914 19.4688L10.7561 19.8567H16.963L17.0276 19.4688H10.6914Z" fill="#FFD350"/>
<path d="M13.9884 14.6836H13.7305V15.7181H13.9884V14.6836Z" fill="#FFE15A"/>
<path d="M14.2476 14.9414H13.4717V15.2H14.2476V14.9414Z" fill="#FFE15A"/>
<path d="M16.9834 18.8224C16.9541 18.8224 16.9244 18.8173 16.8953 18.8069C16.761 18.7582 16.6915 18.61 16.7403 18.4756L17.2881 16.9638C17.3153 16.8888 17.3088 16.8062 17.2705 16.7373C17.2501 16.7007 17.2027 16.6362 17.112 16.6168C16.4441 16.4749 15.1495 16.2362 13.9847 16.2362H13.7349C12.5702 16.2362 11.2755 16.4749 10.6074 16.6171C10.5169 16.6362 10.4693 16.7007 10.449 16.7373C10.4107 16.8062 10.4042 16.8888 10.4315 16.9638L10.9791 18.4756C11.0279 18.61 10.9584 18.7582 10.8242 18.8069C10.69 18.8549 10.5415 18.7859 10.4929 18.6519L9.94507 17.14C9.86694 16.9243 9.8856 16.6861 9.99643 16.4863C10.1036 16.2932 10.2868 16.1562 10.4993 16.111C11.1874 15.9646 12.5225 15.7188 13.7347 15.7188H13.9845C15.1967 15.7188 16.5318 15.9645 17.2197 16.1106C17.4325 16.1562 17.6157 16.293 17.7228 16.4862C17.8336 16.686 17.8523 16.9241 17.7743 17.1399L17.2263 18.6518C17.1885 18.757 17.0891 18.8224 16.9834 18.8224Z" fill="#FFE15A"/>
<path d="M13.8611 18.595C13.7184 18.595 13.6025 18.4794 13.6025 18.3364V16.2352C13.6025 16.0922 13.7184 15.9766 13.8611 15.9766C14.0039 15.9766 14.1197 16.0922 14.1197 16.2352V18.3364C14.1198 18.4793 14.004 18.595 13.8611 18.595Z" fill="#FFE15A"/>
<path d="M15.6488 18.8223C15.6313 18.8223 15.6136 18.8205 15.596 18.817C15.4561 18.7879 15.3662 18.6511 15.3953 18.5111L15.709 16.9993C15.7498 16.8023 15.6859 16.6298 15.6496 16.5995C15.291 16.468 14.5716 16.236 13.9314 16.236H13.7883C13.1483 16.236 12.4289 16.468 12.0569 16.6062C12.034 16.6298 11.9701 16.8022 12.0108 16.9992L12.3245 18.511C12.3536 18.6509 12.2637 18.7879 12.1238 18.8169C11.9838 18.8439 11.8468 18.756 11.8181 18.6161L11.5045 17.1043C11.4263 16.7274 11.5463 16.2448 11.8763 16.1216C12.3708 15.9378 13.1034 15.7188 13.7883 15.7188H13.9313C14.6163 15.7188 15.3489 15.9377 15.843 16.1213C16.1734 16.2448 16.2933 16.7274 16.2152 17.1043L15.9015 18.6161C15.8763 18.7385 15.7687 18.8223 15.6488 18.8223Z" fill="#FFE15A"/>
<path d="M10.5627 18.6926H17.1575L17.2222 18.3047H10.498L10.5627 18.6926Z" fill="#FFD350"/>
<path d="M8.94609 19.8555C8.80332 19.8555 8.6875 19.9713 8.6875 20.1141V29.1459C8.6875 32.0136 11.0032 34.3383 13.86 34.3383C16.7167 34.3383 19.0324 32.0136 19.0324 29.1459V20.1141C19.0324 19.9713 18.9166 19.8555 18.7738 19.8555H8.94609Z" fill="#FF4B55"/>
<path d="M14.3772 28.3907L14.8945 27.0977L13.8601 27.3563L12.8256 27.0977L13.3429 28.3907L12.0498 32.7873C12.0498 32.7873 12.8257 33.3046 13.8602 33.3046C14.8946 33.3046 15.6705 32.7873 15.6705 32.7873L14.3772 28.3907Z" fill="#F5F5F5"/>
<path d="M11.9869 29.4339L11.5306 29.548L12.5344 27.7413L12.0822 27.4902L10.863 29.6848H9.72207V30.202H10.2777L9.56055 30.7758L9.88359 31.1799L10.4929 30.6924L10.2525 31.4133L10.7433 31.5768L11.2156 30.1598L12.1124 29.9355L11.9869 29.4339Z" fill="#FFE15A"/>
<path d="M12.0489 22.4432L10.8684 21.8528C10.6516 21.7444 10.5391 21.4999 10.5978 21.2647L10.6646 20.9977C10.7109 20.8123 10.5708 20.6328 10.3797 20.6328C10.2904 20.6328 10.2061 20.6733 10.1504 20.7431C9.53779 21.5088 9.2041 22.4602 9.2041 23.4408V28.9087C9.2041 28.9087 10.2841 28.6928 11.2596 27.2737C11.4387 27.0132 11.7335 26.859 12.0478 26.8429L11.5316 28.3914L12.5662 28.6501L13.4714 27.5729L12.0489 22.4432Z" fill="#F5F5F5"/>
<path d="M15.733 29.4339L16.1894 29.548L15.1855 27.7413L15.6377 27.4902L16.8568 29.6848H17.9978V30.202H17.4421L18.1594 30.7758L17.8363 31.1799L17.227 30.6924L17.4674 31.4133L16.9766 31.5768L16.5043 30.1598L15.6075 29.9355L15.733 29.4339Z" fill="#FFE15A"/>
<path d="M15.6694 22.4432L16.85 21.8528C17.0668 21.7444 17.1793 21.4999 17.1205 21.2647L17.0537 20.9977C17.0074 20.8123 17.1476 20.6328 17.3387 20.6328C17.4279 20.6328 17.5123 20.6733 17.568 20.7431C18.1806 21.5088 18.5142 22.4602 18.5142 23.4408V28.9087C18.5142 28.9087 17.4343 28.6928 16.4588 27.2737C16.2797 27.0132 15.9849 26.859 15.6705 26.8429L16.1867 28.3914L15.1522 28.65L14.2471 27.5728L15.6694 22.4432Z" fill="#F5F5F5"/>
<path d="M12.3088 20.6328H11.0156L11.4036 21.1501L12.3088 21.4087L11.7915 21.6673H12.5674L12.3088 20.6328Z" fill="#FFE15A"/>
<path d="M15.4119 20.6328H16.705L16.3171 21.1501L15.4119 21.4087L15.9292 21.6673H15.1533L15.4119 20.6328Z" fill="#FFE15A"/>
<path d="M15.5934 20.4302L14.3768 20.633L13.8596 21.6674L13.3423 20.633L12.1257 20.4302C11.9862 20.407 11.8792 20.5518 11.9425 20.6783L12.5665 21.9261L12.0492 22.4434H13.8596H15.6699L15.1526 21.9261L15.7765 20.6783C15.8398 20.5517 15.7329 20.4069 15.5934 20.4302Z" fill="#F5F5F5"/>
<path d="M13.8596 18.8051C14.0738 18.8051 14.2475 18.6314 14.2475 18.4172C14.2475 18.203 14.0738 18.0293 13.8596 18.0293C13.6453 18.0293 13.4717 18.203 13.4717 18.4172C13.4717 18.6314 13.6453 18.8051 13.8596 18.8051Z" fill="#FFBE50"/>
<path d="M13.8544 19.56C14.0237 19.56 14.1609 19.4635 14.1609 19.3444C14.1609 19.2254 14.0237 19.1289 13.8544 19.1289C13.6851 19.1289 13.5479 19.2254 13.5479 19.3444C13.5479 19.4635 13.6851 19.56 13.8544 19.56Z" fill="#41479B"/>
<path d="M12.3241 19.56C12.4934 19.56 12.6307 19.4635 12.6307 19.3444C12.6307 19.2254 12.4934 19.1289 12.3241 19.1289C12.1548 19.1289 12.0176 19.2254 12.0176 19.3444C12.0176 19.4635 12.1548 19.56 12.3241 19.56Z" fill="#FF4B55"/>
<path d="M10.7938 19.56C10.9631 19.56 11.1004 19.4635 11.1004 19.3444C11.1004 19.2254 10.9631 19.1289 10.7938 19.1289C10.6245 19.1289 10.4873 19.2254 10.4873 19.3444C10.4873 19.4635 10.6245 19.56 10.7938 19.56Z" fill="#41479B"/>
<path d="M16.9149 19.56C17.0842 19.56 17.2215 19.4635 17.2215 19.3444C17.2215 19.2254 17.0842 19.1289 16.9149 19.1289C16.7456 19.1289 16.6084 19.2254 16.6084 19.3444C16.6084 19.4635 16.7456 19.56 16.9149 19.56Z" fill="#41479B"/>
<path d="M15.3837 19.56C15.553 19.56 15.6902 19.4635 15.6902 19.3444C15.6902 19.2254 15.553 19.1289 15.3837 19.1289C15.2144 19.1289 15.0771 19.2254 15.0771 19.3444C15.0771 19.4635 15.2144 19.56 15.3837 19.56Z" fill="#FF4B55"/>
<path d="M15.6555 18.8051C15.8697 18.8051 16.0434 18.6314 16.0434 18.4172C16.0434 18.203 15.8697 18.0293 15.6555 18.0293C15.4412 18.0293 15.2676 18.203 15.2676 18.4172C15.2676 18.6314 15.4412 18.8051 15.6555 18.8051Z" fill="#FFBE50"/>
<path d="M17.0734 18.8051C17.2877 18.8051 17.4613 18.6314 17.4613 18.4172C17.4613 18.203 17.2877 18.0293 17.0734 18.0293C16.8592 18.0293 16.6855 18.203 16.6855 18.4172C16.6855 18.6314 16.8592 18.8051 17.0734 18.8051Z" fill="#FFBE50"/>
<path d="M12.0627 18.8051C12.2769 18.8051 12.4506 18.6314 12.4506 18.4172C12.4506 18.203 12.2769 18.0293 12.0627 18.0293C11.8485 18.0293 11.6748 18.203 11.6748 18.4172C11.6748 18.6314 11.8485 18.8051 12.0627 18.8051Z" fill="#FFBE50"/>
<path d="M10.6437 18.8051C10.858 18.8051 11.0316 18.6314 11.0316 18.4172C11.0316 18.203 10.858 18.0293 10.6437 18.0293C10.4295 18.0293 10.2559 18.203 10.2559 18.4172C10.2559 18.6314 10.4295 18.8051 10.6437 18.8051Z" fill="#FFBE50"/>
<path d="M14.3046 16.2349C14.349 16.1586 14.3764 16.071 14.3764 15.9763C14.3764 15.6906 14.1448 15.459 13.8591 15.459C13.5733 15.459 13.3418 15.6905 13.3418 15.9763C13.3418 16.071 13.369 16.1586 13.4136 16.2349H14.3046Z" fill="#41479B"/>
<path d="M13.8596 27.7435C12.7899 27.7435 11.9199 26.8735 11.9199 25.8039V22.3125H15.7992V25.8039C15.7992 26.8736 14.9292 27.7435 13.8596 27.7435Z" fill="#FF4B55"/>
<path d="M15.6702 22.4422V25.8043C15.6702 26.8041 14.8597 27.6146 13.8599 27.6146C12.8601 27.6146 12.0495 26.8041 12.0495 25.8043V22.4422H15.6702V22.4422ZM15.9289 22.1836H15.6703H12.0496H11.791V22.4422V25.8043C11.791 26.9451 12.7191 27.8732 13.86 27.8732C15.0008 27.8732 15.9289 26.9451 15.9289 25.8043V22.4422V22.1836V22.1836Z" fill="#A54B50"/>
<path d="M13.4728 27.5712C13.5979 27.5985 13.7273 27.6139 13.8606 27.6139C13.9939 27.6139 14.1234 27.5984 14.2485 27.5712V22.4414H13.4727C13.4728 22.4414 13.4728 27.5712 13.4728 27.5712Z" fill="#F5F5F5"/>
<path d="M15.6709 24.5742H12.0498V25.3501H15.6709V24.5742Z" fill="#F5F5F5"/>
</g>
<defs>
<clipPath id="clip0_3462_29672">
<rect width="50" height="50" fill="white" transform="translate(0.0664062 0.318359)"/>
</clipPath>
</defs>
</svg>
