<svg width="51" height="51" viewBox="0 0 51 51" fill="none" xmlns="http://www.w3.org/2000/svg">
<g clip-path="url(#clip0_3462_29666)">
<path d="M1.22246 41.6969H49.4983C49.9743 41.6969 50.3604 41.3108 50.3604 40.8347V30.7773L0.833984 41.5933C0.952051 41.6543 1.08037 41.6969 1.22246 41.6969Z" fill="#73AF00"/>
<path d="M17.027 8.93945H1.22246C0.746386 8.93945 0.360352 9.32549 0.360352 9.80156V40.8359C0.360352 41.0285 0.435449 41.1971 0.542187 41.3407L17.027 8.93945Z" fill="#41479B"/>
<path d="M0.615332 41.4473L33.6934 8.93945H17.0268L0.541992 41.3406C0.567773 41.3753 0.58457 41.4167 0.615332 41.4473Z" fill="#FFE15A"/>
<path d="M49.4979 8.93945H33.6933L0.615234 41.4474C0.651074 41.483 0.699023 41.503 0.740625 41.5319L50.36 19.859V9.80156C50.36 9.32549 49.9739 8.93945 49.4979 8.93945Z" fill="#FF4B55"/>
<path d="M0.834375 41.5949L50.3605 30.7788V19.8594L0.741211 41.5322C0.772168 41.5537 0.800683 41.5777 0.834375 41.5949Z" fill="#F5F5F5"/>
</g>
<defs>
<clipPath id="clip0_3462_29666">
<rect width="50" height="50" fill="white" transform="translate(0.359375 0.318359)"/>
</clipPath>
</defs>
</svg>
