<svg width="51" height="51" viewBox="0 0 51 51" fill="none" xmlns="http://www.w3.org/2000/svg">
<g clip-path="url(#clip0_3462_29608)">
<path d="M49.9269 41.6981H1.65117C1.1751 41.6981 0.789062 41.3121 0.789062 40.836V9.80156C0.789062 9.32549 1.1751 8.93945 1.65117 8.93945H49.927C50.403 8.93945 50.7891 9.32549 50.7891 9.80156V40.836C50.789 41.3121 50.4029 41.6981 49.9269 41.6981Z" fill="#FFE15A"/>
<path d="M49.9262 8.93945H1.65049C1.44092 8.93945 1.25586 9.02344 1.10645 9.14785L50.4703 41.4897C50.6603 41.3316 50.7883 41.1025 50.7883 40.836V9.80146C50.7883 9.32539 50.4023 8.93945 49.9262 8.93945Z" fill="#FF4B55"/>
<path d="M27.4319 23.0076C27.5284 22.9301 27.6082 22.8341 27.5779 22.7533C27.5527 22.6863 27.4282 22.6241 27.2964 22.5583C27.0517 22.436 26.7248 22.2683 26.6163 21.8665C26.6034 21.8652 26.5914 21.8664 26.578 21.864C26.4706 21.8441 26.4036 21.881 26.3259 22.1334C26.3116 22.1794 26.2813 22.2533 26.2412 22.3379C26.3217 22.3912 26.5227 22.5151 26.7185 22.5597C27.1063 22.6476 27.3452 22.7975 27.4319 23.0076Z" fill="#FFBE55"/>
<path d="M25.9268 22.8377C26.0426 22.9434 26.1489 23.0633 26.2535 23.1972C26.2596 23.2049 26.266 23.2126 26.2722 23.2202C26.532 23.021 26.8622 23.0198 27.0922 23.0574C27.0255 22.9883 26.8956 22.9205 26.6495 22.8645C26.4213 22.8127 26.2002 22.6835 26.0909 22.6133C26.0402 22.6942 25.9851 22.7711 25.9268 22.8377Z" fill="#FFBE55"/>
<path d="M27.2441 23.9814C27.3658 24.0519 27.6105 24.2103 27.8223 24.4388C27.8535 24.263 27.8442 24.0296 27.6791 23.8242C27.538 23.9022 27.387 23.9517 27.2441 23.9814Z" fill="#FFBE55"/>
<path d="M25.2184 21.9271L25.1775 21.9767C24.9743 22.2253 24.7438 22.4962 24.5234 22.7171C24.6575 22.6538 24.8155 22.6075 24.9794 22.5828C25.038 22.4889 25.2165 22.24 25.4358 21.9401C25.3829 21.9064 25.2779 21.855 25.2184 21.9271Z" fill="#FFBE55"/>
<path d="M24.4219 23.1874C24.4229 23.189 24.4367 23.206 24.4756 23.2207C24.5431 23.2467 24.6682 23.2556 24.7986 23.1955C25.1785 23.0187 25.5621 23.1154 25.9392 23.4803C25.9402 23.4813 25.9398 23.4831 25.9409 23.4842C25.942 23.4852 25.9437 23.4849 25.9447 23.486C25.947 23.4882 26.0738 23.6155 26.3026 23.7321C26.1927 23.6166 26.0939 23.4988 26.0086 23.3896C25.8719 23.2149 25.7536 23.0642 25.6129 22.9744C25.2558 22.7476 24.6337 22.9464 24.4578 23.132C24.4287 23.1626 24.4219 23.1826 24.4219 23.1874Z" fill="#FFBE55"/>
<path d="M27.3754 23.413C27.3754 23.413 27.3745 23.4131 27.3742 23.4133C27.3546 23.4225 27.3333 23.427 27.3113 23.4274C27.3103 23.4274 27.3094 23.4281 27.3084 23.4281C27.3061 23.4281 27.3042 23.4261 27.3019 23.426C27.2859 23.4253 27.2697 23.4242 27.2539 23.4185C27.2486 23.4165 26.7662 23.2466 26.4717 23.4599C26.5541 23.5525 26.6475 23.6381 26.7517 23.7161C26.8964 23.7194 27.3976 23.7108 27.683 23.4441C27.8271 23.3096 27.8394 23.1625 27.8151 23.0469C27.7086 23.2136 27.52 23.3441 27.3754 23.413Z" fill="#FFBE55"/>
<path d="M22.9753 23.2533C22.951 23.2181 22.9244 23.1875 22.9036 23.1458C22.8693 23.0771 22.8513 23.0043 22.833 22.9316C22.7225 23.109 22.6061 23.385 22.6769 23.6904C22.7602 23.4929 22.8859 23.3427 22.9753 23.2533Z" fill="#FFBE55"/>
<path d="M25.6703 22.6586C25.8107 22.512 25.9836 22.1864 26.028 22.0419C26.0707 21.9026 26.2007 21.4788 26.6341 21.5573C26.7306 21.5751 26.802 21.5138 26.8457 21.4597C26.7403 21.3395 26.6025 21.2615 26.4829 21.2586C26.3935 21.2501 26.2909 21.307 26.2114 21.4138C25.8216 21.9391 25.5249 22.345 25.3643 22.5712C25.4723 22.5837 25.5741 22.6153 25.6703 22.6586Z" fill="#FFBE55"/>
<path d="M24.6643 21.7138C24.4226 22.0365 24.1686 22.2184 23.9833 22.3513C23.7392 22.5264 23.6788 22.5858 23.6935 22.7214C23.6965 22.749 23.7083 22.7694 23.7329 22.7889C23.7653 22.8147 23.8121 22.833 23.8652 22.8466C23.8685 22.845 23.8705 22.8422 23.8739 22.8408C24.1654 22.7221 24.746 22.0127 24.937 21.7795L24.9783 21.7291C25.1806 21.4844 25.4654 21.5824 25.6212 21.6886C25.675 21.6157 25.7292 21.5421 25.7834 21.4689C25.5018 21.1293 25.0363 21.218 24.6643 21.7138Z" fill="#FFBE55"/>
<path d="M27.122 21.6094C27.076 21.6758 27.0101 21.7448 26.9258 21.7966C27.0033 22.054 27.2198 22.1722 27.4362 22.28C27.5646 22.3439 27.6855 22.4079 27.7728 22.4983C27.8458 22.2368 27.8363 22.0287 27.7353 21.8842C27.5869 21.6722 27.2716 21.6206 27.122 21.6094Z" fill="#FFBE55"/>
<path d="M25.9827 30.9599L26.0167 30.9984C26.4458 31.4868 26.8511 31.9586 27.121 32.3559C27.1129 32.1413 27.0983 31.9191 27.0724 31.7647C27.0715 31.7599 27.071 31.7546 27.0707 31.7496C26.933 31.5717 26.7847 31.4059 26.6282 31.2656C26.1709 30.8569 25.9131 30.4469 25.7689 30.1309C25.7443 30.4027 25.7753 30.7242 25.9827 30.9599Z" fill="#FFBE55"/>
<path d="M25.7635 29.3848C25.7269 29.3205 25.6937 29.2514 25.6667 29.1743C25.6665 29.1736 25.6667 29.173 25.6664 29.1724C25.6642 29.1715 25.6619 29.1706 25.6596 29.1699C25.5661 29.3318 25.3949 29.4435 25.2119 29.4438C25.2119 29.4438 25.2112 29.4438 25.211 29.4438C25.1969 29.4438 25.1843 29.4384 25.1705 29.4372C25.1467 29.5425 25.139 29.6614 25.2056 29.725C25.2806 29.7973 25.4329 29.7963 25.5126 29.776C25.5513 29.6111 25.594 29.4943 25.5995 29.4809C25.626 29.415 25.6924 29.3767 25.7635 29.3848Z" fill="#FFBE55"/>
<path d="M25.4568 30.096C25.4404 30.0971 25.4253 30.0998 25.4081 30.0998C25.3616 30.0998 25.3133 30.0936 25.2648 30.084C25.2361 30.1916 25.2262 30.3131 25.2976 30.3862C25.3422 30.4319 25.4075 30.4496 25.4609 30.4529C25.4493 30.3298 25.4464 30.2086 25.4568 30.096Z" fill="#FFBE55"/>
<path d="M19.6569 23.1504L19.6561 23.1508C19.3429 23.2557 18.9709 23.23 18.6455 23.1662C18.8353 23.4588 18.9078 23.8114 18.9163 24.1393C19.325 23.6062 19.7774 23.362 20.1014 23.2463C19.9348 23.2314 19.7845 23.2006 19.6569 23.1504Z" fill="#FFBE55"/>
<path d="M27.0426 30.9055C26.9719 30.9 26.8124 30.8798 26.623 30.8223C26.6897 30.8928 26.7564 30.9633 26.8358 31.0344C27.3575 31.5008 27.7817 32.211 28.0588 32.7587C28.1575 32.4053 28.3897 32.1021 28.6394 31.8722C27.9423 31.8261 27.397 31.3406 27.0426 30.9055Z" fill="#FFBE55"/>
<path d="M23.5144 25.1962C23.4001 25.171 23.2717 25.1236 23.1467 25.0469C23.0632 25.3126 23.0048 25.5587 22.9727 25.7834C23.1455 25.7675 23.2762 25.7689 23.3651 25.7762C23.4077 25.5378 23.4666 25.3337 23.5144 25.1962Z" fill="#FFBE55"/>
<path d="M18.5919 24.4361C18.6293 24.0674 18.6093 23.4789 18.2003 23.1253C18.199 23.1251 18.1978 23.1255 18.1964 23.1254C18.1838 23.1237 17.0144 22.9551 16.234 23.7523C15.9404 24.0522 15.7495 24.287 15.5963 24.4754C15.3884 24.7314 15.2392 24.9151 14.9971 25.0573C15.7295 25.3183 17.5051 25.7582 18.5919 24.4361Z" fill="#FFBE55"/>
<path d="M29.4556 19.7116C29.7822 19.887 30.3338 20.0935 30.8163 19.8513C30.817 19.8501 30.817 19.8488 30.8176 19.8476C30.8237 19.8374 31.4264 18.8208 30.9886 17.7945C30.8238 17.4085 30.6798 17.1424 30.564 16.9287C30.4072 16.6391 30.2943 16.4306 30.2554 16.1523C29.7348 16.7301 28.6491 18.2019 29.4556 19.7116Z" fill="#FFBE55"/>
<path d="M29.0096 31.9706C28.7156 32.1962 28.3006 32.6134 28.3231 33.1533C28.3241 33.1547 28.3257 33.1553 28.3267 33.1568C28.3333 33.1666 29.0125 34.1336 30.1279 34.1559C30.5486 34.1644 30.8497 34.1425 31.0923 34.1247C31.4212 34.1003 31.657 34.0836 31.9263 34.1616C31.6136 33.45 30.7168 31.8574 29.0096 31.9706Z" fill="#FFBE55"/>
<path d="M26.5799 30.2065C26.577 30.2004 26.5795 30.1937 26.5774 30.1875L26.3643 30.3694C26.5038 30.4563 26.6512 30.5094 26.7771 30.5426C26.6516 30.3499 26.5824 30.2118 26.5799 30.2065Z" fill="#FFBE55"/>
<path d="M25.7011 28.1261C25.6419 28.122 25.5832 28.1157 25.5253 28.1055C25.4806 28.1777 25.3825 28.3835 25.5274 28.643C25.5813 28.7396 25.672 28.8607 25.7984 28.8904C25.8737 28.9075 25.9603 28.8822 26.0521 28.8332C25.8651 28.5308 25.7525 28.2643 25.7011 28.1261Z" fill="#FFBE55"/>
<path d="M28.8905 22.6379C29.0526 22.5166 29.3482 22.2887 29.6988 21.989C29.804 21.3219 30.1932 20.7006 30.5415 20.2585C30.1872 20.3076 29.8239 20.2207 29.5178 20.0898C29.9274 21.1865 29.0404 22.4016 28.874 22.6158C28.8793 22.6234 28.8854 22.6301 28.8905 22.6379Z" fill="#FFBE55"/>
<path d="M26.1341 30.155L26.4165 29.9138C26.2329 29.8505 26.0569 29.7471 25.9131 29.5898C25.9346 29.6892 25.994 29.8936 26.1341 30.155Z" fill="#FFBE55"/>
<path d="M22.65 25.8292C22.6856 25.5279 22.7648 25.1924 22.8881 24.8262C22.8091 24.7363 22.7398 24.6269 22.6848 24.4961C22.539 24.8334 22.3283 25.3854 22.2471 25.92C22.3951 25.881 22.5294 25.851 22.65 25.8292Z" fill="#FFBE55"/>
<path d="M28.1122 22.0273C28.1476 22.2299 28.1246 22.463 28.0273 22.7327C28.0858 22.8369 28.1352 22.9819 28.1353 23.1395C28.2585 23.1133 28.2675 23.0385 28.3057 22.6304L28.322 22.4617C28.3374 22.3068 28.3096 22.1887 28.2393 22.111C28.203 22.0708 28.1578 22.0462 28.1122 22.0273Z" fill="#FFBE55"/>
<path d="M28.0791 24.695C28.1805 24.6741 28.309 24.63 28.4116 24.5353C28.567 24.3918 28.7391 24.088 28.7108 23.9515C28.7074 23.9345 28.7031 23.9235 28.6734 23.9129C28.5607 23.8727 28.5268 23.8872 28.527 23.8877C28.52 23.893 28.5072 23.9214 28.4997 23.9381C28.4802 23.9812 28.4538 24.0398 28.3948 24.0783C28.3049 24.1369 28.2199 24.1526 28.1416 24.153C28.1645 24.3704 28.1215 24.5683 28.0791 24.695Z" fill="#FFBE55"/>
<path d="M22.3614 23.3263C22.3829 23.1832 22.4247 23.0496 22.4811 22.9298C22.1974 22.8236 21.556 22.6165 21.032 22.6886C20.292 22.7882 19.7292 22.7053 19.3721 22.6094C19.5431 22.7856 19.8368 22.9689 20.2967 22.9499C21.4372 22.9271 22.0911 23.1851 22.3614 23.3263Z" fill="#FFBE55"/>
<path d="M20.9302 23.2812C20.6603 23.4927 20.4612 23.7468 20.3252 23.9637C20.7445 23.7463 21.2828 23.5294 21.6389 23.3932C21.4471 23.3446 21.2111 23.3045 20.9302 23.2812Z" fill="#FFBE55"/>
<path d="M28.6092 23.58C28.6574 23.5856 28.7097 23.5962 28.7701 23.6172C28.7677 23.6051 28.7658 23.5944 28.7626 23.5799C28.7437 23.492 28.7191 23.3705 28.7253 23.1938C28.7252 23.1927 28.7246 23.1918 28.7246 23.1906C28.7246 23.1896 28.7252 23.1886 28.7252 23.1874C28.7252 23.1837 28.7246 23.1817 28.7249 23.178C28.7324 23.0142 28.6772 22.8814 28.6051 22.7832C28.5837 22.994 28.5563 23.1533 28.4814 23.2653C28.5258 23.3358 28.5781 23.4451 28.6092 23.58Z" fill="#FFBE55"/>
<path d="M29.0127 22.9365C29.0179 22.9594 29.0227 22.9824 29.0262 23.0062C29.9401 22.8821 30.5893 21.9628 30.9636 21.2266C30.1681 22.0687 29.2743 22.7446 29.0127 22.9365Z" fill="#FFBE55"/>
<path d="M25.2108 29.1306H25.211C25.289 29.1302 25.3686 29.0715 25.4026 28.9938C25.3487 28.9368 25.2981 28.8729 25.2544 28.7946C25.2252 28.7424 25.2062 28.6922 25.1887 28.6426C25.1271 28.68 25.0588 28.7333 25.0282 28.8019C25.0053 28.8526 25.0063 28.9059 25.0311 28.9692C25.06 29.0428 25.1145 29.1306 25.2108 29.1306Z" fill="#FFBE55"/>
<path d="M21.9217 26.0158C21.9839 25.4542 22.1886 24.8729 22.3504 24.4844C22.2492 24.5614 22.1229 24.6404 21.9669 24.7152C21.9494 24.754 21.6344 25.4599 21.5146 26.1589C21.6586 26.1041 21.7944 26.0565 21.9217 26.0158Z" fill="#FFBE55"/>
<path d="M27.4481 30.9C27.6302 30.919 27.7988 30.9105 27.9454 30.8898C27.6677 30.7951 27.3908 30.6696 27.1641 30.5566C27.2442 30.6664 27.3393 30.7847 27.4481 30.9Z" fill="#FFBE55"/>
<path d="M25.2182 28.0204C24.4676 27.7353 23.8755 26.9276 23.6633 25.9004C23.6009 26.2991 23.5969 26.7929 23.8092 27.2358C24.0393 27.7161 24.4949 28.0537 25.1486 28.2524C25.1627 28.1597 25.1892 28.0814 25.2182 28.0204Z" fill="#FFBE55"/>
<path d="M29.2114 23.2988C29.1948 23.3023 29.1769 23.3021 29.1602 23.3053C29.3687 23.5334 30.2067 24.5479 30.4337 26.3182C30.5896 26.3778 30.735 26.4391 30.8581 26.5012C30.7767 25.7809 30.4506 23.9588 29.2114 23.2988Z" fill="#FFBE55"/>
<path d="M21.1808 26.2921C21.2458 25.7533 21.4353 25.1994 21.5642 24.8711C21.4337 24.9118 21.2885 24.9479 21.1288 24.9782C20.8476 25.4495 20.6771 26.1563 20.5986 26.5554C20.8058 26.4547 20.9979 26.3691 21.1808 26.2921Z" fill="#FFBE55"/>
<path d="M26.2307 29.0957C26.1525 29.1413 26.0797 29.1709 26.0127 29.1873C26.1867 29.5317 26.51 29.6492 26.7845 29.6798C26.5626 29.5041 26.3817 29.2998 26.2307 29.0957Z" fill="#FFBE55"/>
<path d="M23.986 23.2587C24.0246 23.241 24.0726 23.2272 24.1164 23.2115C24.1156 23.2034 24.1136 23.1959 24.1135 23.1875C23.9308 23.1838 23.6919 23.1542 23.5384 23.032C23.4488 22.9604 23.3952 22.8646 23.3832 22.7545C23.3469 22.4226 23.5677 22.2641 23.8013 22.0968C23.8965 22.0284 24.0046 21.9492 24.1169 21.8487C23.775 21.8253 23.4684 21.9399 23.278 22.1873C23.0896 22.432 23.0536 22.7456 23.1837 23.0057C23.3611 23.3616 23.744 23.3257 23.986 23.2587Z" fill="#FFBE55"/>
<path d="M23.563 23.6063C23.4722 23.5958 23.3843 23.5675 23.2993 23.5293C23.2861 23.7076 23.2971 23.9497 23.4127 24.0918C23.4156 24.012 23.4254 23.9311 23.4487 23.8512C23.471 23.7749 23.5067 23.6903 23.563 23.6063Z" fill="#FFBE55"/>
<path d="M24.7324 23.7132C25.1037 23.7424 25.3887 23.648 25.5584 23.5681C25.2734 23.3649 25.0664 23.4133 24.9293 23.4773C24.7091 23.5797 24.4626 23.5733 24.296 23.4773C24.2345 23.5052 24.1679 23.533 24.09 23.5553C23.9159 23.6427 23.8027 23.767 23.7526 23.9262C23.7368 23.9763 23.7342 24.0258 23.7305 24.075C23.7337 24.0722 23.7338 24.0672 23.7373 24.0647C24.0945 23.8088 24.4291 23.6937 24.7324 23.7132Z" fill="#FFBE55"/>
<path d="M26.4289 28.0117C26.3015 28.0619 26.1698 28.099 26.0342 28.1173C26.124 28.3316 26.3016 28.6964 26.5825 29.0388C26.7291 28.792 26.5565 28.2613 26.4289 28.0117Z" fill="#FFBE55"/>
<path d="M23.4654 24.4852C23.134 24.3875 23.006 24.0835 22.9825 23.7695C22.9112 23.9187 22.873 24.1051 22.9444 24.3123C23.0881 24.7279 23.4021 24.8491 23.5867 24.8876C23.5887 24.8393 23.5908 24.791 23.5946 24.743C23.5936 24.7419 23.5921 24.7416 23.5911 24.7405C23.5481 24.693 23.5009 24.6009 23.4654 24.4852Z" fill="#FFBE55"/>
<path d="M22.3563 23.6755C22.345 23.6706 22.3324 23.6717 22.3222 23.6641C22.3204 23.6629 22.2488 23.6152 22.1155 23.5547C21.6465 23.8078 21.3831 24.3242 21.2627 24.6318C22.1126 24.4259 22.382 24.0393 22.4347 23.9489C22.396 23.857 22.3698 23.7655 22.3563 23.6755Z" fill="#FFBE55"/>
<path d="M27.8477 27.1052C28.0053 26.7637 28.0393 26.3726 27.9559 25.9395C27.7673 26.8075 27.3062 27.5148 26.709 27.8748C26.7362 27.9296 26.7664 27.9974 26.7979 28.0777C27.0323 27.9751 27.5801 27.6844 27.8477 27.1052Z" fill="#FFBE55"/>
<path d="M28.2236 23.8163C28.2424 23.7654 28.2706 23.7128 28.3118 23.6687C28.2935 23.5716 28.2549 23.4899 28.2225 23.4375C28.1761 23.4498 28.1241 23.4588 28.0649 23.4647C28.0608 23.465 28.0568 23.4653 28.0527 23.4654C28.0215 23.5236 27.9801 23.5809 27.9268 23.6363C27.9742 23.6964 28.0151 23.7565 28.0451 23.8186C28.0533 23.823 28.0632 23.8203 28.0707 23.8263C28.0834 23.8353 28.1415 23.87 28.2236 23.8163Z" fill="#FFBE55"/>
<path d="M28.667 24.7176C28.8282 25.1408 28.9287 25.5262 28.9687 25.8662C29.0956 25.8993 29.231 25.9357 29.3715 25.9753C29.2909 25.3761 29.039 24.7459 28.8899 24.4121C28.8237 24.531 28.7435 24.6377 28.667 24.7176Z" fill="#FFBE55"/>
<path d="M28.6417 25.7847C28.6002 25.5219 28.5211 25.2298 28.405 24.9121C28.2728 24.9767 28.1431 25.0042 28.0475 25.0165C28.0477 25.033 28.0492 25.0491 28.0492 25.0657C28.0492 25.1054 28.046 25.1439 28.0449 25.1833C28.0487 25.1896 28.0541 25.1944 28.057 25.2015C28.1249 25.3668 28.1766 25.5272 28.2176 25.6845C28.2667 25.6954 28.4221 25.7307 28.6417 25.7847Z" fill="#FFBE55"/>
<path d="M29.6975 26.0712C29.8307 26.1114 29.9642 26.1536 30.0942 26.1974C29.8972 24.9345 29.3801 24.0951 29.0915 23.7168C29.0888 23.7776 29.076 23.8435 29.0394 23.9196C29.0351 23.9287 29.0262 23.9329 29.0205 23.9407C29.0219 23.9578 29.0247 23.9747 29.0243 23.9924C29.0358 24.0037 29.0471 24.0154 29.0548 24.0307C29.0771 24.0743 29.608 25.1169 29.6975 26.0712Z" fill="#FFBE55"/>
<path d="M25.813 27.8224C26.8741 27.8224 27.7372 26.5859 27.7372 25.066C27.7372 24.9827 27.7345 24.9006 27.7295 24.819C27.5232 24.509 27.1627 24.2929 27.0559 24.2336C26.4197 24.2222 25.9952 23.939 25.8142 23.7891C25.6342 23.8935 25.2437 24.0642 24.7092 24.0255C24.4926 24.0117 24.2444 24.0966 23.9677 24.2851C23.9153 24.5382 23.8887 24.8003 23.8887 25.066C23.8887 26.5859 24.752 27.8224 25.813 27.8224Z" fill="#FFD7AA"/>
<path d="M18.2823 29.77C18.3107 29.7623 18.5969 29.6847 19.016 29.6502C20.9567 29.2128 23.2355 27.8207 23.6462 27.5631C23.6059 27.4989 23.5597 27.4388 23.5267 27.3696C23.3225 26.9425 23.2899 26.4864 23.324 26.0888C23.0316 26.0701 22.1399 26.1118 20.4625 26.9734C20.44 26.9849 20.4157 26.9904 20.3912 26.9904C20.3593 26.9904 20.3277 26.9808 20.3008 26.9615C20.2533 26.9278 20.2286 26.8701 20.2369 26.8124C20.2417 26.7778 20.3211 26.2352 20.5024 25.6582C19.5386 25.8603 17.5039 27.9138 16.3837 29.0454C16.1721 29.2596 15.9815 29.452 15.8202 29.611C15.7979 29.633 15.7743 29.6537 15.7504 29.6748C15.6088 29.7999 15.4626 29.9291 15.5662 30.6742C15.6617 31.362 16.5564 31.4324 17.2221 31.4368H17.2708C17.4803 31.4368 17.9847 31.6111 18.8584 31.9194C19.7068 32.2188 20.6684 32.5581 21.291 32.6747C21.5888 32.73 21.8683 32.78 22.1261 32.8259C22.913 32.9665 23.4817 33.0676 23.7793 33.1907C24.1406 33.3403 24.5389 34.0784 24.8841 34.7586L24.9504 34.8882C25.1537 35.2806 25.192 35.7719 25.0497 36.1696C24.9807 36.3635 25.03 36.465 25.0546 36.4999C25.0787 36.5341 25.107 36.5462 25.124 36.5462C25.2042 36.5462 25.2621 36.5462 25.3263 36.343C25.4074 36.0867 25.4277 36.0619 25.7686 35.6495L25.8617 35.537C26.2131 35.1108 25.8611 34.2364 25.6919 33.8159L25.6681 33.7569C25.5479 33.4562 25.6543 33.1405 25.7574 32.8354C25.8274 32.6278 25.8998 32.4133 25.8998 32.2081C25.8998 32.1634 25.8879 32.1333 25.8596 32.1064C25.6958 31.9513 25.1407 31.9808 24.7349 32.0016C24.5853 32.0097 24.4436 32.017 24.3221 32.017C23.694 32.017 22.6861 31.3892 21.2203 30.4312C20.4936 29.9571 19.6321 29.916 19.0474 29.9628C18.8053 30.0156 18.5675 30.0542 18.3382 30.075C18.2592 30.0819 18.1852 30.0274 18.1706 29.9478C18.1562 29.8692 18.2044 29.7915 18.2823 29.77Z" fill="#FFD7AA"/>
<path d="M36.2105 19.5249C35.9469 19.5806 35.9151 19.5745 35.3847 19.4778L35.2449 19.4526C34.6999 19.3523 34.1113 20.0901 33.8278 20.4432L33.7879 20.4928C33.5846 20.7447 33.2575 20.8061 32.9413 20.8657C32.7258 20.9063 32.5029 20.9481 32.3239 21.0489C32.2851 21.0705 32.2646 21.096 32.2551 21.1339C32.1998 21.3521 32.4972 21.8222 32.7144 22.1654C32.7945 22.2918 32.8703 22.4121 32.9298 22.5177C33.2371 23.0649 33.1829 24.2514 33.0651 25.9988C33.0038 26.911 33.4355 27.7179 33.7719 28.1989C33.9075 28.352 34.0386 28.5138 34.1623 28.6832C34.2104 28.749 34.1997 28.8408 34.1377 28.8936C34.0758 28.9473 33.9833 28.9428 33.9259 28.8851C33.9066 28.8656 33.728 28.6837 33.5155 28.3813C32.6625 27.4312 31.6151 26.8031 31.1795 26.5648C31.1908 26.6889 31.1952 26.7732 31.1959 26.791C31.1983 26.852 31.1648 26.9085 31.1105 26.936C31.0883 26.9471 31.064 26.9527 31.04 26.9527C31.0056 26.9527 30.9712 26.9413 30.943 26.919C30.5294 26.5897 29.0096 26.1894 28.2882 26.0222C28.3518 26.4674 28.2993 26.8756 28.1295 27.2416C27.9552 27.6172 27.6869 27.8814 27.4346 28.0674C28.7578 29.7023 31.8914 30.4009 33.7781 30.8195C34.2639 30.9271 34.6836 31.0203 34.9921 31.1095C35.0224 31.1185 35.052 31.1286 35.0818 31.1391C35.2603 31.2013 35.4442 31.2659 36.044 30.8104C36.5973 30.3903 36.2259 29.5721 35.8981 28.9931L35.8743 28.9508C35.772 28.7683 35.677 28.2431 35.5183 27.3304C35.3641 26.4438 35.1894 25.439 34.9861 24.8389C34.8884 24.5508 34.7947 24.2814 34.7082 24.0332C34.4461 23.28 34.2565 22.7354 34.2184 22.4165C34.1722 22.0284 34.6203 21.3203 35.0441 20.6869L35.1256 20.5642C35.3687 20.1944 35.7783 19.921 36.1945 19.8503C36.3971 19.8158 36.4616 19.7228 36.48 19.6846C36.4978 19.6468 36.4948 19.6164 36.4866 19.6017C36.4474 19.5322 36.4191 19.4806 36.2105 19.5249Z" fill="#FFD7AA"/>
<path d="M15.8889 19.4184C16.0708 19.6171 16.0819 19.6472 16.2692 20.1493L16.32 20.285C16.5138 20.8029 17.4479 20.9347 17.8967 20.9976L17.9589 21.0066C18.2793 21.0525 18.4993 21.302 18.7121 21.5438C18.8571 21.7083 19.007 21.8781 19.1848 21.9805C19.2238 22.0027 19.2561 22.0077 19.2931 21.9963C19.5093 21.9325 19.7612 21.4368 19.9451 21.0748C20.0132 20.9412 20.0775 20.8144 20.1383 20.7092C20.4513 20.166 21.4987 19.6061 23.061 18.8142C23.922 18.3775 24.4014 17.5281 24.6297 16.9952C24.6823 16.8205 24.7413 16.6544 24.8077 16.4991C24.84 16.424 24.9239 16.3886 25.0013 16.4126C25.0785 16.439 25.1225 16.5202 25.1023 16.5994C25.0962 16.6234 25.0418 16.8282 24.9189 17.1179C24.5009 18.54 24.5197 20.5544 24.5476 21.3655C24.8627 21.0206 25.1622 20.9425 25.3685 20.9425C25.5963 20.9425 25.8048 21.0423 25.9714 21.2173C26.1461 20.9909 26.3451 20.9471 26.4901 20.9483C26.7534 20.9547 26.9715 21.1236 27.1105 21.2992C27.2627 21.3069 27.6064 21.3475 27.8568 21.5619C28.2018 19.8684 27.4087 17.4621 26.8733 15.8414C26.7057 15.334 26.5608 14.8955 26.4699 14.5462C26.4619 14.5158 26.4554 14.4849 26.4492 14.4535C26.4114 14.2686 26.3723 14.0774 25.6754 13.795C25.0309 13.5321 24.518 14.2711 24.1875 14.8481L24.1631 14.8908C24.0586 15.0723 23.655 15.4227 22.9509 16.026C22.2684 16.6111 21.4946 17.2746 21.083 17.7556C20.8861 17.9856 20.7032 18.2026 20.5349 18.4028C20.0204 19.0146 19.6484 19.4568 19.393 19.6529C19.0826 19.8918 18.2436 19.8683 17.4807 19.8273L17.3373 19.8199C17.0969 19.8094 16.8584 19.7376 16.6443 19.6261L16.6265 19.6217L16.6161 19.609C16.4488 19.5176 16.2955 19.4048 16.1777 19.2662C16.1005 19.1753 16.0318 19.1371 15.9779 19.1196L15.8064 19.1576C15.7718 19.2197 15.7561 19.2736 15.8889 19.4184Z" fill="#FFD7AA"/>
<path d="M36.7586 19.447C36.6345 19.2255 36.4453 19.1549 36.1468 19.217C35.9426 19.2601 35.9426 19.2597 35.4407 19.1687L35.3004 19.143C34.5723 19.0106 33.9054 19.8451 33.5844 20.2453L33.5448 20.2944C33.4137 20.4569 33.1679 20.5028 32.8833 20.5565C32.6433 20.602 32.3948 20.6488 32.171 20.7743C32.0585 20.8376 31.9827 20.9344 31.9523 21.0546C31.8644 21.4033 32.1623 21.8742 32.4505 22.3296C32.5274 22.4511 32.6002 22.5664 32.6574 22.6681C32.9421 23.1755 32.8462 24.5988 32.7536 25.9754C32.7173 26.5154 32.8328 27.0159 33.0039 27.4442C32.1192 26.6827 31.2707 26.253 31.1332 26.1857C31.0112 25.359 30.649 23.9007 29.5946 23.1719C30.9657 22.5643 31.6173 20.4973 31.6484 20.3956C31.6706 20.3229 31.6373 20.2449 31.5694 20.2107C31.5019 20.1762 31.4188 20.196 31.3738 20.2575C31.0156 20.7437 30.555 21.2157 30.1203 21.6154C30.3864 20.8634 30.9775 20.2069 31.2338 19.9484C31.2789 19.9098 31.3231 19.8667 31.3659 19.8201C31.4219 19.7587 31.4201 19.664 31.3615 19.6047C31.3406 19.5836 31.3124 19.5785 31.2854 19.5718C31.4448 19.1316 31.5927 18.4146 31.2759 17.6719C31.1057 17.2729 30.9578 16.9995 30.839 16.7801C30.6258 16.3864 30.5286 16.2069 30.5578 15.7913C30.5622 15.7279 30.528 15.6682 30.4711 15.6405C30.4142 15.6121 30.3462 15.6214 30.2986 15.6636C30.2769 15.6828 28.2656 17.5049 29.0294 19.5222C29.0064 19.5303 28.9817 19.535 28.9639 19.554C28.9097 19.6125 28.9082 19.7028 28.9609 19.7628C29.8179 20.7407 28.8682 22.1078 28.6506 22.3944C28.6457 22.3912 28.6412 22.387 28.6362 22.3838C28.6362 22.1887 28.5833 22.0257 28.4718 21.9024C28.3738 21.7941 28.2519 21.7369 28.1441 21.7063C28.5511 19.9298 27.758 17.5202 27.1706 15.742C27.0046 15.2395 26.8612 14.8059 26.7726 14.4659C26.7662 14.4407 26.7611 14.4155 26.7558 14.3899C26.6955 14.0941 26.5815 13.8235 25.7935 13.5042C24.8237 13.1117 24.1415 14.3009 23.9176 14.6918L23.8938 14.7333C23.8107 14.8776 23.2708 15.3403 22.7487 15.7875C22.0575 16.3799 21.274 17.0515 20.8465 17.5509C20.6493 17.7818 20.4661 17.9999 20.2969 18.2006C19.8136 18.775 19.4322 19.2286 19.2036 19.4045C18.9587 19.593 17.8973 19.5358 17.4983 19.5142L17.3521 19.5065C16.9941 19.4907 16.6356 19.3208 16.4163 19.0624C16.256 18.8736 16.0541 18.7772 15.8621 18.793C15.7257 18.8056 15.6071 18.8771 15.545 18.9848C15.4182 19.2046 15.4538 19.4034 15.6602 19.628C15.8009 19.782 15.8009 19.782 15.9781 20.257L16.0291 20.3935C16.2879 21.085 17.3459 21.2337 17.8544 21.3057L17.9157 21.3142C18.1222 21.3438 18.2877 21.5316 18.4793 21.7489C18.6148 21.9024 18.7613 22.053 18.9337 22.1755C18.9231 22.1808 18.9108 22.1812 18.9014 22.189C18.8525 22.2296 18.8328 22.2954 18.8516 22.356C18.8534 22.3613 18.9612 22.6529 19.2503 22.9045C18.7944 22.9268 18.2734 22.7524 18.0645 22.6721C18.0314 22.6575 17.997 22.6437 17.9617 22.6306C17.8825 22.6014 17.7951 22.6416 17.7636 22.7192C17.7529 22.7459 17.7526 22.7735 17.7567 22.8001C17.2889 22.822 16.5738 22.9609 16.0115 23.5346C15.7078 23.8451 15.5117 24.086 15.3545 24.2797C15.0721 24.6272 14.943 24.7856 14.548 24.9176C14.4879 24.9375 14.4459 24.9919 14.4418 25.0553C14.4375 25.1187 14.472 25.1781 14.5292 25.2056C14.5452 25.2133 15.4732 25.6542 16.5511 25.6542C17.2322 25.6542 17.9728 25.4772 18.5814 24.9049C18.5976 24.9224 18.6108 24.943 18.6345 24.9518C18.6524 24.9582 18.6708 24.9615 18.6887 24.9615C18.7466 24.9615 18.8016 24.9289 18.8287 24.8745C19.2791 23.9629 19.9 23.6351 20.2614 23.5176C19.9392 23.9278 19.7975 24.3153 19.7896 24.3382C19.7665 24.4045 19.7906 24.4785 19.8488 24.5182C19.907 24.5579 19.9846 24.5539 20.0381 24.508C20.2734 24.3077 20.8462 24.0497 21.332 23.8515C21.0382 24.2538 20.9108 24.6807 20.8839 24.779C20.7817 24.9432 20.6935 25.1325 20.6177 25.3287C19.6688 25.363 17.8981 27.0722 16.1628 28.8254C15.9521 29.0383 15.7624 29.2297 15.6019 29.3877C15.5834 29.4061 15.5641 29.4231 15.5444 29.4406C15.3185 29.6405 15.1407 29.874 15.2578 30.7167C15.4021 31.7535 16.7737 31.7512 17.2238 31.7483H17.2715C17.4378 31.7483 18.1076 31.9847 18.7551 32.213C19.6143 32.5165 20.588 32.8599 21.2343 32.9805C21.533 33.0365 21.8135 33.0865 22.0721 33.1324C22.8108 33.2641 23.3942 33.3686 23.6606 33.4785C23.9457 33.5963 24.4256 34.5427 24.6065 34.899L24.674 35.0315C24.8389 35.3492 24.8707 35.7453 24.7566 36.0644C24.6733 36.2976 24.6891 36.5215 24.8 36.6791C24.8791 36.7908 25.0003 36.8579 25.1245 36.8579C25.3783 36.8579 25.5325 36.7278 25.6243 36.437C25.6871 36.2383 25.6871 36.2383 26.0094 35.8484L26.1029 35.735C26.5726 35.1658 26.1738 34.1752 25.982 33.6989L25.9583 33.6404C25.881 33.4466 25.9608 33.2094 26.0534 32.9351C26.1316 32.7035 26.2122 32.4642 26.2122 32.2078C26.2122 32.0786 26.1646 31.9653 26.0747 31.8795C25.8138 31.6321 25.2568 31.6621 24.7188 31.6898C24.5751 31.6975 24.439 31.7049 24.3225 31.7049C23.7403 31.7049 22.5461 30.9248 21.3915 30.1703C20.9582 29.8871 20.4884 29.7429 20.0485 29.6779C21.7973 29.0792 23.5039 28.0229 23.832 27.8145C24.088 28.1061 24.4298 28.3376 24.8693 28.4964C24.8204 28.5451 24.7758 28.6036 24.7445 28.6727C24.6869 28.8002 24.6855 28.9421 24.7408 29.0834C24.775 29.171 24.8255 29.2399 24.8831 29.2976C24.7831 29.6475 24.8811 29.8406 24.984 29.9427C24.8717 30.291 24.969 30.4959 25.0752 30.6051C25.1868 30.7194 25.3416 30.768 25.4781 30.768C25.496 30.768 25.5107 30.7624 25.5279 30.7608C25.5744 30.9032 25.6392 31.0428 25.7483 31.1669L25.7823 31.2051C26.2534 31.7409 27.0416 32.6377 27.1346 33.0562C27.1521 33.1342 27.2254 33.1845 27.3033 33.1777C27.3821 33.1695 27.4422 33.1033 27.443 33.0241C27.4432 33.001 27.4464 32.6406 27.4299 32.2733C27.776 32.8348 28.015 33.3918 28.095 33.5877C28.1046 33.6141 28.1155 33.6409 28.1271 33.6678C28.1525 33.7268 28.21 33.7621 28.2703 33.7621C28.2898 33.7621 28.3097 33.7584 28.3289 33.7507C28.355 33.7401 28.3747 33.7218 28.3909 33.701C28.7276 34.0267 29.3189 34.4521 30.1221 34.4681C30.5558 34.475 30.8662 34.4538 31.1154 34.436C31.5617 34.403 31.7653 34.3884 32.132 34.5856C32.1551 34.5982 32.1806 34.6042 32.2059 34.6042C32.2414 34.6042 32.2766 34.592 32.3052 34.5685C32.3541 34.5282 32.3737 34.462 32.3548 34.4019C32.346 34.3742 31.5101 31.7952 29.3582 31.6603C29.3604 31.6357 29.3662 31.6112 29.3559 31.587C29.3248 31.5131 29.2434 31.4741 29.1667 31.4985C28.6343 31.6613 28.1712 31.4911 27.8034 31.2185C28.2793 31.1889 28.6097 31.025 28.627 31.0165C28.6887 30.9853 28.7227 30.9169 28.7101 30.8491C28.6977 30.781 28.6419 30.7293 28.5729 30.722C27.8754 30.6485 26.8118 30.0114 26.8012 30.0049C26.797 30.0025 26.7919 30.0039 26.7875 30.0019C26.7896 29.9995 26.7915 29.9969 26.7934 29.9945C26.8531 30 26.9119 30.0029 26.9683 30.0029C27.1005 30.0029 27.2214 29.9891 27.3192 29.9684C27.3844 29.9546 27.4335 29.9009 27.4417 29.8351C27.45 29.7688 27.4156 29.705 27.3559 29.6754C27.1432 29.5708 26.959 29.4294 26.7986 29.2735C26.9907 29.0403 26.9727 28.6882 26.8929 28.3772C26.9628 28.3483 27.0578 28.3031 27.1722 28.238C28.5518 29.9742 31.6502 30.6647 33.7108 31.1223C34.1913 31.2287 34.6065 31.321 34.9059 31.4075C34.9307 31.4149 34.9548 31.4234 34.9796 31.4319C35.0778 31.466 35.1765 31.4932 35.2914 31.4932C35.5104 31.4932 35.7885 31.3945 36.233 31.0571C37.0672 30.4234 36.3921 29.2296 36.1701 28.8375L36.147 28.796C36.0658 28.6514 35.9441 27.9517 35.8264 27.2752C35.6701 26.3773 35.4932 25.3599 35.282 24.737C35.184 24.4477 35.09 24.1776 35.0034 23.9289C34.7573 23.2216 34.5628 22.6633 34.5288 22.3773C34.4921 22.0718 35.0819 21.1901 35.3038 20.8585L35.3867 20.7337C35.5838 20.4338 35.9134 20.2128 36.2471 20.1564C36.4912 20.1146 36.679 19.991 36.7618 19.8167C36.8203 19.6932 36.8194 19.555 36.7586 19.447ZM36.48 19.6826C36.4616 19.7207 36.3971 19.8138 36.1946 19.8483C35.7783 19.919 35.3688 20.1924 35.1256 20.5621L35.0442 20.6849C34.6203 21.3183 34.1723 22.0265 34.2185 22.4145C34.2567 22.7334 34.4462 23.2779 34.7082 24.0312C34.7948 24.2794 34.8884 24.5489 34.9862 24.8368C35.1895 25.4369 35.3642 26.4417 35.5184 27.3283C35.677 28.2409 35.7719 28.7662 35.8743 28.9488L35.8982 28.991C36.2259 29.57 36.5972 30.3883 36.0441 30.8084C35.4444 31.2639 35.2606 31.1992 35.0819 31.1371C35.052 31.1266 35.0224 31.1164 34.9921 31.1075C34.6835 31.0182 34.2638 30.9251 33.7782 30.8175C31.8915 30.3989 28.7579 29.7002 27.4346 28.0654C27.687 27.8795 27.9551 27.6152 28.1295 27.2396C28.2994 26.8737 28.3517 26.4655 28.2882 26.0201C29.0095 26.1874 30.5293 26.5876 30.943 26.917C30.9712 26.9393 31.0056 26.9507 31.0401 26.9507C31.064 26.9507 31.0882 26.945 31.1106 26.934C31.1648 26.9065 31.1983 26.8499 31.1959 26.789C31.1953 26.7712 31.1909 26.6868 31.1795 26.5628C31.6151 26.8011 32.6625 27.4292 33.5156 28.3793C33.7281 28.6816 33.9066 28.8636 33.9259 28.8831C33.9834 28.9407 34.0758 28.9453 34.1377 28.8916C34.1996 28.8388 34.2105 28.747 34.1623 28.6812C34.0386 28.5117 33.9075 28.35 33.7719 28.1969C33.4355 27.7158 33.0038 26.909 33.0652 25.9968C33.1829 24.2493 33.2372 23.0628 32.9298 22.5157C32.8703 22.4101 32.7945 22.2898 32.7145 22.1634C32.4974 21.8201 32.1999 21.3499 32.2551 21.1319C32.2647 21.0941 32.2852 21.0685 32.324 21.0469C32.503 20.9461 32.7258 20.9043 32.9413 20.8637C33.2574 20.804 33.5845 20.7426 33.7879 20.4908L33.8279 20.4412C34.1115 20.088 34.6999 19.3502 35.245 19.4506L35.3847 19.4758C35.9151 19.5725 35.9468 19.5787 36.2106 19.5229C36.4192 19.4786 36.4474 19.5302 36.4866 19.6C36.4948 19.6144 36.4979 19.6449 36.48 19.6826ZM31.0926 34.1246C30.85 34.1425 30.549 34.1645 30.1283 34.1559C29.0127 34.1336 28.3336 33.1665 28.327 33.1568C28.326 33.1554 28.3245 33.1546 28.3235 33.1532C28.3009 32.6134 28.716 32.196 29.0099 31.9705C30.7171 31.8573 31.6139 33.4498 31.9267 34.1615C31.6574 34.0835 31.4214 34.1002 31.0926 34.1246ZM28.0592 32.7582C27.7822 32.2105 27.358 31.5003 26.8363 31.0339C26.7569 30.9629 26.6902 30.8923 26.6235 30.8218C26.8128 30.8793 26.9723 30.8995 27.043 30.905C27.3974 31.3402 27.9427 31.8256 28.6399 31.8717C28.3901 32.1017 28.1579 32.4048 28.0592 32.7582ZM25.2655 30.0844C25.314 30.094 25.3625 30.1002 25.4091 30.1002C25.4264 30.1002 25.4415 30.0975 25.4581 30.0964C25.4476 30.209 25.4504 30.3303 25.4623 30.4534C25.4087 30.4501 25.3432 30.4323 25.2985 30.3867C25.2267 30.3134 25.2368 30.192 25.2655 30.0844ZM25.5123 29.775C25.4328 29.7954 25.2803 29.7962 25.2053 29.724C25.1388 29.6605 25.1465 29.5414 25.1703 29.4363C25.184 29.4375 25.1966 29.4429 25.2108 29.4429C25.211 29.4429 25.2112 29.4429 25.2112 29.4429C25.3945 29.4426 25.5658 29.3311 25.6592 29.169C25.6615 29.1698 25.6637 29.1707 25.6661 29.1714C25.6663 29.1721 25.6661 29.1727 25.6664 29.1734C25.6934 29.2504 25.7266 29.3196 25.7631 29.3838C25.6921 29.3757 25.6256 29.4141 25.5994 29.4797C25.5938 29.4934 25.551 29.6102 25.5123 29.775ZM18.3386 30.0746C18.5679 30.0539 18.8056 30.0154 19.0478 29.9624C19.6325 29.9156 20.494 29.9567 21.2208 30.4309C22.6865 31.389 23.6944 32.0166 24.3225 32.0166C24.444 32.0166 24.5858 32.0093 24.7353 32.0012C25.141 31.9805 25.6961 31.9508 25.86 32.1061C25.8882 32.1329 25.9002 32.163 25.9002 32.2077C25.9002 32.4129 25.828 32.6275 25.7578 32.8351C25.6547 33.1403 25.5483 33.4559 25.6685 33.7566L25.6923 33.8155C25.8615 34.236 26.2136 35.1105 25.8622 35.5366L25.769 35.6491C25.4282 36.0615 25.4078 36.0863 25.3267 36.3427C25.2624 36.5458 25.2046 36.5458 25.1244 36.5458C25.1076 36.5458 25.0792 36.5336 25.055 36.4995C25.0304 36.4646 24.9811 36.363 25.0501 36.1693C25.1924 35.7715 25.1541 35.2803 24.9508 34.8878L24.8845 34.7582C24.5394 34.078 24.141 33.3398 23.7797 33.1904C23.4821 33.0673 22.9134 32.9661 22.1265 32.8255C21.8688 32.7796 21.5892 32.7296 21.2914 32.6743C20.6687 32.5577 19.7072 32.2185 18.8588 31.9191C17.9851 31.6107 17.4807 31.4364 17.2713 31.4364H17.2225C16.5568 31.4321 15.6621 31.3616 15.5666 30.6738C15.4631 29.9287 15.6092 29.7995 15.7508 29.6744C15.7747 29.6533 15.7981 29.6326 15.8206 29.6107C15.9819 29.4519 16.1724 29.2593 16.3841 29.045C17.5043 27.9135 19.539 25.8599 20.5028 25.6578C20.3215 26.2348 20.2421 26.7774 20.2373 26.812C20.229 26.8697 20.2538 26.9275 20.3012 26.9612C20.3281 26.9802 20.3597 26.9901 20.3917 26.9901C20.416 26.9901 20.4404 26.9844 20.4629 26.9731C22.1403 26.1115 23.032 26.0698 23.3244 26.0884C23.2902 26.4862 23.3229 26.9422 23.5271 27.3693C23.5602 27.4384 23.6063 27.4986 23.6466 27.5627C23.2359 27.8202 20.9571 29.2124 19.0164 29.6498C18.5973 29.6843 18.311 29.762 18.2827 29.7697C18.2048 29.7912 18.1565 29.8688 18.1712 29.948C18.1856 30.0271 18.2595 30.0815 18.3386 30.0746ZM18.9168 24.1389C18.9083 23.811 18.8357 23.4583 18.646 23.1659C18.9713 23.2296 19.3434 23.2553 19.6566 23.1504L19.6574 23.15C19.7849 23.2002 19.9352 23.2311 20.1018 23.2459C19.7779 23.3617 19.3254 23.6059 18.9168 24.1389ZM15.5964 24.4762C15.7496 24.2877 15.9406 24.0529 16.2341 23.7531C17.0146 22.9559 18.184 23.1245 18.1965 23.1261C18.1978 23.1263 18.199 23.1258 18.2004 23.126C18.6095 23.4797 18.6295 24.0683 18.5921 24.4368C17.5052 25.7588 15.7297 25.3191 14.9971 25.058C15.2392 24.9158 15.3886 24.7322 15.5964 24.4762ZM30.989 17.7946C31.4268 18.8208 30.8241 19.8374 30.818 19.8476C30.8172 19.8488 30.8173 19.85 30.8167 19.8513C30.3342 20.0936 29.7826 19.8872 29.456 19.7117C28.6496 18.202 29.7352 16.7301 30.2559 16.1523C30.2949 16.4306 30.4077 16.639 30.5645 16.9287C30.6802 17.1424 30.8243 17.4085 30.989 17.7946ZM29.5176 20.0897C29.8238 20.2205 30.187 20.3075 30.5413 20.2583C30.193 20.7006 29.8038 21.3218 29.6987 21.9888C29.3481 22.2885 29.0525 22.5162 28.8904 22.6377C28.8853 22.6298 28.8791 22.6233 28.8739 22.6157C29.0402 22.4016 29.9273 21.1864 29.5176 20.0897ZM26.1339 30.1557C25.9939 29.8944 25.9343 29.69 25.9129 29.5906C26.0568 29.7479 26.2328 29.8513 26.4164 29.9146L26.1339 30.1557ZM26.5777 30.1871C26.5798 30.1934 26.5773 30.2002 26.5801 30.2062C26.5827 30.2114 26.6518 30.3496 26.7774 30.542C26.6514 30.5088 26.504 30.4557 26.3645 30.3689L26.5777 30.1871ZM26.6282 31.2663C26.7846 31.4066 26.933 31.5723 27.0706 31.7503C27.0708 31.7552 27.0715 31.7605 27.0723 31.7654C27.0981 31.9197 27.1127 32.142 27.1209 32.3566C26.851 31.9591 26.4456 31.4875 26.0166 30.9991L25.9827 30.9606C25.7752 30.7249 25.7444 30.4035 25.769 30.1317C25.913 30.4476 26.1708 30.8575 26.6282 31.2663ZM25.7981 28.8903C25.6717 28.8607 25.581 28.7395 25.5271 28.6428C25.3823 28.3833 25.4803 28.1776 25.525 28.1053C25.583 28.1156 25.6416 28.1219 25.7008 28.1259C25.7522 28.2641 25.8648 28.5307 26.0517 28.833C25.96 28.8821 25.8735 28.9073 25.7981 28.8903ZM26.4831 21.2586C26.6028 21.2615 26.7406 21.3395 26.8459 21.4597C26.8023 21.5137 26.7307 21.5751 26.6343 21.5573C26.201 21.4788 26.0709 21.9027 26.0283 22.0419C25.9837 22.1864 25.8109 22.512 25.6706 22.6586C25.5744 22.6153 25.4725 22.5837 25.3645 22.5712C25.5251 22.3449 25.8217 21.9391 26.2117 21.4138C26.2911 21.3071 26.3937 21.2501 26.4831 21.2586ZM25.6126 22.9737C25.7534 23.0634 25.8717 23.2142 26.0083 23.3889C26.0937 23.4981 26.1925 23.6159 26.3024 23.7314C26.0736 23.6147 25.9468 23.4874 25.9445 23.4853C25.9434 23.4842 25.9417 23.4845 25.9407 23.4834C25.9396 23.4824 25.9401 23.4806 25.9389 23.4795C25.5619 23.1147 25.1784 23.018 24.7984 23.1948C24.668 23.2549 24.5428 23.2459 24.4753 23.22C24.4366 23.2053 24.4228 23.1883 24.4216 23.1867C24.4216 23.1818 24.4286 23.1619 24.4572 23.1314C24.6334 22.9456 25.2554 22.7469 25.6126 22.9737ZM24.5238 22.7168C24.7442 22.496 24.9747 22.225 25.1779 21.9765L25.2187 21.9269C25.2783 21.8547 25.3832 21.9063 25.4361 21.9397C25.2166 22.2397 25.0382 22.4885 24.9796 22.5824C24.8158 22.6073 24.6578 22.6537 24.5238 22.7168ZM26.6499 22.8639C26.896 22.92 27.0259 22.9877 27.0926 23.0569C26.8626 23.0193 26.5324 23.0204 26.2726 23.2197C26.2665 23.212 26.2601 23.2042 26.2539 23.1966C26.1495 23.0626 26.0431 22.9428 25.9272 22.8371C25.9855 22.7705 26.0407 22.6938 26.0912 22.6127C26.2004 22.6831 26.4216 22.8122 26.6499 22.8639ZM26.2417 22.3383C26.282 22.2537 26.3123 22.1799 26.3264 22.1338C26.4039 21.8816 26.471 21.8445 26.5786 21.8644C26.5919 21.8667 26.6039 21.8656 26.6168 21.8669C26.7253 22.2687 27.0522 22.4365 27.2969 22.5587C27.4289 22.6245 27.5533 22.6868 27.5785 22.7537C27.6087 22.8346 27.5289 22.9305 27.4325 23.008C27.3457 22.798 27.1071 22.648 26.719 22.5599C26.5232 22.5156 26.3222 22.3917 26.2417 22.3383ZM23.9681 24.2844C24.2449 24.0958 24.493 24.0109 24.7096 24.0248C25.2441 24.0634 25.6345 23.8928 25.8146 23.7884C25.9956 23.9383 26.4202 24.2215 27.0563 24.2329C27.1632 24.2922 27.5238 24.5083 27.7299 24.8184C27.735 24.9 27.7376 24.9822 27.7376 25.0654C27.7376 26.5853 26.8745 27.8217 25.8134 27.8217C24.7524 27.8217 23.8892 26.5853 23.8892 25.0654C23.889 24.7996 23.9157 24.5375 23.9681 24.2844ZM27.8221 24.4382C27.6103 24.2097 27.3657 24.0511 27.244 23.9809C27.3868 23.9511 27.5378 23.9017 27.6789 23.8238C27.8441 24.0291 27.8535 24.2625 27.8221 24.4382ZM27.6831 23.4429C27.3977 23.7096 26.8965 23.7182 26.7518 23.7149C26.6476 23.6369 26.5543 23.5513 26.4718 23.4586C26.7664 23.2453 27.2489 23.4153 27.254 23.4172C27.2699 23.4232 27.286 23.4242 27.302 23.4247C27.3042 23.4248 27.3062 23.4269 27.3085 23.4269C27.3095 23.4269 27.3105 23.4262 27.3115 23.4262C27.3334 23.4258 27.3548 23.4212 27.3744 23.412C27.3748 23.4119 27.3752 23.4119 27.3752 23.4119C27.5203 23.343 27.7088 23.2123 27.8154 23.0453C27.8395 23.1613 27.8273 23.3083 27.6831 23.4429ZM27.7729 22.498C27.6857 22.4076 27.5648 22.3437 27.4364 22.2796C27.2199 22.1716 27.0035 22.0537 26.9259 21.7962C27.0101 21.7445 27.076 21.6754 27.1221 21.609C27.2717 21.6203 27.5871 21.6719 27.7355 21.8839C27.8364 22.0285 27.8459 22.2365 27.7729 22.498ZM25.6207 21.6882C25.4648 21.582 25.1801 21.484 24.9778 21.7288L24.9365 21.7791C24.7456 22.0123 24.1649 22.7218 23.8734 22.8404C23.8701 22.8417 23.8679 22.8446 23.8647 22.8462C23.8116 22.8326 23.7648 22.8142 23.7324 22.7885C23.7078 22.769 23.696 22.7487 23.6929 22.721C23.6783 22.5854 23.7386 22.526 23.9828 22.3509C24.168 22.218 24.422 22.0361 24.6637 21.7134C25.0358 21.2175 25.5012 21.1289 25.7826 21.4686C25.7286 21.5417 25.6744 21.6153 25.6207 21.6882ZM24.2426 21.5428C23.755 21.4761 23.3068 21.6388 23.0305 21.9973C22.9159 22.1463 22.85 22.3155 22.8188 22.4882C22.8 22.4959 22.7789 22.4963 22.7636 22.5116C22.7245 22.5514 22.6832 22.6018 22.6419 22.6575C22.3682 22.55 21.6274 22.2931 20.9905 22.3795C20.2541 22.4792 19.7102 22.3819 19.3932 22.2897C19.7325 22.1805 19.9827 21.6901 20.2244 21.2147C20.2896 21.0864 20.3513 20.9648 20.4094 20.8636C20.6998 20.3602 21.9722 19.715 23.203 19.0909C23.7208 18.8284 24.1102 18.4387 24.3973 18.0455C24.1735 19.4563 24.2171 20.9964 24.2426 21.5428ZM22.8336 22.9319C22.852 23.0044 22.8701 23.0774 22.9043 23.146C22.9252 23.1877 22.952 23.2183 22.9762 23.2536C22.8868 23.3429 22.7607 23.493 22.6771 23.6908C22.6061 23.3853 22.7228 23.1092 22.8336 22.9319ZM22.6846 24.4964C22.7397 24.627 22.8089 24.7367 22.8879 24.8265C22.7648 25.1927 22.6856 25.5284 22.6499 25.8295C22.5293 25.8513 22.395 25.8812 22.2468 25.9203C22.3282 25.3856 22.5388 24.8336 22.6846 24.4964ZM22.9734 25.7841C23.0055 25.5595 23.0638 25.3134 23.1474 25.0476C23.2724 25.1244 23.4008 25.1717 23.5151 25.1969C23.4674 25.3343 23.4084 25.5385 23.366 25.7769C23.277 25.7698 23.1462 25.7682 22.9734 25.7841ZM22.3505 24.4839C22.1888 24.8724 21.984 25.4537 21.9218 26.0154C21.7946 26.0561 21.6588 26.1036 21.5147 26.1582C21.6345 25.4593 21.9495 24.7534 21.9669 24.7146C22.1231 24.6401 22.2494 24.5611 22.3505 24.4839ZM21.2626 24.6322C21.383 24.3245 21.6462 23.8081 22.1154 23.555C22.2486 23.6156 22.3204 23.6632 22.322 23.6644C22.3323 23.6721 22.3449 23.6709 22.3562 23.6758C22.3697 23.7659 22.3959 23.8573 22.4345 23.9494C22.3818 24.0396 22.1125 24.4262 21.2626 24.6322ZM23.5867 24.8878C23.4022 24.8493 23.0881 24.7282 22.9444 24.3125C22.8728 24.1053 22.9111 23.9188 22.9825 23.7698C23.0061 24.0837 23.1341 24.3876 23.4654 24.4854C23.5009 24.601 23.5481 24.6933 23.5912 24.7409C23.5921 24.7419 23.5935 24.7422 23.5946 24.7433C23.5909 24.7912 23.5887 24.8395 23.5867 24.8878ZM23.3 23.5293C23.3851 23.5675 23.4732 23.5957 23.5643 23.6063C23.5079 23.6904 23.472 23.7749 23.4498 23.8513C23.4265 23.9312 23.4166 24.0123 23.4136 24.0919C23.2975 23.9497 23.2866 23.7078 23.3 23.5293ZM23.1835 23.0062C23.0534 22.7461 23.0895 22.4325 23.2779 22.1878C23.4683 21.9402 23.7749 21.8257 24.1167 21.8492C24.0044 21.9495 23.8963 22.0287 23.8011 22.0973C23.5675 22.2647 23.3467 22.4232 23.3831 22.755C23.395 22.8652 23.4487 22.9611 23.5382 23.0325C23.6917 23.1547 23.9306 23.1844 24.1133 23.188C24.1134 23.1963 24.1155 23.2038 24.1163 23.2119C24.0724 23.2276 24.0245 23.2414 23.9859 23.2592C23.7438 23.3263 23.3609 23.3621 23.1835 23.0062ZM23.7532 23.9264C23.8034 23.7671 23.9166 23.6428 24.0906 23.5555C24.1684 23.5332 24.235 23.5054 24.2965 23.4775C24.463 23.5735 24.7094 23.5799 24.9298 23.4775C25.0669 23.4136 25.2742 23.3651 25.5589 23.5683C25.3892 23.6483 25.1041 23.7426 24.733 23.7134C24.4296 23.6939 24.0951 23.8089 23.7377 24.0648C23.7343 24.0672 23.7342 24.0723 23.7309 24.075C23.7347 24.026 23.7374 23.9766 23.7532 23.9264ZM26.0341 28.1184C26.1698 28.1 26.3014 28.063 26.4289 28.0128C26.5564 28.2624 26.7289 28.7931 26.5827 29.0398C26.3014 28.6975 26.124 28.3326 26.0341 28.1184ZM27.9558 25.9396C28.0392 26.3728 28.0052 26.7638 27.8476 27.1053C27.58 27.6845 27.0323 27.9752 26.7977 28.0779C26.7663 27.9975 26.7362 27.9296 26.7088 27.8749C27.3063 27.5151 27.7673 26.8076 27.9558 25.9396ZM28.0453 25.1829C28.0463 25.1436 28.0496 25.105 28.0496 25.0654C28.0496 25.0488 28.0479 25.0327 28.0478 25.0161C28.1434 25.0038 28.2732 24.9763 28.4053 24.9118C28.5215 25.2294 28.6005 25.5214 28.642 25.7843C28.4224 25.7303 28.267 25.6951 28.2178 25.6842C28.1768 25.527 28.1251 25.3665 28.0573 25.2012C28.0544 25.194 28.049 25.1892 28.0453 25.1829ZM28.0452 23.8191C28.0151 23.7572 27.9741 23.6969 27.9265 23.6369C27.98 23.5813 28.0215 23.5241 28.0528 23.466C28.0569 23.4659 28.0609 23.4657 28.065 23.4653C28.1244 23.4593 28.1765 23.4502 28.223 23.438C28.2555 23.4905 28.2941 23.5721 28.3125 23.6693C28.2712 23.7132 28.243 23.766 28.2241 23.8168C28.1417 23.8705 28.0834 23.8359 28.0709 23.827C28.0635 23.8208 28.0534 23.8237 28.0452 23.8191ZM29.3721 25.9761C29.2315 25.9366 29.0961 25.9001 28.9693 25.867C28.9294 25.5271 28.8289 25.1417 28.6676 24.7184C28.7443 24.6385 28.8244 24.5317 28.8905 24.4129C29.0396 24.7467 29.2915 25.3769 29.3721 25.9761ZM29.0206 23.9403C29.0263 23.9326 29.0352 23.9282 29.0395 23.9192C29.0761 23.843 29.089 23.7773 29.0916 23.7163C29.3802 24.0947 29.8972 24.934 30.0944 26.1969C29.9643 26.1532 29.8309 26.1109 29.6976 26.0707C29.6081 25.1163 29.0774 24.0739 29.0548 24.03C29.0471 24.0148 29.0359 24.0031 29.0244 23.9917C29.0248 23.9741 29.0221 23.9574 29.0206 23.9403ZM30.4339 26.319C30.207 24.5486 29.369 23.5342 29.1604 23.3061C29.1771 23.303 29.1952 23.3032 29.2117 23.2996C30.4508 23.9597 30.7769 25.7816 30.8582 26.5019C30.7352 26.4399 30.5899 26.3788 30.4339 26.319ZM29.0264 23.0054C29.0229 22.9817 29.0181 22.9586 29.0129 22.9358C29.2746 22.7438 30.1683 22.0679 30.9638 21.2257C30.5895 21.9621 29.9405 22.8813 29.0264 23.0054ZM28.7259 23.1772C28.7257 23.1809 28.7263 23.1828 28.7262 23.1866C28.7262 23.1876 28.7256 23.1886 28.7256 23.1898C28.7256 23.191 28.7263 23.1919 28.7264 23.193C28.7203 23.3697 28.7449 23.4911 28.7638 23.579C28.7669 23.5936 28.769 23.6042 28.7713 23.6163C28.7107 23.5953 28.6582 23.5849 28.61 23.5791C28.5787 23.4441 28.5264 23.335 28.4817 23.2645C28.5567 23.1526 28.5842 22.9932 28.6056 22.7824C28.6782 22.8807 28.7334 23.0134 28.7259 23.1772ZM28.5 23.9374C28.5076 23.9207 28.5205 23.8923 28.5273 23.887C28.5271 23.8867 28.561 23.872 28.6738 23.9122C28.7034 23.9228 28.7078 23.9338 28.7112 23.9508C28.7394 24.0873 28.5673 24.3912 28.412 24.5346C28.3092 24.6293 28.1808 24.6734 28.0794 24.6944C28.1217 24.5676 28.1647 24.3698 28.1421 24.152C28.2205 24.1517 28.3054 24.1362 28.3954 24.0774C28.4541 24.0389 28.4805 23.9805 28.5 23.9374ZM28.3072 22.6312C28.2689 23.0393 28.2599 23.1141 28.1363 23.1404C28.1361 22.9828 28.0866 22.8378 28.0281 22.7336C28.1256 22.4639 28.1487 22.2308 28.1131 22.0283C28.1588 22.0472 28.204 22.0717 28.2406 22.112C28.3111 22.1895 28.3388 22.3078 28.3235 22.4626L28.3072 22.6312ZM21.0324 22.6893C21.5564 22.6172 22.1977 22.8244 22.4815 22.9305C22.4251 23.0503 22.3833 23.1838 22.3618 23.327C22.0914 23.1858 21.4376 22.928 20.2969 22.9507C19.8373 22.9698 19.5435 22.7866 19.3723 22.6102C19.7295 22.706 20.2922 22.7888 21.0324 22.6893ZM20.93 23.2822C21.2111 23.3053 21.4469 23.3455 21.6387 23.3941C21.2826 23.5303 20.7443 23.7472 20.3251 23.9646C20.461 23.7477 20.66 23.4936 20.93 23.2822ZM21.5644 24.8714C21.4355 25.1997 21.246 25.7536 21.181 26.2924C20.9981 26.3695 20.806 26.455 20.5989 26.5557C20.6774 26.1567 20.8478 25.4498 21.1291 24.9785C21.2887 24.9481 21.4338 24.9121 21.5644 24.8714ZM23.8092 27.2354C23.5968 26.7924 23.6008 26.2987 23.6633 25.8999C23.8755 26.9272 24.4676 27.735 25.2182 28.0199C25.1892 28.081 25.1627 28.1593 25.1487 28.2519C24.495 28.0532 24.0392 27.7157 23.8092 27.2354ZM25.0284 28.8021C25.0589 28.7334 25.1272 28.6802 25.1888 28.6428C25.2062 28.6924 25.2253 28.7426 25.2545 28.7948C25.2982 28.8731 25.349 28.9371 25.4027 28.9941C25.3687 29.0718 25.2891 29.1304 25.2111 29.1308H25.2109C25.1146 29.1308 25.0601 29.0431 25.0313 28.9695C25.0064 28.9061 25.0054 28.8529 25.0284 28.8021ZM27.4485 30.9002C27.3397 30.7848 27.2445 30.6666 27.1644 30.5569C27.3912 30.6697 27.6681 30.7953 27.9457 30.8901C27.7992 30.9108 27.6305 30.9194 27.4485 30.9002ZM26.0126 29.1872C26.0796 29.1708 26.1525 29.1412 26.2306 29.0956C26.3817 29.2997 26.5625 29.504 26.7844 29.6797C26.5099 29.6492 26.1867 29.5318 26.0126 29.1872ZM15.8902 19.1037C15.9076 19.1022 15.9398 19.1053 15.9788 19.1179C16.0327 19.1355 16.1012 19.1736 16.1786 19.2646C16.2964 19.4032 16.4497 19.516 16.617 19.6074C16.6266 19.6126 16.6354 19.6193 16.6452 19.6245C16.8591 19.736 17.0976 19.8078 17.3381 19.8183L17.4816 19.8256C18.2444 19.8666 19.0835 19.8903 19.3939 19.6513C19.6493 19.4551 20.0212 19.013 20.5358 18.4011C20.7043 18.2008 20.8871 17.9838 21.0838 17.754C21.4955 17.2729 22.2692 16.6094 22.9518 16.0244C23.6559 15.421 24.0593 15.0709 24.164 14.8891L24.1883 14.8464C24.5188 14.2695 25.0319 13.5304 25.6762 13.7933C26.3732 14.0756 26.4122 14.267 26.45 14.4519C26.4563 14.4832 26.4628 14.5141 26.4707 14.5446C26.5618 14.894 26.7066 15.3324 26.8742 15.8398C27.4096 17.4605 28.2027 19.8667 27.8577 21.5603C27.6073 21.3459 27.2636 21.3053 27.1114 21.2976C26.9726 21.122 26.7542 20.9531 26.491 20.9466C26.3459 20.9455 26.1469 20.9893 25.9723 21.2157C25.8056 21.0407 25.5971 20.9409 25.3694 20.9409C25.163 20.9409 24.8635 21.019 24.5485 21.3639C24.5206 20.5527 24.5017 18.5383 24.9198 17.1163C25.0427 16.8266 25.0971 16.6217 25.1032 16.5978C25.1236 16.5186 25.0793 16.4374 25.0022 16.411C24.9249 16.3871 24.8409 16.4224 24.8085 16.4975C24.7421 16.6527 24.6833 16.8188 24.6306 16.9936C24.4023 17.5267 23.9229 18.3758 23.0619 18.8125C21.4996 19.6044 20.4522 20.1643 20.1391 20.7076C20.0784 20.8128 20.014 20.9396 19.946 21.0732C19.7622 21.4351 19.5102 21.9308 19.294 21.9947C19.2571 22.0061 19.2247 22.0011 19.1857 21.9788C19.0079 21.8765 18.858 21.7067 18.7129 21.5421C18.5001 21.3004 18.28 21.0508 17.9597 21.0049L17.8975 20.9959C17.4487 20.933 16.5146 20.8013 16.3209 20.2833L16.2701 20.1477C16.0828 19.6456 16.0715 19.6155 15.8898 19.4167C15.7569 19.2719 15.7725 19.2179 15.8071 19.1559C15.8099 19.1507 15.8119 19.1457 15.8148 19.1405C15.8235 19.126 15.8483 19.1077 15.8902 19.1037Z" fill="#464655"/>
</g>
<defs>
<clipPath id="clip0_3462_29608">
<rect width="50" height="50" fill="white" transform="translate(0.789062 0.318359)"/>
</clipPath>
</defs>
</svg>
