<svg width="51" height="51" viewBox="0 0 51 51" fill="none" xmlns="http://www.w3.org/2000/svg">
<g clip-path="url(#clip0_3462_29594)">
<path d="M50.5126 25.3188H0.512695V9.80156C0.512695 9.32549 0.89873 8.93945 1.3748 8.93945H49.6506C50.1267 8.93945 50.5127 9.32549 50.5127 9.80156L50.5126 25.3188Z" fill="#FF4B55"/>
<path d="M0.512695 25.3184H50.5126V40.8356C50.5126 41.3117 50.1266 41.6977 49.6505 41.6977H1.3748C0.89873 41.6977 0.512695 41.3117 0.512695 40.8356V25.3184Z" fill="#F5F5F5"/>
<path d="M7.59943 17.1407C7.59943 14.3059 9.6795 11.956 12.3956 11.5214C12.5431 11.4977 12.5497 11.2949 12.4042 11.2613C11.7317 11.1067 11.0176 11.0627 10.276 11.1637C7.3465 11.5627 5.08205 14.0978 5.04064 17.0541C4.99348 20.4297 7.71476 23.1783 11.0743 23.1783C11.5316 23.1783 11.9757 23.1249 12.403 23.0265C12.5484 22.9931 12.5411 22.7898 12.3939 22.7662C9.67882 22.3318 7.59943 19.9865 7.59943 17.1407Z" fill="#F5F5F5"/>
<path d="M12.4403 18.6583L12.1851 19.4235L11.3785 19.4297C11.2741 19.4306 11.2308 19.5638 11.3149 19.6258L11.9637 20.105L11.7203 20.8741C11.6889 20.9737 11.8023 21.056 11.8871 20.9953L12.5434 20.5262L13.1996 20.9953C13.2846 21.056 13.3979 20.9736 13.3664 20.8741L13.1231 20.105L13.7719 19.6258C13.856 19.5637 13.8126 19.4306 13.7082 19.4297L12.9017 19.4235L12.6465 18.6583C12.6134 18.5592 12.4733 18.5592 12.4403 18.6583Z" fill="#F5F5F5"/>
<path d="M16.4276 18.6583L16.1724 19.4235L15.3658 19.4297C15.2615 19.4306 15.2181 19.5638 15.3022 19.6258L15.951 20.105L15.7076 20.8741C15.6762 20.9737 15.7896 21.056 15.8744 20.9953L16.5307 20.5262L17.1869 20.9953C17.2719 21.056 17.3852 20.9736 17.3537 20.8741L17.1104 20.105L17.7592 19.6258C17.8433 19.5637 17.7999 19.4306 17.6955 19.4297L16.889 19.4235L16.6338 18.6583C16.6007 18.5592 16.4607 18.5592 16.4276 18.6583Z" fill="#F5F5F5"/>
<path d="M14.452 12.504L14.1968 13.2692L13.3903 13.2754C13.2859 13.2763 13.2425 13.4095 13.3266 13.4715L13.9754 13.9507L13.7321 14.7198C13.7006 14.8194 13.814 14.9017 13.8989 14.841L14.5551 14.3719L15.2114 14.841C15.2963 14.9017 15.4096 14.8193 15.3781 14.7198L15.1348 13.9507L15.7836 13.4715C15.8677 13.4094 15.8243 13.2763 15.7199 13.2754L14.9134 13.2692L14.6582 12.504C14.6251 12.4049 14.485 12.4049 14.452 12.504Z" fill="#F5F5F5"/>
<path d="M11.2733 14.8614L11.0181 15.6266L10.2116 15.6329C10.1072 15.6337 10.0638 15.7669 10.1479 15.829L10.7967 16.3082L10.5533 17.0772C10.5219 17.1768 10.6353 17.2591 10.7201 17.1984L11.3764 16.7293L12.0326 17.1984C12.1176 17.2591 12.2309 17.1767 12.1994 17.0772L11.9561 16.3082L12.6049 15.829C12.689 15.7668 12.6456 15.6337 12.5412 15.6329L11.7347 15.6266L11.4795 14.8614C11.4464 14.7624 11.3064 14.7624 11.2733 14.8614Z" fill="#F5F5F5"/>
<path d="M17.6043 14.8614L17.3491 15.6266L16.5426 15.6329C16.4382 15.6337 16.3949 15.7669 16.4789 15.829L17.1278 16.3082L16.8844 17.0772C16.853 17.1768 16.9663 17.2591 17.0512 17.1984L17.7074 16.7293L18.3637 17.1984C18.4487 17.2591 18.5619 17.1767 18.5305 17.0772L18.2871 16.3082L18.936 15.829C19.02 15.7668 18.9767 15.6337 18.8723 15.6329L18.0657 15.6266L17.8106 14.8614C17.7775 14.7624 17.6373 14.7624 17.6043 14.8614Z" fill="#F5F5F5"/>
</g>
<defs>
<clipPath id="clip0_3462_29594">
<rect width="50" height="50" fill="white" transform="translate(0.511719 0.318359)"/>
</clipPath>
</defs>
</svg>
