<svg width="51" height="51" viewBox="0 0 51 51" fill="none" xmlns="http://www.w3.org/2000/svg">
<g clip-path="url(#clip0_3462_29588)">
<path d="M49.9444 41.698H1.66875C1.19268 41.698 0.806641 41.312 0.806641 40.8359V9.80156C0.806641 9.32549 1.19268 8.93945 1.66875 8.93945H49.9445C50.4206 8.93945 50.8066 9.32549 50.8066 9.80156V40.8359C50.8065 41.312 50.4205 41.698 49.9444 41.698Z" fill="#41479B"/>
<path d="M49.9444 8.93945H1.66875C1.19268 8.93945 0.806641 9.32549 0.806641 9.80156V40.8359C0.806641 41.312 1.19268 41.698 1.66875 41.698H49.9445C50.4206 41.698 50.8066 41.312 50.8066 40.8359V9.80156C50.8065 9.32549 50.4205 8.93945 49.9444 8.93945ZM49.0823 24.4566H40.6757L26.6687 17.0412V10.6636H49.0824V24.4566H49.0823V24.4566ZM25.8065 32.1021L12.9939 25.3187L25.8066 18.5354L38.6193 25.3187L25.8065 32.1021ZM24.9445 10.6636V17.0412L10.9374 24.4566H2.53076V10.6636H24.9445ZM2.53076 26.1808H10.9374L24.9445 33.5963V39.9739H2.53076V26.1808ZM26.6686 39.9739V33.5962L40.6758 26.1808H49.0823V39.9739H26.6686V39.9739Z" fill="#FF4B55"/>
<path d="M25.8057 18.5352L12.9932 25.3184L25.8057 32.1018L38.6185 25.3184L25.8057 18.5352Z" fill="#F5F5F5"/>
<path d="M21.4961 29.8189H30.1169L36.1189 26.6414L33.4188 23.9414H32.4762L31.7804 24.6372L31.2841 24.1408H30.2914L26.4834 27.9487H21.7031L20.6176 26.3414H19.2399L18.6972 27.1019H18.0871L17.7207 27.8202L21.4961 29.8189Z" fill="#73AF00"/>
<path d="M25.9215 21.1876L26.2642 22.2149L27.3472 22.2233C27.4874 22.2244 27.5455 22.4034 27.4327 22.4867L26.5615 23.1301L26.8883 24.1626C26.9306 24.2963 26.7783 24.4069 26.6643 24.3253L25.7832 23.6955L24.9022 24.3253C24.788 24.4068 24.6359 24.2962 24.6781 24.1626L25.0049 23.1301L24.1337 22.4867C24.0209 22.4034 24.0791 22.2245 24.2193 22.2233L25.3023 22.2149L25.6449 21.1876C25.689 21.0547 25.8772 21.0547 25.9215 21.1876Z" fill="#FFE15A"/>
</g>
<defs>
<clipPath id="clip0_3462_29588">
<rect width="50" height="50" fill="white" transform="translate(0.804688 0.318359)"/>
</clipPath>
</defs>
</svg>
