<svg width="51" height="51" viewBox="0 0 51 51" fill="none" xmlns="http://www.w3.org/2000/svg">
<g clip-path="url(#clip0_3462_29561)">
<path d="M1.4832 9.36719H49.759C50.2351 9.36719 50.6211 9.75322 50.6211 10.2293V25.7465H0.621094V10.2292C0.621094 9.75312 1.00713 9.36719 1.4832 9.36719Z" fill="#FF4B55"/>
<path d="M49.7589 42.1254H1.4832C1.00713 42.1254 0.621094 41.7393 0.621094 41.2633V25.7461H50.621V41.2633C50.621 41.7394 50.235 42.1254 49.7589 42.1254Z" fill="#41479B"/>
<path d="M0.939062 41.9179L24.8004 26.2845C25.1877 26.0307 25.1877 25.4631 24.8004 25.2094L0.939062 9.57617C0.749121 9.73428 0.621094 9.96338 0.621094 10.2298V41.2642C0.621094 41.5307 0.749121 41.7598 0.939062 41.9179Z" fill="#F5F5F5"/>
<path d="M9.45888 25.1267C10.9539 25.1267 12.1658 23.9148 12.1658 22.4198C12.1658 20.9248 10.9539 19.7129 9.45888 19.7129C7.96389 19.7129 6.75195 20.9248 6.75195 22.4198C6.75195 23.9148 7.96389 25.1267 9.45888 25.1267Z" fill="#FFE15A"/>
<path d="M12.7682 24.9255C12.779 25.2539 12.8147 25.5928 12.8492 25.9203C12.9845 27.2058 13.1014 28.3161 11.8668 28.7468C11.575 28.8485 11.1773 28.9056 10.793 28.9606C10.2411 29.0397 9.74697 29.1104 9.45956 29.3107C9.17216 29.1105 8.67812 29.0397 8.12617 28.9606C7.74179 28.9056 7.34404 28.8484 7.05234 28.7468C5.81777 28.3161 5.93467 27.2058 6.06992 25.9203C6.10439 25.5928 6.14004 25.2539 6.15088 24.9255C6.18926 23.7616 5.94385 22.6212 5.77148 21.9766C6.05869 22.0944 6.45683 22.2008 6.94502 22.1922C7.15537 22.188 7.3916 22.158 7.6416 22.1264C8.2123 22.0536 8.85908 21.9718 9.37675 22.1764L9.45976 22.2133L9.54277 22.1764C10.0603 21.9718 10.7072 22.0536 11.2779 22.1264C11.5279 22.158 11.7641 22.188 11.9745 22.1922C12.4627 22.2008 12.8609 22.0943 13.148 21.9766C12.9752 22.6211 12.7299 23.7616 12.7682 24.9255Z" fill="#8CD7FF"/>
<path d="M13.2191 24.9124C13.1647 23.2626 13.7276 21.6074 13.7334 21.5909L13.3786 21.3418C13.374 21.3456 12.8404 21.7595 11.983 21.743C11.7967 21.7395 11.5722 21.7108 11.3344 21.6806C10.7374 21.605 10.064 21.5193 9.45946 21.728C8.85497 21.5194 8.18163 21.6051 7.58456 21.6806C7.34687 21.7107 7.12226 21.7394 6.93593 21.743C6.07851 21.7595 5.54502 21.3455 5.54033 21.3418L5.18555 21.5909C5.19111 21.6074 5.7542 23.2626 5.6998 24.9124C5.68955 25.2248 5.65478 25.5553 5.621 25.8749C5.48535 27.1645 5.33154 28.6264 6.90351 29.1748C7.23662 29.2908 7.65751 29.3422 8.06191 29.4092C9.27606 29.6103 9.45937 29.9205 9.45937 29.9205C9.45937 29.9205 9.64267 29.6102 10.8568 29.4092C11.2612 29.3422 11.6821 29.2908 12.0152 29.1748C13.5873 28.6264 13.4336 27.1645 13.2977 25.8749C13.2642 25.5552 13.2294 25.2248 13.2191 24.9124ZM12.7682 24.9273C12.779 25.2558 12.8147 25.5946 12.8492 25.9222C12.9845 27.2076 13.1013 28.318 11.8668 28.7486C11.575 28.8504 11.1773 28.9074 10.793 28.9625C10.2411 29.0416 9.74696 29.1123 9.45956 29.3126C9.17216 29.1124 8.67812 29.0416 8.12617 28.9625C7.74179 28.9074 7.34404 28.8503 7.05234 28.7486C5.81777 28.318 5.93467 27.2076 6.06992 25.9222C6.10439 25.5946 6.14004 25.2558 6.15088 24.9273C6.18926 23.7635 5.94385 22.623 5.77148 21.9784C6.05869 22.0963 6.45683 22.2026 6.94502 22.194C7.15537 22.1898 7.3916 22.1599 7.6416 22.1282C8.2123 22.0555 8.85907 21.9736 9.37675 22.1782L9.45976 22.2151L9.54276 22.1782C10.0603 21.9736 10.7072 22.0555 11.2779 22.1282C11.5279 22.1599 11.7641 22.1898 11.9745 22.194C12.4627 22.2026 12.8609 22.0962 13.148 21.9784C12.9752 22.6229 12.7299 23.7635 12.7682 24.9273Z" fill="#FF4B55"/>
<path d="M11.7864 27.6991V26.7048H11.9568V26.4114H11.54V25.3902H11.9568L10.0508 24.0399V23.532H10.3159L9.46005 22.9258L8.60439 23.532H8.86933V24.0399L6.96328 25.3902H7.38017V26.4114H6.96328V26.7048H7.13379V27.6991H6.88477V28.1283H12.0355V27.6991H11.7864Z" fill="#F5F5F5"/>
<path d="M6.98664 23.6303C6.9259 23.7742 6.93625 23.9268 7.0008 24.039C7.12639 24.0069 7.24279 23.908 7.30363 23.7642C7.36438 23.6202 7.35402 23.4677 7.28947 23.3555C7.16399 23.3875 7.04748 23.4864 6.98664 23.6303Z" fill="#41AA5A"/>
<path d="M7.2817 23.676C7.32134 23.8271 7.42255 23.9415 7.54187 23.9909C7.62155 23.889 7.6532 23.7395 7.61356 23.5884C7.57392 23.4373 7.47271 23.3229 7.35339 23.2734C7.27381 23.3753 7.24206 23.5249 7.2817 23.676Z" fill="#41AA5A"/>
<path d="M7.74092 23.4251C7.8874 23.4795 8.03926 23.4626 8.14863 23.3931C8.11123 23.2691 8.00723 23.157 7.86084 23.1026C7.71435 23.0482 7.5625 23.0651 7.45312 23.1346C7.49053 23.2585 7.59443 23.3705 7.74092 23.4251Z" fill="#41AA5A"/>
<path d="M7.87754 23.1669C8.02051 23.104 8.11787 22.986 8.14795 22.86C8.03467 22.7971 7.88213 22.789 7.73916 22.8518C7.59619 22.9147 7.49893 23.0327 7.46875 23.1587C7.58184 23.2216 7.73447 23.2297 7.87754 23.1669Z" fill="#41AA5A"/>
<path d="M6.91582 23.297C7.04326 23.2066 7.11484 23.0716 7.11904 22.942C6.99551 22.9032 6.84434 22.9259 6.71689 23.0163C6.58945 23.1066 6.51787 23.2416 6.51367 23.3712C6.63721 23.4102 6.78848 23.3874 6.91582 23.297Z" fill="#41AA5A"/>
<path d="M6.81025 23.108C7.00635 23.2203 7.21641 23.2508 7.37266 23.2057C7.33242 23.0481 7.1999 22.8823 7.00381 22.77C6.80771 22.6577 6.59766 22.6273 6.44141 22.6724C6.48164 22.83 6.61426 22.9957 6.81025 23.108Z" fill="#41AA5A"/>
<path d="M7.63809 23.3371C7.63809 23.2609 7.57744 23.1996 7.50186 23.1968C7.49902 23.1212 7.43789 23.0605 7.36152 23.0605C7.28516 23.0605 7.22402 23.1212 7.22119 23.1968C7.14561 23.1996 7.08496 23.2607 7.08496 23.3371C7.08496 23.4133 7.14561 23.4745 7.22119 23.4774C7.22402 23.553 7.28516 23.6137 7.36152 23.6137C7.43789 23.6137 7.49902 23.553 7.50186 23.4774C7.57744 23.4745 7.63809 23.4133 7.63809 23.3371Z" fill="#FFE15A"/>
<path d="M7.36209 23.4219C7.40782 23.4219 7.44489 23.3847 7.44489 23.3389C7.44489 23.293 7.40782 23.2559 7.36209 23.2559C7.31637 23.2559 7.2793 23.293 7.2793 23.3389C7.2793 23.3847 7.31637 23.4219 7.36209 23.4219Z" fill="#F5F5F5"/>
<path d="M7.19668 23.1979C7.19668 23.1353 7.14678 23.0849 7.08476 23.0826C7.08242 23.0205 7.03203 22.9707 6.96943 22.9707C6.90674 22.9707 6.85635 23.0206 6.8541 23.0826C6.79199 23.085 6.74219 23.1354 6.74219 23.1979C6.74219 23.2606 6.79209 23.311 6.8541 23.3133C6.85644 23.3754 6.90684 23.4252 6.96943 23.4252C7.03213 23.4252 7.08252 23.3753 7.08476 23.3133C7.14678 23.3109 7.19668 23.2606 7.19668 23.1979Z" fill="#FFE15A"/>
<path d="M6.96936 23.2652C7.00691 23.2652 7.03735 23.2347 7.03735 23.1971C7.03735 23.1594 7.00691 23.1289 6.96936 23.1289C6.93181 23.1289 6.90137 23.1594 6.90137 23.1971C6.90137 23.2347 6.93181 23.2652 6.96936 23.2652Z" fill="#F5F5F5"/>
<path d="M7.61967 23.0017C7.61967 22.9565 7.58372 22.9202 7.53921 22.9186C7.53746 22.8738 7.50142 22.8379 7.45632 22.8379C7.41122 22.8379 7.37508 22.8739 7.37343 22.9186C7.32881 22.9203 7.29297 22.9564 7.29297 23.0017C7.29297 23.0468 7.32891 23.0831 7.37343 23.0848C7.37518 23.1295 7.41122 23.1654 7.45632 23.1654C7.50142 23.1654 7.53755 23.1294 7.53921 23.0848C7.58382 23.0831 7.61967 23.0469 7.61967 23.0017Z" fill="#FFE15A"/>
<path d="M7.45622 23.0514C7.48328 23.0514 7.50522 23.0294 7.50522 23.0022C7.50522 22.9751 7.48328 22.9531 7.45622 22.9531C7.42916 22.9531 7.40723 22.9751 7.40723 23.0022C7.40723 23.0294 7.42916 23.0514 7.45622 23.0514Z" fill="#F5F5F5"/>
<path d="M7.30912 22.861C7.30912 22.8159 7.27318 22.7796 7.22866 22.7779C7.22691 22.7332 7.19087 22.6973 7.14577 22.6973C7.10077 22.6973 7.06453 22.7333 7.06288 22.7779C7.01827 22.7797 6.98242 22.8158 6.98242 22.861C6.98242 22.9062 7.01836 22.9425 7.06288 22.9441C7.06463 22.9889 7.10067 23.0248 7.14577 23.0248C7.19077 23.0248 7.22701 22.9888 7.22866 22.9441C7.27327 22.9425 7.30912 22.9062 7.30912 22.861Z" fill="#FFE15A"/>
<path d="M7.1447 22.9107C7.17176 22.9107 7.19369 22.8888 7.19369 22.8616C7.19369 22.8345 7.17176 22.8125 7.1447 22.8125C7.11764 22.8125 7.0957 22.8345 7.0957 22.8616C7.0957 22.8888 7.11764 22.9107 7.1447 22.9107Z" fill="#F5F5F5"/>
<path d="M10.9131 24.1014H12.4776C12.3774 23.872 12.1809 23.6944 11.9371 23.6222C11.9549 23.5083 11.9658 23.3818 11.9658 23.2462C11.9658 22.7736 11.8448 22.3906 11.6954 22.3906C11.546 22.3906 11.425 22.7737 11.425 23.2462C11.425 23.3817 11.4358 23.5083 11.4537 23.6222C11.2099 23.6944 11.0132 23.872 10.9131 24.1014Z" fill="#F5F5F5"/>
<path d="M9.45956 31.7808C6.16328 31.7808 3.48145 29.0992 3.48145 25.8027H4.60937C4.60937 28.4771 6.78515 30.6528 9.45946 30.6528C12.1338 30.6528 14.3095 28.4771 14.3095 25.8027H15.4377C15.4377 29.0992 12.756 31.7808 9.45956 31.7808Z" fill="#FFE15A"/>
<path d="M11.6755 20.46H10.7006C10.7984 20.46 10.8778 20.3807 10.8778 20.2827C10.8778 20.1848 10.7985 20.1055 10.7006 20.1055H9.45986C9.36201 20.1055 9.28261 20.1848 9.28261 20.2827C9.28261 20.3807 9.36191 20.46 9.45986 20.46H7.24434C7.09746 20.46 6.97852 20.579 6.97852 20.7258C6.97852 20.8726 7.09756 20.9916 7.24434 20.9916H8.04189C7.94404 20.9916 7.86474 21.0709 7.86474 21.1688C7.86474 21.2667 7.94404 21.3461 8.04199 21.3461H9.6372C9.73505 21.3461 9.81445 21.2668 9.81445 21.1688C9.81445 21.071 9.73515 20.9916 9.6373 20.9916H11.6756C11.8224 20.9916 11.9414 20.8726 11.9414 20.7258C11.9414 20.579 11.8224 20.46 11.6755 20.46Z" fill="#C87878"/>
</g>
<defs>
<clipPath id="clip0_3462_29561">
<rect width="50" height="50" fill="white" transform="translate(0.621094 0.746094)"/>
</clipPath>
</defs>
</svg>
