<svg width="51" height="51" viewBox="0 0 51 51" fill="none" xmlns="http://www.w3.org/2000/svg">
<g clip-path="url(#clip0_3462_29553)">
<path d="M50.9149 20.2868H0.915039V10.2293C0.915039 9.75322 1.30107 9.36719 1.77715 9.36719H50.0529C50.529 9.36719 50.915 9.75322 50.915 10.2293L50.9149 20.2868Z" fill="#F5F5F5"/>
<path d="M50.0528 42.1246H1.77715C1.30107 42.1246 0.915039 41.7386 0.915039 41.2625V31.2051H50.9149V41.2625C50.9149 41.7386 50.5289 42.1246 50.0528 42.1246Z" fill="#FF4B55"/>
<path d="M50.9149 20.2871H0.915039V31.206H50.9149V20.2871Z" fill="#41479B"/>
<path d="M13.6316 33.8796C13.3765 33.733 7.37988 30.2452 7.37988 24.8842V17.5566H20.3109V24.8842C20.3109 30.2452 14.3143 33.733 14.0592 33.8796L13.8454 34.0015L13.6316 33.8796Z" fill="#FF4B55"/>
<path d="M17.2324 23.591L15.2003 23.8587H14.523V22.646H14.9294L16.555 22.9137L16.3349 21.9686L16.555 21.0236L14.9294 21.2912H14.523V20.8816L14.7906 18.8496L13.8457 19.1249L12.9008 18.8496L13.1684 20.8816V21.2912H12.7618L11.1363 21.0236L11.3564 21.9686L11.1363 22.9137L12.7618 22.646H13.1684V23.8587H12.491L10.459 23.591L10.7342 24.5359L10.459 25.4809L12.491 25.2133H13.1684V28.3324H14.523V25.2133H15.2003L17.2324 25.4809L16.9572 24.5359L17.2324 23.591Z" fill="#F5F5F5"/>
<path d="M13.8466 27.0391C12.9561 27.0391 12.1925 27.5793 11.864 28.3495C11.806 28.3447 11.7505 28.3321 11.6914 28.3321C10.5438 28.3321 9.61465 29.2315 9.54883 30.3625C11.2944 32.5113 13.4809 33.7918 13.6328 33.8792L13.8466 34.0013L14.0603 33.8792C14.2123 33.7918 16.3987 32.5114 18.1443 30.3625C18.0785 29.2315 17.1493 28.3321 16.0017 28.3321C15.9427 28.3321 15.8872 28.3447 15.8292 28.3495C15.5007 27.5793 14.737 27.0391 13.8466 27.0391Z" fill="#41479B"/>
<path d="M19.8802 17.9871C19.8802 17.9871 19.8802 23.1596 19.8802 24.8837C19.8802 30.0561 13.8458 33.5044 13.8458 33.5044C13.8458 33.5044 7.81133 30.0561 7.81133 24.8837C7.81133 23.1596 7.81133 17.9871 7.81133 17.9871H19.8802ZM20.7423 17.125H19.8802H7.81133H6.94922V17.9871V24.8837C6.94922 30.4919 13.154 34.1018 13.4181 34.2528L13.8458 34.4972L14.2735 34.2528C14.5377 34.1018 20.7424 30.4918 20.7424 24.8837V17.9871V17.125H20.7423Z" fill="#F5F5F5"/>
</g>
<defs>
<clipPath id="clip0_3462_29553">
<rect width="50" height="50" fill="white" transform="translate(0.914062 0.746094)"/>
</clipPath>
</defs>
</svg>
