<svg width="51" height="51" viewBox="0 0 51 51" fill="none" xmlns="http://www.w3.org/2000/svg">
<g clip-path="url(#clip0_3462_29538)">
<path d="M50.3437 20.2868H0.34375V10.2293C0.34375 9.75322 0.729784 9.36719 1.20586 9.36719H49.4816C49.9577 9.36719 50.3437 9.75322 50.3437 10.2293L50.3437 20.2868Z" fill="#F5F5F5"/>
<path d="M49.4815 42.1246H1.20586C0.729784 42.1246 0.34375 41.7386 0.34375 41.2625V31.2051H50.3437V41.2625C50.3437 41.7386 49.9576 42.1246 49.4815 42.1246Z" fill="#FF4B55"/>
<path d="M50.3437 20.2852H0.34375V31.2041H50.3437V20.2852Z" fill="#41479B"/>
<path d="M17.142 16.114C17.142 16.114 16.9683 21.6441 16.1924 23.197C15.2318 25.1057 14.2661 25.6626 12.8293 26.177C11.3927 25.6626 10.4269 25.1062 9.46621 23.197C8.69033 21.644 8.5165 16.1146 8.5166 16.114C11.2585 14.8761 14.4001 14.8761 17.142 16.114Z" fill="#41479B"/>
<path d="M14.0782 23.7836C13.9731 23.7162 13.8974 23.668 13.7249 23.668C13.5529 23.668 13.4771 23.7161 13.3726 23.7836C13.2527 23.8599 13.1037 23.9554 12.8267 23.9554C12.5494 23.9554 12.4004 23.8599 12.2806 23.7832C12.176 23.7163 12.1004 23.6682 11.9284 23.6682C11.7564 23.6682 11.6809 23.7163 11.5763 23.7832C11.4631 23.8558 11.32 23.9422 11.0713 23.9519C11.5949 24.5903 12.1438 24.8933 12.8289 25.1562C13.5137 24.8932 14.0625 24.5905 14.5861 23.952C14.3356 23.943 14.1918 23.856 14.0782 23.7836Z" fill="#F5F5F5"/>
<path d="M10.6784 22.7613C10.783 22.8282 10.8584 22.8764 11.0298 22.8764C11.2018 22.8764 11.2773 22.8282 11.3819 22.7613C11.5018 22.6846 11.6508 22.5892 11.9278 22.5892C12.2049 22.5892 12.3539 22.6847 12.4737 22.7609C12.5783 22.8283 12.6541 22.8766 12.8261 22.8766C12.998 22.8766 13.0736 22.8284 13.1782 22.7615C13.298 22.6848 13.4471 22.5893 13.7243 22.5893C14.0018 22.5893 14.1511 22.6849 14.2709 22.7611C14.376 22.8285 14.4515 22.8767 14.624 22.8767C14.7966 22.8767 14.8723 22.8286 14.9773 22.7611C15.0774 22.6974 15.2031 22.6235 15.4021 22.5999C15.4543 22.4642 15.505 22.3094 15.5521 22.1214L14.266 19.9778L13.7868 20.9362L12.8284 19.0195L11.87 20.9362L11.3908 19.9778L10.1055 22.1201C10.1524 22.308 10.203 22.4635 10.2553 22.6001C10.4535 22.6234 10.5786 22.6973 10.6784 22.7613Z" fill="#F5F5F5"/>
<path d="M15.1699 23.0648C15.0501 23.1411 14.9009 23.2366 14.6233 23.2366C14.3461 23.2366 14.1969 23.1411 14.077 23.0648C13.972 22.9975 13.8962 22.9492 13.7237 22.9492C13.5518 22.9492 13.476 22.9974 13.3714 23.0648C13.2516 23.1411 13.1025 23.2366 12.8255 23.2366C12.5482 23.2366 12.3992 23.1411 12.2794 23.0645C12.1748 22.9976 12.0992 22.9494 11.9272 22.9494C11.7553 22.9494 11.6797 22.9976 11.5751 23.0645C11.4553 23.1412 11.3062 23.2366 11.0292 23.2366C10.7523 23.2366 10.6035 23.1411 10.4841 23.0645C10.4835 23.0642 10.483 23.0638 10.4824 23.0634C10.5764 23.2339 10.6702 23.3904 10.7638 23.5324C10.8337 23.5708 10.9068 23.596 11.0292 23.596C11.2012 23.596 11.2768 23.5479 11.3813 23.481C11.5012 23.4042 11.6502 23.3088 11.9272 23.3088C12.2043 23.3088 12.3533 23.4043 12.4731 23.4806C12.5777 23.5479 12.6535 23.5962 12.8255 23.5962C12.9975 23.5962 13.073 23.548 13.1776 23.4812C13.2975 23.4044 13.4465 23.309 13.7237 23.309C14.0012 23.309 14.1505 23.4045 14.2703 23.4808C14.3754 23.5481 14.4509 23.5964 14.6234 23.5964C14.7476 23.5964 14.8214 23.5708 14.8924 23.5316C14.9858 23.3898 15.0797 23.2333 15.1735 23.063C15.1723 23.0635 15.1712 23.0642 15.1699 23.0648Z" fill="#F5F5F5"/>
<path d="M12.849 17.3695L12.9331 17.6443L13.2131 17.5797C13.232 17.5753 13.2453 17.5983 13.232 17.6124L13.0361 17.8227L13.232 18.0329C13.2453 18.0472 13.2321 18.0701 13.2131 18.0656L12.9331 18.0011L12.849 18.2759C12.8434 18.2946 12.8169 18.2946 12.8112 18.2759L12.7272 18.0011L12.4472 18.0656C12.4282 18.07 12.415 18.0471 12.4282 18.0329L12.6241 17.8227L12.4282 17.6124C12.415 17.5982 12.4281 17.5752 12.4472 17.5797L12.7272 17.6443L12.8112 17.3695C12.817 17.3508 12.8434 17.3508 12.849 17.3695Z" fill="#FFE15A"/>
<path d="M11.4711 16.0491L11.5552 16.3239L11.8352 16.2594C11.8541 16.255 11.8674 16.278 11.8541 16.2921L11.6582 16.5024L11.8541 16.7126C11.8674 16.7269 11.8542 16.7498 11.8352 16.7453L11.5552 16.6808L11.4711 16.9556C11.4654 16.9742 11.439 16.9742 11.4333 16.9556L11.3492 16.6808L11.0693 16.7453C11.0503 16.7497 11.037 16.7268 11.0503 16.7126L11.2462 16.5024L11.0503 16.2921C11.037 16.2779 11.0502 16.2549 11.0693 16.2594L11.3492 16.3239L11.4333 16.0491C11.439 16.0305 11.4653 16.0305 11.4711 16.0491Z" fill="#FFE15A"/>
<path d="M14.2367 16.0491L14.3208 16.3239L14.6008 16.2594C14.6197 16.255 14.633 16.278 14.6197 16.2921L14.4238 16.5024L14.6197 16.7126C14.633 16.7269 14.6198 16.7498 14.6008 16.7453L14.3208 16.6808L14.2367 16.9556C14.2311 16.9742 14.2046 16.9742 14.1989 16.9556L14.1149 16.6808L13.8349 16.7453C13.8159 16.7497 13.8026 16.7268 13.8159 16.7126L14.0118 16.5024L13.8159 16.2921C13.8026 16.2779 13.8158 16.2549 13.8349 16.2594L14.1149 16.3239L14.1989 16.0491C14.2047 16.0305 14.2311 16.0305 14.2367 16.0491Z" fill="#FFE15A"/>
<path d="M16.6462 15.9062C16.6491 16.0591 16.6515 16.2133 16.6515 16.3798C16.5824 18.1087 16.3252 21.8737 15.7646 23.0077C14.9382 24.6675 14.1751 25.2161 12.8296 25.7217C11.4841 25.2162 10.7211 24.6677 9.89521 23.009C9.33262 21.8707 9.07353 18.0416 9.00742 16.3799C9.00742 16.2132 9.01016 16.0607 9.0125 15.9066C8.84668 15.9716 8.68184 16.0402 8.51855 16.114C8.53008 16.4497 8.61367 18.6522 8.86475 20.5889C9.00635 21.67 9.20127 22.6664 9.4666 23.1975C10.4272 25.1067 11.393 25.6632 12.8297 26.1775C14.2665 25.663 15.2321 25.1063 16.1929 23.1975C16.4583 22.6664 16.6531 21.67 16.7948 20.5889C17.0458 18.6522 17.1293 16.4497 17.1409 16.114C16.9773 16.04 16.8124 15.9712 16.6462 15.9062Z" fill="#FF1722"/>
</g>
<defs>
<clipPath id="clip0_3462_29538">
<rect width="50" height="50" fill="white" transform="translate(0.34375 0.746094)"/>
</clipPath>
</defs>
</svg>
