<svg width="51" height="51" viewBox="0 0 51 51" fill="none" xmlns="http://www.w3.org/2000/svg">
<g clip-path="url(#clip0_3462_29528)">
<path d="M49.7755 42.1258H1.4998C1.02373 42.1258 0.637695 41.7398 0.637695 41.2637V10.2293C0.637695 9.75322 1.02373 9.36719 1.4998 9.36719H49.7756C50.2517 9.36719 50.6377 9.75322 50.6377 10.2293V41.2637C50.6376 41.7399 50.2516 42.1258 49.7755 42.1258Z" fill="#41479B"/>
<path d="M50.319 9.57617L0.955078 41.9179C1.10449 42.0423 1.28955 42.1263 1.49912 42.1263H49.7749C50.251 42.1263 50.637 41.7403 50.637 41.2642V10.2298C50.637 9.96338 50.509 9.73418 50.319 9.57617Z" fill="#73AF00"/>
<path d="M50.6376 10.2293C50.6376 9.75322 50.2516 9.36719 49.7755 9.36719H48.2775L0.637695 40.5796V41.2638C0.637695 41.7399 1.02373 42.1259 1.4998 42.1259H2.99775L50.6376 10.9135V10.2293Z" fill="#FFE15A"/>
<path d="M4.97595 12.0527L4.51443 13.4364L3.05584 13.4477C2.91599 13.4488 2.85798 13.6273 2.97048 13.7104L4.14382 14.5769L3.70388 15.9676C3.6616 16.101 3.81355 16.2112 3.92742 16.13L5.11413 15.2819L6.30085 16.13C6.41462 16.2113 6.56647 16.101 6.52438 15.9676L6.08444 14.5769L7.25778 13.7104C7.37028 13.6273 7.31227 13.4488 7.17243 13.4477L5.71384 13.4364L5.25232 12.0527C5.20798 11.9199 5.02028 11.9199 4.97595 12.0527Z" fill="#F5F5F5"/>
<path d="M16.0873 12.0527L15.6258 13.4364L14.1672 13.4477C14.0273 13.4488 13.9693 13.6273 14.0818 13.7104L15.2551 14.5769L14.8152 15.9676C14.7729 16.101 14.9249 16.2112 15.0387 16.13L16.2255 15.2819L17.4122 16.13C17.5259 16.2113 17.6778 16.101 17.6357 15.9676L17.1958 14.5769L18.3691 13.7104C18.4816 13.6273 18.4236 13.4488 18.2838 13.4477L16.8252 13.4364L16.3636 12.0527C16.3192 11.9199 16.1315 11.9199 16.0873 12.0527Z" fill="#F5F5F5"/>
<path d="M10.5316 17.0038L10.0701 18.3875L8.6115 18.3989C8.47166 18.3999 8.41365 18.5784 8.52615 18.6615L9.69949 19.528L9.25955 20.9188C9.21726 21.0522 9.36921 21.1624 9.48308 21.0812L10.6698 20.233L11.8565 21.0812C11.9703 21.1625 12.1221 21.0522 12.08 20.9188L11.6401 19.528L12.8134 18.6615C12.9259 18.5784 12.8679 18.3999 12.7281 18.3989L11.2695 18.3875L10.808 17.0038C10.7634 16.8711 10.5759 16.8711 10.5316 17.0038Z" fill="#F5F5F5"/>
<path d="M4.97595 21.955L4.51443 23.3387L3.05584 23.35C2.91599 23.3511 2.85798 23.5296 2.97048 23.6127L4.14382 24.4792L3.70388 25.8699C3.6616 26.0033 3.81355 26.1136 3.92742 26.0323L5.11413 25.1842L6.30085 26.0323C6.41462 26.1137 6.56647 26.0033 6.52438 25.8699L6.08444 24.4792L7.25778 23.6127C7.37028 23.5296 7.31227 23.3511 7.17243 23.35L5.71384 23.3387L5.25232 21.955C5.20798 21.8223 5.02028 21.8223 4.97595 21.955Z" fill="#F5F5F5"/>
<path d="M16.0873 21.955L15.6258 23.3387L14.1672 23.35C14.0273 23.3511 13.9693 23.5296 14.0818 23.6127L15.2551 24.4792L14.8152 25.8699C14.7729 26.0033 14.9249 26.1136 15.0387 26.0323L16.2255 25.1842L17.4122 26.0323C17.5259 26.1137 17.6778 26.0033 17.6357 25.8699L17.1958 24.4792L18.3691 23.6127C18.4816 23.5296 18.4236 23.3511 18.2838 23.35L16.8252 23.3387L16.3636 21.955C16.3192 21.8223 16.1315 21.8223 16.0873 21.955Z" fill="#F5F5F5"/>
</g>
<defs>
<clipPath id="clip0_3462_29528">
<rect width="50" height="50" fill="white" transform="translate(0.636719 0.746094)"/>
</clipPath>
</defs>
</svg>
