<svg width="51" height="51" viewBox="0 0 51 51" fill="none" xmlns="http://www.w3.org/2000/svg">
<g clip-path="url(#clip0_3462_29495)">
<path d="M50.3603 20.2868H0.360352V10.2293C0.360352 9.75322 0.746386 9.36719 1.22246 9.36719H49.4982C49.9743 9.36719 50.3604 9.75322 50.3604 10.2293L50.3603 20.2868Z" fill="#73AF00"/>
<path d="M49.4981 42.1246H1.22246C0.746386 42.1246 0.360352 41.7386 0.360352 41.2625V31.2051H50.3603V41.2625C50.3603 41.7387 49.9742 42.1246 49.4981 42.1246Z" fill="#FF4B55"/>
<path d="M50.3603 20.2871H0.360352V31.206H50.3603V20.2871Z" fill="#F5F5F5"/>
<path d="M25.5781 23.2542L26.1159 24.8668L27.8158 24.8799C28.0358 24.8817 28.1271 25.1625 27.95 25.2932L26.5826 26.303L27.0953 27.9238C27.1617 28.1335 26.9227 28.3072 26.7436 28.1792L25.3606 27.1908L23.9776 28.1793C23.7985 28.3073 23.5596 28.1336 23.6259 27.9239L24.1386 26.3031L22.7711 25.2933C22.5941 25.1627 22.6854 24.8817 22.9054 24.88L24.6053 24.8669L25.1431 23.2543C25.2131 23.0455 25.5084 23.0455 25.5781 23.2542Z" fill="#464655"/>
<path d="M13.688 13.8196C13.7557 14.2533 14.0179 14.3895 14.2459 14.3718C14.5147 14.3509 14.7504 14.1051 14.7504 13.8456V12.357C14.7504 12.2824 14.811 12.2217 14.8857 12.2217C14.9605 12.2217 15.0211 12.2824 15.0211 12.357V13.852C15.0211 14.0318 15.1099 14.1992 15.2588 14.2999C15.3497 14.3614 15.4556 14.3933 15.5622 14.3933C15.6301 14.3933 15.6983 14.3804 15.7634 14.3544L15.8986 14.3003C15.9111 15.5497 15.8351 16.648 15.8337 16.6681C15.8231 16.8171 15.9354 16.9466 16.0844 16.9572C16.0909 16.9578 16.0975 16.958 16.104 16.958C16.2447 16.958 16.3636 16.849 16.3737 16.7066C16.38 16.6186 16.4634 15.416 16.4384 14.0845L16.5202 14.0519C16.592 14.0234 16.6725 14.0268 16.7414 14.0611C17.0396 14.2097 17.3981 14.1518 17.6339 13.9163L17.6827 13.8677C17.9015 13.6486 17.9766 13.3304 17.8787 13.0367L17.6482 12.3453C17.7728 12.3828 17.9098 12.3277 17.9699 12.2076C18.0368 12.0739 17.9826 11.9113 17.8489 11.8445L17.3076 11.5737C17.2097 11.5246 17.0922 11.5397 17.0093 11.6112C16.9266 11.6831 16.8953 11.7976 16.9299 11.9015L17.3653 13.2079C17.3979 13.3058 17.3729 13.412 17.3 13.4849L17.2514 13.5335C17.1808 13.6041 17.0733 13.6212 16.9835 13.5769C16.8081 13.4893 16.6084 13.4728 16.421 13.5206C16.3829 12.652 16.2895 11.7869 16.09 11.189C16.0429 11.0473 15.8898 10.9704 15.7476 11.018C15.6058 11.0651 15.5291 11.2183 15.5765 11.3603C15.7714 11.945 15.8564 12.8363 15.8866 13.7226L15.5627 13.8522V12.3572C15.5627 11.9841 15.2592 11.6806 14.886 11.6806C14.513 11.6806 14.2094 11.984 14.2094 12.3572V13.6674L13.9333 12.3036C13.9039 12.157 13.7612 12.0612 13.6145 12.0919C13.4679 12.1218 13.3732 12.2646 13.4029 12.4109L13.688 13.8196Z" fill="#F5F5F5"/>
<path d="M14.2092 11.5444C14.3586 11.5444 14.4799 11.4234 14.4799 11.2737V11.0031C14.4799 10.8535 14.3587 10.7324 14.2092 10.7324C14.0598 10.7324 13.9385 10.8534 13.9385 11.0031V11.2738C13.9387 11.4234 14.0598 11.5444 14.2092 11.5444Z" fill="#F5F5F5"/>
<path d="M16.9152 11.2738H17.1859C17.3353 11.2738 17.4566 11.1528 17.4566 11.0031C17.4566 10.8534 17.3354 10.7324 17.1859 10.7324H16.9152C16.7658 10.7324 16.6445 10.8534 16.6445 11.0031C16.6445 11.1528 16.7657 11.2738 16.9152 11.2738Z" fill="#F5F5F5"/>
<path d="M15.1526 14.8316L13.7994 15.6435C13.6712 15.7204 13.6297 15.8866 13.7066 16.0148C13.7574 16.0993 13.847 16.1461 13.939 16.1461C13.9864 16.1461 14.0344 16.1337 14.0779 16.1075L15.4311 15.2956C15.5594 15.2187 15.6009 15.0525 15.5239 14.9243C15.447 14.7962 15.2809 14.7547 15.1526 14.8316Z" fill="#F5F5F5"/>
<path d="M18.8008 15.3105L18.8072 15.3062C18.8299 15.3977 18.8689 15.4862 18.9321 15.5605C19.042 15.69 19.207 15.755 19.3933 15.7397C19.6577 15.7204 19.8373 15.5997 19.9562 15.4437C19.9743 15.4561 19.9934 15.4675 20.0133 15.4775C20.1596 15.5512 20.3287 15.5457 20.4898 15.4622C20.8989 15.2515 20.9869 14.7641 20.9744 14.5093C20.9672 14.3608 20.8409 14.2559 20.6926 14.253C20.5439 14.2593 20.4283 14.3854 20.4335 14.5339C20.4336 14.5374 20.4398 14.8586 20.2433 14.9777C20.2113 14.933 20.1733 14.8326 20.159 14.7496C20.1362 14.6102 20.0082 14.5132 19.8705 14.5244C19.7302 14.5355 19.6218 14.6534 19.6213 14.7942C19.6212 14.8336 19.6125 15.1808 19.3444 15.2099C19.3132 15.1673 19.3127 14.9881 19.3433 14.8557C19.3692 14.7471 19.3256 14.6338 19.2337 14.5703C19.1416 14.5066 19.0202 14.5066 18.9278 14.5692L18.7767 14.672C18.7049 13.1025 18.5398 11.2736 18.5377 11.2502C18.5243 11.1016 18.3934 10.9909 18.2437 11.0051C18.0948 11.0186 17.9851 11.1503 17.9986 11.2993C18.0009 11.3243 18.1921 13.4403 18.251 15.0564C18.2372 15.0696 18.2229 15.0839 18.2093 15.0964C18.1023 14.8266 17.8902 14.6567 17.6168 14.6307C17.2312 14.5966 16.8134 14.859 16.6636 15.2338C16.5345 15.5563 16.6158 15.8732 16.8706 16.0411C17.0538 16.1619 17.3301 16.1999 17.6778 16.078C17.593 16.3761 17.4384 16.6785 17.2375 16.9124C17.0577 17.1219 16.7573 17.3637 16.3729 17.353C16.1492 17.3443 15.9772 17.2711 15.8473 17.1289C15.5339 16.7866 15.5609 16.167 15.5612 16.1604C15.5689 16.0114 15.4548 15.8842 15.3059 15.876C15.1559 15.8602 15.029 15.9821 15.0207 16.1313C15.0188 16.1657 14.9796 16.9796 15.4457 17.4917C15.675 17.744 15.9799 17.8792 16.3517 17.8937C16.3698 17.8945 16.3879 17.8948 16.4061 17.8948C16.8589 17.8948 17.2981 17.6728 17.648 17.2649C17.9772 16.8816 18.2007 16.361 18.2677 15.8777C18.2668 16.8036 17.709 17.8478 16.9691 18.3079C16.6549 18.5029 16.1652 18.679 15.6135 18.407C14.9334 18.0713 15.0145 17.2941 15.018 17.2623C15.0367 17.114 14.9314 16.9787 14.7831 16.9602C14.6354 16.9422 14.4994 17.0466 14.481 17.1952C14.475 17.2435 14.3449 18.3845 15.3741 18.8922C15.6384 19.0228 15.9148 19.0876 16.1935 19.0876C16.5514 19.0876 16.9125 18.9806 17.2549 18.7676C18.1556 18.2079 18.8093 16.9916 18.8093 15.8756C18.8097 15.7015 18.8064 15.5109 18.8008 15.3105ZM17.1689 15.5894C17.1206 15.5574 17.1583 15.4551 17.1665 15.4348C17.2236 15.2921 17.4018 15.1686 17.5443 15.1686C17.5515 15.1686 17.5589 15.1688 17.5661 15.1697C17.6006 15.1728 17.6925 15.1815 17.732 15.3859C17.7362 15.4076 17.7397 15.4297 17.7425 15.4525C17.4409 15.6296 17.2387 15.6352 17.1689 15.5894Z" fill="#F5F5F5"/>
<path d="M14.3457 18.0788C14.2175 18.0035 14.0518 18.0466 13.9757 18.1747C13.9633 18.1956 13.9467 18.2183 13.93 18.239C13.927 18.232 13.9241 18.2247 13.9213 18.2168C13.8085 17.9157 13.8888 17.4519 13.9294 17.2986C13.9676 17.1543 13.8816 17.0062 13.7374 16.9677C13.5934 16.9308 13.4451 17.0147 13.4064 17.1591C13.3867 17.2322 13.2203 17.8893 13.4144 18.4068C13.5387 18.7378 13.7293 18.8213 13.8676 18.8326C13.8799 18.8337 13.892 18.8343 13.904 18.8343C14.1954 18.8343 14.3892 18.5406 14.4433 18.4476C14.5179 18.3185 14.4741 18.1545 14.3457 18.0788Z" fill="#F5F5F5"/>
<path d="M19.3402 13.1683C19.3987 13.1683 19.4577 13.1495 19.5072 13.1103L20.8717 12.0392C20.8905 12.0244 20.9025 12.005 20.9163 11.9868C21.1128 11.8683 21.2458 11.6549 21.2458 11.4091C21.2458 11.0359 20.9423 10.7324 20.5691 10.7324C20.1961 10.7324 19.8925 11.0358 19.8925 11.4091C19.8925 11.6179 19.9895 11.8025 20.1385 11.9267L19.1728 12.6849C19.0553 12.7771 19.0349 12.9474 19.1271 13.0647C19.1806 13.1328 19.26 13.1683 19.3402 13.1683ZM20.5692 11.2736C20.6439 11.2736 20.7046 11.3344 20.7046 11.409C20.7046 11.4836 20.6439 11.5443 20.5692 11.5443C20.4945 11.5443 20.4339 11.4836 20.4339 11.409C20.4339 11.3345 20.4945 11.2736 20.5692 11.2736Z" fill="#F5F5F5"/>
<path d="M20.2489 12.9125C20.1063 12.865 19.9537 12.9418 19.9064 13.0835C19.8774 13.1701 19.7467 13.6166 20.0119 13.8817C20.1148 13.9848 20.2502 14.0363 20.4163 14.036C20.5273 14.036 20.652 14.0132 20.7901 13.967C20.9319 13.9199 21.0086 13.7667 20.9612 13.6247C20.914 13.483 20.7609 13.4059 20.6187 13.4537C20.4676 13.5039 20.4035 13.4957 20.3978 13.501C20.3819 13.4608 20.3925 13.34 20.4201 13.2535C20.467 13.1122 20.3903 12.9596 20.2489 12.9125Z" fill="#F5F5F5"/>
<path d="M23.3462 11.7924C23.3715 11.7998 23.3971 11.8033 23.4222 11.8033C23.5395 11.8033 23.6474 11.7266 23.6818 11.6084L23.8398 11.0671C23.8817 10.9236 23.7993 10.7733 23.6559 10.7315C23.5119 10.69 23.3621 10.7719 23.3202 10.9155L23.1623 11.4568C23.1203 11.6001 23.2029 11.7506 23.3462 11.7924Z" fill="#F5F5F5"/>
<path d="M21.7687 11.7615C21.8117 11.7866 21.8587 11.7984 21.9052 11.7984C21.9981 11.7984 22.0886 11.7506 22.1391 11.6643C22.2145 11.5353 22.1712 11.3694 22.0422 11.2941C21.9878 11.2625 21.9951 11.1728 21.9971 11.1552C22.0052 11.0841 22.0475 10.9974 22.1214 10.9743C22.264 10.9299 22.3438 10.7782 22.2994 10.6355C22.2547 10.4926 22.1033 10.4136 21.9604 10.4574C21.6906 10.5415 21.4939 10.7912 21.4594 11.0936C21.427 11.3751 21.5457 11.631 21.7687 11.7615Z" fill="#F5F5F5"/>
<path d="M19.6223 16.1465C19.4729 16.1465 19.3516 16.2675 19.3516 16.4172C19.3516 16.5493 19.4462 16.6593 19.5715 16.683C19.5857 16.7039 19.6223 16.7755 19.6223 16.9584C19.6223 17.108 19.7435 17.2291 19.893 17.2291C20.0425 17.2291 20.1637 17.1081 20.1637 16.9584C20.1636 16.1558 19.6443 16.1465 19.6223 16.1465Z" fill="#F5F5F5"/>
<path d="M24.2136 15.026C24.2476 15.0315 24.2814 15.0342 24.3154 15.0342C24.528 15.0342 24.7428 14.9268 24.9557 14.7141C25.0614 14.6085 25.0614 14.4372 24.9557 14.3314C24.85 14.2258 24.6788 14.2258 24.573 14.3314C24.4112 14.4935 24.3241 14.4969 24.3017 14.4919C24.2499 14.4845 24.2032 14.4171 24.1927 14.3985C24.1249 14.267 23.9638 14.2142 23.8313 14.2807C23.6976 14.3475 23.6434 14.51 23.7103 14.6438C23.727 14.6774 23.8833 14.9724 24.2136 15.026Z" fill="#F5F5F5"/>
<path d="M28.8136 13.123C28.8119 13.1188 28.8103 13.1148 28.809 13.1112C28.7611 12.9705 28.6078 12.8942 28.4674 12.942C28.3255 12.9891 28.2489 13.1423 28.2962 13.2843C28.3173 13.3478 28.4379 13.6659 28.7366 13.7062C28.7565 13.7089 28.7763 13.7102 28.796 13.7102C28.9835 13.7102 29.1594 13.5889 29.3196 13.3489C29.4025 13.2246 29.3688 13.0565 29.2445 12.9736C29.1201 12.8908 28.9519 12.9242 28.8692 13.0487C28.8476 13.0805 28.8291 13.1048 28.8136 13.123Z" fill="#F5F5F5"/>
<path d="M28.2828 18.0411C28.2828 16.8869 28.232 15.8042 28.1617 14.8556C28.5461 15.5221 28.8918 16.1955 29.112 16.783C29.1528 16.8916 29.2559 16.9586 29.3654 16.9586C29.397 16.9586 29.4291 16.953 29.4604 16.9415C29.6004 16.889 29.6713 16.733 29.6188 16.5929C29.2763 15.6796 28.6605 14.592 28.0536 13.6265C27.9057 12.1685 27.74 11.2432 27.737 11.2267C27.7102 11.0795 27.5696 10.9801 27.4224 11.0089C27.2753 11.0356 27.1777 11.1765 27.2045 11.3234C27.2066 11.3352 27.292 11.8119 27.3938 12.6142C27.1859 12.3057 26.9928 12.0272 26.8306 11.7981L26.8438 11.8023C26.9864 11.8499 27.1389 11.773 27.1863 11.6313C27.2336 11.4894 27.157 11.3361 27.0152 11.2891L26.2033 11.0184C26.0907 10.9803 25.9671 11.0205 25.8981 11.1166C25.8797 11.1423 25.867 11.1704 25.8586 11.1996C25.6965 11.0798 25.4888 10.9825 25.2937 11.0641C25.1758 11.113 25.0351 11.2361 25.0351 11.5456C25.0351 11.7832 25.1258 12.0401 25.2219 12.3123C25.3812 12.7637 25.481 13.0957 25.3123 13.254C25.2189 13.3415 25.1259 13.3745 25.035 13.3516C24.8681 13.3093 24.7028 13.087 24.5929 12.7568C24.5881 12.7425 24.5781 12.7321 24.5713 12.7192C24.6282 12.2999 24.6034 11.7949 24.4888 11.2219C24.4596 11.0752 24.3173 10.9798 24.1702 11.0096C24.0236 11.0389 23.9286 11.1813 23.9579 11.3281C24.1347 12.2119 24.0816 12.933 23.8161 13.2567C23.7134 13.382 23.5849 13.4401 23.4113 13.4401C23.3564 13.4401 23.319 13.4226 23.2818 13.3799C23.0683 13.1338 23.0692 12.3398 23.1381 11.8544C23.1491 11.7769 23.1258 11.6981 23.0744 11.639C23.023 11.5798 22.9484 11.5456 22.8701 11.5456C22.4044 11.5456 22.2278 12.0752 22.0721 12.5426C22.0037 12.7479 21.8764 13.1299 21.7876 13.1695C21.6237 13.1695 21.5179 12.6885 21.5169 12.3573C21.5165 12.208 21.3954 12.0872 21.2462 12.0872H21.2458C21.0965 12.0872 20.9756 12.2082 20.9756 12.3576C20.9756 12.9818 21.1882 13.7108 21.7875 13.7108C22.2337 13.7108 22.4145 13.2245 22.5658 12.7726C22.5921 13.132 22.6732 13.5045 22.8728 13.7344C23.0131 13.8961 23.1992 13.9814 23.4113 13.9814C23.7454 13.9814 24.0301 13.8495 24.2346 13.6001C24.2717 13.555 24.3035 13.5031 24.3351 13.4508C24.4924 13.6741 24.6851 13.8215 24.9022 13.8764C24.9659 13.8926 25.0301 13.9007 25.0935 13.9007C25.3025 13.9007 25.5067 13.8144 25.683 13.6488C25.7196 13.6143 25.7455 13.5767 25.7734 13.5396C25.8396 13.5586 25.9067 13.5698 25.9733 13.5698C26.1927 13.5698 26.4036 13.4815 26.5346 13.3975C26.6599 13.3172 26.6961 13.1513 26.6165 13.0255C26.5367 12.8999 26.37 12.8624 26.2438 12.9412C26.2416 12.9423 26.0607 13.0462 25.9375 13.0218C25.9378 12.7251 25.8305 12.41 25.7324 12.1323C25.6766 11.9742 25.6193 11.8123 25.5925 11.6799C25.6147 11.6986 25.6366 11.7183 25.656 11.7372C25.7615 11.8429 25.9329 11.8429 26.0386 11.7372C26.056 11.7197 26.0661 11.6985 26.0779 11.678C26.3585 12.0645 26.9354 12.8767 27.529 13.8128C27.6423 14.9635 27.7418 16.4314 27.7418 18.0413C27.7418 18.1909 27.863 18.312 28.0125 18.312C28.1616 18.3117 28.2828 18.1906 28.2828 18.0411Z" fill="#F5F5F5"/>
<path d="M28.5529 12.0863C28.5529 12.2359 28.6741 12.357 28.8236 12.357C28.973 12.357 29.0943 12.236 29.0943 12.0863C29.0943 11.7678 28.8451 11.2532 28.7951 11.1533C28.7282 11.0198 28.5658 10.9659 28.4319 11.0323C28.2982 11.0992 28.244 11.2617 28.3109 11.3955C28.4084 11.5907 28.5529 11.9451 28.5529 12.0863Z" fill="#F5F5F5"/>
<path d="M27.3216 18.0691C27.189 18.0014 27.0258 18.0551 26.9583 18.1882C26.9292 18.245 26.8842 18.3082 26.8461 18.3488C26.834 18.2413 26.8628 18.0264 26.9173 17.8483C26.9537 17.7293 26.9044 17.6008 26.7978 17.5369C26.6916 17.4727 26.5549 17.4894 26.4672 17.5774L25.9259 18.1187C25.8203 18.2243 25.8203 18.3956 25.9259 18.5014C26.0316 18.6072 26.2029 18.607 26.3086 18.5014L26.3224 18.4876C26.3458 18.5962 26.3906 18.6953 26.4672 18.772C26.5687 18.8734 26.6914 18.9272 26.8189 18.9272C26.8436 18.9272 26.8685 18.925 26.8932 18.9211C27.1998 18.8714 27.3907 18.5334 27.4419 18.4312C27.5086 18.2978 27.4547 18.1362 27.3216 18.0691Z" fill="#F5F5F5"/>
<path d="M27.2171 15.8918H25.3097C25.3266 15.8244 25.344 15.7603 25.3617 15.6991C26.1224 15.541 26.5744 15.2956 26.7074 14.9678C26.7534 14.8541 26.8014 14.6244 26.6057 14.3605C26.4293 14.1227 26.1801 14.0158 25.9215 14.0687C25.5369 14.1467 25.1942 14.5611 24.9483 15.2245C24.1844 15.3554 23.6952 15.6296 23.3856 15.9003C23.2759 14.7912 22.8452 14.1324 22.8244 14.1011C22.7414 13.9767 22.5733 13.943 22.4491 14.026C22.3248 14.109 22.2912 14.2769 22.374 14.4013C22.3789 14.4087 22.8698 15.1596 22.8698 16.4163C22.8698 17.6517 21.8848 18.5816 21.2459 18.5816C20.942 18.5816 20.8091 18.2203 20.7505 17.915C21.3759 17.4766 21.9278 16.9693 22.0497 16.4819C22.2146 15.8225 22.007 15.3364 21.8697 15.0149C21.8633 15.0001 21.8564 14.9842 21.8497 14.9678C21.8556 14.9731 21.861 14.9786 21.8666 14.984C21.9721 15.0897 22.1435 15.0897 22.2491 14.984C22.3548 14.8783 22.3548 14.707 22.2491 14.6013C22.0909 14.443 21.7837 14.1943 21.5044 14.3111C21.3864 14.36 21.2458 14.4831 21.2458 14.7926C21.2458 14.9324 21.3042 15.0691 21.3719 15.2277C21.4938 15.5129 21.6452 15.8679 21.5244 16.3509C21.4529 16.6367 21.1018 16.9836 20.6386 17.3279C20.5889 17.2686 20.5171 17.2286 20.4338 17.2286H20.4334C20.2841 17.2288 20.1632 17.3496 20.1632 17.499C20.1632 17.5478 20.1653 17.5998 20.1685 17.6532C19.5893 18.0283 18.9339 18.3755 18.4272 18.6061C18.2911 18.6679 18.2311 18.8283 18.2929 18.9645C18.3383 19.0642 18.4365 19.1231 18.5394 19.1231C18.5769 19.1231 18.6149 19.1154 18.6512 19.0987C18.8033 19.0296 19.5256 18.6931 20.2677 18.2332C20.4043 18.6972 20.6938 19.1231 21.2458 19.1231C21.895 19.1231 22.6316 18.5921 23.0566 17.7994C23.1079 17.8901 23.167 17.9768 23.2372 18.0578C23.9185 18.8434 25.249 18.8524 25.3054 18.8524C25.4512 18.8524 25.5706 18.7371 25.5759 18.5915C25.581 18.4459 25.47 18.3222 25.3248 18.3119C25.3227 18.3117 25.107 18.2879 24.987 18.1478C24.9145 18.0632 24.8856 17.9469 24.8984 17.7923C24.9263 17.4588 26.0019 17.2096 26.9503 17.1946C27.0634 17.1928 27.1634 17.1211 27.2013 17.0147L27.472 16.2534C27.5014 16.1707 27.4888 16.0784 27.438 16.0069C27.3876 15.9347 27.305 15.8918 27.2171 15.8918ZM26.029 14.5994C26.0342 14.5984 26.0411 14.5967 26.0496 14.5967C26.0755 14.5967 26.1163 14.6094 26.1708 14.6829C26.1811 14.6967 26.2141 14.7437 26.2058 14.7643C26.1747 14.8409 25.9879 14.9675 25.5985 15.0822C25.7697 14.7483 25.9372 14.6178 26.029 14.5994ZM24.3946 18.1571C24.1196 18.0678 23.8394 17.9261 23.6455 17.7018C23.4323 17.4552 23.3536 17.1433 23.4052 16.7486C23.4129 16.7279 23.4306 16.687 23.4616 16.6339C23.8428 16.5989 24.8608 16.7492 24.9314 17.0408C24.6175 17.2012 24.386 17.4265 24.3594 17.747C24.346 17.9077 24.3623 18.0438 24.3946 18.1571Z" fill="#F5F5F5"/>
<path d="M30.1631 12.001L29.8924 11.1891C29.8488 11.0585 29.7133 10.9806 29.5791 11.0102C29.4441 11.039 29.3526 11.1645 29.3664 11.3017C29.5531 13.1692 29.9063 16.8113 29.9063 17.2289C29.9063 17.6039 29.2392 18.3424 28.1614 18.8813C28.0277 18.9482 27.9735 19.1107 28.0404 19.2445C28.0878 19.3394 28.1833 19.3941 28.2828 19.3941C28.3233 19.3941 28.3647 19.3849 28.4036 19.3656C29.388 18.8732 30.4476 17.9947 30.4476 17.229C30.4476 16.8291 30.1709 13.9519 30.0125 12.3357C30.1412 12.2808 30.2081 12.1357 30.1631 12.001Z" fill="#F5F5F5"/>
<path d="M32.4215 14.4431C32.4736 14.4952 32.5428 14.5224 32.613 14.5224C32.6587 14.5224 32.7048 14.5108 32.7467 14.4869C32.8526 14.4267 32.9051 14.303 32.8751 14.1849C32.8266 13.9946 32.8105 13.7568 32.8362 13.6595C32.9717 13.6637 33.0976 13.5672 33.1175 13.4274C33.1386 13.2793 33.0359 13.1421 32.888 13.121C32.709 13.0967 32.5519 13.1493 32.4421 13.2714C32.371 13.3507 32.3288 13.4525 32.3057 13.562L31.9922 13.2485C31.8866 13.1428 31.7153 13.1428 31.6095 13.2485C31.5039 13.3541 31.5039 13.5254 31.6095 13.6312L32.4215 14.4431Z" fill="#F5F5F5"/>
<path d="M33.0303 14.7249L32.0154 15.4522C31.8939 15.5391 31.866 15.7084 31.953 15.8299C32.0059 15.9037 32.089 15.9427 32.1732 15.9427C32.2278 15.9427 32.2829 15.9263 32.3306 15.8919L33.3456 15.1646C33.467 15.0777 33.495 14.9085 33.408 14.7869C33.3207 14.6655 33.1513 14.6372 33.0303 14.7249Z" fill="#F5F5F5"/>
<path d="M32.9408 15.7432C32.8556 15.8529 32.8678 16.0072 32.9645 16.1022C32.9761 16.1219 33.0289 16.2254 33.0194 16.4918C33.0141 16.6414 33.1309 16.7667 33.2802 16.772C33.2836 16.7721 33.2868 16.7721 33.29 16.7721C33.4351 16.7721 33.555 16.6572 33.5604 16.5113C33.5801 15.959 33.3993 15.757 33.3207 15.6959C33.2029 15.6037 33.0326 15.6254 32.9408 15.7432Z" fill="#F5F5F5"/>
<path d="M35.3029 17.7361C35.4523 17.7361 35.5736 17.6151 35.5736 17.4654C35.5736 17.0661 35.5531 16.6203 35.5195 16.1564C35.7878 16.5961 36.0108 17.0015 36.1538 17.335C36.1976 17.4378 36.2975 17.4992 36.4026 17.4992C36.4381 17.4992 36.4744 17.4922 36.509 17.4772C36.6463 17.4182 36.71 17.2592 36.651 17.122C36.4033 16.5438 35.9402 15.7779 35.4127 14.987C35.3066 13.9935 35.1679 13.0203 35.0602 12.322C35.1175 12.3279 35.177 12.3138 35.2292 12.28C35.3147 12.2252 35.3548 12.1301 35.3491 12.0355C35.356 12.0622 35.3635 12.0888 35.379 12.1133C35.3809 12.1161 35.5548 12.4033 35.4777 12.7759C35.4474 12.922 35.5414 13.0654 35.6879 13.0957C35.7065 13.0995 35.7248 13.1013 35.743 13.1013C35.8687 13.1013 35.9813 13.0132 36.0079 12.8854C36.13 12.2941 35.8478 11.8417 35.8358 11.8227C35.7554 11.6968 35.5881 11.6599 35.4621 11.7397C35.3762 11.7945 35.3357 11.8896 35.3413 11.9844C35.3342 11.9577 35.3265 11.9307 35.3108 11.9062L34.8541 11.1958C34.7843 11.0874 34.6479 11.0435 34.528 11.0901C34.4079 11.1372 34.3375 11.2622 34.3599 11.389C34.3637 11.4102 34.5705 12.598 34.7539 14.0294C34.5463 13.7365 34.3389 13.4499 34.1376 13.1765C34.1049 12.767 34.0721 12.3884 34.0438 12.0754C34.0587 12.0709 34.0734 12.0651 34.0877 12.058C34.2214 11.9911 34.2756 11.8286 34.2087 11.6948L33.938 11.1535C33.8796 11.0367 33.7463 10.9785 33.6207 11.0145C33.4954 11.0509 33.4136 11.1715 33.4266 11.3016C33.4589 11.6246 33.4924 11.9822 33.5255 12.3578C33.3543 12.1321 33.1959 11.9255 33.0605 11.7506C33.0869 11.7279 33.1095 11.6997 33.1261 11.6664C33.193 11.5327 33.1388 11.3701 33.0051 11.3032L32.4638 11.0325C32.3503 10.9759 32.2124 11.0055 32.1323 11.1043C32.0524 11.2032 32.0521 11.3443 32.1315 11.4437C32.1461 11.4619 32.8124 12.2972 33.6096 13.3754C33.7479 15.1637 33.8399 17.0238 33.7099 17.4138C33.6861 17.4851 33.6446 17.5692 33.6056 17.5721C33.442 17.5949 33.0516 17.229 32.8555 16.837C32.7424 16.6113 32.5799 16.5878 32.493 16.5918C32.2022 16.6098 32.0886 16.9299 31.8824 17.5108C31.7345 17.9271 31.5508 18.4446 31.3446 18.6563C31.2329 18.5198 31.0883 18.0616 31.0081 17.5907C31.0458 17.6948 31.1432 17.7701 31.2603 17.7701C31.4097 17.7701 31.531 17.6491 31.531 17.4994C31.531 17.0958 31.2487 14.0219 31.0911 12.3374C31.2226 12.2844 31.2919 12.1373 31.2464 12.0009L30.9757 11.189C30.9322 11.0584 30.7987 10.9816 30.6629 11.0098C30.5283 11.0383 30.4365 11.1633 30.4495 11.3003C30.6334 13.231 30.9784 16.9603 30.989 17.4751C30.9883 17.4705 30.9874 17.4659 30.9868 17.4614C30.9658 17.3133 30.8276 17.212 30.6806 17.2318C30.5326 17.2533 30.4299 17.3901 30.4511 17.5381C30.5301 18.0913 30.7321 19.0425 31.1972 19.1974C31.2339 19.2098 31.2834 19.2209 31.3414 19.2209C31.448 19.2209 31.5836 19.1831 31.7222 19.0445C32.017 18.7497 32.2165 18.1879 32.3924 17.6923C32.4322 17.5802 32.4792 17.4476 32.5237 17.3339C32.7719 17.6965 33.2051 18.1479 33.6441 18.1125C33.7984 18.1014 34.0791 18.0185 34.2234 17.5855C34.3673 17.1537 34.3105 15.648 34.2134 14.2065C34.4414 14.5261 34.6697 14.8533 34.8874 15.1765C34.9718 15.987 35.0323 16.7991 35.0323 17.466C35.0322 17.6151 35.1534 17.7361 35.3029 17.7361Z" fill="#F5F5F5"/>
<path d="M37.3564 16.3118C37.1647 14.8835 36.8976 13.229 36.7284 12.2136C36.8047 12.2324 36.8879 12.217 36.9551 12.1656C37.0741 12.0749 37.0968 11.905 37.0061 11.7863L36.5156 11.1435C36.4398 11.0447 36.3064 11.0098 36.192 11.0597C36.0777 11.1097 36.0125 11.2313 36.0337 11.3541C36.0386 11.382 36.5212 14.1603 36.8198 16.3838C36.9337 17.2336 36.7673 17.9929 36.3742 18.4148C36.1214 18.6857 35.7867 18.8083 35.3815 18.7848C35.2327 18.7768 35.1037 18.8889 35.0943 19.038C35.0849 19.1871 35.1982 19.3155 35.3474 19.3251C35.3931 19.328 35.4381 19.3293 35.4829 19.3293C35.9932 19.3293 36.4362 19.1421 36.7702 18.7838C37.28 18.2364 37.4937 17.3355 37.3564 16.3118Z" fill="#F5F5F5"/>
<path d="M34.3792 18.0964C34.2797 18.2045 34.2874 18.3747 34.3925 18.4766C34.4072 18.4909 34.4248 18.5189 34.4249 18.5327C34.425 18.5403 34.414 18.5631 34.3839 18.5932C34.2783 18.6989 34.2783 18.8702 34.3839 18.976C34.4369 19.0289 34.506 19.0553 34.5753 19.0553C34.6447 19.0553 34.7138 19.0289 34.7668 18.976C34.9384 18.8044 34.9699 18.6303 34.966 18.5142C34.9577 18.2644 34.7876 18.1032 34.7536 18.0734C34.6431 17.977 34.4786 17.9887 34.3792 18.0964Z" fill="#F5F5F5"/>
</g>
<defs>
<clipPath id="clip0_3462_29495">
<rect width="50" height="50" fill="white" transform="translate(0.359375 0.746094)"/>
</clipPath>
</defs>
</svg>
