<svg width="51" height="51" viewBox="0 0 51 51" fill="none" xmlns="http://www.w3.org/2000/svg">
<g clip-path="url(#clip0_3462_29525)">
<path d="M49.2042 42.1258H0.928514C0.452441 42.1258 0.0664062 41.7398 0.0664062 41.2637V10.2293C0.0664062 9.75322 0.452441 9.36719 0.928514 9.36719H49.2043C49.6804 9.36719 50.0664 9.75322 50.0664 10.2293V41.2637C50.0663 41.7399 49.6803 42.1258 49.2042 42.1258Z" fill="#82AFFF"/>
<path d="M24.8192 19.6372L23.3729 23.9741L18.8013 24.0095C18.5506 24.0115 18.4468 24.3313 18.6484 24.4802L22.3259 27.1959L20.9469 31.5545C20.8712 31.7935 21.1434 31.9911 21.3472 31.8453L25.0666 29.1871L28.7859 31.8455C28.9898 31.9912 29.2619 31.7936 29.1862 31.5547L27.8072 27.196L31.4848 24.4803C31.6864 24.3314 31.5825 24.0116 31.3318 24.0096L26.7603 23.9741L25.314 19.6373C25.2347 19.3995 24.8985 19.3995 24.8192 19.6372Z" fill="#F5F5F5"/>
</g>
<defs>
<clipPath id="clip0_3462_29525">
<rect width="50" height="50" fill="white" transform="translate(0.0664062 0.746094)"/>
</clipPath>
</defs>
</svg>
