<svg width="51" height="51" viewBox="0 0 51 51" fill="none" xmlns="http://www.w3.org/2000/svg">
<g clip-path="url(#clip0_3462_29464)">
<path d="M49.2218 42.1258H0.946092C0.470019 42.1258 0.0839844 41.7398 0.0839844 41.2637V10.2293C0.0839844 9.75322 0.470019 9.36719 0.946092 9.36719H49.2219C49.698 9.36719 50.084 9.75322 50.084 10.2293V41.2637C50.0839 41.7399 49.6979 42.1258 49.2218 42.1258Z" fill="#F5F5F5"/>
<path d="M29.8689 18.5711C25.9077 15.9304 20.5574 17.01 17.9183 20.9643C16.5946 22.938 17.1327 25.6199 19.1131 26.9403C21.0921 28.2607 23.7655 27.7245 25.0859 25.7438C26.4063 23.7633 29.0814 23.2337 31.0603 24.5472C33.0425 25.8676 33.5756 28.5495 32.2534 30.5232C34.8942 26.5623 33.8267 21.2119 29.8689 18.5711Z" fill="#FF4B55"/>
<path d="M17.9183 20.9648C16.5946 22.9386 17.1327 25.6205 19.1131 26.9409C21.0921 28.2613 23.7655 27.7251 25.0859 25.7444C26.4063 23.7639 29.0814 23.2343 31.0603 24.5477C33.0425 25.8682 33.5756 28.5501 32.2533 30.5238C29.616 34.4918 24.2675 35.5579 20.3063 32.9171C16.3487 30.2764 15.2776 24.9261 17.9183 20.9648Z" fill="#41479B"/>
<path d="M34.2563 15.3154L35.8223 17.6691C35.9538 17.8668 35.9006 18.1338 35.7032 18.266L35.3061 18.5319C35.108 18.6645 34.8398 18.6112 34.7076 18.4127L33.1397 16.0596C33.0078 15.8617 33.0613 15.5942 33.2592 15.4621L33.6582 15.1956C33.8564 15.0633 34.1243 15.1169 34.2563 15.3154Z" fill="#464655"/>
<path d="M36.6728 18.9436L38.2438 21.2959C38.3764 21.4945 38.3222 21.7633 38.123 21.8949L37.7242 22.1585C37.5263 22.2893 37.2599 22.2355 37.1282 22.0384L35.5581 19.6886C35.4258 19.4907 35.479 19.223 35.6769 19.0907L36.0748 18.8247C36.2727 18.6924 36.5405 18.7456 36.6728 18.9436Z" fill="#464655"/>
<path d="M35.933 14.1959L39.9202 20.1796C40.0522 20.3777 39.9986 20.6452 39.8005 20.7773L39.4 21.0443C39.2019 21.1764 38.9342 21.1228 38.8022 20.9247L34.8136 14.9414C34.6815 14.7433 34.7352 14.4755 34.9335 14.3436L35.3353 14.0761C35.5335 13.9444 35.8009 13.9979 35.933 14.1959Z" fill="#464655"/>
<path d="M37.6051 13.0791L39.1744 15.4374C39.3066 15.636 39.2523 15.9042 39.0532 16.0357L38.6542 16.2994C38.4562 16.4303 38.1897 16.3764 38.058 16.1789L36.4875 13.8237C36.3554 13.6257 36.409 13.358 36.607 13.226L37.0073 12.9592C37.2053 12.827 37.4731 12.8807 37.6051 13.0791Z" fill="#464655"/>
<path d="M40.0237 16.7157L41.5906 19.0691C41.7224 19.2669 41.669 19.5341 41.4714 19.6662L41.0735 19.9323C40.8753 20.0648 40.6072 20.0113 40.4751 19.8128L38.9082 17.4594C38.7765 17.2616 38.8298 16.9944 39.0274 16.8623L39.4253 16.5962C39.6234 16.4637 39.8915 16.5171 40.0237 16.7157Z" fill="#464655"/>
<path d="M13.0454 29.4556L17.0321 35.4328C17.1642 35.6308 17.1109 35.8983 16.9128 36.0305L16.5136 36.2971C16.3155 36.4293 16.0479 36.3759 15.9156 36.1777L11.9289 30.2005C11.7969 30.0026 11.8502 29.735 12.0483 29.6028L12.4475 29.3362C12.6455 29.204 12.9133 29.2575 13.0454 29.4556Z" fill="#464655"/>
<path d="M11.3722 30.5728L12.9375 32.9206C13.0694 33.1184 13.0162 33.3855 12.8186 33.5178L12.4216 33.7837C12.2236 33.9162 11.9556 33.863 11.8233 33.6648L10.2562 31.3176C10.124 31.1197 10.1773 30.852 10.3754 30.7198L10.7744 30.4534C10.9723 30.3213 11.2401 30.3747 11.3722 30.5728Z" fill="#464655"/>
<path d="M13.7907 34.2039L15.3577 36.5576C15.4896 36.7555 15.4361 37.0228 15.2384 37.1548L14.8401 37.421C14.642 37.5534 14.3741 37.5 14.2419 37.3018L12.6739 34.9486C12.542 34.7506 12.5955 34.4831 12.7933 34.351L13.1925 34.0844C13.3907 33.952 13.6586 34.0056 13.7907 34.2039Z" fill="#464655"/>
<path d="M9.69893 31.69L13.6831 37.6675C13.815 37.8654 13.7616 38.1328 13.5641 38.265L13.1659 38.5312C12.9679 38.6636 12.7 38.6103 12.5678 38.4121L8.58126 32.4353C8.44913 32.2373 8.50275 31.9696 8.70079 31.8375L9.10138 31.5705C9.29923 31.4384 9.5669 31.492 9.69893 31.69Z" fill="#464655"/>
<path d="M11.9298 21.2973L15.9159 15.3151C16.048 15.1169 16.3158 15.0634 16.5139 15.1956L16.9131 15.4621C17.111 15.5942 17.1643 15.8618 17.0324 16.0598L13.0447 22.0386C12.9129 22.2361 12.6462 22.2898 12.4482 22.1588L12.0507 21.8956C11.8516 21.764 11.7975 21.4957 11.9298 21.2973Z" fill="#464655"/>
<path d="M10.256 20.1812L14.2428 14.1979C14.3749 13.9997 14.6429 13.9461 14.841 14.0786L15.2392 14.3448C15.4368 14.4769 15.4902 14.7441 15.3583 14.942L11.3726 20.9256C11.2405 21.1239 10.9727 21.1775 10.7745 21.0452L10.3753 20.7787C10.1775 20.6466 10.1241 20.3791 10.256 20.1812Z" fill="#464655"/>
<path d="M8.58003 19.0682L12.5672 13.0789C12.6994 12.8806 12.9674 12.827 13.1656 12.9594L13.5637 13.2256C13.7614 13.3577 13.8147 13.6247 13.683 13.8227L9.69829 19.8128C9.56635 20.0111 9.29848 20.0648 9.10034 19.9327L8.69975 19.6657C8.5018 19.5337 8.44829 19.2662 8.58003 19.0682Z" fill="#464655"/>
<path d="M33.141 35.4315L34.7081 33.0843C34.8404 32.8862 35.1084 32.8329 35.3063 32.9655L35.7034 33.2314C35.901 33.3636 35.9541 33.6308 35.8222 33.8286L34.257 36.1763C34.1249 36.3744 33.8571 36.428 33.6591 36.2957L33.26 36.0293C33.0621 35.8971 33.0088 35.6295 33.141 35.4315Z" fill="#464655"/>
<path d="M35.5576 31.8147L37.1272 29.4559C37.2592 29.2577 37.527 29.204 37.7251 29.3361L38.1251 29.6027C38.3233 29.7348 38.3768 30.0027 38.2446 30.2007L36.6716 32.5558C36.5397 32.7534 36.273 32.8069 36.075 32.6756L35.6784 32.4128C35.4796 32.281 35.4255 32.0131 35.5576 31.8147Z" fill="#464655"/>
<path d="M34.8136 36.5571L36.3816 34.2038C36.5137 34.0057 36.7813 33.9521 36.9795 34.0842L37.3803 34.3515C37.5782 34.4835 37.6317 34.7509 37.4999 34.949L35.9328 37.3025C35.8009 37.5007 35.5334 37.5544 35.3352 37.4225L34.9333 37.155C34.7353 37.023 34.6815 36.7553 34.8136 36.5571Z" fill="#464655"/>
<path d="M37.2339 32.9203L38.8028 30.5724C38.935 30.3747 39.2024 30.3214 39.4004 30.4533L39.8009 30.7203C39.9991 30.8524 40.0526 31.1203 39.9202 31.3183L38.3513 33.6662C38.2192 33.8639 37.9517 33.9173 37.7539 33.7853L37.3532 33.5183C37.1549 33.3864 37.1014 33.1184 37.2339 32.9203Z" fill="#464655"/>
<path d="M36.4878 37.6677L38.0576 35.3185C38.1894 35.1214 38.4558 35.0677 38.6536 35.1984L39.0526 35.4621C39.2518 35.5937 39.306 35.8622 39.1736 36.0608L37.605 38.4132C37.4729 38.6112 37.2053 38.6646 37.0072 38.5327L36.6069 38.2659C36.4088 38.1337 36.3554 37.8658 36.4878 37.6677Z" fill="#464655"/>
<path d="M38.9083 34.0442L40.4742 31.6922C40.6063 31.4938 40.8744 31.4402 41.0725 31.5727L41.4702 31.8386C41.6679 31.9708 41.7211 32.2383 41.5891 32.4361L40.0218 34.7851C39.8901 34.9827 39.6231 35.0363 39.4252 34.9051L39.0287 34.6424C38.8301 34.5107 38.7761 34.2427 38.9083 34.0442Z" fill="#464655"/>
</g>
<defs>
<clipPath id="clip0_3462_29464">
<rect width="50" height="50" fill="white" transform="translate(0.0820312 0.746094)"/>
</clipPath>
</defs>
</svg>
