<svg width="51" height="51" viewBox="0 0 51 51" fill="none" xmlns="http://www.w3.org/2000/svg">
<g clip-path="url(#clip0_3462_29487)">
<path d="M0.789062 15.4023V36.092L14.5821 25.7472L0.789062 15.4023Z" fill="#464655"/>
<path d="M7.68555 9.36729L23.2028 21.4362H50.789V10.2293C50.789 9.75322 50.4029 9.36719 49.9269 9.36719H7.68555V9.36729Z" fill="#FF4B55"/>
<path d="M7.68555 42.1256L23.2028 30.0566H50.789V41.2636C50.789 41.7396 50.4029 42.1257 49.9269 42.1257H7.68555V42.1256Z" fill="#41479B"/>
<path d="M6.34463 9.36719H1.65117C1.1751 9.36719 0.789062 9.75312 0.789062 10.2292V13.7653L15.9232 25.7465L0.789062 37.7279V41.2637C0.789062 41.7398 1.1751 42.1258 1.65117 42.1258H6.34414L22.6784 29.1947H50.7891V22.2982H22.6785L6.34463 9.36719Z" fill="#73AF00"/>
<path d="M9.12246 9.36719H6.34473L22.6786 22.2982H50.7892V20.574H23.2785L9.12246 9.36719Z" fill="#F5F5F5"/>
<path d="M0.789062 13.7656V15.9646L13.1455 25.7468L0.789062 35.5293V37.7282L15.9232 25.7468L0.789062 13.7656Z" fill="#FFE15A"/>
<path d="M22.679 29.1953L6.34473 42.1264H9.12256L23.2788 30.9195H50.7896V29.1953H22.679Z" fill="#F5F5F5"/>
</g>
<defs>
<clipPath id="clip0_3462_29487">
<rect width="50" height="50" fill="white" transform="translate(0.789062 0.746094)"/>
</clipPath>
</defs>
</svg>
