<svg width="51" height="51" viewBox="0 0 51 51" fill="none" xmlns="http://www.w3.org/2000/svg">
<g clip-path="url(#clip0_3462_29454)">
<path d="M50.5126 20.2868H0.512695V10.2293C0.512695 9.75322 0.89873 9.36719 1.3748 9.36719H49.6506C50.1267 9.36719 50.5127 9.75322 50.5127 10.2293L50.5126 20.2868Z" fill="#464655"/>
<path d="M49.6505 42.1246H1.3748C0.89873 42.1246 0.512695 41.7386 0.512695 41.2625V31.2051H50.5126V41.2625C50.5126 41.7387 50.1266 42.1246 49.6505 42.1246Z" fill="#73AF00"/>
<path d="M50.5126 20.2871H0.512695V31.206H50.5126V20.2871Z" fill="#FF4B55"/>
<path d="M9.82885 23.5168L10.3413 24.6283L11.5296 24.3359C11.6038 24.3177 11.6653 24.3947 11.631 24.463L11.0816 25.5566L12.0511 26.3035C12.1117 26.3501 12.0897 26.4462 12.0149 26.462L10.8173 26.7142L10.8379 27.9379C10.8392 28.0143 10.7503 28.0571 10.6914 28.0085L9.7476 27.2295L8.80375 28.0085C8.74477 28.0572 8.656 28.0144 8.65727 27.9379L8.67788 26.7142L7.48032 26.462C7.40552 26.4462 7.38364 26.3501 7.44409 26.3035L8.41362 25.5566L7.86421 24.463C7.82993 24.3947 7.89135 24.3176 7.96557 24.3359L9.15395 24.6283L9.66635 23.5168C9.69828 23.4475 9.79701 23.4475 9.82885 23.5168Z" fill="#F5F5F5"/>
<path d="M50.5126 19.7129H0.512695V21.1787H50.5126V19.7129Z" fill="#F5F5F5"/>
<path d="M50.5136 30.3164H0.513672V31.7822H50.5136V30.3164Z" fill="#F5F5F5"/>
<path d="M0.793652 41.8914L23.2861 26.0983C23.5306 25.9266 23.5306 25.5645 23.2861 25.3928L0.793652 9.59961C0.623144 9.75723 0.512695 9.97783 0.512695 10.2283V41.2626C0.512695 41.5131 0.623144 41.7339 0.793652 41.8914Z" fill="#41479B"/>
<path d="M7.69614 21.7269L9.63276 23.709L12.1351 22.5184C12.459 22.3642 12.7928 22.7112 12.6263 23.029L11.3397 25.4833L13.2453 27.4952C13.492 27.7556 13.2652 28.1803 12.9115 28.1201L10.1797 27.6547L8.85512 30.0888C8.68364 30.4039 8.20962 30.3194 8.15767 29.9645L7.75591 27.2226L5.03169 26.7151C4.67896 26.6494 4.61295 26.1725 4.93453 26.0133L7.41812 24.784L7.05894 22.0362C7.01236 21.6804 7.44536 21.4704 7.69614 21.7269Z" fill="#FFE15A"/>
</g>
<defs>
<clipPath id="clip0_3462_29454">
<rect width="50" height="50" fill="white" transform="translate(0.511719 0.746094)"/>
</clipPath>
</defs>
</svg>
