<svg width="51" height="51" viewBox="0 0 51 51" fill="none" xmlns="http://www.w3.org/2000/svg">
<g clip-path="url(#clip0_3462_29406)">
<path d="M1.66875 42.1258H49.9445C50.4206 42.1258 50.8066 41.7398 50.8066 41.2637V10.2293C50.8066 9.75322 50.4206 9.36719 49.9445 9.36719H1.66875C1.19268 9.36729 0.806641 9.75322 0.806641 10.2293V41.2637C0.806641 41.7399 1.19268 42.1258 1.66875 42.1258Z" fill="#C8414B"/>
<path d="M50.8065 16.2637H0.806641V35.2295H50.8065V16.2637Z" fill="#FFD250"/>
<path d="M21.9272 25.7466L22.6582 22.4574C22.7256 22.1545 22.495 21.8672 22.1847 21.8672H21.6698C21.3596 21.8672 21.1291 22.1545 21.1963 22.4574L21.9272 25.7466Z" fill="#C8414B"/>
<path d="M22.7895 24.0215H21.0654V31.3486H22.7895V24.0215Z" fill="#F5F5F5"/>
<path d="M23.219 23.1602H20.6328V24.0223H23.219V23.1602Z" fill="#FAB446"/>
<path d="M23.2217 25.7461H18.9111V26.6082H23.2217V25.7461Z" fill="#C8414B"/>
<path d="M23.222 29.1948L20.6357 28.3328V27.4707L23.222 28.3328V29.1948Z" fill="#C8414B"/>
<path d="M8.99755 25.7466L9.7285 22.4574C9.79588 22.1545 9.56532 21.8672 9.25497 21.8672H8.74013C8.42987 21.8672 8.1994 22.1545 8.26659 22.4574L8.99755 25.7466Z" fill="#C8414B"/>
<path d="M12.0135 23.1602C11.5374 23.1602 11.1514 23.5462 11.1514 24.0223V29.6257C11.1514 30.673 12.1289 32.643 15.4617 32.643C18.7945 32.643 19.7721 30.6731 19.7721 29.6257V24.0223C19.7721 23.5462 19.386 23.1602 18.9099 23.1602H12.0135V23.1602Z" fill="#F5F5F5"/>
<path d="M15.4627 27.4705H11.1523V24.0223C11.1523 23.5462 11.5384 23.1602 12.0145 23.1602H15.4627V27.4705Z" fill="#C8414B"/>
<path d="M15.4629 27.4707H19.7732V29.6259C19.7732 30.8162 18.8084 31.781 17.6181 31.781C16.4277 31.781 15.4629 30.8162 15.4629 29.6259V27.4707V27.4707Z" fill="#C8414B"/>
<path d="M11.1514 27.4707H15.4617V29.6259C15.4617 30.8162 14.4969 31.781 13.3065 31.781C12.1162 31.781 11.1514 30.8162 11.1514 29.6259V27.4707V27.4707Z" fill="#FAB446"/>
<path d="M14.5984 31.3403V27.4707H13.7363V31.7376C14.057 31.6725 14.3468 31.5306 14.5984 31.3403Z" fill="#C8414B"/>
<path d="M12.8738 31.7376V27.4707H12.0117V31.3403C12.2635 31.5306 12.5532 31.6725 12.8738 31.7376Z" fill="#C8414B"/>
<path d="M14.5999 25.7461H12.0137V26.6082H14.5999V25.7461Z" fill="#FFB441"/>
<path d="M14.5999 24.0215H12.0137V24.8836H14.5999V24.0215Z" fill="#FAB446"/>
<path d="M14.1675 24.5352H12.4434V26.0969H14.1675V24.5352Z" fill="#FAB446"/>
<path d="M9.85791 24.0215H8.13379V31.3486H9.85791V24.0215Z" fill="#F5F5F5"/>
<path d="M10.2874 30.918H7.70117V31.7801H10.2874V30.918Z" fill="#FAB446"/>
<path d="M10.2874 23.1602H7.70117V24.0223H10.2874V23.1602Z" fill="#FAB446"/>
<path d="M10.7207 31.7812H7.27246V32.6434H10.7207V31.7812Z" fill="#5064AA"/>
<path d="M23.6517 30.9199H21.0654V31.782H23.6517V30.9199Z" fill="#FAB446"/>
<path d="M23.6504 31.7812H20.2021V32.6434H23.6504V31.7812Z" fill="#5064AA"/>
<path d="M18.0484 22.2988H12.876V23.1609H18.0484V22.2988Z" fill="#FAB446"/>
<path d="M15.8934 19.7129H15.0312V22.2991H15.8934V19.7129Z" fill="#FFB441"/>
<path d="M14.5997 21.0041C13.8866 21.0041 13.3066 20.424 13.3066 19.711C13.3066 18.9979 13.8867 18.418 14.5997 18.418C15.3128 18.418 15.8928 18.998 15.8928 19.711C15.8929 20.424 15.3128 21.0041 14.5997 21.0041ZM14.5997 19.28C14.3619 19.28 14.1686 19.4731 14.1686 19.711C14.1686 19.9488 14.3618 20.1421 14.5997 20.1421C14.8376 20.1421 15.0308 19.9489 15.0308 19.711C15.0308 19.4732 14.8376 19.28 14.5997 19.28Z" fill="#F5F5F5"/>
<path d="M16.3233 21.0041C15.6103 21.0041 15.0303 20.424 15.0303 19.711C15.0303 18.9979 15.6104 18.418 16.3233 18.418C17.0364 18.418 17.6164 18.998 17.6164 19.711C17.6164 20.424 17.0363 21.0041 16.3233 21.0041ZM16.3233 19.28C16.0855 19.28 15.8923 19.4731 15.8923 19.711C15.8923 19.9488 16.0854 20.1421 16.3233 20.1421C16.5611 20.1421 16.7544 19.9489 16.7544 19.711C16.7543 19.4732 16.5611 19.28 16.3233 19.28Z" fill="#F5F5F5"/>
<path d="M18.0479 21.8654C17.3349 21.8654 16.7549 21.2853 16.7549 20.5724C16.7549 19.8593 17.335 19.2793 18.0479 19.2793C18.761 19.2793 19.341 19.8594 19.341 20.5724C19.341 21.2853 18.7609 21.8654 18.0479 21.8654ZM18.0479 20.1413C17.8102 20.1413 17.6169 20.3345 17.6169 20.5724C17.6169 20.8102 17.8101 21.0034 18.0479 21.0034C18.2857 21.0034 18.479 20.8103 18.479 20.5724C18.479 20.3345 18.2857 20.1413 18.0479 20.1413Z" fill="#F5F5F5"/>
<path d="M12.8751 21.8654C12.162 21.8654 11.582 21.2853 11.582 20.5724C11.582 19.8593 12.1621 19.2793 12.8751 19.2793C13.5882 19.2793 14.1682 19.8594 14.1682 20.5724C14.1683 21.2853 13.5882 21.8654 12.8751 21.8654ZM12.8751 20.1413C12.6373 20.1413 12.444 20.3345 12.444 20.5724C12.444 20.8102 12.6372 21.0034 12.8751 21.0034C13.113 21.0034 13.3061 20.8102 13.3061 20.5723C13.3061 20.3345 13.113 20.1413 12.8751 20.1413Z" fill="#F5F5F5"/>
<path d="M18.0475 29.194V29.6251C18.0475 29.8628 17.8541 30.0561 17.6164 30.0561C17.3787 30.0561 17.1854 29.8628 17.1854 29.6251V29.194H18.0475ZM18.9095 28.332H16.3232V29.6251C16.3232 30.3382 16.9033 30.9182 17.6163 30.9182C18.3294 30.9182 18.9094 30.3381 18.9094 29.6251V28.332H18.9095Z" fill="#FAB446"/>
<path d="M17.617 26.6078C17.1409 26.6078 16.7549 26.2218 16.7549 25.7457V24.8836C16.7549 24.4075 17.1409 24.0215 17.617 24.0215C18.0931 24.0215 18.4791 24.4075 18.4791 24.8836V25.7457C18.4791 26.2218 18.0931 26.6078 17.617 26.6078Z" fill="#FFA0D2"/>
<path d="M15.461 28.7639C16.1752 28.7639 16.7541 28.1849 16.7541 27.4708C16.7541 26.7567 16.1752 26.1777 15.461 26.1777C14.7469 26.1777 14.168 26.7567 14.168 27.4708C14.168 28.1849 14.7469 28.7639 15.461 28.7639Z" fill="#5064AA"/>
<path d="M15.8934 17.9883H15.0312V20.5745H15.8934V17.9883Z" fill="#FAB446"/>
<path d="M12.8748 22.2972L12.0127 21.4351L12.5177 20.9301C13.2982 20.1495 14.357 19.7109 15.461 19.7109C16.565 19.7109 17.6237 20.1495 18.4044 20.9301L18.9094 21.4351L18.0473 22.2972H12.8748Z" fill="#C8414B"/>
<path d="M15.4604 21.866C15.6984 21.866 15.8914 21.673 15.8914 21.435C15.8914 21.1969 15.6984 21.0039 15.4604 21.0039C15.2223 21.0039 15.0293 21.1969 15.0293 21.435C15.0293 21.673 15.2223 21.866 15.4604 21.866Z" fill="#FFD250"/>
<path d="M13.7357 21.866C13.9738 21.866 14.1668 21.673 14.1668 21.435C14.1668 21.1969 13.9738 21.0039 13.7357 21.0039C13.4977 21.0039 13.3047 21.1969 13.3047 21.435C13.3047 21.673 13.4977 21.866 13.7357 21.866Z" fill="#FFD250"/>
<path d="M17.184 21.866C17.422 21.866 17.615 21.673 17.615 21.435C17.615 21.1969 17.422 21.0039 17.184 21.0039C16.9459 21.0039 16.7529 21.1969 16.7529 21.435C16.7529 21.673 16.9459 21.866 17.184 21.866Z" fill="#FFD250"/>
<path d="M12.0117 25.7461H7.70117V26.6082H12.0117V25.7461Z" fill="#C8414B"/>
<path d="M7.70117 29.1948L10.2873 28.3328V27.4707L7.70117 28.3328V29.1948Z" fill="#C8414B"/>
</g>
<defs>
<clipPath id="clip0_3462_29406">
<rect width="50" height="50" fill="white" transform="translate(0.804688 0.746094)"/>
</clipPath>
</defs>
</svg>
