<svg width="51" height="51" viewBox="0 0 51 51" fill="none" xmlns="http://www.w3.org/2000/svg">
<g clip-path="url(#clip0_3462_29381)">
<path d="M49.7589 8.79492H1.4832C1.00713 8.79492 0.621094 9.18086 0.621094 9.65693V40.6913C0.621094 41.1674 1.00713 41.5535 1.4832 41.5535H49.759C50.2351 41.5535 50.6211 41.1674 50.6211 40.6913V9.65693C50.621 9.18086 50.235 8.79492 49.7589 8.79492Z" fill="#FFD250"/>
<path d="M18.7246 12.243V38.105C18.7246 38.5811 19.1106 38.9671 19.5867 38.9671H47.1729C47.649 38.9671 48.035 38.5811 48.035 38.105V12.243C48.035 11.7669 47.649 11.3809 47.1729 11.3809H19.5867C19.1106 11.381 18.7246 11.7669 18.7246 12.243Z" fill="#963C3C"/>
<path d="M9.67264 11.3809H4.06914C3.59307 11.3809 3.20703 11.7669 3.20703 12.243V38.105C3.20703 38.5811 3.59307 38.9671 4.06914 38.9671H9.67264V11.3809Z" fill="#5AA587"/>
<path d="M15.2763 11.3809H9.67285V38.967H15.2763C15.7523 38.967 16.1384 38.581 16.1384 38.1049V12.2429C16.1384 11.7668 15.7523 11.3809 15.2763 11.3809Z" fill="#FF7350"/>
<path d="M39.052 32.0829C39.0231 31.8903 39.1928 31.6414 39.4549 31.2839C39.5497 31.1547 39.6867 30.9675 39.7236 30.8779C39.6992 30.8761 39.6656 30.8781 39.6406 30.8793C39.4956 30.8864 39.2762 30.8963 39.0845 30.6835C39.0095 30.6001 38.9733 30.4958 38.9804 30.3819C38.9947 30.1503 39.1838 29.9227 39.3011 29.8023C38.9986 29.5899 38.7097 29.3693 38.4432 29.1029C37.934 28.5936 37.3532 28.3484 36.712 28.3619C36.6526 28.9996 36.9813 29.4191 37.3321 29.8606C37.4355 29.9906 37.5386 30.1203 37.6322 30.256C38.0936 30.9241 37.9972 32.2139 37.9387 32.3505C37.8724 32.5054 37.5075 32.8488 37.007 32.7819C36.7769 32.7516 36.5119 32.829 36.3449 32.9749C36.2731 33.0377 36.1875 33.1422 36.1875 33.2823C36.1875 33.2893 36.1881 33.3247 36.199 33.3313C36.2663 33.3719 36.5176 33.2926 36.6973 33.1954C36.7469 33.1684 36.8086 33.1764 36.8504 33.2153C37.2042 33.5465 37.5594 33.2603 37.5985 33.2266C37.6471 33.1851 37.7186 33.1837 37.7681 33.2235C38.1302 33.5153 38.5076 33.1963 38.5235 33.1826C38.568 33.1442 38.6331 33.1396 38.6825 33.1719C38.8396 33.2749 38.9833 33.3043 39.1115 33.2604C39.2234 33.2215 39.2828 33.1373 39.2897 33.117C39.293 33.0635 39.2211 32.7874 39.1734 32.6046C39.1234 32.4127 39.0719 32.2145 39.052 32.0829Z" fill="#FFD250"/>
<path d="M42.9727 19.8675C42.8636 19.8592 42.7846 19.8828 42.7306 19.9363C42.6315 20.0343 42.6396 20.2107 42.6398 20.2125C42.6418 20.2518 42.6263 20.29 42.5977 20.3168C42.5688 20.3435 42.53 20.3571 42.4908 20.3514C42.2947 20.3257 42.0046 20.1188 41.4665 19.7243C40.6116 19.0977 39.3194 18.1506 38.0866 17.9948C36.6536 17.8128 35.3783 18.2699 35.0544 19.0801C34.6936 19.982 35.4603 20.8038 35.468 20.8121C35.507 20.8534 35.5156 20.915 35.4888 20.9651C35.2867 21.346 35.4398 21.627 35.5778 21.7811C35.6211 21.6539 35.6857 21.5671 35.7748 21.5137C35.9898 21.3852 36.2707 21.4915 36.659 21.6386C36.8885 21.7253 37.1486 21.8237 37.4519 21.898C38.2296 22.0887 39.1782 21.9187 40.0152 21.7688C40.311 21.7158 40.5962 21.6649 40.8615 21.6311C41.5289 21.546 42.1981 21.8418 42.382 22.3055C42.4711 22.5301 42.5187 22.9808 41.837 23.4767C40.6108 24.3685 35.0191 23.9569 34.6897 23.9318C34.6824 23.9325 34.6752 23.9331 34.6597 23.9342C34.782 24.0715 34.9254 24.2054 34.9879 24.2221C35.0516 24.2391 35.0931 24.3004 35.085 24.3659C35.0769 24.4313 35.0218 24.4809 34.9559 24.4818L34.3831 24.4905L34.4358 25.0418C34.4396 25.0824 34.4245 25.1226 34.3946 25.1505C34.3648 25.1785 34.3236 25.1902 34.2836 25.1849C34.2611 25.1811 33.7667 25.1021 33.4249 24.9121L32.7779 25.3202C32.7566 25.3337 32.732 25.3404 32.7073 25.3404C32.6929 25.3404 32.6785 25.3382 32.6648 25.3334C32.627 25.3205 32.597 25.2914 32.5833 25.2539L32.3364 24.5827L32.0437 25.1683C32.0223 25.2111 31.9795 25.239 31.9319 25.2412C31.8843 25.2462 31.839 25.2201 31.8134 25.1795L31.5626 24.7796C31.4478 24.9229 31.2638 25.1316 31.0757 25.2619C31.0413 25.286 30.9977 25.2919 30.9578 25.2784C30.918 25.2648 30.8871 25.2332 30.8745 25.1933L30.743 24.7783C30.6267 24.9254 30.4585 25.1203 30.2803 25.2665C30.2423 25.2981 30.1895 25.3055 30.1439 25.2855C30.0984 25.2657 30.0678 25.2222 30.0648 25.1728L30.0224 24.5058C29.8718 24.5825 29.6669 24.6825 29.5533 24.718C29.5016 24.7342 29.4447 24.7169 29.4108 24.6744C29.3767 24.6319 29.3722 24.5731 29.3995 24.5259C29.6033 24.172 29.7903 23.7301 29.8046 23.5103C29.6694 23.6722 29.4802 23.827 29.2688 23.999C28.819 24.3652 28.2593 24.8206 27.8473 25.6178C27.5596 26.1749 27.353 27.1468 27.7174 28.0528C28.0284 28.8258 28.6977 29.4025 29.7006 29.773C29.6671 29.6267 29.6413 29.483 29.6386 29.3479C29.6256 28.6616 29.768 28.0351 29.7742 28.0088C29.7906 27.9376 29.8613 27.8926 29.9325 27.9098C30.0037 27.9263 30.0479 27.9972 30.0316 28.0681C30.0302 28.0743 29.8906 28.6903 29.9029 29.3429C29.9091 29.6623 30.0465 30.0564 30.1792 30.4375C30.3555 30.9441 30.5382 31.4679 30.4588 31.9088C30.3507 32.508 29.6047 32.6599 28.9121 32.5443C28.7152 32.5112 28.5361 32.5598 28.4075 32.6799C28.2769 32.8016 28.2099 32.9884 28.2284 33.1794C28.2371 33.2693 28.2708 33.2875 28.2817 33.2935C28.365 33.3386 28.561 33.2773 28.667 33.2219C28.7203 33.1939 28.7862 33.2054 28.827 33.2511C29.1048 33.5622 29.4788 33.2517 29.4945 33.2382C29.5481 33.1929 29.6282 33.197 29.6764 33.2485C29.781 33.36 29.8919 33.4155 30.0152 33.4183C30.2407 33.4321 30.4548 33.2312 30.457 33.2296C30.496 33.1916 30.5546 33.1817 30.604 33.2042C31.0398 33.4037 31.2685 33.2878 31.2779 33.2823C31.6561 32.9598 31.4376 32.1947 31.4353 32.1869C31.425 32.1519 31.4296 32.1142 31.448 32.083C31.4665 32.0515 31.497 32.0291 31.5325 32.0209C32.0623 31.8994 32.3584 31.5595 32.5015 31.3341C32.2398 31.3315 32.0318 31.2397 31.9092 31.0483C31.712 30.7392 31.8067 30.2739 32.1508 29.8627C32.7396 29.1592 33.0996 27.7353 33.0456 27.1555C33.0389 27.0828 33.0923 27.0185 33.165 27.0116C33.2357 27.0044 33.3019 27.0584 33.3088 27.131C33.356 27.639 33.127 28.6924 32.709 29.4867C33.2385 29.3402 33.7218 29.1259 34.226 28.8958C34.7272 28.6671 35.2457 28.4307 35.8686 28.2355C36.9214 27.9059 37.85 28.1344 38.6297 28.9143C39.0075 29.2921 39.4198 29.5686 39.8973 29.8892C40.107 30.03 40.3252 30.1764 40.5516 30.3395C41.1654 30.7813 41.1545 31.1503 41.143 31.5408C41.1396 31.6598 41.1358 31.7829 41.1492 31.9162C41.2125 32.5505 40.7082 32.6508 40.4658 32.6989C40.4326 32.7054 40.4014 32.7116 40.3743 32.7183C40.34 32.7269 40.2991 32.7353 40.2538 32.7445C40.0076 32.7944 39.6356 32.8699 39.5442 33.185C39.5277 33.2415 39.534 33.2612 39.534 33.2612C39.5729 33.2789 39.7745 33.2332 39.9349 33.1602C39.969 33.1446 40.0077 33.1444 40.0419 33.1591C40.0762 33.1737 40.1027 33.2023 40.1149 33.2375C40.1617 33.3747 40.2346 33.398 40.2585 33.4058C40.4249 33.4578 40.6971 33.3047 40.7792 33.2464C40.8303 33.2103 40.8992 33.2141 40.9453 33.2564C41.0817 33.381 41.2079 33.4358 41.3212 33.4206C41.473 33.3995 41.5651 33.2566 41.5661 33.2551C41.5879 33.2198 41.6251 33.1968 41.6664 33.1929C41.7084 33.1907 41.7487 33.2055 41.7766 33.2361C41.7769 33.2367 41.8925 33.3587 42.1291 33.4334C42.2843 33.4819 42.3235 33.426 42.3363 33.4074C42.4018 33.3117 42.3783 33.0676 42.2504 32.9079C42.0829 32.6983 42.005 32.3797 42.0523 32.0962C42.0956 31.8351 42.2365 31.6223 42.459 31.4805C42.867 31.2209 42.9602 30.9411 42.9341 30.8878C42.9266 30.8841 42.8823 30.8783 42.8468 30.8736C42.6648 30.8495 42.3601 30.8093 42.0467 30.2306C41.77 29.72 42.0377 28.9115 42.3477 27.9751C42.5049 27.5008 42.6674 27.01 42.7675 26.5288C43.0449 25.1975 42.1732 24.1405 42.1644 24.1301C42.1194 24.0764 42.124 23.9968 42.1752 23.9487C42.787 23.3747 43.0501 22.8426 42.9567 22.3672C42.8595 21.8715 42.3794 21.5249 41.998 21.3788C41.5226 21.1966 40.6552 21.3001 39.8161 21.3999C39.1149 21.4832 38.4522 21.5622 38.0244 21.4728C37.804 21.4266 37.6425 21.3221 37.5446 21.1624C37.4639 21.0308 37.4442 20.8865 37.4449 20.774C37.2324 20.8539 37.0888 21.0508 37.0872 21.0531C37.0629 21.0871 37.0238 21.1076 36.9822 21.1084C36.93 21.1063 36.9005 21.0902 36.8751 21.0573C36.767 20.9176 36.7235 20.7635 36.7462 20.5989C36.7753 20.3862 36.9126 20.2033 37.0251 20.0854C36.5333 19.9126 36.1562 20.3249 36.1388 20.3445C36.0959 20.3922 36.0251 20.4022 35.9708 20.3695C35.7335 20.2236 35.5864 19.9373 35.5957 19.6401C35.6046 19.3596 35.7494 19.1243 35.9926 18.9951C36.1593 18.9066 36.3193 18.8903 36.4675 18.9463C36.6085 18.9994 36.7075 19.1092 36.7698 19.2023C36.9498 18.9971 36.9649 18.6428 36.9649 18.6387C36.966 18.6032 36.9808 18.5697 37.0069 18.5456C37.0328 18.5215 37.0686 18.5064 37.1026 18.5102C37.4155 18.5231 37.6585 18.6361 37.8246 18.846C38.0515 19.1332 38.0728 19.532 38.0595 19.779C38.5594 19.5238 38.496 18.9349 38.4928 18.9073C38.4875 18.8618 38.5059 18.817 38.5416 18.7885C38.5772 18.7602 38.6247 18.7513 38.6682 18.7672C39.1987 18.9544 39.3917 19.4274 39.4372 19.7795C39.5873 19.6361 39.5896 19.4522 39.5896 19.4499C39.5896 19.3896 39.6305 19.3368 39.689 19.3219C39.7481 19.3071 39.8087 19.3336 39.8377 19.3865C40.0423 19.7605 40.3544 19.9935 40.5828 20.1236L40.4255 19.7425C40.4042 19.6908 40.4176 19.6313 40.459 19.5939C40.5006 19.5564 40.5614 19.5492 40.6103 19.5758C40.872 19.7167 41.0793 19.8762 41.2988 20.0452C41.5634 20.249 41.8372 20.4596 42.2227 20.6407C42.5992 20.8178 42.8531 20.7841 42.9992 20.7249C43.1505 20.6638 43.237 20.556 43.2652 20.4821C43.3183 20.3426 43.3338 20.1422 43.2485 20.0093C43.1936 19.9234 43.1008 19.876 42.9727 19.8675Z" fill="#FFD250"/>
<path d="M27.3715 21.769C27.3718 21.7691 27.3719 21.7693 27.3719 21.7693C27.3726 21.7695 27.373 21.7694 27.3733 21.7695C27.3831 21.7727 28.3712 22.0845 29.2682 22.1379C29.3174 22.1408 29.3611 22.1711 29.381 22.2162C29.4009 22.2614 29.3943 22.3142 29.3633 22.3527L29.332 22.3916C29.5099 22.365 29.7337 22.3403 29.9533 22.3394C29.8633 22.2323 29.7514 22.0962 29.6366 21.9535C29.3966 21.9491 28.5188 21.911 27.8044 21.5667C27.6308 21.4825 27.3308 21.3372 27.1881 21.4108C27.1635 21.4235 27.1229 21.483 27.1296 21.5562C27.1385 21.6489 27.2242 21.7246 27.3715 21.769Z" fill="#FFD250"/>
<path d="M30.3492 19.8574C30.3355 19.8574 30.323 19.8589 30.3119 19.8623C30.2543 19.8796 30.2251 19.9447 30.2173 19.9955C30.2077 20.0605 30.2242 20.1479 30.2997 20.1984C30.3984 20.264 30.5038 20.2191 30.5639 20.1599C30.5828 20.1414 30.6735 20.0444 30.6066 19.9384L30.6064 19.9381C30.5031 19.8905 30.4126 19.8574 30.3492 19.8574Z" fill="#FFD250"/>
<path d="M29.0522 23.0438C29.1162 23.1964 29.2155 23.3146 29.2976 23.3939C29.3288 23.3265 29.3763 23.2564 29.4484 23.2039C29.5189 23.1525 29.6412 23.1024 29.8203 23.1397C29.8231 23.1399 29.8256 23.1405 29.8284 23.1408C29.8336 23.142 29.8376 23.1415 29.8428 23.1428C29.8474 23.1438 29.8504 23.1475 29.855 23.1488C29.8613 23.1511 29.868 23.1513 29.8741 23.1547C29.8787 23.1571 29.8815 23.1613 29.8856 23.1642C29.953 23.193 30.0092 23.2391 30.039 23.3088C30.1391 23.5424 29.963 23.9959 29.8075 24.3185C29.9174 24.2641 30.0225 24.2091 30.0794 24.1787C30.1189 24.1574 30.1668 24.1577 30.206 24.1798C30.2455 24.2016 30.2709 24.2421 30.2737 24.2868L30.311 24.8763C30.5176 24.6585 30.6804 24.4219 30.6825 24.4187C30.711 24.3769 30.7604 24.3559 30.8108 24.3626C30.8609 24.37 30.9022 24.4053 30.9174 24.4534L31.0682 24.9295C31.2793 24.7354 31.4632 24.4756 31.4653 24.4723C31.491 24.4361 31.5328 24.4169 31.5768 24.4161C31.621 24.4173 31.6619 24.4405 31.6854 24.478L31.9127 24.8404L32.237 24.1919C32.2606 24.1446 32.305 24.1148 32.3627 24.1189C32.4154 24.1219 32.461 24.1558 32.4794 24.2054L32.7753 25.0101L33.3528 24.6457C33.3965 24.6178 33.452 24.6185 33.4958 24.6471C33.6841 24.7704 33.9736 24.85 34.156 24.8909L34.1067 24.3736C34.1033 24.3368 34.1153 24.3004 34.1399 24.2729C34.1645 24.2455 34.1994 24.2294 34.2363 24.2289L34.5668 24.2239C34.4873 24.1434 34.4215 24.0656 34.3894 24.0262C34.3678 24 34.3593 23.9679 34.3607 23.9364C34.1173 23.9261 33.778 23.8826 33.4387 23.7362L33.2369 24.0475C33.2175 24.0773 33.1873 24.0979 33.1526 24.105C33.1439 24.1069 33.1349 24.1078 33.1261 24.1078C33.1002 24.1078 33.0745 24.1001 33.0525 24.0853L32.2892 23.5732L32.149 23.9551C32.1329 23.9989 32.0948 24.0309 32.0489 24.0393C32.003 24.0483 31.9561 24.0314 31.9254 23.9964C31.7942 23.846 31.5883 23.6154 31.4658 23.489C31.3554 23.5953 31.1619 23.7669 30.9549 23.8817C30.9213 23.9005 30.8809 23.9034 30.845 23.8901C30.8089 23.8768 30.7803 23.8485 30.7669 23.8123L30.5576 23.2507C30.5322 23.1823 30.5669 23.1061 30.6354 23.0807C30.7035 23.0553 30.7799 23.0902 30.8054 23.1585L30.958 23.5682C31.1795 23.4143 31.3642 23.2163 31.3665 23.2139C31.4136 23.1631 31.4922 23.157 31.5459 23.2004C31.6228 23.262 31.8316 23.492 31.9774 23.6555L32.0991 23.3241C32.113 23.286 32.1438 23.2564 32.1824 23.2441C32.2206 23.2308 32.2631 23.2371 32.2968 23.26L33.0883 23.791L33.2798 23.4961C33.3166 23.4392 33.3902 23.4194 33.4496 23.4498C33.8009 23.6255 34.1802 23.668 34.4224 23.6744C34.2747 23.3983 34.2617 23.0483 34.2608 22.9661C34.063 22.8788 33.8199 22.747 33.5753 22.5459L33.4801 22.7809C33.4648 22.8184 33.4332 22.847 33.3939 22.8582C33.3549 22.869 33.3127 22.862 33.28 22.8383L32.8982 22.5612L32.861 22.8474C32.8551 22.8918 32.8275 22.9301 32.787 22.9494C32.7469 22.9687 32.6996 22.9668 32.6612 22.9433C32.6479 22.9353 32.3338 22.7434 32.1465 22.5327C32.098 22.4782 32.103 22.3946 32.1576 22.3462C32.2115 22.2976 32.2952 22.3023 32.3441 22.3572C32.4232 22.4462 32.534 22.5346 32.6264 22.6016L32.6648 22.3068C32.6709 22.2605 32.7008 22.221 32.7436 22.2025C32.7866 22.184 32.836 22.1896 32.8736 22.2169L33.2986 22.5252L33.4004 22.2741C33.4168 22.2338 33.452 22.2041 33.4947 22.1948C33.5371 22.1856 33.5818 22.1977 33.6134 22.2277C33.9429 22.5378 34.2995 22.7052 34.5212 22.7873C34.4454 22.4346 34.4166 21.9922 34.4151 21.9689C34.4149 21.9656 34.4164 21.9628 34.4164 21.9596C34.2104 21.846 33.9193 21.6503 33.6676 21.3428C33.6665 21.5057 33.6532 21.6715 33.6132 21.7762C33.5995 21.8123 33.5708 21.8405 33.5344 21.8536C33.4979 21.8662 33.4577 21.8629 33.4246 21.8441C33.4087 21.835 33.1211 21.6699 32.907 21.4287C32.8701 21.5616 32.8257 21.7016 32.7882 21.7641C32.7525 21.8232 32.6778 21.8451 32.6158 21.8143C32.6032 21.8081 32.4007 21.7056 32.2202 21.5487C32.2026 21.7247 32.1755 21.9235 32.1368 22.0204C32.1229 22.0556 32.0944 22.0829 32.0589 22.0957C32.0232 22.1079 31.984 22.1052 31.9508 22.0873C31.9386 22.0808 31.7093 21.955 31.4952 21.7955L31.4372 22.0159C31.4271 22.0536 31.4011 22.0851 31.366 22.1018C31.3305 22.1182 31.2902 22.1185 31.2547 22.1026C31.2387 22.0954 30.8608 21.9216 30.6456 21.6586C30.5993 21.6021 30.6075 21.5188 30.6641 21.4728C30.7204 21.4266 30.8039 21.4348 30.8499 21.4914C30.9528 21.6171 31.1102 21.7222 31.2238 21.7881L31.2916 21.5306C31.3034 21.4858 31.3375 21.4506 31.3818 21.4375C31.4258 21.4237 31.4738 21.4352 31.5081 21.4663C31.6343 21.5806 31.8052 21.693 31.9267 21.7674C31.9526 21.6042 31.9726 21.3684 31.9812 21.2154C31.9846 21.1563 32.0267 21.1067 32.0842 21.0939C32.1424 21.0809 32.2012 21.1081 32.2293 21.1599C32.3019 21.2936 32.4765 21.424 32.6082 21.5064C32.6443 21.3934 32.6888 21.2267 32.7223 21.0828C32.7352 21.0275 32.7817 20.9868 32.8382 20.9813C32.8946 20.9743 32.9483 21.0066 32.9715 21.0584C33.054 21.2413 33.254 21.4085 33.3967 21.5108C33.4123 21.3182 33.3979 21.0443 33.3802 20.873C33.3737 20.8094 33.4136 20.7502 33.4751 20.7324C33.5379 20.7154 33.602 20.7437 33.6302 20.801C33.8961 21.3401 34.3661 21.6388 34.6106 21.7643C34.7439 20.306 34.3165 19.7479 34.3119 19.7423C34.288 19.7122 34.2779 19.6728 34.285 19.635C34.2923 19.5973 34.3151 19.5641 34.3484 19.5447C34.5858 19.4073 34.7298 19.1563 34.8182 18.9128C34.2809 19.4337 33.4297 19.6338 33.015 19.703L33.2174 19.9498C33.2483 19.9875 33.256 20.0392 33.2374 20.0842C33.2186 20.1292 33.1768 20.1603 33.1283 20.165C32.6202 20.2158 32.2494 20.1485 31.9998 20.0644L32.0862 20.2238C32.109 20.2656 32.1073 20.3166 32.0821 20.3568C32.057 20.3973 32.0109 20.4245 31.9644 20.4187C31.5505 20.4011 31.1883 20.2305 30.8906 20.0798C30.8764 20.1769 30.8285 20.2716 30.7487 20.3496C30.6509 20.445 30.5266 20.4943 30.4033 20.4943C30.316 20.4943 30.2294 20.4695 30.1533 20.4187C30.004 20.319 29.9284 20.142 29.9561 19.9568C29.9818 19.7867 30.0891 19.6537 30.2364 19.6097C30.4334 19.5512 30.6583 19.665 30.9427 19.81C31.1685 19.925 31.4378 20.062 31.7313 20.1234L31.5677 19.8213C31.5373 19.765 31.5513 19.6952 31.6012 19.6551C31.6513 19.6156 31.7223 19.6167 31.7708 19.6588C31.7737 19.6613 32.1026 19.9315 32.8491 19.9176L32.6608 19.6881C32.6299 19.6504 32.6222 19.5984 32.641 19.5534C32.6599 19.5084 32.7021 19.4773 32.7507 19.4728C32.765 19.4715 33.8495 19.3614 34.5167 18.8238C34.2994 18.8874 34.1312 18.8773 34.1183 18.8771C34.0817 18.8742 34.0479 18.8563 34.0252 18.8275C33.7195 18.4435 33.4067 18.3247 33.249 18.288C33.1604 18.5671 32.946 18.793 32.9355 18.8038C32.9072 18.8332 32.8667 18.8477 32.8264 18.8437C32.7858 18.8394 32.7495 18.8166 32.7278 18.7819C32.4921 18.402 32.1522 18.3021 31.9548 18.2773C31.979 18.5582 31.7827 18.7889 31.652 18.8849C31.6012 18.9217 31.5319 18.9184 31.4856 18.877C30.9185 18.37 30.4805 18.52 30.3034 18.6213C30.3593 18.7603 30.333 18.8738 30.2951 18.9506C30.0243 19.4993 28.3491 19.6097 28.016 19.6262C27.9747 19.6291 27.9333 19.6103 27.9067 19.5773C27.8801 19.5444 27.871 19.501 27.8817 19.4603C27.9061 19.3688 27.8898 19.2703 27.8359 19.1822C27.7808 19.0923 27.6926 19.0268 27.6001 19.0069C27.513 18.9885 27.3468 19.0004 27.2475 19.1093C27.134 19.2342 27.1262 19.4651 27.2251 19.7773C27.4024 20.3378 27.9488 20.8899 28.2889 21.1926C28.2858 21.1228 28.2879 21.0716 28.2886 21.0588C28.2916 21.0023 28.33 20.954 28.3843 20.9386C28.4388 20.9227 28.4967 20.9436 28.5291 20.9899C28.6418 21.1519 28.7761 21.2612 28.8771 21.3282L28.9434 20.9055C28.9527 20.847 28.9997 20.8017 29.0585 20.7947C29.117 20.7897 29.1735 20.8209 29.1961 20.8758C29.3158 21.1666 30.0738 22.077 30.3557 22.4033C30.3919 22.4449 30.3982 22.5046 30.3717 22.553C30.3452 22.6012 30.2917 22.6271 30.237 22.6205C29.754 22.5517 29.0444 22.7124 29.0374 22.714C28.9826 22.7267 28.9258 22.7031 28.8958 22.6555C28.866 22.6078 28.8695 22.5465 28.9048 22.5024L29.0025 22.3808C28.3319 22.311 27.679 22.1348 27.415 22.0576L27.1932 22.6601L27.7909 22.6005C27.8359 22.5948 27.8823 22.6157 27.9097 22.6529C27.9377 22.6901 27.9438 22.739 27.9262 22.782L27.8135 23.0574L28.3058 22.9271C28.3711 22.9091 28.438 22.9439 28.4627 23.0062C28.5279 23.1715 28.6079 23.28 28.6717 23.3473L28.8104 23.0407C28.8323 22.9929 28.88 22.9595 28.9327 22.9632C28.9847 22.9635 29.0318 22.9952 29.0522 23.0438Z" fill="#FFD250"/>
<path d="M27.3411 29.8012C27.8623 30.1492 28.2836 29.7521 28.5087 29.4464C28.0285 29.0961 27.6789 28.6651 27.4726 28.152C27.4051 27.9843 27.3612 27.8147 27.3269 27.6455C27.2779 27.607 26.5528 27.0327 25.9455 26.3613C25.9145 26.4423 25.8737 26.5065 25.8407 26.55C25.8834 26.7235 25.8419 26.8652 25.7885 26.9561C25.8253 27.0798 25.7957 27.2025 25.7528 27.2921C25.8447 27.4308 25.8614 27.5665 25.8025 27.697C25.7891 27.7269 25.7709 27.7544 25.752 27.7814C25.8275 27.8727 25.9464 28.0814 25.9464 28.5016C25.9464 28.7841 26.051 28.9536 26.1291 29.0407C26.1747 29.0013 26.2246 28.9791 26.2795 28.9732C26.4462 28.9547 26.5831 29.0973 26.7703 29.2939C26.9169 29.4481 27.0992 29.6399 27.3411 29.8012Z" fill="#FFD250"/>
<path d="M24.7487 26.2181C24.739 26.2181 24.7291 26.2179 24.7193 26.2179C24.5293 26.2161 24.3556 26.1972 24.1955 26.1664C24.1801 26.2105 24.2129 26.3389 24.2472 26.3652C24.2809 26.3911 24.3034 26.4339 24.3023 26.4764C24.3011 26.5187 24.2828 26.5604 24.2478 26.5843C24.2252 26.6001 24.1581 26.6601 24.1572 26.7185C24.1564 26.7755 24.2236 26.8344 24.2639 26.8646C24.2933 26.8866 24.3122 26.92 24.316 26.9565C24.3198 26.9932 24.3083 27.0297 24.284 27.0574C24.267 27.0775 24.2185 27.1511 24.2269 27.2128C24.2286 27.2259 24.2341 27.2658 24.3029 27.3126C24.3327 27.3328 24.353 27.3646 24.3591 27.4002C24.3649 27.4358 24.356 27.4723 24.3343 27.5012C24.3345 27.5012 24.2974 27.5554 24.3115 27.6093C24.3274 27.6689 24.4018 27.7148 24.4611 27.7428C24.5724 27.7951 24.7324 27.8288 24.8993 27.8354C24.9044 27.8345 24.9096 27.8353 24.9148 27.8351C25.0554 27.8392 25.1998 27.8255 25.3232 27.78C25.4441 27.7354 25.5244 27.6707 25.5618 27.5877C25.5735 27.5618 25.5979 27.5081 25.4939 27.3867C25.4532 27.3392 25.4514 27.27 25.4893 27.2203C25.4895 27.22 25.5775 27.0988 25.5232 27.0021C25.4941 26.9503 25.503 26.8856 25.5449 26.8438C25.5526 26.8353 25.6347 26.7387 25.5697 26.5653C25.551 26.5154 25.5641 26.4592 25.6029 26.4227C25.6077 26.4179 25.7273 26.2935 25.7246 26.1043C25.7084 26.0846 25.6922 26.0647 25.6765 26.0449C25.4206 26.1534 25.1069 26.2181 24.7487 26.2181Z" fill="#FFD250"/>
<path d="M25.9569 17.0078C25.4226 17.2952 24.2829 18.1963 24.25 20.6631L24.2794 24.8201C24.2829 24.826 24.288 24.8319 24.2909 24.8376C24.3599 24.9677 24.3272 25.1363 24.2886 25.2531C24.6187 25.3711 25.0305 25.3226 25.2069 25.279C25.1717 25.176 25.1438 25.0095 25.2633 24.821C25.2447 19.8636 25.7175 17.7546 25.9569 17.0078Z" fill="#FFD250"/>
<path d="M26.0121 25.3386C26.0121 25.1273 25.8527 24.9628 25.6952 24.9095C25.6626 24.8983 25.5514 24.8674 25.5004 24.9343C25.4049 25.0592 25.4388 25.1475 25.4713 25.233C25.4895 25.2806 25.5082 25.3296 25.4941 25.3857C25.4763 25.4573 25.411 25.4867 25.3896 25.4964C25.2103 25.5778 24.5285 25.6845 24.0574 25.4413C23.9937 25.4082 23.9678 25.3302 23.9994 25.2655C24.0491 25.1636 24.0853 25.0141 24.0576 24.9622C24.0554 24.9579 24.0492 24.946 24.012 24.9411C23.9769 24.9362 23.9419 24.9338 23.9072 24.9338C23.7464 24.9338 23.5972 24.9844 23.5165 25.0707C23.4517 25.1403 23.4314 25.2288 23.4546 25.341C23.5329 25.7192 24.0065 25.9487 24.7213 25.9552C25.227 25.9535 25.6619 25.8341 25.879 25.6188C25.9675 25.5314 26.0121 25.4371 26.0121 25.3386Z" fill="#FFD250"/>
<path d="M24.8737 28.4729C24.9043 28.4326 24.9548 28.4133 25.0046 28.4236C25.0965 28.4429 25.3248 28.4913 25.4558 28.3896C25.5016 28.3545 25.512 28.2587 25.4768 28.1962C25.4647 28.1746 25.4281 28.1098 25.2905 28.1625C25.1602 28.2127 24.9732 28.2671 24.8557 28.1614C24.8322 28.1403 24.8174 28.1156 24.806 28.0903C24.7707 28.0873 24.7355 28.0854 24.7009 28.0801C24.6896 28.1092 24.6741 28.1375 24.6475 28.1614C24.5305 28.2669 24.3433 28.2127 24.213 28.1625C24.0758 28.1104 24.0385 28.1747 24.0266 28.1962C23.9915 28.2587 24.0016 28.3545 24.0473 28.3894C24.1786 28.4905 24.4071 28.4427 24.4821 28.4269C24.5308 28.4171 24.5905 28.4339 24.6217 28.4738C24.6526 28.5142 24.6657 28.5667 24.6429 28.612C24.6132 28.6715 24.4838 28.9245 24.3573 29.0825C24.5225 29.3241 24.6656 29.7547 24.3304 30.1378C24.3031 30.1687 24.2606 30.1843 24.2212 30.1825C24.1799 30.1794 24.1422 30.1571 24.1199 30.1222C24.1009 30.0933 24.0337 30.0131 23.9595 29.9986C23.9371 29.9943 23.9018 29.9926 23.8506 30.0275C23.816 30.0515 23.7966 30.1306 23.8258 30.2172C23.8779 30.3721 24.04 30.458 24.2686 30.4474C24.3206 30.4422 24.3768 30.4779 24.3978 30.5305C24.4186 30.5829 24.4039 30.6429 24.361 30.6796L24.1456 30.8644L24.4973 30.95C24.544 30.9613 24.5807 30.9972 24.5935 31.0435C24.5941 31.0457 24.6467 31.2331 24.7518 31.3912C24.8568 31.2331 24.9094 31.0457 24.9099 31.0435C24.9226 30.9972 24.9595 30.9613 25.0061 30.95L25.3579 30.8644L25.1423 30.6796C25.0994 30.643 25.0846 30.5829 25.1054 30.5305C25.1262 30.478 25.1787 30.4428 25.2346 30.4474C25.4606 30.4574 25.6254 30.3721 25.6777 30.217C25.7069 30.1306 25.6875 30.0515 25.6529 30.0275C25.601 29.9923 25.5652 29.994 25.5431 29.9987C25.4665 30.0143 25.3977 30.1 25.3835 30.1221C25.361 30.157 25.3234 30.1794 25.2822 30.1824C25.2393 30.1847 25.2001 30.1689 25.1729 30.1377C24.8379 29.7547 24.9811 29.324 25.1463 29.0824C25.0198 28.9244 24.8904 28.6716 24.8606 28.6119C24.838 28.5671 24.8431 28.513 24.8737 28.4729Z" fill="#FFD250"/>
<path d="M43.473 19.867C43.4024 19.757 43.2617 19.6224 42.9921 19.6049C42.8047 19.5914 42.6545 19.6418 42.5452 19.751C42.4573 19.8386 42.4149 19.9471 42.3948 20.0388C42.2145 19.944 41.9261 19.7327 41.6249 19.512C40.7478 18.8692 39.4225 17.8978 38.1217 17.7333C37.0666 17.5992 35.8665 17.8096 35.2066 18.4219C35.2166 18.341 35.2195 18.2868 35.2199 18.2775C35.22 18.2758 35.2186 18.2745 35.2186 18.2726C35.2187 18.2479 35.2119 18.2249 35.1994 18.2043C35.1967 18.1999 35.1938 18.1966 35.1906 18.1925C35.176 18.1734 35.1576 18.157 35.1334 18.148C35.133 18.1478 35.1327 18.1472 35.1322 18.1471H35.1318C35.1069 18.1385 35.0818 18.1398 35.0579 18.1455C35.0533 18.1466 35.0493 18.1473 35.0448 18.1488C35.0218 18.1569 35.0015 18.1705 34.9858 18.19C34.9848 18.1913 34.9829 18.1914 34.9819 18.1928C34.7078 18.5607 34.3317 18.6092 34.1931 18.6137C33.6982 18.0261 33.1753 18.0079 33.1527 18.0074C33.077 18.0124 33.0288 18.0544 33.019 18.1201C32.9983 18.2596 32.9172 18.3978 32.8485 18.4937C32.4125 17.9516 31.7986 18.0059 31.7713 18.0082C31.7288 18.0123 31.6911 18.0367 31.6698 18.0737C31.6487 18.1105 31.6465 18.1553 31.6641 18.1943C31.7428 18.3674 31.6474 18.5181 31.5713 18.6019C30.7129 17.914 30.0524 18.4745 30.0454 18.4806C29.995 18.5248 29.9856 18.6 30.0237 18.6551C30.0877 18.7478 30.0765 18.799 30.0594 18.8336C29.9205 19.115 28.9129 19.2986 28.1583 19.3525C28.1543 19.2464 28.122 19.1407 28.0628 19.0438C27.9692 18.891 27.8212 18.7834 27.6568 18.748C27.4741 18.7083 27.2171 18.7503 27.0533 18.9311C26.8702 19.1324 26.844 19.4438 26.9746 19.8568C27.1789 20.502 27.7922 21.1091 28.1499 21.4215C28.0628 21.3892 27.9764 21.3541 27.8927 21.3138C27.6821 21.2113 27.3295 21.0397 27.069 21.1752C26.9375 21.2431 26.8533 21.4134 26.8687 21.5797C26.8764 21.663 26.923 21.8502 27.1668 21.9697L26.8734 22.7666C26.8578 22.8092 26.8652 22.8571 26.8931 22.893C26.9208 22.9291 26.9651 22.9486 27.0107 22.9436L27.5998 22.8848L27.4698 23.2026C27.4509 23.2491 27.4598 23.3023 27.4929 23.3399C27.526 23.3774 27.5763 23.3941 27.6261 23.3803L28.2656 23.211C28.4309 23.5504 28.6512 23.6691 28.6615 23.6744C28.6941 23.6917 28.7316 23.6942 28.7658 23.6823C28.8002 23.6705 28.8283 23.645 28.8433 23.6119L28.9451 23.3863C29.0508 23.5341 29.165 23.6322 29.2356 23.6863C29.1926 23.7218 29.1502 23.7568 29.1036 23.7947C28.6596 24.156 28.0515 24.651 27.6144 25.4972C27.3948 25.9221 27.2238 26.5704 27.2749 27.2598C26.9566 26.9922 26.3564 26.4615 25.9145 25.9182C25.9677 25.8819 26.0242 25.8476 26.067 25.8054C26.2052 25.6687 26.2781 25.5067 26.2781 25.3376C26.2781 24.9862 26.0207 24.7389 25.7817 24.6581C25.6927 24.6281 25.607 24.6236 25.5291 24.6369C25.5214 18.8772 26.1774 17.1139 26.3106 16.817C26.3316 16.77 26.3235 16.7149 26.2896 16.6761C26.2559 16.6374 26.2022 16.6217 26.1528 16.6362C26.0663 16.6616 24.0324 17.297 23.9876 20.6622L24.0159 24.677C23.7399 24.6479 23.4778 24.7264 23.3251 24.8894C23.2384 24.9822 23.146 25.1449 23.1974 25.3939C23.2658 25.7243 23.5323 25.9681 23.9413 26.1021C23.9301 26.1455 23.9263 26.1945 23.9318 26.2494C23.9381 26.3139 23.9582 26.3938 23.9955 26.463C23.9456 26.5225 23.8966 26.6076 23.8941 26.7124C23.8917 26.8133 23.9319 26.9082 24.0138 26.995C23.9815 27.0602 23.9532 27.1484 23.9656 27.2462C23.9732 27.3044 23.9977 27.3816 24.0666 27.4563C24.0472 27.5139 24.0352 27.5893 24.056 27.6722C24.0772 27.7579 24.1304 27.8315 24.2094 27.8944C24.007 27.8569 23.8649 27.9482 23.7984 28.067C23.6984 28.2452 23.7389 28.484 23.8886 28.5992C24.0106 28.6929 24.1556 28.7229 24.2877 28.716C24.2204 28.8298 24.1493 28.9351 24.1046 28.9701C24.0755 28.9926 24.057 29.0262 24.054 29.0629C24.0508 29.0995 24.063 29.1358 24.0877 29.1631C24.1015 29.1784 24.3897 29.5031 24.2181 29.8405C24.1651 29.7969 24.0964 29.7562 24.0148 29.7396C23.9086 29.718 23.8012 29.7425 23.7034 29.8096C23.5639 29.9053 23.512 30.1075 23.5775 30.3013C23.6276 30.4499 23.7525 30.6021 23.9656 30.6723L23.7802 30.8313C23.7425 30.8635 23.7262 30.9143 23.7377 30.9625C23.7492 31.0106 23.7867 31.0483 23.8349 31.06L24.3651 31.1892C24.4057 31.3057 24.4986 31.5306 24.6537 31.6858C24.6785 31.7106 24.7256 31.7245 24.7608 31.7245C24.7959 31.7245 24.8294 31.7106 24.8542 31.6858C25.0094 31.5306 25.1024 31.3057 25.1429 31.1892L25.6731 31.06C25.7212 31.0483 25.7587 31.0107 25.7702 30.9625C25.7818 30.9141 25.7652 30.8635 25.7277 30.8313L25.5423 30.6723C25.7554 30.6019 25.8805 30.4498 25.9305 30.3013C25.9959 30.1074 25.9441 29.9051 25.8045 29.8096C25.7066 29.7423 25.5986 29.7182 25.4931 29.7396C25.4115 29.7561 25.3431 29.7967 25.2899 29.8403C25.1211 29.5047 25.4069 29.178 25.4207 29.1627C25.4451 29.1354 25.4572 29.0991 25.4539 29.0627C25.4507 29.0261 25.4323 28.9925 25.4035 28.9701C25.3589 28.9353 25.2881 28.8302 25.2208 28.7164C25.3528 28.7175 25.4971 28.6935 25.6195 28.599C25.6464 28.5784 25.6654 28.5501 25.6851 28.5226C25.6944 29.1026 26.062 29.3321 26.0779 29.3418C26.1405 29.3791 26.2209 29.3593 26.2586 29.2971C26.2898 29.2463 26.3083 29.2366 26.3079 29.236C26.3544 29.2385 26.4848 29.3758 26.5801 29.4759C26.7356 29.6395 26.9293 29.8433 27.1957 30.0209C27.3909 30.1511 27.5755 30.2024 27.745 30.2024C28.2208 30.2024 28.5772 29.8009 28.7292 29.5947C29.0255 29.7805 29.3614 29.9419 29.7444 30.0727C29.7575 30.0772 29.7708 30.079 29.784 30.0793C29.8297 30.2276 29.8796 30.3769 29.9312 30.525C30.0965 30.9993 30.2674 31.4899 30.2002 31.8624C30.1134 32.3451 29.3496 32.35 28.9571 32.2839C28.6778 32.2384 28.4188 32.3099 28.2286 32.4872C28.0385 32.6648 27.9405 32.9332 27.9671 33.2053C27.9856 33.3955 28.0808 33.4849 28.1576 33.5264C28.334 33.6212 28.5725 33.5503 28.7021 33.4973C28.9996 33.7565 29.3555 33.6477 29.5708 33.5108C29.7032 33.6214 29.8509 33.6794 30.0107 33.683C30.016 33.6832 30.0212 33.6832 30.0266 33.6832C30.2682 33.6832 30.4714 33.556 30.5731 33.4782C31.0849 33.6853 31.3775 33.5309 31.4288 33.4992C31.8443 33.1486 31.776 32.5186 31.7218 32.2447C32.5758 31.9861 32.851 31.2439 32.8629 31.211C32.8794 31.1647 32.8689 31.113 32.8357 31.0768C32.8022 31.0408 32.7511 31.0262 32.7041 31.0388C32.4408 31.1095 32.2329 31.0614 32.1339 30.9064C31.9998 30.6967 32.0867 30.3536 32.3554 30.0327C32.4117 29.9653 32.465 29.8908 32.5172 29.8131C33.1771 29.6656 33.7408 29.4089 34.3376 29.1368C34.8315 28.9116 35.3425 28.6786 35.9497 28.4882C36.1199 28.4348 36.2853 28.4035 36.4484 28.3823C36.3991 29.0982 36.7663 29.5699 37.1269 30.0237C37.2266 30.1489 37.3262 30.274 37.4164 30.4046C37.8031 30.9647 37.7289 32.1389 37.6976 32.2449C37.6701 32.3051 37.4109 32.569 37.0435 32.5186C36.7383 32.478 36.3966 32.5786 36.1726 32.7747C36.0128 32.9145 35.9248 33.0944 35.9248 33.2809C35.9248 33.4399 36.0012 33.5188 36.0654 33.5571C36.2568 33.6708 36.5735 33.5492 36.7433 33.4679C36.9019 33.5905 37.0647 33.6357 37.2152 33.6357C37.4024 33.6357 37.5707 33.566 37.6888 33.4886C38.0431 33.7124 38.4142 33.5814 38.621 33.4403C38.8802 33.5809 39.0885 33.5531 39.2227 33.5002C39.2664 33.4832 39.3062 33.4615 39.3425 33.4371C39.3478 33.4426 39.3527 33.4501 39.3582 33.4547C39.4988 33.5757 39.759 33.5113 39.9255 33.4509C40.0013 33.5763 40.1015 33.6329 40.1807 33.6581C40.4254 33.736 40.7063 33.6019 40.8477 33.5182C41.0193 33.6508 41.1897 33.7066 41.36 33.6827C41.5102 33.6619 41.6235 33.5812 41.6965 33.5105C41.7743 33.5665 41.8925 33.6354 42.052 33.6858C42.1224 33.7083 42.1844 33.7172 42.2387 33.7172C42.4228 33.7172 42.5189 33.6123 42.5566 33.5575C42.7095 33.3343 42.6298 32.9565 42.4592 32.7432C42.3585 32.6174 42.2749 32.382 42.3152 32.14C42.3368 32.0109 42.404 31.8306 42.603 31.704C42.962 31.4756 43.1975 31.1665 43.203 30.9166C43.2054 30.8133 43.1662 30.7282 43.0924 30.6766C43.0272 30.631 42.9543 30.6213 42.8837 30.6121C42.7264 30.5913 42.5306 30.5654 42.2813 30.1051C42.0593 29.6949 42.3223 28.9002 42.6011 28.0586C42.7604 27.577 42.9254 27.0791 43.0286 26.5832C43.2843 25.3557 42.668 24.3668 42.4448 24.0589C43.0654 23.4484 43.3257 22.8626 43.2184 22.3165C43.1005 21.7147 42.5394 21.3025 42.0951 21.1323C41.5579 20.9264 40.6577 21.0335 39.7872 21.1378C39.1084 21.219 38.4666 21.2961 38.0811 21.2144C37.9354 21.184 37.8318 21.1207 37.7732 21.0261C37.6714 20.8618 37.726 20.6458 37.7265 20.6435C37.7371 20.6031 37.7278 20.5595 37.7017 20.527C37.6754 20.4945 37.6319 20.4737 37.5935 20.4777C37.3402 20.4879 37.1385 20.629 37.0139 20.7455C37.0066 20.71 37.0055 20.6736 37.0106 20.6359C37.0449 20.3819 37.3374 20.1599 37.3402 20.1578C37.3752 20.1315 37.3951 20.0894 37.393 20.0456C37.3909 20.0018 37.3673 19.962 37.3298 19.9391C36.7915 19.6113 36.289 19.8541 36.0317 20.0821C35.923 19.9757 35.8575 19.8128 35.8626 19.6488C35.8658 19.5411 35.9039 19.3432 36.1191 19.2288C36.2165 19.1769 36.3002 19.1656 36.3761 19.1935C36.503 19.2408 36.5874 19.3968 36.6093 19.4532C36.6231 19.4892 36.6525 19.5176 36.6889 19.5302C36.7254 19.5435 36.7659 19.5395 36.7992 19.5199C37.0938 19.348 37.1881 18.987 37.218 18.7867C37.3912 18.8149 37.5233 18.8885 37.6193 19.0095C37.8887 19.3492 37.7785 19.9474 37.7774 19.9535C37.7688 19.9982 37.784 20.0441 37.8172 20.0752C37.8504 20.1061 37.8974 20.1177 37.9414 20.1061C38.5394 19.9459 38.7309 19.4602 38.7603 19.1012C39.2177 19.386 39.1865 19.975 39.1848 20.0026C39.1818 20.0481 39.2024 20.092 39.2392 20.1184C39.2762 20.1451 39.324 20.1508 39.3662 20.134C39.585 20.0452 39.7061 19.9008 39.7733 19.7675C40.1896 20.3134 40.7683 20.5028 40.7961 20.5119C40.8451 20.5268 40.8984 20.5133 40.9334 20.4754C40.9682 20.4376 40.978 20.383 40.9584 20.3355L40.8292 20.0223C40.9344 20.0965 41.0356 20.1745 41.1397 20.2547C41.4157 20.467 41.7009 20.6866 42.1124 20.88C42.5751 21.0973 42.9048 21.0486 43.1006 20.9702C43.2958 20.8912 43.4506 20.7439 43.5145 20.5761C43.5891 20.3807 43.6173 20.0915 43.473 19.867ZM43.2675 20.4826C43.2394 20.5564 43.1529 20.6642 43.0014 20.7254C42.8554 20.7845 42.6015 20.8182 42.225 20.6412C41.8394 20.46 41.5656 20.2494 41.3011 20.0457C41.0816 19.8767 40.8743 19.7173 40.6126 19.5762C40.5638 19.5498 40.503 19.5569 40.4613 19.5944C40.4198 19.6317 40.4064 19.6913 40.4278 19.7429L40.585 20.1241C40.3567 19.9938 40.0446 19.761 39.84 19.387C39.8111 19.334 39.7504 19.3075 39.6913 19.3223C39.6328 19.3373 39.5919 19.39 39.5919 19.4504C39.5919 19.4527 39.5896 19.6367 39.4394 19.78C39.3939 19.4279 39.201 18.955 38.6705 18.7677C38.6269 18.7518 38.5795 18.7606 38.5438 18.7889C38.5082 18.8175 38.4898 18.8625 38.4951 18.9078C38.4983 18.9352 38.5617 19.5243 38.0618 19.7795C38.0753 19.5326 38.0539 19.1337 37.8268 18.8465C37.6608 18.6365 37.4179 18.5235 37.1049 18.5106C37.0709 18.5068 37.0351 18.5219 37.0092 18.5461C36.9832 18.5702 36.9683 18.6037 36.9672 18.6391C36.9672 18.6432 36.9519 18.9975 36.7721 19.2028C36.7098 19.1097 36.6108 18.9999 36.4698 18.9468C36.3216 18.8908 36.1616 18.9072 35.9949 18.9956C35.7516 19.1248 35.6068 19.36 35.5979 19.6406C35.5887 19.9378 35.7357 20.2241 35.973 20.37C36.0274 20.4029 36.0981 20.3927 36.1411 20.345C36.1585 20.3254 36.5355 19.9131 37.0274 20.0858C36.9149 20.2038 36.7776 20.3868 36.7485 20.5994C36.7258 20.7638 36.7693 20.918 36.8774 21.0578C36.9027 21.0907 36.9323 21.1068 36.9845 21.1089C37.0261 21.1082 37.0651 21.0876 37.0894 21.0536C37.0912 21.0512 37.2347 20.8544 37.4472 20.7745C37.4463 20.887 37.4661 21.0311 37.5469 21.1629C37.6448 21.3225 37.8061 21.427 38.0267 21.4733C38.4545 21.5627 39.1172 21.4837 39.8183 21.4004C40.6575 21.3006 41.5249 21.197 42.0003 21.3793C42.3817 21.5254 42.8618 21.8718 42.959 22.3676C43.0524 22.843 42.7893 23.3753 42.1775 23.9492C42.1263 23.9971 42.1216 24.0769 42.1667 24.1305C42.1754 24.141 43.0472 25.198 42.7698 26.5293C42.6697 27.0105 42.5072 27.5012 42.35 27.9755C42.04 28.9119 41.7724 29.7205 42.049 30.2311C42.3624 30.8098 42.6671 30.85 42.8491 30.8741C42.8846 30.8787 42.9287 30.8845 42.9364 30.8882C42.9626 30.9416 42.8693 31.2213 42.4613 31.481C42.2387 31.6228 42.0979 31.8356 42.0546 32.0966C42.0074 32.3801 42.0851 32.6989 42.2527 32.9083C42.3806 33.068 42.4041 33.3123 42.3386 33.4078C42.3257 33.4263 42.2866 33.4823 42.1314 33.4337C41.8948 33.3588 41.7792 33.2369 41.7789 33.2365C41.751 33.2059 41.7108 33.191 41.6687 33.1932C41.6272 33.197 41.59 33.2201 41.5683 33.2553C41.5673 33.2568 41.4753 33.3998 41.3235 33.4208C41.2101 33.4362 41.084 33.3813 40.9475 33.2567C40.9015 33.2146 40.8326 33.2108 40.7815 33.2466C40.6994 33.3049 40.4272 33.4581 40.2608 33.4061C40.2369 33.3984 40.164 33.3749 40.1172 33.2377C40.105 33.2025 40.0785 33.174 40.0442 33.1593C40.01 33.1447 39.9713 33.1449 39.9372 33.1605C39.7767 33.2334 39.5751 33.2792 39.5363 33.2617C39.5363 33.2617 39.53 33.2417 39.5465 33.1853C39.6379 32.8702 40.0099 32.7947 40.256 32.7448C40.3013 32.7356 40.3423 32.7272 40.3766 32.7186C40.4037 32.712 40.4349 32.7057 40.4681 32.6992C40.7105 32.651 41.2148 32.5506 41.1515 31.9165C41.138 31.7832 41.1419 31.6601 41.1453 31.5411C41.1568 31.1504 41.1678 30.7816 40.5539 30.3398C40.3275 30.1766 40.1093 30.0302 39.8996 29.8895C39.4222 29.5689 39.0098 29.2923 38.632 28.9146C37.8524 28.1346 36.9238 27.9061 35.8709 28.2358C35.248 28.4309 34.7296 28.6673 34.2283 28.8961C33.7241 29.1261 33.2408 29.3405 32.7113 29.487C33.1293 28.6925 33.3582 27.6391 33.3111 27.1313C33.3042 27.0587 33.238 27.0046 33.1673 27.0119C33.0946 27.0188 33.0412 27.0831 33.0479 27.1557C33.1019 27.7356 32.7419 29.1594 32.1531 29.8629C31.8091 30.2742 31.7143 30.7396 31.9115 31.0486C32.0341 31.2401 32.242 31.3318 32.5038 31.3343C32.3607 31.5597 32.0645 31.8998 31.5348 32.0211C31.4993 32.0294 31.4688 32.0517 31.4503 32.0833C31.4318 32.1146 31.4273 32.1522 31.4376 32.1872C31.4398 32.1949 31.6584 32.9601 31.2802 33.2826C31.2707 33.288 31.042 33.4039 30.6063 33.2044C30.5569 33.182 30.4983 33.1918 30.4593 33.2298C30.457 33.2316 30.243 33.4323 30.0175 33.4186C29.8941 33.4158 29.7833 33.3603 29.6787 33.2488C29.6306 33.1974 29.5505 33.1932 29.4968 33.2384C29.4812 33.252 29.107 33.5624 28.8293 33.2513C28.7886 33.2057 28.7227 33.1942 28.6692 33.2222C28.5632 33.2776 28.3673 33.3389 28.284 33.2938C28.273 33.2877 28.2394 33.2697 28.2307 33.1796C28.2122 32.9887 28.2792 32.8019 28.4098 32.6801C28.5385 32.56 28.7177 32.5115 28.9144 32.5446C29.6069 32.6602 30.3529 32.5083 30.461 31.909C30.5403 31.4682 30.3578 30.9445 30.1815 30.4377C30.0485 30.0566 29.9113 29.6625 29.9052 29.3431C29.8928 28.6907 30.0325 28.0747 30.0339 28.0684C30.0503 27.9974 30.006 27.9265 29.9348 27.9101C29.8636 27.8928 29.7929 27.9379 29.7765 28.009C29.7703 28.0353 29.6277 28.6619 29.6409 29.3482C29.6437 29.4833 29.6692 29.627 29.7028 29.7733C28.7 29.4028 28.0307 28.8261 27.7196 28.0531C27.3552 27.147 27.5619 26.1752 27.8496 25.618C28.2615 24.8209 28.8213 24.3655 29.2711 23.9993C29.4825 23.8273 29.6718 23.6724 29.8068 23.5106C29.7926 23.7303 29.6057 24.1722 29.4018 24.5261C29.3746 24.5733 29.379 24.6322 29.4131 24.6747C29.4471 24.7172 29.5039 24.7343 29.5556 24.7182C29.6691 24.6828 29.8742 24.5828 30.0247 24.506L30.0671 25.1731C30.0702 25.2224 30.1008 25.266 30.1462 25.2858C30.1918 25.3057 30.2445 25.2984 30.2826 25.2668C30.4607 25.1207 30.6289 24.9257 30.7453 24.7786L30.8768 25.1935C30.8894 25.2334 30.9203 25.2651 30.9601 25.2787C30.9999 25.2922 31.0435 25.2862 31.0779 25.2622C31.2662 25.1319 31.4501 24.9232 31.5649 24.7798L31.8158 25.1798C31.8412 25.2204 31.8867 25.2465 31.9343 25.2415C31.9819 25.2392 32.0248 25.2114 32.0461 25.1685L32.3388 24.583L32.5856 25.2542C32.5994 25.2917 32.6294 25.3208 32.6672 25.3337C32.681 25.3385 32.6954 25.3407 32.7097 25.3407C32.7343 25.3407 32.7589 25.3338 32.7803 25.3205L33.4272 24.9124C33.7691 25.1023 34.2637 25.1814 34.2859 25.1851C34.3258 25.1904 34.3672 25.1788 34.397 25.1507C34.4268 25.1228 34.4419 25.0827 34.4382 25.0421L34.3854 24.4908L34.9583 24.4821C35.0242 24.481 35.0793 24.4315 35.0874 24.3662C35.0955 24.3007 35.054 24.2393 34.9903 24.2223C34.9278 24.2056 34.7845 24.0716 34.6621 23.9344C34.6776 23.9334 34.6848 23.9327 34.6921 23.9321C35.0215 23.9572 40.6132 24.3688 41.8393 23.4769C42.5213 22.981 42.4736 22.5302 42.3844 22.3057C42.2004 21.8421 41.5312 21.5463 40.8639 21.6313C40.5985 21.6653 40.3132 21.7161 40.0176 21.7691C39.1807 21.919 38.2321 22.0889 37.4543 21.8983C37.151 21.824 36.8909 21.7256 36.6614 21.6388C36.273 21.4918 35.9923 21.3854 35.7771 21.5139C35.688 21.5673 35.6233 21.6542 35.5802 21.7813C35.4421 21.6273 35.289 21.3462 35.4912 20.9654C35.5179 20.9153 35.5094 20.8538 35.4704 20.8124C35.4627 20.8041 34.6959 19.9823 35.0567 19.0803C35.3808 18.2703 36.6561 17.8131 38.089 17.9951C39.3219 18.1511 40.614 19.098 41.4689 19.7246C42.0072 20.119 42.2971 20.326 42.4932 20.3516C42.5324 20.3573 42.5711 20.3437 42.6001 20.3171C42.6289 20.2904 42.6442 20.252 42.6422 20.2128C42.642 20.211 42.6339 20.0345 42.733 19.9366C42.787 19.8831 42.866 19.8595 42.9751 19.8677C43.1033 19.8761 43.196 19.9237 43.251 20.0091C43.3361 20.1426 43.3207 20.343 43.2675 20.4826ZM39.1132 33.2595C38.985 33.3036 38.8413 33.2742 38.6842 33.171C38.6349 33.1387 38.5696 33.1433 38.5252 33.1817C38.5093 33.1955 38.1316 33.5144 37.7697 33.2226C37.7204 33.1829 37.6488 33.1842 37.6002 33.2257C37.5609 33.2594 37.2058 33.5456 36.852 33.2144C36.8102 33.1755 36.7485 33.1676 36.6989 33.1946C36.519 33.2917 36.2679 33.371 36.2007 33.3304C36.1896 33.3239 36.1892 33.2884 36.1892 33.2814C36.1892 33.1414 36.2748 33.0369 36.3466 32.9741C36.5135 32.8282 36.7785 32.7507 37.0087 32.781C37.5093 32.8479 37.8742 32.5045 37.9403 32.3497C37.9988 32.213 38.0954 30.9233 37.6339 30.2551C37.5402 30.1196 37.4372 29.9896 37.3338 29.8597C36.9829 29.4183 36.6543 28.9989 36.7137 28.361C37.3549 28.3475 37.9356 28.5928 38.4448 29.102C38.7113 29.3685 39.0002 29.5892 39.3027 29.8014C39.1854 29.9219 38.9964 30.1495 38.982 30.381C38.975 30.4949 39.0111 30.5992 39.0861 30.6827C39.2778 30.8955 39.4973 30.8856 39.6423 30.8785C39.6673 30.8771 39.7008 30.8752 39.7253 30.877C39.6884 30.9667 39.5514 31.1539 39.4565 31.2831C39.1944 31.6406 39.0249 31.8894 39.0537 32.0821C39.0735 32.2135 39.1252 32.4117 39.1752 32.6035C39.2228 32.7862 39.2948 33.0625 39.2915 33.1159C39.2846 33.1364 39.2252 33.2206 39.1132 33.2595ZM39.6696 31.4393C39.9236 31.0927 40.0526 30.905 39.9779 30.7557C39.9013 30.6023 39.7446 30.6089 39.63 30.6148C39.5069 30.6207 39.3903 30.6258 39.2825 30.5061C39.2545 30.475 39.2431 30.4416 39.2457 30.3979C39.2549 30.2469 39.4252 30.051 39.5232 29.9549C39.5991 30.0064 39.6745 30.0579 39.7519 30.1098C39.9595 30.2491 40.1752 30.3939 40.399 30.555C40.8989 30.915 40.8916 31.1614 40.8808 31.5342C40.8771 31.6557 40.8731 31.7934 40.8883 31.9437C40.9249 32.3107 40.7156 32.3813 40.4163 32.4408C40.3785 32.4483 40.3432 32.4554 40.312 32.4632C40.281 32.4709 40.244 32.4785 40.203 32.4869C40.0121 32.5255 39.7069 32.5909 39.4947 32.7887C39.4772 32.7171 39.4559 32.6342 39.4306 32.5374C39.3824 32.3522 39.3325 32.1609 39.3147 32.0434C39.3002 31.9436 39.5406 31.6157 39.6696 31.4393ZM26.2812 28.9739C26.2263 28.9797 26.1764 29.0019 26.1308 29.0414C26.0526 28.9543 25.9481 28.7848 25.9481 28.5022C25.9481 28.0821 25.8292 27.8732 25.7536 27.7821C25.7725 27.755 25.7907 27.7276 25.8042 27.6976C25.863 27.5672 25.8463 27.4314 25.7545 27.2927C25.7974 27.2031 25.827 27.0804 25.7902 26.9567C25.8437 26.8659 25.8851 26.7241 25.8424 26.5506C25.8755 26.5072 25.9162 26.4429 25.9472 26.362C26.5545 27.0332 27.2796 27.6076 27.3286 27.6462C27.3629 27.8153 27.4068 27.9848 27.4742 28.1526C27.6806 28.6658 28.0302 29.0966 28.5104 29.447C28.2853 29.7527 27.8641 30.1499 27.3428 29.8018C27.1009 29.6406 26.9185 29.4487 26.7721 29.2946C26.5848 29.0979 26.4479 28.9552 26.2812 28.9739ZM25.1756 30.1383C25.2027 30.1697 25.242 30.1853 25.2849 30.1831C25.3262 30.1799 25.3639 30.1577 25.3861 30.1227C25.4005 30.1007 25.4693 30.0148 25.5458 29.9994C25.5678 29.9945 25.6035 29.9928 25.6556 30.0282C25.6902 30.0521 25.7096 30.1312 25.6804 30.2176C25.6281 30.3727 25.4633 30.4581 25.2373 30.448C25.1814 30.4434 25.1289 30.4786 25.1081 30.5311C25.0873 30.5836 25.1021 30.6436 25.1449 30.6802L25.3606 30.865L25.0088 30.9506C24.9621 30.962 24.9254 30.9978 24.9126 31.0441C24.912 31.0463 24.8595 31.2337 24.7545 31.3918C24.6493 31.2337 24.5968 31.0463 24.5962 31.0441C24.5835 30.9978 24.5466 30.962 24.5 30.9506L24.1483 30.865L24.3637 30.6802C24.4066 30.6434 24.4213 30.5836 24.4005 30.5311C24.3795 30.4787 24.3233 30.4428 24.2713 30.448C24.0426 30.4586 23.8806 30.3727 23.8284 30.2178C23.7992 30.1313 23.8187 30.0521 23.8532 30.0282C23.9043 29.9932 23.9398 29.995 23.9622 29.9993C24.0363 30.0137 24.1035 30.0939 24.1226 30.1228C24.145 30.1578 24.1826 30.1801 24.2238 30.1832C24.2633 30.1849 24.3058 30.1694 24.3331 30.1384C24.6683 29.7554 24.5251 29.3248 24.36 29.0832C24.4864 28.9252 24.6158 28.6723 24.6456 28.6127C24.6684 28.5674 24.6552 28.5147 24.6243 28.4745C24.5932 28.4346 24.5335 28.4176 24.4848 28.4275C24.4098 28.4433 24.1813 28.4912 24.05 28.39C24.0044 28.355 23.9944 28.2591 24.0293 28.1968C24.0411 28.1753 24.0785 28.111 24.2156 28.1631C24.346 28.2133 24.5333 28.2675 24.6502 28.1621C24.6769 28.1381 24.6923 28.1098 24.7035 28.0807C24.7382 28.086 24.7734 28.0879 24.8087 28.091C24.82 28.1164 24.8349 28.141 24.8584 28.1621C24.976 28.2676 25.1629 28.2133 25.2932 28.1631C25.4308 28.1104 25.4675 28.1754 25.4795 28.1968C25.5147 28.2593 25.5043 28.3551 25.4585 28.3903C25.3274 28.4918 25.099 28.4434 25.0072 28.4243C24.9575 28.4139 24.9071 28.4335 24.8764 28.4736C24.8458 28.5136 24.8406 28.5676 24.8631 28.6129C24.8929 28.6723 25.0223 28.9253 25.1487 29.0834C24.9837 29.3247 24.8406 29.7554 25.1756 30.1383ZM25.6042 26.4239C25.5653 26.4604 25.5523 26.5167 25.571 26.5666C25.6361 26.7401 25.554 26.8365 25.5462 26.8451C25.5042 26.8869 25.4954 26.9515 25.5245 27.0034C25.5789 27.1001 25.4908 27.2212 25.4905 27.2215C25.4527 27.2713 25.4545 27.3404 25.4951 27.388C25.599 27.5092 25.5747 27.563 25.5631 27.5889C25.5258 27.6719 25.4454 27.7366 25.3244 27.7812C25.2009 27.8268 25.0566 27.8404 24.916 27.8363C24.9109 27.8365 24.9057 27.8357 24.9006 27.8366C24.7338 27.8299 24.5736 27.7963 24.4624 27.744C24.403 27.7161 24.3287 27.6702 24.3128 27.6105C24.2985 27.5566 24.3357 27.5024 24.3356 27.5024C24.3572 27.4735 24.3661 27.437 24.3604 27.4014C24.3543 27.3658 24.3341 27.3341 24.3042 27.3138C24.2354 27.2671 24.2299 27.2271 24.2281 27.214C24.2197 27.1523 24.2682 27.0788 24.2853 27.0587C24.3095 27.0309 24.321 26.9944 24.3173 26.9578C24.3135 26.9213 24.2945 26.888 24.2652 26.8659C24.2248 26.8356 24.1576 26.7765 24.1585 26.7197C24.1594 26.6612 24.2265 26.6012 24.249 26.5855C24.2842 26.5616 24.3024 26.52 24.3035 26.4776C24.3047 26.4351 24.2822 26.3922 24.2485 26.3665C24.2141 26.3401 24.1815 26.2119 24.1968 26.1676C24.3569 26.1985 24.5305 26.2174 24.7206 26.2191C24.7304 26.2191 24.7403 26.2193 24.75 26.2193C25.1082 26.2193 25.4218 26.1547 25.6774 26.0462C25.6932 26.066 25.7094 26.0858 25.7255 26.1055C25.7285 26.2947 25.609 26.4192 25.6042 26.4239ZM24.7233 25.9548C24.0084 25.9483 23.5348 25.7187 23.4566 25.3406C23.4333 25.2282 23.4536 25.1398 23.5185 25.0704C23.5991 24.984 23.7484 24.9335 23.9092 24.9335C23.9438 24.9335 23.9789 24.9358 24.014 24.9407C24.0512 24.9457 24.0573 24.9575 24.0596 24.9618C24.0873 25.0137 24.0512 25.1632 24.0014 25.2651C23.9697 25.3298 23.9955 25.4079 24.0594 25.441C24.5305 25.684 25.2122 25.5774 25.3915 25.4961C25.4131 25.4863 25.4782 25.4568 25.4961 25.3853C25.5103 25.3292 25.4915 25.2801 25.4733 25.2328C25.4407 25.1472 25.4069 25.059 25.5024 24.934C25.5533 24.8672 25.6645 24.898 25.6972 24.9092C25.8548 24.9626 26.0141 25.127 26.0141 25.3383C26.0141 25.4367 25.9694 25.531 25.8811 25.6186C25.6639 25.8338 25.2289 25.9531 24.7233 25.9548ZM25.209 25.2793C25.0326 25.323 24.6208 25.3715 24.2906 25.2534C24.3293 25.1366 24.3621 24.9679 24.293 24.8379C24.29 24.8323 24.285 24.8262 24.2815 24.8204L24.2521 20.6634C24.285 18.1965 25.4245 17.2954 25.959 17.0081C25.7195 17.7549 25.2468 19.8637 25.2653 24.8212C25.1459 25.0097 25.1738 25.1762 25.209 25.2793ZM28.8117 23.0409L28.6731 23.3474C28.6093 23.2801 28.5292 23.1716 28.464 23.0064C28.4394 22.9441 28.3725 22.9092 28.3072 22.9273L27.815 23.0576L27.9276 22.7822C27.9452 22.7392 27.939 22.6903 27.9111 22.6531C27.8837 22.6158 27.8373 22.5949 27.7923 22.6007L27.1946 22.6603L27.4164 22.0578C27.6803 22.1348 28.3333 22.3112 29.0039 22.3809L28.9062 22.5026C28.8709 22.5467 28.8675 22.6079 28.8972 22.6556C28.9272 22.7033 28.984 22.7268 29.0388 22.7141C29.0458 22.7127 29.7554 22.5518 30.2384 22.6207C30.2932 22.6273 30.3466 22.6013 30.3731 22.5532C30.3995 22.5049 30.3932 22.4451 30.3571 22.4035C30.0751 22.0773 29.3172 21.1668 29.1975 20.8759C29.1749 20.8211 29.1183 20.7899 29.0599 20.7949C29.0011 20.8019 28.954 20.8471 28.9448 20.9056L28.8785 21.3284C28.7775 21.2615 28.6432 21.152 28.5305 20.9901C28.4982 20.9436 28.4402 20.9226 28.3858 20.9387C28.3314 20.9543 28.293 21.0025 28.2901 21.059C28.2894 21.0718 28.2872 21.1232 28.2903 21.1927C27.9501 20.89 27.4039 20.3379 27.2265 19.7775C27.1276 19.4652 27.1353 19.2344 27.2488 19.1094C27.3481 19.0005 27.5144 18.9886 27.6015 19.0071C27.6941 19.0269 27.7823 19.0925 27.8373 19.1824C27.8912 19.2706 27.9074 19.369 27.8831 19.4604C27.8723 19.5011 27.8814 19.5447 27.9081 19.5775C27.9346 19.6104 27.9761 19.6294 28.0174 19.6263C28.3505 19.6098 30.0257 19.4995 30.2965 18.9508C30.3343 18.874 30.3607 18.7604 30.3048 18.6215C30.482 18.5203 30.9198 18.3703 31.487 18.8771C31.5333 18.9186 31.6026 18.9219 31.6534 18.885C31.784 18.789 31.9804 18.5583 31.9562 18.2775C32.1537 18.3023 32.4936 18.4023 32.7292 18.7821C32.7509 18.8169 32.7872 18.8395 32.8278 18.8438C32.8682 18.8478 32.9085 18.8334 32.9369 18.804C32.9474 18.7931 33.1618 18.5673 33.2504 18.2882C33.4081 18.325 33.7209 18.4436 34.0266 18.8277C34.0494 18.8565 34.0831 18.8744 34.1197 18.8773C34.1326 18.8775 34.3009 18.8876 34.5181 18.824C33.8508 19.3616 32.7663 19.4716 32.7521 19.4729C32.7034 19.4775 32.6613 19.5086 32.6424 19.5536C32.6236 19.5986 32.6312 19.6507 32.6622 19.6883L32.8505 19.9177C32.1039 19.9316 31.7751 19.6615 31.7722 19.659C31.7238 19.617 31.6527 19.616 31.6026 19.6552C31.5527 19.6953 31.5387 19.7652 31.5691 19.8215L31.7327 20.1236C31.4392 20.0622 31.1699 19.9253 30.9441 19.8101C30.6598 19.6653 30.4349 19.5513 30.2378 19.6098C30.0905 19.6539 29.9832 19.7869 29.9575 19.957C29.9298 20.1424 30.0054 20.3194 30.1547 20.4189C30.2308 20.4697 30.3175 20.4945 30.4047 20.4945C30.5278 20.4945 30.6523 20.4452 30.7501 20.3498C30.83 20.2718 30.8779 20.1771 30.892 20.08C31.1897 20.2307 31.552 20.4011 31.9658 20.4189C32.0123 20.4246 32.0584 20.3973 32.0835 20.357C32.1088 20.3167 32.1104 20.2658 32.0876 20.224L32.0012 20.0645C32.2509 20.1487 32.6217 20.2159 33.1297 20.1652C33.1782 20.1603 33.22 20.1295 33.2388 20.0844C33.2573 20.0393 33.2496 19.9877 33.2188 19.95L33.0164 19.7032C33.4312 19.6342 34.2824 19.4339 34.8196 18.913C34.7313 19.1565 34.5872 19.4075 34.3498 19.5449C34.3166 19.5642 34.2937 19.5973 34.2864 19.6351C34.2794 19.6729 34.2894 19.7124 34.3133 19.7425C34.3178 19.7481 34.7453 20.3061 34.612 21.7645C34.3675 21.6388 33.8975 21.3402 33.6316 20.8011C33.6034 20.744 33.5393 20.7156 33.4765 20.7326C33.415 20.7503 33.3752 20.8095 33.3816 20.8732C33.3993 21.0445 33.4137 21.3183 33.3981 21.511C33.2554 21.4087 33.0554 21.2414 32.9729 21.0586C32.9496 21.0067 32.8959 20.9744 32.8396 20.9815C32.7831 20.987 32.7366 21.0278 32.7237 21.083C32.6903 21.2268 32.6458 21.3935 32.6096 21.5066C32.478 21.4242 32.3033 21.2939 32.2307 21.16C32.2026 21.1082 32.1439 21.081 32.0856 21.0941C32.028 21.1068 31.986 21.1566 31.9826 21.2156C31.974 21.3685 31.9538 21.6045 31.9281 21.7675C31.8066 21.6931 31.6357 21.5807 31.5095 21.4665C31.4752 21.4355 31.4272 21.424 31.3832 21.4377C31.3391 21.4508 31.3049 21.486 31.293 21.5307L31.2252 21.7883C31.1116 21.7223 30.9542 21.6173 30.8513 21.4916C30.8052 21.435 30.7218 21.4267 30.6655 21.473C30.609 21.5191 30.6007 21.6024 30.647 21.6588C30.8623 21.9218 31.24 22.0956 31.2561 22.1028C31.2917 22.1187 31.3319 22.1183 31.3674 22.1019C31.4026 22.0852 31.4286 22.0538 31.4386 22.0161L31.4966 21.7957C31.7108 21.9551 31.9401 22.0809 31.9522 22.0875C31.9854 22.1053 32.0246 22.1082 32.0603 22.0959C32.0959 22.083 32.1242 22.0555 32.1382 22.0206C32.1769 21.9237 32.2041 21.725 32.2216 21.5489C32.4021 21.7057 32.6046 21.8082 32.6172 21.8144C32.6791 21.8453 32.7538 21.8234 32.7897 21.7642C32.827 21.7017 32.8713 21.5618 32.9084 21.4289C33.1224 21.6699 33.4101 21.8351 33.426 21.8443C33.4592 21.8631 33.4995 21.8663 33.5359 21.8538C33.5723 21.8407 33.601 21.8125 33.6147 21.7763C33.6546 21.6716 33.6679 21.5058 33.6691 21.3429C33.9208 21.6504 34.212 21.8462 34.4179 21.9597C34.4179 21.963 34.4164 21.9658 34.4166 21.9691C34.418 21.9924 34.4469 22.4347 34.5227 22.7875C34.3009 22.7053 33.9443 22.5381 33.6149 22.2279C33.5833 22.1979 33.5386 22.1859 33.4962 22.195C33.4535 22.2043 33.4183 22.234 33.4019 22.2743L33.3001 22.5254L32.8751 22.2171C32.8376 22.1899 32.7883 22.1841 32.7451 22.2027C32.7022 22.2212 32.6724 22.2607 32.6663 22.307L32.6279 22.6017C32.5355 22.5348 32.4247 22.4464 32.3456 22.3574C32.2968 22.3025 32.213 22.2979 32.1591 22.3464C32.1046 22.3949 32.0996 22.4784 32.148 22.5329C32.3353 22.7434 32.6494 22.9354 32.6627 22.9434C32.7011 22.9671 32.7483 22.9688 32.7885 22.9496C32.8289 22.9302 32.8565 22.892 32.8625 22.8475L32.8997 22.5614L33.2815 22.8384C33.3142 22.8622 33.3564 22.8693 33.3954 22.8584C33.4347 22.8471 33.4663 22.8186 33.4816 22.7811L33.5768 22.5461C33.8214 22.7471 34.0645 22.8791 34.2623 22.9663C34.2633 23.0485 34.2762 23.3985 34.4239 23.6746C34.1818 23.6682 33.8024 23.6257 33.4511 23.45C33.3917 23.4197 33.3181 23.4395 33.2813 23.4963L33.0898 23.7912L32.2983 23.2601C32.2647 23.2373 32.2222 23.231 32.1839 23.2443C32.1453 23.2567 32.1146 23.2863 32.1006 23.3243L31.9789 23.6556C31.8332 23.4922 31.6243 23.2621 31.5474 23.2006C31.4935 23.1572 31.415 23.1632 31.368 23.214C31.3657 23.2164 31.1809 23.4144 30.9595 23.5683L30.8069 23.1587C30.7815 23.0906 30.7051 23.0554 30.6369 23.0808C30.5685 23.1062 30.5337 23.1826 30.5591 23.2508L30.7684 23.8125C30.7818 23.8486 30.8104 23.877 30.8465 23.8903C30.8825 23.9036 30.9227 23.9007 30.9564 23.8819C31.1635 23.767 31.357 23.5954 31.4673 23.4891C31.5898 23.6156 31.7957 23.8462 31.9269 23.9965C31.9577 24.0317 32.0044 24.0485 32.0504 24.0395C32.0963 24.0311 32.1344 23.9991 32.1505 23.9552L32.2907 23.5734L33.054 24.0855C33.076 24.1002 33.1017 24.108 33.1276 24.108C33.1363 24.108 33.1453 24.1071 33.1541 24.1051C33.1889 24.0981 33.2192 24.0774 33.2384 24.0477L33.4402 23.7364C33.7795 23.8829 34.1187 23.9262 34.3622 23.9366C34.3608 23.968 34.3693 24.0001 34.3909 24.0263C34.4231 24.0658 34.4889 24.1434 34.5683 24.2241L34.2378 24.2291C34.201 24.2297 34.166 24.2456 34.1415 24.2731C34.1169 24.3005 34.1049 24.3369 34.1083 24.3738L34.1576 24.8911C33.9752 24.8502 33.6858 24.7706 33.4974 24.6472C33.4536 24.6187 33.3981 24.618 33.3544 24.6459L32.7769 25.0103L32.481 24.2055C32.4628 24.1559 32.417 24.1221 32.3643 24.1191C32.3068 24.115 32.2622 24.1448 32.2386 24.1921L31.9143 24.8406L31.687 24.4782C31.6634 24.4407 31.6227 24.4174 31.5784 24.4163C31.5344 24.417 31.4926 24.4362 31.4669 24.4724C31.4647 24.4757 31.2807 24.7354 31.0698 24.9297L30.919 24.4536C30.9037 24.4054 30.8625 24.3702 30.8124 24.3628C30.762 24.3561 30.7126 24.3771 30.6841 24.4189C30.682 24.422 30.5192 24.6586 30.3126 24.8764L30.2753 24.287C30.2725 24.2423 30.2471 24.2018 30.2076 24.1799C30.1684 24.158 30.1205 24.1575 30.081 24.1789C30.0241 24.2093 29.9191 24.2644 29.8091 24.3187C29.9646 23.996 30.1409 23.5425 30.0406 23.309C30.0107 23.2392 29.9545 23.193 29.8872 23.1644C29.883 23.1615 29.8802 23.1573 29.8757 23.1549C29.8695 23.1515 29.8629 23.1513 29.8565 23.149C29.8521 23.1477 29.8491 23.144 29.8444 23.1429C29.8392 23.1417 29.8352 23.1421 29.83 23.141C29.8273 23.1407 29.8247 23.1401 29.8219 23.1399C29.6427 23.1026 29.5205 23.1526 29.45 23.2041C29.3779 23.2568 29.3304 23.3267 29.2992 23.3941C29.2171 23.3148 29.1179 23.1966 29.0538 23.044C29.0336 22.9955 28.9863 22.9636 28.9339 22.963C28.8813 22.9596 28.8336 22.993 28.8117 23.0409ZM27.8068 21.5663C28.5212 21.9106 29.3991 21.9487 29.6391 21.9531C29.7539 22.0958 29.8659 22.232 29.9558 22.3389C29.7362 22.3398 29.5123 22.3646 29.3345 22.3912L29.3658 22.3522C29.3968 22.3136 29.4035 22.261 29.3835 22.2158C29.3636 22.1708 29.3198 22.1405 29.2707 22.1375C28.3736 22.0842 27.3856 21.7724 27.3758 21.769C27.3754 21.7689 27.375 21.769 27.3746 21.7689C27.3746 21.7689 27.3742 21.7686 27.3738 21.7685C27.2266 21.7241 27.1408 21.6484 27.1322 21.5557C27.1256 21.4826 27.1662 21.4231 27.1907 21.4103C27.3333 21.3367 27.6333 21.4821 27.8068 21.5663ZM29.0553 21.6408C29.0838 21.6203 29.1049 21.5909 29.1105 21.5557L29.1491 21.308C29.2283 21.4232 29.3243 21.5508 29.4233 21.6793C29.3211 21.6722 29.1954 21.6601 29.0553 21.6408ZM28.8227 21.6034C28.7582 21.5915 28.6919 21.5775 28.6248 21.5621C28.6308 21.5338 28.6273 21.5035 28.6137 21.4762C28.6099 21.4687 28.6065 21.4607 28.603 21.4525C28.6866 21.5211 28.7639 21.5702 28.8227 21.6034ZM30.5654 20.1608C30.5054 20.22 30.3999 20.2649 30.3013 20.1994C30.2257 20.149 30.2093 20.0616 30.2189 19.9965C30.2266 19.9457 30.2558 19.8805 30.3135 19.8633C30.3245 19.86 30.3371 19.8584 30.3508 19.8584C30.4142 19.8584 30.5046 19.8916 30.6079 19.9388L30.6081 19.9391C30.6751 20.0454 30.5844 20.1424 30.5654 20.1608ZM35.5898 22.1389C35.6276 22.1631 35.6755 22.166 35.7167 22.147C35.7574 22.128 35.7856 22.0891 35.7916 22.0445C35.8136 21.8783 35.8542 21.7763 35.9125 21.7414C36.0178 21.6782 36.2728 21.7749 36.5677 21.8866C36.7924 21.9717 37.0722 22.0775 37.3909 22.1556C38.2228 22.3594 39.2009 22.1844 40.0636 22.0299C40.3551 21.9777 40.6358 21.9275 40.8969 21.8941C41.4427 21.8246 41.9991 22.0531 42.1384 22.4039C42.2435 22.6686 42.0819 22.9741 41.6834 23.2639C40.5786 24.0673 35.2887 23.7105 34.7493 23.6719C34.6059 23.5353 34.5497 23.2556 34.533 23.0714C34.6202 23.0992 34.6787 23.1131 34.6862 23.1147C34.6952 23.1167 34.7043 23.1175 34.7134 23.1175C34.7512 23.1175 34.7878 23.1011 34.8134 23.0719C34.8447 23.0354 34.854 22.9851 34.8375 22.9399C34.7551 22.715 34.7098 22.2995 34.6909 22.0868C34.7259 22.0964 34.7628 22.0929 34.7938 22.0737C34.8282 22.0526 34.851 22.0167 34.8558 21.9766C35.012 20.6491 34.7395 19.9569 34.5966 19.6976C34.6312 19.6712 34.6637 19.6426 34.6946 19.6127C34.7042 20.2401 35.0682 20.7447 35.217 20.9249C34.9513 21.5266 35.3371 21.9787 35.5898 22.1389Z" fill="#464655"/>
<path d="M22.3351 15.3346C22.2838 14.2701 22.0311 12.5484 21.2233 12.5089C20.768 12.4879 20.5437 12.7682 20.5344 12.7802C20.5077 12.8148 20.464 12.8342 20.4216 12.8321L20.1129 12.8135L20.1682 13.0181C20.1815 13.0674 20.1648 13.1205 20.1257 13.1536C20.107 13.1694 19.6704 13.5485 19.9361 14.0313C20.1384 14.3992 20.7924 14.5733 21.2699 14.7002C21.483 14.7571 21.6673 14.8061 21.7868 14.8646C21.9999 14.9688 22.1866 15.1446 22.3351 15.3346Z" fill="#FFD250"/>
<path d="M21.2357 12.2437C20.7711 12.221 20.482 12.4525 20.3733 12.5632L19.9451 12.5375C19.9044 12.5343 19.8617 12.5531 19.8347 12.586C19.8079 12.6189 19.7984 12.6628 19.8094 12.7039L19.8917 13.009C19.6817 13.2232 19.4348 13.6682 19.704 14.1573C19.9606 14.6243 20.6779 14.815 21.2014 14.9545C21.4013 15.0076 21.574 15.0536 21.6705 15.1007C21.98 15.252 22.2287 15.5964 22.3581 15.8683C22.3802 15.915 22.4272 15.9435 22.4774 15.9435C22.4869 15.9435 22.4963 15.9425 22.5059 15.9404C22.566 15.9271 22.6088 15.8741 22.6094 15.8127C22.6108 15.6699 22.6277 12.3116 21.2357 12.2437ZM21.2694 14.6989C20.7919 14.572 20.1379 14.3978 19.9356 14.03C19.67 13.5473 20.1065 13.1682 20.1252 13.1522C20.1642 13.1191 20.1809 13.0662 20.1677 13.0168L20.1125 12.8122L20.4211 12.8308C20.4636 12.833 20.5074 12.8135 20.5339 12.7789C20.5432 12.7668 20.7675 12.4865 21.2228 12.5076C22.0307 12.5471 22.2833 14.2687 22.3346 15.3333C22.1861 15.1434 21.9995 14.9675 21.7863 14.8633C21.6669 14.8047 21.4826 14.7557 21.2694 14.6989Z" fill="#464655"/>
<path d="M44.4238 15.3346C44.4751 14.2701 44.7278 12.5484 45.5356 12.5089C45.9909 12.4879 46.2152 12.7682 46.2245 12.7802C46.2512 12.8148 46.2949 12.8342 46.3373 12.8321L46.646 12.8135L46.5907 13.0181C46.5774 13.0674 46.5941 13.1205 46.6332 13.1536C46.652 13.1694 47.0885 13.5485 46.8229 14.0313C46.6205 14.3992 45.9665 14.5733 45.4891 14.7002C45.2759 14.7571 45.0916 14.8061 44.9721 14.8646C44.759 14.9688 44.5723 15.1446 44.4238 15.3346Z" fill="#FFD250"/>
<path d="M44.1496 15.8127C44.1502 15.8741 44.1931 15.9271 44.2531 15.9404C44.2626 15.9424 44.2721 15.9435 44.2816 15.9435C44.3317 15.9435 44.3787 15.915 44.4008 15.8682C44.5302 15.5964 44.7788 15.252 45.0884 15.1007C45.185 15.0535 45.3575 15.0076 45.5575 14.9545C46.0811 14.8151 46.7982 14.6243 47.0549 14.1573C47.324 13.668 47.0771 13.2231 46.8672 13.009L46.9494 12.7039C46.9605 12.6627 46.9509 12.6188 46.9242 12.586C46.8973 12.5531 46.8544 12.5342 46.8138 12.5375L46.3856 12.5632C46.2769 12.4527 45.9877 12.2212 45.5232 12.2437C44.1314 12.3114 44.1483 15.6697 44.1496 15.8127ZM44.9726 14.863C44.7594 14.9673 44.5727 15.1431 44.4243 15.333C44.4755 14.2684 44.7283 12.5468 45.5361 12.5073C45.9913 12.4863 46.2157 12.7666 46.2249 12.7786C46.2516 12.8132 46.2953 12.8326 46.3377 12.8304L46.6464 12.8119L46.5911 13.0165C46.5779 13.0658 46.5946 13.1188 46.6336 13.1519C46.6524 13.1677 47.0889 13.5468 46.8233 14.0297C46.6209 14.3975 45.9669 14.5716 45.4895 14.6986C45.2765 14.7554 45.0921 14.8045 44.9726 14.863Z" fill="#464655"/>
<path d="M44.4238 35.0137C44.4751 36.0782 44.7278 37.7999 45.5356 37.8394C45.9909 37.8604 46.2152 37.5801 46.2245 37.568C46.2512 37.5334 46.2949 37.514 46.3373 37.5161L46.646 37.5347L46.5907 37.3301C46.5774 37.2808 46.5941 37.2277 46.6332 37.1946C46.652 37.1788 47.0885 36.7997 46.8229 36.3169C46.6205 35.949 45.9665 35.7749 45.4891 35.6479C45.2759 35.5911 45.0916 35.5421 44.9721 35.4836C44.759 35.3796 44.5723 35.2037 44.4238 35.0137Z" fill="#FFD250"/>
<path d="M45.5232 38.1041C45.9878 38.1269 46.2768 37.8953 46.3856 37.7847L46.8138 37.8103C46.8545 37.8136 46.8972 37.7947 46.9242 37.7618C46.951 37.7289 46.9605 37.6851 46.9495 37.6439L46.8672 37.3389C47.0772 37.1246 47.3241 36.6797 47.0549 36.1905C46.7983 35.7235 46.081 35.5328 45.5575 35.3934C45.3576 35.3402 45.1849 35.2942 45.0884 35.2472C44.7789 35.0958 44.5302 34.7515 44.4008 34.4796C44.3787 34.4328 44.3317 34.4043 44.2816 34.4043C44.2721 34.4043 44.2627 34.4054 44.2531 34.4074C44.193 34.4207 44.1502 34.4737 44.1496 34.5352C44.1481 34.6779 44.1312 38.0362 45.5232 38.1041ZM45.4895 35.6489C45.967 35.7759 46.621 35.95 46.8233 36.3179C47.0889 36.8006 46.6524 37.1797 46.6337 37.1956C46.5947 37.2287 46.578 37.2816 46.5912 37.331L46.6464 37.5356L46.3378 37.5171C46.2953 37.5148 46.2515 37.5344 46.225 37.5689C46.2157 37.581 45.9914 37.8613 45.5361 37.8402C44.7282 37.8008 44.4756 36.0791 44.4243 35.0145C44.5728 35.2045 44.7594 35.3804 44.9726 35.4846C45.092 35.5432 45.2763 35.5922 45.4895 35.6489Z" fill="#464655"/>
<path d="M22.3351 35.0137C22.2838 36.0782 22.0311 37.7999 21.2233 37.8394C20.768 37.8604 20.5437 37.5801 20.5344 37.568C20.5077 37.5334 20.464 37.514 20.4216 37.5161L20.1129 37.5347L20.1682 37.3301C20.1815 37.2808 20.1648 37.2277 20.1257 37.1946C20.107 37.1788 19.6704 36.7997 19.9361 36.3169C20.1384 35.949 20.7924 35.7749 21.2699 35.6479C21.483 35.5911 21.6673 35.5421 21.7868 35.4836C21.9999 35.3796 22.1866 35.2037 22.3351 35.0137Z" fill="#FFD250"/>
<path d="M22.6094 34.5332C22.6087 34.4718 22.5658 34.4187 22.5058 34.4055C22.4963 34.4034 22.4868 34.4023 22.4773 34.4023C22.4272 34.4023 22.3803 34.4309 22.358 34.4776C22.2286 34.7495 21.98 35.0938 21.6704 35.2452C21.5738 35.2924 21.4013 35.3383 21.2014 35.3914C20.6777 35.5308 19.9606 35.7216 19.7039 36.1886C19.4348 36.6778 19.6817 37.1228 19.8916 37.3369L19.8094 37.642C19.7983 37.6832 19.8079 37.7271 19.8347 37.7599C19.8615 37.7928 19.9044 37.8117 19.945 37.8084L20.3732 37.7827C20.4819 37.8932 20.7711 38.1247 21.2356 38.1022C22.6276 38.0345 22.6107 34.6762 22.6094 34.5332ZM21.7863 35.483C21.9995 35.3787 22.1862 35.2028 22.3347 35.013C22.2834 36.0775 22.0306 37.7992 21.2228 37.8387C20.7676 37.8597 20.5432 37.5794 20.534 37.5674C20.5073 37.5328 20.4636 37.5134 20.4212 37.5155L20.1125 37.5341L20.1678 37.3295C20.181 37.2802 20.1643 37.2271 20.1253 37.194C20.1065 37.1782 19.67 36.7991 19.9356 36.3163C20.138 35.9484 20.792 35.7743 21.2694 35.6474C21.4825 35.5904 21.6669 35.5414 21.7863 35.483Z" fill="#464655"/>
</g>
<defs>
<clipPath id="clip0_3462_29381">
<rect width="50" height="50" fill="white" transform="translate(0.621094 0.173828)"/>
</clipPath>
</defs>
</svg>
