<svg width="51" height="51" viewBox="0 0 51 51" fill="none" xmlns="http://www.w3.org/2000/svg">
<g clip-path="url(#clip0_3462_29347)">
<path d="M50.0528 41.5536H1.77715C1.30107 41.5536 0.915039 41.1675 0.915039 40.6915V9.65703C0.915039 9.18096 1.30107 8.79492 1.77715 8.79492H50.0529C50.529 8.79492 50.915 9.18096 50.915 9.65703V40.6915C50.9149 41.1676 50.5289 41.5536 50.0528 41.5536Z" fill="#F5F5F5"/>
<path d="M21.3131 31.6342C19.3228 31.1799 17.5485 30.1523 16.1758 28.7324V31.7692C17.6737 32.8618 19.4215 33.6274 21.3131 33.9775V31.6342Z" fill="#FFECD7"/>
<path d="M30.5146 31.6342C32.5049 31.1799 34.2792 30.1523 35.6519 28.7324V31.7692C34.154 32.8618 32.4062 33.6274 30.5146 33.9775V31.6342Z" fill="#FFECD7"/>
<path d="M20.4312 25.0508C20.3354 25.0699 20.2012 25.3191 20.1629 25.7408C20.1245 26.1626 19.8562 27.9452 19.2811 27.7535C18.706 27.5618 18.3227 26.7184 18.3227 26.7184L17.5176 27.8877C17.5176 27.8877 18.0543 27.6768 18.6103 27.9261C19.1662 28.1753 19.3003 28.3095 19.4537 28.1561C19.607 28.0028 19.9713 27.5428 20.2588 27.581L20.5847 25.2615L20.4312 25.0508Z" fill="#FFE15A"/>
<path d="M17.2492 28.8652C17.2492 28.8652 17.115 29.977 17.1917 30.1112C17.2685 30.2454 19.3769 30.7437 19.3769 30.7437C19.3769 30.7437 18.7636 31.2421 18.7444 31.5105C18.7444 31.5105 17.9968 31.6447 17.7285 31.8748L16.7317 30.2263L16.6934 28.8652H17.2492Z" fill="#FFE15A"/>
<path d="M16.5818 18.7544L16.5962 18.1793C16.5962 18.1793 15.9204 18.1074 15.8343 19.6313L15.5898 18.9555C15.5898 18.9555 15.0866 19.6313 15.3886 20.7239L15.2592 20.8246C15.2592 20.8246 14.5978 19.9476 14.1953 18.8119C14.1953 18.8119 13.5195 19.3438 14.3103 20.8534L13.3327 19.617C13.3327 19.617 12.8439 20.6521 14.3103 21.8885L12.9301 20.911C12.9301 20.911 12.8438 22.0325 14.1809 22.7512L12.8438 22.0324C12.8438 22.0324 12.8868 23.1106 14.4395 23.6426L12.973 23.3695C12.973 23.3695 13.3443 24.251 14.4287 24.4889C14.201 24.7431 13.9906 25.0847 13.9362 25.526L15.0289 24.9221C15.0289 24.9221 14.5113 25.4541 14.6551 26.1874L16.3372 24.5052L16.1073 24.4024C17.3799 24.1637 17.1136 24.0739 17.1136 24.0739C17.1136 24.0739 16.1742 21.6586 16.8069 19.9909C17.4394 18.3232 17.9954 18.0931 17.9954 18.0165C17.9955 17.9396 17.315 17.8486 16.5818 18.7544Z" fill="#FFECD7"/>
<path d="M17.8809 19.7227C17.8809 19.7227 20.0662 22.0229 20.1045 22.2339C20.1429 22.4447 19.8745 22.4064 19.8745 22.4064C19.8745 22.4064 19.3378 21.7164 18.6092 21.448C17.8808 21.1797 17.4016 20.3362 17.1141 20.1446C16.8266 19.9527 17.8809 19.7227 17.8809 19.7227Z" fill="#FFE15A"/>
<path d="M17.1527 20.2776C17.4402 20.3734 18.0921 20.2392 18.0728 19.6451C18.0537 19.0508 17.4595 18.8209 17.0185 18.9551C16.5777 19.0892 15.7533 19.7027 16.2709 20.8912C16.7885 22.0797 17.5553 22.5206 17.7086 23.5366C17.7086 23.5366 17.0185 23.642 16.6543 23.5557C16.3412 23.4816 15.8108 23.2299 15.9259 22.5398C16.0408 21.8498 16.3093 21.4471 16.0792 21.0637C15.8491 20.6803 15.1208 20.0094 15.1208 20.0094C15.1208 20.0094 13.5489 24.0349 16.386 25.0893C16.386 25.0893 15.0442 26.3737 14.3733 27.6196L14.7759 27.7345C14.7759 27.7345 14.0666 28.5013 13.6641 28.7888C13.6641 28.7888 14.9867 29.2489 16.2902 27.7537C16.2902 27.7537 16.6161 28.2904 16.6928 28.8655H17.2487C17.2487 28.8655 17.4404 27.9454 18.3223 27.1787C19.2041 26.4119 20.099 25.3185 20.0091 24.3224C19.9037 23.1531 19.023 22.627 18.1065 21.9023C16.8699 20.9246 17.1527 20.2776 17.1527 20.2776Z" fill="#FFF5E1"/>
<path d="M31.3994 25.0508C31.4952 25.0699 31.6295 25.3191 31.6678 25.7408C31.7062 26.1626 31.9744 27.9452 32.5496 27.7535C33.1247 27.5618 33.5081 26.7184 33.5081 26.7184L34.3132 27.8877C34.3132 27.8877 33.7765 27.6768 33.2205 27.9261C32.6646 28.1753 32.5305 28.3095 32.377 28.1561C32.2237 28.0028 31.8595 27.5428 31.572 27.581L31.2461 25.2615L31.3994 25.0508Z" fill="#FFE15A"/>
<path d="M34.5818 28.8652C34.5818 28.8652 34.716 29.9771 34.6393 30.1112C34.5626 30.2454 32.4541 30.7437 32.4541 30.7437C32.4541 30.7437 33.0675 31.2421 33.0866 31.5105C33.0866 31.5105 33.8343 31.6447 34.1025 31.8748L35.0993 30.2263L35.1377 28.8652H34.5817H34.5818Z" fill="#FFE15A"/>
<path d="M35.2476 18.7544L35.2332 18.1793C35.2332 18.1793 35.909 18.1074 35.9951 19.6313L36.2395 18.9555C36.2395 18.9555 36.7428 19.6313 36.4408 20.7239L36.5702 20.8246C36.5702 20.8246 37.2315 19.9476 37.6341 18.8119C37.6341 18.8119 38.3099 19.3438 37.5191 20.8534L38.4967 19.617C38.4967 19.617 38.9854 20.6521 37.5191 21.8885L38.8993 20.911C38.8993 20.911 38.9856 22.0325 37.6485 22.7512L38.9856 22.0324C38.9856 22.0324 38.9426 23.1106 37.3898 23.6426L38.8563 23.3695C38.8563 23.3695 38.4851 24.251 37.4007 24.4889C37.6284 24.7431 37.8388 25.0847 37.8932 25.526L36.8005 24.9221C36.8005 24.9221 37.3181 25.4541 37.1743 26.1874L35.4922 24.5052L35.7221 24.4024C34.4494 24.1637 34.7158 24.0739 34.7158 24.0739C34.7158 24.0739 35.6552 21.6586 35.0225 19.9909C34.3898 18.3232 33.834 18.0931 33.834 18.0165C33.8339 17.9396 34.5144 17.8486 35.2476 18.7544Z" fill="#FFECD7"/>
<path d="M33.9491 19.7227C33.9491 19.7227 31.7638 22.0229 31.7254 22.2339C31.6871 22.4447 31.9555 22.4064 31.9555 22.4064C31.9555 22.4064 32.4922 21.7164 33.2207 21.448C33.9492 21.1797 34.4284 20.3362 34.7159 20.1446C35.0034 19.953 33.9491 19.7227 33.9491 19.7227Z" fill="#FFE15A"/>
<path d="M34.678 20.2776C34.3905 20.3734 33.7387 20.2392 33.7579 19.6451C33.7771 19.0508 34.3713 18.8209 34.8122 18.9551C35.253 19.0892 36.0774 19.7027 35.5599 20.8912C35.0423 22.0797 34.2755 22.5206 34.1222 23.5366C34.1222 23.5366 34.8122 23.642 35.1765 23.5557C35.4896 23.4816 36.0199 23.2299 35.9049 22.5398C35.7899 21.8498 35.5215 21.4471 35.7516 21.0637C35.9816 20.6803 36.71 20.0094 36.71 20.0094C36.71 20.0094 38.2818 24.0349 35.4447 25.0893C35.4447 25.0893 36.7865 26.3737 37.4574 27.6196L37.0549 27.7345C37.0549 27.7345 37.7642 28.5013 38.1667 28.7888C38.1667 28.7888 36.844 29.2489 35.5405 27.7537C35.5405 27.7537 35.2147 28.2904 35.138 28.8655H34.582C34.582 28.8655 34.3903 27.9454 33.5085 27.1787C32.6267 26.4119 31.7317 25.3185 31.8217 24.3224C31.9271 23.1531 32.8077 22.627 33.7242 21.9023C34.9608 20.9246 34.678 20.2776 34.678 20.2776Z" fill="#FFF5E1"/>
<path d="M31.4336 16.3887H20.3926V18.6123H31.4336V16.3887Z" fill="#464655"/>
<path d="M25.9133 18.1504H20.3926C20.3926 18.1504 20.3926 24.1312 20.3926 25.5114C20.3926 26.8916 21.3127 30.572 25.9133 31.9522C30.5138 30.572 31.434 26.8916 31.434 25.5114C31.434 24.1312 31.434 18.1504 31.434 18.1504H25.9133V18.1504Z" fill="#41479B"/>
<path d="M20.3926 25.5123C20.3926 25.8543 20.4497 26.3381 20.6047 26.8925H31.222C31.3769 26.3381 31.4341 25.8543 31.4341 25.5123V22.752H20.3926V25.5123Z" fill="#FF4B55"/>
<path d="M25.9127 24.8203L25.2686 26.4304L25.9127 26.1084L26.5567 26.4304L25.9127 24.8203Z" fill="#F5F5F5"/>
<path d="M25.9127 24.8212L26.5567 23.2109L25.9127 23.5329L25.2686 23.2109L25.9127 24.8212Z" fill="#F5F5F5"/>
<path d="M25.913 24.822L24.3027 24.1777L24.6248 24.822L24.3027 25.466L25.913 24.822Z" fill="#F5F5F5"/>
<path d="M25.9131 24.822L27.5231 25.466L27.2012 24.822L27.5231 24.1777L25.9131 24.822Z" fill="#F5F5F5"/>
<path d="M26.637 19.7779C26.5295 19.7952 26.4351 19.8089 26.3497 19.8537C26.4466 19.6116 26.515 19.3844 26.4548 19.2253C26.3079 18.8361 26.0252 18.9058 25.9163 18.6221V18.6113C25.9156 18.6135 25.9144 18.6146 25.9136 18.6167C25.9128 18.6146 25.9117 18.6134 25.9109 18.6113V18.6221C25.8021 18.9058 25.5194 18.8362 25.3724 19.2253C25.3122 19.3845 25.3806 19.6115 25.4775 19.8537C25.3922 19.8089 25.2977 19.7951 25.1902 19.7779C24.9708 19.7428 24.6376 19.9709 24.7078 20.4095C24.7779 20.848 25.2867 20.8832 25.2867 20.8832C25.2165 20.8131 25.1551 20.699 25.1902 20.5762C25.2252 20.4533 25.4796 20.3481 25.6112 20.7603C25.7427 21.1727 25.2955 21.7603 25.2955 21.7603C25.4486 21.7522 25.5604 21.7045 25.6412 21.6561C25.535 22.0023 25.8824 22.2703 25.9108 22.2913V22.2954L25.9135 22.2934C25.9138 22.2935 25.9163 22.2954 25.9163 22.2954V22.2913C25.9447 22.2703 26.292 22.0024 26.1859 21.6562C26.2665 21.7046 26.3785 21.7522 26.5316 21.7603C26.5316 21.7603 26.0843 21.1727 26.2159 20.7603C26.3474 20.348 26.6019 20.4533 26.6369 20.5762C26.672 20.699 26.6106 20.813 26.5404 20.8832C26.5404 20.8832 27.0491 20.848 27.1193 20.4095C27.1896 19.9708 26.8563 19.7428 26.637 19.7779Z" fill="#FFE15A"/>
<path d="M30.0227 19.7779C29.9153 19.7952 29.8208 19.8089 29.7355 19.8537C29.8324 19.6116 29.9007 19.3844 29.8406 19.2253C29.6936 18.8361 29.411 18.9058 29.3021 18.6221V18.6113C29.3013 18.6135 29.3001 18.6146 29.2994 18.6167C29.2986 18.6146 29.2974 18.6134 29.2966 18.6113V18.6221C29.1878 18.9058 28.9051 18.8362 28.7581 19.2253C28.698 19.3845 28.7663 19.6115 28.8632 19.8537C28.778 19.8089 28.6834 19.7951 28.5759 19.7779C28.3566 19.7428 28.0234 19.9709 28.0935 20.4095C28.1636 20.848 28.6724 20.8832 28.6724 20.8832C28.6023 20.8131 28.5409 20.699 28.5759 20.5762C28.6111 20.4533 28.8654 20.3481 28.9969 20.7603C29.1285 21.1726 28.6812 21.7603 28.6812 21.7603C28.8343 21.7522 28.9461 21.7045 29.0269 21.6561C28.9207 22.0023 29.2681 22.2703 29.2965 22.2913V22.2954L29.2993 22.2934C29.2996 22.2935 29.302 22.2954 29.302 22.2954V22.2913C29.3304 22.2703 29.6778 22.0024 29.5716 21.6562C29.6523 21.7046 29.7642 21.7522 29.9173 21.7603C29.9173 21.7603 29.4701 21.1727 29.6016 20.7603C29.7331 20.348 29.9876 20.4533 30.0226 20.5762C30.0578 20.699 29.9963 20.813 29.9261 20.8832C29.9261 20.8832 30.4348 20.848 30.505 20.4095C30.5752 19.9708 30.242 19.7428 30.0227 19.7779Z" fill="#FFE15A"/>
<path d="M23.2522 19.7779C23.1448 19.7952 23.0503 19.8089 22.965 19.8537C23.0619 19.6116 23.1302 19.3844 23.0701 19.2253C22.9231 18.8361 22.6405 18.9058 22.5316 18.6221V18.6113C22.5308 18.6135 22.5296 18.6146 22.5288 18.6167C22.5281 18.6146 22.5269 18.6134 22.5261 18.6113V18.6221C22.4173 18.9058 22.1346 18.8362 21.9876 19.2253C21.9275 19.3845 21.9958 19.6115 22.0927 19.8537C22.0075 19.8089 21.9129 19.7951 21.8054 19.7779C21.5861 19.7428 21.2529 19.9709 21.323 20.4095C21.3931 20.848 21.9019 20.8832 21.9019 20.8832C21.8318 20.8131 21.7704 20.699 21.8054 20.5762C21.8406 20.4533 22.0949 20.3481 22.2264 20.7603C22.358 21.1726 21.9107 21.7603 21.9107 21.7603C22.0638 21.7522 22.1756 21.7045 22.2564 21.6561C22.1502 22.0023 22.4976 22.2703 22.526 22.2913V22.2954L22.5288 22.2934C22.529 22.2935 22.5315 22.2954 22.5315 22.2954V22.2913C22.5599 22.2703 22.9073 22.0024 22.8011 21.6562C22.8818 21.7046 22.9937 21.7522 23.1468 21.7603C23.1468 21.7603 22.6996 21.1727 22.8311 20.7603C22.9626 20.348 23.2171 20.4533 23.2521 20.5762C23.2872 20.699 23.2258 20.813 23.1556 20.8832C23.1556 20.8832 23.6643 20.848 23.7345 20.4095C23.8048 19.9708 23.4715 19.7428 23.2522 19.7779Z" fill="#FFE15A"/>
<path d="M26.9936 29.2576C26.9936 29.2576 26.7476 29.219 26.7279 29.4669C26.7279 29.4669 26.7279 29.4952 26.7268 29.5346C26.6964 29.5202 26.6633 29.5107 26.6274 29.5107C26.4975 29.5107 26.3921 29.6161 26.3921 29.7462C26.3921 29.8762 26.4975 29.9815 26.6274 29.9815C26.6378 29.9815 26.6466 29.977 26.6565 29.9756C26.6215 30.0878 26.5658 30.1899 26.4876 30.2638H26.1733C26.0907 30.1723 26.0656 29.9932 26.0602 29.8635C26.0652 29.8638 26.0691 29.8674 26.0743 29.8674C26.181 29.8674 26.2674 29.7809 26.2674 29.6743C26.2674 29.5689 26.1828 29.484 26.0779 29.4819C26.0946 29.4534 26.1068 29.4219 26.1068 29.3864C26.1068 29.2798 26.0204 29.1934 25.9138 29.1934C25.8071 29.1934 25.7207 29.2799 25.7207 29.3864C25.7207 29.4219 25.7329 29.4533 25.7496 29.4819C25.6447 29.4841 25.5602 29.569 25.5602 29.6743C25.5602 29.781 25.6467 29.8674 25.7532 29.8674C25.7584 29.8674 25.7623 29.864 25.7674 29.8635C25.7621 29.9933 25.7369 30.1723 25.6542 30.2638H25.3399C25.2617 30.1899 25.206 30.0877 25.171 29.9756C25.1811 29.9769 25.1897 29.9815 25.2001 29.9815C25.3301 29.9815 25.4354 29.8762 25.4354 29.7462C25.4354 29.6162 25.3301 29.5107 25.2001 29.5107C25.1643 29.5107 25.1312 29.5201 25.1008 29.5346C25.0996 29.4952 25.0996 29.4669 25.0996 29.4669C25.08 29.219 24.834 29.2576 24.834 29.2576C24.9869 29.7244 24.9467 30.2639 24.9467 30.2639V30.7385H26.8781V30.2649L26.881 30.2639C26.881 30.2639 26.8406 29.7243 26.9936 29.2576Z" fill="#FFE15A"/>
<path d="M24.7367 27.4158C24.7367 27.4158 24.4907 27.3772 24.4711 27.6251C24.4711 27.6251 24.4711 27.6534 24.4699 27.6928C24.4395 27.6784 24.4064 27.6689 24.3706 27.6689C24.2406 27.6689 24.1353 27.7743 24.1353 27.9043C24.1353 28.0343 24.2406 28.1397 24.3706 28.1397C24.381 28.1397 24.3897 28.1352 24.3997 28.1338C24.3646 28.246 24.309 28.3481 24.2308 28.422H23.9165C23.8339 28.3305 23.8088 28.1514 23.8033 28.0217C23.8084 28.0221 23.8123 28.0256 23.8175 28.0256C23.9241 28.0256 24.0105 27.9391 24.0105 27.8325C24.0105 27.7271 23.926 27.6422 23.8211 27.6401C23.8378 27.6116 23.85 27.5801 23.85 27.5446C23.85 27.438 23.7636 27.3516 23.6569 27.3516C23.5503 27.3516 23.4639 27.4381 23.4639 27.5446C23.4639 27.5801 23.4761 27.6115 23.4928 27.6401C23.3879 27.6423 23.3033 27.7272 23.3033 27.8325C23.3033 27.9392 23.3898 28.0256 23.4964 28.0256C23.5016 28.0256 23.5055 28.0222 23.5105 28.0217C23.5053 28.1515 23.4801 28.3305 23.3974 28.422H23.0831C23.0049 28.3481 22.9491 28.2459 22.9142 28.1338C22.9242 28.1351 22.9329 28.1397 22.9433 28.1397C23.0732 28.1397 23.1786 28.0344 23.1786 27.9043C23.1786 27.7743 23.0732 27.6689 22.9433 27.6689C22.9074 27.6689 22.8743 27.6783 22.8439 27.6928C22.8428 27.6534 22.8428 27.6251 22.8428 27.6251C22.8231 27.3772 22.5771 27.4158 22.5771 27.4158C22.7301 27.8826 22.6898 28.4221 22.6898 28.4221V28.8967H24.6213V28.4231L24.6241 28.4221C24.624 28.4221 24.5839 27.8826 24.7367 27.4158Z" fill="#FFE15A"/>
<path d="M29.2514 27.4158C29.2514 27.4158 29.0054 27.3772 28.9857 27.6251C28.9857 27.6251 28.9857 27.6534 28.9846 27.6928C28.9542 27.6784 28.9211 27.6689 28.8853 27.6689C28.7553 27.6689 28.6498 27.7743 28.6498 27.9043C28.6498 28.0343 28.7552 28.1397 28.8853 28.1397C28.8956 28.1397 28.9044 28.1352 28.9144 28.1338C28.8793 28.246 28.8236 28.3481 28.7454 28.422H28.4312C28.3485 28.3305 28.3234 28.1514 28.318 28.0217C28.323 28.0221 28.327 28.0256 28.3321 28.0256C28.4388 28.0256 28.5252 27.9391 28.5252 27.8325C28.5252 27.7271 28.4406 27.6422 28.3357 27.6401C28.3524 27.6116 28.3646 27.5801 28.3646 27.5446C28.3646 27.438 28.2782 27.3516 28.1716 27.3516C28.0649 27.3516 27.9785 27.4381 27.9785 27.5446C27.9785 27.5801 27.9907 27.6115 28.0074 27.6401C27.9025 27.6423 27.818 27.7272 27.818 27.8325C27.818 27.9392 27.9045 28.0256 28.011 28.0256C28.0162 28.0256 28.0201 28.0222 28.0252 28.0217C28.0199 28.1515 27.9947 28.3305 27.912 28.422H27.5978C27.5195 28.3481 27.4638 28.2459 27.4288 28.1338C27.4389 28.1351 27.4476 28.1397 27.4579 28.1397C27.5879 28.1397 27.6933 28.0344 27.6933 27.9043C27.6933 27.7743 27.5879 27.6689 27.4579 27.6689C27.4221 27.6689 27.389 27.6783 27.3586 27.6928C27.3574 27.6534 27.3574 27.6251 27.3574 27.6251C27.3378 27.3772 27.0918 27.4158 27.0918 27.4158C27.2447 27.8826 27.2045 28.4221 27.2045 28.4221V28.8967H29.1359V28.4231L29.1388 28.4221C29.1387 28.4221 29.0984 27.8826 29.2514 27.4158Z" fill="#FFE15A"/>
<path d="M33.0591 15.33C32.7943 15.2249 32.5277 15.1258 32.2597 15.0329C32.1847 15.2502 32.1098 15.4675 32.0348 15.685C31.9055 15.6403 31.7759 15.5966 31.646 15.5547C31.7162 15.3357 31.7864 15.1168 31.8566 14.8977C31.5871 14.8108 31.3161 14.7298 31.0439 14.6551C30.9833 14.877 30.9227 15.0988 30.8621 15.3207C30.7308 15.2845 30.5993 15.2499 30.4674 15.2167C30.5232 14.9936 30.5789 14.7706 30.6347 14.5473C30.3614 14.4786 30.0868 14.4159 29.8114 14.3592C29.7194 14.8099 29.6272 15.2606 29.5351 15.7113C29.7057 15.7464 29.876 15.7839 30.0458 15.824C30.0107 15.9732 29.9758 16.1225 29.9407 16.2718C28.9479 16.0374 27.9396 15.8909 26.9275 15.8324C26.9363 15.6792 26.9452 15.5262 26.9539 15.373C27.1269 15.3831 27.3 15.3957 27.4727 15.4106C27.5124 14.9523 27.552 14.494 27.5916 14.0356C27.3126 14.0114 27.0332 13.9931 26.7535 13.981C26.7435 14.2109 26.7337 14.4406 26.7237 14.6705C26.5889 14.6646 26.454 14.6602 26.3191 14.6573C26.3241 14.4273 26.3291 14.1972 26.334 13.9674C26.0542 13.9614 25.7744 13.9614 25.4946 13.9674C25.4996 14.1974 25.5046 14.4274 25.5095 14.6573C25.3745 14.6602 25.2396 14.6646 25.1049 14.6705C25.0949 14.4406 25.085 14.2109 25.0751 13.981C24.7955 13.9931 24.5161 14.0113 24.237 14.0356C24.2766 14.4939 24.3163 14.9523 24.3558 15.4106C24.5287 15.3957 24.7016 15.3831 24.8747 15.373C24.8835 15.5261 24.8924 15.6792 24.9011 15.8324C23.8889 15.891 22.8807 16.0374 21.8879 16.2718C21.8528 16.1226 21.8179 15.9733 21.7828 15.824C21.9526 15.7837 22.1227 15.7462 22.2934 15.7113C22.2014 15.2606 22.1093 14.8099 22.0172 14.3592C21.7418 14.4158 21.4672 14.4786 21.1938 14.5473C21.2497 14.7705 21.3054 14.9936 21.3612 15.2167C21.2293 15.2499 21.0977 15.2845 20.9665 15.3207C20.906 15.0988 20.8453 14.8769 20.7847 14.6551C20.5125 14.73 20.2415 14.8108 19.972 14.8977C20.0422 15.1167 20.1124 15.3356 20.1826 15.5547C20.0526 15.5966 19.923 15.6402 19.7937 15.685C19.7187 15.4676 19.6438 15.2503 19.5688 15.0329C19.3008 15.1259 19.0343 15.2249 18.7695 15.33C18.9384 15.7578 19.1072 16.1855 19.2761 16.6133C19.44 16.5483 19.6049 16.4855 19.7702 16.4255C19.9786 17.0023 20.1869 17.5789 20.3953 18.1556C20.841 17.9935 21.2921 17.8518 21.7471 17.7304C21.8988 17.69 22.0509 17.6515 22.2033 17.6157C23.1184 17.3998 24.0477 17.2646 24.9806 17.2106C25.6024 17.1746 26.226 17.1748 26.8478 17.2106C27.7807 17.2645 28.71 17.3996 29.6251 17.6157C29.7775 17.6518 29.9297 17.6899 30.0813 17.7304C30.5364 17.852 30.9874 17.9937 31.4331 18.1556C31.6415 17.5788 31.8498 17.0023 32.0582 16.4255C32.2236 16.4857 32.3883 16.5483 32.5523 16.6133C32.7213 16.1856 32.8902 15.7578 33.0591 15.33Z" fill="#FFE15A"/>
<path d="M25.9122 37.2426C28.6567 37.2426 31.1976 36.3613 33.2732 34.8709V31.8598C31.3953 33.7611 28.7895 34.9421 25.9122 34.9421C22.9951 34.9421 20.3579 33.7273 18.4746 31.7793V34.8161C20.5638 36.3402 23.134 37.2426 25.9122 37.2426Z" fill="#FFE1CD"/>
</g>
<defs>
<clipPath id="clip0_3462_29347">
<rect width="50" height="50" fill="white" transform="translate(0.914062 0.173828)"/>
</clipPath>
</defs>
</svg>
