<svg width="51" height="51" viewBox="0 0 51 51" fill="none" xmlns="http://www.w3.org/2000/svg">
<g clip-path="url(#clip0_3462_29342)">
<path d="M49.4815 41.5535H1.20586C0.729784 41.5535 0.34375 41.1674 0.34375 40.6913V9.65703C0.34375 9.18096 0.729784 8.79492 1.20586 8.79492H49.4816C49.9577 8.79492 50.3437 9.18096 50.3437 9.65703V40.6913C50.3437 41.1675 49.9576 41.5535 49.4815 41.5535Z" fill="#3CC8FF"/>
<path d="M25.3432 11.3809L13.2744 38.9669H37.4122L25.3432 11.3809Z" fill="#464655"/>
<path d="M25.3432 15.6824L34.7759 37.2428H15.9105L25.3432 15.6824ZM25.3432 11.3809L13.2744 38.9669H37.4123L25.3432 11.3809Z" fill="#F5F5F5"/>
<path d="M13.2744 38.9669L25.3432 25.1738L37.4122 38.9669H13.2744Z" fill="#FFE15A"/>
</g>
<defs>
<clipPath id="clip0_3462_29342">
<rect width="50" height="50" fill="white" transform="translate(0.34375 0.173828)"/>
</clipPath>
</defs>
</svg>
