<svg width="51" height="51" viewBox="0 0 51 51" fill="none" xmlns="http://www.w3.org/2000/svg">
<g clip-path="url(#clip0_3462_29334)">
<path d="M39.4306 8.79492H11.8447V41.5537H39.4306V8.79492Z" fill="#FFE15A"/>
<path d="M49.7754 41.5535H39.4307V8.79492H49.7755C50.2515 8.79492 50.6376 9.18096 50.6376 9.65703V40.6913C50.6375 41.1675 50.2514 41.5535 49.7754 41.5535Z" fill="#73AF00"/>
<path d="M1.4998 8.79492H11.8446V41.5535H1.4998C1.02373 41.5535 0.637695 41.1674 0.637695 40.6913V9.65703C0.637695 9.18096 1.02373 8.79492 1.4998 8.79492Z" fill="#4173CD"/>
<path d="M19.3779 24.7315L22.1743 30.3244L24.9708 24.7315L22.1743 19.1387L19.3779 24.7315Z" fill="#73AF00"/>
<path d="M26.3076 24.7315L29.1041 30.3244L31.9005 24.7315L29.1041 19.1387L26.3076 24.7315Z" fill="#73AF00"/>
<path d="M22.8428 31.4561L25.6392 37.0489L28.4356 31.4561L25.6392 25.8633L22.8428 31.4561Z" fill="#73AF00"/>
</g>
<defs>
<clipPath id="clip0_3462_29334">
<rect width="50" height="50" fill="white" transform="translate(0.636719 0.173828)"/>
</clipPath>
</defs>
</svg>
