<svg width="51" height="51" viewBox="0 0 51 51" fill="none" xmlns="http://www.w3.org/2000/svg">
<g clip-path="url(#clip0_3462_29329)">
<path d="M50.0663 19.7145H0.0664062V9.65703C0.0664062 9.18096 0.452441 8.79492 0.928514 8.79492H49.2043C49.6804 8.79492 50.0664 9.18096 50.0664 9.65703L50.0663 19.7145Z" fill="#FF4B55"/>
<path d="M49.2042 41.5523H0.928514C0.452441 41.5523 0.0664062 41.1663 0.0664062 40.6902V30.6328H50.0663V40.6902C50.0663 41.1664 49.6803 41.5523 49.2042 41.5523Z" fill="#464655"/>
<path d="M50.0663 19.7148H0.0664062V30.6338H50.0663V19.7148Z" fill="#F5F5F5"/>
<path d="M0.384374 41.3456L20.193 25.6215C20.4807 25.3932 20.4807 24.9563 20.193 24.7279L0.384374 9.00391C0.194433 9.16201 0.0664062 9.39111 0.0664062 9.65752V40.6919C0.0664062 40.9584 0.194433 41.1875 0.384374 41.3456Z" fill="#73AF00"/>
</g>
<defs>
<clipPath id="clip0_3462_29329">
<rect width="50" height="50" fill="white" transform="translate(0.0664062 0.173828)"/>
</clipPath>
</defs>
</svg>
