<svg width="51" height="51" viewBox="0 0 51 51" fill="none" xmlns="http://www.w3.org/2000/svg">
<g clip-path="url(#clip0_3462_29322)">
<path d="M49.4981 41.5536H1.22246C0.746386 41.5536 0.360352 41.1675 0.360352 40.6915V9.65703C0.360352 9.18096 0.746386 8.79492 1.22246 8.79492H49.4982C49.9743 8.79492 50.3604 9.18096 50.3604 9.65703V40.6915C50.3603 41.1676 49.9742 41.5536 49.4981 41.5536Z" fill="#73AF00"/>
<path d="M50.3622 14.8301H0.362305V18.2783H50.3622V14.8301Z" fill="#F5F5F5"/>
<path d="M50.3622 32.0703H0.362305V35.5185H50.3622V32.0703Z" fill="#F5F5F5"/>
<path d="M50.3603 18.2773H0.360352V32.0703H50.3603V18.2773Z" fill="#C8414B"/>
<path d="M25.146 19.8618L23.8907 23.6256L19.9233 23.6562C19.7057 23.658 19.6156 23.9355 19.7906 24.0647L22.9822 26.4216L21.7855 30.2045C21.7198 30.412 21.956 30.5835 22.133 30.457L25.3608 28.1499L28.5886 30.457C28.7655 30.5834 29.0017 30.412 28.9361 30.2045L27.7394 26.4216L30.9311 24.0647C31.1061 23.9355 31.0158 23.6579 30.7983 23.6562L26.8309 23.6256L25.5756 19.8618C25.5067 19.6554 25.2149 19.6554 25.146 19.8618Z" fill="#FFE15A"/>
</g>
<defs>
<clipPath id="clip0_3462_29322">
<rect width="50" height="50" fill="white" transform="translate(0.359375 0.173828)"/>
</clipPath>
</defs>
</svg>
