<svg width="51" height="51" viewBox="0 0 51 51" fill="none" xmlns="http://www.w3.org/2000/svg">
<g clip-path="url(#clip0_3462_29267)">
<path d="M0.789062 35.5195H50.789V40.692C50.789 41.1681 50.4029 41.5541 49.9269 41.5541H1.65117C1.1751 41.5541 0.789062 41.1681 0.789062 40.692V35.5195Z" fill="#4173CD"/>
<path d="M1.65117 8.79492H49.927C50.403 8.79492 50.7891 9.18096 50.7891 9.65703V14.8295H0.789062V9.65693C0.789062 9.18086 1.1751 8.79492 1.65117 8.79492Z" fill="#4173CD"/>
<path d="M50.789 14.8281H0.789062V35.5175H50.789V14.8281Z" fill="#FF4B55"/>
<path d="M50.789 13.9668H0.789062V15.6909H50.789V13.9668Z" fill="#FFE15A"/>
<path d="M50.789 34.6562H0.789062V36.3804H50.789V34.6562Z" fill="#FFE15A"/>
<path d="M44.6267 26.005H6.91553C6.65957 26.005 6.45215 25.7976 6.45215 25.5416V25.395C6.45215 25.1391 6.65957 24.9316 6.91553 24.9316H44.6267C44.8826 24.9316 45.0901 25.1391 45.0901 25.395V25.5416C45.0901 25.7975 44.8826 26.005 44.6267 26.005Z" fill="#FFE15A"/>
<path d="M37.3096 23.8597L39.1878 23.0547L41.066 23.8597L39.1878 24.6646L37.3096 23.8597Z" fill="#F5F5F5"/>
<path d="M37.7714 23.5156H10.2091C10.0197 23.5156 9.86621 23.669 9.86621 23.8585C9.86621 24.0478 10.0196 24.2014 10.2091 24.2014H37.7713C37.9607 24.2014 38.1142 24.0478 38.1142 23.8585C38.1142 23.6691 37.9607 23.5156 37.7714 23.5156Z" fill="#FFE15A"/>
<path d="M39.2617 21.9808L41.1399 21.1758L43.0182 21.9808L41.1399 22.7857L39.2617 21.9808Z" fill="#F5F5F5"/>
<path d="M39.7235 21.6387H12.1612C11.9719 21.6387 11.8184 21.7921 11.8184 21.9815C11.8184 22.1709 11.9718 22.3244 12.1612 22.3244H39.7235C39.9128 22.3244 40.0664 22.1709 40.0664 21.9815C40.0664 21.7922 39.9129 21.6387 39.7235 21.6387Z" fill="#FFE15A"/>
<path d="M25.7712 18.4922C21.0048 18.4922 16.8464 21.1913 14.6191 25.2002C16.8463 29.209 21.0048 31.9082 25.7712 31.9082C30.5376 31.9082 34.696 29.2091 36.9232 25.2002C34.6961 21.1913 30.5375 18.4922 25.7712 18.4922Z" fill="#F5F5F5"/>
<path d="M14.6191 25.1999C16.8463 29.2087 21.0048 31.9079 25.7712 31.9079C26.5671 31.9079 27.344 31.8262 28.0999 31.6821C27.5228 30.4154 25.4933 30.4175 25.3687 29.9402C25.2346 29.426 27.0233 29.5378 27.3364 29.1129C27.6495 28.6881 25.6371 28.5092 25.5476 28.0844C25.4582 27.6595 26.3526 27.3688 26.5092 26.698C26.6657 26.0272 27.0234 25.8261 27.2917 25.4236C27.56 25.0212 26.8445 24.887 26.6656 23.5454C26.4867 22.2038 25.4357 22.0249 24.9216 20.9294C24.4072 19.8338 25.2347 19.0288 25.7713 18.4922C21.0048 18.4919 16.8463 21.191 14.6191 25.1999Z" fill="#464655"/>
<path d="M19.3306 22.7852H18.7939V24.9317H19.3306V22.7852Z" fill="#F5F5F5"/>
<path d="M20.4048 22.7852H19.8682V24.9317H20.4048V22.7852Z" fill="#F5F5F5"/>
<path d="M21.478 22.7852H20.9414V24.9317H21.478V22.7852Z" fill="#F5F5F5"/>
<path d="M22.5513 22.7852H22.0146V24.9317H22.5513V22.7852Z" fill="#F5F5F5"/>
<path d="M23.6245 22.7852H23.0879V24.9317H23.6245V22.7852Z" fill="#F5F5F5"/>
<path d="M24.6978 22.7852H24.1611V24.9317H24.6978V22.7852Z" fill="#F5F5F5"/>
<path d="M19.3306 26.0039H18.7939V28.1505H19.3306V26.0039Z" fill="#F5F5F5"/>
<path d="M20.4048 26.0039H19.8682V28.1505H20.4048V26.0039Z" fill="#F5F5F5"/>
<path d="M21.478 26.0039H20.9414V28.1505H21.478V26.0039Z" fill="#F5F5F5"/>
<path d="M22.5513 26.0039H22.0146V28.1505H22.5513V26.0039Z" fill="#F5F5F5"/>
<path d="M23.6245 26.0039H23.0879V28.1505H23.6245V26.0039Z" fill="#F5F5F5"/>
<path d="M24.6978 26.0039H24.1611V28.1505H24.6978V26.0039Z" fill="#F5F5F5"/>
<path d="M27.3804 22.7852H26.8438V24.9317H27.3804V22.7852Z" fill="#464655"/>
<path d="M28.4536 22.7852H27.917V24.9317H28.4536V22.7852Z" fill="#464655"/>
<path d="M29.5269 22.7852H28.9902V24.9317H29.5269V22.7852Z" fill="#464655"/>
<path d="M30.6001 22.7852H30.0635V24.9317H30.6001V22.7852Z" fill="#464655"/>
<path d="M31.6733 22.7852H31.1367V24.9317H31.6733V22.7852Z" fill="#464655"/>
<path d="M32.7466 22.7852H32.21V24.9317H32.7466V22.7852Z" fill="#464655"/>
<path d="M27.3804 26.0059H26.8438V28.1524H27.3804V26.0059Z" fill="#464655"/>
<path d="M28.4536 26.0059H27.917V28.1524H28.4536V26.0059Z" fill="#464655"/>
<path d="M29.5269 26.0059H28.9902V28.1524H29.5269V26.0059Z" fill="#464655"/>
<path d="M30.6001 26.0059H30.0635V28.1524H30.6001V26.0059Z" fill="#464655"/>
<path d="M31.6733 26.0059H31.1367V28.1524H31.6733V26.0059Z" fill="#464655"/>
<path d="M32.7466 26.0059H32.21V28.1524H32.7466V26.0059Z" fill="#464655"/>
<path d="M42.3308 24.8477C41.901 25.846 40.678 25.9635 41.3557 28.5084L41.7028 28.156C41.7028 28.156 42.0664 29.1153 42.9423 29.7613C42.9423 29.7613 44.0166 28.8607 44.0993 27.4318L44.5455 27.6276C44.5455 27.6273 44.3306 25.0238 42.3308 24.8477Z" fill="#245DBD"/>
<path d="M43.9168 26.8933C43.8824 26.8933 43.8483 26.8773 43.8225 26.8462C43.4016 26.3385 42.8654 26.1757 42.8603 26.1739C42.7895 26.1531 42.7461 26.0681 42.7637 25.9843C42.7813 25.9011 42.853 25.849 42.9234 25.8698C42.9482 25.8771 43.5357 26.054 44.0109 26.6271C44.0621 26.6884 44.0612 26.788 44.0095 26.8486C43.9837 26.8786 43.9504 26.8933 43.9168 26.8933Z" fill="#FF4B55"/>
<path d="M43.614 28.0787C43.5744 28.0787 43.5352 28.0579 43.5091 28.0175C43.1969 27.5366 42.8428 27.2748 42.8392 27.2724C42.7769 27.2272 42.7578 27.1305 42.7961 27.0565C42.8346 26.9831 42.9159 26.9605 42.9782 27.0057C42.9945 27.0173 43.3775 27.3012 43.7189 27.8267C43.7633 27.8952 43.7525 27.9937 43.6946 28.0463C43.6706 28.0683 43.6421 28.0787 43.614 28.0787Z" fill="#FF4B55"/>
<path d="M42.9189 29.3973C42.9115 29.3973 42.904 29.3966 42.8962 29.3948C42.8246 29.3802 42.7761 29.2993 42.7885 29.2144C42.8405 28.8559 42.797 28.268 42.7256 27.9646C42.706 27.8814 42.747 27.795 42.8171 27.7712C42.8879 27.7485 42.96 27.7969 42.9795 27.8802C43.0602 28.2228 43.1073 28.8621 43.0485 29.267C43.0376 29.3435 42.9818 29.3973 42.9189 29.3973Z" fill="#FF4B55"/>
<path d="M41.9887 27.9515C41.951 27.9515 41.9136 27.9325 41.8875 27.8958C41.8406 27.8298 41.8476 27.7306 41.9033 27.675C41.9066 27.672 42.2441 27.3293 42.3323 26.8553C42.348 26.7709 42.418 26.7177 42.4898 26.736C42.561 26.7544 42.6063 26.8382 42.5906 26.9227C42.4826 27.5026 42.0904 27.8984 42.0736 27.915C42.0487 27.9393 42.0187 27.9515 41.9887 27.9515Z" fill="#FF4B55"/>
<path d="M41.6226 26.9486C41.5782 26.9486 41.5349 26.9223 41.5099 26.8739C41.4716 26.8005 41.491 26.7039 41.5533 26.6585C41.5583 26.6548 42.0378 26.3019 42.1865 25.9166C42.2167 25.8371 42.2958 25.8021 42.3618 25.8388C42.4282 25.875 42.4574 25.9679 42.4271 26.0462C42.2446 26.5191 41.7141 26.9088 41.6917 26.9253C41.6698 26.9413 41.6461 26.9486 41.6226 26.9486Z" fill="#FF4B55"/>
<path d="M8.82576 25.1836C8.46648 26.0184 7.44372 26.1167 8.01033 28.2446L8.30056 27.95C8.30056 27.95 8.60456 28.752 9.33708 29.2923C9.33708 29.2923 10.2353 28.5393 10.3045 27.3443L10.6776 27.508C10.6776 27.5081 10.498 25.3311 8.82576 25.1836Z" fill="#245DBD"/>
<path d="M10.15 26.8949C10.1212 26.8949 10.0928 26.8817 10.0712 26.8555C9.71924 26.4309 9.271 26.2948 9.2666 26.2933C9.20742 26.2759 9.17109 26.2048 9.18594 26.1347C9.20059 26.0651 9.26065 26.0216 9.31953 26.039C9.34023 26.0451 9.83144 26.193 10.2288 26.6723C10.2716 26.7235 10.2709 26.8068 10.2275 26.8574C10.206 26.8826 10.178 26.8949 10.15 26.8949Z" fill="#FF4B55"/>
<path d="M9.89665 27.8855C9.86354 27.8855 9.83083 27.8681 9.80895 27.8343C9.54782 27.4323 9.25183 27.2133 9.2488 27.2113C9.19675 27.1735 9.18083 27.0926 9.21267 27.0307C9.24489 26.9693 9.31286 26.9504 9.36491 26.9882C9.37849 26.9979 9.6987 27.2353 9.98425 27.6747C10.0215 27.7321 10.0124 27.8144 9.96403 27.8583C9.94392 27.8768 9.92009 27.8855 9.89665 27.8855Z" fill="#FF4B55"/>
<path d="M9.31608 28.9873C9.30984 28.9873 9.30361 28.9867 9.29718 28.9852C9.23728 28.9729 9.19676 28.9053 9.20708 28.8344C9.25062 28.5345 9.21419 28.0429 9.15448 27.7893C9.13812 27.7197 9.17231 27.6476 9.23094 27.6277C9.29017 27.6088 9.35046 27.6492 9.36682 27.7187C9.43423 28.0052 9.47368 28.5397 9.42459 28.8784C9.41533 28.9422 9.36858 28.9873 9.31608 28.9873Z" fill="#FF4B55"/>
<path d="M8.53847 27.7773C8.50693 27.7773 8.47567 27.7615 8.4538 27.7307C8.41444 27.6754 8.4203 27.5925 8.46698 27.5461C8.46982 27.5435 8.75204 27.2571 8.82558 26.8606C8.83876 26.79 8.89726 26.7456 8.95722 26.7608C9.01679 26.7761 9.05468 26.8463 9.04149 26.9169C8.95116 27.4018 8.62314 27.7328 8.60917 27.7466C8.58857 27.767 8.56357 27.7773 8.53847 27.7773Z" fill="#FF4B55"/>
<path d="M8.23194 26.9402C8.19473 26.9402 8.1586 26.9182 8.1375 26.8778C8.10547 26.8164 8.12178 26.7355 8.17383 26.6977C8.17793 26.6947 8.57891 26.3995 8.70332 26.0772C8.72852 26.0107 8.79473 25.9815 8.85 26.0122C8.90547 26.0424 8.92989 26.1203 8.90459 26.1856C8.75186 26.581 8.3084 26.9068 8.28965 26.9206C8.27149 26.934 8.25157 26.9402 8.23194 26.9402Z" fill="#FF4B55"/>
</g>
<defs>
<clipPath id="clip0_3462_29267">
<rect width="50" height="50" fill="white" transform="translate(0.789062 0.173828)"/>
</clipPath>
</defs>
</svg>
