<svg width="51" height="51" viewBox="0 0 51 51" fill="none" xmlns="http://www.w3.org/2000/svg">
<g clip-path="url(#clip0_3462_29261)">
<path d="M49.6505 41.5536H1.3748C0.89873 41.5536 0.512695 41.1675 0.512695 40.6915V9.65703C0.512695 9.18096 0.89873 8.79492 1.3748 8.79492H49.6506C50.1267 8.79492 50.5127 9.18096 50.5127 9.65703V40.6915C50.5126 41.1676 50.1266 41.5536 49.6505 41.5536Z" fill="#FF4B55"/>
<path d="M34.9947 21.7247H28.9602V15.6902C28.9602 15.2142 28.5742 14.8281 28.0981 14.8281H22.9257C22.4496 14.8281 22.0636 15.2142 22.0636 15.6902V21.7247H16.0291C15.553 21.7247 15.167 22.1107 15.167 22.5868V27.7593C15.167 28.2353 15.553 28.6214 16.0291 28.6214H22.0636V34.6558C22.0636 35.1319 22.4496 35.5179 22.9257 35.5179H28.0981C28.5742 35.5179 28.9602 35.1319 28.9602 34.6558V28.6212H34.9947C35.4708 28.6212 35.8568 28.2351 35.8568 27.7591V22.5866C35.8568 22.1106 35.4708 21.7247 34.9947 21.7247Z" fill="#F5F5F5"/>
</g>
<defs>
<clipPath id="clip0_3462_29261">
<rect width="50" height="50" fill="white" transform="translate(0.511719 0.173828)"/>
</clipPath>
</defs>
</svg>
