<svg width="51" height="51" viewBox="0 0 51 51" fill="none" xmlns="http://www.w3.org/2000/svg">
<g clip-path="url(#clip0_3462_29254)">
<path d="M50.8065 19.7145H0.806641V9.65703C0.806641 9.18096 1.19268 8.79492 1.66875 8.79492H49.9445C50.4206 8.79492 50.8066 9.18096 50.8066 9.65703L50.8065 19.7145Z" fill="#FF4B55"/>
<path d="M49.9444 41.5523H1.66875C1.19268 41.5523 0.806641 41.1663 0.806641 40.6902V30.6328H50.8065V40.6902C50.8065 41.1664 50.4205 41.5523 49.9444 41.5523Z" fill="#464655"/>
<path d="M50.8065 19.7148H0.806641V30.6338H50.8065V19.7148Z" fill="#F5F5F5"/>
<path d="M15.4574 21.9827L16.1761 24.1378L18.4478 24.1553C18.7418 24.1576 18.8638 24.5329 18.6272 24.7077L16.7997 26.0573L17.485 28.2232C17.5737 28.5036 17.2544 28.7356 17.0152 28.5646L15.167 27.2436L13.3189 28.5646C13.0795 28.7356 12.7604 28.5036 12.8491 28.2232L13.5343 26.0573L11.7069 24.7077C11.4703 24.533 11.5922 24.1576 11.8863 24.1553L14.158 24.1378L14.8767 21.9827C14.9697 21.7037 15.3643 21.7037 15.4574 21.9827Z" fill="#73AF00"/>
<path d="M36.7357 21.9827L37.4544 24.1378L39.7261 24.1553C40.0202 24.1576 40.1421 24.5329 39.9055 24.7077L38.0781 26.0573L38.7633 28.2232C38.852 28.5036 38.5328 28.7356 38.2935 28.5646L36.4454 27.2436L34.5972 28.5646C34.3579 28.7356 34.0386 28.5036 34.1274 28.2232L34.8126 26.0573L32.9852 24.7077C32.7486 24.533 32.8706 24.1576 33.1646 24.1553L35.4363 24.1378L36.155 21.9827C36.248 21.7037 36.6426 21.7037 36.7357 21.9827Z" fill="#73AF00"/>
</g>
<defs>
<clipPath id="clip0_3462_29254">
<rect width="50" height="50" fill="white" transform="translate(0.804688 0.173828)"/>
</clipPath>
</defs>
</svg>
