<svg width="51" height="51" viewBox="0 0 51 51" fill="none" xmlns="http://www.w3.org/2000/svg">
<g clip-path="url(#clip0_3462_29245)">
<path d="M49.7589 41.9813H1.4832C1.00713 41.9813 0.621094 41.5953 0.621094 41.1192V10.0848C0.621094 9.60869 1.00713 9.22266 1.4832 9.22266H49.759C50.2351 9.22266 50.6211 9.60869 50.6211 10.0848V41.1192C50.621 41.5954 50.235 41.9813 49.7589 41.9813Z" fill="#FF4B55"/>
<path d="M1.4832 9.22266H24.759C25.2351 9.22266 25.6211 9.60869 25.6211 10.0848V24.7399C25.6211 25.216 25.2351 25.602 24.759 25.602H1.4832C1.00713 25.6019 0.621094 25.2159 0.621094 24.7398V10.0847C0.621094 9.60859 1.00713 9.22266 1.4832 9.22266Z" fill="#41479B"/>
<path d="M10.0353 17.4114C10.0353 16.5596 10.3804 15.7885 10.9384 15.2302L8.35307 14.4907C8.20298 14.4478 8.09546 14.6341 8.20757 14.7426L10.1422 16.6132L7.53149 17.266C7.38013 17.3037 7.38013 17.519 7.53149 17.5569L10.1422 18.2096L8.20757 20.0802C8.09536 20.1887 8.20298 20.375 8.35307 20.3322L10.9384 19.5926C10.3804 19.0342 10.0353 18.2631 10.0353 17.4114Z" fill="#F5F5F5"/>
<path d="M10.9393 15.2295C11.4976 14.6715 12.2687 14.3264 13.1204 14.3264C13.9722 14.3264 14.7433 14.6715 15.3016 15.2295L16.0411 12.6442C16.084 12.4941 15.8977 12.3866 15.7892 12.4987L13.9186 14.4332L13.2659 11.8225C13.2281 11.6711 13.0128 11.6711 12.9749 11.8225L12.3222 14.4332L10.4516 12.4987C10.3431 12.3865 10.1568 12.4941 10.1997 12.6442L10.9393 15.2295Z" fill="#F5F5F5"/>
<path d="M15.3025 19.5938C14.7442 20.1518 13.9731 20.4969 13.1213 20.4969C12.2696 20.4969 11.4985 20.1518 10.9402 19.5938L10.2006 22.1791C10.1578 22.3292 10.3441 22.4367 10.4526 22.3246L12.3232 20.39L12.9759 23.0008C13.0137 23.1521 13.2289 23.1521 13.2668 23.0008L13.9196 20.39L15.7902 22.3246C15.8987 22.4368 16.085 22.3292 16.0421 22.1791L15.3025 19.5938Z" fill="#F5F5F5"/>
<path d="M18.7107 17.266L16.1 16.6132L18.0346 14.7426C18.1468 14.6341 18.0392 14.4478 17.8891 14.4907L15.3037 15.2302C15.8617 15.7885 16.2068 16.5596 16.2068 17.4114C16.2068 18.2631 15.8617 19.0342 15.3037 19.5925L17.8891 20.3321C18.0392 20.3749 18.1467 20.1886 18.0346 20.0801L16.1 18.2095L18.7107 17.5568C18.8622 17.5191 18.8622 17.3039 18.7107 17.266Z" fill="#F5F5F5"/>
<path d="M13.1211 19.8691C14.4781 19.8691 15.5781 18.7691 15.5781 17.4121C15.5781 16.0551 14.4781 14.9551 13.1211 14.9551C11.7641 14.9551 10.6641 16.0551 10.6641 17.4121C10.6641 18.7691 11.7641 19.8691 13.1211 19.8691Z" fill="#F5F5F5"/>
</g>
<defs>
<clipPath id="clip0_3462_29245">
<rect width="50" height="50" fill="white" transform="translate(0.621094 0.601562)"/>
</clipPath>
</defs>
</svg>
