<svg width="51" height="51" viewBox="0 0 51 51" fill="none" xmlns="http://www.w3.org/2000/svg">
<g clip-path="url(#clip0_3462_29228)">
<path d="M0.915039 31.0605H50.9149V41.1179C50.9149 41.594 50.5289 41.9801 50.0528 41.9801H1.77715C1.30107 41.9801 0.915039 41.594 0.915039 41.1179V31.0605Z" fill="#73AF00"/>
<path d="M1.77715 9.22266H50.0529C50.529 9.22266 50.915 9.60869 50.915 10.0848V20.1422H0.915039V10.0847C0.915039 9.60859 1.30107 9.22266 1.77715 9.22266Z" fill="#FF4B55"/>
<path d="M50.9149 20.1426H0.915039V31.0615H50.9149V20.1426Z" fill="#F5F5F5"/>
<path d="M23.09 28.6805C23.4484 28.4999 23.6581 28.2022 23.7703 27.9874C24.4124 28.4069 24.9626 28.2644 25.2493 28.1303C25.5291 27.9992 25.7595 27.7854 25.9132 27.5676C26.067 27.7854 26.2974 27.9992 26.577 28.1303C26.8637 28.2644 27.4139 28.4066 28.056 27.9874C28.1681 28.2022 28.3778 28.4998 28.7363 28.6805C28.943 28.7846 29.1707 28.8368 29.4179 28.8368C29.6718 28.8368 29.946 28.7818 30.2389 28.6721L30.0967 28.2926C29.6307 28.4673 29.2354 28.4767 28.9223 28.3205C28.4841 28.102 28.3378 27.6203 28.3366 27.6163L28.2512 27.3172L28.0122 27.5162C27.5905 27.8674 27.1539 27.9535 26.7489 27.7633C26.3377 27.5707 26.1157 27.181 26.1157 27.0641V25.3153C26.2034 25.1225 26.3969 24.9874 26.6222 24.9874C26.6996 24.9874 26.7762 25.0042 26.8496 25.0373L27.1004 25.1505L27.0625 24.8778C26.983 24.305 26.4888 23.873 25.9131 23.873C25.3373 23.873 24.8432 24.305 24.7637 24.8778L24.7258 25.1505L24.9766 25.0373C25.0499 25.0042 25.1266 24.9874 25.204 24.9874C25.4293 24.9874 25.6228 25.1225 25.7104 25.3153V27.0641C25.7104 27.181 25.4886 27.5707 25.0772 27.7633C24.6725 27.9534 24.2356 27.8676 23.814 27.5162L23.5768 27.3197L23.4895 27.6155C23.4882 27.6203 23.3418 28.102 22.9035 28.3205C22.5901 28.4768 22.195 28.4675 21.7292 28.2926L21.5869 28.6721C21.8798 28.7818 22.1542 28.8368 22.408 28.8368C22.6556 28.8367 22.8833 28.7847 23.09 28.6805ZM25.204 24.6834C25.1798 24.6834 25.1557 24.6844 25.1315 24.6865C25.2672 24.3842 25.5705 24.1769 25.9131 24.1769C26.2556 24.1769 26.559 24.3842 26.6946 24.6865C26.3796 24.6588 26.0815 24.8127 25.9131 25.0565C25.7576 24.8311 25.4977 24.6834 25.204 24.6834Z" fill="#FFCD5A"/>
<path d="M22.4043 29.9696L22.5327 30.3539C23.3941 30.0664 24.6263 29.9015 25.9128 29.9015C27.1993 29.9015 28.4314 30.0664 29.2929 30.3539L29.4213 29.9696C28.5201 29.6687 27.2412 29.4961 25.9128 29.4961C24.5844 29.4962 23.3055 29.6687 22.4043 29.9696Z" fill="#FFCD5A"/>
<path d="M25.913 29.0897C26.1242 29.0903 26.3103 28.9647 26.4363 28.7957C26.3525 28.7439 26.2406 28.7137 26.1139 28.6979C26.114 28.6934 26.1155 28.6892 26.1155 28.6845C26.1155 28.5107 26.0335 28.3607 25.913 28.2793C25.7924 28.3607 25.7104 28.5107 25.7104 28.6845C25.7104 28.6891 25.7119 28.6933 25.7121 28.6979C25.5854 28.7137 25.4735 28.7438 25.3896 28.7957C25.5155 28.9647 25.7017 29.0901 25.913 29.0897Z" fill="#FFCD5A"/>
<path d="M24.054 29.2822C24.261 29.2406 24.4184 29.0804 24.508 28.8896C24.4155 28.8556 24.2998 28.8483 24.1727 28.8583C24.1718 28.8538 24.1725 28.8493 24.1715 28.8447C24.1368 28.6746 24.0265 28.5439 23.892 28.4883C23.7901 28.5923 23.7397 28.7557 23.7745 28.9258C23.7755 28.9304 23.7777 28.9342 23.7787 28.9387C23.6578 28.9794 23.5541 29.0313 23.4824 29.0989C23.6397 29.2394 23.8471 29.3251 24.054 29.2822Z" fill="#FFCD5A"/>
<path d="M27.9353 28.4883C27.8009 28.5439 27.6905 28.6746 27.6559 28.8447C27.6549 28.8493 27.6556 28.8537 27.6547 28.8583C27.5275 28.8483 27.4118 28.8556 27.3193 28.8896C27.409 29.0805 27.5663 29.2406 27.7733 29.2822C27.9803 29.3251 28.1876 29.2394 28.345 29.0988C28.2732 29.0313 28.1696 28.9793 28.0487 28.9386C28.0498 28.9341 28.052 28.9303 28.0529 28.9257C28.0876 28.7557 28.0371 28.5923 27.9353 28.4883Z" fill="#FFCD5A"/>
<path d="M25.8591 21.0261L25.7225 21.4354L25.2912 21.4387C25.2353 21.4391 25.2122 21.5104 25.2571 21.5436L25.6041 21.7998L25.474 22.2112C25.4572 22.2644 25.5177 22.3084 25.5633 22.276L25.9142 22.0251L26.2652 22.276C26.3107 22.3084 26.3713 22.2645 26.3545 22.2112L26.2243 21.7998L26.5713 21.5436C26.6162 21.5104 26.593 21.4392 26.5372 21.4387L26.1058 21.4354L25.9693 21.0261C25.9516 20.9731 25.8767 20.9731 25.8591 21.0261Z" fill="#FFCD5A"/>
<path d="M23.3893 21.7019L23.2528 22.1112L22.8215 22.1145C22.7656 22.1149 22.7425 22.1862 22.7874 22.2194L23.1343 22.4756L23.0042 22.8869C22.9874 22.9402 23.0479 22.9842 23.0934 22.9518L23.4444 22.7009L23.7954 22.9518C23.8409 22.9842 23.9014 22.9403 23.8846 22.8869L23.7545 22.4756L24.1014 22.2194C24.1464 22.1862 24.1232 22.115 24.0674 22.1145L23.636 22.1112L23.4995 21.7019C23.4819 21.6489 23.407 21.6489 23.3893 21.7019Z" fill="#FFCD5A"/>
<path d="M21.5749 23.5241L21.4384 23.9333L21.007 23.9367C20.9511 23.9371 20.928 24.0083 20.9729 24.0416L21.3199 24.2978L21.1898 24.7091C21.173 24.7624 21.2336 24.8064 21.2791 24.774L21.63 24.5231L21.981 24.774C22.0265 24.8064 22.0871 24.7624 22.0703 24.7091L21.9402 24.2978L22.2872 24.0416C22.3321 24.0083 22.309 23.9372 22.2531 23.9367L21.8217 23.9333L21.6852 23.5241C21.6675 23.4711 21.5925 23.4711 21.5749 23.5241Z" fill="#FFCD5A"/>
<path d="M20.9079 25.989L20.7714 26.3983L20.34 26.4016C20.2842 26.402 20.261 26.4733 20.3059 26.5065L20.6529 26.7627L20.5227 27.174C20.5059 27.2273 20.5665 27.2713 20.612 27.2389L20.963 26.988L21.3139 27.2389C21.3594 27.2713 21.42 27.2274 21.4032 27.174L21.273 26.7627L21.62 26.5065C21.6649 26.4733 21.6418 26.4021 21.5859 26.4016L21.1546 26.3983L21.018 25.989C21.0005 25.936 20.9256 25.936 20.9079 25.989Z" fill="#FFCD5A"/>
<path d="M28.4409 21.7019L28.5774 22.1112L29.0088 22.1145C29.0646 22.1149 29.0878 22.1862 29.0428 22.2194L28.6959 22.4756L28.826 22.8869C28.8428 22.9402 28.7823 22.9842 28.7368 22.9518L28.3858 22.7009L28.0348 22.9518C27.9893 22.9842 27.9288 22.9403 27.9456 22.8869L28.0758 22.4756L27.7288 22.2194C27.6839 22.1862 27.707 22.115 27.7629 22.1145L28.1942 22.1112L28.3307 21.7019C28.3483 21.6489 28.4232 21.6489 28.4409 21.7019Z" fill="#FFCD5A"/>
<path d="M30.2563 23.5241L30.3928 23.9333L30.8242 23.9367C30.8801 23.9371 30.9032 24.0083 30.8583 24.0416L30.5113 24.2978L30.6415 24.7091C30.6583 24.7624 30.5977 24.8064 30.5522 24.774L30.2012 24.5231L29.8503 24.774C29.8048 24.8064 29.7442 24.7624 29.761 24.7091L29.8912 24.2978L29.5442 24.0416C29.4993 24.0083 29.5224 23.9372 29.5783 23.9367L30.0096 23.9333L30.1462 23.5241C30.1637 23.4711 30.2386 23.4711 30.2563 23.5241Z" fill="#FFCD5A"/>
<path d="M30.9225 25.989L31.0591 26.3983L31.4904 26.4016C31.5463 26.402 31.5694 26.4733 31.5245 26.5065L31.1775 26.7627L31.3076 27.174C31.3244 27.2273 31.2638 27.2713 31.2183 27.2389L30.8674 26.988L30.5164 27.2389C30.4709 27.2713 30.4103 27.2274 30.4271 27.174L30.5572 26.7627L30.2102 26.5065C30.1653 26.4733 30.1885 26.4021 30.2443 26.4016L30.6757 26.3983L30.8122 25.989C30.83 25.936 30.9049 25.936 30.9225 25.989Z" fill="#FFCD5A"/>
</g>
<defs>
<clipPath id="clip0_3462_29228">
<rect width="50" height="50" fill="white" transform="translate(0.914062 0.601562)"/>
</clipPath>
</defs>
</svg>
