<svg width="51" height="51" viewBox="0 0 51 51" fill="none" xmlns="http://www.w3.org/2000/svg">
<g clip-path="url(#clip0_3462_29223)">
<path d="M0.34375 34.2228V10.0848C0.34375 9.60869 0.729785 9.22266 1.20586 9.22266H38.2748L0.34375 34.2228Z" fill="#73AF00"/>
<path d="M50.3441 16.9805V41.1184C50.3441 41.5944 49.9581 41.9805 49.482 41.9805H12.4131L50.3441 16.9805Z" fill="#4173CD"/>
<path d="M50.3438 17.4675V10.0848C50.3438 9.60869 49.9577 9.22266 49.4816 9.22266H37.7597L0.34375 33.7366V41.1192C0.34375 41.5953 0.729785 41.9813 1.20586 41.9813H12.9278L50.3438 17.4675Z" fill="#FFE15A"/>
<path d="M50.3438 14.3762V10.0848C50.3438 9.60869 49.9577 9.22266 49.4816 9.22266H42.4779L0.34375 36.8279V41.1193C0.34375 41.5954 0.729785 41.9814 1.20586 41.9814H8.20957L50.3438 14.3762Z" fill="#464655"/>
</g>
<defs>
<clipPath id="clip0_3462_29223">
<rect width="50" height="50" fill="white" transform="translate(0.34375 0.601562)"/>
</clipPath>
</defs>
</svg>
