<svg width="51" height="51" viewBox="0 0 51 51" fill="none" xmlns="http://www.w3.org/2000/svg">
<g clip-path="url(#clip0_3462_29217)">
<path d="M49.7783 41.9785H1.49707C1.01855 41.9785 0.637695 41.5879 0.637695 41.1191V10.084C0.637695 9.60547 1.02832 9.22461 1.49707 9.22461H49.7686C50.2471 9.22461 50.6279 9.61523 50.6279 10.084V41.1191C50.6377 41.5977 50.2471 41.9785 49.7783 41.9785Z" fill="#F5F5F5"/>
<path d="M49.7793 41.9785H1.49805C1.01953 41.9785 0.638672 41.5879 0.638672 41.1191V36.8125H50.6387V41.1191C50.6387 41.5977 50.2481 41.9785 49.7793 41.9785Z" fill="#FF4B55"/>
<path d="M1.49805 9.22461H49.7695C50.248 9.22461 50.6289 9.61523 50.6289 10.084V14.3906H0.638672V10.084C0.638672 9.60547 1.0293 9.22461 1.49805 9.22461Z" fill="#FF4B55"/>
<path d="M50.6377 19.5664H0.637695V31.6367H50.6377V19.5664Z" fill="#41479B"/>
</g>
<defs>
<clipPath id="clip0_3462_29217">
<rect width="50" height="50" fill="white" transform="translate(0.636719 0.601562)"/>
</clipPath>
</defs>
</svg>
