<svg width="51" height="51" viewBox="0 0 51 51" fill="none" xmlns="http://www.w3.org/2000/svg">
<g clip-path="url(#clip0_3462_29062)">
<path d="M49.204 41.9812H0.928511C0.452439 41.9812 0.0664062 41.5951 0.0664062 41.1191V10.0848C0.0664062 9.60869 0.452439 9.22266 0.928511 9.22266H49.2041C49.6802 9.22266 50.0662 9.60869 50.0662 10.0848V41.1191C50.0661 41.5952 49.6801 41.9812 49.204 41.9812Z" fill="#FFE15A"/>
<path d="M50.0671 11.8086H2.65332V39.3944H50.0671V11.8086Z" fill="#41479B"/>
<path d="M2.65137 11.8086L26.3581 25.6016L14.5048 11.8087L2.65137 11.8086Z" fill="#FF4B55"/>
<path d="M26.3584 25.6016V11.8086L38.2119 11.8087L26.3584 25.6016Z" fill="#FF4B55"/>
<path d="M50.0652 11.8086L26.3584 25.6016L50.0652 18.705V11.8086Z" fill="#FF4B55"/>
<path d="M26.3584 25.6016H50.0652V32.4981L26.3584 25.6016Z" fill="#FF4B55"/>
<path d="M26.3579 25.6015L2.65137 18.7051V25.6016L26.3579 25.6015Z" fill="#FF4B55"/>
<path d="M2.65137 32.4982L26.3579 25.6016L2.65137 39.3946V32.4982Z" fill="#FF4B55"/>
<path d="M26.7578 23.0785L29.849 15.9492L27.5666 23.377L26.7578 23.0785Z" fill="#FFE15A"/>
<path d="M30.828 27.1776C30.8954 26.9869 30.9542 26.7924 30.9969 26.5914L36.1489 27.0484L31.0809 26.0239C31.0933 25.8843 31.1022 25.7437 31.1022 25.6009C31.1022 25.4634 31.0931 25.3282 31.0816 25.1937L36.1083 24.1351L31.0019 24.6298C30.9571 24.4151 30.8936 24.2079 30.8209 24.0048L35.384 21.6193L30.5969 23.48C30.4749 23.2371 30.3327 23.0067 30.1726 22.7897L33.9562 19.3011L29.8069 22.351C29.3669 21.8846 28.8359 21.5058 28.2389 21.2479L29.7459 16.3439L27.7031 21.0554C27.2771 20.9297 26.8276 20.8595 26.361 20.8595C25.8908 20.8595 25.4374 20.9303 25.0085 21.0579L22.9645 16.3438L24.473 21.2525C23.8781 21.5112 23.3488 21.8899 22.9105 22.3558L18.7543 19.3008L22.5448 22.7958C22.3855 23.0121 22.2445 23.2415 22.1232 23.4836L17.3265 21.619L21.8993 24.0097C21.8274 24.2116 21.7642 24.4173 21.7199 24.6306L16.6021 24.1348L21.6402 25.1959C21.6288 25.3295 21.6197 25.464 21.6197 25.6007C21.6197 25.7427 21.6287 25.8826 21.6409 26.0213L16.5615 27.0481L21.7248 26.5901C21.7673 26.7897 21.8255 26.9828 21.8922 27.1723L17.3387 29.4991L22.1122 27.6947C22.886 29.2616 24.4955 30.3422 26.3612 30.3422C28.2255 30.3422 29.8339 29.2635 30.6084 27.6986L35.3722 29.4993L30.828 27.1776Z" fill="#FFE15A"/>
<path d="M50.0668 39.3953L26.902 25.9177C26.567 25.7228 26.1532 25.7228 25.8182 25.9177L2.65332 39.3953H50.0668Z" fill="#F5F5F5"/>
<path d="M26.3635 32.5443C26.4623 32.5443 26.5424 32.464 26.5424 32.3649C26.5424 32.2659 26.4623 32.1855 26.3635 32.1855C26.2647 32.1855 26.1846 32.2659 26.1846 32.3649C26.1846 32.464 26.2647 32.5443 26.3635 32.5443Z" fill="#FF4B55"/>
<path d="M26.0893 26.3555C26.6275 27.0208 25.7567 27.3535 25.8643 27.9895C25.8643 27.9895 25.6883 27.7253 25.7567 27.3535C25.8252 26.9817 25.5903 26.8643 25.5903 26.8643C25.5903 26.8643 25.6979 27.285 25.4338 27.5198C25.1695 27.7546 25.2479 28.2928 25.2479 28.2928C25.2479 28.2928 24.9153 28.0678 24.9837 27.7253C24.9837 27.7253 24.5336 28.1167 24.9348 28.7722C24.9348 28.7722 24.6705 28.7526 24.5727 28.5864C24.5727 28.5864 24.3384 29.2762 25.2823 29.8021C26.2263 30.3281 26.3633 29.0757 26.3633 29.0757L27.0384 29.9172C27.0384 29.9172 27.8471 29.8943 28.2321 29.0267L27.7689 29.1115C27.7982 28.8669 28.4179 28.8017 28.1733 28.0679C28.1733 28.0679 28.1537 28.2244 27.9776 28.3321C27.9776 28.3321 27.9842 27.8266 27.6189 27.4938C27.6189 27.4938 27.6058 27.7645 27.4885 27.8624C27.4885 27.8624 27.5276 27.5134 27.3124 27.2394C27.1067 26.9777 27.0874 26.7372 27.0874 26.7372C27.0874 26.7372 26.8428 27.1873 26.9308 27.4123C26.9308 27.4123 26.7268 27.3627 26.7058 27.0894C26.6601 26.4957 26.0893 26.3555 26.0893 26.3555Z" fill="#FF4B55"/>
<path d="M26.364 32.35C27.2073 32.35 27.891 32.057 27.891 31.6955C27.891 31.334 27.2073 31.041 26.364 31.041C25.5206 31.041 24.8369 31.334 24.8369 31.6955C24.8369 32.057 25.5206 32.35 26.364 32.35Z" fill="#FFE15A"/>
<path d="M26.3644 32.1445C27.0937 32.1445 27.6849 31.8796 27.6849 31.5527C27.6849 31.2259 27.0937 30.9609 26.3644 30.9609C25.6352 30.9609 25.0439 31.2259 25.0439 31.5527C25.0439 31.8796 25.6352 32.1445 26.3644 32.1445Z" fill="#FF4B55"/>
<path d="M26.6395 31.6289H26.0858C26.076 31.8016 26.1542 32.052 26.3621 32.1428V32.1434C26.3622 32.1434 26.3623 32.1432 26.3623 32.1432C26.3623 32.1432 26.3627 32.1434 26.3629 32.1434V32.1428C26.571 32.052 26.6492 31.8016 26.6395 31.6289Z" fill="#FF82AA"/>
<path d="M27.0804 31.5234L26.5781 31.6413C26.6087 31.8114 26.7368 32.0387 26.9464 32.0828L26.9465 32.0834L26.9468 32.083C26.9469 32.083 26.9471 32.0832 26.9471 32.0832V32.0826C27.1149 31.9499 27.1286 31.6895 27.0804 31.5234Z" fill="#FF82AA"/>
<path d="M27.3399 31.3418L26.9902 31.5709C27.0787 31.7194 27.2653 31.8966 27.4465 31.8864L27.4468 31.8868L27.4469 31.8864C27.4469 31.8864 27.4472 31.8865 27.4473 31.8865L27.447 31.8861C27.5286 31.7239 27.4408 31.482 27.3399 31.3418Z" fill="#FF82AA"/>
<path d="M27.329 30.9883L27.1914 31.3355C27.3779 31.5728 27.6837 31.5483 27.6837 31.5483C27.696 31.3552 27.4549 31.1065 27.329 30.9883Z" fill="#FF82AA"/>
<path d="M25.6416 31.5234L26.1438 31.6413C26.1132 31.8114 25.9851 32.0387 25.7756 32.0828L25.7756 32.0834L25.7753 32.083L25.7749 32.0832L25.775 32.0826C25.6069 31.9499 25.5931 31.6895 25.6416 31.5234Z" fill="#FF82AA"/>
<path d="M25.3804 31.3418L25.7301 31.5709C25.6416 31.7194 25.455 31.8966 25.2739 31.8864L25.2736 31.8868L25.2735 31.8864L25.2731 31.8865L25.2734 31.8861C25.1917 31.7239 25.2795 31.482 25.3804 31.3418Z" fill="#FF82AA"/>
<path d="M25.3922 30.9883L25.5298 31.3355C25.3433 31.5728 25.0376 31.5483 25.0376 31.5483C25.0253 31.3552 25.2664 31.1065 25.3922 30.9883Z" fill="#FF82AA"/>
<path d="M26.3647 31.6754C26.9567 31.6754 27.4365 31.4604 27.4365 31.1951C27.4365 30.9299 26.9567 30.7148 26.3647 30.7148C25.7728 30.7148 25.293 30.9299 25.293 31.1951C25.293 31.4604 25.7728 31.6754 26.3647 31.6754Z" fill="#FFE15A"/>
<path d="M26.3648 31.507C26.8053 31.507 27.1623 31.3673 27.1623 31.1949C27.1623 31.0225 26.8053 30.8828 26.3648 30.8828C25.9244 30.8828 25.5674 31.0225 25.5674 31.1949C25.5674 31.3673 25.9244 31.507 26.3648 31.507Z" fill="#FF4B55"/>
<path d="M26.4444 36.5902C25.9232 36.6345 25.4653 36.247 25.4208 35.7265C25.3979 35.4664 25.5919 35.2367 25.8524 35.2146C26.1129 35.1925 26.3419 35.3856 26.3639 35.6463C26.3861 35.9069 26.6156 36.0996 26.8757 36.078C27.1364 36.0559 27.3298 35.8259 27.3072 35.5659C27.3516 36.0873 26.9653 36.5457 26.4444 36.5902Z" fill="#41479B"/>
<path d="M25.4205 35.7268C25.3976 35.4666 25.5915 35.2369 25.8521 35.2149C26.1125 35.1927 26.3415 35.3859 26.3636 35.6465C26.3858 35.9072 26.6153 36.0998 26.8753 36.0782C27.1361 36.0562 27.3295 35.8262 27.3069 35.5661C27.2632 35.0444 26.8048 34.6584 26.2836 34.7027C25.7627 34.7473 25.3761 35.2056 25.4205 35.7268Z" fill="#FF9B55"/>
<path d="M26.3642 34.0957C25.5083 34.0957 24.8145 34.7895 24.8145 35.6455C24.8145 36.5015 25.5083 37.1953 26.3642 37.1953C27.2202 37.1953 27.914 36.5014 27.914 35.6455C27.914 34.7895 27.2201 34.0957 26.3642 34.0957ZM26.3642 36.8725C25.6867 36.8725 25.1373 36.3232 25.1373 35.6456C25.1373 34.968 25.6866 34.4187 26.3642 34.4187C27.0419 34.4187 27.5912 34.968 27.5912 35.6456C27.5912 36.3232 27.0418 36.8725 26.3642 36.8725Z" fill="#FFE15A"/>
<path d="M26.3646 34.4199C25.6871 34.4199 25.1377 34.9692 25.1377 35.6469C25.1377 36.3245 25.687 36.8738 26.3646 36.8738C27.0423 36.8738 27.5916 36.3245 27.5916 35.6469C27.5916 34.9692 27.0422 34.4199 26.3646 34.4199ZM26.3646 36.5866C25.8456 36.5866 25.4248 36.1658 25.4248 35.6468C25.4248 35.1277 25.8456 34.7069 26.3646 34.7069C26.8837 34.7069 27.3045 35.1277 27.3045 35.6468C27.3044 36.1659 26.8837 36.5866 26.3646 36.5866Z" fill="#FF4B55"/>
<path d="M25.8876 35.7641C25.9528 35.7641 26.0056 35.7111 26.0056 35.6457C26.0056 35.5803 25.9528 35.5273 25.8876 35.5273C25.8224 35.5273 25.7695 35.5803 25.7695 35.6457C25.7695 35.7111 25.8224 35.7641 25.8876 35.7641Z" fill="#FF9B55"/>
<path d="M26.8348 35.7641C26.9 35.7641 26.9529 35.7111 26.9529 35.6457C26.9529 35.5803 26.9 35.5273 26.8348 35.5273C26.7696 35.5273 26.7168 35.5803 26.7168 35.6457C26.7168 35.7111 26.7696 35.7641 26.8348 35.7641Z" fill="#41479B"/>
<path d="M26.3648 33.8592C26.4438 33.8592 26.5079 33.795 26.5079 33.7157C26.5079 33.6365 26.4438 33.5723 26.3648 33.5723C26.2857 33.5723 26.2217 33.6365 26.2217 33.7157C26.2217 33.795 26.2857 33.8592 26.3648 33.8592Z" fill="#FF4B55"/>
<path d="M26.5064 34.1092C26.5854 34.1092 26.6495 34.045 26.6495 33.9657C26.6495 33.8865 26.5854 33.8223 26.5064 33.8223C26.4273 33.8223 26.3633 33.8865 26.3633 33.9657C26.3633 34.045 26.4273 34.1092 26.5064 34.1092Z" fill="#FF4B55"/>
<path d="M26.2212 34.1092C26.3002 34.1092 26.3643 34.045 26.3643 33.9657C26.3643 33.8865 26.3002 33.8223 26.2212 33.8223C26.1422 33.8223 26.0781 33.8865 26.0781 33.9657C26.0781 34.045 26.1422 34.1092 26.2212 34.1092Z" fill="#FF4B55"/>
<path d="M26.3648 37.7244C26.4438 37.7244 26.5079 37.6602 26.5079 37.581C26.5079 37.5017 26.4438 37.4375 26.3648 37.4375C26.2857 37.4375 26.2217 37.5017 26.2217 37.581C26.2217 37.6602 26.2857 37.7244 26.3648 37.7244Z" fill="#FF4B55"/>
<path d="M26.2212 37.4744C26.3002 37.4744 26.3643 37.4102 26.3643 37.331C26.3643 37.2517 26.3002 37.1875 26.2212 37.1875C26.1422 37.1875 26.0781 37.2517 26.0781 37.331C26.0781 37.4102 26.1422 37.4744 26.2212 37.4744Z" fill="#FF4B55"/>
<path d="M26.5064 37.4744C26.5854 37.4744 26.6495 37.4102 26.6495 37.331C26.6495 37.2517 26.5854 37.1875 26.5064 37.1875C26.4273 37.1875 26.3633 37.2517 26.3633 37.331C26.3633 37.4102 26.4273 37.4744 26.5064 37.4744Z" fill="#FF4B55"/>
<path d="M26.102 29.6551C26.0035 29.1054 25.7404 28.6927 25.5144 28.7332C25.2883 28.7737 25.1849 29.2522 25.2834 29.8018C25.3545 30.1984 25.5118 30.5173 25.6785 30.6524C25.6097 30.7705 25.5678 30.9506 25.5669 31.1736C25.6907 31.1842 25.8183 31.1836 25.9493 31.1601C26.0803 31.1366 26.2002 31.0929 26.3126 31.04C26.2343 30.8312 26.1324 30.6769 26.0268 30.59C26.1362 30.4054 26.1731 30.0518 26.102 29.6551Z" fill="#FF9B55"/>
<path d="M26.6236 29.6551C26.7222 29.1054 26.9852 28.6927 27.2113 28.7332C27.4374 28.7737 27.5407 29.2522 27.4423 29.8018C27.3712 30.1984 27.2139 30.5173 27.0472 30.6524C27.116 30.7705 27.1579 30.9506 27.1588 31.1736C27.035 31.1842 26.9074 31.1836 26.7764 31.1601C26.6453 31.1368 26.5255 31.0929 26.4131 31.04C26.4914 30.8312 26.5933 30.6769 26.6988 30.59C26.5895 30.4054 26.5524 30.0518 26.6236 29.6551Z" fill="#41479B"/>
<path d="M26.7848 29.6433C26.7848 29.0378 26.5985 28.5469 26.3689 28.5469C26.1394 28.5469 25.9531 29.0377 25.9531 29.6433C25.9531 30.0802 26.0519 30.4506 26.192 30.6267C26.1034 30.7396 26.0304 30.9237 25.9901 31.1617C26.1102 31.1968 26.2358 31.2204 26.3689 31.2204C26.5021 31.2204 26.6277 31.1967 26.7478 31.1617C26.7074 30.9238 26.6345 30.7396 26.5459 30.6267C26.6862 30.4506 26.7848 30.0801 26.7848 29.6433Z" fill="#F5F5F5"/>
<path d="M26.3623 30.7888C26.0914 30.7888 25.8429 30.7636 25.6812 30.719C25.6257 30.7043 25.5931 30.6475 25.6082 30.5915C25.6236 30.5362 25.6821 30.4997 25.7356 30.5192C26.0215 30.5955 26.703 30.5955 26.9889 30.5192C27.0444 30.499 27.1014 30.5362 27.1163 30.5915C27.1312 30.6476 27.0988 30.7044 27.0432 30.719C26.8816 30.7637 26.6332 30.7888 26.3623 30.7888Z" fill="#FFE15A"/>
<path d="M25.4727 32.4337C25.5849 32.4191 25.7264 32.3848 25.7362 32.2136C25.7362 32.2136 25.4825 32.1892 25.4825 32.2087C25.4825 32.2283 25.4727 32.4337 25.4727 32.4337Z" fill="#FFE15A"/>
<path d="M22.9189 31.7971C23.0458 31.833 23.1695 31.859 23.2085 32.0157C23.2085 32.0157 23.3387 31.7548 23.1565 31.5982C23.1233 31.5696 22.9189 31.7971 22.9189 31.7971Z" fill="#FF4B55"/>
<path d="M23.4609 31.3596C23.5878 31.3954 23.7115 31.4215 23.7505 31.5782C23.7505 31.5782 23.8807 31.3173 23.6985 31.1607C23.6653 31.1322 23.4609 31.3596 23.4609 31.3596Z" fill="#FF4B55"/>
<path d="M22.959 32.2657C22.8807 32.246 22.7436 32.07 22.9198 31.796C23.096 31.5221 22.3229 31.933 22.2936 32.1581C22.2643 32.3831 22.2349 32.7843 22.4111 32.6768C22.5872 32.569 22.959 32.2657 22.959 32.2657Z" fill="#FFE15A"/>
<path d="M23.7977 32.2956C23.8237 32.152 23.7977 32.0542 23.9803 31.9238C24.1629 31.7935 24.189 31.7216 24.189 31.6367C24.189 31.6367 24.0896 31.7428 23.9133 31.7867C23.8056 31.8137 23.7128 31.8911 23.7128 31.8911C23.7128 31.8911 23.6671 31.728 23.8303 31.6367C23.8303 31.6367 23.5432 31.6367 23.4977 31.8976C23.452 32.1584 23.6021 32.1977 23.3868 32.2237C23.1715 32.2498 22.6693 32.1455 22.4932 32.5434C22.3171 32.9413 22.8519 32.6542 22.9954 32.602C23.139 32.5499 23.5955 32.6607 23.6673 32.5629C23.739 32.4652 23.7977 32.2956 23.7977 32.2956Z" fill="#FF4B55"/>
<path d="M21.9177 33.0098L22.6907 31.7378C22.6907 31.7378 23.4587 31.441 23.4653 31.4018C23.4718 31.3626 23.7197 31.0431 23.7197 30.9974C23.7197 30.9517 23.6936 30.7299 23.5958 30.6908C23.4979 30.6517 23.1864 30.7832 23.051 30.8178C22.9157 30.8523 22.7021 30.5996 22.7021 30.5996C22.7021 30.5996 21.4562 30.8344 21.3648 30.9845C21.2735 31.1345 20.8429 32.2107 20.8234 32.3218C20.8038 32.4326 20.8234 33.1959 20.8495 33.1829C20.8756 33.1695 21.9177 33.0098 21.9177 33.0098Z" fill="#FFF5E6"/>
<path d="M23.7645 30.8074C23.647 30.6378 23.4319 30.6378 23.3405 30.7749C23.2492 30.9118 23.0536 30.9118 23.0079 31.0814C22.9717 31.2154 23.1905 31.4597 23.3211 31.414C23.4516 31.3683 23.6928 31.2183 23.6928 31.2183C23.6928 31.2183 23.882 30.9769 23.7645 30.8074ZM23.4073 31.1527C23.3538 31.2212 23.2194 31.136 23.2185 31.06C23.2176 30.9841 23.3298 30.9799 23.3856 31.0193C23.4219 31.045 23.451 31.0969 23.4073 31.1527ZM23.6084 30.9837C23.53 31.0214 23.447 30.8857 23.4798 30.8172C23.5126 30.7486 23.6151 30.7943 23.6477 30.8544C23.6691 30.8935 23.6722 30.953 23.6084 30.9837Z" fill="#FF4B55"/>
<path d="M24.0122 35.7419C24.1422 35.755 24.3143 35.7371 24.35 35.443C24.391 35.1059 24.493 34.9881 24.6618 35.0661C24.8307 35.1441 24.7889 35.2788 24.7889 35.2788C24.7889 35.2788 24.9747 35.7681 24.8769 35.9637C24.7791 36.1594 24.5541 36.3941 24.3877 36.4333C24.2213 36.4724 23.8789 36.2475 23.8789 36.2475L24.0122 35.7419Z" fill="#FFF5E6"/>
<path d="M23.0737 34.6047C23.1846 34.5526 24.5544 33.6003 24.7176 33.2414C24.8807 32.8827 24.7893 32.6217 25.0047 32.6087C25.22 32.5956 25.5852 32.5826 25.5526 32.3151C25.52 32.0476 25.1612 32.2173 25.0634 32.1651C24.9655 32.113 24.659 31.9694 24.6002 32.1782C24.5414 32.387 24.6002 32.5761 24.5154 32.6804C24.4307 32.7848 24.0522 32.9675 23.9871 32.9544C23.9219 32.9413 23.7826 32.9243 23.6761 32.9916C23.5695 33.0589 23.5108 33.1501 23.5108 33.1501C23.5108 33.1501 23.1097 33.1664 23.0525 33.2202C22.9954 33.274 22.7803 33.561 22.7803 33.561L23.0737 34.6047Z" fill="#FFE6D7"/>
<path d="M23.217 34.3889C23.217 34.3889 23.4778 34.291 23.6639 33.9289C23.8497 33.5668 24.0356 33.7136 24.3097 33.5179C24.5836 33.3222 24.4075 33.0286 24.3293 32.9113C24.2511 32.7938 24.3049 32.4906 24.5739 32.5002C24.751 32.5067 25.3176 33.0579 25.0632 33.6059C25.0632 33.6059 25.024 33.508 24.9263 33.3906C24.9263 33.3906 25.073 33.7527 24.7306 34.1537C24.7306 34.1537 24.7403 33.9483 24.6327 33.8113C24.6327 33.8113 24.6229 34.3201 24.2315 34.6429C24.2315 34.6429 24.2805 34.3103 24.2218 34.1733C24.2218 34.1733 24.1631 34.6136 23.5857 35.0148C23.5857 35.0148 23.6738 34.8582 23.6543 34.6037L23.165 34.8581L23.217 34.3889Z" fill="#5AA587"/>
<path d="M19.4949 36.063C19.4949 36.063 19.3188 36.6011 19.7982 36.7577C20.2776 36.9142 20.5419 36.7088 20.718 36.7577C20.894 36.8066 20.8549 37.1198 20.6103 37.3838C20.3657 37.6481 20.1211 37.6774 19.8471 37.4817C19.5731 37.286 19.5535 37.1099 19.2698 37.1784C18.9861 37.2469 18.5947 36.9729 18.5947 36.9729C18.5947 36.9729 18.8491 35.8673 18.8784 35.877C18.9078 35.8869 19.4949 36.063 19.4949 36.063Z" fill="#F5DCD2"/>
<path d="M17.0078 34.7165C17.0078 34.7165 17.3456 34.3916 18.6582 33.9888C19.9707 33.5859 20.6724 33.417 20.6724 33.417L21.6991 33.0921C21.6991 33.0921 22.1823 33.0902 22.4994 33.0002C22.8166 32.9102 22.8166 32.9102 22.8166 32.9102C22.8166 32.9102 23.6614 34.1058 23.0247 35.3142L23.2456 35.5223C23.2456 35.5223 23.4778 35.5931 23.654 35.6552C23.8303 35.7173 23.7003 36.0551 23.7003 36.0551L23.0246 36.3669L21.0493 36.276C21.0493 36.276 21.0103 36.185 20.3605 36.3928C19.7107 36.6009 19.4249 36.133 18.1773 36.0939C16.9299 36.0551 17.0078 34.7165 17.0078 34.7165Z" fill="#FFF5E6"/>
<path d="M22.6219 30.0512C22.6219 30.0512 22.8209 30.2501 22.7133 30.462C22.7133 30.462 22.4915 30.2338 22.3089 30.1816C22.0277 30.1013 21.9696 30.2549 21.3483 30.2843C20.9574 30.3028 20.7995 30.6774 20.4172 30.5861C20.0079 30.4882 19.6703 30.6757 19.6703 30.6757C19.6703 30.6757 19.9051 30.6464 20.096 30.8275C20.2867 31.0084 20.6243 30.9693 20.6243 30.9693C20.6243 30.9693 20.3161 31.1846 20.0568 31.0818C19.7976 30.9789 19.4257 31.1698 19.4257 31.1698C19.4941 31.165 19.6458 31.1894 19.8171 31.3703C19.9884 31.5513 20.37 31.5072 20.37 31.5072C20.3016 31.5904 20.1107 31.6833 19.9305 31.6488C19.5219 31.5705 19.0857 31.7528 19.0857 31.7528C19.0857 31.7528 19.3457 31.6619 19.6965 31.9218C20.0474 32.1816 20.4503 32.0258 20.4503 32.0258C20.4503 32.1947 20.0986 32.8455 19.4747 32.8234C18.6979 32.796 18.501 33.2474 18.501 33.2474C18.501 33.2474 18.8128 33.1434 19.2157 33.2084C19.9961 33.3343 20.5282 32.8835 20.5282 32.8835C20.5282 32.8835 20.3982 33.4942 19.8655 33.4683C19.3328 33.4423 18.657 33.9881 18.657 33.9881C18.657 33.9881 19.2573 33.8799 20.0326 33.8704C20.2876 33.8673 20.4949 33.7667 20.6722 33.6472C21.1384 33.3323 21.5688 33.3323 21.5688 33.3323C21.06 33.4498 20.7959 34.0074 20.7959 34.0074C20.7959 34.0074 21.1873 33.6649 21.7547 33.6649C22.3222 33.6649 22.4983 32.9996 22.4983 32.9996C21.97 33.0093 21.8917 32.5788 21.8917 32.5788C21.8917 32.5788 21.7351 32.6277 21.5884 32.8039C21.4955 32.9153 21.3386 32.9531 21.2311 32.9682C21.192 32.6251 21.4511 32.3118 21.4511 32.3118C21.4511 32.3118 21.1002 31.7791 21.5551 31.2072C22.0099 30.6355 23.0495 30.8174 23.0495 30.8174C23.1569 30.3381 22.7525 30.0381 22.6219 30.0512Z" fill="#5AA587"/>
<path d="M21.5654 31.9432C21.7351 31.9171 22.5244 31.6561 22.5112 31.3039C22.4981 30.9517 22.0285 31.0756 22.0547 31.2647C22.0808 31.4539 22.2504 31.4147 22.2504 31.4147C22.2504 31.4147 22.234 31.5 21.8851 31.5713C21.598 31.63 21.5654 31.9432 21.5654 31.9432Z" fill="#5AA587"/>
<path d="M23.6529 35.6546C23.6529 35.6546 24.1421 35.5764 24.1225 35.9285C24.1029 36.2808 23.8224 36.6525 23.2419 36.8157C23.2419 36.8157 23.4572 36.6299 23.4083 36.5222C23.3594 36.4145 23.1148 36.3852 22.9876 36.5711C22.8605 36.7569 22.6451 36.8353 22.4593 36.8059C22.4593 36.8059 22.7919 36.5612 22.5572 36.4732C22.3456 36.3939 22.4267 36.7375 21.9211 36.7961C21.9211 36.7961 22.2929 36.5025 22.0777 36.4243C21.8624 36.3461 21.7451 36.8548 21.3633 36.8157C21.3633 36.8157 21.6829 36.4961 21.5101 36.4439C21.2378 36.3617 21.1676 36.8353 20.6785 36.6298C20.6785 36.6298 20.9231 36.5222 20.7274 36.258C20.5317 35.9937 20.8056 35.6611 20.9427 35.5242C21.0798 35.3873 21.1775 35.2992 21.1384 35.1621C21.1384 35.1621 21.4874 35.3807 21.3113 35.7654C21.1458 36.1269 21.8154 35.9272 22.3354 35.8829C22.8703 35.8372 23.1876 36.144 23.5291 36.0394C23.8486 35.9415 23.6529 35.6546 23.6529 35.6546Z" fill="#5AA587"/>
<path d="M14.1865 35.8203C14.1865 35.8203 14.8283 36.1163 15.1922 35.8174C15.556 35.5185 15.6549 35.8723 16.0838 35.6123C16.5127 35.3524 16.4866 35.4954 16.8245 35.4954C17.1623 35.4954 17.4093 34.9496 17.2014 34.5728C17.2014 34.5728 17.907 34.2991 17.7622 33.7333C17.6546 33.3126 17.1233 33.4423 17.1233 33.4423C17.1233 33.4423 16.5628 33.09 16.1747 33.5463C15.8576 33.9193 16.0317 34.1701 15.4989 34.2351C14.9662 34.3 14.8882 34.8458 14.3164 34.7809C14.3164 34.7809 14.7062 35.2877 15.304 34.9628C15.3041 34.9627 15.2901 35.4521 14.1865 35.8203Z" fill="#5AA587"/>
<path d="M19.8655 36.7773C19.8655 36.7773 20.4135 37.2666 19.3372 37.5601C19.3372 37.5601 19.4058 37.472 19.484 37.3154C19.484 37.3154 19.1514 37.5601 18.7207 37.5404C18.7207 37.5404 18.8478 37.4426 18.8772 37.3251C18.8772 37.3251 18.4858 37.4327 18.2021 37.2469C18.2021 37.2469 18.5446 37.2272 18.7599 36.9044C18.7599 36.9044 18.8577 37.1001 19.0632 37.0022C19.2686 36.9044 19.3864 37.0451 19.572 37.0512C19.7235 37.0562 19.8557 36.9779 19.8655 36.7773Z" fill="#5AA587"/>
<path d="M19.5952 33.7559C19.5952 33.7559 19.2038 33.9385 19.3865 34.2842C19.5083 34.5146 19.8897 34.57 20.0387 34.356C20.1659 34.1733 20.065 33.996 19.9311 33.971C19.7909 33.9449 19.7061 34.0036 19.6408 34.121C19.6408 34.1211 19.3994 34.0299 19.5952 33.7559Z" fill="#5AA587"/>
<path d="M21.3535 34.3652C21.3535 34.3652 22.2034 34.3976 22.1607 34.9865C22.142 35.2457 21.7914 35.4267 21.5703 35.2907C21.3816 35.1748 21.4122 34.9816 21.5106 34.896C21.619 34.8017 21.7263 34.8356 21.8327 34.9169C21.8327 34.9168 21.8867 34.5951 21.3535 34.3652Z" fill="#5AA587"/>
<path d="M23.0508 33.2205C23.0508 33.2205 23.5095 32.9128 23.6882 33.2791C23.7667 33.4404 23.6202 33.6697 23.4411 33.6653C23.2883 33.6613 23.2397 33.5355 23.2687 33.4503C23.3007 33.3565 23.3766 33.3397 23.4681 33.3512C23.4682 33.3513 23.4959 33.1129 23.0508 33.2205Z" fill="#5AA587"/>
<path d="M23.6748 32.9905C23.6748 32.9905 24.0979 32.7065 24.2627 33.0446C24.3352 33.1933 24.2 33.405 24.0348 33.4008C23.8938 33.3972 23.849 33.2811 23.8758 33.2025C23.9053 33.116 23.9752 33.1004 24.0599 33.111C24.0598 33.1111 24.0854 32.8913 23.6748 32.9905Z" fill="#5AA587"/>
<path d="M22.0889 34.8672C22.0889 34.8672 22.8202 34.895 22.7835 35.4019C22.7673 35.6248 22.4657 35.7806 22.2754 35.6636C22.113 35.5638 22.1043 35.3807 22.1747 35.2934C22.297 35.1417 22.4437 35.2102 22.4437 35.2102C22.4437 35.2102 22.5477 35.065 22.0889 34.8672Z" fill="#5AA587"/>
<path d="M22.625 35.2695C22.625 35.2695 23.4322 35.1913 23.3723 35.7361C23.3566 35.8782 23.169 35.9784 23.0473 35.9036C22.9434 35.8398 22.9378 35.7226 22.9829 35.6668C23.0611 35.5698 23.155 35.6136 23.155 35.6136C23.155 35.6136 23.1044 35.3723 22.625 35.2695Z" fill="#5AA587"/>
<path d="M17.45 37.8617C17.45 37.8617 17.5604 38.0859 17.6319 38.3035C17.6932 38.4897 18.0088 38.6153 18.1777 38.4984C18.3467 38.3815 18.6319 38.0319 18.515 37.954C18.3981 37.876 17.8919 37.9396 17.814 37.6667C17.7359 37.3937 17.762 37.2118 17.762 37.2118C17.762 37.2118 18.4392 37.4133 18.7622 36.9045C19.0851 36.3957 19.0389 35.8989 19.1655 35.6523C19.2644 35.4596 19.4385 35.3665 19.4385 35.3665C19.2395 34.5788 16.8135 34.015 17.095 36.0596L16.7139 36.926L17.45 37.8617Z" fill="#FFE6D7"/>
<path d="M16.591 37.8259C16.7574 37.9335 17.3673 38.2434 17.7456 38.0085C18.055 37.8165 18.0588 37.5975 17.8631 37.5485C17.6674 37.4996 17.5598 37.6366 17.452 37.5485C17.3444 37.4606 16.7377 36.9614 16.9628 36.8049C17.1879 36.6484 17.3097 36.5217 17.3053 36.2472C17.302 36.0449 17.1259 35.8492 16.9171 35.8297C16.6568 35.8054 16.4539 35.9145 16.18 35.9145L16.4996 36.0776C16.2941 36.1754 16.2778 36.4527 16.0332 36.5016C16.0332 36.5016 16.1996 36.6907 16.4083 36.632C16.4083 36.632 16.3365 36.8278 16.1408 36.8538C16.1408 36.8538 16.3234 37.0625 16.4931 37.1213C16.4931 37.1213 16.3822 37.1995 16.2094 37.167C16.2094 37.167 16.4801 37.565 16.8845 37.666L16.591 37.8259Z" fill="#5AA587"/>
<path d="M17.7699 37.0811C17.7699 37.0811 17.8785 37.0622 17.8878 36.9299C17.8932 36.8536 17.817 36.7547 17.6874 36.7621C17.5356 36.7708 17.4325 36.9725 17.5053 37.1062C17.6915 37.448 18.3849 37.3107 18.4697 37.1868C18.4698 37.1868 17.9154 37.2129 17.7699 37.0811Z" fill="#5AA587"/>
<path d="M18.0939 38.7075C18.124 38.6651 18.1484 38.5502 18.0898 38.4792C18.0898 38.4792 18.1216 38.3153 18.246 38.374C18.246 38.374 18.2989 38.5053 18.2565 38.5967C18.2143 38.6879 18.0939 38.7075 18.0939 38.7075Z" fill="#FFE15A"/>
<path d="M18.348 38.6139C18.3458 38.4957 18.3193 38.431 18.2243 38.4212C18.2243 38.4212 18.1999 38.25 18.3414 38.25C18.3414 38.25 18.4463 38.3429 18.4473 38.4437C18.4482 38.5442 18.348 38.6139 18.348 38.6139Z" fill="#FFE15A"/>
<path d="M18.5046 38.5009C18.4814 38.385 18.4595 38.3043 18.3536 38.2965C18.3536 38.2965 18.2973 38.1563 18.4534 38.1367C18.4534 38.1367 18.5529 38.2168 18.5719 38.3156C18.5908 38.4145 18.5046 38.5009 18.5046 38.5009Z" fill="#FFE15A"/>
<path d="M18.6622 38.3195C18.6142 38.2115 18.5663 38.1684 18.4613 38.184C18.4613 38.184 18.371 38.0568 18.4955 37.9883C18.4955 37.9883 18.6471 38.0316 18.6871 38.1239C18.7272 38.2162 18.6622 38.3195 18.6622 38.3195Z" fill="#FFE15A"/>
<path d="M20.52 37.6591C20.5421 37.612 20.5458 37.4945 20.4756 37.4351C20.4756 37.4351 20.4777 37.2682 20.6106 37.3038C20.6106 37.3038 20.6858 37.4236 20.6604 37.5209C20.6349 37.6183 20.52 37.6591 20.52 37.6591Z" fill="#FFE15A"/>
<path d="M20.7541 37.523C20.7312 37.407 20.6937 37.3481 20.5983 37.3554C20.5983 37.3554 20.544 37.1912 20.6832 37.166C20.6832 37.166 20.8029 37.2388 20.8217 37.3377C20.8404 37.4366 20.7541 37.523 20.7541 37.523Z" fill="#FFE15A"/>
<path d="M20.8889 37.3825C20.8456 37.2726 20.8097 37.1971 20.7041 37.2082C20.7041 37.2082 20.6238 37.0802 20.7739 37.0332C20.7739 37.0332 20.886 37.0943 20.9222 37.1882C20.9585 37.2821 20.8889 37.3825 20.8889 37.3825Z" fill="#FFE15A"/>
<path d="M21.0117 37.1772C20.9453 37.0795 20.8906 37.0455 20.79 37.0796C20.79 37.0796 20.6787 36.9704 20.789 36.8809C20.789 36.8809 20.9458 36.8966 21.0017 36.9802C21.0575 37.0641 21.0117 37.1772 21.0117 37.1772Z" fill="#FFE15A"/>
<path d="M23.7711 31.1536C23.7923 31.2595 23.7385 31.3753 23.4842 31.4862C23.2299 31.597 23.2363 31.5514 23.0667 31.7666C22.8971 31.982 22.8775 31.9884 22.6687 32.0275C22.4601 32.0666 22.3622 32.7123 22.61 32.6146C22.8579 32.5167 22.8905 32.3145 23.1644 32.3798C23.4384 32.4452 23.5819 32.5364 23.7972 32.2951C23.7972 32.2951 24.0058 32.5755 23.6145 32.693C23.2231 32.8105 23.0096 32.8195 22.8164 32.9095C22.623 32.9995 21.9375 33.2198 21.8925 32.5788C21.8794 32.393 22.0164 32.3212 22.0947 32.1842C22.1729 32.0473 22.2513 31.9559 22.4404 31.8059C22.6296 31.6559 22.5122 31.532 22.8187 31.4863C23.1253 31.4406 23.3798 31.4471 23.471 31.2254C23.5624 31.0036 23.745 31.0231 23.7711 31.1536Z" fill="#FFE6D7"/>
<path d="M18.6345 34.2644C18.6345 34.2644 18.5758 34.0307 18.8483 33.9316C18.7843 33.9511 18.7255 33.9685 18.6583 33.9892C18.6009 34.0067 18.5554 34.0232 18.5018 34.0405C18.4809 34.0687 18.4528 34.0837 18.4386 34.1232C18.3557 34.3555 18.5608 34.6567 18.8054 34.6239C19.014 34.5958 19.0732 34.4122 19.005 34.3029C18.9335 34.1885 18.7763 34.1616 18.6345 34.2644Z" fill="#5AA587"/>
<path d="M18.7192 36.7463C18.4234 36.8125 18.2903 36.6982 18.2903 36.6982C18.2903 36.6982 18.399 36.6794 18.4083 36.5471C18.4137 36.4708 18.3375 36.3719 18.2079 36.3793C18.056 36.388 17.953 36.5896 18.0259 36.7233C18.1861 37.0174 18.6413 36.948 18.8419 36.7395C18.8524 36.718 18.8634 36.6967 18.8728 36.6753C18.829 36.7031 18.7729 36.7344 18.7192 36.7463Z" fill="#5AA587"/>
<path d="M19.0175 36.2518C19.025 36.2183 19.0356 36.1845 19.0421 36.1525C18.6944 36.2932 18.593 36.1161 18.593 36.1161C18.593 36.1161 18.7017 36.0973 18.711 35.965C18.7164 35.8887 18.6402 35.7898 18.5106 35.7973C18.3588 35.806 18.2557 36.0076 18.3286 36.1413C18.4985 36.4529 18.8012 36.3661 19.0175 36.2518Z" fill="#5AA587"/>
<path d="M19.8005 36.4169C19.5985 36.598 19.4441 36.588 19.4441 36.588C19.4441 36.588 19.5248 36.5129 19.4604 36.397C19.4232 36.3301 19.3054 36.2889 19.2009 36.3658C19.0784 36.4561 19.1022 36.6813 19.2362 36.7535C19.5661 36.9314 19.7801 36.6564 19.8946 36.435C19.8633 36.4307 19.8318 36.4233 19.8005 36.4169Z" fill="#5AA587"/>
<path d="M25.0053 36.2408C24.9908 36.1687 24.9155 36.0315 24.8228 36.0221C24.8228 36.0221 24.7135 35.8297 24.8377 35.7598C24.8377 35.7598 24.9742 35.8339 25.0197 35.9662C25.0653 36.0986 25.0053 36.2408 25.0053 36.2408Z" fill="#FFE15A"/>
<path d="M25.0915 35.8924C24.9971 35.7791 24.9295 35.7431 24.8621 35.8308C24.8621 35.8308 24.7118 35.6886 24.8005 35.544C24.8005 35.544 24.9395 35.5275 25.0196 35.6247C25.0996 35.7221 25.0915 35.8924 25.0915 35.8924Z" fill="#FFE15A"/>
<path d="M25.1003 35.619C24.9943 35.5296 24.9171 35.4732 24.8445 35.5739C24.8445 35.5739 24.6987 35.4946 24.7811 35.3159C24.7811 35.3159 24.9066 35.2923 24.9964 35.3694C25.0863 35.4465 25.1003 35.619 25.1003 35.619Z" fill="#FFE15A"/>
<path d="M25.0566 35.2836C24.9414 35.2274 24.8773 35.2339 24.8238 35.3566C24.8238 35.3566 24.667 35.3246 24.691 35.1306C24.691 35.1306 24.8201 35.0181 24.9181 35.067C25.016 35.1159 25.0566 35.2836 25.0566 35.2836Z" fill="#FFE15A"/>
<path d="M22.5376 31.7012C22.6382 31.7012 22.7198 31.6194 22.7198 31.5186C22.7198 31.4177 22.6382 31.3359 22.5376 31.3359C22.437 31.3359 22.3555 31.4177 22.3555 31.5186C22.3555 31.6194 22.437 31.7012 22.5376 31.7012Z" fill="#F5F5F5"/>
<path d="M22.5377 31.5855C22.5742 31.5855 22.6038 31.5559 22.6038 31.5193C22.6038 31.4828 22.5742 31.4531 22.5377 31.4531C22.5012 31.4531 22.4717 31.4828 22.4717 31.5193C22.4717 31.5559 22.5012 31.5855 22.5377 31.5855Z" fill="#41479B"/>
<path d="M22.9136 30.9998C22.9953 30.9998 23.0615 30.9334 23.0615 30.8515C23.0615 30.7695 22.9953 30.7031 22.9136 30.7031C22.8319 30.7031 22.7656 30.7695 22.7656 30.8515C22.7656 30.9334 22.8319 30.9998 22.9136 30.9998Z" fill="#F5F5F5"/>
<path d="M22.914 30.9045C22.9437 30.9045 22.9677 30.8804 22.9677 30.8507C22.9677 30.821 22.9437 30.7969 22.914 30.7969C22.8844 30.7969 22.8604 30.821 22.8604 30.8507C22.8604 30.8804 22.8844 30.9045 22.914 30.9045Z" fill="#41479B"/>
<path d="M17.6462 34.4385C17.4772 34.5685 16.8928 34.282 16.4818 34.4189C15.9507 34.596 15.9551 34.9374 15.9551 34.9374C15.9551 34.9374 16.2861 34.5266 16.8373 34.7288C17.1423 34.8406 17.3196 34.8465 17.3196 34.8465L17.6462 34.4385Z" fill="#FFF5E6"/>
<path d="M27.245 32.4318C27.1328 32.4171 26.9913 32.3829 26.9814 32.2117C26.9814 32.2117 27.2352 32.1873 27.2352 32.2068C27.2352 32.2263 27.245 32.4318 27.245 32.4318Z" fill="#FFE15A"/>
<path d="M29.7975 31.7971C29.6707 31.833 29.547 31.859 29.5079 32.0157C29.5079 32.0157 29.3778 31.7548 29.5599 31.5982C29.5932 31.5696 29.7975 31.7971 29.7975 31.7971Z" fill="#FF4B55"/>
<path d="M29.2565 31.3596C29.1297 31.3954 29.006 31.4215 28.9669 31.5782C28.9669 31.5782 28.8368 31.3173 29.0189 31.1607C29.0521 31.1322 29.2565 31.3596 29.2565 31.3596Z" fill="#FF4B55"/>
<path d="M29.7598 32.2657C29.838 32.246 29.9751 32.07 29.7989 31.796C29.6228 31.5221 30.3958 31.933 30.4251 32.1582C30.4544 32.3833 30.4838 32.7843 30.3076 32.6768C30.1314 32.569 29.7598 32.2657 29.7598 32.2657Z" fill="#FFE15A"/>
<path d="M28.9216 32.2956C28.8955 32.152 28.9216 32.0542 28.739 31.9238C28.5563 31.7934 28.5303 31.7216 28.5303 31.6367C28.5303 31.6367 28.6297 31.7428 28.806 31.7867C28.9137 31.8137 29.0065 31.8911 29.0065 31.8911C29.0065 31.8911 29.0522 31.728 28.8891 31.6367C28.8891 31.6367 29.1762 31.6367 29.2217 31.8976C29.2674 32.1584 29.1173 32.1977 29.3325 32.2237C29.5478 32.2498 30.0501 32.1455 30.2262 32.5434C30.4022 32.9412 29.8675 32.6542 29.7239 32.602C29.5804 32.5499 29.1238 32.6607 29.0521 32.5629C28.9803 32.4651 28.9216 32.2956 28.9216 32.2956Z" fill="#FF4B55"/>
<path d="M30.8019 33.0098L30.029 31.7378C30.029 31.7378 29.2609 31.441 29.2544 31.4018C29.2478 31.3626 29 31.0431 29 30.9974C29 30.9517 29.0261 30.7299 29.1239 30.6908C29.2218 30.6517 29.5333 30.7832 29.6686 30.8178C29.804 30.8523 30.0176 30.5996 30.0176 30.5996C30.0176 30.5996 31.2635 30.8344 31.3549 30.9845C31.4462 31.1345 31.8767 32.2107 31.8963 32.3218C31.9159 32.4326 31.8963 33.1959 31.8702 33.1829C31.844 33.1695 30.8019 33.0098 30.8019 33.0098Z" fill="#FFF5E6"/>
<path d="M29.0262 31.2182C29.0262 31.2182 29.2676 31.3682 29.398 31.4139C29.5284 31.4595 29.7472 31.2151 29.7112 31.0813C29.6655 30.9116 29.4697 30.9116 29.3785 30.7747C29.2872 30.6378 29.072 30.6378 28.9545 30.8072C28.8369 30.9768 29.0262 31.2182 29.0262 31.2182ZM29.3333 31.0191C29.3892 30.9796 29.5013 30.9839 29.5004 31.0598C29.4995 31.1358 29.3652 31.2209 29.3116 31.1525C29.2679 31.0968 29.297 31.0448 29.3333 31.0191ZM29.0711 30.8541C29.1037 30.7941 29.2063 30.7485 29.239 30.8169C29.2717 30.8854 29.1888 31.0211 29.1105 30.9834C29.0468 30.9528 29.0498 30.8934 29.0711 30.8541Z" fill="#FF4B55"/>
<path d="M28.7066 35.7419C28.5767 35.755 28.4046 35.7371 28.3688 35.443C28.3278 35.1059 28.2259 34.9881 28.057 35.0661C27.8882 35.1441 27.93 35.2788 27.93 35.2788C27.93 35.2788 27.7441 35.7681 27.8419 35.9637C27.9397 36.1594 28.1647 36.3941 28.3311 36.4333C28.4976 36.4724 28.84 36.2475 28.84 36.2475L28.7066 35.7419Z" fill="#FFF5E6"/>
<path d="M29.646 34.6047C29.5351 34.5526 28.1653 33.6003 28.0021 33.2414C27.839 32.8826 27.9304 32.6217 27.715 32.6087C27.4997 32.5956 27.1345 32.5826 27.1671 32.3151C27.1997 32.0476 27.5585 32.2173 27.6563 32.1651C27.7542 32.113 28.0607 31.9694 28.1195 32.1782C28.1782 32.3869 28.1195 32.5761 28.2043 32.6804C28.289 32.7848 28.6675 32.9675 28.7326 32.9544C28.7978 32.9412 28.9371 32.9243 29.0436 32.9916C29.1501 33.0589 29.2089 33.1501 29.2089 33.1501C29.2089 33.1501 29.61 33.1664 29.6672 33.2202C29.7243 33.274 29.9394 33.561 29.9394 33.561L29.646 34.6047Z" fill="#FFE6D7"/>
<path d="M29.5016 34.3889C29.5016 34.3889 29.2408 34.291 29.0548 33.9289C28.8689 33.5668 28.683 33.7136 28.409 33.5179C28.135 33.3222 28.3111 33.0286 28.3893 32.9113C28.4676 32.7938 28.4138 32.4906 28.1447 32.5002C27.9677 32.5067 27.4011 33.0579 27.6555 33.6059C27.6555 33.6059 27.6946 33.508 27.7924 33.3906C27.7924 33.3906 27.6456 33.7527 27.9881 34.1537C27.9881 34.1537 27.9783 33.9483 28.0859 33.8113C28.0859 33.8113 28.0957 34.3201 28.4871 34.6429C28.4871 34.6429 28.4382 34.3103 28.4969 34.1733C28.4969 34.1733 28.5555 34.6136 29.1329 35.0148C29.1329 35.0148 29.0449 34.8582 29.0643 34.6037L29.5536 34.8581L29.5016 34.3889Z" fill="#5AA587"/>
<path d="M33.2233 36.063C33.2233 36.063 33.3994 36.6011 32.92 36.7577C32.4406 36.9142 32.1764 36.7088 32.0003 36.7577C31.8242 36.8066 31.8634 37.1198 32.1079 37.3838C32.3526 37.6481 32.5972 37.6774 32.8712 37.4817C33.1451 37.286 33.1648 37.1099 33.4484 37.1784C33.7321 37.2469 34.1235 36.9729 34.1235 36.9729C34.1235 36.9729 33.8691 35.8673 33.8398 35.877C33.8104 35.8869 33.2233 36.063 33.2233 36.063Z" fill="#F5DCD2"/>
<path d="M35.7114 34.7165C35.7114 34.7165 35.3736 34.3916 34.061 33.9888C32.7485 33.5859 32.0467 33.417 32.0467 33.417L31.0201 33.0921C31.0201 33.0921 30.5369 33.0902 30.2198 33.0002C29.9027 32.9102 29.9025 32.9102 29.9025 32.9102C29.9025 32.9102 29.0578 34.1058 29.6945 35.3142L29.4736 35.5223C29.4736 35.5223 29.2414 35.5931 29.0651 35.6552C28.8888 35.7173 29.0188 36.0551 29.0188 36.0551L29.6946 36.3669L31.6699 36.276C31.6699 36.276 31.7088 36.185 32.3586 36.3928C33.0084 36.6008 33.2943 36.133 34.5418 36.0939C35.7893 36.0551 35.7114 34.7165 35.7114 34.7165Z" fill="#FFF5E6"/>
<path d="M30.094 30.0512C30.094 30.0512 29.8951 30.2501 30.0027 30.462C30.0027 30.462 30.2245 30.2338 30.4071 30.1816C30.6882 30.1013 30.7463 30.2549 31.3676 30.2843C31.7585 30.3028 31.9165 30.6774 32.2988 30.5861C32.708 30.4882 33.0456 30.6757 33.0456 30.6757C33.0456 30.6757 32.8109 30.6464 32.62 30.8275C32.4292 31.0084 32.0916 30.9693 32.0916 30.9693C32.0916 30.9693 32.3998 31.1846 32.6591 31.0818C32.9184 30.979 33.2903 31.1698 33.2903 31.1698C33.2218 31.165 33.0702 31.1894 32.8989 31.3703C32.7277 31.5514 32.3459 31.5072 32.3459 31.5072C32.4144 31.5904 32.6052 31.6833 32.7855 31.6488C33.1941 31.5705 33.6302 31.7528 33.6302 31.7528C33.6302 31.7528 33.3704 31.6619 33.0195 31.9218C32.6686 32.1816 32.2657 32.0258 32.2657 32.0258C32.2657 32.1947 32.6173 32.8455 33.2412 32.8234C34.0181 32.796 34.215 33.2474 34.215 33.2474C34.215 33.2474 33.9032 33.1434 33.5002 33.2084C32.7199 33.3343 32.1877 32.8835 32.1877 32.8835C32.1877 32.8835 32.3177 33.4942 32.8504 33.4683C33.3831 33.4423 34.0589 33.9881 34.0589 33.9881C34.0589 33.9881 33.4586 33.8799 32.6833 33.8704C32.4284 33.8673 32.221 33.7667 32.0438 33.6472C31.5777 33.3323 31.1471 33.3323 31.1471 33.3323C31.6559 33.4498 31.9201 34.0074 31.9201 34.0074C31.9201 34.0074 31.5287 33.6649 30.9612 33.6649C30.3936 33.6649 30.2175 32.9996 30.2175 32.9996C30.7459 33.0093 30.8242 32.5788 30.8242 32.5788C30.8242 32.5788 30.9807 32.6277 31.1275 32.8039C31.2204 32.9153 31.3773 32.9531 31.4847 32.9682C31.5239 32.6251 31.2648 32.3118 31.2648 32.3118C31.2648 32.3118 31.6157 31.7791 31.1608 31.2072C30.7059 30.6354 29.6663 30.8174 29.6663 30.8174C29.5592 30.3381 29.9636 30.0381 30.094 30.0512Z" fill="#5AA587"/>
<path d="M31.1501 31.9431C30.9804 31.917 30.1911 31.656 30.2043 31.3039C30.2174 30.9517 30.687 31.0755 30.6608 31.2647C30.6347 31.4539 30.4651 31.4147 30.4651 31.4147C30.4651 31.4147 30.4815 31.5 30.8304 31.5712C31.1173 31.6299 31.1501 31.9431 31.1501 31.9431Z" fill="#5AA587"/>
<path d="M29.063 35.6546C29.063 35.6546 28.5737 35.5764 28.5933 35.9285C28.613 36.2808 28.8934 36.6525 29.4739 36.8157C29.4739 36.8157 29.2586 36.6299 29.3075 36.5222C29.3564 36.4145 29.6011 36.3852 29.7282 36.5711C29.8554 36.7569 30.0707 36.8353 30.2565 36.8059C30.2565 36.8059 29.9239 36.5612 30.1587 36.4732C30.3702 36.3939 30.2891 36.7375 30.7947 36.7961C30.7947 36.7961 30.4229 36.5025 30.6382 36.4243C30.8535 36.3461 30.9708 36.8548 31.3525 36.8157C31.3525 36.8157 31.0329 36.4961 31.2057 36.4439C31.478 36.3617 31.5482 36.8353 32.0374 36.6298C32.0374 36.6298 31.7927 36.5222 31.9884 36.258C32.1841 35.9937 31.9102 35.6611 31.7731 35.5242C31.6362 35.3873 31.5384 35.2992 31.5774 35.1621C31.5774 35.1621 31.2284 35.3807 31.4046 35.7654C31.57 36.1269 30.9005 35.9272 30.3804 35.8829C29.8455 35.8372 29.5282 36.144 29.1867 36.0394C28.8673 35.9415 29.063 35.6546 29.063 35.6546Z" fill="#5AA587"/>
<path d="M38.5299 35.8203C38.5299 35.8203 37.8881 36.1163 37.5242 35.8174C37.1603 35.5185 37.0615 35.8723 36.6326 35.6123C36.2037 35.3524 36.2298 35.4954 35.8919 35.4954C35.5541 35.4954 35.3071 34.9496 35.515 34.5728C35.515 34.5728 34.8093 34.2991 34.9542 33.7333C35.0618 33.3126 35.593 33.4423 35.593 33.4423C35.593 33.4423 36.1536 33.09 36.5417 33.5463C36.8588 33.9193 36.6846 34.1701 37.2175 34.2351C37.7502 34.3 37.8282 34.8458 38.4 34.7809C38.4 34.7809 38.0101 35.2877 37.4124 34.9628C37.4123 34.9627 37.4263 35.4521 38.5299 35.8203Z" fill="#5AA587"/>
<path d="M32.8494 36.7773C32.8494 36.7773 32.3015 37.2666 33.3778 37.5601C33.3778 37.5601 33.3092 37.472 33.231 37.3154C33.231 37.3154 33.5636 37.5601 33.9942 37.5404C33.9942 37.5404 33.8671 37.4426 33.8377 37.3251C33.8377 37.3251 34.2291 37.4327 34.5128 37.2469C34.5128 37.2469 34.1703 37.2272 33.9551 36.9044C33.9551 36.9044 33.8572 37.1001 33.6518 37.0022C33.4463 36.9044 33.3285 37.0451 33.1429 37.0512C32.9913 37.0562 32.8592 36.9779 32.8494 36.7773Z" fill="#5AA587"/>
<path d="M33.1201 33.7559C33.1201 33.7559 33.5115 33.9385 33.3288 34.2842C33.207 34.5146 32.8256 34.57 32.6766 34.356C32.5494 34.1733 32.6503 33.996 32.7842 33.971C32.9245 33.9449 33.0092 34.0036 33.0745 34.121C33.0744 34.1211 33.3158 34.0299 33.1201 33.7559Z" fill="#5AA587"/>
<path d="M31.3625 34.3652C31.3625 34.3652 30.5126 34.3976 30.5553 34.9865C30.574 35.2457 30.9245 35.4267 31.1457 35.2907C31.3344 35.1748 31.3038 34.9816 31.2054 34.896C31.097 34.8017 30.9897 34.8356 30.8833 34.9169C30.8833 34.9168 30.8293 34.5951 31.3625 34.3652Z" fill="#5AA587"/>
<path d="M29.665 33.2205C29.665 33.2205 29.2063 32.9128 29.0276 33.2791C28.949 33.4404 29.0955 33.6697 29.2746 33.6653C29.4275 33.6613 29.476 33.5355 29.4471 33.4503C29.4151 33.3565 29.3392 33.3397 29.2477 33.3512C29.2477 33.3513 29.2199 33.1129 29.665 33.2205Z" fill="#5AA587"/>
<path d="M29.0415 32.9905C29.0415 32.9905 28.6184 32.7065 28.4536 33.0446C28.3812 33.1933 28.5163 33.405 28.6816 33.4008C28.8225 33.3972 28.8673 33.2811 28.8405 33.2025C28.811 33.116 28.7411 33.1004 28.6565 33.111C28.6565 33.1111 28.6309 32.8913 29.0415 32.9905Z" fill="#5AA587"/>
<path d="M30.6266 34.8672C30.6266 34.8672 29.8953 34.895 29.932 35.4019C29.9482 35.6248 30.2498 35.7806 30.4401 35.6636C30.6025 35.5638 30.6112 35.3807 30.5408 35.2934C30.4185 35.1417 30.2717 35.2102 30.2717 35.2102C30.2717 35.2102 30.1678 35.065 30.6266 34.8672Z" fill="#5AA587"/>
<path d="M30.0903 35.2695C30.0903 35.2695 29.2831 35.1913 29.343 35.7361C29.3587 35.8782 29.5462 35.9784 29.668 35.9036C29.7719 35.8398 29.7775 35.7226 29.7324 35.6668C29.6542 35.5698 29.5603 35.6136 29.5603 35.6136C29.5603 35.6136 29.6109 35.3723 30.0903 35.2695Z" fill="#5AA587"/>
<path d="M35.2696 37.8617C35.2696 37.8617 35.1592 38.0859 35.0877 38.3035C35.0265 38.4897 34.7108 38.6153 34.5419 38.4984C34.3729 38.3815 34.0877 38.0319 34.2046 37.954C34.3215 37.876 34.8277 37.9396 34.9058 37.6667C34.9838 37.3937 34.9577 37.2118 34.9577 37.2118C34.9577 37.2118 34.2805 37.4133 33.9575 36.9045C33.6347 36.3956 33.6808 35.8989 33.5542 35.6523C33.4553 35.4596 33.2812 35.3665 33.2812 35.3665C33.4802 34.5788 35.9062 34.015 35.6247 36.0596L36.0058 36.926L35.2696 37.8617Z" fill="#FFE6D7"/>
<path d="M36.1272 37.8259C35.9608 37.9335 35.3509 38.2434 34.9726 38.0085C34.6632 37.8165 34.6594 37.5975 34.8551 37.5485C35.0508 37.4996 35.1584 37.6366 35.2661 37.5485C35.3737 37.4606 35.9805 36.9614 35.7554 36.8049C35.5303 36.6484 35.4085 36.5217 35.4129 36.2472C35.4161 36.0449 35.5923 35.8492 35.8011 35.8297C36.0613 35.8054 36.2643 35.9145 36.5382 35.9145L36.2186 36.0776C36.424 36.1754 36.4403 36.4527 36.685 36.5016C36.685 36.5016 36.5186 36.6907 36.3099 36.632C36.3099 36.632 36.3817 36.8278 36.5774 36.8538C36.5774 36.8538 36.3947 37.0625 36.2251 37.1213C36.2251 37.1213 36.336 37.1995 36.5088 37.167C36.5088 37.167 36.2381 37.565 35.8337 37.666L36.1272 37.8259Z" fill="#5AA587"/>
<path d="M34.9488 37.0811C34.9488 37.0811 34.8401 37.0622 34.8309 36.9299C34.8255 36.8536 34.9017 36.7547 35.0312 36.7621C35.1831 36.7708 35.2861 36.9725 35.2134 37.1062C35.0271 37.448 34.3338 37.3107 34.249 37.1868C34.2489 37.1868 34.8033 37.2129 34.9488 37.0811Z" fill="#5AA587"/>
<path d="M34.6253 38.7075C34.5952 38.6651 34.5709 38.5502 34.6294 38.4792C34.6294 38.4792 34.5976 38.3153 34.4733 38.374C34.4733 38.374 34.4204 38.5053 34.4627 38.5967C34.5049 38.6879 34.6253 38.7075 34.6253 38.7075Z" fill="#FFE15A"/>
<path d="M34.3718 38.6139C34.374 38.4957 34.4004 38.431 34.4955 38.4212C34.4955 38.4212 34.5199 38.25 34.3783 38.25C34.3783 38.25 34.2734 38.3429 34.2725 38.4437C34.2716 38.5442 34.3718 38.6139 34.3718 38.6139Z" fill="#FFE15A"/>
<path d="M34.2146 38.5009C34.2378 38.385 34.2597 38.3043 34.3655 38.2965C34.3655 38.2965 34.4218 38.1563 34.2658 38.1367C34.2658 38.1367 34.1663 38.2168 34.1473 38.3156C34.1283 38.4144 34.2146 38.5009 34.2146 38.5009Z" fill="#FFE15A"/>
<path d="M34.0577 38.3195C34.1057 38.2115 34.1535 38.1684 34.2585 38.184C34.2585 38.184 34.3488 38.0568 34.2243 37.9883C34.2243 37.9883 34.0728 38.0316 34.0325 38.1239C33.9925 38.2162 34.0577 38.3195 34.0577 38.3195Z" fill="#FFE15A"/>
<path d="M32.1985 37.6591C32.1764 37.612 32.1727 37.4945 32.2429 37.4351C32.2429 37.4351 32.2408 37.2682 32.1078 37.3038C32.1078 37.3038 32.0326 37.4236 32.0579 37.5209C32.0835 37.6183 32.1985 37.6591 32.1985 37.6591Z" fill="#FFE15A"/>
<path d="M31.9647 37.523C31.9877 37.407 32.0252 37.3481 32.1206 37.3554C32.1206 37.3554 32.1748 37.1912 32.0356 37.166C32.0356 37.166 31.916 37.2388 31.8972 37.3377C31.8783 37.4366 31.9647 37.523 31.9647 37.523Z" fill="#FFE15A"/>
<path d="M31.8309 37.3825C31.8742 37.2726 31.9101 37.1971 32.0158 37.2082C32.0158 37.2082 32.096 37.0802 31.9459 37.0332C31.9459 37.0332 31.8338 37.0943 31.7976 37.1882C31.7613 37.2821 31.8309 37.3825 31.8309 37.3825Z" fill="#FFE15A"/>
<path d="M31.7081 37.1772C31.7745 37.0795 31.8293 37.0455 31.9298 37.0796C31.9298 37.0796 32.0411 36.9704 31.9309 36.8809C31.9309 36.8809 31.774 36.8966 31.7181 36.9802C31.6623 37.0641 31.7081 37.1772 31.7081 37.1772Z" fill="#FFE15A"/>
<path d="M28.9477 31.1536C28.9265 31.2595 28.9803 31.3753 29.2348 31.4862C29.4892 31.597 29.4826 31.5514 29.6523 31.7666C29.8219 31.982 29.8414 31.9884 30.0502 32.0275C30.2589 32.0666 30.3568 32.7123 30.1089 32.6146C29.8611 32.5167 29.8284 32.3145 29.5545 32.3798C29.2806 32.4452 29.137 32.5364 28.9218 32.2951C28.9218 32.2951 28.7131 32.5755 29.1044 32.693C29.4958 32.8105 29.7094 32.8195 29.9026 32.9095C30.0959 32.9995 30.7815 33.2198 30.8265 32.5788C30.8396 32.393 30.7026 32.3212 30.6242 32.1842C30.546 32.0473 30.4677 31.9559 30.2785 31.8059C30.0893 31.6559 30.2068 31.532 29.9002 31.4863C29.5937 31.4406 29.3392 31.4471 29.248 31.2254C29.1564 31.0036 28.9738 31.0231 28.9477 31.1536Z" fill="#FFE6D7"/>
<path d="M34.084 34.2644C34.084 34.2644 34.1428 34.0307 33.8702 33.9316C33.9342 33.9511 33.9931 33.9685 34.0602 33.9892C34.1176 34.0067 34.1631 34.0232 34.2167 34.0405C34.2376 34.0687 34.2657 34.0837 34.2799 34.1232C34.3628 34.3555 34.1577 34.6567 33.9131 34.6239C33.7045 34.5958 33.6453 34.4122 33.7135 34.3029C33.785 34.1885 33.9421 34.1616 34.084 34.2644Z" fill="#5AA587"/>
<path d="M34.0003 36.7463C34.2961 36.8125 34.4292 36.6982 34.4292 36.6982C34.4292 36.6982 34.3205 36.6794 34.3112 36.5471C34.3059 36.4708 34.382 36.3719 34.5116 36.3793C34.6635 36.388 34.7665 36.5896 34.6936 36.7233C34.5334 37.0174 34.0782 36.948 33.8776 36.7395C33.8671 36.718 33.8562 36.6967 33.8467 36.6753C33.8906 36.7031 33.9468 36.7344 34.0003 36.7463Z" fill="#5AA587"/>
<path d="M33.7014 36.2518C33.6938 36.2183 33.6832 36.1845 33.6768 36.1525C34.0244 36.2932 34.1258 36.1161 34.1258 36.1161C34.1258 36.1161 34.0171 36.0973 34.0078 35.965C34.0024 35.8887 34.0786 35.7898 34.2082 35.7973C34.3601 35.806 34.4631 36.0076 34.3902 36.1413C34.2204 36.4529 33.9176 36.3661 33.7014 36.2518Z" fill="#5AA587"/>
<path d="M32.9192 36.4169C33.1213 36.598 33.2757 36.588 33.2757 36.588C33.2757 36.588 33.195 36.5129 33.2594 36.397C33.2966 36.3301 33.4143 36.2889 33.5188 36.3658C33.6414 36.4561 33.6176 36.6813 33.4836 36.7535C33.1537 36.9314 32.9396 36.6564 32.8252 36.435C32.8562 36.4307 32.8878 36.4233 32.9192 36.4169Z" fill="#5AA587"/>
<path d="M27.7132 36.2408C27.7277 36.1687 27.803 36.0315 27.8957 36.0221C27.8957 36.0221 28.005 35.8297 27.8808 35.7598C27.8808 35.7598 27.7442 35.8339 27.6987 35.9662C27.6532 36.0986 27.7132 36.2408 27.7132 36.2408Z" fill="#FFE15A"/>
<path d="M27.6262 35.8924C27.7207 35.7791 27.7883 35.7431 27.8557 35.8308C27.8557 35.8308 28.006 35.6886 27.9173 35.544C27.9173 35.544 27.7783 35.5275 27.6982 35.6247C27.6181 35.722 27.6262 35.8924 27.6262 35.8924Z" fill="#FFE15A"/>
<path d="M27.6182 35.619C27.7241 35.5296 27.8014 35.4732 27.8739 35.5739C27.8739 35.5739 28.0198 35.4946 27.9374 35.3159C27.9374 35.3159 27.8118 35.2923 27.722 35.3694C27.6323 35.4465 27.6182 35.619 27.6182 35.619Z" fill="#FFE15A"/>
<path d="M27.6621 35.2836C27.7773 35.2274 27.8414 35.2339 27.8949 35.3566C27.8949 35.3566 28.0518 35.3246 28.0278 35.1306C28.0278 35.1306 27.8986 35.0181 27.8006 35.067C27.7027 35.1161 27.6621 35.2836 27.6621 35.2836Z" fill="#FFE15A"/>
<path d="M30.1802 31.7012C30.2808 31.7012 30.3623 31.6194 30.3623 31.5186C30.3623 31.4177 30.2808 31.3359 30.1802 31.3359C30.0796 31.3359 29.998 31.4177 29.998 31.5186C29.998 31.6194 30.0796 31.7012 30.1802 31.7012Z" fill="#F5F5F5"/>
<path d="M30.1803 31.5855C30.2168 31.5855 30.2463 31.5559 30.2463 31.5193C30.2463 31.4828 30.2168 31.4531 30.1803 31.4531C30.1438 31.4531 30.1143 31.4828 30.1143 31.5193C30.1143 31.5559 30.1438 31.5855 30.1803 31.5855Z" fill="#41479B"/>
<path d="M29.8032 30.9998C29.8849 30.9998 29.9512 30.9334 29.9512 30.8515C29.9512 30.7695 29.8849 30.7031 29.8032 30.7031C29.7215 30.7031 29.6553 30.7695 29.6553 30.8515C29.6553 30.9334 29.7215 30.9998 29.8032 30.9998Z" fill="#F5F5F5"/>
<path d="M29.8037 30.9045C29.8333 30.9045 29.8573 30.8804 29.8573 30.8507C29.8573 30.821 29.8333 30.7969 29.8037 30.7969C29.774 30.7969 29.75 30.821 29.75 30.8507C29.75 30.8804 29.774 30.9045 29.8037 30.9045Z" fill="#41479B"/>
<path d="M35.0732 34.4385C35.2422 34.5685 35.8267 34.282 36.2376 34.4189C36.7687 34.596 36.7643 34.9374 36.7643 34.9374C36.7643 34.9374 36.4333 34.5266 35.8821 34.7288C35.5771 34.8406 35.3998 34.8465 35.3998 34.8465L35.0732 34.4385Z" fill="#FFF5E6"/>
</g>
<defs>
<clipPath id="clip0_3462_29062">
<rect width="50" height="50" fill="white" transform="translate(0.0664062 0.601562)"/>
</clipPath>
</defs>
</svg>
