<svg width="51" height="51" viewBox="0 0 51 51" fill="none" xmlns="http://www.w3.org/2000/svg">
<g clip-path="url(#clip0_3462_29053)">
<path d="M50.3622 15.7745H0.362305V10.0848C0.362305 9.60869 0.748339 9.22266 1.22441 9.22266H49.5002C49.9763 9.22266 50.3623 9.60869 50.3623 10.0848L50.3622 15.7745Z" fill="#73AF00"/>
<path d="M50.3622 22.3262H0.362305V28.8779H50.3622V22.3262Z" fill="#73AF00"/>
<path d="M50.3603 15.7754H0.360352V22.3271H50.3603V15.7754Z" fill="#FFE15A"/>
<path d="M49.4981 41.9814H1.22246C0.746386 41.9814 0.360352 41.5954 0.360352 41.1193V35.4297H50.3603V41.1193C50.3603 41.5955 49.9742 41.9814 49.4981 41.9814Z" fill="#73AF00"/>
<path d="M50.3603 28.8789H0.360352V35.4307H50.3603V28.8789Z" fill="#FFE15A"/>
<path d="M19.3258 28.8779H1.22246C0.746386 28.8779 0.360352 28.4919 0.360352 28.0158V10.0848C0.360352 9.60869 0.746386 9.22266 1.22246 9.22266H19.3258C19.8019 9.22266 20.188 9.60869 20.188 10.0848V28.0158C20.1879 28.4919 19.8019 28.8779 19.3258 28.8779Z" fill="#FF4B55"/>
<path d="M10.0612 13.847L8.8153 17.5825L4.87761 17.613C4.66179 17.6148 4.57224 17.8902 4.74597 18.0184L7.91373 20.3576L6.72594 24.1121C6.6609 24.318 6.89528 24.4882 7.07077 24.3627L10.2745 22.0729L13.4782 24.3627C13.6539 24.4883 13.8882 24.318 13.823 24.1121L12.6352 20.3577L15.803 18.0185C15.9767 17.8903 15.8872 17.6147 15.6713 17.6131L11.7336 17.5826L10.4875 13.8471C10.4191 13.6421 10.1295 13.6421 10.0612 13.847Z" fill="#F5F5F5"/>
</g>
<defs>
<clipPath id="clip0_3462_29053">
<rect width="50" height="50" fill="white" transform="translate(0.359375 0.601562)"/>
</clipPath>
</defs>
</svg>
