<svg width="51" height="51" viewBox="0 0 51 51" fill="none" xmlns="http://www.w3.org/2000/svg">
<g clip-path="url(#clip0_3462_29043)">
<path d="M49.9269 41.9812H1.65117C1.1751 41.9812 0.789062 41.5952 0.789062 41.1191V10.0848C0.789062 9.60869 1.1751 9.22266 1.65117 9.22266H49.927C50.403 9.22266 50.7891 9.60869 50.7891 10.0848V41.1191C50.789 41.5953 50.4029 41.9812 49.9269 41.9812Z" fill="#41479B"/>
<path d="M47.3399 36.8102H12.8572C12.3812 36.8102 11.9951 36.4241 11.9951 35.948C11.9951 35.472 12.3812 35.0859 12.8572 35.0859H47.3399L48.202 35.948L47.3399 36.8102Z" fill="#FFE15A"/>
<path d="M47.771 34.2232H12.8574C12.8574 34.2232 26.6505 18.706 39.5815 15.2578C39.5815 15.2578 35.2711 26.4646 45.616 33.3612H47.7711C48.0092 33.3612 48.2022 33.5542 48.2022 33.7922C48.2021 34.0301 48.0092 34.2232 47.771 34.2232Z" fill="#FFE15A"/>
<path d="M11.3515 29.2322L11.6859 30.2352L12.7432 30.2434C12.88 30.2445 12.9368 30.4192 12.8267 30.5004L11.9762 31.1285L12.2951 32.1366C12.3364 32.267 12.1878 32.375 12.0765 32.2954L11.2163 31.6806L10.3562 32.2954C10.2448 32.3749 10.0962 32.267 10.1375 32.1366L10.4564 31.1285L9.60596 30.5004C9.49581 30.4191 9.55264 30.2444 9.68946 30.2434L10.7467 30.2352L11.0812 29.2322C11.1244 29.1023 11.3081 29.1023 11.3515 29.2322Z" fill="#F5F5F5"/>
<path d="M11.3256 15.4422L11.5969 16.2559L12.4546 16.2625C12.5657 16.2634 12.6117 16.4051 12.5224 16.471L11.8324 16.9806L12.0911 17.7984C12.1246 17.9043 12.004 17.9918 11.9138 17.9273L11.2159 17.4285L10.5181 17.9273C10.4277 17.9918 10.3072 17.9042 10.3407 17.7984L10.5994 16.9806L9.90947 16.471C9.82011 16.4051 9.86611 16.2634 9.97724 16.2625L10.835 16.2559L11.1062 15.4422C11.1415 15.337 11.2905 15.337 11.3256 15.4422Z" fill="#F5F5F5"/>
<path d="M4.82753 20.4775L5.09882 21.2911L5.95653 21.2978C6.06766 21.2987 6.11366 21.4404 6.02431 21.5063L5.33437 22.0158L5.59306 22.8336C5.62655 22.9396 5.50595 23.0271 5.41571 22.9625L4.71786 22.4637L4.02001 22.9625C3.92968 23.0271 3.80917 22.9395 3.84267 22.8336L4.10136 22.0158L3.41142 21.5063C3.32206 21.4404 3.36806 21.2987 3.47919 21.2978L4.33691 21.2911L4.60819 20.4775C4.64345 20.3721 4.79247 20.3721 4.82753 20.4775Z" fill="#F5F5F5"/>
<path d="M15.9727 20.1351L16.1815 20.7613L16.8415 20.7663C16.927 20.767 16.9624 20.876 16.8937 20.9268L16.3626 21.3189L16.5618 21.9482C16.5875 22.0296 16.4948 22.0971 16.4252 22.0473L15.8883 21.6635L15.3514 22.0473C15.2819 22.097 15.1891 22.0296 15.2149 21.9482L15.414 21.3189L14.883 20.9268C14.8142 20.876 14.8496 20.767 14.9351 20.7663L15.5952 20.7613L15.8039 20.1351C15.831 20.0539 15.9456 20.0539 15.9727 20.1351Z" fill="#F5F5F5"/>
</g>
<defs>
<clipPath id="clip0_3462_29043">
<rect width="50" height="50" fill="white" transform="translate(0.789062 0.601562)"/>
</clipPath>
</defs>
</svg>
