<svg width="51" height="51" viewBox="0 0 51 51" fill="none" xmlns="http://www.w3.org/2000/svg">
<g clip-path="url(#clip0_3462_29039)">
<path d="M49.2218 41.9812H0.946092C0.470019 41.9812 0.0839844 41.5952 0.0839844 41.1191V10.0848C0.0839844 9.60869 0.470019 9.22266 0.946092 9.22266H49.2219C49.698 9.22266 50.084 9.60869 50.084 10.0848V41.1191C50.0839 41.5953 49.6979 41.9812 49.2218 41.9812Z" fill="#FF4B55"/>
<path d="M19.0494 25.6019H0.946092C0.470019 25.6019 0.0839844 25.2159 0.0839844 24.7398V10.0848C0.0839844 9.60869 0.470019 9.22266 0.946092 9.22266H19.0495C19.5256 9.22266 19.9116 9.60869 19.9116 10.0848V24.7399C19.9115 25.2161 19.5255 25.6019 19.0494 25.6019Z" fill="#F5F5F5"/>
<path d="M16.4633 15.2576H12.1529V10.9473H7.84257V15.2576H3.53223V19.568H7.84257V23.8783H12.1529V19.568H16.4633V15.2576Z" fill="#FF4B55"/>
</g>
<defs>
<clipPath id="clip0_3462_29039">
<rect width="50" height="50" fill="white" transform="translate(0.0820312 0.601562)"/>
</clipPath>
</defs>
</svg>
