<svg width="51" height="51" viewBox="0 0 51 51" fill="none" xmlns="http://www.w3.org/2000/svg">
<g clip-path="url(#clip0_3462_29030)">
<path d="M49.9444 41.9813H1.66875C1.19268 41.9813 0.806641 41.5953 0.806641 41.1192V10.0848C0.806641 9.60869 1.19268 9.22266 1.66875 9.22266H49.9445C50.4206 9.22266 50.8066 9.60869 50.8066 10.0848V41.1192C50.8065 41.5954 50.4205 41.9813 49.9444 41.9813Z" fill="#FF4B55"/>
<path d="M1.66933 9.22266C1.43623 9.22266 1.22646 9.31709 1.07129 9.46738L36.1521 41.9812H38.7383L3.39345 9.22266H1.66933Z" fill="#F5F5F5"/>
<path d="M15.4622 9.22266H12.876L48.2207 41.9812H49.9449C50.178 41.9812 50.3877 41.8868 50.5429 41.7365L15.4622 9.22266Z" fill="#F5F5F5"/>
<path d="M3.39258 9.22266L38.7373 41.9812H48.22L12.8753 9.22266H3.39258Z" fill="#464655"/>
</g>
<defs>
<clipPath id="clip0_3462_29030">
<rect width="50" height="50" fill="white" transform="translate(0.804688 0.601562)"/>
</clipPath>
</defs>
</svg>
