<svg width="51" height="51" viewBox="0 0 51 51" fill="none" xmlns="http://www.w3.org/2000/svg">
<g clip-path="url(#clip0_3462_29024)">
<path d="M49.7589 41.411H1.4832C1.00713 41.411 0.621094 41.0249 0.621094 40.5489V9.51445C0.621094 9.03838 1.00713 8.65234 1.4832 8.65234H49.759C50.2351 8.65234 50.6211 9.03838 50.6211 9.51445V40.5489C50.621 41.025 50.235 41.411 49.7589 41.411Z" fill="#FF4B55"/>
<path d="M25.7183 16.4102C30.476 16.4102 34.3321 20.2768 34.3321 25.0308C34.3321 29.7987 30.476 33.6515 25.7183 33.6515C20.9505 33.6515 17.0908 29.7987 17.0908 25.0308C17.0907 20.2768 20.9505 16.4102 25.7183 16.4102Z" fill="#F5F5F5"/>
<path d="M27.2848 29.8613C24.6162 29.8613 22.4516 27.6968 22.4516 25.0311C22.4516 22.372 24.6162 20.2074 27.2848 20.2074C28.1926 20.2074 29.0408 20.4617 29.7658 20.901C29.8744 20.9668 29.9887 20.8246 29.8981 20.7354C28.8104 19.6638 27.3211 19 25.676 19C22.3361 19 19.6318 21.7043 19.6318 25.0313C19.6318 28.3648 22.336 31.0689 25.676 31.0689C27.3203 31.0689 28.8091 30.4056 29.8966 29.3343C29.9871 29.2451 29.8728 29.1029 29.7642 29.1686C29.0394 29.6075 28.1918 29.8613 27.2848 29.8613Z" fill="#FF4B55"/>
<path d="M26.8429 21.6512L28.1753 23.4603L30.3184 22.7853C30.5958 22.6979 30.8248 23.0141 30.6555 23.2504L29.3467 25.0766L30.6509 26.9062C30.8198 27.1431 30.5899 27.4586 30.3126 27.3705L28.1712 26.69L26.8341 28.4957C26.6611 28.7296 26.29 28.6084 26.2881 28.3175L26.2736 26.0707L24.1431 25.3571C23.8672 25.2647 23.8678 24.8744 24.1439 24.7828L26.2762 24.0746L26.2964 21.8278C26.2991 21.537 26.6705 21.4169 26.8429 21.6512Z" fill="#FF4B55"/>
</g>
<defs>
<clipPath id="clip0_3462_29024">
<rect width="50" height="50" fill="white" transform="translate(0.621094 0.03125)"/>
</clipPath>
</defs>
</svg>
