<svg width="51" height="51" viewBox="0 0 51 51" fill="none" xmlns="http://www.w3.org/2000/svg">
<g clip-path="url(#clip0_3462_28950)">
<path d="M49.7755 41.4109H1.4998C1.02373 41.4109 0.637695 41.0248 0.637695 40.5488V9.51445C0.637695 9.03838 1.02373 8.65234 1.4998 8.65234H49.7756C50.2517 8.65234 50.6377 9.03838 50.6377 9.51445V40.5488C50.6376 41.0249 50.2516 41.4109 49.7755 41.4109Z" fill="#41479B"/>
<path d="M24.7755 8.65234H23.2782L15.2928 13.8841V8.65234H10.9825V13.8841L2.99716 8.65234H1.4998C1.02373 8.65234 0.637695 9.03838 0.637695 9.51445V10.1982L7.48876 14.6868H0.637695V18.9971H7.48876L0.637695 23.4858V24.1695C0.637695 24.6456 1.02373 25.0316 1.4998 25.0316H2.99716L10.9825 19.7999V25.0316H15.2928V19.7999L23.2781 25.0316H24.7754C25.2515 25.0316 25.6375 24.6456 25.6375 24.1695V23.4857L18.7866 18.9971H25.6375V14.6868H18.7865L25.6375 10.1982V9.51445C25.6375 9.03838 25.2517 8.65234 24.7755 8.65234Z" fill="#F5F5F5"/>
<path d="M25.6385 15.5489H14.4317V8.65234H11.8455V15.5489H0.638672V18.135H11.8455V25.0316H14.4317V18.135H25.6385V15.5489Z" fill="#FF4B55"/>
<path d="M10.1214 14.6876L1.04951 8.79883C0.808105 8.95166 0.638672 9.2083 0.638672 9.51523V9.55996L8.53797 14.6876H10.1214Z" fill="#FF4B55"/>
<path d="M16.8773 14.6868L25.5076 9.08467C25.3576 8.83086 25.0929 8.65234 24.7766 8.65234H24.5902L15.2939 14.6868H16.8773Z" fill="#FF4B55"/>
<path d="M9.37645 18.998L0.762695 24.5894C0.91123 24.8494 1.17998 25.0325 1.50088 25.0325H1.66347L10.9598 18.998H9.37645Z" fill="#FF4B55"/>
<path d="M25.6249 24.2382L17.552 18.998H15.9688L25.136 24.9486C25.4107 24.8212 25.599 24.5541 25.6249 24.2382Z" fill="#FF4B55"/>
<path d="M34.2391 20.1465C34.1351 20.1465 34.0508 20.2308 34.0508 20.3348V23.5352C34.0508 29.9364 38.5692 31.0659 38.5692 31.0659C38.5692 31.0659 43.0877 29.9363 43.0877 23.5352V20.3348C43.0877 20.2308 43.0034 20.1465 42.8994 20.1465H34.2391V20.1465Z" fill="#FFE15A"/>
<path d="M42.6171 20.6172V23.5352C42.6171 28.9797 39.2517 30.3529 38.5694 30.5752C37.8833 30.3514 34.5215 28.9766 34.5215 23.5352V20.6172H42.6171ZM42.8994 20.1465H34.2391C34.1351 20.1465 34.0508 20.2308 34.0508 20.3348V23.5352C34.0508 29.9364 38.5692 31.0659 38.5692 31.0659C38.5692 31.0659 43.0877 29.9363 43.0877 23.5352V20.3348C43.0877 20.2308 43.0034 20.1465 42.8994 20.1465Z" fill="#F5F5F5"/>
<path d="M39.0742 26.1094H38.1111C38.1111 26.1094 37.3343 26.8861 37.1562 28.5924C37.1504 28.6468 37.1725 28.7018 37.2156 28.7357C37.3789 28.8638 37.8378 29.1595 38.5926 29.1595C39.3474 29.1595 39.8063 28.8638 39.9696 28.7357C40.0127 28.702 40.0346 28.6469 40.029 28.5924C39.851 26.8861 39.0742 26.1094 39.0742 26.1094Z" fill="#73AF00"/>
<path d="M39.0755 25.9481H38.1123V25.1456C38.1123 24.8808 38.329 24.6641 38.5938 24.6641C38.8587 24.6641 39.0754 24.8808 39.0754 25.1456V25.9481H39.0755Z" fill="#FF4B55"/>
<path d="M39.0749 26.2684H38.1117C38.023 26.2684 37.9512 26.1965 37.9512 26.1078C37.9512 26.0191 38.023 25.9473 38.1117 25.9473H39.0749C39.1636 25.9473 39.2354 26.0191 39.2354 26.1078C39.2353 26.1965 39.1635 26.2684 39.0749 26.2684Z" fill="#FF4B55"/>
<path d="M42.2849 22.7201C42.2564 22.7201 41.8377 22.722 41.4019 22.7969V22.546C41.7696 22.3782 42.1299 22.2914 42.136 22.2899C42.1791 22.2798 42.206 22.2366 42.1958 22.1934C42.1855 22.1504 42.1425 22.1234 42.0993 22.1337C42.0751 22.1392 41.7516 22.2171 41.399 22.3705C41.3933 22.2743 41.3599 22.186 41.3057 22.1132C41.5934 21.8905 41.8384 21.749 41.843 21.7465C41.8814 21.7245 41.8949 21.6756 41.873 21.637C41.851 21.5984 41.8019 21.585 41.7636 21.6069C41.7441 21.618 41.4871 21.7663 41.1887 21.9994C41.1119 21.9476 41.0196 21.9175 40.9203 21.9175C40.8171 21.9175 40.7218 21.9508 40.6434 22.0062C40.7257 21.5931 40.8948 21.4143 40.8972 21.4121C40.9282 21.3807 40.9281 21.3301 40.8969 21.2989C40.8655 21.2676 40.8147 21.2676 40.7834 21.2989C40.7738 21.3085 40.6179 21.4695 40.519 21.8313C40.4202 21.4694 40.2643 21.3084 40.2547 21.2989C40.2235 21.2677 40.1731 21.2677 40.1416 21.2988C40.1103 21.3299 40.11 21.3806 40.1408 21.4122C40.1431 21.4144 40.3123 21.5933 40.3946 22.0063C40.3162 21.9509 40.2209 21.9176 40.1177 21.9176C40.0185 21.9176 39.9261 21.9478 39.8493 21.9995C39.551 21.7663 39.2939 21.6181 39.2744 21.607C39.2358 21.585 39.1868 21.5985 39.1649 21.6371C39.143 21.6757 39.1564 21.7246 39.195 21.7466C39.1995 21.7491 39.4446 21.8905 39.7324 22.1132C39.6781 22.1861 39.6448 22.2744 39.639 22.3706C39.2865 22.2171 38.9629 22.1393 38.9387 22.1338C38.8953 22.1234 38.8523 22.1505 38.8422 22.1935C38.832 22.2367 38.8589 22.28 38.902 22.29C38.9081 22.2914 39.2684 22.3782 39.636 22.5461V22.797C39.2004 22.722 38.7816 22.7202 38.7531 22.7202C38.7088 22.7202 38.6729 22.756 38.6729 22.8005C38.6729 22.8448 38.7087 22.8807 38.7531 22.8807C38.7601 22.8807 39.1988 22.8825 39.636 22.96V23.2197C39.3952 23.2125 39.1266 23.2462 38.8777 23.3708C38.8381 23.3906 38.8221 23.4387 38.8419 23.4784C38.8561 23.5065 38.8844 23.5228 38.9138 23.5228C38.9259 23.5228 38.938 23.5201 38.9495 23.5143C39.1711 23.4037 39.4152 23.3748 39.6359 23.3822V24.3754C39.6359 24.4966 39.6238 24.6184 39.6002 24.7375L39.477 25.3531C39.4684 25.3966 39.4966 25.4388 39.5399 25.4475C39.5452 25.4486 39.5505 25.4492 39.5558 25.4492C39.5933 25.4492 39.6268 25.4229 39.6345 25.3846L39.7576 24.769C39.7835 24.6396 39.7966 24.5073 39.7966 24.3755V23.3942C39.917 23.4077 40.0251 23.4294 40.1121 23.4511L40.1733 24.2461C40.181 24.3452 40.2306 24.4307 40.3029 24.4888L40.0426 24.8793C39.9031 25.0885 40.053 25.3687 40.3045 25.3687H40.7333C40.9847 25.3687 41.1347 25.0884 40.9952 24.8793L40.7349 24.4888C40.8073 24.4307 40.8568 24.3451 40.8644 24.2461L40.9256 23.4511C41.0125 23.4294 41.1207 23.4077 41.2411 23.3942V24.3754C41.2411 24.5072 41.2542 24.6395 41.2801 24.7689L41.4032 25.3845C41.4108 25.4227 41.4443 25.4491 41.4819 25.4491C41.4871 25.4491 41.4924 25.4487 41.4978 25.4474C41.5412 25.4387 41.5694 25.3965 41.5606 25.353L41.4375 24.7374C41.4138 24.6184 41.4018 24.4966 41.4018 24.3753V23.3819C41.6225 23.3745 41.8667 23.4034 42.0882 23.514C42.0997 23.5197 42.1119 23.5225 42.1239 23.5225C42.1533 23.5225 42.1816 23.5062 42.1958 23.4781C42.2156 23.4384 42.1996 23.3903 42.16 23.3705C41.9112 23.2462 41.6426 23.2124 41.4017 23.2195V22.9597C41.8389 22.8822 42.2776 22.8804 42.2846 22.8804C42.329 22.8804 42.3648 22.8444 42.3648 22.8002C42.3651 22.7559 42.3292 22.7201 42.2849 22.7201ZM41.2414 22.8277C41.1455 22.8485 41.0511 22.8732 40.9621 22.9028C40.9604 22.8712 40.9559 22.8405 40.9479 22.8108C41.0369 22.7421 41.1369 22.6797 41.2415 22.6244V22.8277H41.2414ZM41.2414 22.399V22.4434C41.1143 22.5066 40.9891 22.5799 40.8769 22.663C40.8537 22.6311 40.8269 22.6025 40.796 22.5779C40.916 22.4449 41.0495 22.3217 41.1809 22.213C41.2187 22.2654 41.2414 22.3295 41.2414 22.399ZM40.9204 22.0779C40.9683 22.0779 41.0133 22.0891 41.0541 22.108C40.9154 22.2245 40.7748 22.357 40.6489 22.5008C40.6325 22.4957 40.6164 22.4907 40.5992 22.4876V22.4791C40.5992 22.4426 40.6005 22.4079 40.6018 22.3734C40.6151 22.2086 40.752 22.0779 40.9204 22.0779ZM40.1178 22.0779C40.2861 22.0779 40.423 22.2085 40.4362 22.3735C40.4375 22.408 40.4388 22.4426 40.4388 22.4792V22.4877C40.4217 22.4908 40.4055 22.4958 40.3891 22.5009C40.2632 22.3571 40.1226 22.2246 39.9839 22.1081C40.0249 22.0891 40.0699 22.0779 40.1178 22.0779ZM39.7968 22.399C39.7968 22.3294 39.8195 22.2654 39.8573 22.2128C39.9887 22.3215 40.1221 22.4448 40.2421 22.5777C40.2112 22.6023 40.1845 22.631 40.1611 22.6629C40.049 22.5798 39.9239 22.5065 39.7967 22.4433L39.7968 22.399ZM39.7968 22.6245C39.9013 22.6798 40.0013 22.7422 40.0903 22.8109C40.0823 22.8407 40.0777 22.8713 40.0762 22.9028C39.987 22.8732 39.8928 22.8485 39.7969 22.8277V22.6245H39.7968ZM39.7968 23.2308V22.9925C39.8974 23.0152 39.9944 23.0427 40.0834 23.0759L40.0992 23.2814C40.0119 23.2611 39.9094 23.2426 39.7968 23.2308ZM41.2414 23.2309C41.1288 23.2426 41.0262 23.2612 40.939 23.2815L40.9548 23.0759C41.0437 23.0428 41.1409 23.0154 41.2414 22.9926V23.2309Z" fill="#D35A10"/>
<path d="M37.2139 24.8868H36.8534L35.4755 23.6621C35.325 23.5284 35.2613 23.3221 35.3101 23.1267L35.6943 21.5898C35.7283 21.4538 35.8976 21.4069 35.9966 21.5061L36.6202 22.1297C36.654 22.1635 36.6998 22.1825 36.7476 22.1825H37.2137V24.8869L37.2139 24.8868Z" fill="#FFA033"/>
<path d="M36.9549 21.8144L36.7337 22.8102C36.6937 22.9906 36.7004 23.1785 36.7536 23.3557L37.2133 24.8884H37.5739L38.0336 23.3557C38.0868 23.1785 38.0937 22.9907 38.0535 22.8102L37.8323 21.8144C37.7866 21.609 37.6044 21.4629 37.394 21.4629H37.393C37.1827 21.4628 37.0004 21.609 36.9549 21.8144Z" fill="#FF9480"/>
<path d="M37.3946 21.8223C37.2947 21.8223 37.2139 21.9029 37.2139 22.0025V24.8872H37.5753V22.0025C37.5753 21.9029 37.4944 21.8223 37.3946 21.8223Z" fill="#FFA0E4"/>
</g>
<defs>
<clipPath id="clip0_3462_28950">
<rect width="50" height="50" fill="white" transform="translate(0.636719 0.03125)"/>
</clipPath>
</defs>
</svg>
