<svg width="51" height="51" viewBox="0 0 51 51" fill="none" xmlns="http://www.w3.org/2000/svg">
<g clip-path="url(#clip0_3462_28969)">
<path d="M49.4815 41.4109H1.20586C0.729784 41.4109 0.34375 41.0248 0.34375 40.5488V9.51445C0.34375 9.03838 0.729784 8.65234 1.20586 8.65234H49.4816C49.9577 8.65234 50.3437 9.03838 50.3437 9.51445V40.5488C50.3437 41.025 49.9576 41.4109 49.4815 41.4109Z" fill="#73AF00"/>
<path d="M15.8613 8.65234H7.24023V41.4111H15.8613V8.65234Z" fill="#FF4B55"/>
<path d="M14.9991 12.3872L13.275 13.824H9.82666L8.10254 12.3872V10.9504L9.82666 9.51367H13.275L14.9991 10.9504V12.3872Z" fill="#F5F5F5"/>
<path d="M15.0001 24.4575L13.276 25.8944H9.82763L8.10352 24.4575V23.0208L9.82763 21.584H13.276L15.0001 23.0208V24.4575Z" fill="#73AF00"/>
<path d="M15.0001 18.4224L13.276 19.8592H9.82763L8.10352 18.4224V16.9856L9.82763 15.5488H13.276L15.0001 16.9856V18.4224Z" fill="#73AF00"/>
<path d="M15.0001 30.4907L13.276 31.9275H9.82763L8.10352 30.4907V29.0541L9.82763 27.6172H13.276L15.0001 29.0541V30.4907Z" fill="#73AF00"/>
<path d="M7.24219 12.9629L8.96631 14.687L7.24219 16.4111V12.9629Z" fill="#FFB400"/>
<path d="M15.8628 16.4111L14.1387 14.687L15.8628 12.9629V16.4111Z" fill="#FFB400"/>
<path d="M7.24219 18.998L8.96631 20.7222L7.24219 22.4463V18.998Z" fill="#FFB400"/>
<path d="M15.8628 22.4463L14.1387 20.7222L15.8628 18.998V22.4463Z" fill="#FFB400"/>
<path d="M7.24219 25.0312L8.96631 26.7554L7.24219 28.4795V25.0312Z" fill="#FFB400"/>
<path d="M15.8628 28.4795L14.1387 26.7554L15.8628 25.0312V28.4795Z" fill="#FFB400"/>
<path d="M7.24219 31.0664L8.96631 32.7905L7.24219 34.5146V31.0664Z" fill="#FFB400"/>
<path d="M15.8628 34.5146L14.1387 32.7905L15.8628 31.0664V34.5146Z" fill="#FFB400"/>
<path d="M7.24219 8.65234H8.96631L7.24219 10.3765V8.65234Z" fill="#FFB400"/>
<path d="M15.8628 10.3765L14.1387 8.65234H15.8628V10.3765Z" fill="#FFB400"/>
<path d="M11.9832 15.5488H11.1211V19.8594H11.9832V15.5488Z" fill="#FFB400"/>
<path d="M13.2744 17.2715H9.82617V18.1336H13.2744V17.2715Z" fill="#FF4B55"/>
<path d="M14.1374 16.2672L13.2754 15.5488V19.8592L14.1374 19.1407V16.2672Z" fill="#FFB400"/>
<path d="M8.96582 19.1406L9.82783 19.8591V15.5488L8.96582 16.2671V19.1406Z" fill="#FFB400"/>
<path d="M11.5518 9.51367H9.82773L8.10352 10.9504V11.6688H11.5518V9.51367Z" fill="#FFB400"/>
<path d="M11.5518 13.8231H13.276L15.0001 12.3863V11.668H11.5518V13.8231Z" fill="#FFB400"/>
<path d="M11.5503 12.9612L9.82617 11.6732L11.5503 10.375L13.2745 11.6732L11.5503 12.9612Z" fill="#FF4B55"/>
<path d="M11.5498 12.961L13.274 11.673L13.2673 11.668H11.5498V12.961Z" fill="#73AF00"/>
<path d="M11.5513 11.6682V10.375L9.83398 11.6682H11.5513Z" fill="#73AF00"/>
<path d="M13.2744 22.4453H9.82617V25.0315H13.2744V22.4453Z" fill="#FF4B55"/>
<path d="M14.1365 23.3066H13.2744V24.1687H14.1365V23.3066Z" fill="#FFB400"/>
<path d="M11.9812 23.3066H11.1191V24.1687H11.9812V23.3066Z" fill="#F5F5F5"/>
<path d="M11.9812 28.4785H11.1191V29.3406H11.9812V28.4785Z" fill="#FF4B55"/>
<path d="M13.2742 29.3418H12.4121V30.2039H13.2742V29.3418Z" fill="#FFB400"/>
<path d="M10.6883 29.3418H9.82617V30.2039H10.6883V29.3418Z" fill="#FFB400"/>
<path d="M11.9812 30.2031H11.1191V31.0652H11.9812V30.2031Z" fill="#FF4B55"/>
<path d="M9.82695 23.3066H8.96484V24.1687H9.82695V23.3066Z" fill="#FFB400"/>
<path d="M14.9991 36.5259L13.275 37.9627H9.82666L8.10254 36.5259V35.0893L9.82666 33.6523H13.275L14.9991 35.0893V36.5259Z" fill="#F5F5F5"/>
<path d="M11.5518 33.6523H9.82773L8.10352 35.0892V35.8075H11.5518V33.6523Z" fill="#FFB400"/>
<path d="M11.5518 37.9618H13.276L15.0001 36.525V35.8066H11.5518V37.9618Z" fill="#FFB400"/>
<path d="M13.2745 36.2378L11.5503 37.0999L9.82617 36.2378V35.3758L11.5503 34.5137L13.2745 35.3758V36.2378Z" fill="#FF4B55"/>
<path d="M27.6876 13.3459C27.5958 13.3007 27.5127 13.4202 27.5872 13.4904C28.5628 14.411 29.1793 15.7039 29.1793 17.1459C29.1793 19.9787 26.9023 22.2513 24.1025 22.2513C23.5857 22.2513 23.088 22.1707 22.6184 22.024C22.5212 21.9936 22.4582 22.1241 22.542 22.1823C23.3605 22.7513 24.3471 23.0914 25.4242 23.0914C28.261 23.0914 30.5792 20.8185 30.5792 17.9447C30.5791 15.925 29.3936 14.1846 27.6876 13.3459Z" fill="#F5F5F5"/>
<path d="M20.6723 16.6713L20.4615 17.2679L20.9576 17.6606C21.0218 17.7114 20.9844 17.8148 20.9025 17.8126L20.27 17.7963L20.0499 18.3895C20.0214 18.4663 19.9115 18.4626 19.8883 18.3841L19.7083 17.7776L19.076 17.7515C18.9941 17.7482 18.9637 17.6425 19.0312 17.5961L19.5525 17.2375L19.3819 16.6281C19.3598 16.5492 19.4508 16.4876 19.5159 16.5375L20.018 16.9225L20.5449 16.5719C20.6129 16.5265 20.6996 16.5941 20.6723 16.6713Z" fill="#F5F5F5"/>
<path d="M23.2339 17.9662L23.023 18.5628L23.5191 18.9555C23.5834 19.0064 23.546 19.1097 23.464 19.1075L22.8315 19.0912L22.6114 19.6844C22.5829 19.7612 22.473 19.7575 22.4498 19.679L22.2698 19.0725L21.6376 19.0464C21.5556 19.0431 21.5253 18.9374 21.5927 18.891L22.114 18.5324L21.9434 17.9231C21.9214 17.8442 22.0124 17.7825 22.0774 17.8324L22.5796 18.2174L23.1064 17.8668C23.1745 17.8215 23.2611 17.8891 23.2339 17.9662Z" fill="#F5F5F5"/>
<path d="M23.2085 15.3002L22.9976 15.8968L23.4937 16.2895C23.558 16.3403 23.5206 16.4437 23.4386 16.4415L22.8061 16.4252L22.586 17.0184C22.5575 17.0952 22.4476 17.0915 22.4244 17.013L22.2444 16.4065L21.6122 16.3804C21.5302 16.3771 21.4999 16.2714 21.5674 16.225L22.0886 15.8664L21.918 15.2571C21.896 15.1781 21.987 15.1165 22.052 15.1664L22.5542 15.5514L23.081 15.2008C23.1491 15.1555 23.2358 15.2231 23.2085 15.3002Z" fill="#F5F5F5"/>
<path d="M23.2954 12.7279L23.0845 13.3245L23.5806 13.7172C23.6449 13.7681 23.6075 13.8714 23.5256 13.8693L22.893 13.8529L22.6729 14.4461C22.6444 14.523 22.5345 14.5193 22.5113 14.4407L22.3313 13.8342L21.6991 13.8081C21.6172 13.8048 21.5868 13.6991 21.6543 13.6528L22.1756 13.2942L22.0049 12.6848C21.9829 12.6059 22.0739 12.5443 22.1389 12.5942L22.6411 12.9791L23.1679 12.6285C23.2359 12.5831 23.3226 12.6507 23.2954 12.7279Z" fill="#F5F5F5"/>
<path d="M25.8061 14.0229L25.5953 14.6195L26.0914 15.0121C26.1556 15.063 26.1182 15.1663 26.0363 15.1642L25.4038 15.1479L25.1837 15.741C25.1551 15.8179 25.0453 15.8142 25.022 15.7357L24.8421 15.1291L24.2098 15.103C24.1279 15.0997 24.0975 14.9941 24.165 14.9477L24.6863 14.5891L24.5157 13.9797C24.4936 13.9008 24.5846 13.8392 24.6497 13.8891L25.1518 14.274L25.6787 13.9235C25.7466 13.878 25.8334 13.9456 25.8061 14.0229Z" fill="#F5F5F5"/>
</g>
<defs>
<clipPath id="clip0_3462_28969">
<rect width="50" height="50" fill="white" transform="translate(0.34375 0.03125)"/>
</clipPath>
</defs>
</svg>
