<svg width="51" height="51" viewBox="0 0 51 51" fill="none" xmlns="http://www.w3.org/2000/svg">
<g clip-path="url(#clip0_3462_29020)">
<path d="M50.0528 41.411H1.77715C1.30107 41.411 0.915039 41.0249 0.915039 40.5489V9.51445C0.915039 9.03838 1.30107 8.65234 1.77715 8.65234H50.0529C50.529 8.65234 50.915 9.03838 50.915 9.51445V40.5489C50.9149 41.025 50.5289 41.411 50.0528 41.411Z" fill="#FF4B55"/>
<path d="M13.8752 25.0307C13.8752 28.8422 16.9643 31.9314 20.7724 31.9314C22.1916 31.9314 23.5003 31.4952 24.5903 30.7561C24.7554 30.6442 24.9462 30.86 24.808 31.0038C23.2441 32.6327 21.0541 33.6515 18.6173 33.6515C13.6704 33.6515 9.69718 29.4813 10.0182 24.4634C10.2985 20.0826 13.9306 16.565 18.3179 16.4153C20.8716 16.3281 23.1747 17.3602 24.802 19.0521C24.9416 19.1972 24.7512 19.4162 24.5846 19.3034C23.4957 18.5659 22.1891 18.1301 20.7724 18.1301C16.9644 18.1301 13.8752 21.2262 13.8752 25.0307Z" fill="#F5F5F5"/>
<path d="M29.596 23.8447L28.2447 22.077C28.1692 21.9782 28.0112 22.0324 28.0124 22.1568L28.0321 24.3817L25.9334 25.1206C25.816 25.1619 25.8189 25.3288 25.9375 25.3662L28.0596 26.035L28.1138 28.2593C28.1168 28.3836 28.2766 28.4326 28.3487 28.3313L29.6405 26.5198L31.7728 27.1556C31.8919 27.1912 31.9878 27.0545 31.9138 26.9545L30.59 25.1661L31.8536 23.3347C31.9243 23.2324 31.8239 23.099 31.706 23.1384L29.596 23.8447Z" fill="#F5F5F5"/>
</g>
<defs>
<clipPath id="clip0_3462_29020">
<rect width="50" height="50" fill="white" transform="translate(0.914062 0.03125)"/>
</clipPath>
</defs>
</svg>
