<svg width="51" height="51" viewBox="0 0 51 51" fill="none" xmlns="http://www.w3.org/2000/svg">
<g clip-path="url(#clip0_3462_28931)">
<path d="M49.2042 41.411H0.928514C0.452441 41.411 0.0664062 41.0249 0.0664062 40.5489V9.51445C0.0664062 9.03838 0.452441 8.65234 0.928514 8.65234H49.2043C49.6804 8.65234 50.0664 9.03838 50.0664 9.51445V40.5489C50.0663 41.025 49.6803 41.411 49.2042 41.411Z" fill="#82AFFF"/>
<path d="M24.2043 25.0317H0.928514C0.452441 25.0317 0.0664062 24.6457 0.0664062 24.1696V9.51445C0.0664062 9.03838 0.452441 8.65234 0.928514 8.65234H24.2043C24.6804 8.65234 25.0665 9.03838 25.0665 9.51445V24.1696C25.0664 24.6457 24.6803 25.0317 24.2043 25.0317Z" fill="#41479B"/>
<path d="M24.2043 8.65234H22.7068L14.7215 13.8842V8.65234H10.4111V13.8842L2.42578 8.65234H0.928514C0.452441 8.65234 0.0664062 9.03828 0.0664062 9.51435V10.1981L6.91747 14.6867H0.0664062V18.9971H6.91747L0.0664062 23.4857V24.1695C0.0664062 24.6456 0.452441 25.0316 0.928514 25.0316H2.42597L10.4113 19.7998V25.0316H14.7217V19.7998L22.7069 25.0316H24.2043C24.6804 25.0316 25.0665 24.6456 25.0665 24.1695V23.4857L18.2154 18.9971H25.0664V14.6868H18.2153L25.0664 10.1982V9.51445C25.0664 9.03828 24.6803 8.65234 24.2043 8.65234Z" fill="#F5F5F5"/>
<path d="M25.0673 15.5489H13.8604V8.65234H11.2743V15.5489H0.0673828V18.135H11.2743V25.0316H13.8604V18.135H25.0673V15.5489Z" fill="#FF4B55"/>
<path d="M9.55008 14.6876L0.478222 8.79883C0.236816 8.95156 0.0673828 9.2083 0.0673828 9.51514V9.55986L7.96668 14.6876H9.55008Z" fill="#FF4B55"/>
<path d="M16.3061 14.6868L24.9363 9.08467C24.7863 8.83086 24.5217 8.65234 24.2054 8.65234H24.0189L14.7227 14.6868H16.3061Z" fill="#FF4B55"/>
<path d="M8.80516 18.998L0.191406 24.5894C0.339941 24.8494 0.608691 25.0325 0.929588 25.0325H1.09219L10.3887 18.998H8.80516V18.998Z" fill="#FF4B55"/>
<path d="M25.0537 24.2381L16.9809 18.998H15.3975L24.5648 24.9487C24.8394 24.8213 25.0278 24.5542 25.0537 24.2381Z" fill="#FF4B55"/>
<path d="M21.4193 34.5391L20.9578 35.9227L19.4992 35.9341C19.3594 35.9352 19.3013 36.1137 19.4138 36.1968L20.5872 37.0633L20.1472 38.454C20.105 38.5874 20.2569 38.6976 20.3708 38.6164L21.5575 37.7683L22.7442 38.6164C22.858 38.6977 23.0098 38.5874 22.9677 38.454L22.5278 37.0633L23.7011 36.1968C23.8136 36.1137 23.7556 35.9352 23.6158 35.9341L22.1572 35.9227L21.6957 34.5391C21.6513 34.4063 21.4635 34.4063 21.4193 34.5391Z" fill="#FFE15A"/>
<path d="M43.8871 23.7637L43.4256 25.1474L41.967 25.1587C41.8271 25.1598 41.7691 25.3383 41.8816 25.4214L43.055 26.2879L42.615 27.6786C42.5727 27.812 42.7247 27.9223 42.8385 27.841L44.0253 26.9929L45.212 27.841C45.3257 27.9224 45.4776 27.812 45.4355 27.6786L44.9956 26.2879L46.1689 25.4214C46.2814 25.3383 46.2234 25.1598 46.0836 25.1587L44.625 25.1474L44.1634 23.7637C44.1191 23.6309 43.9313 23.6309 43.8871 23.7637Z" fill="#FFE15A"/>
<path d="M43.8871 12.125L43.4256 13.5087L41.967 13.52C41.8271 13.5211 41.7691 13.6996 41.8816 13.7827L43.055 14.6492L42.615 16.0399C42.5727 16.1733 42.7247 16.2836 42.8385 16.2023L44.0253 15.3542L45.212 16.2023C45.3257 16.2837 45.4776 16.1733 45.4355 16.0399L44.9956 14.6492L46.1689 13.7827C46.2814 13.6996 46.2234 13.5211 46.0836 13.52L44.625 13.5087L44.1634 12.125C44.1191 11.9922 43.9313 11.9922 43.8871 12.125Z" fill="#FFE15A"/>
<path d="M27.1948 27.2595L27.6504 28.6452L26.4868 29.5248C26.3753 29.6091 26.4351 29.787 26.5751 29.7865L28.0337 29.7814L28.5107 31.1598C28.5565 31.2921 28.7441 31.2899 28.7869 31.1567L29.2328 29.7678L30.6912 29.7401C30.831 29.7374 30.887 29.5583 30.7736 29.4765L29.5905 28.6232L30.0148 27.2276C30.0555 27.0938 29.9024 26.9851 29.7896 27.0678L28.6126 27.9294L27.4165 27.0946C27.3016 27.0146 27.151 27.1266 27.1948 27.2595Z" fill="#FFE15A"/>
<path d="M27.0874 33.24L27.5429 34.6257L26.3794 35.5052C26.2678 35.5896 26.3277 35.7674 26.4676 35.767L27.9262 35.7619L28.4033 37.1403C28.4491 37.2725 28.6367 37.2704 28.6795 37.1372L29.1253 35.7483L30.5837 35.7206C30.7236 35.7178 30.7795 35.5387 30.6662 35.457L29.4831 34.6037L29.9074 33.2081C29.9481 33.0743 29.795 32.9656 29.6822 33.0483L28.5051 33.9098L27.309 33.0751C27.1943 32.9951 27.0436 33.1072 27.0874 33.24Z" fill="#FFE15A"/>
<path d="M33.3911 31.7302L33.8466 33.1158L32.6831 33.9954C32.5715 34.0798 32.6314 34.2576 32.7714 34.2571L34.2299 34.252L34.707 35.6304C34.7528 35.7627 34.9404 35.7605 34.9832 35.6273L35.4291 34.2385L36.8875 34.2107C37.0273 34.208 37.0833 34.0289 36.9699 33.9471L35.7868 33.0939L36.2111 31.6983C36.2518 31.5644 36.0987 31.4558 35.9859 31.5386L34.8088 32.4001L33.6128 31.5653C33.498 31.4852 33.3473 31.5973 33.3911 31.7302Z" fill="#FFE15A"/>
<path d="M33.2837 18.6911L33.7392 20.0767L32.5756 20.9563C32.4641 21.0407 32.524 21.2185 32.6639 21.218L34.1225 21.213L34.5996 22.5914C34.6454 22.7236 34.833 22.7214 34.8757 22.5882L35.3216 21.1994L36.78 21.1716C36.9199 21.1689 36.9758 20.9898 36.8625 20.9081L35.6793 20.0549L36.1037 18.6592C36.1444 18.5255 35.9913 18.4168 35.8785 18.4995L34.7014 19.361L33.5053 18.5262C33.3905 18.4462 33.2399 18.5582 33.2837 18.6911Z" fill="#FFE15A"/>
<path d="M38.6176 16.9138L39.0732 18.2995L37.9096 19.1791C37.7981 19.2634 37.858 19.4413 37.9979 19.4408L39.4565 19.4357L39.9336 20.8141C39.9794 20.9463 40.167 20.9442 40.2097 20.811L40.6556 19.4221L42.114 19.3944C42.2539 19.3917 42.3098 19.2126 42.1964 19.1308L41.0133 18.2775L41.4377 16.8819C41.4784 16.7481 41.3252 16.6394 41.2125 16.7221L40.0354 17.5837L38.8393 16.7489C38.7246 16.6689 38.5739 16.7809 38.6176 16.9138Z" fill="#FFE15A"/>
</g>
<defs>
<clipPath id="clip0_3462_28931">
<rect width="50" height="50" fill="white" transform="translate(0.0664062 0.03125)"/>
</clipPath>
</defs>
</svg>
