<svg width="51" height="51" viewBox="0 0 51 51" fill="none" xmlns="http://www.w3.org/2000/svg">
<g clip-path="url(#clip0_3462_28915)">
<path d="M50.3603 14.1122H0.360352V9.51445C0.360352 9.03838 0.746386 8.65234 1.22246 8.65234H49.4982C49.9743 8.65234 50.3604 9.03838 50.3604 9.51445L50.3603 14.1122Z" fill="#464655"/>
<path d="M50.3603 14.1113H0.360352V19.5711H50.3603V14.1113Z" fill="#FFE15A"/>
<path d="M50.3603 19.5703H0.360352V25.0301H50.3603V19.5703Z" fill="#FF4B55"/>
<path d="M50.3603 25.0312H0.360352V30.491H50.3603V25.0312Z" fill="#464655"/>
<path d="M50.3603 30.4902H0.360352V35.95H50.3603V30.4902Z" fill="#FFE15A"/>
<path d="M49.4981 41.411H1.22246C0.746386 41.411 0.360352 41.025 0.360352 40.5489V35.9512H50.3603V40.5489C50.3603 41.0251 49.9742 41.411 49.4981 41.411Z" fill="#FF4B55"/>
<path d="M25.3609 30.2043C28.2176 30.2043 30.5334 27.8885 30.5334 25.0318C30.5334 22.1752 28.2176 19.8594 25.3609 19.8594C22.5043 19.8594 20.1885 22.1752 20.1885 25.0318C20.1885 27.8885 22.5043 30.2043 25.3609 30.2043Z" fill="#F5F5F5"/>
<path d="M25.6719 21.8819L26.1814 21.6781C26.2552 21.6486 26.2909 21.5638 26.2582 21.4914C26.144 21.2381 25.8378 20.7139 25.256 20.6981C24.8875 20.6881 24.612 20.7711 24.4566 20.8353C24.3772 20.868 24.3452 20.9625 24.3886 21.0367L24.696 21.5619L25.6719 21.8819Z" fill="#FF4B55"/>
<path d="M25.2561 20.6976C25.2137 20.6964 25.1755 20.6988 25.1355 20.7L25.0801 21.5134L25.376 21.6773L26.016 21.0982C25.8476 20.8944 25.6005 20.7069 25.2561 20.6976Z" fill="#FFE15A"/>
<path d="M27.4476 26.666L25.144 23.9785C25.144 23.4223 25.345 22.9681 25.4561 22.7592C25.7732 22.6176 25.9777 22.2689 25.8926 21.884C25.8308 21.604 25.6048 21.3756 25.3253 21.3117C24.8224 21.1968 24.3762 21.5756 24.3762 22.0588C24.3762 22.077 24.3803 22.0941 24.3815 22.1119C23.8847 22.243 23.7923 22.4028 23.7923 22.4028C23.7923 22.4028 24.118 22.3161 24.4006 22.2421C24.4062 22.2652 24.4139 22.2873 24.4215 22.3096L23.8642 22.4989L24.4728 22.4248C24.5403 22.5485 24.6405 22.6512 24.7615 22.7223C24.3066 23.0887 23.6082 23.7773 23.6082 24.5546C23.6082 25.2653 24.1347 25.739 24.7978 26.0538C25.0296 26.164 25.2426 26.3092 25.4178 26.4967L25.4243 26.5037L25.4819 27.386C25.0063 27.386 24.4395 27.386 24.1841 27.386C23.7041 27.386 23.5723 27.698 23.5723 28.2139L23.8002 27.89L23.9921 28.2499L24.0161 27.8419L24.2201 28.1058C24.2201 28.1058 24.2181 27.761 24.4781 27.7158C24.616 27.6918 25.094 27.6618 25.5001 27.6618L25.5861 28.9767C25.0354 28.9741 24.4122 29.2335 24.4122 29.2335C24.6041 29.1975 25.0722 29.2695 25.0722 29.2695L24.9941 29.4975C25.534 29.2035 26.5239 29.1975 26.5239 29.1975C26.5239 29.1975 26.308 29.0502 25.8041 28.9926L25.8157 27.6617H26.6078L26.7277 27.3498C26.7277 27.3498 26.319 26.8075 26.319 26.5204C26.9527 26.6407 27.4476 26.666 27.4476 26.666ZM25.8181 27.386L25.8221 26.9295C26.0599 27.1844 26.2479 27.386 26.2479 27.386C26.2479 27.386 26.0703 27.386 25.8181 27.386Z" fill="#464655"/>
<path d="M27.4476 27.05C27.2557 26.2821 26.4143 26.0461 25.5279 25.5143C24.5682 24.9384 25.1439 23.9785 25.1439 23.9785C25.1439 23.9785 28.3594 24.9224 28.5993 26.282C28.7861 27.341 28.0234 28.0098 27.6395 28.2017L27.7774 27.8177H27.0636C27.0636 27.8177 27.8194 27.2298 27.8314 26.6658L27.4476 27.05Z" fill="#696E7D"/>
<path d="M28.6004 26.2803C28.44 25.3713 26.9507 24.6488 25.9804 24.2692C25.6698 24.2346 25.397 24.7566 26.2488 25.3205C27.3948 26.0791 27.4486 27.0482 27.4486 27.0482L27.8326 26.6642C27.8207 27.2281 27.0648 27.8161 27.0648 27.8161H27.7786L27.6407 28.2001C28.0245 28.0081 28.7872 27.3394 28.6004 26.2803Z" fill="#FFFCFF"/>
<path d="M28.6005 26.2821C28.4941 25.6797 27.8038 25.1598 27.068 24.7668C26.7136 24.6608 26.4049 24.6744 26.4049 24.6744C26.6208 24.8064 26.7168 25.1423 26.7168 25.1423C26.5608 25.0463 26.2129 25.0943 26.2129 25.0943C26.3097 25.1773 26.4014 25.3465 26.4627 25.4762C27.4011 26.2056 27.4487 27.0501 27.4487 27.0501L27.8327 26.6661C27.8208 27.23 27.0648 27.8179 27.0648 27.8179H27.7787L27.6408 28.2019C28.0246 28.0098 28.7873 27.3412 28.6005 26.2821Z" fill="#FF4B55"/>
<path d="M24.8325 22.1135C24.9033 22.1135 24.9608 22.0562 24.9608 21.9854C24.9608 21.9147 24.9033 21.8574 24.8325 21.8574C24.7616 21.8574 24.7041 21.9147 24.7041 21.9854C24.7041 22.0562 24.7616 22.1135 24.8325 22.1135Z" fill="#F5F5F5"/>
<path d="M24.4965 22.4746C24.4965 22.4746 24.2165 22.8025 24.4005 22.8985C24.5845 22.9945 24.7619 22.7219 24.7619 22.7219L24.4965 22.4746Z" fill="#FF4B55"/>
</g>
<defs>
<clipPath id="clip0_3462_28915">
<rect width="50" height="50" fill="white" transform="translate(0.359375 0.03125)"/>
</clipPath>
</defs>
</svg>
