<svg width="50" height="51" viewBox="0 0 50 51" fill="none" xmlns="http://www.w3.org/2000/svg">
<g clip-path="url(#clip0_3462_28821)">
<path d="M49.1378 41.7039H0.862108C0.386034 41.7039 0 41.3179 0 40.8418V9.80742C0 9.33135 0.386034 8.94531 0.862108 8.94531H49.1379C49.614 8.94531 50 9.33135 50 9.80742V40.8418C49.9999 41.318 49.6139 41.7039 49.1378 41.7039Z" fill="#F5F5F5"/>
<path d="M49.9999 11.4653H0V9.80742C0 9.33135 0.386034 8.94531 0.862108 8.94531H49.1379C49.614 8.94531 50 9.33135 50 9.80742L49.9999 11.4653Z" fill="#FF4B55"/>
<path d="M49.9999 19.0254H0V21.5453H49.9999V19.0254Z" fill="#FF4B55"/>
<path d="M49.9999 13.9844H0V16.5043H49.9999V13.9844Z" fill="#FF4B55"/>
<path d="M49.9999 26.5845H0.862108C0.386034 26.5845 0 26.1984 0 25.7224V24.0645H49.9999V26.5845Z" fill="#FF4B55"/>
<path d="M49.9999 34.1445H0V36.6644H49.9999V34.1445Z" fill="#FF4B55"/>
<path d="M49.1378 41.7035H0.862108C0.386034 41.7035 0 41.3175 0 40.8414V39.1836H49.9999V40.8415C49.9999 41.3176 49.6139 41.7035 49.1378 41.7035Z" fill="#FF4B55"/>
<path d="M49.9999 29.1055H0V31.6254H49.9999V29.1055Z" fill="#FF4B55"/>
<path d="M22.4137 8.94531H0.862108C0.386034 8.94531 0 9.33125 0 9.80732V25.7223C0 26.1984 0.386034 26.5844 0.862108 26.5844H22.4138C22.8899 26.5844 23.2759 26.1984 23.2759 25.7223V9.80732C23.2758 9.33125 22.8898 8.94531 22.4137 8.94531Z" fill="#41479B"/>
<path d="M2.42152 10.9228L2.61234 11.495L3.21556 11.4996C3.29368 11.5003 3.32601 11.5999 3.26321 11.6463L2.77796 12.0047L2.95999 12.5798C2.98363 12.6542 2.89876 12.7159 2.83519 12.6704L2.34447 12.3197L1.85375 12.6705C1.79017 12.7159 1.7055 12.6543 1.72894 12.5799L1.91097 12.0048L1.42572 11.6464C1.36293 11.5999 1.39525 11.5004 1.47337 11.4997L2.0766 11.4951L2.26742 10.9229C2.29203 10.8486 2.39671 10.8486 2.42152 10.9228Z" fill="#F5F5F5"/>
<path d="M2.42152 13.9168L2.61234 14.4891L3.21556 14.4937C3.29368 14.4944 3.32601 14.594 3.26321 14.6404L2.77796 14.9988L2.95999 15.5739C2.98363 15.6483 2.89876 15.71 2.83519 15.6645L2.34447 15.3138L1.85375 15.6646C1.79017 15.71 1.7055 15.6484 1.72894 15.574L1.91097 14.9989L1.42572 14.6405C1.36293 14.594 1.39525 14.4945 1.47337 14.4938L2.0766 14.4892L2.26742 13.9169C2.29203 13.8428 2.39671 13.8428 2.42152 13.9168Z" fill="#F5F5F5"/>
<path d="M2.42152 16.909L2.61234 17.4813L3.21556 17.4859C3.29368 17.4866 3.32601 17.5862 3.26321 17.6326L2.77796 17.991L2.95999 18.566C2.98363 18.6405 2.89876 18.7022 2.83519 18.6567L2.34447 18.306L1.85375 18.6568C1.79017 18.7022 1.7055 18.6406 1.72894 18.5661L1.91097 17.991L1.42572 17.6327C1.36293 17.5862 1.39525 17.4867 1.47337 17.486L2.0766 17.4814L2.26742 16.9091C2.29203 16.835 2.39671 16.835 2.42152 16.909Z" fill="#F5F5F5"/>
<path d="M2.42152 19.9032L2.61234 20.4755L3.21556 20.4801C3.29368 20.4808 3.32601 20.5804 3.26321 20.6268L2.77796 20.9852L2.95999 21.5603C2.98363 21.6347 2.89876 21.6964 2.83519 21.6509L2.34447 21.3002L1.85375 21.651C1.79017 21.6964 1.7055 21.6348 1.72894 21.5604L1.91097 20.9853L1.42572 20.6269C1.36293 20.5804 1.39525 20.4809 1.47337 20.4802L2.0766 20.4756L2.26742 19.9033C2.29203 19.8291 2.39671 19.8291 2.42152 19.9032Z" fill="#F5F5F5"/>
<path d="M2.42152 22.8974L2.61234 23.4697L3.21556 23.4743C3.29368 23.475 3.32601 23.5746 3.26321 23.621L2.77796 23.9794L2.95999 24.5545C2.98363 24.6289 2.89876 24.6906 2.83519 24.6451L2.34447 24.2944L1.85375 24.6452C1.79017 24.6906 1.7055 24.629 1.72894 24.5546L1.91097 23.9795L1.42572 23.6211C1.36293 23.5746 1.39525 23.4751 1.47337 23.4744L2.0766 23.4698L2.26742 22.8975C2.29203 22.8232 2.39671 22.8232 2.42152 22.8974Z" fill="#F5F5F5"/>
<path d="M4.74476 12.3895L4.93558 12.9618L5.5388 12.9664C5.61693 12.967 5.64925 13.0666 5.58646 13.113L5.1012 13.4714L5.28323 14.0465C5.30687 14.1209 5.222 14.1827 5.15843 14.1372L4.66771 13.7864L4.17699 14.1372C4.11341 14.1826 4.02875 14.1209 4.05218 14.0465L4.23421 13.4714L3.74896 13.113C3.68617 13.0666 3.71849 12.967 3.79662 12.9664L4.39984 12.9618L4.59066 12.3895C4.61517 12.3155 4.72005 12.3155 4.74476 12.3895Z" fill="#F5F5F5"/>
<path d="M4.74476 15.3837L4.93558 15.956L5.5388 15.9606C5.61693 15.9613 5.64925 16.0609 5.58646 16.1072L5.1012 16.4656L5.28323 17.0407C5.30687 17.1152 5.222 17.1769 5.15843 17.1314L4.66771 16.7806L4.17699 17.1314C4.11341 17.1768 4.02875 17.1153 4.05218 17.0407L4.23421 16.4656L3.74896 16.1072C3.68617 16.0608 3.71849 15.9613 3.79662 15.9606L4.39984 15.956L4.59066 15.3837C4.61517 15.3096 4.72005 15.3096 4.74476 15.3837Z" fill="#F5F5F5"/>
<path d="M4.74476 18.3779L4.93558 18.9501L5.5388 18.9547C5.61693 18.9554 5.64925 19.055 5.58646 19.1014L5.1012 19.4598L5.28323 20.0349C5.30687 20.1093 5.222 20.171 5.15843 20.1255L4.66771 19.7747L4.17699 20.1255C4.11341 20.1709 4.02875 20.1093 4.05218 20.0349L4.23421 19.4598L3.74896 19.1014C3.68617 19.0549 3.71849 18.9554 3.79662 18.9547L4.39984 18.9501L4.59066 18.3779C4.61517 18.3037 4.72005 18.3037 4.74476 18.3779Z" fill="#F5F5F5"/>
<path d="M4.74476 21.3719L4.93558 21.9442L5.5388 21.9488C5.61693 21.9495 5.64925 22.0491 5.58646 22.0955L5.1012 22.4539L5.28323 23.029C5.30687 23.1034 5.222 23.1651 5.15843 23.1196L4.66771 22.7688L4.17699 23.1196C4.11341 23.165 4.02875 23.1034 4.05218 23.029L4.23421 22.4539L3.74896 22.0955C3.68617 22.049 3.71849 21.9495 3.79662 21.9488L4.39984 21.9442L4.59066 21.3719C4.61517 21.2979 4.72005 21.2979 4.74476 21.3719Z" fill="#F5F5F5"/>
<path d="M7.06898 10.9228L7.2598 11.495L7.86302 11.4996C7.94114 11.5003 7.97347 11.5999 7.91068 11.6463L7.42542 12.0047L7.60745 12.5798C7.63109 12.6542 7.54622 12.7159 7.48265 12.6704L6.99193 12.3196L6.50121 12.6704C6.43763 12.7158 6.35296 12.6542 6.3764 12.5798L6.55843 12.0047L6.07318 11.6463C6.01039 11.5998 6.04271 11.5003 6.12084 11.4996L6.72406 11.495L6.91488 10.9228C6.93949 10.8487 7.04427 10.8487 7.06898 10.9228Z" fill="#F5F5F5"/>
<path d="M7.06898 13.9168L7.2598 14.4891L7.86302 14.4937C7.94114 14.4944 7.97347 14.594 7.91068 14.6404L7.42542 14.9988L7.60745 15.5739C7.63109 15.6483 7.54622 15.71 7.48265 15.6645L6.99193 15.3137L6.50121 15.6645C6.43763 15.7099 6.35296 15.6483 6.3764 15.5739L6.55843 14.9988L6.07318 14.6404C6.01039 14.5939 6.04271 14.4944 6.12084 14.4937L6.72406 14.4891L6.91488 13.9168C6.93949 13.8428 7.04427 13.8428 7.06898 13.9168Z" fill="#F5F5F5"/>
<path d="M7.06898 16.909L7.2598 17.4813L7.86302 17.4859C7.94114 17.4866 7.97347 17.5862 7.91068 17.6326L7.42542 17.991L7.60745 18.5661C7.63109 18.6405 7.54622 18.7022 7.48265 18.6567L6.99193 18.3059L6.50121 18.6567C6.43763 18.7021 6.35296 18.6405 6.3764 18.5661L6.55843 17.991L6.07318 17.6326C6.01039 17.5861 6.04271 17.4866 6.12084 17.4859L6.72406 17.4813L6.91488 16.909C6.93949 16.835 7.04427 16.835 7.06898 16.909Z" fill="#F5F5F5"/>
<path d="M7.06898 19.9032L7.2598 20.4755L7.86302 20.4801C7.94114 20.4808 7.97347 20.5804 7.91068 20.6268L7.42542 20.9852L7.60745 21.5603C7.63109 21.6347 7.54622 21.6964 7.48265 21.6509L6.99193 21.3001L6.50121 21.6509C6.43763 21.6963 6.35296 21.6347 6.3764 21.5603L6.55843 20.9852L6.07318 20.6268C6.01039 20.5803 6.04271 20.4808 6.12084 20.4801L6.72406 20.4755L6.91488 19.9032C6.93949 19.8291 7.04427 19.8291 7.06898 19.9032Z" fill="#F5F5F5"/>
<path d="M7.06898 22.8975L7.2598 23.4697L7.86302 23.4743C7.94114 23.475 7.97347 23.5746 7.91068 23.621L7.42542 23.9794L7.60745 24.5545C7.63109 24.6289 7.54622 24.6906 7.48265 24.6451L6.99193 24.2943L6.50121 24.6451C6.43763 24.6905 6.35296 24.6289 6.3764 24.5545L6.55843 23.9794L6.07318 23.621C6.01039 23.5745 6.04271 23.475 6.12084 23.4743L6.72406 23.4697L6.91488 22.8975C6.93949 22.8232 7.04427 22.8232 7.06898 22.8975Z" fill="#F5F5F5"/>
<path d="M9.39222 12.3895L9.58304 12.9618L10.1863 12.9664C10.2644 12.967 10.2967 13.0666 10.2339 13.113L9.74866 13.4714L9.9307 14.0465C9.95433 14.1209 9.86947 14.1827 9.80589 14.1372L9.31517 13.7864L8.82445 14.1372C8.76087 14.1826 8.67621 14.1209 8.69964 14.0465L8.88167 13.4714L8.39642 13.113C8.33363 13.0666 8.36595 12.967 8.44408 12.9664L9.0473 12.9618L9.23812 12.3895C9.26263 12.3155 9.36751 12.3155 9.39222 12.3895Z" fill="#F5F5F5"/>
<path d="M9.39222 15.3837L9.58304 15.956L10.1863 15.9606C10.2644 15.9613 10.2967 16.0609 10.2339 16.1072L9.74866 16.4656L9.9307 17.0407C9.95433 17.1152 9.86947 17.1769 9.80589 17.1314L9.31517 16.7806L8.82445 17.1314C8.76087 17.1768 8.67621 17.1153 8.69964 17.0407L8.88167 16.4656L8.39642 16.1072C8.33363 16.0608 8.36595 15.9613 8.44408 15.9606L9.0473 15.956L9.23812 15.3837C9.26263 15.3096 9.36751 15.3096 9.39222 15.3837Z" fill="#F5F5F5"/>
<path d="M9.39222 18.3779L9.58304 18.9501L10.1863 18.9547C10.2644 18.9554 10.2967 19.055 10.2339 19.1014L9.74866 19.4598L9.9307 20.0349C9.95433 20.1093 9.86947 20.171 9.80589 20.1255L9.31517 19.7747L8.82445 20.1255C8.76087 20.1709 8.67621 20.1093 8.69964 20.0349L8.88167 19.4598L8.39642 19.1014C8.33363 19.0549 8.36595 18.9554 8.44408 18.9547L9.0473 18.9501L9.23812 18.3779C9.26263 18.3037 9.36751 18.3037 9.39222 18.3779Z" fill="#F5F5F5"/>
<path d="M9.39222 21.3719L9.58304 21.9442L10.1863 21.9488C10.2644 21.9495 10.2967 22.0491 10.2339 22.0955L9.74866 22.4539L9.9307 23.029C9.95433 23.1034 9.86947 23.1651 9.80589 23.1196L9.31517 22.7688L8.82445 23.1196C8.76087 23.165 8.67621 23.1034 8.69964 23.029L8.88167 22.4539L8.39642 22.0955C8.33363 22.049 8.36595 21.9495 8.44408 21.9488L9.0473 21.9442L9.23812 21.3719C9.26263 21.2979 9.36751 21.2979 9.39222 21.3719Z" fill="#F5F5F5"/>
<path d="M11.7156 10.9228L11.9064 11.495L12.5096 11.4996C12.5877 11.5003 12.62 11.5999 12.5573 11.6463L12.072 12.0047L12.254 12.5798C12.2777 12.6542 12.1928 12.7159 12.1292 12.6704L11.6384 12.3196L11.1477 12.6704C11.0841 12.7158 10.9994 12.6542 11.0229 12.5798L11.2049 12.0047L10.7197 11.6463C10.6569 11.5998 10.6892 11.5003 10.7673 11.4996L11.3705 11.495L11.5614 10.9228C11.5861 10.8487 11.6909 10.8487 11.7156 10.9228Z" fill="#F5F5F5"/>
<path d="M11.7156 13.9168L11.9064 14.4891L12.5096 14.4937C12.5877 14.4944 12.62 14.594 12.5573 14.6404L12.072 14.9988L12.254 15.5739C12.2777 15.6483 12.1928 15.71 12.1292 15.6645L11.6384 15.3137L11.1477 15.6645C11.0841 15.7099 10.9994 15.6483 11.0229 15.5739L11.2049 14.9988L10.7197 14.6404C10.6569 14.5939 10.6892 14.4944 10.7673 14.4937L11.3705 14.4891L11.5614 13.9168C11.5861 13.8428 11.6909 13.8428 11.7156 13.9168Z" fill="#F5F5F5"/>
<path d="M11.7156 16.909L11.9064 17.4813L12.5096 17.4859C12.5877 17.4866 12.62 17.5862 12.5573 17.6326L12.072 17.991L12.254 18.5661C12.2777 18.6405 12.1928 18.7022 12.1292 18.6567L11.6384 18.3059L11.1477 18.6567C11.0841 18.7021 10.9994 18.6405 11.0229 18.5661L11.2049 17.991L10.7197 17.6326C10.6569 17.5861 10.6892 17.4866 10.7673 17.4859L11.3705 17.4813L11.5614 16.909C11.5861 16.835 11.6909 16.835 11.7156 16.909Z" fill="#F5F5F5"/>
<path d="M11.7156 19.9032L11.9064 20.4755L12.5096 20.4801C12.5877 20.4808 12.62 20.5804 12.5573 20.6268L12.072 20.9852L12.254 21.5603C12.2777 21.6347 12.1928 21.6964 12.1292 21.6509L11.6384 21.3001L11.1477 21.6509C11.0841 21.6963 10.9994 21.6347 11.0229 21.5603L11.2049 20.9852L10.7197 20.6268C10.6569 20.5803 10.6892 20.4808 10.7673 20.4801L11.3705 20.4755L11.5614 19.9032C11.5861 19.8291 11.6909 19.8291 11.7156 19.9032Z" fill="#F5F5F5"/>
<path d="M11.7156 22.8975L11.9064 23.4697L12.5096 23.4743C12.5877 23.475 12.62 23.5746 12.5573 23.621L12.072 23.9794L12.254 24.5545C12.2777 24.6289 12.1928 24.6906 12.1292 24.6451L11.6384 24.2943L11.1477 24.6451C11.0841 24.6905 10.9994 24.6289 11.0229 24.5545L11.2049 23.9794L10.7197 23.621C10.6569 23.5745 10.6892 23.475 10.7673 23.4743L11.3705 23.4697L11.5614 22.8975C11.5861 22.8232 11.6909 22.8232 11.7156 22.8975Z" fill="#F5F5F5"/>
<path d="M14.0397 12.3895L14.2305 12.9618L14.8337 12.9664C14.9118 12.967 14.9442 13.0666 14.8814 13.113L14.3961 13.4714L14.5782 14.0465C14.6018 14.1209 14.5169 14.1827 14.4534 14.1372L13.9626 13.7864L13.4719 14.1372C13.4083 14.1826 13.3237 14.1209 13.3471 14.0465L13.5291 13.4714L13.0439 13.113C12.9811 13.0666 13.0134 12.967 13.0915 12.9664L13.6948 12.9618L13.8856 12.3895C13.9103 12.3155 14.015 12.3155 14.0397 12.3895Z" fill="#F5F5F5"/>
<path d="M14.0397 15.3837L14.2305 15.956L14.8337 15.9606C14.9118 15.9613 14.9442 16.0609 14.8814 16.1072L14.3961 16.4656L14.5782 17.0407C14.6018 17.1152 14.5169 17.1769 14.4534 17.1314L13.9626 16.7806L13.4719 17.1314C13.4083 17.1768 13.3237 17.1153 13.3471 17.0407L13.5291 16.4656L13.0439 16.1072C12.9811 16.0608 13.0134 15.9613 13.0915 15.9606L13.6948 15.956L13.8856 15.3837C13.9103 15.3096 14.015 15.3096 14.0397 15.3837Z" fill="#F5F5F5"/>
<path d="M14.0397 18.3779L14.2305 18.9501L14.8337 18.9547C14.9118 18.9554 14.9442 19.055 14.8814 19.1014L14.3961 19.4598L14.5782 20.0349C14.6018 20.1093 14.5169 20.171 14.4534 20.1255L13.9626 19.7747L13.4719 20.1255C13.4083 20.1709 13.3237 20.1093 13.3471 20.0349L13.5291 19.4598L13.0439 19.1014C12.9811 19.0549 13.0134 18.9554 13.0915 18.9547L13.6948 18.9501L13.8856 18.3779C13.9103 18.3037 14.015 18.3037 14.0397 18.3779Z" fill="#F5F5F5"/>
<path d="M14.0397 21.3719L14.2305 21.9442L14.8337 21.9488C14.9118 21.9495 14.9442 22.0491 14.8814 22.0955L14.3961 22.4539L14.5782 23.029C14.6018 23.1034 14.5169 23.1651 14.4534 23.1196L13.9626 22.7688L13.4719 23.1196C13.4083 23.165 13.3237 23.1034 13.3471 23.029L13.5291 22.4539L13.0439 22.0955C12.9811 22.049 13.0134 21.9495 13.0915 21.9488L13.6948 21.9442L13.8856 21.3719C13.9103 21.2979 14.015 21.2979 14.0397 21.3719Z" fill="#F5F5F5"/>
<path d="M16.3629 10.9228L16.5537 11.495L17.157 11.4996C17.2351 11.5003 17.2674 11.5999 17.2046 11.6463L16.7194 12.0047L16.9014 12.5798C16.925 12.6542 16.8402 12.7159 16.7766 12.6704L16.2859 12.3196L15.7952 12.6704C15.7316 12.7158 15.6469 12.6542 15.6703 12.5798L15.8524 12.0047L15.3671 11.6463C15.3043 11.5998 15.3367 11.5003 15.4148 11.4996L16.018 11.495L16.2088 10.9228C16.2333 10.8487 16.3382 10.8487 16.3629 10.9228Z" fill="#F5F5F5"/>
<path d="M16.3629 13.9168L16.5537 14.4891L17.157 14.4937C17.2351 14.4944 17.2674 14.594 17.2046 14.6404L16.7194 14.9988L16.9014 15.5739C16.925 15.6483 16.8402 15.71 16.7766 15.6645L16.2859 15.3137L15.7952 15.6645C15.7316 15.7099 15.6469 15.6483 15.6703 15.5739L15.8524 14.9988L15.3671 14.6404C15.3043 14.5939 15.3367 14.4944 15.4148 14.4937L16.018 14.4891L16.2088 13.9168C16.2333 13.8428 16.3382 13.8428 16.3629 13.9168Z" fill="#F5F5F5"/>
<path d="M16.3629 16.909L16.5537 17.4813L17.157 17.4859C17.2351 17.4866 17.2674 17.5862 17.2046 17.6326L16.7194 17.991L16.9014 18.5661C16.925 18.6405 16.8402 18.7022 16.7766 18.6567L16.2859 18.3059L15.7952 18.6567C15.7316 18.7021 15.6469 18.6405 15.6703 18.5661L15.8524 17.991L15.3671 17.6326C15.3043 17.5861 15.3367 17.4866 15.4148 17.4859L16.018 17.4813L16.2088 16.909C16.2333 16.835 16.3382 16.835 16.3629 16.909Z" fill="#F5F5F5"/>
<path d="M16.3629 19.9032L16.5537 20.4755L17.157 20.4801C17.2351 20.4808 17.2674 20.5804 17.2046 20.6268L16.7194 20.9852L16.9014 21.5603C16.925 21.6347 16.8402 21.6964 16.7766 21.6509L16.2859 21.3001L15.7952 21.6509C15.7316 21.6963 15.6469 21.6347 15.6703 21.5603L15.8524 20.9852L15.3671 20.6268C15.3043 20.5803 15.3367 20.4808 15.4148 20.4801L16.018 20.4755L16.2088 19.9032C16.2333 19.8291 16.3382 19.8291 16.3629 19.9032Z" fill="#F5F5F5"/>
<path d="M16.3629 22.8975L16.5537 23.4697L17.157 23.4743C17.2351 23.475 17.2674 23.5746 17.2046 23.621L16.7194 23.9794L16.9014 24.5545C16.925 24.6289 16.8402 24.6906 16.7766 24.6451L16.2859 24.2943L15.7952 24.6451C15.7316 24.6905 15.6469 24.6289 15.6703 24.5545L15.8524 23.9794L15.3671 23.621C15.3043 23.5745 15.3367 23.475 15.4148 23.4743L16.018 23.4697L16.2088 22.8975C16.2333 22.8232 16.3382 22.8232 16.3629 22.8975Z" fill="#F5F5F5"/>
<path d="M18.6862 12.3895L18.877 12.9618L19.4802 12.9664C19.5583 12.967 19.5907 13.0666 19.5279 13.113L19.0426 13.4714L19.2246 14.0465C19.2483 14.1209 19.1634 14.1827 19.0998 14.1372L18.6091 13.7864L18.1184 14.1372C18.0548 14.1826 17.9702 14.1209 17.9936 14.0465L18.1756 13.4714L17.6904 13.113C17.6276 13.0666 17.6599 12.967 17.738 12.9664L18.3412 12.9618L18.5321 12.3895C18.5567 12.3155 18.6616 12.3155 18.6862 12.3895Z" fill="#F5F5F5"/>
<path d="M18.6862 15.3837L18.877 15.956L19.4802 15.9606C19.5583 15.9613 19.5907 16.0609 19.5279 16.1072L19.0426 16.4656L19.2246 17.0407C19.2483 17.1152 19.1634 17.1769 19.0998 17.1314L18.6091 16.7806L18.1184 17.1314C18.0548 17.1768 17.9702 17.1153 17.9936 17.0407L18.1756 16.4656L17.6904 16.1072C17.6276 16.0608 17.6599 15.9613 17.738 15.9606L18.3412 15.956L18.5321 15.3837C18.5567 15.3096 18.6616 15.3096 18.6862 15.3837Z" fill="#F5F5F5"/>
<path d="M18.6862 18.3779L18.877 18.9501L19.4802 18.9547C19.5583 18.9554 19.5907 19.055 19.5279 19.1014L19.0426 19.4598L19.2246 20.0349C19.2483 20.1093 19.1634 20.171 19.0998 20.1255L18.6091 19.7747L18.1184 20.1255C18.0548 20.1709 17.9702 20.1093 17.9936 20.0349L18.1756 19.4598L17.6904 19.1014C17.6276 19.0549 17.6599 18.9554 17.738 18.9547L18.3412 18.9501L18.5321 18.3779C18.5567 18.3037 18.6616 18.3037 18.6862 18.3779Z" fill="#F5F5F5"/>
<path d="M18.6862 21.3719L18.877 21.9442L19.4802 21.9488C19.5583 21.9495 19.5907 22.0491 19.5279 22.0955L19.0426 22.4539L19.2246 23.029C19.2483 23.1034 19.1634 23.1651 19.0998 23.1196L18.6091 22.7688L18.1184 23.1196C18.0548 23.165 17.9702 23.1034 17.9936 23.029L18.1756 22.4539L17.6904 22.0955C17.6276 22.049 17.6599 21.9495 17.738 21.9488L18.3412 21.9442L18.5321 21.3719C18.5567 21.2979 18.6616 21.2979 18.6862 21.3719Z" fill="#F5F5F5"/>
<path d="M21.0104 10.9228L21.2012 11.495L21.8044 11.4996C21.8826 11.5003 21.9149 11.5999 21.8521 11.6463L21.3668 12.0047L21.5489 12.5798C21.5725 12.6542 21.4876 12.7159 21.4241 12.6704L20.9333 12.3196L20.4426 12.6704C20.379 12.7158 20.2944 12.6542 20.3178 12.5798L20.4998 12.0047L20.0146 11.6463C19.9518 11.5998 19.9841 11.5003 20.0622 11.4996L20.6655 11.495L20.8563 10.9228C20.8809 10.8487 20.9856 10.8487 21.0104 10.9228Z" fill="#F5F5F5"/>
<path d="M21.0104 13.9168L21.2012 14.4891L21.8044 14.4937C21.8826 14.4944 21.9149 14.594 21.8521 14.6404L21.3668 14.9988L21.5489 15.5739C21.5725 15.6483 21.4876 15.71 21.4241 15.6645L20.9333 15.3137L20.4426 15.6645C20.379 15.7099 20.2944 15.6483 20.3178 15.5739L20.4998 14.9988L20.0146 14.6404C19.9518 14.5939 19.9841 14.4944 20.0622 14.4937L20.6655 14.4891L20.8563 13.9168C20.8809 13.8428 20.9856 13.8428 21.0104 13.9168Z" fill="#F5F5F5"/>
<path d="M21.0104 16.909L21.2012 17.4813L21.8044 17.4859C21.8826 17.4866 21.9149 17.5862 21.8521 17.6326L21.3668 17.991L21.5489 18.5661C21.5725 18.6405 21.4876 18.7022 21.4241 18.6567L20.9333 18.3059L20.4426 18.6567C20.379 18.7021 20.2944 18.6405 20.3178 18.5661L20.4998 17.991L20.0146 17.6326C19.9518 17.5861 19.9841 17.4866 20.0622 17.4859L20.6655 17.4813L20.8563 16.909C20.8809 16.835 20.9856 16.835 21.0104 16.909Z" fill="#F5F5F5"/>
<path d="M21.0104 19.9032L21.2012 20.4755L21.8044 20.4801C21.8826 20.4808 21.9149 20.5804 21.8521 20.6268L21.3668 20.9852L21.5489 21.5603C21.5725 21.6347 21.4876 21.6964 21.4241 21.6509L20.9333 21.3001L20.4426 21.6509C20.379 21.6963 20.2944 21.6347 20.3178 21.5603L20.4998 20.9852L20.0146 20.6268C19.9518 20.5803 19.9841 20.4808 20.0622 20.4801L20.6655 20.4755L20.8563 19.9032C20.8809 19.8291 20.9856 19.8291 21.0104 19.9032Z" fill="#F5F5F5"/>
<path d="M21.0104 22.8975L21.2012 23.4697L21.8044 23.4743C21.8826 23.475 21.9149 23.5746 21.8521 23.621L21.3668 23.9794L21.5489 24.5545C21.5725 24.6289 21.4876 24.6906 21.4241 24.6451L20.9333 24.2943L20.4426 24.6451C20.379 24.6905 20.2944 24.6289 20.3178 24.5545L20.4998 23.9794L20.0146 23.621C19.9518 23.5745 19.9841 23.475 20.0622 23.4743L20.6655 23.4697L20.8563 22.8975C20.8809 22.8232 20.9856 22.8232 21.0104 22.8975Z" fill="#F5F5F5"/>
</g>
<defs>
<clipPath id="clip0_3462_28821">
<rect width="50" height="50" fill="white" transform="translate(0 0.324219)"/>
</clipPath>
</defs>
</svg>
