<svg width="51" height="51" viewBox="0 0 51 51" fill="none" xmlns="http://www.w3.org/2000/svg">
<g clip-path="url(#clip0_3462_28898)">
<path d="M49.6504 41.4109H1.3748C0.898729 41.4109 0.512695 41.0249 0.512695 40.5488V9.51445C0.512695 9.03838 0.898729 8.65234 1.3748 8.65234H49.6505C50.1266 8.65234 50.5126 9.03838 50.5126 9.51445V40.5488C50.5125 41.0249 50.1265 41.4109 49.6504 41.4109Z" fill="#41479B"/>
<path d="M50.5125 9.51445C50.5125 9.03838 50.1265 8.65234 49.6504 8.65234H45.7935L29.8228 19.1159V8.65234H21.2022V19.1159L5.23162 8.65234H1.3748C0.898729 8.65234 0.512695 9.03838 0.512695 9.51445V11.744L14.2147 20.7212H0.512695V29.3419H14.2147L0.512695 38.3192V40.5488C0.512695 41.0249 0.898729 41.4109 1.3748 41.4109H5.23172L21.2024 30.9474V41.4109H29.823V30.9474L45.7937 41.4109H49.6506C50.1267 41.4109 50.5127 41.0249 50.5127 40.5488V38.3192L36.8107 29.342H50.5125V20.7213H36.8105L50.5125 11.744V9.51445Z" fill="#F5F5F5"/>
<path d="M50.5125 22.4455H28.0988V8.65234H22.9264V22.4455H0.512695V27.6178H22.9264V41.4109H28.0988V27.6178H50.5125V22.4455Z" fill="#FF4B55"/>
<path d="M17.988 29.3418L0.537109 40.6696C0.598144 41.0859 0.941405 41.4108 1.3747 41.4108H2.5621L21.1548 29.3419H17.988V29.3418V29.3418Z" fill="#FF4B55"/>
<path d="M34.3406 29.3418H31.1738L49.7395 41.3929C50.1722 41.3468 50.5137 40.9935 50.5137 40.5486V39.8398L34.3406 29.3418Z" fill="#FF4B55"/>
<path d="M0.513672 10.466L16.3123 20.7212H19.4791L1.01592 8.73633C0.720995 8.87334 0.513672 9.16777 0.513672 9.51435V10.466Z" fill="#FF4B55"/>
<path d="M32.99 20.7212L50.4828 9.36611C50.4102 8.96357 50.0742 8.65234 49.6507 8.65234H48.4157L29.8232 20.7212H32.99Z" fill="#FF4B55"/>
</g>
<defs>
<clipPath id="clip0_3462_28898">
<rect width="50" height="50" fill="white" transform="translate(0.511719 0.03125)"/>
</clipPath>
</defs>
</svg>
