<svg width="51" height="51" viewBox="0 0 51 51" fill="none" xmlns="http://www.w3.org/2000/svg">
<g clip-path="url(#clip0_3462_28874)">
<path d="M49.9444 8.65234H1.66875C1.19268 8.65234 0.806641 9.03828 0.806641 9.51435V40.5488C0.806641 41.0248 1.19268 41.4109 1.66875 41.4109H49.9445C50.4206 41.4109 50.8066 41.0248 50.8066 40.5488V9.51435C50.8065 9.03828 50.4205 8.65234 49.9444 8.65234Z" fill="#82AFFF"/>
<path d="M25.7335 31.4416C30.1184 31.4416 33.6857 27.874 33.6857 23.4893C33.6857 19.1047 30.1183 15.5371 25.7335 15.5371C21.3486 15.5371 17.7812 19.1047 17.7812 23.4893C17.7812 27.874 21.3485 31.4416 25.7335 31.4416ZM26.6407 16.3688L27.3242 16.117C28.2888 16.325 29.1856 16.7159 29.9751 17.2548C29.9072 17.2479 29.7278 17.2296 29.6969 17.2192C29.6586 17.2065 29.5994 17.4628 29.5994 17.4628L29.9131 17.5876L29.9986 17.2726C30.3244 17.4967 30.6286 17.7487 30.9148 18.02L30.4537 18.4811H30.3722L30.3059 18.2209L30.0537 17.7675L29.1627 17.4463L28.5464 17.7445L28.8961 18.5017C28.0344 17.9533 27.0233 17.6239 25.9374 17.5867V16.5314L26.5653 16.7297L26.3043 16.2695L25.9374 16.4266V15.9554C26.2099 15.9627 26.4782 15.985 26.7428 16.0207L26.4344 16.1235L26.6407 16.3688ZM30.7673 22.1894L30.9174 22.1259L30.9552 21.7564C31.116 22.24 31.2089 22.7531 31.2284 23.2853H29.8454L29.8964 23.0644L30.2872 23.0305L30.6107 22.4796L30.6015 22.3763L30.2702 22.8011L30.0678 22.8508L29.9388 22.6991L30.0906 22.4412L29.7604 22.1977L29.4638 22.4578C29.384 22.1695 29.2752 21.8933 29.1345 21.6361L29.2953 21.5776L29.4243 21.5007L29.4232 21.3489L29.5059 21.2461L29.4581 21.2167C29.4227 21.2335 29.2383 21.2871 29.2383 21.2871L29.1743 21.4947L29.0825 21.5506C28.9471 21.3177 28.7881 21.101 28.6089 20.902L29.3715 20.1394L29.378 20.1502L29.5637 20.0386L29.5349 19.9758L29.7616 19.7491C30.2726 20.2991 30.6717 20.9521 30.925 21.6748L30.7351 21.3927L30.6373 21.4292L30.7673 22.1894ZM29.7619 27.2294L29.3494 26.8169L29.1937 26.4042L29.1137 26.5811L28.9541 26.4216L29.1177 25.9201L29.0117 25.5562L29.0042 25.5572C29.1163 25.3805 29.2174 25.1964 29.3 25.0019L29.3019 25.0017C29.3275 25.0017 29.4209 24.8828 29.4209 24.8828L29.6503 24.9084L30.2432 24.674L30.0155 24.4581L29.8814 24.3384L29.7775 24.1268L29.5917 23.8033C29.5946 23.767 29.5954 23.7302 29.5972 23.6935H31.2285C31.1782 25.057 30.6317 26.2931 29.7619 27.2294ZM21.8465 26.9684L22.0507 26.6116L21.6111 25.0754L21.2645 24.22L21.5789 24.084L21.6639 23.8291L21.8762 23.8229C21.9503 24.6862 22.3095 25.4674 22.858 26.0763L21.9574 26.9769L21.8465 26.9684ZM22.3371 23.2026L22.3327 23.2855H22.2773C22.2792 23.2542 22.2795 23.2223 22.2821 23.1912L22.3371 23.2026ZM27.5722 26.4225L27.5025 26.3846L26.613 26.7286L26.1519 26.5511L25.9374 26.6104V26.3173L26.1594 26.2503L26.2939 26.2827L26.5772 26.3935L26.4064 26.0812L26.7724 26.3881L26.948 26.4281L26.8946 26.194L27.0137 25.8072L27.4284 25.5542L27.4644 25.7871L26.9585 26.0621L27.0555 26.2557L27.5817 26.1495L27.59 26.412C27.5842 26.4154 27.578 26.4187 27.5722 26.4225ZM25.4758 24.8906L25.4599 24.8566L25.3644 24.8621C25.2416 24.8289 25.1261 24.7802 25.0186 24.7174L25.3736 24.6743L25.5296 24.2557V24.896C25.5118 24.8935 25.4932 24.8938 25.4758 24.8906ZM23.985 24.0175L23.6383 23.964L23.8151 23.6932H23.9189C23.9314 23.805 23.9533 23.9127 23.985 24.0175ZM25.9373 22.6065L26.0329 22.6355L26.1531 22.7813L25.9373 22.9972V22.6065ZM26.5805 25.1984L26.4149 25.3922L26.139 25.5294L26.0466 25.3673L25.9909 25.6895L25.9375 25.7104V25.3039C25.9761 25.2996 26.0157 25.2988 26.0537 25.2922L26.1857 25.4577L26.2953 25.3213L26.2868 25.2301C26.3476 25.2106 26.4098 25.1945 26.4678 25.169L26.5805 25.1984ZM26.4563 23.0549L26.4519 23.2755L26.4439 23.2855H26.2256L26.4563 23.0549ZM26.5873 23.8143L26.8513 23.8059L26.9952 23.9259L26.9472 24.0123L26.7458 23.8971L26.6354 23.9834L26.6908 24.1488L26.6886 24.156L26.2258 23.6932H26.5341L26.5873 23.8143ZM26.4127 24.4569L26.1605 24.4298L25.9824 24.8915C25.9678 24.894 25.9522 24.8939 25.9375 24.896V23.9815L26.4127 24.4569ZM25.1035 23.2854L25.0858 23.2111L24.9088 23.2854H24.8305L24.8563 23.1779L24.9707 23.0672L24.88 23.0466L24.7856 23.1806L24.6876 23.2256L24.6991 23.2856H24.5962L24.6581 23.0447L24.8393 22.884L25.2411 23.2857H25.1035V23.2854V23.2854ZM24.347 23.6933L24.3888 23.7426L24.417 23.6933H24.5628L24.3731 23.8985C24.353 23.8317 24.337 23.7639 24.3268 23.6933H24.347ZM24.5726 24.314L24.8362 23.8588L24.7673 23.7972L24.8835 23.7372L24.898 23.6932H25.0836L25.041 23.7161L25.0233 23.7772L25.167 23.7675L25.06 23.8744L24.9514 23.8973L24.9288 24.0057L24.5942 24.3402C24.5874 24.331 24.5793 24.3232 24.5726 24.314ZM25.5296 22.1252L25.4534 22.1135L25.5124 22.3581L25.5297 22.3716V22.9972L25.187 22.6545L25.4275 22.5245L25.2102 22.1645C25.3114 22.1245 25.4187 22.0987 25.5297 22.0826L25.5296 22.1252ZM22.311 23.6933L22.3069 23.7709L22.2898 23.8744C22.2833 23.8147 22.281 23.7538 22.2774 23.6932L22.311 23.6933ZM22.5105 24.1775L22.7642 24.4325L22.9724 24.2876L23.4626 24.6989L23.9899 24.7917L24.1374 24.3768C24.1871 24.4657 24.243 24.5495 24.3062 24.6286L23.8532 25.0816L23.9261 24.896L23.6563 24.8521L23.7428 25.1688L23.7556 25.1795L23.1465 25.7885C22.7496 25.3423 22.4633 24.7958 22.3385 24.1894L22.5105 24.1775ZM24.5943 24.9168C24.8576 25.1273 25.1773 25.2643 25.5296 25.3039V25.7755L25.525 25.7866L25.5296 25.7851V26.1379L25.4108 26.1617L25.342 26.6044L25.5296 26.5826V26.723L25.2325 26.8051L25.1336 26.9005C24.4881 26.7871 23.9049 26.4953 23.4346 26.0768L24.5943 24.9168ZM28.034 26.5992L28.3332 26.6627L28.6275 26.6718L28.7893 26.8336L28.2949 26.8156L27.9764 26.6424C27.996 26.6283 28.0147 26.6136 28.034 26.5992ZM28.3207 25.7883L28.2314 25.699L28.4131 25.6851C28.3839 25.7208 28.3513 25.7537 28.3207 25.7883ZM28.7884 21.8542C28.6496 21.8561 28.5151 21.8581 28.5031 21.8581C28.4775 21.8581 28.2777 22.0289 28.2777 22.0289L28.125 22.2266L28.079 21.9853L28.1872 21.7389L28.1038 21.6625L27.73 21.9004L27.6507 21.8603L27.9427 21.5683L28.0069 21.5895L28.193 21.5458L28.0984 21.4127L28.3206 21.1904C28.5006 21.3928 28.6593 21.6141 28.7884 21.8542ZM27.6948 21.2397L27.6769 21.1826L27.5558 21.2016L27.4806 21.3473L27.1481 21.38C27.1724 21.4287 27.276 21.6308 27.2853 21.649L26.8727 22.0616C26.785 21.9915 26.6914 21.9302 26.5916 21.8768L26.6427 21.8494L26.582 21.6445L26.5407 21.5689L26.3567 21.7702C26.2234 21.7217 26.0831 21.6909 25.9376 21.6745V20.0331C26.7396 20.0801 27.4679 20.3995 28.0326 20.9019L27.6948 21.2397ZM25.5296 21.6748C25.3979 21.6896 25.2712 21.7171 25.1494 21.7583L25.2104 21.6166L24.8924 21.8666L24.893 21.8676C24.7866 21.9229 24.6873 21.9876 24.5943 22.062L23.4346 20.9022C23.9993 20.3998 24.7275 20.0804 25.5296 20.0334V21.6748ZM24.2405 22.2849L23.6923 22.3807L23.7114 22.1724L23.257 22.0156L22.5303 22.1676C22.6799 21.8065 22.8903 21.4781 23.1461 21.1904L24.2405 22.2849ZM22.4807 22.3031L22.7089 22.3509L22.4353 22.4265C22.4488 22.3846 22.4655 22.3443 22.4807 22.3031ZM21.8695 23.2854H21.8342L21.8713 23.2512C21.8706 23.2626 21.8702 23.274 21.8695 23.2854ZM22.3044 27.2067L23.1463 26.3649C23.6058 26.7787 24.1632 27.0833 24.7807 27.2402L24.4907 27.5196L25.1148 28.3443L25.5296 28.3673V28.9846C24.4404 28.9446 23.4314 28.5903 22.5921 28.0046L22.7268 27.9171L22.3044 27.2067ZM25.9373 28.3895L26.4632 28.4185L26.4765 28.5391L26.7965 28.8897C26.5174 28.9446 26.2297 28.9738 25.9373 28.9845V28.3895ZM29.2778 27.3219L29.4736 27.5177C29.38 27.6046 29.2858 27.6908 29.1863 27.7714L29.2778 27.3219ZM29.4735 19.461L29.3541 19.5805L29.2125 19.2711L28.9551 19.1342C28.9551 19.1342 28.7153 18.9226 28.5905 18.7924C28.9075 18.9859 29.2029 19.2096 29.4735 19.461ZM28.535 18.7585L28.7152 19.3889L29.1361 19.7553L29.1525 19.7821L28.3206 20.614C27.6813 20.0381 26.8516 19.6734 25.9373 19.6256V17.9943C26.8839 18.0292 27.7683 18.3028 28.535 18.7585ZM25.5296 19.6256C24.6152 19.6735 23.7856 20.0382 23.1463 20.614L21.9934 19.461C22.9297 18.5911 24.1659 18.0446 25.5296 17.9943V19.6256V19.6256ZM22.8579 20.9022C22.421 21.3874 22.1041 21.9812 21.9559 22.6399L21.5976 23.2854H20.2383C20.2886 21.9218 20.8351 20.6855 21.7049 19.7493L22.8579 20.9022ZM21.4011 23.6933L21.0138 24.5258L20.4659 24.322L20.3631 24.6866C20.2914 24.3651 20.2509 24.0329 20.2384 23.6931H21.401L21.4011 23.6933ZM20.9928 27.8223L21.056 27.8784L20.264 28.6705C19.7171 28.0934 19.2626 27.4306 18.9185 26.704L19.1291 26.827L20.5341 28.0771L20.9928 27.8223ZM21.3616 28.1493L21.5534 28.3193L22.1755 28.2011C23.1158 28.913 24.2723 29.3491 25.5296 29.3924V31.0236C23.6038 30.9717 21.8587 30.1973 20.5521 28.959L21.3616 28.1493ZM25.9373 29.3923C26.2829 29.3804 26.6222 29.3444 26.9504 29.2754L26.9884 29.5266L27.9602 30.2433L29.0546 29.6362L29.3687 28.9739L29.3481 28.5641L29.5548 28.0794L29.5044 28.0399C29.5937 27.9658 29.677 27.885 29.7617 27.8059L29.9498 27.9938L30.007 28.349L30.2205 28.2644L30.9149 28.9589C29.6084 30.1972 27.8632 30.9716 25.9375 31.0235V29.3923H25.9373V29.3923ZM30.3178 27.7853L30.2789 27.3211L30.2266 27.3234C31.0683 26.3385 31.5889 25.0759 31.6364 23.6932H33.2676C33.2158 25.6189 32.4414 27.3639 31.2032 28.6705L30.3178 27.7853ZM31.6363 23.2854C31.601 22.2564 31.3026 21.2954 30.8048 20.464L31.4981 21.1125L32.0545 20.6347L31.2006 19.3475L30.637 18.9142L30.6385 18.8726L31.203 18.3081C32.4413 19.6146 33.2156 21.3598 33.2675 23.2853H31.6363V23.2854V23.2854ZM25.5296 17.5865C24.0535 17.6372 22.7156 18.2293 21.7052 19.1728L20.5521 18.0199C21.8587 16.7815 23.6039 16.0071 25.5296 15.9553V17.5865ZM21.4168 19.4612C20.4733 20.4717 19.8813 21.8095 19.8306 23.2854H18.1993C18.2512 21.3598 19.0256 19.6147 20.2638 18.3082L21.4168 19.4612ZM19.8306 23.6933C19.8514 24.2996 19.9629 24.882 20.1537 25.429L20.0922 25.6474L18.4984 25.6124C18.3187 25.0011 18.2173 24.3578 18.1994 23.6934L19.8306 23.6933Z" fill="#F5F5F5"/>
<path d="M20.2394 32.9368L21.7117 32.6984C21.8433 32.6771 21.8979 32.5182 21.8067 32.4209C21.4526 32.0426 20.7488 31.259 20.3413 30.592C19.7806 29.6744 18.7933 28.918 18.7933 28.918C18.7933 28.918 18.982 31.4416 20.8851 32.3082C20.8851 32.3082 18.9989 31.8323 17.7925 31.5096C16.586 31.1867 16.2559 30.8314 16.2559 30.8314C16.2559 30.8314 17.1979 33.2427 20.2394 32.9368Z" fill="#F5F5F5"/>
<path d="M18.7785 30.1177C18.7275 29.4889 18.268 27.8814 17.4018 26.5527C17.4018 26.5527 17.4028 29.782 18.5494 30.8759C18.5494 30.8759 16.9264 29.3189 15.9578 28.6053C15.051 27.9372 14.6494 27.1779 14.6494 27.1779C14.6494 27.1779 14.8931 29.2186 16.2127 30.2364C17.1048 30.9246 19.0844 31.4089 19.0844 31.4089C19.0844 31.4089 18.8295 30.7463 18.7785 30.1177Z" fill="#F5F5F5"/>
<path d="M15.669 27.7049L16.6606 28.5625C16.7641 28.6519 16.9252 28.5813 16.9273 28.4446C16.9327 28.0997 16.9538 27.5762 17.0284 27.2461C17.1474 26.7193 17.2944 25.0089 16.6941 23.7656C16.6941 23.7656 15.9685 25.9937 16.5356 27.8493C16.5356 27.8493 15.6448 26.4328 14.7345 25.36C14.2587 24.7992 14.0703 24.1381 14.0703 24.1381C14.0703 24.1381 14.0548 26.3626 15.669 27.7049Z" fill="#F5F5F5"/>
<path d="M15.3966 25.5099C15.4743 25.6146 15.6356 25.5925 15.68 25.4699C15.8104 25.1102 16.0633 24.4635 16.3993 23.8477C17.0111 22.7262 16.7288 21.4062 16.7288 21.4062C16.7288 21.4062 15.7468 23.0895 15.4621 24.9602C15.4436 24.8768 15.4233 24.7876 15.3989 24.6857C15.1294 23.5527 14.0811 20.7266 14.0811 20.7266C14.0811 20.7266 13.7123 22.2786 14.1732 23.5078C14.41 24.1386 15.0717 25.0714 15.3966 25.5099Z" fill="#F5F5F5"/>
<path d="M15.1947 23.0276C15.2243 23.1404 15.3822 23.1433 15.4158 23.0315C15.5097 22.72 15.7048 22.2906 16.1108 21.8756C16.8755 21.094 17.4553 20.0089 17.7515 19.0392C17.7515 19.0392 16.1201 20.3481 15.6056 21.2308C15.6056 21.2308 15.6565 20.017 15.482 19.1398C15.3333 18.3922 15.6493 17.6719 15.6493 17.6719C15.6493 17.6719 14.6155 18.6642 14.7683 20.4822C14.8646 21.6263 15.0618 22.5212 15.1947 23.0276Z" fill="#F5F5F5"/>
<path d="M16.2278 19.9112C16.5373 19.6275 17.0792 19.1442 17.6018 18.8511C18.2956 18.4618 18.8444 17.2062 18.9654 16.9268C18.9654 16.9268 17.0321 18.5089 16.5058 19.0167C16.5058 19.0167 16.8245 17.6021 17.0284 16.9904C17.2323 16.3787 17.2068 16.1748 17.3852 15.9199C17.3852 15.9199 16.4549 16.7355 16.1999 17.3854C15.9905 17.9196 16.0306 19.1338 16.0021 19.8041C15.9968 19.9256 16.1382 19.9933 16.2278 19.9112Z" fill="#F5F5F5"/>
<path d="M18.1839 17.0672C18.7276 16.6254 19.5942 15.334 19.5942 15.334C19.3796 15.4566 18.5067 15.7588 17.7762 16.5064C17.0455 17.2541 16.8926 18.2735 16.8926 18.2735C16.8926 18.2735 17.6401 17.509 18.1839 17.0672Z" fill="#F5F5F5"/>
<path d="M30.5305 33.312C28.9333 32.9976 27.5655 32.7682 25.9621 33.1853C25.8832 33.2058 25.8094 33.2294 25.7334 33.2518C25.6573 33.2295 25.5836 33.2059 25.5047 33.1853C23.9014 32.7683 22.5335 32.9976 20.9362 33.312C19.4966 33.5953 18.1182 33.3501 18.1182 33.3501C18.1182 33.3501 19.1182 34.3656 21.3951 34.3656C22.3885 34.3656 23.6368 33.5294 24.4245 33.4849C24.6184 33.4739 24.81 33.4857 24.9998 33.5069C23.3084 34.1968 22.5276 35.2432 22.5123 35.2634C22.4444 35.3531 22.4619 35.4809 22.5516 35.5486C22.5884 35.5768 22.6316 35.5904 22.6746 35.5904C22.7361 35.5904 22.7971 35.5624 22.8371 35.5099C22.8993 35.4282 24.1487 34.1356 25.7334 33.6581C27.318 34.1356 28.5676 35.4281 28.6297 35.5099C28.6696 35.5625 28.7306 35.5904 28.7922 35.5904C28.8351 35.5904 28.8784 35.5768 28.9152 35.5486C29.0049 35.4809 29.0223 35.353 28.9545 35.2634C28.9391 35.2432 28.1584 34.1968 26.467 33.5069C26.6567 33.4858 26.8483 33.474 27.0423 33.4849C27.83 33.5294 29.0784 34.3656 30.0717 34.3656C32.3486 34.3656 33.3486 33.3501 33.3486 33.3501C33.3486 33.3501 31.9702 33.5953 30.5305 33.312Z" fill="#F5F5F5"/>
<path d="M30.581 32.3082C32.4841 31.4416 32.6728 28.918 32.6728 28.918C32.6728 28.918 31.6854 29.6744 31.1247 30.592C30.7172 31.2589 30.0133 32.0426 29.6593 32.4209C29.5683 32.5182 29.6228 32.6771 29.7543 32.6984L31.2266 32.9368C34.2682 33.2427 35.2101 30.8313 35.2101 30.8313C35.2101 30.8313 34.8798 31.1867 33.6735 31.5095C32.467 31.8323 30.581 32.3082 30.581 32.3082Z" fill="#F5F5F5"/>
<path d="M35.5094 28.6053C34.5408 29.3189 32.9178 30.8759 32.9178 30.8759C34.0644 29.782 34.0654 26.5527 34.0654 26.5527C33.1992 27.8815 32.7396 29.489 32.6887 30.1177C32.6377 30.7464 32.3828 31.4091 32.3828 31.4091C32.3828 31.4091 34.3623 30.9248 35.2545 30.2366C36.5741 29.2186 36.8178 27.1781 36.8178 27.1781C36.8178 27.1781 36.4162 27.937 35.5094 28.6053Z" fill="#F5F5F5"/>
<path d="M34.9312 27.8493C35.4983 25.9937 34.7727 23.7656 34.7727 23.7656C34.1724 25.009 34.3195 26.7194 34.4384 27.2461C34.513 27.5762 34.5341 28.0996 34.5395 28.4446C34.5417 28.5813 34.7028 28.6519 34.8062 28.5625L35.7978 27.7049C37.4121 26.3625 37.3965 24.1382 37.3965 24.1382C37.3965 24.1382 37.2082 24.7993 36.7324 25.3601C35.822 26.4327 34.9312 27.8493 34.9312 27.8493Z" fill="#F5F5F5"/>
<path d="M36.0045 24.9602C35.7198 23.0896 34.7378 21.4063 34.7378 21.4063C34.7378 21.4063 34.4557 22.7263 35.0673 23.8478C35.4031 24.4636 35.6562 25.1103 35.7866 25.47C35.8311 25.5927 35.9923 25.6147 36.07 25.51C36.395 25.0715 37.0567 24.1388 37.2933 23.5078C37.7541 22.2786 37.3854 20.7266 37.3854 20.7266C37.3854 20.7266 36.337 23.5527 36.0675 24.6857C36.0433 24.7877 36.0231 24.8768 36.0045 24.9602Z" fill="#F5F5F5"/>
<path d="M35.9844 19.1398C35.81 20.017 35.8607 21.2308 35.8607 21.2308C35.3463 20.3481 33.7148 19.0392 33.7148 19.0392C34.0111 20.0089 34.5909 21.0939 35.3556 21.8756C35.7616 22.2905 35.9567 22.72 36.0506 23.0315C36.0842 23.1432 36.2421 23.1403 36.2717 23.0276C36.4047 22.5212 36.6018 21.6262 36.6979 20.4822C36.8509 18.6641 35.817 17.6719 35.817 17.6719C35.817 17.6719 36.1331 18.3923 35.9844 19.1398Z" fill="#F5F5F5"/>
<path d="M34.9615 19.0166C34.4352 18.5087 32.502 16.9267 32.502 16.9267C32.623 17.2061 33.1717 18.4618 33.8655 18.851C34.3881 19.144 34.9301 19.6273 35.2395 19.9111C35.329 19.9932 35.4705 19.9255 35.4653 19.8041C35.4368 19.1339 35.4769 17.9196 35.2675 17.3854C35.0126 16.7355 34.0822 15.9199 34.0822 15.9199C34.2606 16.1748 34.2352 16.3787 34.4391 16.9904C34.6429 17.602 34.9615 19.0166 34.9615 19.0166Z" fill="#F5F5F5"/>
<path d="M33.2833 17.0672C33.827 17.509 34.5747 18.2735 34.5747 18.2735C34.5747 18.2735 34.4218 17.254 33.6911 16.5064C32.9605 15.7588 32.0877 15.4566 31.873 15.334C31.873 15.334 32.7395 16.6254 33.2833 17.0672Z" fill="#F5F5F5"/>
<path d="M29.9521 21.2695L29.6055 21.4978L29.9752 21.5556L30.3792 22.0023L30.6055 21.8566L30.3341 21.3017L29.9521 21.2695Z" fill="#F5F5F5"/>
<path d="M30.499 23.1734L30.6273 23.2226L30.9523 22.3496L30.8631 22.2285L30.7229 22.2986L30.4999 23.0888L30.499 23.1734Z" fill="#F5F5F5"/>
<path d="M27.2385 21.6923L27.1362 21.584L26.9062 21.8771L26.9634 21.9657L27.2385 21.6923Z" fill="#F5F5F5"/>
<path d="M29.5859 21.0119L29.6481 20.8125L29.4424 20.8541L29.3842 20.8705L29.3232 20.952L29.5456 21.2092L29.6357 21.1327L29.5859 21.0119Z" fill="#F5F5F5"/>
<path d="M25.4658 25.6826L25.4691 25.5586L25.3125 25.7847L25.3572 25.8609L25.4658 25.6826Z" fill="#F5F5F5"/>
</g>
<defs>
<clipPath id="clip0_3462_28874">
<rect width="50" height="50" fill="white" transform="translate(0.804688 0.03125)"/>
</clipPath>
</defs>
</svg>
