<svg width="51" height="51" viewBox="0 0 51 51" fill="none" xmlns="http://www.w3.org/2000/svg">
<g clip-path="url(#clip0_3462_28779)">
<path d="M49.5646 8.94531H1.28887C0.812792 8.94531 0.426758 9.33125 0.426758 9.80732V40.8417C0.426758 41.3178 0.812792 41.7038 1.28887 41.7038H49.5647C50.0407 41.7038 50.4268 41.3178 50.4268 40.8417V9.80732C50.4267 9.33125 50.0406 8.94531 49.5646 8.94531Z" fill="#F5F5F5"/>
<path d="M50.4267 12.584H18.5303V16.2236H50.4267V12.584Z" fill="#4173CD"/>
<path d="M50.4267 16.2246H0.426758V19.8643H50.4267V16.2246Z" fill="#F5F5F5"/>
<path d="M50.4267 19.8633H18.5303V23.5029H50.4267V19.8633Z" fill="#4173CD"/>
<path d="M50.4267 23.5039H0.426758V27.1435H50.4267V23.5039Z" fill="#F5F5F5"/>
<path d="M50.4267 27.1445H0.426758V30.7842H50.4267V27.1445Z" fill="#4173CD"/>
<path d="M50.4267 30.7832H0.426758V34.4228H50.4267V30.7832Z" fill="#F5F5F5"/>
<path d="M50.4267 34.4238H0.426758V38.0635H50.4267V34.4238Z" fill="#4173CD"/>
<path d="M6.6748 11.2266L8.11689 17.8997L10.3734 16.9649L6.6748 11.2266Z" fill="#FFE15A"/>
<path d="M6.6748 11.2266L9.24511 17.4323L8.11689 17.8997L6.6748 11.2266Z" fill="#FFCD5A"/>
<path d="M12.2827 24.7669L10.8405 18.0938L8.58398 19.0285L12.2827 24.7669Z" fill="#FFE15A"/>
<path d="M12.2823 24.7669L9.71191 18.5611L10.8401 18.0938L12.2823 24.7669Z" fill="#FFCD5A"/>
<path d="M16.2482 15.1934L9.5752 16.6354L10.5099 18.892L16.2482 15.1934Z" fill="#FFE15A"/>
<path d="M16.2482 15.1934L10.0425 17.7637L9.5752 16.6354L16.2482 15.1934Z" fill="#FFCD5A"/>
<path d="M2.70898 20.8002L9.38202 19.3581L8.44726 17.1016L2.70898 20.8002Z" fill="#FFE15A"/>
<path d="M2.70898 20.8008L8.91464 18.2305L9.38202 19.3587L2.70898 20.8008Z" fill="#FFCD5A"/>
<path d="M12.2827 11.2266L8.58398 16.9649L10.8405 17.8997L12.2827 11.2266Z" fill="#FFE15A"/>
<path d="M12.2827 11.2266L9.7123 17.4323L8.58398 16.9649L12.2827 11.2266Z" fill="#FFCD5A"/>
<path d="M6.6748 24.7669L10.3734 19.0285L8.11689 18.0938L6.6748 24.7669Z" fill="#FFE15A"/>
<path d="M6.6748 24.7663L9.24511 18.5605L10.3734 19.0279L6.6748 24.7663Z" fill="#FFCD5A"/>
<path d="M16.2482 20.8002L10.5099 17.1016L9.5752 19.3581L16.2482 20.8002Z" fill="#FFE15A"/>
<path d="M16.2487 20.8002L10.043 18.2299L10.5104 17.1016L16.2487 20.8002Z" fill="#FFCD5A"/>
<path d="M2.70898 15.1934L8.44726 18.892L9.38202 16.6354L2.70898 15.1934Z" fill="#FFE15A"/>
<path d="M2.70898 15.1934L8.91464 17.7637L8.44725 18.892L2.70898 15.1934Z" fill="#FFCD5A"/>
<path d="M9.47812 10.6699L8.25684 17.3868H10.6993L9.47812 10.6699Z" fill="#FFE15A"/>
<path d="M9.47812 10.6699V17.3868H8.25684L9.47812 10.6699Z" fill="#FFCD5A"/>
<path d="M9.47812 25.3243L10.6993 18.6074H8.25684L9.47812 25.3243Z" fill="#FFE15A"/>
<path d="M9.47852 25.3243V18.6074H10.6997L9.47852 25.3243Z" fill="#FFCD5A"/>
<path d="M16.8057 17.9967L10.0889 16.7754V19.2179L16.8057 17.9967Z" fill="#FFE15A"/>
<path d="M16.8057 17.9967H10.0889V16.7754L16.8057 17.9967Z" fill="#FFCD5A"/>
<path d="M2.15137 17.9967L8.86825 19.2179V16.7754L2.15137 17.9967Z" fill="#FFE15A"/>
<path d="M2.15137 17.9961H8.86825V19.2173L2.15137 17.9961Z" fill="#FFCD5A"/>
<path d="M14.66 12.8145L9.04688 16.7005L10.774 18.4276L14.66 12.8145Z" fill="#FFE15A"/>
<path d="M14.66 12.8145L9.91045 17.5641L9.04688 16.7005L14.66 12.8145Z" fill="#FFCD5A"/>
<path d="M4.29785 23.1776L9.91093 19.2916L8.18378 17.5645L4.29785 23.1776Z" fill="#FFE15A"/>
<path d="M4.29785 23.1773L9.04735 18.4277L9.91093 19.2913L4.29785 23.1773Z" fill="#FFCD5A"/>
<path d="M14.66 23.1776L10.774 17.5645L9.04688 19.2916L14.66 23.1776Z" fill="#FFE15A"/>
<path d="M14.6598 23.1776L9.91016 18.428L10.7737 17.5645L14.6598 23.1776Z" fill="#FFCD5A"/>
<path d="M4.29785 12.8145L8.18378 18.4276L9.91093 16.7005L4.29785 12.8145Z" fill="#FFE15A"/>
<path d="M4.29785 12.8145L9.04735 17.5641L8.18378 18.4276L4.29785 12.8145Z" fill="#FFCD5A"/>
<path d="M9.47851 20.4394C10.8274 20.4394 11.9209 19.346 11.9209 17.9971C11.9209 16.6482 10.8274 15.5547 9.47851 15.5547C8.12962 15.5547 7.03613 16.6482 7.03613 17.9971C7.03613 19.346 8.12962 20.4394 9.47851 20.4394Z" fill="#FFE15A"/>
</g>
<defs>
<clipPath id="clip0_3462_28779">
<rect width="50" height="50" fill="white" transform="translate(0.427734 0.324219)"/>
</clipPath>
</defs>
</svg>
