<svg width="51" height="51" viewBox="0 0 51 51" fill="none" xmlns="http://www.w3.org/2000/svg">
<g clip-path="url(#clip0_3462_28755)">
<path d="M50.7206 19.8649H0.720703V9.80742C0.720703 9.33135 1.10674 8.94531 1.58281 8.94531H49.8586C50.3347 8.94531 50.7207 9.33135 50.7207 9.80742L50.7206 19.8649Z" fill="#82AFFF"/>
<path d="M49.8585 41.7027H1.58281C1.10674 41.7027 0.720703 41.3167 0.720703 40.8406V30.7832H50.7206V40.8406C50.7206 41.3168 50.3346 41.7027 49.8585 41.7027Z" fill="#73AF00"/>
<path d="M50.7206 19.8652H0.720703V30.7842H50.7206V19.8652Z" fill="#F5F5F5"/>
<path d="M50.7206 18.8945H0.720703V20.2561H50.7206V18.8945Z" fill="#FF4B55"/>
<path d="M50.7206 30.3906H0.720703V31.7521H50.7206V30.3906Z" fill="#FF4B55"/>
<path d="M11.8041 17.1287C10.0393 17.1287 8.60871 15.7016 8.60871 13.9431C8.60871 12.1781 10.0392 10.7445 11.8041 10.7445C11.8109 10.7445 11.8176 10.7445 11.8242 10.7446C11.9281 10.746 11.9646 10.608 11.873 10.5589C11.3295 10.2676 10.7093 10.1027 10.0499 10.1075C7.9382 10.1226 6.22287 11.8725 6.24534 13.9842C6.26741 16.0741 7.976 17.7658 10.0776 17.7658C10.7278 17.7658 11.3394 17.6013 11.8761 17.314C11.9674 17.265 11.9305 17.127 11.827 17.1285C11.8192 17.1287 11.8116 17.1287 11.8041 17.1287Z" fill="#F5F5F5"/>
<path d="M14.3055 16.2486L14.1629 16.6765L13.7118 16.6799C13.6534 16.6803 13.6292 16.7549 13.6761 16.7896L14.039 17.0575L13.9029 17.4876C13.8853 17.5433 13.9487 17.5894 13.9963 17.5554L14.3633 17.2931L14.7302 17.5554C14.7778 17.5894 14.8411 17.5433 14.8236 17.4876L14.6875 17.0575L15.0503 16.7896C15.0972 16.7549 15.073 16.6803 15.0146 16.6799L14.5635 16.6765L14.4209 16.2486C14.4024 16.1932 14.3241 16.1932 14.3055 16.2486Z" fill="#F5F5F5"/>
<path d="M17.4843 16.2486L17.3416 16.6765L16.8905 16.6799C16.8321 16.6803 16.8079 16.7549 16.8549 16.7896L17.2177 17.0575L17.0815 17.4876C17.0639 17.5433 17.1273 17.5894 17.1749 17.5554L17.5419 17.2931L17.9089 17.5554C17.9564 17.5894 18.0197 17.5433 18.0022 17.4876L17.8661 17.0575L18.2289 16.7896C18.2759 16.7549 18.2516 16.6803 18.1932 16.6799L17.7422 16.6765L17.5995 16.2486C17.581 16.1932 17.5026 16.1932 17.4843 16.2486Z" fill="#F5F5F5"/>
<path d="M20.662 16.2486L20.5193 16.6765L20.0682 16.6799C20.0098 16.6803 19.9856 16.7549 20.0326 16.7896L20.3955 17.0575L20.2594 17.4876C20.2418 17.5433 20.3052 17.5894 20.3527 17.5554L20.7197 17.2931L21.0867 17.5554C21.1342 17.5894 21.1975 17.5433 21.18 17.4876L21.0439 17.0575L21.4067 16.7896C21.4537 16.7549 21.4295 16.6803 21.3711 16.6799L20.92 16.6765L20.7773 16.2486C20.7589 16.1932 20.6804 16.1932 20.662 16.2486Z" fill="#F5F5F5"/>
<path d="M23.8397 16.2486L23.697 16.6765L23.246 16.6799C23.1876 16.6803 23.1634 16.7549 23.2103 16.7896L23.5731 17.0575L23.437 17.4876C23.4194 17.5433 23.4828 17.5894 23.5303 17.5554L23.8973 17.2931L24.2643 17.5554C24.3119 17.5894 24.3752 17.5433 24.3577 17.4876L24.2216 17.0575L24.5843 16.7896C24.6313 16.7549 24.6071 16.6803 24.5487 16.6799L24.0976 16.6765L23.955 16.2486C23.9366 16.1932 23.8582 16.1932 23.8397 16.2486Z" fill="#F5F5F5"/>
<path d="M27.0175 16.2486L26.8748 16.6765L26.4237 16.6799C26.3653 16.6803 26.3411 16.7549 26.3881 16.7896L26.751 17.0575L26.6148 17.4876C26.5972 17.5433 26.6606 17.5894 26.7082 17.5554L27.0752 17.2931L27.4422 17.5554C27.4897 17.5894 27.553 17.5433 27.5355 17.4876L27.3994 17.0575L27.7623 16.7896C27.8093 16.7549 27.785 16.6803 27.7266 16.6799L27.2756 16.6765L27.1329 16.2486C27.1142 16.1932 27.0359 16.1932 27.0175 16.2486Z" fill="#F5F5F5"/>
<path d="M17.4843 13.2819L17.3416 13.7098L16.8905 13.7133C16.8321 13.7136 16.8079 13.7883 16.8549 13.8229L17.2177 14.0909L17.0815 14.521C17.0639 14.5766 17.1273 14.6227 17.1749 14.5887L17.5419 14.3264L17.9089 14.5887C17.9564 14.6227 18.0197 14.5766 18.0022 14.521L17.8661 14.0909L18.2289 13.8229C18.2759 13.7883 18.2516 13.7136 18.1932 13.7133L17.7422 13.7098L17.5995 13.2819C17.581 13.2263 17.5026 13.2263 17.4843 13.2819Z" fill="#F5F5F5"/>
<path d="M20.662 13.2819L20.5193 13.7098L20.0682 13.7133C20.0098 13.7136 19.9856 13.7883 20.0326 13.8229L20.3955 14.0909L20.2594 14.521C20.2418 14.5766 20.3052 14.6227 20.3527 14.5887L20.7197 14.3264L21.0867 14.5887C21.1342 14.6227 21.1975 14.5766 21.18 14.521L21.0439 14.0909L21.4067 13.8229C21.4537 13.7883 21.4295 13.7136 21.3711 13.7133L20.92 13.7098L20.7773 13.2819C20.7589 13.2263 20.6804 13.2263 20.662 13.2819Z" fill="#F5F5F5"/>
<path d="M23.8397 13.2819L23.697 13.7098L23.246 13.7133C23.1876 13.7136 23.1634 13.7883 23.2103 13.8229L23.5731 14.0909L23.437 14.521C23.4194 14.5766 23.4828 14.6227 23.5303 14.5887L23.8973 14.3264L24.2643 14.5887C24.3119 14.6227 24.3752 14.5766 24.3577 14.521L24.2216 14.0909L24.5843 13.8229C24.6313 13.7883 24.6071 13.7136 24.5487 13.7133L24.0976 13.7098L23.955 13.2819C23.9366 13.2263 23.8582 13.2263 23.8397 13.2819Z" fill="#F5F5F5"/>
<path d="M27.0175 13.2819L26.8748 13.7098L26.4237 13.7133C26.3653 13.7136 26.3411 13.7883 26.3881 13.8229L26.751 14.0909L26.6148 14.521C26.5972 14.5766 26.6606 14.6227 26.7082 14.5887L27.0752 14.3264L27.4422 14.5887C27.4897 14.6227 27.553 14.5766 27.5355 14.521L27.3994 14.0909L27.7623 13.8229C27.8093 13.7883 27.785 13.7136 27.7266 13.7133L27.2756 13.7098L27.1329 13.2819C27.1142 13.2263 27.0359 13.2263 27.0175 13.2819Z" fill="#F5F5F5"/>
<path d="M20.662 16.2486L20.5193 16.6765L20.0682 16.6799C20.0098 16.6803 19.9856 16.7549 20.0326 16.7896L20.3955 17.0575L20.2594 17.4876C20.2418 17.5433 20.3052 17.5894 20.3527 17.5554L20.7197 17.2931L21.0867 17.5554C21.1342 17.5894 21.1975 17.5433 21.18 17.4876L21.0439 17.0575L21.4067 16.7896C21.4537 16.7549 21.4295 16.6803 21.3711 16.6799L20.92 16.6765L20.7773 16.2486C20.7589 16.1932 20.6804 16.1932 20.662 16.2486Z" fill="#F5F5F5"/>
<path d="M20.662 10.315L20.5193 10.7429L20.0682 10.7463C20.0098 10.7467 19.9856 10.8213 20.0326 10.856L20.3955 11.1239L20.2594 11.554C20.2418 11.6097 20.3052 11.6558 20.3527 11.6218L20.7197 11.3595L21.0867 11.6218C21.1342 11.6558 21.1975 11.6097 21.18 11.554L21.0439 11.1239L21.4067 10.856C21.4537 10.8213 21.4295 10.7467 21.3711 10.7463L20.92 10.7429L20.7773 10.315C20.7589 10.2596 20.6804 10.2596 20.662 10.315Z" fill="#F5F5F5"/>
<path d="M23.8397 16.2486L23.697 16.6765L23.246 16.6799C23.1876 16.6803 23.1634 16.7549 23.2103 16.7896L23.5731 17.0575L23.437 17.4876C23.4194 17.5433 23.4828 17.5894 23.5303 17.5554L23.8973 17.2931L24.2643 17.5554C24.3119 17.5894 24.3752 17.5433 24.3577 17.4876L24.2216 17.0575L24.5843 16.7896C24.6313 16.7549 24.6071 16.6803 24.5487 16.6799L24.0976 16.6765L23.955 16.2486C23.9366 16.1932 23.8582 16.1932 23.8397 16.2486Z" fill="#F5F5F5"/>
<path d="M27.0175 16.2486L26.8748 16.6765L26.4237 16.6799C26.3653 16.6803 26.3411 16.7549 26.3881 16.7896L26.751 17.0575L26.6148 17.4876C26.5972 17.5433 26.6606 17.5894 26.7082 17.5554L27.0752 17.2931L27.4422 17.5554C27.4897 17.5894 27.553 17.5433 27.5355 17.4876L27.3994 17.0575L27.7623 16.7896C27.8093 16.7549 27.785 16.6803 27.7266 16.6799L27.2756 16.6765L27.1329 16.2486C27.1142 16.1932 27.0359 16.1932 27.0175 16.2486Z" fill="#F5F5F5"/>
<path d="M23.8397 10.315L23.697 10.7429L23.246 10.7463C23.1876 10.7467 23.1634 10.8213 23.2103 10.856L23.5731 11.1239L23.437 11.554C23.4194 11.6097 23.4828 11.6558 23.5303 11.6218L23.8973 11.3595L24.2643 11.6218C24.3119 11.6558 24.3752 11.6097 24.3577 11.554L24.2216 11.1239L24.5843 10.856C24.6313 10.8213 24.6071 10.7467 24.5487 10.7463L24.0976 10.7429L23.955 10.315C23.9366 10.2596 23.8582 10.2596 23.8397 10.315Z" fill="#F5F5F5"/>
<path d="M27.0175 10.315L26.8748 10.7429L26.4237 10.7463C26.3653 10.7467 26.3411 10.8213 26.3881 10.856L26.751 11.1239L26.6148 11.554C26.5972 11.6097 26.6606 11.6558 26.7082 11.6218L27.0752 11.3595L27.4422 11.6218C27.4897 11.6558 27.553 11.6097 27.5355 11.554L27.3994 11.1239L27.7623 10.856C27.8093 10.8213 27.785 10.7467 27.7266 10.7463L27.2756 10.7429L27.1329 10.315C27.1142 10.2596 27.0359 10.2596 27.0175 10.315Z" fill="#F5F5F5"/>
</g>
<defs>
<clipPath id="clip0_3462_28755">
<rect width="50" height="50" fill="white" transform="translate(0.720703 0.324219)"/>
</clipPath>
</defs>
</svg>
