<svg width="51" height="51" viewBox="0 0 51 51" fill="none" xmlns="http://www.w3.org/2000/svg">
<g clip-path="url(#clip0_3462_28747)">
<path d="M49.2853 41.7038H1.00957C0.533495 41.7038 0.147461 41.3178 0.147461 40.8417V9.80742C0.147461 9.33135 0.533495 8.94531 1.00957 8.94531H49.2854C49.7614 8.94531 50.1475 9.33135 50.1475 9.80742V40.8417C50.1474 41.3179 49.7613 41.7038 49.2853 41.7038Z" fill="#464655"/>
<path d="M50.1474 24.4616H24.5072L0.147461 11.0215V12.9911L22.5006 25.3237L0.147461 37.6563V39.626L24.5072 26.1858H50.1474V24.4616Z" fill="#FFE15A"/>
<path d="M0.492188 41.513C0.637793 41.6252 0.811523 41.7032 1.00947 41.7032H49.2853C49.7613 41.7032 50.1474 41.3172 50.1474 40.8411V27.9102H25.1472L0.492188 41.513Z" fill="#73AF00"/>
<path d="M49.2852 8.94531H1.00947C0.811523 8.94531 0.637695 9.02344 0.492188 9.13564L25.1472 22.7384H50.1471V9.80742C50.1473 9.33135 49.7612 8.94531 49.2852 8.94531Z" fill="#FF4B55"/>
<path d="M7.6137 20.4884C5.15228 19.7141 3.29398 21.5026 2.86928 22.4231C2.50961 23.2031 1.84145 26.7363 5.1721 27.2997C8.50257 27.8632 8.46507 24.7204 8.46507 24.7204C8.31487 25.2213 8.04554 26.6486 5.64144 26.6486C4.73968 26.6486 3.44408 25.3089 3.68822 23.8314C3.91801 22.4412 5.1599 21.7301 6.09857 21.6904C6.98743 21.6529 9.0597 22.2664 9.0597 24.7894C9.0597 27.6253 6.13685 27.9447 6.13685 27.9447V29.6571C8.68108 29.4077 10.1209 27.9983 10.502 25.7408C10.8817 23.4935 10.1164 21.2758 7.6137 20.4884Z" fill="#FFE15A"/>
<path d="M4.88865 24.6927C4.83055 24.7664 4.79969 24.8581 4.79813 24.952L4.7909 25.4125L4.70125 25.5689C4.66893 25.6253 4.68807 25.6974 4.74432 25.7302C4.80125 25.7635 4.8743 25.744 4.90701 25.6867L4.99891 25.5259L5.36668 25.3927C5.4781 25.3524 5.56765 25.2686 5.61609 25.1605C5.71219 24.9459 5.91853 24.552 6.25291 24.141C6.58728 24.552 6.79363 24.9459 6.88972 25.1605C6.93806 25.2686 7.02761 25.3523 7.13904 25.3927L7.50691 25.5259L7.5988 25.6867C7.63142 25.744 7.70466 25.7635 7.7615 25.7302C7.81775 25.6973 7.83689 25.6253 7.80456 25.5689L7.71492 25.4125L7.70769 24.952C7.70622 24.8581 7.67527 24.7664 7.61716 24.6927C7.30906 24.3014 6.98132 23.9937 6.65838 23.7215C6.91648 23.4789 7.20828 23.2474 7.57576 23.0686C7.66081 23.0272 7.70525 22.9318 7.68328 22.8398C7.6533 22.7142 7.51599 22.6483 7.399 22.703C7.15271 22.8177 6.72918 23.0438 6.25281 23.3912C5.77635 23.0439 5.35291 22.8179 5.10662 22.703C4.98963 22.6485 4.85232 22.7144 4.82234 22.8398C4.80047 22.9318 4.8449 23.0272 4.92977 23.0686C5.29734 23.2474 5.58914 23.479 5.84724 23.7215C5.52449 23.9937 5.19676 24.3015 4.88865 24.6927Z" fill="#FFE15A"/>
</g>
<defs>
<clipPath id="clip0_3462_28747">
<rect width="50" height="50" fill="white" transform="translate(0.148438 0.324219)"/>
</clipPath>
</defs>
</svg>
