<svg width="51" height="51" viewBox="0 0 51 51" fill="none" xmlns="http://www.w3.org/2000/svg">
<g clip-path="url(#clip0_3462_28693)">
<path d="M49.5793 8.94531H25.4414V41.7039H49.5793C50.0554 41.7039 50.4414 41.3179 50.4414 40.8418V9.80732C50.4414 9.33125 50.0554 8.94531 49.5793 8.94531Z" fill="#F5F5F5"/>
<path d="M1.30352 41.7039H25.4414V8.94531H1.30352C0.827441 8.94531 0.441406 9.33125 0.441406 9.80732V40.8418C0.441406 41.318 0.827441 41.7039 1.30352 41.7039Z" fill="#FFE15A"/>
<path d="M40.3114 17.3895L40.2539 17.504C40.4394 17.5987 40.5455 17.7065 40.5455 17.8214L40.5166 17.252C40.478 17.3284 40.4023 17.3833 40.3114 17.3895Z" fill="#EBEBEB"/>
<path d="M35.8366 17.504L35.7791 17.3895C35.6883 17.3832 35.6127 17.3284 35.5737 17.252L35.5449 17.8214C35.5449 17.7067 35.6511 17.5987 35.8366 17.504Z" fill="#EBEBEB"/>
<path d="M35.7951 16.8926C35.9332 16.8926 36.0451 17.0045 36.0451 17.1426C36.0451 17.1926 36.0267 17.2365 36.0014 17.2756L36.0672 17.4071C36.2559 17.3408 36.4883 17.2845 36.7534 17.2408L36.7253 17.1283C36.622 17.0977 36.5451 17.0057 36.5451 16.8925C36.5451 16.7544 36.657 16.6425 36.7951 16.6425C36.9332 16.6425 37.0451 16.7544 37.0451 16.8925C37.0451 16.963 37.0155 17.026 36.9687 17.0715L37.002 17.205C37.1414 17.1875 37.2874 17.1737 37.439 17.1634C37.4276 17.1164 37.4201 17.0679 37.4201 17.0175C37.4201 16.6724 37.7 16.3925 38.0451 16.3925C38.3902 16.3925 38.6701 16.6724 38.6701 17.0175C38.6701 17.0681 38.6626 17.1164 38.6513 17.1634C38.803 17.1736 38.949 17.1875 39.0882 17.205L39.1216 17.0715C39.0747 17.026 39.0451 16.963 39.0451 16.8925C39.0451 16.7544 39.157 16.6425 39.2951 16.6425C39.4332 16.6425 39.5451 16.7544 39.5451 16.8925C39.5451 17.0058 39.4683 17.0977 39.3649 17.1283L39.3368 17.2408C39.6019 17.2844 39.8344 17.3407 40.023 17.4071L40.0889 17.2756C40.0636 17.2364 40.0451 17.1926 40.0451 17.1426C40.0451 17.0045 40.157 16.8926 40.2951 16.8926C40.3851 16.8926 40.4604 16.9427 40.5044 17.0141L40.4852 16.6328C40.2384 16.3525 39.2405 16.1426 38.0451 16.1426C36.8497 16.1426 35.852 16.3523 35.6051 16.6328L35.5859 17.0141C35.6299 16.9427 35.7052 16.8926 35.7951 16.8926Z" fill="#EBEBEB"/>
<path d="M38.4353 13.9517C38.5029 13.8663 38.5449 13.7599 38.5449 13.6426C38.5449 13.4099 38.3853 13.2161 38.1699 13.1603V12.8542C38.2433 12.8106 38.2949 12.7341 38.2949 12.6426C38.2949 12.5045 38.183 12.3926 38.0449 12.3926C37.9068 12.3926 37.7949 12.5045 37.7949 12.6426C37.7949 12.7341 37.8466 12.8106 37.9199 12.8542V13.1603C37.7046 13.2159 37.5449 13.4099 37.5449 13.6426C37.5449 13.76 37.587 13.8664 37.6546 13.9517C37.7817 13.9169 37.9112 13.8926 38.0449 13.8926C38.1786 13.8926 38.308 13.9168 38.4353 13.9517Z" fill="#E6B432"/>
<path d="M36.9977 15.2172L36.9755 15.1284C36.8722 15.0978 36.7953 15.0058 36.7953 14.8926C36.7953 14.7545 36.9072 14.6426 37.0453 14.6426C37.1834 14.6426 37.2953 14.7545 37.2953 14.8926C37.2953 14.9631 37.2657 15.0261 37.2188 15.0716L37.2471 15.1843C37.4917 15.1575 37.7614 15.1426 38.0453 15.1426C37.8382 15.1426 37.6703 14.9747 37.6703 14.7676C37.6703 14.5604 37.8382 14.3926 38.0453 14.3926C38.2524 14.3926 38.4203 14.5604 38.4203 14.7676C38.4203 14.9747 38.2524 15.1426 38.0453 15.1426C38.3293 15.1426 38.599 15.1575 38.8436 15.1843L38.8718 15.0716C38.8249 15.0261 38.7953 14.9631 38.7953 14.8926C38.7953 14.7545 38.9072 14.6426 39.0453 14.6426C39.1834 14.6426 39.2953 14.7545 39.2953 14.8926C39.2953 15.0059 39.2185 15.0978 39.1151 15.1284L39.093 15.2172C39.22 15.2368 39.3382 15.2596 39.4442 15.2855L39.6285 14.917C39.3097 14.4229 38.8977 14.0782 38.4355 13.9517C38.3084 13.9169 38.1789 13.8926 38.0452 13.8926C37.9116 13.8926 37.7821 13.9168 37.6549 13.9517C37.1927 14.0781 36.7808 14.4229 36.4619 14.917L36.6462 15.2855C36.7523 15.2596 36.8706 15.2368 36.9977 15.2172Z" fill="#EBEBEB"/>
<path d="M37.7959 35.6885V35.1426C37.7959 35.0841 37.8041 35.0278 37.8168 34.9732C37.8102 34.9689 37.8028 34.9659 37.7959 34.9619C37.7221 34.919 37.6374 34.8926 37.5459 34.8926C37.4544 34.8926 37.3697 34.9189 37.2959 34.9619C37.1471 35.0485 37.0459 35.2079 37.0459 35.3926C37.0459 35.5271 37.0997 35.6486 37.1859 35.7384C37.2932 35.6792 37.4147 35.6426 37.5458 35.6426C37.6341 35.6426 37.7174 35.6606 37.7959 35.6885Z" fill="#E6B432"/>
<path d="M38.2959 33.7119C38.1471 33.7985 38.0459 33.9579 38.0459 34.1426C38.0459 34.277 38.0997 34.3986 38.1859 34.4884C38.2932 34.4292 38.4147 34.3926 38.5459 34.3926C38.677 34.3926 38.7984 34.4292 38.9059 34.4884C38.9922 34.3985 39.0459 34.277 39.0459 34.1426C39.0459 33.958 38.9447 33.7985 38.7959 33.7119C38.7221 33.669 38.6374 33.6426 38.5459 33.6426C38.4544 33.6426 38.3697 33.669 38.2959 33.7119Z" fill="#E6B432"/>
<path d="M38.185 34.4883C38.0014 34.5895 37.8644 34.7634 37.8158 34.9732C37.8032 35.0278 37.7949 35.0841 37.7949 35.1426V35.6885C37.7164 35.6605 37.6331 35.6426 37.5449 35.6426C37.4138 35.6426 37.2922 35.6792 37.185 35.7384C36.9535 35.8661 36.7949 36.1095 36.7949 36.3926V37.3926H38.2949V36.3926C38.2949 36.3044 38.277 36.2211 38.249 36.1426H39.2949V35.1426C39.2949 34.8596 39.1363 34.6161 38.9049 34.4884C38.7977 34.4292 38.6761 34.3926 38.5449 34.3926C38.4138 34.3926 38.2922 34.4291 38.185 34.4883Z" fill="#FF4B57"/>
<path d="M38.2957 24.4345L38.7229 24.8617L38.8689 24.7156C38.9036 24.681 38.9468 24.6631 38.9914 24.653L41.1058 22.5382L42.4601 23.8925L43.3439 23.0087L42.9903 22.6552L42.8135 22.8319L42.46 22.4784L42.6367 22.3017L42.46 22.1248L42.8135 21.7713L42.9903 21.948L43.1671 21.7713L43.5206 22.1248L43.3439 22.3017L43.6974 22.6552L44.5812 21.7714L43.2266 20.4168L44.1535 19.4896C44.1088 19.4712 44.0668 19.4441 44.0305 19.4079L43.5305 18.9079C43.4932 18.8706 43.4659 18.8273 43.4476 18.7812L38.2393 23.9909C38.2726 24.0334 38.2956 24.0845 38.2956 24.1427L38.2957 24.4345Z" fill="#E6B432"/>
<path d="M37.7223 25.922L37.0152 25.2148L34.8172 27.4135C34.6221 27.6089 34.6221 27.9254 34.8173 28.1205C34.915 28.2182 35.0429 28.267 35.1708 28.267C35.2988 28.267 35.4269 28.2182 35.5245 28.1205L37.2425 26.402L37.7223 25.922Z" fill="#E6B432"/>
<path d="M30.8979 28.5175C30.9118 28.4782 30.9209 28.4366 30.9209 28.3926C30.9209 28.1854 30.753 28.0176 30.5459 28.0176C30.3388 28.0176 30.1709 28.1854 30.1709 28.3926C30.1709 28.5997 30.3388 28.7676 30.5459 28.7676C30.5899 28.7676 30.6315 28.7586 30.6708 28.7446C30.7417 28.6642 30.8175 28.5884 30.8979 28.5175Z" fill="#D2D2D2"/>
<path d="M30.6708 32.0405C30.6315 32.0267 30.5899 32.0176 30.5459 32.0176C30.3388 32.0176 30.1709 32.1854 30.1709 32.3926C30.1709 32.5997 30.3388 32.7676 30.5459 32.7676C30.753 32.7676 30.9209 32.5997 30.9209 32.3926C30.9209 32.3486 30.9119 32.3069 30.8979 32.2677C30.8175 32.1969 30.7417 32.121 30.6708 32.0405Z" fill="#D2D2D2"/>
<path d="M34.421 28.7446C34.4603 28.7585 34.5019 28.7676 34.5459 28.7676C34.753 28.7676 34.9209 28.5997 34.9209 28.3926C34.9209 28.1854 34.753 28.0176 34.5459 28.0176C34.3388 28.0176 34.1709 28.1854 34.1709 28.3926C34.1709 28.4366 34.1799 28.4782 34.1938 28.5175C34.2744 28.5884 34.3501 28.6642 34.421 28.7446Z" fill="#D2D2D2"/>
<path d="M34.1709 32.3916C34.1709 32.5987 34.3388 32.7666 34.5459 32.7666C34.6614 32.7666 34.7634 32.7133 34.8322 32.6312C34.5972 32.5461 34.3776 32.4514 34.1753 32.3477C34.1736 32.3623 34.1709 32.3766 34.1709 32.3916Z" fill="#D2D2D2"/>
<path d="M33.6479 32.0304C33.5953 31.9922 33.5638 31.9369 33.5516 31.8779C33.5091 31.8871 33.4652 31.8925 33.42 31.8925C33.1231 31.8925 32.875 31.684 32.8116 31.4059C32.7437 31.4747 32.6493 31.5175 32.545 31.5175C32.4406 31.5175 32.3463 31.4747 32.2784 31.4059C32.2151 31.684 31.967 31.8925 31.67 31.8925C31.3254 31.8925 31.045 31.6122 31.045 31.2675C31.045 30.9705 31.2536 30.7225 31.5316 30.6591C31.4628 30.5911 31.42 30.4968 31.42 30.3925C31.42 30.2881 31.4628 30.1937 31.5316 30.1259C31.2536 30.0626 31.045 29.8145 31.045 29.5175C31.045 29.1728 31.3254 28.8925 31.67 28.8925C31.9669 28.8925 32.215 29.101 32.2784 29.3791C32.3464 29.3103 32.4407 29.2675 32.545 29.2675C32.6494 29.2675 32.7437 29.3103 32.8116 29.3791C32.8749 29.101 33.123 28.8925 33.42 28.8925C33.7646 28.8925 34.045 29.1728 34.045 29.5175C34.045 29.8145 33.8364 30.0625 33.5584 30.1259C33.6272 30.1938 33.67 30.2882 33.67 30.3925C33.67 30.4969 33.6272 30.5912 33.5584 30.6591C33.8364 30.7224 34.045 30.9705 34.045 31.2675C34.045 31.3993 34.0035 31.5213 33.9336 31.6223C33.9359 31.6239 33.9388 31.624 33.9411 31.6257C34.1028 31.7428 34.2893 31.8517 34.4963 31.9512C34.5586 31.8733 34.6152 31.7911 34.668 31.7062C34.8327 31.4408 34.9491 31.1434 35.005 30.8246C35.0297 30.684 35.0449 30.5402 35.0449 30.3926C35.0449 29.7611 34.8076 29.1852 34.42 28.7446C34.3491 28.6642 34.2733 28.5883 34.1929 28.5175C33.7523 28.1299 33.1765 27.8926 32.5449 27.8926C31.9134 27.8926 31.3375 28.1299 30.897 28.5175C30.8165 28.5884 30.7406 28.6642 30.6698 28.7446C30.2822 29.1852 30.0449 29.761 30.0449 30.3926C30.0449 31.0241 30.2822 31.6 30.6698 32.0405C30.7407 32.121 30.8165 32.1969 30.897 32.2677C31.3375 32.6553 31.9134 32.8926 32.5449 32.8926C33.1457 32.8926 33.6973 32.6793 34.1289 32.3249C33.955 32.233 33.7928 32.1352 33.6479 32.0304ZM34.4777 29.8867C34.5202 30.0485 34.5451 30.2175 34.5451 30.3924C34.5451 30.5673 34.5202 30.7362 34.4777 30.898C34.4071 30.6967 34.2819 30.5231 34.1185 30.3924C34.2819 30.2616 34.4071 30.0881 34.4777 29.8867ZM33.0508 28.4598C32.8494 28.5304 32.6759 28.6556 32.5451 28.819C32.4143 28.6556 32.2408 28.5304 32.0395 28.4598C32.2013 28.4173 32.3701 28.3924 32.5451 28.3924C32.7201 28.3924 32.8889 28.4173 33.0508 28.4598ZM30.6124 29.8867C30.683 30.0881 30.8082 30.2617 30.9717 30.3924C30.8082 30.5232 30.683 30.6967 30.6124 30.898C30.5699 30.7362 30.545 30.5674 30.545 30.3924C30.545 30.2174 30.5699 30.0485 30.6124 29.8867ZM32.0394 32.3251C32.2407 32.2545 32.4143 32.1293 32.545 31.9658C32.6759 32.1293 32.8493 32.2546 33.0507 32.3251C32.8889 32.3676 32.72 32.3925 32.545 32.3925C32.37 32.3925 32.2012 32.3675 32.0394 32.3251Z" fill="#E6B432"/>
<path d="M32.1709 30.3926C32.1709 30.1854 32.003 30.0176 31.7959 30.0176C31.6932 30.0176 31.6002 30.0591 31.5325 30.126C31.4637 30.1939 31.4209 30.2883 31.4209 30.3926C31.4209 30.497 31.4637 30.5913 31.5325 30.6592C31.6003 30.7261 31.6932 30.7676 31.7959 30.7676C32.003 30.7676 32.1709 30.5997 32.1709 30.3926Z" fill="#F0C814"/>
<path d="M32.9209 30.3926C32.9209 30.5997 33.0888 30.7676 33.2959 30.7676C33.3986 30.7676 33.4916 30.7261 33.5593 30.6592C33.6281 30.5912 33.6709 30.4969 33.6709 30.3926C33.6709 30.2882 33.6281 30.1938 33.5593 30.126C33.4915 30.0591 33.3986 30.0176 33.2959 30.0176C33.0888 30.0176 32.9209 30.1854 32.9209 30.3926Z" fill="#F0C814"/>
<path d="M32.5459 30.0176C32.753 30.0176 32.9209 29.8497 32.9209 29.6426C32.9209 29.5398 32.8794 29.4469 32.8125 29.3792C32.7445 29.3104 32.6502 29.2676 32.5459 29.2676C32.4415 29.2676 32.3472 29.3104 32.2793 29.3792C32.2124 29.447 32.1709 29.5398 32.1709 29.6426C32.1709 29.8497 32.3388 30.0176 32.5459 30.0176Z" fill="#F0C814"/>
<path d="M32.5459 30.7676C32.3388 30.7676 32.1709 30.9354 32.1709 31.1426C32.1709 31.2453 32.2124 31.3383 32.2793 31.406C32.3473 31.4748 32.4416 31.5176 32.5459 31.5176C32.6503 31.5176 32.7446 31.4748 32.8125 31.406C32.8794 31.3383 32.9209 31.2453 32.9209 31.1426C32.9209 30.9354 32.753 30.7676 32.5459 30.7676Z" fill="#F0C814"/>
<path d="M44.0315 19.408C44.0678 19.4443 44.1098 19.4715 44.1545 19.4896C44.2 19.5083 44.2483 19.5178 44.2966 19.5178C44.3925 19.5178 44.4885 19.4812 44.5617 19.4078C44.6916 19.2778 44.6995 19.0796 44.5989 18.9335L44.7371 18.3807C44.7568 18.3856 44.7755 18.3926 44.7966 18.3926C44.9347 18.3926 45.0466 18.2807 45.0466 18.1426C45.0466 18.0045 44.9347 17.8926 44.7966 17.8926C44.6585 17.8926 44.5466 18.0045 44.5466 18.1426C44.5466 18.1637 44.5537 18.1824 44.5585 18.2021L44.0057 18.3403C43.8596 18.2396 43.6613 18.2476 43.5314 18.3775C43.4222 18.4867 43.3949 18.6463 43.4485 18.7813C43.4668 18.8272 43.4941 18.8706 43.5314 18.9079L44.0315 19.408Z" fill="#D2D2D2"/>
<path d="M37.7963 25.2892V25.1427V24.1427C37.7963 24.0845 37.8193 24.0334 37.8526 23.9909L32.6443 18.7812C32.626 18.8272 32.5987 18.8706 32.5614 18.9079L32.0614 19.4079C32.0251 19.4442 31.9831 19.4714 31.9384 19.4896L32.8653 20.4168L31.5107 21.7714L32.3945 22.6552L32.748 22.3017L32.5713 22.1248L32.9248 21.7713L33.1016 21.948L33.2784 21.7713L33.6319 22.1248L33.4552 22.3017L33.6319 22.4784L33.2784 22.8319L33.1016 22.6552L32.748 23.0087L33.6318 23.8925L34.9861 22.5382L37.1005 24.653C37.1451 24.6631 37.1882 24.681 37.223 24.7156L37.7963 25.2892Z" fill="#D2D2D2"/>
<path d="M38.3701 25.9221L38.85 26.4021L40.568 28.1205C40.6656 28.2182 40.7935 28.267 40.9217 28.267C41.0496 28.267 41.1775 28.2182 41.2752 28.1205C41.4706 27.9255 41.4706 27.6088 41.2753 27.4135L39.0773 25.2148L38.3701 25.9221Z" fill="#D2D2D2"/>
<path d="M38.2959 25.1435V25.2899L38.723 24.8628L38.2959 24.4355V25.1435Z" fill="#D2D2D2"/>
<path d="M45.421 28.7446C45.4603 28.7585 45.5019 28.7676 45.5459 28.7676C45.753 28.7676 45.9209 28.5997 45.9209 28.3926C45.9209 28.1854 45.753 28.0176 45.5459 28.0176C45.3388 28.0176 45.1709 28.1854 45.1709 28.3926C45.1709 28.4366 45.1799 28.4782 45.1938 28.5175C45.2744 28.5884 45.3501 28.6642 45.421 28.7446Z" fill="#D2D2D2"/>
<path d="M45.5459 32.0176C45.5019 32.0176 45.4603 32.0266 45.421 32.0405C45.3501 32.121 45.2743 32.1969 45.1938 32.2677C45.18 32.3069 45.1709 32.3485 45.1709 32.3926C45.1709 32.5997 45.3388 32.7676 45.5459 32.7676C45.753 32.7676 45.9209 32.5997 45.9209 32.3926C45.9209 32.1854 45.753 32.0176 45.5459 32.0176Z" fill="#D2D2D2"/>
<path d="M41.8979 28.5175C41.9118 28.4782 41.9209 28.4366 41.9209 28.3926C41.9209 28.1854 41.753 28.0176 41.5459 28.0176C41.3388 28.0176 41.1709 28.1854 41.1709 28.3926C41.1709 28.5997 41.3388 28.7676 41.5459 28.7676C41.5899 28.7676 41.6315 28.7586 41.6708 28.7446C41.7417 28.6642 41.8175 28.5884 41.8979 28.5175Z" fill="#D2D2D2"/>
<path d="M41.546 32.7686C41.7531 32.7686 41.921 32.6007 41.921 32.3936C41.921 32.3785 41.9183 32.3643 41.9166 32.3496C41.7145 32.4534 41.4947 32.5481 41.2598 32.6332C41.3286 32.7153 41.4305 32.7686 41.546 32.7686Z" fill="#D2D2D2"/>
<path d="M45.42 32.0405C45.8076 31.6 46.0449 31.0241 46.0449 30.3926C46.0449 29.761 45.8076 29.1852 45.42 28.7446C45.3491 28.6642 45.2733 28.5883 45.1929 28.5175C44.7523 28.1299 44.1765 27.8926 43.5449 27.8926C42.9134 27.8926 42.3375 28.1299 41.897 28.5175C41.8165 28.5884 41.7406 28.6642 41.6698 28.7446C41.2822 29.1852 41.0449 29.761 41.0449 30.3926C41.0449 30.5409 41.0604 30.6855 41.0853 30.827C41.1413 31.1449 41.2575 31.4416 41.4219 31.7063C41.4747 31.7913 41.5313 31.8733 41.5936 31.9513C41.8004 31.8519 41.9866 31.7431 42.1483 31.6261C42.1508 31.6242 42.1538 31.6241 42.1563 31.6224C42.0864 31.5215 42.0449 31.3994 42.0449 31.2676C42.0449 30.9706 42.2535 30.7226 42.5315 30.6592C42.4627 30.5912 42.4199 30.4969 42.4199 30.3926C42.4199 30.2882 42.4627 30.1938 42.5315 30.126C42.2535 30.0627 42.0449 29.8147 42.0449 29.5176C42.0449 29.1729 42.3253 28.8926 42.6699 28.8926C42.9668 28.8926 43.2149 29.1011 43.2783 29.3792C43.3463 29.3104 43.4406 29.2676 43.5449 29.2676C43.6492 29.2676 43.7437 29.3104 43.8115 29.3792C43.8749 29.1011 44.123 28.8926 44.4199 28.8926C44.7646 28.8926 45.0449 29.1729 45.0449 29.5176C45.0449 29.8146 44.8363 30.0626 44.5583 30.126C44.6272 30.1939 44.6699 30.2883 44.6699 30.3926C44.6699 30.497 44.6272 30.5913 44.5583 30.6592C44.8363 30.7225 45.0449 30.9706 45.0449 31.2676C45.0449 31.6123 44.7646 31.8926 44.4199 31.8926C44.123 31.8926 43.8749 31.6841 43.8115 31.406C43.7436 31.4748 43.6492 31.5176 43.5449 31.5176C43.4406 31.5176 43.3462 31.4748 43.2783 31.406C43.2149 31.6841 42.9669 31.8926 42.6699 31.8926C42.6247 31.8926 42.5807 31.8872 42.538 31.878C42.5259 31.9372 42.4942 31.9927 42.4414 32.0309C42.2967 32.1357 42.1348 32.2333 41.9608 32.325C42.3924 32.6794 42.9441 32.8927 43.5448 32.8927C44.1764 32.8927 44.7522 32.6554 45.1928 32.2678C45.2734 32.1969 45.3491 32.121 45.42 32.0405ZM41.6123 30.8983C41.5698 30.7365 41.5449 30.5677 41.5449 30.3927C41.5449 30.2177 41.5698 30.0488 41.6123 29.887C41.6829 30.0884 41.8081 30.262 41.9716 30.3927C41.8081 30.5234 41.6829 30.6969 41.6123 30.8983ZM43.5449 28.8192C43.4141 28.6558 43.2406 28.5306 43.0393 28.46C43.2011 28.4175 43.3699 28.3926 43.5449 28.3926C43.7199 28.3926 43.8888 28.4175 44.0506 28.46C43.8492 28.5306 43.6758 28.6558 43.5449 28.8192ZM45.4776 29.8869C45.5201 30.0487 45.545 30.2177 45.545 30.3926C45.545 30.5675 45.5201 30.7364 45.4776 30.8982C45.407 30.6969 45.2818 30.5233 45.1184 30.3926C45.2818 30.2618 45.407 30.0883 45.4776 29.8869ZM43.0393 32.3253C43.2406 32.2547 43.4142 32.1295 43.5449 31.966C43.6758 32.1295 43.8492 32.2548 44.0506 32.3253C43.8888 32.3678 43.7199 32.3927 43.5449 32.3927C43.3699 32.3927 43.2011 32.3677 43.0393 32.3253Z" fill="#E6B432"/>
<path d="M43.9199 30.3926C43.9199 30.5997 44.0878 30.7676 44.2949 30.7676C44.3977 30.7676 44.4906 30.7261 44.5583 30.6592C44.6271 30.5912 44.6699 30.4969 44.6699 30.3926C44.6699 30.2882 44.6271 30.1938 44.5583 30.126C44.4905 30.0591 44.3977 30.0176 44.2949 30.0176C44.0878 30.0176 43.9199 30.1854 43.9199 30.3926Z" fill="#F0C814"/>
<path d="M43.1699 30.3926C43.1699 30.1854 43.002 30.0176 42.7949 30.0176C42.6922 30.0176 42.5992 30.0591 42.5315 30.126C42.4627 30.1939 42.4199 30.2883 42.4199 30.3926C42.4199 30.497 42.4627 30.5913 42.5315 30.6592C42.5993 30.7261 42.6922 30.7676 42.7949 30.7676C43.002 30.7676 43.1699 30.5997 43.1699 30.3926Z" fill="#F0C814"/>
<path d="M43.5449 30.0176C43.7521 30.0176 43.9199 29.8497 43.9199 29.6426C43.9199 29.5398 43.8784 29.4469 43.8115 29.3792C43.7436 29.3104 43.6492 29.2676 43.5449 29.2676C43.4406 29.2676 43.3462 29.3104 43.2783 29.3792C43.2114 29.447 43.1699 29.5398 43.1699 29.6426C43.1699 29.8497 43.3378 30.0176 43.5449 30.0176Z" fill="#F0C814"/>
<path d="M43.5449 30.7676C43.3378 30.7676 43.1699 30.9354 43.1699 31.1426C43.1699 31.2453 43.2114 31.3383 43.2783 31.406C43.3463 31.4748 43.4406 31.5176 43.5449 31.5176C43.6492 31.5176 43.7437 31.4748 43.8115 31.406C43.8784 31.3383 43.9199 31.2453 43.9199 31.1426C43.9199 30.9354 43.7521 30.7676 43.5449 30.7676Z" fill="#F0C814"/>
<path d="M32.5602 18.9079C32.5975 18.8706 32.6247 18.8273 32.6431 18.7812C32.6966 18.6463 32.6693 18.4868 32.5602 18.3775C32.4302 18.2476 32.2319 18.2397 32.0858 18.3403L31.533 18.202C31.538 18.1824 31.5449 18.1637 31.5449 18.1426C31.5449 18.0045 31.433 17.8926 31.2949 17.8926C31.1568 17.8926 31.0449 18.0045 31.0449 18.1426C31.0449 18.2807 31.1568 18.3926 31.2949 18.3926C31.316 18.3926 31.3348 18.3854 31.3544 18.3807L31.4927 18.9335C31.392 19.0796 31.3999 19.2779 31.5299 19.4078C31.6031 19.4811 31.699 19.5178 31.7949 19.5178C31.8433 19.5178 31.8916 19.5082 31.937 19.4896C31.9817 19.4713 32.0237 19.4442 32.0601 19.408L32.5602 18.9079Z" fill="#F7B518"/>
<path d="M42.4418 32.0307C42.4946 31.9925 42.5261 31.937 42.5384 31.8778C42.5519 31.8115 42.5405 31.7405 42.4977 31.6815C42.4185 31.5725 42.2679 31.5473 42.1567 31.6222C42.1542 31.6239 42.1512 31.624 42.1487 31.6259C41.9871 31.7429 41.8008 31.8517 41.5939 31.9511C40.8609 32.3037 39.8686 32.5389 38.7953 32.6149V29.1034C39.8863 30.5934 40.949 31.3941 41.4222 31.7062C41.2579 31.4415 41.1417 31.1448 41.0856 30.8269C40.4805 30.3263 39.625 29.4854 38.7953 28.2177V26.5189C38.813 26.48 38.831 26.442 38.8486 26.4025L38.3687 25.9226L39.0759 25.2154L39.2219 25.0693C39.3196 24.9717 39.3196 24.8135 39.2219 24.7158C39.1591 24.6529 39.0717 24.635 38.9908 24.6532C38.9462 24.6633 38.9032 24.6812 38.8683 24.7158L38.7222 24.8619L38.2951 25.2891V25.1426V24.4346V24.1426C38.2951 24.0844 38.272 24.0333 38.2387 23.9908C38.1929 23.9324 38.125 23.8926 38.0451 23.8926C37.9651 23.8926 37.8972 23.9324 37.8514 23.9908C37.8181 24.0333 37.7951 24.0844 37.7951 24.1426V25.1426V25.2891L37.2218 24.7158C37.1872 24.6812 37.144 24.6633 37.0994 24.6532C37.0185 24.6351 36.9312 24.6529 36.8682 24.7158C36.7706 24.8135 36.7706 24.9717 36.8682 25.0693L37.0143 25.2154L37.7215 25.9226L37.2416 26.4025C37.2592 26.4421 37.2772 26.4799 37.2949 26.5189V28.2156C36.4661 29.4809 35.6103 30.3227 35.005 30.8244C34.949 31.1433 34.8328 31.4408 34.6679 31.706C35.1412 31.394 36.2038 30.5933 37.2949 29.1032V32.6147C36.2216 32.5388 35.2293 32.3035 34.4962 31.951C34.2891 31.8514 34.1027 31.7426 33.941 31.6255C33.9386 31.6237 33.9358 31.6236 33.9335 31.6221C33.8222 31.5469 33.6714 31.5722 33.5919 31.6811C33.549 31.7403 33.5377 31.8114 33.5514 31.8778C33.5636 31.9368 33.5952 31.9922 33.6477 32.0303C33.7926 32.1353 33.9548 32.233 34.1288 32.3247C34.1439 32.3327 34.159 32.3405 34.1743 32.3484C34.3764 32.4522 34.5962 32.547 34.8312 32.6319C35.5412 32.8889 36.3871 33.0568 37.2949 33.1169V34.9617C37.3687 34.9188 37.4534 34.8924 37.5449 34.8924C37.6364 34.8924 37.7211 34.9187 37.7949 34.9617V33.1388C37.878 33.1405 37.9611 33.1423 38.0449 33.1423C38.1287 33.1423 38.2118 33.1404 38.2949 33.1388V33.7117C38.3687 33.6688 38.4534 33.6424 38.5449 33.6424C38.6364 33.6424 38.7211 33.6687 38.7949 33.7117V33.1169C39.7028 33.0568 40.5488 32.8889 41.2587 32.6319C41.4937 32.5469 41.7133 32.4521 41.9155 32.3483C41.9308 32.3404 41.9459 32.3326 41.961 32.3246C42.1351 32.2332 42.297 32.1354 42.4418 32.0307ZM38.0452 32.6425C37.9616 32.6425 37.8783 32.6407 37.7952 32.6388V28.3721C37.879 28.2405 37.9623 28.1036 38.0452 27.9634C38.1281 28.1037 38.2114 28.2405 38.2952 28.3721V32.6388C38.2122 32.6408 38.1289 32.6425 38.0452 32.6425Z" fill="#FF4B55"/>
<path d="M38.0447 18.3371C39.4254 18.3371 40.5447 18.5734 40.5447 18.8649C40.5447 18.3745 40.5447 17.896 40.5447 17.8213C40.5447 17.7066 40.4389 17.5986 40.2539 17.5039L40.3112 17.3894C40.4019 17.3831 40.4772 17.3283 40.5161 17.2519C40.5329 17.2187 40.5449 17.1827 40.5449 17.1427C40.5449 17.0946 40.5278 17.0522 40.5042 17.0142C40.4602 16.9429 40.385 16.8927 40.2949 16.8927C40.1568 16.8927 40.0449 17.0046 40.0449 17.1427C40.0449 17.1927 40.0634 17.2366 40.0887 17.2757L40.0229 17.4072C39.8342 17.3409 39.6018 17.2846 39.3366 17.2409L39.3647 17.1284C39.4681 17.0978 39.5449 17.0058 39.5449 16.8926C39.5449 16.7545 39.433 16.6426 39.2949 16.6426C39.1568 16.6426 39.0449 16.7545 39.0449 16.8926C39.0449 16.9631 39.0745 17.0261 39.1214 17.0716L39.088 17.2051C38.9486 17.1876 38.8026 17.1738 38.6511 17.1635C38.6624 17.1165 38.6699 17.068 38.6699 17.0176C38.6699 16.6725 38.39 16.3926 38.0449 16.3926C37.6998 16.3926 37.4199 16.6725 37.4199 17.0176C37.4199 17.0682 37.4274 17.1165 37.4388 17.1635C37.287 17.1737 37.141 17.1876 37.0019 17.2051L36.9685 17.0716C37.0153 17.0261 37.0449 16.9631 37.0449 16.8926C37.0449 16.7545 36.933 16.6426 36.7949 16.6426C36.6568 16.6426 36.5449 16.7545 36.5449 16.8926C36.5449 17.0059 36.6218 17.0978 36.7251 17.1284L36.7532 17.2409C36.4882 17.2845 36.2557 17.3408 36.067 17.4072L36.0012 17.2757C36.0265 17.2365 36.0449 17.1927 36.0449 17.1427C36.0449 17.0046 35.933 16.8927 35.7949 16.8927C35.705 16.8927 35.6296 16.9428 35.5856 17.0142C35.5621 17.0523 35.5449 17.0946 35.5449 17.1427C35.5449 17.1826 35.5567 17.2187 35.5736 17.2519C35.6124 17.3283 35.6879 17.3831 35.7785 17.3894L35.8358 17.5039C35.6508 17.5986 35.545 17.7064 35.545 17.8213C35.545 17.8961 35.545 18.3745 35.545 18.8649C35.5447 18.5734 36.6641 18.3371 38.0447 18.3371Z" fill="#E6B432"/>
<path d="M35.5449 18.893L35.5481 18.8918C35.5473 18.8833 35.5449 18.872 35.5449 18.8652C35.5449 18.8746 35.5449 18.8837 35.5449 18.893Z" fill="#E6B432"/>
<path d="M40.5451 18.8931C40.5451 18.8838 40.5451 18.8746 40.5451 18.8652C40.5451 18.8721 40.5428 18.8834 40.542 18.8918L40.5451 18.8931Z" fill="#E6B432"/>
<path d="M36.0449 19.3934C36.0449 19.4434 36.0265 19.4873 36.0012 19.5264L36.0959 19.7159C36.2613 19.6339 36.4873 19.5635 36.7575 19.5095L36.725 19.3793C36.6217 19.3486 36.5448 19.2566 36.5448 19.1435C36.5448 19.0054 36.6567 18.8935 36.7948 18.8935C36.9329 18.8935 37.0448 19.0054 37.0448 19.1435C37.0448 19.214 37.0152 19.277 36.9684 19.3225L37.0045 19.4666C37.2457 19.4306 37.5121 19.4065 37.7949 19.3977V19.1712C37.7187 19.1025 37.6699 19.0042 37.6699 18.8935C37.6699 18.6863 37.8378 18.5185 38.0449 18.5185C38.252 18.5185 38.4199 18.6863 38.4199 18.8935C38.4199 19.0041 38.3711 19.1025 38.2949 19.1712V19.3977C38.5776 19.4066 38.8441 19.4307 39.0853 19.4666L39.1215 19.3225C39.0746 19.277 39.045 19.214 39.045 19.1435C39.045 19.0054 39.1569 18.8935 39.295 18.8935C39.4331 18.8935 39.545 19.0054 39.545 19.1435C39.545 19.2567 39.4682 19.3486 39.3648 19.3793L39.3323 19.5095C39.6025 19.5635 39.8286 19.6341 39.9939 19.7159L40.0887 19.5264C40.0634 19.4872 40.0449 19.4434 40.0449 19.3934C40.0449 19.2553 40.1568 19.1434 40.2949 19.1434C40.3547 19.1434 40.4074 19.1673 40.4504 19.2023C40.5061 19.0657 40.5356 18.9572 40.5418 18.8922C40.5426 18.8838 40.5449 18.8725 40.5449 18.8657C40.5449 18.5742 39.4256 18.3379 38.0449 18.3379C36.6643 18.3379 35.5449 18.5742 35.5449 18.8657C35.5449 18.8726 35.5473 18.8839 35.548 18.8922C35.5541 18.9572 35.5837 19.0657 35.6394 19.2023C35.6823 19.1673 35.7351 19.1434 35.7948 19.1434C35.933 19.1434 36.0449 19.2554 36.0449 19.3934Z" fill="#EBEBEB"/>
<path d="M35.5449 19.3925C35.5449 19.5247 35.6484 19.6303 35.7784 19.6392L35.8863 19.8549C35.8278 19.9122 35.7948 19.9726 35.7948 20.0353C35.7948 20.1073 35.8383 20.1766 35.9149 20.2413L36.2948 20.8925C36.2948 20.6163 37.0783 20.3925 38.0448 20.3925C39.0113 20.3925 39.7948 20.6163 39.7948 20.8925L40.1747 20.2413C40.2515 20.1766 40.2948 20.1075 40.2948 20.0353C40.2948 19.9726 40.2619 19.9122 40.2033 19.8549L40.3112 19.6392C40.4412 19.6302 40.5448 19.5247 40.5448 19.3925C40.5448 19.3143 40.5066 19.2473 40.4503 19.2015C40.4073 19.1664 40.3546 19.1425 40.2948 19.1425C40.1567 19.1425 40.0448 19.2544 40.0448 19.3925C40.0448 19.4425 40.0633 19.4864 40.0886 19.5255L39.9938 19.715C39.8284 19.633 39.6024 19.5626 39.3322 19.5086L39.3647 19.3784C39.4681 19.3478 39.5449 19.2558 39.5449 19.1426C39.5449 19.0045 39.433 18.8926 39.2949 18.8926C39.1568 18.8926 39.0449 19.0045 39.0449 19.1426C39.0449 19.2131 39.0745 19.2761 39.1214 19.3216L39.0853 19.4657C38.844 19.4297 38.5776 19.4057 38.2948 19.3968V19.1703C38.371 19.1017 38.4198 19.0033 38.4198 18.8926C38.4198 18.6854 38.252 18.5176 38.0448 18.5176C37.8377 18.5176 37.6698 18.6854 37.6698 18.8926C37.6698 19.0032 37.7187 19.1017 37.7948 19.1703V19.3968C37.5121 19.4058 37.2456 19.4298 37.0044 19.4657L36.9683 19.3216C37.0151 19.2761 37.0447 19.2131 37.0447 19.1426C37.0447 19.0045 36.9328 18.8926 36.7947 18.8926C36.6566 18.8926 36.5447 19.0045 36.5447 19.1426C36.5447 19.2559 36.6216 19.3478 36.7249 19.3784L36.7574 19.5086C36.4872 19.5626 36.2611 19.6332 36.0958 19.715L36.0011 19.5255C36.0264 19.4863 36.0448 19.4425 36.0448 19.3925C36.0448 19.2544 35.9329 19.1425 35.7948 19.1425C35.7351 19.1425 35.6823 19.1664 35.6394 19.2015C35.5831 19.2473 35.5449 19.3143 35.5449 19.3925Z" fill="#E6B432"/>
<path d="M38.0449 21.3945C39.0114 21.3945 39.7949 21.1707 39.7949 20.8945C39.7949 20.6184 39.0114 20.3945 38.0449 20.3945C37.0784 20.3945 36.2949 20.6184 36.2949 20.8945C36.2949 21.1707 37.0784 21.3945 38.0449 21.3945Z" fill="#EBEBEB"/>
<path d="M40.4858 16.6326L40.0457 15.6423C40.0457 15.5798 39.9978 15.5203 39.9139 15.4651L40.2692 14.7542C40.331 14.6307 40.281 14.4805 40.1574 14.4188C40.0336 14.3575 39.8837 14.4074 39.822 14.5306L39.6289 14.9168L39.4446 15.2854C39.3386 15.2594 39.2203 15.2367 39.0934 15.217L39.1155 15.1283C39.2188 15.0976 39.2957 15.0056 39.2957 14.8924C39.2957 14.7543 39.1838 14.6424 39.0457 14.6424C38.9076 14.6424 38.7957 14.7543 38.7957 14.8924C38.7957 14.9629 38.8253 15.0259 38.8722 15.0714L38.8439 15.1841C38.5993 15.1574 38.3296 15.1424 38.0457 15.1424C37.7617 15.1424 37.492 15.1574 37.2475 15.1841L37.2192 15.0714C37.2661 15.0259 37.2957 14.9629 37.2957 14.8924C37.2957 14.7543 37.1838 14.6424 37.0457 14.6424C36.9076 14.6424 36.7957 14.7543 36.7957 14.8924C36.7957 15.0057 36.8726 15.0976 36.9759 15.1283L36.998 15.217C36.871 15.2367 36.7528 15.2594 36.6467 15.2854L36.4624 14.9168L36.2693 14.5306C36.2075 14.4074 36.0578 14.3576 35.9339 14.4188C35.8103 14.4805 35.7603 14.6307 35.8221 14.7542L36.1774 15.4651C36.0937 15.5203 36.0456 15.5798 36.0456 15.6423L35.6055 16.6326C35.8523 16.3523 36.8502 16.1423 38.0456 16.1423C39.2411 16.1423 40.239 16.3522 40.4858 16.6326Z" fill="#E6B432"/>
<path d="M38.0459 15.1426C38.253 15.1426 38.4209 14.9747 38.4209 14.7676C38.4209 14.5605 38.253 14.3926 38.0459 14.3926C37.8388 14.3926 37.6709 14.5605 37.6709 14.7676C37.6709 14.9747 37.8388 15.1426 38.0459 15.1426Z" fill="#E6B432"/>
</g>
<defs>
<clipPath id="clip0_3462_28693">
<rect width="50" height="50" fill="white" transform="translate(0.441406 0.324219)"/>
</clipPath>
</defs>
</svg>
