<svg width="51" height="51" viewBox="0 0 51 51" fill="none" xmlns="http://www.w3.org/2000/svg">
<g clip-path="url(#clip0_3462_28678)">
<path d="M50.8681 19.8649H0.868164V9.80742C0.868164 9.33135 1.2542 8.94531 1.73027 8.94531H50.0061C50.4821 8.94531 50.8682 9.33135 50.8682 9.80742L50.8681 19.8649Z" fill="#FFE15A"/>
<path d="M50.006 41.7027H1.73027C1.2542 41.7027 0.868164 41.3167 0.868164 40.8406V30.7832H50.8681V40.8406C50.8681 41.3168 50.482 41.7027 50.006 41.7027Z" fill="#FF4B55"/>
<path d="M50.8681 19.8652H0.868164V30.7842H50.8681V19.8652Z" fill="#41479B"/>
<path d="M18.2664 27.4222L18.4824 28.07L19.1651 28.0752C19.2535 28.0759 19.2902 28.1887 19.2192 28.2413L18.6699 28.6468L18.8759 29.2979C18.9026 29.3822 18.8066 29.4519 18.7346 29.4004L18.1791 29.0034L17.6236 29.4004C17.5518 29.4518 17.4558 29.3821 17.4823 29.2979L17.6883 28.6468L17.1391 28.2413C17.068 28.1888 17.1046 28.0759 17.1931 28.0752L17.8758 28.07L18.0918 27.4222C18.1198 27.3384 18.2385 27.3384 18.2664 27.4222Z" fill="#F5F5F5"/>
<path d="M19.5929 25.3599L19.4771 26.0328L20.0764 26.3602C20.1539 26.4026 20.1329 26.5193 20.0454 26.5319L19.3696 26.6298L19.2435 27.3008C19.2271 27.3876 19.1097 27.4038 19.0705 27.3245L18.7687 26.712L18.0914 26.7994C18.0037 26.8108 17.9521 26.7039 18.0154 26.6422L18.5047 26.1658L18.2123 25.5488C18.1745 25.469 18.2601 25.3868 18.3383 25.428L18.9425 25.7461L19.4391 25.2774C19.5033 25.2167 19.6078 25.2728 19.5929 25.3599Z" fill="#F5F5F5"/>
<path d="M21.2716 23.5553L20.9511 24.1583L21.4178 24.6566C21.4783 24.7211 21.4218 24.8254 21.3347 24.81L20.6622 24.6916L20.3324 25.2895C20.2897 25.3668 20.173 25.3455 20.1607 25.258L20.0656 24.5818L19.395 24.4529C19.3082 24.4362 19.2925 24.3186 19.372 24.2798L19.9857 23.9804L19.901 23.3029C19.89 23.2152 19.997 23.164 20.0585 23.2276L20.5329 23.7186L21.151 23.4288C21.2313 23.3913 21.3131 23.4772 21.2716 23.5553Z" fill="#F5F5F5"/>
<path d="M23.2914 22.4353L22.8203 22.9296L23.1356 23.5353C23.1764 23.6137 23.0939 23.6989 23.0141 23.6607L22.3985 23.3653L21.9196 23.8522C21.8577 23.9153 21.7511 23.863 21.7628 23.7754L21.8534 23.0986L21.2424 22.7937C21.1633 22.7542 21.1799 22.6367 21.2668 22.6208L21.9385 22.4979L22.0396 21.8226C22.0527 21.7352 22.1695 21.7147 22.2115 21.7925L22.536 22.3933L23.2095 22.2808C23.2969 22.2664 23.3524 22.3713 23.2914 22.4353Z" fill="#F5F5F5"/>
<path d="M25.6133 21.9173L25.027 22.2673L25.1684 22.9353C25.1868 23.0218 25.0843 23.0818 25.0178 23.0236L24.5039 22.5742L23.9122 22.9151C23.8355 22.9592 23.7468 22.8805 23.7817 22.7991L24.0503 22.1713L23.5433 21.714C23.4777 21.6548 23.5252 21.5461 23.6132 21.5541L24.2933 21.6155L24.5716 20.992C24.6077 20.9113 24.7257 20.9229 24.7454 21.009L24.8971 21.6747L25.5761 21.7467C25.6637 21.7562 25.6893 21.872 25.6133 21.9173Z" fill="#F5F5F5"/>
<path d="M33.4736 27.4222L33.2576 28.07L32.5749 28.0752C32.4865 28.0759 32.4498 28.1887 32.5209 28.2413L33.0701 28.6468L32.8641 29.2979C32.8375 29.3822 32.9335 29.4519 33.0055 29.4004L33.5609 29.0034L34.1164 29.4004C34.1883 29.4518 34.2843 29.3821 34.2577 29.2979L34.0517 28.6468L34.601 28.2413C34.672 28.1888 34.6354 28.0759 34.547 28.0752L33.8642 28.07L33.6482 27.4222C33.6202 27.3384 33.5015 27.3384 33.4736 27.4222Z" fill="#F5F5F5"/>
<path d="M32.1467 25.3599L32.2624 26.0328L31.6632 26.3602C31.5856 26.4026 31.6066 26.5193 31.6941 26.5319L32.3699 26.6298L32.4961 27.3008C32.5125 27.3876 32.63 27.4038 32.669 27.3245L32.9709 26.712L33.6481 26.7994C33.7358 26.8108 33.7875 26.7039 33.7241 26.6422L33.2348 26.1658L33.5272 25.5488C33.565 25.469 33.4795 25.3868 33.4012 25.428L32.797 25.7461L32.3005 25.2774C32.2362 25.2167 32.1317 25.2728 32.1467 25.3599Z" fill="#F5F5F5"/>
<path d="M30.4683 23.5553L30.7888 24.1583L30.3221 24.6566C30.2616 24.7211 30.3181 24.8254 30.4052 24.81L31.0777 24.6916L31.4075 25.2895C31.4502 25.3668 31.5669 25.3455 31.5792 25.258L31.6743 24.5818L32.3449 24.4529C32.4317 24.4362 32.4474 24.3186 32.3679 24.2798L31.7542 23.9804L31.8389 23.3029C31.8499 23.2152 31.7429 23.164 31.6814 23.2276L31.207 23.7186L30.5889 23.4288C30.5086 23.3913 30.4269 23.4772 30.4683 23.5553Z" fill="#F5F5F5"/>
<path d="M28.4486 22.4353L28.9197 22.9296L28.6044 23.5353C28.5636 23.6137 28.6461 23.6989 28.7259 23.6607L29.3415 23.3653L29.8203 23.8522C29.8823 23.9153 29.9889 23.863 29.9771 23.7754L29.8864 23.0986L30.4975 22.7937C30.5766 22.7542 30.56 22.6367 30.4731 22.6208L29.8014 22.4979L29.7003 21.8226C29.6872 21.7352 29.5703 21.7147 29.5283 21.7925L29.2039 22.3933L28.5304 22.2808C28.4431 22.2664 28.3876 22.3713 28.4486 22.4353Z" fill="#F5F5F5"/>
<path d="M26.126 21.9173L26.7123 22.2673L26.5709 22.9353C26.5526 23.0218 26.655 23.0818 26.7215 23.0236L27.2355 22.5742L27.8272 22.9151C27.9038 22.9592 27.9925 22.8805 27.9577 22.7991L27.689 22.1713L28.196 21.714C28.2617 21.6548 28.2141 21.5461 28.1261 21.5541L27.446 21.6155L27.1677 20.992C27.1317 20.9113 27.0136 20.9229 26.994 21.009L26.8422 21.6747L26.1632 21.7467C26.0756 21.7562 26.05 21.872 26.126 21.9173Z" fill="#F5F5F5"/>
</g>
<defs>
<clipPath id="clip0_3462_28678">
<rect width="50" height="50" fill="white" transform="translate(0.869141 0.324219)"/>
</clipPath>
</defs>
</svg>
