<svg width="51" height="51" viewBox="0 0 51 51" fill="none" xmlns="http://www.w3.org/2000/svg">
<g clip-path="url(#clip0_3462_28675)">
<path d="M49.3009 41.7039H1.02519C0.54912 41.7039 0.163086 41.3179 0.163086 40.8418V9.80742C0.163086 9.33135 0.54912 8.94531 1.02519 8.94531H49.301C49.7771 8.94531 50.1631 9.33135 50.1631 9.80742V40.8418C50.163 41.318 49.777 41.7039 49.3009 41.7039Z" fill="#FF4B55"/>
<path d="M25.565 15.5555L27.8706 22.4686L35.1578 22.525C35.5652 22.5282 35.7341 23.0482 35.4064 23.2903L29.5442 27.6193L31.7424 34.5672C31.8653 34.9557 31.4229 35.2772 31.0914 35.0402L25.1628 30.8026L19.2341 35.0402C18.9026 35.2771 18.4603 34.9557 18.5831 34.5672L20.7812 27.6193L14.9191 23.2903C14.5912 23.0483 14.7603 22.5282 15.1677 22.525L22.4549 22.4686L24.7604 15.5555C24.8894 15.169 25.4361 15.169 25.565 15.5555Z" fill="#FFE15A"/>
</g>
<defs>
<clipPath id="clip0_3462_28675">
<rect width="50" height="50" fill="white" transform="translate(0.162109 0.324219)"/>
</clipPath>
</defs>
</svg>
