<svg width="51" height="51" viewBox="0 0 51 51" fill="none" xmlns="http://www.w3.org/2000/svg">
<g clip-path="url(#clip0_3462_28650)">
<path d="M49.7276 41.7038H1.45195C0.975878 41.7038 0.589844 41.3178 0.589844 40.8417V9.80742C0.589844 9.33135 0.975878 8.94531 1.45195 8.94531H49.7277C50.2038 8.94531 50.5898 9.33135 50.5898 9.80742V40.8417C50.5897 41.3179 50.2037 41.7038 49.7276 41.7038Z" fill="#F5F5F5"/>
<path d="M39.56 28.6445L39.8747 29.7482L40.9681 26.4986L37.9352 28.0977L39.0752 28.2318L35.4351 32.5089L35.4036 32.4182L38.3108 26.3984L38.8938 27.3872L39.1317 23.9668L36.6007 26.2796L37.7375 26.1216L34.8303 32.1414L34.7395 32.1729L35.8265 26.6628L36.6401 27.4723L36.0068 24.1026L34.1416 26.9795L35.2018 26.5395L34.0299 32.4809L33.6474 33.2732L33.2352 33.5496L33.0655 34.4092L31.624 36.103L32.7494 36.0124L32.5452 37.0475L32.9433 36.7807L32.9817 37.2583L33.6655 36.4549L34.2942 37.3925L34.7246 35.2103L35.2925 34.5431L35.2526 34.0484L35.6352 33.2562L39.56 28.6445Z" fill="#4173CD"/>
<path d="M13.375 25.4158C13.4986 24.86 13.422 24.3392 13.2102 24.0186C12.8824 24.2193 12.5924 24.6585 12.4687 25.2143C12.4115 25.4718 12.4013 25.7194 12.4235 25.9454L11.743 24.9307C12.0201 24.7047 12.2587 24.3178 12.367 23.831C12.4906 23.2751 12.414 22.7543 12.2022 22.4337C11.8744 22.6345 11.5844 23.0736 11.4607 23.6295C11.3949 23.9255 11.3893 24.2088 11.4272 24.4601L10.9671 23.774C10.9901 23.4257 10.8831 23.002 10.6264 22.5981C10.3208 22.1177 9.89834 21.8036 9.52187 21.7266C9.43213 22.1003 9.5375 22.616 9.84307 23.0964C10.1027 23.5047 10.4458 23.7826 10.7744 23.9072L11.1961 24.6072C10.9846 24.4663 10.7256 24.3513 10.4295 24.2854C9.87363 24.1618 9.35283 24.2385 9.03223 24.4502C9.23301 24.7779 9.67217 25.0681 10.228 25.1917C10.7148 25.3 11.1665 25.2479 11.4887 25.0927L12.1192 26.1393C11.9238 26.0234 11.6953 25.9277 11.4378 25.8704C10.8819 25.7468 10.3611 25.8234 10.0405 26.0351C10.2413 26.3629 10.6805 26.653 11.2363 26.7767C11.7022 26.8804 12.1361 26.837 12.4556 26.6975L13.0361 27.6611C12.8566 27.5642 12.6568 27.4811 12.4305 27.4308C11.8746 27.3072 11.3538 27.3839 11.0332 27.5956C11.234 27.9233 11.6731 28.2135 12.229 28.3371C12.6745 28.4361 13.0921 28.4022 13.4075 28.2775L13.9675 29.2069C13.8066 29.1282 13.6334 29.0592 13.4387 29.0159C12.8828 28.8923 12.362 28.9689 12.0414 29.1806C12.2422 29.5084 12.6813 29.7985 13.2372 29.9222C13.6618 30.0166 14.0642 29.9928 14.3744 29.8824L14.8845 30.7289C14.7441 30.667 14.595 30.6129 14.4314 30.5764C13.8756 30.4528 13.3548 30.5295 13.0342 30.7412C13.235 31.0689 13.6741 31.3591 14.23 31.4827C14.635 31.5727 15.0192 31.5543 15.323 31.4568L16.943 34.1456L17.6309 33.7079L15.8822 31.101C16.0992 30.8669 16.2789 30.5268 16.3689 30.1219C16.4926 29.566 16.4159 29.0452 16.2042 28.7246C15.8764 28.9254 15.5863 29.3645 15.4627 29.9203C15.4263 30.0839 15.4121 30.2419 15.4087 30.3951L14.8583 29.5745C15.0896 29.3403 15.2819 28.9859 15.3763 28.5613C15.4999 28.0055 15.4232 27.4847 15.2115 27.1641C14.8837 27.3648 14.5936 27.804 14.47 28.3598C14.4267 28.5546 14.4159 28.7407 14.4189 28.9196L13.8146 28.0186C14.0613 27.7856 14.269 27.4219 14.3682 26.9766C14.4918 26.4207 14.4151 25.8999 14.2034 25.5793C13.8756 25.7801 13.5855 26.2192 13.4619 26.7751C13.4116 27.0014 13.4021 27.2176 13.4138 27.4211L12.787 26.4868C13.0483 26.2562 13.2714 25.8816 13.375 25.4158Z" fill="#73AF00"/>
<path d="M20.417 25.3244L19.5549 20.152H19.4215C18.6389 20.152 18.0862 19.3853 18.3338 18.6428L18.3366 18.6345C18.5344 18.0412 18.2202 17.3989 17.6304 17.1908L5.79384 13.0133C5.12295 12.7765 4.49101 13.4512 4.77129 14.1052L6.05488 17.1002C6.42421 17.9618 7.06425 18.6796 7.87812 19.1447L11.1616 21.021C12.1425 21.5814 13.2525 21.8762 14.3822 21.8762H14.3824L14.6769 22.4652C15.5532 24.2174 17.3442 25.3244 19.3034 25.3244H20.417Z" fill="#FFE15A"/>
<path d="M30.7607 25.3249L31.6229 20.1526H31.7562C32.5388 20.1526 33.0915 19.3859 32.8439 18.6434L32.8411 18.6351C32.6434 18.0417 32.9575 17.3994 33.5473 17.1913L45.3791 13.0154C46.0518 12.7779 46.6854 13.4545 46.4044 14.1103L45.1228 17.1006C44.7535 17.9622 44.1135 18.68 43.2996 19.1451L40.0161 21.0214C39.0352 21.5818 37.9252 21.8767 36.7955 21.8767H36.7952L36.5007 22.4656C35.6245 24.218 33.8336 25.3249 31.8744 25.3249H30.7607Z" fill="#FFE15A"/>
<path d="M29.0373 19.2903L26.8989 14.3008C26.6272 13.6668 26.0039 13.2559 25.3143 13.2559H24.7269L23.8648 14.118H23.0027L22.1406 14.9801H23.3437C23.6486 14.9801 23.8543 15.2919 23.7342 15.5724L22.1406 19.2904H29.0373V19.2903V19.2903Z" fill="#FFE15A"/>
<path d="M23.0029 27.9104L21.2788 25.3242L19.6999 26.9031C19.0375 27.5655 18.5384 28.3731 18.2422 29.2618L17.8305 30.4966L16.9684 31.3587H15.8479C15.478 31.3587 15.1397 31.5678 14.9743 31.8985L14.7312 32.3848C14.5709 32.7055 14.8041 33.0827 15.1626 33.0827H16.9684L17.5432 31.9333L20.2916 30.5591C20.3745 30.5176 20.4501 30.4631 20.5156 30.3976L23.0029 27.9104Z" fill="#FFE15A"/>
<path d="M28.1748 27.9104L29.8989 25.3242L31.4778 26.9031C32.1402 27.5655 32.6393 28.3731 32.9355 29.2618L33.3472 30.4966L34.2093 31.3587H35.3298C35.6997 31.3587 36.038 31.5678 36.2034 31.8985L36.4465 32.3848C36.6068 32.7055 36.3736 33.0827 36.0151 33.0827H34.2093L33.6346 31.9333L30.8862 30.5591C30.8033 30.5176 30.7277 30.4631 30.6622 30.3976L28.1748 27.9104Z" fill="#FFE15A"/>
<path d="M23.002 28.7734L20.9069 32.2652C20.6243 32.7363 20.727 33.3432 21.149 33.6947L24.3306 36.346C25.059 36.9531 26.1172 36.9531 26.8456 36.346L30.0271 33.6947C30.4492 33.343 30.5519 32.7362 30.2692 32.2652L28.1743 28.7734H23.002V28.7734Z" fill="#FFE15A"/>
<path d="M25.5891 18.4277C25.5891 18.4277 23.0029 19.2898 19.5547 18.4277C19.5547 18.4277 19.5547 20.1519 19.5547 21.876C19.5547 23.6001 20.4168 28.7725 25.5891 30.4967C30.7615 28.7725 31.6236 23.6001 31.6236 21.876C31.6236 20.1519 31.6236 18.4277 31.6236 18.4277C28.1754 19.2898 25.5891 18.4277 25.5891 18.4277Z" fill="#F5F5F5"/>
<path d="M25.5891 18.4277C25.5891 18.4277 23.0029 19.2898 19.5547 18.4277C19.5547 18.4277 19.5547 20.1519 19.5547 21.876H31.6236C31.6236 20.1519 31.6236 18.4277 31.6236 18.4277C28.1754 19.2898 25.5891 18.4277 25.5891 18.4277Z" fill="#41479B"/>
<path d="M21.3574 27.3919V21.877H20.417V25.7143C20.6613 26.2756 20.9683 26.8439 21.3574 27.3919Z" fill="#FF4B55"/>
<path d="M23.2383 21.877H22.2979V28.4939C22.5826 28.7761 22.8939 29.0446 23.2383 29.2946V21.877Z" fill="#FF4B55"/>
<path d="M29.8213 27.3919C30.2104 26.8438 30.5174 26.2755 30.7617 25.7142V21.877H29.8213V27.3919Z" fill="#FF4B55"/>
<path d="M25.1191 21.877H24.1787V29.8781C24.4732 30.0369 24.7871 30.1813 25.1191 30.3126V21.877Z" fill="#FF4B55"/>
<path d="M28.8809 21.877H27.9404V29.2947C28.2848 29.0447 28.596 28.7762 28.8809 28.494V21.877Z" fill="#FF4B55"/>
<path d="M27 29.8781V21.877H26.0596V30.3126C26.3916 30.1813 26.7055 30.0369 27 29.8781Z" fill="#FF4B55"/>
<path d="M16.5252 32.0605L15.9131 32.4372L16.9416 34.1445L17.6296 33.7069L16.5252 32.0605Z" fill="#73AF00"/>
<path d="M35.6132 33.3043L35.0724 32.2227H34.0813L34.03 32.4835L33.6474 33.2758L33.2352 33.5521L33.0655 34.4117L31.624 36.1056L32.7494 36.0149L32.5452 37.0501L32.9433 36.7833L32.9817 37.2608L33.6655 36.4574L34.2942 37.395L34.7246 35.2129L35.2925 34.5457L35.2526 34.051L35.6132 33.3043Z" fill="#4173CD"/>
<path d="M8.84071 21.877H6.62392L6.82284 22.4738L5.51552 27.0493L4.2082 22.4738L4.40722 21.877H2.19043L2.7873 22.6728L4.60615 29.0388L4.40722 29.6355H6.62392L6.42499 29.0388L8.24384 22.6728L8.84071 21.877Z" fill="#4173CD"/>
<path d="M46.4019 22.4312L46.7715 21.877H46.4019H44.9242H44.5547L44.9242 22.4312V29.0814L44.5547 29.6355H44.9242H46.4019H46.7715L46.4019 29.0814V22.4312Z" fill="#4173CD"/>
</g>
<defs>
<clipPath id="clip0_3462_28650">
<rect width="50" height="50" fill="white" transform="translate(0.589844 0.324219)"/>
</clipPath>
</defs>
</svg>
