<svg width="51" height="51" viewBox="0 0 51 51" fill="none" xmlns="http://www.w3.org/2000/svg">
<g clip-path="url(#clip0_3462_28640)">
<path d="M50.8837 25.3247H0.883789V9.80742C0.883789 9.33135 1.26982 8.94531 1.7459 8.94531H50.0217C50.4978 8.94531 50.8838 9.33135 50.8838 9.80742L50.8837 25.3247Z" fill="#F5F5F5"/>
<path d="M0.883789 25.3242H50.8837V40.8415C50.8837 41.3176 50.4977 41.7036 50.0216 41.7036H1.7459C1.26982 41.7036 0.883789 41.3176 0.883789 40.8415V25.3242Z" fill="#73AF00"/>
<path d="M38.9215 18.5315C38.9215 18.5315 39.5174 20.166 39.5685 20.2512L39.6365 20.1149L40.0451 17.9867L41.1007 16.0117L40.7942 16.0458L38.3936 17.2035C38.3936 17.2035 36.9634 18.7699 36.9464 18.821C36.9294 18.8721 38.9215 18.5315 38.9215 18.5315Z" fill="#FF4B55"/>
<path d="M39.7658 34.1606C39.6864 34.1492 38.5058 34.206 38.5058 34.206L38.12 32.9121L37.8987 30.4661L38.3158 30.3554L38.8351 30.6023L39.0224 29.6233C39.0224 29.6233 38.5712 29.1296 38.4861 29.0955C38.4009 29.0614 37.3794 28.8316 37.3794 28.8316L36.0088 27.0184L37.6433 26.1076L38.9203 24.3539L39.2267 22.7705L38.9713 21.4595L38.3906 20.4872C38.382 20.4595 38.3753 20.438 38.3753 20.438C38.3712 20.4328 38.3569 20.423 38.3478 20.4154L38.2392 20.2336L38.2375 20.3396C37.9856 20.1823 37.4701 19.9087 37.3368 19.842C37.1666 19.7568 36.2641 19.6036 36.0768 19.7398C35.8895 19.8761 35.0212 20.2847 34.868 20.5741C34.7148 20.8636 34.6127 21.9021 34.6127 21.9021C34.6127 21.9021 34.868 22.481 35.1916 22.6172C35.5151 22.7534 36.145 22.9066 36.2471 22.8725C36.3353 22.8431 37.3347 22.5478 37.6074 22.4236L37.7284 22.6682L37.6773 23.3663L37.1155 23.7579L36.0769 24.1665C36.0769 24.1665 34.4935 23.7238 34.4254 23.7408C34.3574 23.7578 32.3994 23.1619 32.3994 23.1619L30.5606 22.7362L31.1735 22.4298L32.8421 22.3106C32.8421 22.3106 33.1656 20.4208 33.2167 20.3867C33.2677 20.3526 34.3574 19.4844 34.3574 19.4844L35.2597 19.2631L34.7149 16.9531L35.5322 14.4333L33.3982 15.0462L30.0158 15.8861L27.8592 15.7499L25.9523 16.3628L24.7264 17.4752L24.0226 18.4286L23.7729 19.9496L23.6139 21.9701L23.0237 23.0825L22.355 23.6067C22.28 23.4088 21.9285 22.6513 21.9285 22.6513L22.7798 22.447L22.5585 21.8851L21.9626 21.4425L22.1499 20.7614L22.8309 21.136L23.0182 21.2723L23.1374 20.5742L22.3883 19.5186L22.5074 18.9908L23.4097 19.4676L23.3076 18.2417L22.5074 17.7479L22.5585 17.0669L23.4325 17.3279L23.3417 16.681L22.3883 15.9885L23.3189 14.4902L22.1839 14.5471L22.093 14.0589L21.798 13.9453C21.798 13.9453 20.2202 14.615 20.1067 14.5923C19.9932 14.5696 18.7334 14.3994 18.5857 14.4335C18.4382 14.4676 17.916 14.6037 17.916 14.6037L17.7683 15.1826L16.8036 15.0238L15.3734 14.9047L14.9421 15.4325L15.6231 15.705C15.6231 15.705 15.4643 16.9081 15.5097 16.9989C15.5551 17.0896 15.9637 17.68 15.9637 17.68L15.033 18.9512L15.9864 19.0874L17.3031 18.8831L17.2576 19.201L19.0057 19.0193L18.6196 19.2236L18.1203 20.7219L16.6674 23.673L16.1566 26.295L15.3393 25.4437L14.7945 23.1963L13.9772 20.9829C13.9772 20.9829 13.807 20.3018 13.7048 20.2849C13.6026 20.2679 13.16 20.1827 13.16 20.1827L12.5981 20.6424L11.8831 20.5402L11.4745 21.102L11.9342 21.8171C11.9342 21.8171 11.168 22.1235 11.168 22.2087C11.168 22.2938 11.219 22.7876 11.2701 22.8046C11.3212 22.8216 12.4789 22.7876 12.4789 22.7876L13.1769 24.0305L12.6321 25.4606L12.9046 26.0054L13.3813 26.0735L13.824 25.5628L15.3563 30.1427C15.3563 30.1427 15.2372 30.7386 15.152 30.7897C15.0669 30.8408 14.6583 31.3005 14.7604 31.3005C14.8626 31.3005 15.4926 31.3856 15.5606 31.3515C15.6287 31.3175 16.5141 30.6365 16.5141 30.6365C16.5141 30.6365 17.9101 29.5638 17.9953 29.649C18.0805 29.7342 19.4085 30.5513 19.4085 30.5513L18.7956 32.6626L17.3484 34.7738L16.4461 34.229L15.7991 33.3095L15.3224 33.4628L15.1521 33.7522L15.2202 34.3651C15.2202 34.3651 14.7265 34.7567 14.7265 34.8419C14.7265 34.927 14.7775 35.5399 14.7775 35.5399C14.7775 35.5399 15.1011 35.6931 15.1181 35.7783C15.1351 35.8634 15.3054 36.4763 15.3054 36.4763L15.6459 36.5955L16.2929 36.2039H17.3655L18.0295 36.306L19.4427 35.8633L21.5028 35.9655L21.3155 35.5739C21.3155 35.5739 20.4812 35.1482 20.1918 35.0631C19.9023 34.978 19.6129 34.9099 19.6129 34.9099L19.4937 34.314L21.5198 31.9133L22.2689 31.7601L22.5243 32.3901C22.5243 32.3901 23.3642 32.1858 23.3642 32.1176C23.3642 32.0496 23.3642 31.323 23.3642 31.2549C23.3642 31.1869 23.1826 30.6194 23.1826 30.6194C23.1826 30.6194 23.1802 30.5985 23.1765 30.5674L23.8182 30.4604L26.0429 29.3935L26.8261 30.3356L27.8023 30.8009L26.5878 32.9802L25.5435 33.684L24.7944 33.3435L23.7501 32.5716L23.3415 32.8215L23.4323 33.5933L22.8194 33.5479L22.547 34.0927L23.001 34.751L22.842 35.2732C22.842 35.2732 22.9555 35.75 23.069 35.75C23.1825 35.75 23.8636 35.5002 23.8636 35.5002L25.8613 35.3414L27.3142 34.8646L28.8352 34.9782C28.8352 34.9782 29.1303 33.9566 29.0623 33.9566C28.9942 33.9566 28.9715 33.9339 28.7898 33.9339C28.6082 33.9339 27.9725 33.9566 27.9725 33.9566L27.9497 33.7293L28.4491 32.8212L30.3787 31.2093L30.9463 31.3229L31.1506 31.6179L31.7181 31.1867L31.6954 30.4602L31.1961 29.9382L30.6965 29.3478L30.8555 28.4625L31.7181 28.8711C31.7181 28.8711 33.0802 29.8245 33.1936 29.87C33.3072 29.9154 35.9405 30.5964 35.9405 30.5964L36.4853 31.8903L36.2128 33.9334L35.3729 33.6837L34.5784 32.6621C34.5784 32.6621 34.3513 32.5485 34.2379 32.5713C34.1244 32.594 33.852 33.048 33.852 33.048L34.1245 33.6837L33.7612 33.7971L33.4207 34.0242L33.3526 34.5009L33.6704 34.796C33.6704 34.796 33.6704 35.3408 33.6704 35.4088C33.6704 35.4769 33.852 35.7267 33.9202 35.7494C33.9882 35.772 34.5104 35.8401 34.6352 35.8289C34.76 35.8174 35.6908 35.4316 35.6908 35.4316C35.6908 35.4316 37.4387 35.4657 37.4842 35.4544C37.5297 35.4429 39.0393 35.1138 39.0393 35.1138L39.8906 35.2501C39.8906 35.2501 40.4582 34.8187 40.4354 34.7619C40.4127 34.7054 39.8452 34.1719 39.7658 34.1606ZM36.5024 21.8679C36.0427 21.9189 35.8044 22.0552 35.7703 21.7998C35.7362 21.5444 35.7362 21.0336 35.7873 21.0166C35.8383 20.9996 36.3662 20.6931 36.3832 20.7441C36.4002 20.7952 36.928 21.0506 36.928 21.0506L37.2495 21.7003C37.0798 21.7904 36.8182 21.8327 36.5024 21.8679Z" fill="#FF4B55"/>
<path d="M13.2967 17.6959C13.2967 17.6959 13.484 16.7254 13.5351 16.7254C13.5861 16.7254 14.2842 16.47 14.2842 16.47L12.207 15.125C12.207 15.125 12.5646 16.7765 12.5986 16.9127C12.6326 17.0488 13.2967 17.6959 13.2967 17.6959Z" fill="#FF4B55"/>
<path d="M18.5786 15.6984C18.5858 15.7001 18.6272 15.7093 18.6905 15.7218L18.6749 15.7898C18.6493 15.8994 18.7179 16.0095 18.8281 16.0345C18.8435 16.0384 18.8589 16.0398 18.8741 16.0398C18.967 16.0398 19.0512 15.976 19.0728 15.8813L19.0947 15.7862C19.2419 15.8044 19.4039 15.8185 19.5604 15.8185C19.6926 15.8185 19.8204 15.809 19.9302 15.7834C20.0401 15.7578 20.1087 15.6482 20.0833 15.5387C20.0577 15.4285 19.9489 15.3583 19.8382 15.3854C19.515 15.4615 18.8848 15.3492 18.6698 15.3003C18.5621 15.2747 18.4506 15.3433 18.4251 15.4535C18.4001 15.5637 18.4687 15.6734 18.5786 15.6984Z" fill="#464655"/>
<path d="M38.806 18.9976L39.3208 20.5697C39.3486 20.6538 39.427 20.7102 39.515 20.7102C39.5179 20.7102 39.5208 20.7102 39.5241 20.7102C39.6156 20.7059 39.6932 20.6416 39.714 20.5522C40.0908 18.938 40.8446 16.3846 41.3775 15.9675C41.4517 15.9095 41.4764 15.809 41.4378 15.7227C41.3996 15.6376 41.3083 15.5887 41.2147 15.6058C41.1056 15.626 38.5211 16.1294 36.723 18.8264C36.677 18.8955 36.6772 18.9854 36.7236 19.0541C36.7702 19.1227 36.8531 19.1547 36.9346 19.1397L38.4319 18.8302C38.2222 19.3356 38.0885 19.7804 38.0422 19.9437C37.3604 19.5288 36.5915 19.455 36.0582 19.5931C35.4495 19.7526 34.9379 20.1406 34.6543 20.6577C34.4369 21.054 34.3794 21.4892 34.4965 21.8516C34.6326 22.2725 34.9954 22.7961 35.6065 23.0019C36.0114 23.1394 36.6656 23.1699 37.5281 22.6361C37.5281 22.6402 37.5288 22.644 37.5287 22.648C37.5228 22.9886 37.3481 23.2662 37.0086 23.4743C36.3339 23.8877 35.151 23.9153 34.3723 23.5345C33.3455 23.0332 31.8016 22.7478 30.9391 22.6184C31.4739 22.4479 32.1205 22.3999 32.8974 22.5779C32.908 22.5806 32.9182 22.5764 32.9288 22.5772C32.9339 22.5776 32.9379 22.5833 32.9432 22.5833C32.9489 22.5833 32.9533 22.5772 32.9589 22.5768C33.0059 22.573 33.0514 22.5588 33.0859 22.5254C33.0865 22.5248 33.0866 22.5241 33.087 22.5235C33.0872 22.5233 33.0876 22.5234 33.0876 22.5234C33.0885 22.5224 33.0882 22.5211 33.0889 22.5203C33.1219 22.486 33.1365 22.442 33.1406 22.3959C33.1416 22.3848 33.1428 22.3763 33.142 22.3654C33.1414 22.3561 33.1453 22.3473 33.1433 22.3382C33.141 22.3264 32.9145 21.1666 33.5378 20.3674C33.9125 19.8869 34.5252 19.6246 35.3588 19.5869C35.372 19.5862 35.3829 19.5788 35.3954 19.5757C35.4134 19.5714 35.4314 19.5687 35.4477 19.5598C35.4626 19.5515 35.473 19.5386 35.4854 19.5267C35.4958 19.5171 35.5085 19.5112 35.5169 19.499C35.5188 19.4966 35.5189 19.4934 35.5205 19.4907C35.5218 19.4885 35.5246 19.4875 35.5259 19.4851C35.5296 19.4788 35.5289 19.4714 35.5318 19.4647C35.541 19.4443 35.5474 19.4238 35.5496 19.4022C35.5506 19.3919 35.5506 19.3824 35.55 19.3721C35.5488 19.349 35.5435 19.3273 35.5347 19.306C35.5326 19.3007 35.5336 19.2946 35.5309 19.2894C35.5144 19.257 33.9113 16.0513 36.5232 13.9107C36.6082 13.841 36.6226 13.7166 36.5565 13.6293C36.49 13.5426 36.3668 13.5224 36.2763 13.5856C33.6974 15.3962 30.1332 15.5915 28.7205 15.5915C26.2009 15.5915 24.609 16.5402 23.8535 18.4913C23.7751 18.6941 23.7194 18.9345 23.6728 19.1919C23.698 18.8308 23.632 18.5144 23.4691 18.2498C23.2366 17.8725 22.8809 17.7144 22.7211 17.6596C22.7212 17.567 22.7204 17.4753 22.7178 17.3853C22.9937 17.3429 23.3213 17.5571 23.4293 17.648C23.4671 17.68 23.5142 17.697 23.5617 17.697C23.593 17.697 23.6248 17.6895 23.6537 17.6747C23.727 17.6374 23.7713 17.5602 23.7654 17.4784C23.6986 16.5283 23.0541 16.0666 22.6119 15.9103C23.0017 15.6006 23.4173 15.0936 23.6719 14.2669C23.6963 14.187 23.67 14.1004 23.6051 14.0482C23.5402 13.9955 23.4497 13.9876 23.3773 14.028C23.3704 14.0319 22.9545 14.2571 22.3293 14.4428L22.3864 13.7003C22.392 13.6253 22.3561 13.5528 22.2923 13.5125C22.2287 13.4716 22.1473 13.4699 22.0821 13.5072C22.0716 13.5131 21.0255 14.1002 19.9586 14.4102C19.1533 14.2077 18.1053 14.0501 17.7079 14.464C17.6121 14.5634 17.5229 14.7252 17.5451 14.9758C16.8596 14.8327 15.2857 14.5985 14.3304 15.2163C14.2551 15.2646 14.2204 15.3567 14.2447 15.443C14.2691 15.5292 14.3469 15.5898 14.4365 15.592C14.7397 15.5994 15.2085 15.6691 15.4041 15.7984C15.3179 16.0309 15.1753 16.5236 15.2998 16.9987C14.8852 17.1188 14.4501 17.1374 13.921 16.8512L14.3822 16.738C14.4649 16.7178 14.5264 16.6481 14.5365 16.5634C14.5463 16.4788 14.5027 16.3969 14.4271 16.358C14.4154 16.3517 13.2523 15.7467 12.2851 14.7299C12.2302 14.6729 12.147 14.6521 12.0706 14.6777C11.995 14.7038 11.9416 14.7714 11.9339 14.8507C11.9256 14.9326 11.7522 16.8655 13.2201 18.0117C13.2568 18.0399 13.3013 18.0548 13.346 18.0548C13.3739 18.0548 13.4019 18.0489 13.4284 18.0372C13.4971 18.0069 13.5438 17.9414 13.5497 17.8664L13.6066 17.1362C14.339 17.5747 14.9453 17.5328 15.4654 17.3747C15.5307 17.4741 15.6136 17.5688 15.7182 17.6557C15.735 17.6696 15.758 17.6848 15.7813 17.7001C15.4471 18.4826 14.7833 18.6844 14.7549 18.6922C14.6722 18.7161 14.6129 18.789 14.6069 18.8747C14.6008 18.9603 14.6487 19.0406 14.7271 19.0758C14.7766 19.0975 15.8458 19.5599 17.0442 19.1332L17.0254 19.2699C17.0174 19.3273 17.0345 19.3858 17.0725 19.4301C17.1102 19.4748 17.1653 19.5009 17.2235 19.5019C17.2286 19.5019 17.2422 19.5025 17.2634 19.5025C17.401 19.5025 17.8574 19.4921 18.3749 19.3732C18.2967 20.1043 17.8513 20.9755 17.3774 21.8947C16.736 23.1399 16.0212 24.5443 16.0326 25.9625C15.7879 25.6457 15.4832 25.1517 15.3325 24.496C15.2804 24.2682 15.2458 24.0639 15.2144 23.8772C15.1381 23.4255 15.0721 23.0349 14.8051 22.6679C14.5031 22.2529 14.0762 21.3264 14.0947 20.8206C14.1123 20.3529 13.8059 20.0778 13.4945 20.0124C13.4721 20.0078 13.4509 20.0136 13.4286 20.0109C13.3549 19.8624 13.1553 19.5779 12.6965 19.5452C12.586 19.5304 12.486 19.6219 12.478 19.7347C12.47 19.847 12.5547 19.9448 12.6672 19.9527C12.8272 19.964 12.9265 20.0252 12.9874 20.0861C12.8375 20.1632 12.7162 20.2917 12.6317 20.4562C12.3582 20.2986 12.0818 20.2592 11.8704 20.3075C11.8156 20.3199 11.7743 20.3495 11.727 20.3719C11.5886 20.2997 11.22 20.1623 10.7759 20.4447C10.6807 20.5049 10.6523 20.6314 10.7131 20.7267C10.7519 20.788 10.8182 20.8215 10.8857 20.8215C10.9231 20.8215 10.961 20.8113 10.9951 20.7895C11.1537 20.6888 11.2892 20.6757 11.3886 20.6884C11.3157 20.8233 11.2744 20.972 11.2814 21.1104C11.2956 21.3855 11.4546 21.5989 11.7004 21.6893C11.4072 21.7452 11.1588 21.8813 11.0261 22.0655C11.0046 22.0954 11.0002 22.1294 10.9848 22.1609C10.7981 22.1803 10.5108 22.3058 10.3293 22.6897C10.281 22.7914 10.3245 22.9133 10.4264 22.9616C10.4548 22.9749 10.4844 22.9813 10.5137 22.9813C10.5903 22.9813 10.6637 22.9383 10.6986 22.8643C10.7796 22.6934 10.8747 22.6258 10.9458 22.5948C11.1398 23.2348 11.7708 23.0891 12.1514 23L12.3038 22.9654C12.5172 22.9228 12.8934 23.5459 12.9944 23.9502C13.0646 24.2311 12.9444 24.5749 12.5655 25.176C12.3354 25.5421 12.4017 25.8071 12.4979 25.965C12.4999 25.9682 12.503 25.97 12.505 25.973C12.4438 25.9914 12.3686 26.0046 12.2668 25.9911C12.1568 25.9688 12.0519 26.0539 12.0367 26.1657C12.0215 26.2774 12.0998 26.3806 12.2115 26.3956C12.2637 26.403 12.3129 26.4062 12.3595 26.4062C12.5971 26.4062 12.7554 26.3251 12.8505 26.2587C12.9834 26.3155 13.1201 26.3369 13.2212 26.3291C13.5028 26.3057 13.6937 26.0589 13.8227 25.7523C14.1985 27.8248 15.0623 29.7492 15.2124 30.0738C15.1821 30.8081 14.3895 30.9804 14.3553 30.988C14.2672 31.006 14.2013 31.0795 14.193 31.1694C14.1847 31.2588 14.2355 31.3429 14.3186 31.3769C14.6634 31.5178 14.965 31.5744 15.227 31.5744C16.0352 31.5744 16.4625 31.0413 16.5971 30.8359C17.1939 30.628 17.8936 30.1413 18.1668 29.9422C18.6223 30.2835 19.0009 30.4726 19.1273 30.5318C18.9073 32.6982 17.6371 34.1616 17.2655 34.5454C17.0139 34.4012 16.4581 34.0453 16.2746 33.6212C16.101 33.2204 15.779 33.1075 15.5164 33.1309C15.4282 33.017 15.2303 32.8045 14.9527 32.774C14.8163 32.7596 14.6093 32.7846 14.3988 32.9953C14.3189 33.0752 14.3189 33.2044 14.3988 33.2841C14.4783 33.364 14.6076 33.3645 14.6877 33.2847C14.8031 33.1693 14.8816 33.1762 14.9072 33.1798C14.9859 33.1882 15.062 33.2452 15.1221 33.3038C14.9731 33.4307 14.8809 33.6084 14.8958 33.8023C14.9063 33.9385 14.9574 34.0667 15.0294 34.1858C14.8806 34.2632 14.7013 34.3903 14.5832 34.5913C14.579 34.5985 14.5741 34.6099 14.5697 34.6179C14.3258 34.6335 13.8867 34.8056 13.8184 35.374C13.8051 35.4863 13.8849 35.5878 13.9969 35.6011C14.0054 35.6022 14.0134 35.6028 14.0217 35.6028C14.1236 35.6028 14.2119 35.5267 14.2244 35.4229C14.2488 35.2194 14.3474 35.1214 14.4398 35.0725C14.4375 35.1563 14.4444 35.2435 14.4745 35.3346C14.5451 35.5491 14.7117 35.723 14.9605 35.8583C14.9343 35.942 14.9171 36.0313 14.9148 36.1279C14.7835 36.1942 14.5897 36.3177 14.4905 36.5281C14.4163 36.6851 14.4117 36.8606 14.4769 37.0362C14.5075 37.1186 14.5854 37.1692 14.6686 37.1692C14.6923 37.1692 14.7164 37.1649 14.7398 37.1565C14.8458 37.1171 14.8994 36.9995 14.8601 36.8937C14.8244 36.7985 14.8428 36.7394 14.8599 36.7032C14.89 36.6388 14.9501 36.5847 15.0113 36.5427C15.0871 36.6788 15.2016 36.7824 15.3547 36.833C15.4246 36.8558 15.4973 36.867 15.5702 36.867C15.8133 36.867 16.0598 36.7441 16.2178 36.5303C16.4069 36.2739 16.7769 36.4208 16.801 36.4309C17.5746 36.7119 18.6198 36.5001 19.2524 36.1447C19.6033 35.9472 20.8396 36.0538 21.5368 36.168C21.5913 36.1754 21.6493 36.1622 21.6943 36.1287C21.739 36.0941 21.7675 36.043 21.7731 35.9867C21.8436 35.2812 20.9308 35.0939 20.1974 34.9433C19.9976 34.9024 19.8075 34.8634 19.6281 34.7869C19.5565 34.373 20.6321 32.8662 21.6569 32.1128C21.9081 31.9282 22.1102 31.8542 22.2115 31.9085C22.3562 31.9878 22.4022 32.357 22.3876 32.5815C22.3872 32.5875 22.3906 32.5925 22.3907 32.5984C22.3909 32.6207 22.3951 32.6421 22.4029 32.6637C22.4062 32.6729 22.4088 32.6814 22.4133 32.6899C22.4161 32.6954 22.4164 32.7013 22.4197 32.7065C22.4314 32.7245 22.4472 32.7377 22.4631 32.7505C22.4662 32.7531 22.4673 32.7573 22.4706 32.7597C22.4714 32.7603 22.4723 32.7601 22.4723 32.7601C22.4988 32.779 22.5279 32.7901 22.5587 32.7952C22.5666 32.7964 22.574 32.7953 22.5819 32.7956C22.6048 32.7967 22.6268 32.7944 22.6493 32.7876C22.6546 32.7861 22.6601 32.7877 22.6653 32.7857C22.6819 32.7793 22.6999 32.7701 22.7168 32.7631C22.8258 32.7073 23.0104 32.7696 23.1396 32.8358C23.1156 32.9103 23.1011 32.988 23.108 33.0724C23.1165 33.1778 23.1493 33.2826 23.2004 33.3832C22.9979 33.3603 22.8086 33.3832 22.6715 33.4885C22.6225 33.526 22.584 33.5733 22.545 33.62C22.2574 33.6484 21.8977 33.8296 21.8123 34.2579C21.7902 34.3685 21.8617 34.4759 21.9724 34.4984C21.986 34.5011 21.9996 34.5022 22.0129 34.5022C22.1081 34.5022 22.1934 34.4352 22.213 34.3377C22.2335 34.2355 22.2858 34.1736 22.3434 34.127C22.3417 34.2016 22.3497 34.2755 22.3718 34.3452C22.4117 34.4715 22.5197 34.66 22.7943 34.7654C22.7696 34.8074 22.7483 34.8521 22.7295 34.8978C22.525 34.9635 22.217 35.1756 22.217 35.6257C22.217 35.7385 22.3085 35.83 22.4213 35.83C22.5341 35.83 22.6256 35.7385 22.6256 35.6257C22.6256 35.5462 22.6453 35.4885 22.6713 35.4408C22.6778 35.4703 22.6826 35.5005 22.6931 35.5283C22.7426 35.6576 22.8913 35.9002 23.3079 35.9002C23.4452 35.9002 23.6111 35.8741 23.8123 35.8086C24.2999 35.6506 24.6455 35.634 24.9797 35.6176C25.3793 35.5985 25.7567 35.5798 26.287 35.334C27.0509 34.9792 27.9973 35.0995 28.4931 35.2031C28.7618 35.2585 29.0247 35.1264 29.1329 34.8801C29.1701 34.7961 29.1944 34.7226 29.2201 34.6479C29.4512 34.6756 29.4991 34.9002 29.5053 34.9498C29.5168 35.0541 29.6051 35.1318 29.7081 35.1318C29.715 35.1318 29.7222 35.1312 29.7293 35.1307C29.8416 35.119 29.9232 35.0184 29.9115 34.9061C29.8894 34.6926 29.7312 34.3096 29.3079 34.243C29.3132 34.0981 29.285 33.9788 29.214 33.8909C29.1363 33.7951 28.9818 33.6946 28.679 33.7568C28.3656 33.8216 28.2215 33.8345 28.1564 33.8287C28.1662 33.7888 28.1894 33.718 28.2433 33.5972C28.4258 33.1865 29.6377 32.1032 30.4311 31.4547C30.6224 31.4116 30.8651 31.4089 30.9211 31.4727C30.9408 31.4945 30.9408 31.5696 30.8961 31.6882C30.8641 31.7723 30.891 31.8671 30.9618 31.9218C31.0323 31.9767 31.1307 31.9793 31.2042 31.9282C31.2358 31.9059 31.977 31.3796 31.9622 30.7385C31.9545 30.4145 31.7656 30.1331 31.4005 29.9021C31.0912 29.7069 30.9134 29.4806 30.872 29.2306C30.8287 28.9691 30.9402 28.737 31.0147 28.6133C31.3074 28.7537 31.6011 28.935 31.8936 29.1768C33.6189 30.6035 35.0872 30.8306 35.8802 30.8269C36.0466 31.1945 36.5351 32.4485 36.1181 33.7366C35.8962 33.6972 35.4605 33.5556 35.1615 33.0572C34.8708 32.573 34.5219 32.4517 34.2801 32.4357C33.9043 32.4064 33.5054 32.6203 33.192 33.0119C33.1251 33.096 33.1343 33.2172 33.213 33.2896C33.292 33.3625 33.4141 33.3621 33.4916 33.2885C33.5437 33.239 33.6408 33.179 33.6826 33.2114L33.725 33.3295C33.7476 33.3949 33.7708 33.4609 33.7983 33.5247C33.6358 33.5486 33.4794 33.6151 33.3573 33.7535C33.2768 33.8447 33.2261 33.95 33.1895 34.0584C32.8153 34.1253 32.6114 34.4091 32.6028 34.4222C32.5405 34.5153 32.5659 34.6403 32.6584 34.7032C32.6931 34.7271 32.7332 34.7388 32.7725 34.7388C32.8378 34.7388 32.9018 34.708 32.9417 34.6504C32.9456 34.6452 33.0211 34.5428 33.1561 34.4855C33.173 34.5625 33.2006 34.6369 33.2425 34.7046C33.313 34.8183 33.4131 34.8944 33.5267 34.9349C33.5114 34.994 33.4983 35.0585 33.4898 35.1278C33.4855 35.1293 33.481 35.1286 33.4766 35.1302C32.9874 35.3362 33.0872 35.9442 33.2082 36.2369C33.2409 36.3157 33.3167 36.3629 33.3967 36.3629C33.4228 36.3629 33.4491 36.3577 33.4745 36.3475C33.5788 36.3044 33.6285 36.1852 33.5859 36.0809C33.5844 36.077 33.4696 35.7767 33.5434 35.6057C33.5454 35.6103 33.5459 35.6152 33.5478 35.6197C33.6324 35.8107 33.7955 35.9469 34.0193 36.014C34.1295 36.047 34.2348 36.0609 34.3356 36.0609C34.67 36.0609 34.9538 35.906 35.1927 35.7752C35.3788 35.6736 35.5545 35.5805 35.6931 35.5901C35.794 35.5997 35.9094 35.6178 36.036 35.6374C36.5138 35.7119 37.1687 35.8129 37.8186 35.6039C37.9396 35.5651 38.0492 35.5272 38.1496 35.4926C38.6777 35.3117 38.8749 35.2441 39.1977 35.4278C39.5885 35.6513 40.0923 35.5011 40.352 35.2273C40.4333 35.1415 40.4802 35.0458 40.5054 34.9488C40.6387 35.0019 40.7467 35.0592 40.764 35.0912C40.7259 35.1976 40.7813 35.3141 40.8877 35.3524C40.9104 35.3604 40.9335 35.3641 40.9564 35.3641C41.0403 35.3641 41.1189 35.312 41.1488 35.2285C41.1871 35.1215 41.1778 35.0114 41.1225 34.9103C40.9874 34.6644 40.5921 34.5324 40.3942 34.4799C40.0672 34.0357 39.5688 33.8973 38.7453 34.0276C38.7125 34.0324 38.687 34.0265 38.6588 34.0032C38.3582 33.7601 38.292 32.4969 38.2526 31.7429C38.2209 31.1396 38.1994 30.7895 38.1068 30.6214C38.1541 30.5826 38.4127 30.5777 38.5739 30.6953C38.6516 30.7527 38.6592 30.8044 38.6407 30.8629C38.6374 30.8714 38.6345 30.8794 38.6316 30.8873C38.5917 30.9916 38.6433 31.1091 38.7473 31.1501C38.8513 31.1899 38.9692 31.141 39.0115 31.0373C39.0176 31.0229 39.0229 31.008 39.0278 30.9936C39.1006 30.7866 39.3991 29.8491 39.0475 29.2553C38.8895 28.9887 38.6322 28.8297 38.2825 28.7824C37.3913 28.6623 36.7121 28.0928 36.2554 27.1005C36.9473 26.8574 38.9843 25.9341 39.3652 23.3856C39.6182 21.6916 39.0111 20.7429 38.457 20.2454C38.4305 20.2216 38.4018 20.2035 38.3748 20.181C38.3908 20.1602 38.4112 20.1431 38.4184 20.1162C38.4208 20.1071 38.5609 19.5918 38.806 18.9976ZM37.3634 18.6335C38.5279 17.1182 39.9559 16.4435 40.7282 16.1711C40.2216 17.0836 39.739 18.7904 39.4874 19.7651L39.0623 18.4669C39.0607 18.4618 39.0554 18.4597 39.0536 18.4548C39.1782 18.2089 39.3183 17.9708 39.4728 17.7698C39.5415 17.6805 39.5247 17.5522 39.4353 17.4836C39.3457 17.4144 39.2177 17.4314 39.1488 17.5209C38.9559 17.7717 38.786 18.069 38.6393 18.3695L37.3634 18.6335ZM13.1749 17.4183C12.5455 16.7516 12.3815 15.8864 12.344 15.3608C12.8825 15.8599 13.4257 16.2335 13.792 16.4611L13.4664 16.5411C13.4042 16.4912 13.3432 16.4451 13.2781 16.3867C13.1948 16.3117 13.0658 16.3191 12.9897 16.4021C12.9142 16.4862 12.9211 16.6155 13.0052 16.691C13.0781 16.7565 13.1475 16.8069 13.218 16.8631L13.1749 17.4183ZM28.5862 24.1579C28.2044 23.1389 27.0519 20.6995 24.2287 18.6585C24.2309 18.6525 24.2324 18.6447 24.2346 18.6389C24.2709 18.5453 24.3181 18.4647 24.3587 18.3763C28.6333 19.4686 31.2349 21.2457 32.2743 22.073C30.1508 21.9165 29.0276 23.3791 28.5862 24.1579ZM33.2136 20.118C32.7624 20.698 32.6836 21.4046 32.6924 21.8816C31.7551 21.097 29.1205 19.187 24.5383 18.002C24.5975 17.8992 24.6685 17.8098 24.7348 17.7149C24.7496 17.7183 24.7638 17.7236 24.7795 17.7246C30.4172 17.4823 33.5626 18.693 34.7145 19.2635C34.0681 19.3945 33.5588 19.6741 33.2136 20.118ZM28.7207 15.9998C29.9668 15.9998 32.8436 15.8504 35.3249 14.6207C34.2598 16.2249 34.6426 18.0256 34.9436 18.9152C33.8009 18.33 30.7064 17.1143 25.0622 17.309C25.8764 16.4369 27.0802 15.9998 28.7207 15.9998ZM23.9287 20.3531C23.9796 19.8913 24.0303 19.452 24.1105 19.082C26.8238 21.0933 27.9166 23.5246 28.2398 24.4061C27.5734 24.2567 26.9698 24.3052 26.4495 24.5734C26.0237 24.7932 25.7266 25.1163 25.523 25.4121C25.4323 24.384 25.0928 22.5494 23.8531 21.1049C23.8491 21.1003 23.8435 21.0982 23.8392 21.094C23.8724 20.8456 23.9018 20.5966 23.9287 20.3531ZM23.6706 26.5905C22.7212 26.3692 22.3223 25.4125 22.304 25.3674C22.279 25.3056 22.2256 25.2594 22.1605 25.2444C22.1451 25.2412 22.1297 25.2391 22.1142 25.2391C22.0644 25.2391 22.0159 25.2578 21.9778 25.2919C21.2957 25.9053 20.4612 26.0671 20.0445 26.1096C20.3738 25.0753 21.2999 24.538 22.5457 23.8148L22.6031 23.7813C22.9137 23.6011 23.1377 23.3274 23.3129 23.0055C23.3127 23.5197 23.3402 24.0925 23.4346 24.5746C23.4538 24.672 23.5391 24.7395 23.6349 24.7395C23.648 24.7395 23.6612 24.7385 23.6746 24.7357C23.7852 24.7139 23.8573 24.6064 23.8358 24.4958C23.6314 23.4531 23.7608 21.8847 23.7796 21.6735C24.9678 23.2775 25.1252 25.3017 25.1429 25.9619C24.446 25.8413 24.0575 25.2996 24.0534 25.294C24.0153 25.2386 23.9528 25.2056 23.886 25.2056H23.8852C23.8187 25.2056 23.7564 25.2376 23.7182 25.2919C23.4163 25.7195 23.5342 26.2467 23.6706 26.5905ZM22.947 21.0006C22.7887 20.8058 22.5758 20.5915 22.3648 20.4973C22.4125 20.307 22.4572 20.1045 22.4978 19.8917C22.7165 20.0713 23.0473 20.4411 22.947 21.0006ZM22.0266 21.7309C22.0879 21.7399 22.4601 21.8119 22.6148 22.2899C22.4416 22.26 22.2377 22.2758 22.0319 22.3866C21.999 22.195 21.9926 21.9764 22.0266 21.7309ZM22.7562 22.7787C22.8153 22.8242 22.8937 22.8298 22.961 22.8007C22.8425 23.0207 22.6935 23.2026 22.5102 23.3393C22.4101 23.2383 22.2628 23.0574 22.1517 22.7955C22.4545 22.575 22.726 22.7568 22.7562 22.7787ZM23.4604 19.7668C23.5317 19.7484 23.5869 19.6919 23.6054 19.6205C23.5757 19.8428 23.5484 20.0715 23.5223 20.3084C23.4368 21.0852 23.3434 21.9265 23.0787 22.5652C23.0036 21.7066 22.4432 21.3906 22.1151 21.3336C22.1326 21.2743 22.1484 21.2159 22.1707 21.1541C22.1997 21.0734 22.2283 20.9866 22.2563 20.895C22.443 21.0128 22.7011 21.3316 22.8457 21.5536C22.8838 21.6121 22.948 21.6467 23.017 21.6467C23.0218 21.6467 23.0265 21.6467 23.0313 21.6461C23.1055 21.6408 23.171 21.5955 23.2021 21.5285C23.6911 20.4767 23.0328 19.7267 22.5747 19.4438C22.5862 19.3689 22.5977 19.2941 22.6082 19.2181C22.8738 19.3429 23.1572 19.5999 23.2594 19.7089C23.2985 19.7509 23.3528 19.7737 23.4086 19.7737C23.4259 19.7737 23.4431 19.7716 23.4604 19.7668ZM23.1213 18.4638C23.2378 18.6532 23.2868 18.8862 23.2681 19.1597C23.1022 19.022 22.8832 18.8731 22.6588 18.7938C22.6829 18.5616 22.7011 18.3285 22.7115 18.0984C22.8355 18.1603 23.0027 18.2714 23.1213 18.4638ZM23.2688 17.0756C23.1011 17.0023 22.8993 16.9526 22.6922 16.9753C22.6714 16.7479 22.6382 16.5365 22.5919 16.3451C22.8067 16.4461 23.1153 16.6571 23.2688 17.0756ZM21.9505 14.0387L21.9111 14.5502C21.5941 14.6208 21.2455 14.6738 20.876 14.6824C20.8206 14.6633 20.7434 14.6374 20.6537 14.6085C21.1797 14.414 21.652 14.1904 21.9505 14.0387ZM15.98 17.3411C15.938 17.3059 15.901 17.2686 15.8687 17.2299C15.909 17.214 15.9488 17.1979 15.9879 17.1826C16.2715 17.0687 16.5391 16.9613 16.7966 16.947C17.3753 16.9113 17.5441 17.14 17.5819 17.2103C17.6205 17.2822 17.6143 17.3455 17.5915 17.3768C17.4952 17.5078 17.3408 17.5864 17.1325 17.612C16.6567 17.6662 16.0903 17.4332 15.98 17.3411ZM17.4154 18.6373C17.3537 18.5926 17.2724 18.5856 17.205 18.6208C16.504 18.9709 15.8064 18.9267 15.3635 18.8384C15.6294 18.6571 15.9413 18.3531 16.1498 17.8731C16.3887 17.9598 16.6854 18.0296 16.979 18.0296C17.0471 18.0296 17.115 18.0254 17.1817 18.0173C17.5015 17.9785 17.7568 17.8406 17.9205 17.6193C18.0436 17.4517 18.0516 17.2203 17.9413 17.016C17.8557 16.8575 17.5707 16.492 16.7743 16.5392C16.4495 16.5568 16.1377 16.6818 15.836 16.8031C15.7877 16.8223 15.7392 16.8419 15.6911 16.8605C15.5815 16.3769 15.8263 15.8437 15.8297 15.8368C15.86 15.772 15.8545 15.6959 15.8148 15.6362C15.7013 15.4654 15.4751 15.3591 15.2373 15.2925C16.3387 15.0621 17.7526 15.4425 17.7699 15.4474C17.8455 15.4671 17.9248 15.4452 17.9764 15.3867C18.028 15.3293 18.0427 15.2473 18.0141 15.175C17.9319 14.968 17.9283 14.8238 18.0029 14.7461C18.3206 14.4151 19.816 14.7423 20.7755 15.0797C20.7983 15.0877 20.8238 15.0855 20.8465 15.0914C21.792 15.0766 22.6182 14.8061 23.1075 14.604C22.5553 15.8032 21.6159 15.9719 21.5718 15.9794C21.4609 15.997 21.385 16.1007 21.402 16.2119C21.419 16.3236 21.5236 16.4018 21.6351 16.3832C21.6567 16.3798 21.8563 16.345 22.1282 16.2142C22.5328 17.3336 22.2159 19.8219 21.7862 21.0153C21.3054 22.3513 21.8388 23.1998 22.1653 23.5639C20.8749 24.3147 19.8661 24.9526 19.5837 26.2632C19.5833 26.2642 19.5823 26.2651 19.5819 26.2663C19.5751 26.2876 19.506 26.5173 19.4264 26.9268C18.9263 26.5945 17.9943 25.2303 18.496 23.6314C18.6327 23.1951 18.7934 22.7683 18.9488 22.3555C19.4105 21.1298 19.8455 19.971 19.5217 18.8857C19.648 18.7951 19.7664 18.6934 19.8687 18.5742C20.225 18.1593 20.3494 17.6287 20.2388 16.9972C20.2196 16.8854 20.114 16.8099 20.0022 16.8312C19.8914 16.8504 19.8168 16.9562 19.8365 17.0675C19.9262 17.5799 19.8354 17.9852 19.5591 18.3077C19.0249 18.9313 17.9387 19.06 17.4639 19.0861L17.499 18.8307C17.5091 18.7559 17.4768 18.6813 17.4154 18.6373ZM19.2495 27.9531C18.8976 28.3833 18.1835 28.9553 17.9061 29.1716C17.6501 28.9274 17.3936 28.6376 17.1677 28.298C18.2131 28.1208 18.8405 27.4718 19.0758 27.1711C19.1541 27.2377 19.2287 27.2912 19.2945 27.3263C19.3136 27.3366 19.3341 27.3377 19.3542 27.3412C19.3267 27.5162 19.3007 27.7145 19.276 27.9315C19.2673 27.9389 19.257 27.9439 19.2495 27.9531ZM16.763 24.2293C16.9275 24.2756 17.3543 24.3845 17.748 24.3845C17.8201 24.3845 17.8847 24.3713 17.9523 24.3629C17.9378 24.6143 17.9502 24.8565 17.9854 25.0869C17.6597 25.299 16.9005 25.3169 16.4905 25.2993C16.5453 24.9416 16.6393 24.5841 16.763 24.2293ZM17.2744 23.0099C17.425 23.046 17.7202 23.1059 18.0183 23.1059C18.0957 23.1059 18.1726 23.1013 18.2475 23.0916C18.1995 23.2302 18.1504 23.3676 18.1058 23.5092C18.059 23.6588 18.0266 23.8054 18.0005 23.9507C17.999 23.9509 17.9975 23.9505 17.996 23.9508C17.6928 24.0257 17.1724 23.9175 16.9066 23.8451C17.0194 23.5633 17.1425 23.2841 17.2744 23.0099ZM17.7413 22.0812C17.7941 21.9787 17.8462 21.8771 17.8979 21.7759C18.0758 21.8186 18.4264 21.899 18.6719 21.9296C18.6368 22.0233 18.6022 22.1164 18.5663 22.2122C18.512 22.3562 18.4575 22.5046 18.4029 22.652C18.3776 22.6499 18.3515 22.6519 18.3258 22.6601C18.0837 22.7349 17.7054 22.6839 17.4603 22.6329C17.5541 22.4462 17.6484 22.2616 17.7413 22.0812ZM18.3894 20.748C18.5365 20.8037 18.772 20.8778 19.0097 20.8778C19.0171 20.8778 19.0239 20.8746 19.0314 20.8745C18.9699 21.0882 18.896 21.3085 18.816 21.533C18.7022 21.5317 18.3685 21.4654 18.0868 21.4001C18.1963 21.179 18.2975 20.9617 18.3894 20.748ZM18.6718 19.9672C18.7873 19.9753 18.8943 19.9806 18.9847 19.9806C19.0738 19.9806 19.1448 19.9748 19.2094 19.9669C19.1951 20.1256 19.1724 20.2866 19.1375 20.4512C18.9824 20.4971 18.729 20.4376 18.5413 20.3681C18.5913 20.2325 18.6349 20.0988 18.6718 19.9672ZM16.7527 25.7137C17.144 25.7137 17.6914 25.6691 18.0694 25.4935C18.1224 25.6869 18.1892 25.8691 18.2655 26.0386C17.5636 26.5263 16.7794 26.6385 16.5019 26.6616C16.4715 26.4927 16.4494 26.3178 16.4389 26.1357C16.4307 25.9931 16.4361 25.8499 16.4444 25.7065C16.5239 25.7101 16.6285 25.7137 16.7527 25.7137ZM18.4556 26.4029C18.561 26.5821 18.6733 26.7425 18.7861 26.8767C18.6124 27.107 17.9999 27.811 16.9446 27.9254C16.8039 27.6631 16.6852 27.3758 16.5968 27.064C16.9528 27.0292 17.73 26.8914 18.4556 26.4029ZM19.1524 19.1047C19.189 19.2525 19.2099 19.4029 19.2177 19.5556C19.1658 19.5722 18.972 19.5737 18.7627 19.5628C18.7795 19.4579 18.789 19.3549 18.7933 19.2533C18.9144 19.2116 19.0349 19.1617 19.1524 19.1047ZM16.4011 30.4692C16.3481 30.4862 16.304 30.5235 16.2792 30.573C16.2624 30.6065 15.9164 31.2791 15.0033 31.1477C15.3263 30.9349 15.6221 30.5768 15.6221 30.0293C15.6221 29.999 15.6154 29.9691 15.6023 29.942C15.5891 29.9137 14.26 27.0789 14.0776 24.5431C14.0699 24.4367 13.9816 24.3543 13.8749 24.3537H13.8738C13.7677 24.3537 13.6791 24.435 13.6703 24.541C13.6174 25.1789 13.4062 25.9025 13.1872 25.9206C13.1066 25.9291 12.9181 25.8684 12.8473 25.7519C12.7945 25.6652 12.8164 25.5444 12.9116 25.3933C13.2833 24.8027 13.507 24.3149 13.391 23.8504C13.2939 23.4615 12.8398 22.4388 12.2197 22.5643L12.058 22.6011C11.531 22.7261 11.3953 22.6994 11.3299 22.4611C11.3136 22.4015 11.3225 22.3531 11.3581 22.3036C11.4476 22.1792 11.6763 22.086 11.9277 22.0716C12.3994 22.046 12.5875 22.2471 12.5925 22.253C12.6548 22.3286 12.7609 22.3488 12.8466 22.3036C12.9322 22.2578 12.974 22.1578 12.946 22.0647C12.938 22.0387 12.7449 21.4247 11.9237 21.3247C11.7394 21.3024 11.6949 21.1838 11.6899 21.089C11.6819 20.932 11.7813 20.7459 11.9612 20.7049C12.2842 20.633 12.8868 20.907 13.1479 21.9515C13.1753 22.0617 13.2887 22.1251 13.3956 22.1006C13.5052 22.0728 13.5717 21.9622 13.5443 21.8526C13.4106 21.318 13.194 20.9515 12.9519 20.7046C12.9561 20.6971 12.9624 20.6914 12.9657 20.6831C13.0637 20.4341 13.2653 20.3824 13.4111 20.4118C13.5503 20.4411 13.6961 20.5597 13.687 20.805C13.6617 21.4818 14.1967 22.5251 14.4749 22.9077C14.6855 23.1971 14.7386 23.5105 14.8116 23.9446C14.8443 24.1383 14.8803 24.35 14.9346 24.5869C15.2055 25.7659 15.9175 26.4802 16.085 26.6355C16.306 28.0536 17.1049 29.0439 17.8373 29.6741C17.5219 29.8978 16.8948 30.3152 16.4011 30.4692ZM18.2164 29.4479C18.4522 29.2623 18.8679 28.9227 19.2162 28.5832C19.1869 28.9811 19.1654 29.4182 19.1635 29.9147C19.1633 29.9727 19.1584 30.0281 19.1566 30.0852C18.9548 29.9769 18.6048 29.7687 18.2164 29.4479ZM30.8365 28.0862L31.1923 27.0324C31.5403 27.1559 31.8682 27.2973 32.1764 27.452L31.4968 28.4008C31.2808 28.2743 31.0607 28.1695 30.8365 28.0862ZM30.4458 27.9653C30.2549 27.9163 30.0618 27.8802 29.8662 27.8613L29.9984 26.7085C30.046 26.7175 30.0946 26.7224 30.1418 26.7325C30.37 26.7817 30.589 26.8415 30.8034 26.9061L30.4458 27.9653ZM29.4569 27.844C29.2552 27.8459 29.0515 27.864 28.8459 27.8968L28.7336 26.6058C29.0223 26.6019 29.3105 26.6141 29.5942 26.6461L29.4569 27.844ZM28.325 26.6227L28.4428 27.979C28.232 28.0325 28.0191 28.1046 27.805 28.1898L27.4445 26.7187C27.7336 26.6743 28.0278 26.6412 28.325 26.6227ZM27.6963 30.5477C27.5324 30.49 27.3788 30.4117 27.2336 30.3249L27.9639 28.9385C27.981 28.9581 27.9996 28.9748 28.0138 28.9986C28.0865 29.121 28.0973 29.2822 28.0463 29.478C27.9784 29.7383 27.8566 30.1217 27.6963 30.5477ZM26.7909 29.189C27.0438 29.0204 27.3218 28.8588 27.6184 28.7181L26.8931 30.0948C26.614 29.8788 26.3977 29.6533 26.2754 29.5126C26.4457 29.411 26.6177 29.3044 26.7909 29.189ZM27.0407 26.7875L27.4254 28.3569C27.2283 28.4518 27.03 28.5601 26.8307 28.6816L26.239 26.9651C26.4946 26.8998 26.7641 26.8401 27.0407 26.7875ZM25.8437 27.072L26.4674 28.881C26.4702 28.8891 26.4781 28.8927 26.4818 28.9002C26.2327 29.0632 25.9863 29.209 25.7441 29.3431L25.14 27.2924C25.3552 27.2196 25.59 27.1449 25.8437 27.072ZM24.7538 27.4282L25.3748 29.5365C25.3752 29.538 25.3768 29.5386 25.3772 29.54C25.1059 29.6789 24.8459 29.8016 24.6066 29.9053L23.931 27.7967C23.9396 27.782 23.9491 27.7631 23.9575 27.7494C24.0696 27.6989 24.3525 27.5759 24.7538 27.4282ZM23.6711 28.3231L24.2283 30.0624C23.803 30.2311 23.4708 30.3386 23.3054 30.3881C23.1992 29.7118 23.4213 28.9117 23.6711 28.3231ZM23.5507 32.0606C23.689 31.7281 23.6481 31.3183 23.4257 30.8097C23.4217 30.8006 23.4177 30.7917 23.4139 30.782C23.7568 30.6818 24.7597 30.3546 25.9135 29.7175C26.1197 29.9672 26.7296 30.634 27.5471 30.9268C27.0829 32.0624 26.3898 33.3352 25.6916 33.4481C25.1063 33.5407 24.7894 33.1917 24.4835 32.8516C24.2167 32.5558 23.9136 32.2206 23.4837 32.4472C23.4502 32.4649 23.425 32.4876 23.3958 32.5078C23.3625 32.4883 23.3166 32.4644 23.2624 32.4396C23.3797 32.3372 23.4852 32.2181 23.5507 32.0606ZM30.4682 29.2918C30.528 29.6636 30.7683 29.9851 31.1826 30.2473C31.4244 30.4001 31.5492 30.5681 31.5537 30.7469C31.5585 30.938 31.4338 31.1369 31.2924 31.2981C31.273 31.2583 31.2494 31.2253 31.2251 31.1987C30.9644 30.9092 30.3975 31.0396 30.2863 31.0688C30.2581 31.0757 30.2318 31.0896 30.2091 31.1076C29.9998 31.2778 28.1541 32.7916 27.8699 33.4305C27.7634 33.67 27.6717 33.9184 27.8154 34.0967C27.9652 34.283 28.2517 34.2623 28.7625 34.1563C28.8063 34.1472 28.838 34.1446 28.8593 34.1446C28.8838 34.1446 28.8958 34.1446 28.8958 34.1473C28.9131 34.1766 28.9246 34.341 28.759 34.7144C28.729 34.782 28.6529 34.8176 28.5765 34.8022C28.0314 34.6894 26.9859 34.5595 26.1149 34.9628C25.657 35.1752 25.3339 35.1906 24.9598 35.2086C24.6155 35.2252 24.2256 35.2443 23.6861 35.4193C23.5619 35.4591 23.1498 35.5768 23.0745 35.381C23.0116 35.2165 23.1342 34.9286 23.2642 34.8441C24.0683 34.8753 24.3961 34.8756 24.3961 34.8756C24.5089 34.8756 24.6004 34.7841 24.6004 34.6713C24.6004 34.5586 24.5089 34.467 24.3961 34.467C24.3927 34.467 24.0537 34.467 23.2125 34.433C23.0673 34.4271 22.8153 34.392 22.7611 34.2207C22.7207 34.0935 22.792 33.9099 22.9202 33.8121C23.0314 33.7258 23.4062 33.8206 23.7725 33.9786C23.8888 34.0519 24.0098 34.111 24.1271 34.1499C24.2265 34.1855 24.3365 34.135 24.3788 34.0381C24.4214 33.9413 24.3831 33.8286 24.2904 33.7775C24.2178 33.7371 24.0991 33.6748 23.956 33.611C23.7182 33.4498 23.5299 33.2189 23.5152 33.0384C23.5099 32.9736 23.5229 32.8884 23.674 32.8091C23.8052 32.7405 23.8991 32.815 24.1797 33.1257C24.5055 33.4871 24.9506 33.9776 25.7567 33.8515C27.3263 33.5972 28.4311 29.6212 28.4415 29.5811C28.521 29.2762 28.4955 29.0102 28.3651 28.7905C28.2898 28.6634 28.1929 28.5809 28.1005 28.5178C28.8712 28.2405 29.74 28.1457 30.632 28.4547C30.5301 28.642 30.4125 28.9459 30.4682 29.2918ZM31.8412 28.6217L32.5397 27.6466C32.7942 27.7895 33.0332 27.9395 33.2577 28.0946L32.3616 29.0206C32.292 28.9664 32.2244 28.9197 32.1539 28.8613C32.0507 28.776 31.9465 28.6962 31.8412 28.6217ZM33.5924 29.817L34.4899 29.102C34.6628 29.269 34.8204 29.4322 34.9596 29.5862L34.2339 30.1019C34.0301 30.0257 33.8162 29.9313 33.5924 29.817ZM33.2024 29.6055C33.0351 29.5061 32.8635 29.3949 32.688 29.2709L33.5928 28.3359C33.8054 28.4967 34.0048 28.6595 34.1868 28.8212L33.2024 29.6055ZM34.7202 30.2577L35.2276 29.8969C35.394 30.0974 35.5286 30.2755 35.6256 30.4124C35.3733 30.3974 35.0654 30.3502 34.7202 30.2577ZM38.961 23.3247C38.5999 25.7418 36.663 26.543 36.0863 26.73C35.6015 25.6393 34.7977 24.7219 34.2627 24.4446C34.1633 24.3935 34.0396 24.4323 33.9875 24.5319C33.9356 24.6325 33.9748 24.7554 34.075 24.8076C34.4825 25.0188 35.3077 25.8781 35.7842 27.0523C36.2985 28.3191 37.1208 29.0375 38.2278 29.1875C38.4504 29.2174 38.6035 29.3077 38.6959 29.4632C38.8316 29.692 38.8248 30.0357 38.7749 30.3379C38.5143 30.1723 38.0899 30.1192 37.8587 30.2964C37.7146 30.4065 37.6733 30.5816 37.7481 30.7645C37.7987 30.8884 37.822 31.3333 37.8447 31.7637C37.9099 33.0093 37.9926 33.9888 38.4018 34.3203C38.5199 34.4161 38.6623 34.4554 38.8093 34.4304C39.6169 34.3027 39.9118 34.4741 40.104 34.7714C40.1158 34.7895 40.1513 34.8443 40.0557 34.946C39.9105 35.0993 39.6058 35.1891 39.4007 35.0732C38.9173 34.7964 38.5782 34.913 38.0171 35.1062C37.919 35.1397 37.8116 35.1764 37.6931 35.2153C37.136 35.3952 36.5615 35.3057 36.0991 35.2334C35.9634 35.2126 35.8399 35.1935 35.7323 35.1834C35.4689 35.1584 35.229 35.2893 34.9967 35.4165C34.7156 35.5703 34.4501 35.7176 34.1372 35.6224C33.992 35.5788 33.9448 35.5059 33.9216 35.4544C33.853 35.3007 33.9038 35.078 33.9527 34.9363C34.1279 34.9054 34.2854 34.9112 34.4588 34.9293C34.7089 34.9543 34.9935 34.9841 35.3522 34.8521C35.4582 34.8133 35.5122 34.6957 35.4732 34.5898C35.434 34.4838 35.3172 34.4313 35.2106 34.469C34.9411 34.5673 34.7363 34.5478 34.5008 34.5228C34.2862 34.501 34.044 34.4765 33.753 34.5537C33.7086 34.5654 33.6416 34.5723 33.5902 34.4893C33.5226 34.3808 33.5255 34.1801 33.6639 34.0238C33.7704 33.903 33.9765 33.9068 34.1669 33.9471C34.2736 34.0067 34.4093 34.0556 34.5846 34.0891C34.6846 34.1103 34.7838 34.0503 34.8167 33.954C34.8494 33.8571 34.8058 33.7512 34.7145 33.7054C34.6991 33.698 34.5384 33.6192 34.3242 33.565C34.2114 33.4831 34.1711 33.3675 34.1108 33.1946L34.0653 33.0674C34.0381 32.995 34.0034 32.9403 33.9653 32.8988C34.0634 32.8562 34.1594 32.8371 34.2529 32.8429C34.463 32.8573 34.6508 33 34.811 33.2675C35.3412 34.1507 36.2205 34.1609 36.2577 34.1609C36.3426 34.1609 36.4187 34.1082 36.4487 34.0289C37.1094 32.2827 36.226 30.5944 36.188 30.5232C36.1874 30.5221 36.1863 30.5215 36.1857 30.5203C36.1851 30.5193 36.1854 30.5182 36.1848 30.5173C36.1064 30.3816 34.2207 27.194 30.2282 26.3337C27.3521 25.7117 23.8767 27.3345 23.7302 27.4042C23.6956 27.4201 23.6666 27.4457 23.6458 27.4775C23.2324 28.1165 22.543 29.8122 23.0512 30.9737C23.2243 31.3696 23.2656 31.6824 23.1736 31.9043C23.1119 32.0528 22.9916 32.1719 22.7871 32.2821C22.7597 32.0267 22.6717 31.6942 22.4088 31.5495C22.1517 31.409 21.8176 31.4872 21.4149 31.7831C20.4617 32.4838 19.1017 34.139 19.2258 34.8557C19.256 35.0318 19.3665 35.1569 19.5362 35.208C19.7004 35.2569 19.9025 35.2989 20.1153 35.3425C20.5362 35.4293 21.0326 35.5309 21.2528 35.7133C20.6585 35.6373 19.5071 35.5319 19.0519 35.7873C18.5151 36.0895 17.5923 36.2821 16.9498 36.0496C16.7162 35.9522 16.1933 35.875 15.8892 36.2869C15.7758 36.4407 15.5978 36.4827 15.4829 36.4439C15.3494 36.4002 15.3214 36.2614 15.3214 36.1529C15.3214 35.6789 15.7776 35.6421 15.9173 35.6421C16.0301 35.6421 16.1216 35.5506 16.1216 35.4378C16.1216 35.3251 16.0301 35.2335 15.9173 35.2335C15.6044 35.2335 15.3469 35.3355 15.1702 35.5089C15.0068 35.4236 14.9014 35.3227 14.8631 35.2063C14.8107 35.0472 14.8859 34.8823 14.9357 34.7982C15.0304 34.6375 15.1978 34.5521 15.3004 34.5107C15.5323 34.7286 15.8022 34.8845 15.9377 34.9439C16.0398 34.988 16.1608 34.9418 16.2068 34.8385C16.252 34.7353 16.2047 34.6145 16.1015 34.5694C15.8279 34.4497 15.3275 34.0804 15.3039 33.7708C15.2952 33.6574 15.3997 33.5712 15.5077 33.5441C15.5856 33.5244 15.7819 33.5089 15.9001 33.7819C16.1988 34.4731 17.1703 34.9593 17.2116 34.9795C17.2404 34.9939 17.2712 35.0009 17.302 35.0009C17.3518 35.0009 17.4008 34.9829 17.4393 34.9482C17.5258 34.8694 19.5606 32.9902 19.5724 29.916C19.5795 28.0576 19.8379 26.8983 19.9339 26.5296C20.295 26.5122 21.2181 26.401 22.0471 25.7653C22.2871 26.1904 22.8961 27.0156 24.0169 27.0438C24.0185 27.0438 24.0203 27.0438 24.0219 27.0438C24.0953 27.0438 24.1633 27.004 24.1997 26.94C24.237 26.8741 24.2348 26.7931 24.1944 26.7299C24.1904 26.7235 23.8765 26.2213 23.9481 25.7882C24.2056 26.0367 24.6746 26.3728 25.3429 26.3968H25.343H25.3431C25.3455 26.3968 25.3479 26.3968 25.3504 26.3968C25.3857 26.3968 25.4175 26.3853 25.4467 26.3691C25.4599 26.3617 25.4717 26.356 25.4828 26.3456C25.509 26.3229 25.528 26.2939 25.5401 26.2604C25.5412 26.2573 25.5444 26.2558 25.5454 26.2525C25.5481 26.2434 25.8308 25.3534 26.6378 24.9367C27.1531 24.6701 27.7745 24.6536 28.4872 24.8884C28.5048 24.894 28.5224 24.8938 28.54 24.8947C28.544 24.8949 28.547 24.8985 28.551 24.8985C28.5542 24.8985 28.5574 24.8974 28.5605 24.8972C28.5658 24.897 28.5708 24.8959 28.576 24.8952C28.5851 24.8941 28.5941 24.8941 28.6032 24.8917C28.6094 24.89 28.6139 24.8856 28.62 24.8834C28.6335 24.8784 28.6457 24.8723 28.6578 24.8647C28.6684 24.8581 28.6783 24.8511 28.6874 24.8427C28.697 24.8341 28.705 24.8242 28.713 24.8136C28.7209 24.803 28.7277 24.7924 28.7335 24.7803C28.7362 24.7749 28.7407 24.7709 28.7428 24.7649C28.77 24.6906 29.1926 23.5872 30.2464 22.936C30.2502 22.9367 30.2531 22.939 30.257 22.9393C30.2823 22.9421 32.8 23.2208 34.1934 23.9012C34.6183 24.1088 35.1368 24.2115 35.65 24.2115C36.2293 24.2115 36.8016 24.0805 37.2227 23.8226C37.6824 23.5412 37.9296 23.1369 37.9377 22.6548C37.9545 21.6662 37.346 20.9054 36.7651 20.692C36.4006 20.5585 36.0497 20.6388 35.8279 20.9096C35.5517 21.2459 35.568 21.6815 35.8667 21.946C36.1766 22.2206 36.7491 22.2641 37.3218 21.7576C37.3888 21.8877 37.4424 22.0313 37.4786 22.1847C36.8325 22.6313 36.2297 22.7802 35.7376 22.6142C35.2702 22.4567 34.9915 22.0518 34.8862 21.7257C34.8035 21.4697 34.85 21.1515 35.0133 20.8536C35.2432 20.4343 35.662 20.1188 36.1621 19.9886C36.6835 19.8518 37.5388 19.9694 38.1847 20.5493C38.6635 20.98 39.1874 21.8104 38.961 23.3247ZM37.0903 21.4156C36.6889 21.7934 36.3194 21.8019 36.1371 21.6402C36.003 21.5216 36.0054 21.3364 36.1432 21.1693C36.2249 21.0699 36.3259 21.0363 36.4242 21.0363C36.495 21.0363 36.5644 21.0539 36.624 21.0757C36.7857 21.1352 36.9482 21.2534 37.0903 21.4156Z" fill="#464655"/>
</g>
<defs>
<clipPath id="clip0_3462_28640">
<rect width="50" height="50" fill="white" transform="translate(0.882812 0.324219)"/>
</clipPath>
</defs>
</svg>
