<svg width="51" height="51" viewBox="0 0 51 51" fill="none" xmlns="http://www.w3.org/2000/svg">
<g clip-path="url(#clip0_3462_28628)">
<path d="M49.7421 8.94531H1.4666C0.990525 8.94531 0.604492 9.33125 0.604492 9.80732V40.8416C0.604492 41.3177 0.990525 41.7037 1.4666 41.7037H49.7422C50.2183 41.7037 50.6043 41.3177 50.6043 40.8416V9.80732C50.6042 9.33125 50.2182 8.94531 49.7421 8.94531Z" fill="#73AF00"/>
<path d="M38.5354 20.1504H32.501V41.702H38.5354V20.1504Z" fill="#FF4B55"/>
<path d="M44.5696 20.1504H38.5352V41.702H44.5696V20.1504Z" fill="#464655"/>
<path d="M50.6028 20.1504H44.5684V41.702H50.6028V20.1504Z" fill="#FF9B55"/>
<path d="M49.134 12.9076C49.1528 12.8698 49.1438 12.8241 49.1122 12.7961C49.0803 12.7681 49.0338 12.7652 48.9988 12.7884C48.8245 12.9041 48.6487 13.0093 48.4744 13.1047C49.0355 12.641 49.1141 12.2382 49.1192 12.2089C49.1255 12.1721 49.1091 12.135 49.0778 12.1148C49.0463 12.0944 49.0058 12.095 48.9749 12.116C48.3687 12.5271 47.7621 12.8206 47.239 13.0271C47.9415 12.5832 48.2199 12.1304 48.2369 12.1018C48.2589 12.0651 48.2529 12.0181 48.2226 11.9879C48.1923 11.9577 48.1454 11.9521 48.1087 11.9741C47.5478 12.3122 46.8836 12.5787 46.2487 12.784C46.333 12.654 46.393 12.5079 46.3391 12.4257C46.289 12.3497 46.1976 12.3497 46.0671 12.426C45.8028 12.5809 43.8004 13.0914 43.0244 13.2815C42.2336 13.1386 41.5783 13.3413 41.3741 13.4162C41.3197 13.3514 41.2949 13.2887 41.2845 13.2397C41.2675 13.1599 41.2799 13.0789 41.3176 13.0227C41.3791 12.9312 41.5063 12.9224 41.6185 12.9147C41.6673 12.9114 41.7108 12.9083 41.7489 12.8988C41.7733 12.906 41.8032 12.9201 41.8027 12.931C41.8005 12.9736 41.8274 13.0121 41.868 13.0248C41.9087 13.0375 41.9525 13.0213 41.9751 12.9851C41.9808 12.9759 42.1127 12.76 42.0106 12.5761C41.9362 12.4424 41.7656 12.3721 41.5033 12.367C41.3957 12.2919 40.989 12.0474 40.4878 12.2364C39.9802 12.4279 39.7549 12.9492 39.6804 13.1695C39.2854 13.1146 37.4717 12.8378 36.4857 12.259C36.4377 12.2373 36.2742 12.173 36.1828 12.2601C36.1266 12.3133 36.1201 12.3959 36.163 12.5058C36.1859 12.564 36.2209 12.6208 36.2674 12.6767C35.7396 12.4344 35.0281 12.096 34.4903 11.7952C34.4061 11.7562 34.2535 11.7033 34.1747 11.7858C34.1253 11.8377 34.126 11.9131 34.1769 12.0102C34.1877 12.0307 34.1983 12.0536 34.2098 12.0787C34.2622 12.1915 34.3335 12.3453 34.508 12.5228C34.3776 12.4516 34.2601 12.3784 34.166 12.3051C33.6939 11.9378 33.6299 11.9019 33.5454 11.9589C33.4725 12.008 33.4961 12.0909 33.521 12.1787L33.5275 12.2018C33.548 12.2748 33.5815 12.3923 33.6732 12.5341C33.6001 12.4843 33.5372 12.4742 33.4877 12.5087C33.4582 12.5291 33.4137 12.5799 33.4479 12.6918C33.53 12.9595 34.0973 13.6643 35.1766 13.8718C35.0681 13.8876 34.954 13.8994 34.8439 13.9016C34.8021 13.9025 34.7659 13.9311 34.7554 13.9716C34.7451 14.0121 34.7629 14.0548 34.7993 14.0756C34.819 14.087 35.2004 14.3004 35.8998 14.2825C35.7953 14.3088 35.6766 14.3291 35.5454 14.337C35.5045 14.3394 35.4701 14.3681 35.4603 14.4078C35.4505 14.4474 35.4677 14.4888 35.5027 14.5099C35.5235 14.5225 35.9293 14.7612 36.5578 14.7259L36.503 14.7596C36.4714 14.779 36.4543 14.8151 36.4594 14.8517C36.4645 14.8883 36.4907 14.9186 36.5262 14.9287C36.5458 14.9343 36.9 15.0329 37.3412 14.9863L37.2637 15.0414C37.2326 15.0636 37.218 15.1026 37.2272 15.1396C37.2364 15.1767 37.267 15.2045 37.3049 15.2098C37.3129 15.211 37.37 15.2183 37.4614 15.2183C37.5216 15.2183 37.5968 15.215 37.6826 15.2045C37.6806 15.2268 37.6832 15.249 37.6906 15.271C37.7347 15.4039 37.9304 15.4361 37.9955 15.4369C37.9995 15.437 38.0034 15.437 38.0074 15.437C38.0862 15.437 38.1695 15.4259 38.2543 15.409C38.3904 15.5361 38.6387 15.5244 38.8796 15.4684C38.8654 15.4901 38.8545 15.5117 38.8477 15.5331C38.8338 15.5772 38.8444 15.6221 38.8759 15.6535C38.9066 15.6839 38.9805 15.7575 39.6539 15.568C39.6511 15.5701 39.6484 15.5723 39.6455 15.5744C39.556 15.6438 39.5616 15.7154 39.5731 15.7519C39.6144 15.8843 39.9114 15.9692 40.4505 16.0053C40.4624 16.3051 40.3792 16.6307 40.3782 16.6343C40.3689 16.6701 40.3817 16.7082 40.4109 16.7312C40.44 16.7539 40.4799 16.7574 40.5127 16.74C40.5439 16.7232 40.5749 16.7015 40.6042 16.6781L40.6017 16.7773C40.6007 16.8133 40.6205 16.8466 40.6526 16.8628C40.666 16.8697 40.6805 16.873 40.6949 16.873C40.6986 16.873 40.7021 16.8717 40.7057 16.8712C40.6956 16.9557 40.6613 17.0566 40.5531 17.0803C40.504 17.091 40.4519 17.0963 40.4015 17.1015C40.172 17.125 39.9119 17.1517 39.8708 17.6776C39.8677 17.717 39.8899 17.7542 39.9261 17.7702C39.9622 17.7861 40.0045 17.7777 40.0318 17.7489L40.1317 17.6427C40.1904 17.6571 40.2841 17.672 40.3844 17.6558C40.3592 17.7775 40.3666 17.9273 40.4884 18.0543C40.5148 18.0818 40.5552 18.0904 40.5905 18.0763C40.6259 18.062 40.649 18.0278 40.649 17.9898V17.9224C40.7069 17.9089 40.7838 17.8808 40.8565 17.823C40.899 17.9149 40.9803 18.0227 41.135 18.1137C41.1496 18.1223 41.166 18.1265 41.1822 18.1265C41.2036 18.1265 41.2248 18.1192 41.2418 18.1049C41.2721 18.0798 41.2833 18.0383 41.2698 18.0012L41.2211 17.8672C41.2551 17.8337 41.2992 17.7858 41.3378 17.7346C41.3568 17.7623 41.3889 17.7782 41.4231 17.7749C41.4585 17.7715 41.489 17.7482 41.5015 17.7148L41.5358 17.6235C41.556 17.6179 41.5753 17.6112 41.5938 17.6036C41.6167 17.8057 41.7721 17.9738 41.7815 17.9838C41.7993 18.0027 41.824 18.0132 41.8494 18.0132C41.8569 18.0132 41.8647 18.0123 41.8722 18.0104C41.9051 18.0021 41.9308 17.9768 41.9397 17.9441L41.9916 17.7501C42.1293 17.6803 42.1428 17.554 42.1512 17.4753C42.1528 17.4599 42.1552 17.4385 42.1556 17.4277C42.2094 17.4541 42.3234 17.5822 42.4095 17.7152C42.4266 17.7415 42.456 17.7577 42.4874 17.7578C42.5194 17.7556 42.5482 17.7423 42.5657 17.716C42.5657 17.716 42.6386 17.6057 42.674 17.5413C42.8244 17.2684 42.5966 17.1049 42.4871 17.0264C42.4603 17.0071 42.4234 16.9807 42.4175 16.9734C42.3969 16.9234 42.4041 16.8768 42.4177 16.8406C42.509 16.9035 42.6127 16.9566 42.7277 16.9836C42.7349 16.9854 42.742 16.9861 42.749 16.9861C42.779 16.9861 42.8077 16.9715 42.8254 16.9462C42.8473 16.915 42.848 16.8735 42.8271 16.8416C42.825 16.8384 42.6534 16.5745 42.5429 16.25C42.7214 16.3548 42.9631 16.4813 43.0885 16.4813C43.1745 16.4813 43.2073 16.4278 43.2176 16.4048C43.2235 16.3913 43.2343 16.3669 43.2258 16.3212C43.3917 16.4109 43.5789 16.4804 43.7212 16.4437C43.7632 16.4329 43.8617 16.4074 43.8767 16.3191C43.8842 16.2743 43.8691 16.2381 43.8361 16.2025C43.9902 16.2399 44.1563 16.2585 44.3193 16.2369C44.4552 16.2191 44.4953 16.1532 44.5049 16.1009C44.511 16.0675 44.522 16.0033 44.4008 15.8821C44.6349 15.8693 44.8438 15.8181 44.861 15.6769C44.8625 15.6642 44.8601 15.6527 44.8591 15.6408C45.6114 15.5587 46.1839 15.0882 46.2092 15.067C46.2165 15.0609 46.2215 15.0533 46.2264 15.0455C46.6819 14.9886 47.1993 14.8858 47.6181 14.6975C48.4086 14.3421 48.8089 13.8623 48.7372 13.6882C48.7164 13.6375 48.6566 13.6009 48.5829 13.6285C48.5622 13.6362 48.5203 13.6532 48.4654 13.6754C48.9335 13.2953 49.1166 12.9427 49.134 12.9076Z" fill="#FF9B55"/>
<path d="M49.1349 12.9073C49.1536 12.8695 49.1446 12.8238 49.113 12.7959C49.0812 12.7679 49.0347 12.7649 48.9996 12.7882C48.8253 12.904 48.6494 13.0091 48.4752 13.1045C49.0363 12.6407 49.1151 12.238 49.12 12.2087C49.1264 12.1719 49.11 12.1347 49.0786 12.1145C49.0471 12.0941 49.0067 12.0946 48.9757 12.1157C48.3696 12.5268 47.7629 12.8203 47.2399 13.0268C47.9424 12.583 48.2207 12.1303 48.2377 12.1017C48.2597 12.0649 48.2537 12.018 48.2235 11.9877C48.1932 11.9574 48.1462 11.9519 48.1095 11.9739C47.5487 12.312 46.8844 12.5785 46.2495 12.784C46.3338 12.6539 46.3939 12.5078 46.34 12.4257C46.2899 12.3495 46.1985 12.3495 46.0679 12.426C45.8037 12.5809 43.8012 13.0913 43.0253 13.2814C42.2345 13.1386 41.5793 13.3412 41.3751 13.4161C41.3208 13.3514 41.2959 13.2887 41.2853 13.2397C41.2683 13.16 41.2807 13.0789 41.3184 13.0227C41.3799 12.9312 41.5071 12.9225 41.6193 12.9147C41.668 12.9114 41.7116 12.9084 41.7498 12.8989C41.7742 12.906 41.8041 12.9202 41.8037 12.931C41.8014 12.9736 41.8283 13.0121 41.8689 13.0249C41.9096 13.0376 41.9535 13.0214 41.9761 12.9851C41.9819 12.9761 42.1136 12.7601 42.0116 12.5762C41.9373 12.4425 41.7668 12.3722 41.5043 12.3671C41.3965 12.292 40.9899 12.0475 40.4887 12.2364C39.9812 12.4278 39.7558 12.9492 39.6813 13.1695C39.2863 13.1146 37.4727 12.8379 36.4866 12.2591C36.4388 12.2373 36.2752 12.1732 36.1837 12.2602C36.1275 12.3134 36.121 12.396 36.164 12.5059C36.1868 12.5641 36.2219 12.6209 36.2684 12.6768C35.7405 12.4345 35.0291 12.0961 34.4911 11.7952C34.407 11.7562 34.2543 11.7032 34.1756 11.7858C34.1263 11.8378 34.1269 11.9133 34.1778 12.0102C34.1886 12.0308 34.1991 12.0536 34.2108 12.0787C34.2631 12.1915 34.3344 12.3453 34.5089 12.523C34.3786 12.4518 34.261 12.3786 34.1669 12.3054C33.6948 11.9381 33.6308 11.9021 33.5463 11.9592C33.4735 12.0083 33.497 12.0911 33.5219 12.1789L33.5284 12.202C33.5489 12.275 33.5823 12.3926 33.6741 12.5344C33.601 12.4846 33.5381 12.4744 33.4886 12.509C33.4591 12.5292 33.4147 12.5802 33.4489 12.6921C33.531 12.9598 34.0984 13.6643 35.1776 13.8721C35.0691 13.8879 34.9551 13.8996 34.8449 13.9018C34.803 13.9027 34.7668 13.9313 34.7565 13.9719C34.7461 14.0124 34.764 14.055 34.8003 14.0759C34.82 14.0872 35.2015 14.3007 35.9009 14.2825C35.7963 14.3089 35.6776 14.3293 35.5463 14.337C35.5056 14.3393 35.471 14.3681 35.4612 14.4078C35.4515 14.4474 35.4687 14.4888 35.5037 14.5099C35.5245 14.5225 35.9304 14.7613 36.5588 14.726L36.504 14.7596C36.4726 14.7791 36.4554 14.8151 36.4604 14.8517C36.4655 14.8884 36.4918 14.9186 36.5272 14.9288C36.5469 14.9344 36.9011 15.0329 37.3423 14.9863L37.2647 15.0415C37.2336 15.0637 37.219 15.1026 37.2282 15.1397C37.2373 15.1768 37.2681 15.2047 37.306 15.2098C37.314 15.211 37.3711 15.2184 37.4625 15.2184C37.5227 15.2184 37.5979 15.2151 37.6837 15.2047C37.6817 15.2269 37.6844 15.2492 37.6917 15.2712C37.7358 15.4041 37.9315 15.4362 37.9967 15.4371C38.0007 15.4371 38.0046 15.4371 38.0085 15.4371C38.0873 15.4371 38.1704 15.426 38.2555 15.4091C38.3915 15.5361 38.6398 15.5245 38.8807 15.4684C38.8665 15.4901 38.8556 15.5118 38.8487 15.5333C38.8348 15.5773 38.8454 15.6222 38.8769 15.6537C38.9077 15.6841 38.9815 15.7575 39.6551 15.5681C39.6522 15.5704 39.6495 15.5724 39.6467 15.5747C39.5571 15.644 39.5628 15.7156 39.5742 15.7521C39.6155 15.8845 39.9126 15.9694 40.4516 16.0055C40.4635 16.3053 40.3802 16.6309 40.3794 16.6345C40.37 16.6704 40.3828 16.7085 40.412 16.7314C40.4411 16.7542 40.481 16.7577 40.5138 16.7402C40.5451 16.7234 40.576 16.7017 40.6053 16.6784L40.6028 16.7774C40.6018 16.8134 40.6217 16.8467 40.6538 16.863C40.6673 16.8698 40.6816 16.8731 40.6962 16.8731C40.6999 16.8731 40.7033 16.8717 40.7069 16.8713C40.6968 16.9557 40.6626 17.0566 40.5542 17.0803C40.5051 17.0911 40.453 17.0964 40.4025 17.1015C40.173 17.1251 39.913 17.1517 39.8719 17.6777C39.8688 17.7172 39.8909 17.7542 39.9271 17.7703C39.9632 17.786 40.0055 17.7777 40.0327 17.749L40.1326 17.6427C40.1913 17.6572 40.2851 17.6719 40.3853 17.6558C40.3601 17.7775 40.3676 17.9273 40.4893 18.0544C40.5157 18.0818 40.5561 18.0905 40.5915 18.0763C40.6268 18.0621 40.6499 18.0278 40.6499 17.9898V17.9224C40.7078 17.9089 40.7846 17.8808 40.8573 17.823C40.8999 17.9149 40.9811 18.0228 41.1358 18.1137C41.1505 18.1223 41.1669 18.1266 41.1831 18.1266C41.2044 18.1266 41.2257 18.1193 41.2427 18.105C41.273 18.0799 41.2842 18.0384 41.2708 18.0015L41.222 17.8674C41.256 17.8339 41.3003 17.7861 41.3387 17.7349C41.3578 17.7627 41.3898 17.7786 41.424 17.7753C41.4595 17.7718 41.4899 17.7485 41.5025 17.7151L41.5368 17.6238C41.557 17.6182 41.5763 17.6115 41.5948 17.604C41.6177 17.806 41.7731 17.9742 41.7825 17.9841C41.8004 18.0032 41.8251 18.0135 41.8504 18.0135C41.858 18.0135 41.8656 18.0127 41.8731 18.0107C41.906 18.0024 41.9317 17.9771 41.9405 17.9444L41.9924 17.7505C42.1301 17.6807 42.1436 17.5544 42.152 17.4757C42.1537 17.4602 42.156 17.4388 42.1564 17.428C42.2102 17.4545 42.3243 17.5826 42.4103 17.7155C42.4274 17.7419 42.4568 17.7581 42.4882 17.7582C42.5203 17.7559 42.5491 17.7425 42.5666 17.7163C42.5666 17.7163 42.6394 17.606 42.6749 17.5416C42.8253 17.2686 42.5974 17.1051 42.4879 17.0266C42.4611 17.0073 42.4243 16.9809 42.4183 16.9736C42.3978 16.9236 42.4049 16.877 42.4184 16.8409C42.5097 16.9038 42.6135 16.9568 42.7285 16.9839C42.7356 16.9856 42.7427 16.9863 42.7498 16.9863C42.7797 16.9863 42.8085 16.9717 42.8261 16.9465C42.8481 16.9152 42.8487 16.8737 42.8278 16.8419C42.8257 16.8386 42.6542 16.5748 42.5436 16.2503C42.7223 16.3549 42.9638 16.4815 43.0892 16.4815C43.1753 16.4815 43.2081 16.428 43.2182 16.405C43.2243 16.3916 43.2349 16.3672 43.2264 16.3215C43.3924 16.4112 43.5795 16.4806 43.7218 16.4439C43.7638 16.4331 43.8624 16.4076 43.8773 16.3193C43.8848 16.2745 43.8698 16.2384 43.8368 16.2027C43.9909 16.2401 44.157 16.2588 44.3199 16.2372C44.4557 16.2192 44.4958 16.1534 44.5055 16.1011C44.5117 16.0677 44.5226 16.0036 44.4014 15.8823C44.6355 15.8695 44.8445 15.8183 44.8617 15.6771C44.8633 15.6644 44.8609 15.6529 44.8597 15.641C45.6121 15.559 46.1845 15.0885 46.2098 15.0673C46.2171 15.0611 46.2221 15.0535 46.2271 15.0458C46.6826 14.9889 47.1999 14.8861 47.6188 14.6978C48.4092 14.3425 48.8095 13.8627 48.7378 13.6886C48.717 13.6379 48.6572 13.6012 48.5835 13.6288C48.5629 13.6365 48.5209 13.6535 48.4661 13.6759C48.9343 13.295 49.1174 12.9425 49.1349 12.9073ZM47.761 12.3777C47.4174 12.7139 46.7701 13.1973 45.7027 13.4777C45.6934 13.4802 45.6854 13.4849 45.6777 13.4898C45.4533 13.4724 45.1695 13.4314 44.9206 13.3385C45.7095 13.1596 46.8178 12.8514 47.761 12.3777ZM43.011 13.4683C43.0242 13.4707 43.0375 13.4704 43.0503 13.4673C43.1614 13.4401 45.7309 12.81 46.1434 12.5972C46.0954 12.6917 46.0034 12.8241 45.928 12.8794C45.9258 12.8809 45.9248 12.8833 45.9229 12.885C44.8165 13.2134 43.8775 13.3518 43.8621 13.354C43.8111 13.3613 43.7756 13.4086 43.783 13.4596C43.7903 13.5105 43.8374 13.5459 43.8885 13.5387C43.897 13.5374 44.1822 13.4955 44.62 13.4041C44.8466 13.5341 45.1252 13.6057 45.3789 13.6445C44.9999 13.6765 44.6492 13.6582 44.6434 13.6579C44.5993 13.6562 44.5562 13.687 44.5469 13.7322C44.5376 13.7774 44.5627 13.8227 44.6062 13.8386L44.959 13.9679C44.4629 14.0734 43.9846 13.9743 43.979 13.9731C43.9407 13.9646 43.9017 13.9813 43.8808 14.014C43.8599 14.0468 43.8614 14.0891 43.8847 14.1202C43.9521 14.21 44.1421 14.3045 44.308 14.3741C43.6259 14.5032 43.1566 14.0851 43.1344 14.065C43.0965 14.0305 43.0377 14.0329 43.0031 14.0706C42.9683 14.1083 42.9704 14.1669 43.0077 14.2019C43.5464 14.7061 44.5505 14.9209 45.0012 14.9948C44.9345 15.0343 44.854 15.0715 44.7698 15.0865C44.4239 15.1479 43.6252 14.768 43.0633 14.4607L42.6133 14.2011C42.5693 14.1755 42.5127 14.1903 42.4866 14.2341C42.4604 14.2779 42.4744 14.3347 42.5178 14.3613C42.5394 14.3746 42.7159 14.4826 42.9667 14.6204L44.0619 15.2525C43.7258 15.294 43.3713 15.2188 43.3669 15.2178C43.3642 15.2173 43.3617 15.218 43.3589 15.2178C43.1026 15.0375 42.6889 14.734 42.0678 14.2189C41.9678 13.8621 41.7805 13.7054 41.5461 13.5564C41.8112 13.4751 42.3702 13.3481 43.011 13.4683ZM43.6879 15.4463C43.6874 15.4465 43.687 15.4469 43.6863 15.4471C43.6863 15.4471 43.6854 15.4465 43.685 15.4462C43.6861 15.4462 43.6871 15.4463 43.6879 15.4463ZM37.6117 15.0232L37.8251 14.8714C37.863 14.8444 37.8753 14.7935 37.8538 14.7523C37.8322 14.7109 37.7834 14.6921 37.7396 14.7075C37.3872 14.8334 37.0303 14.8206 36.8069 14.7919L37.054 14.6398C37.0934 14.6156 37.1091 14.5662 37.0908 14.5236C37.0727 14.4811 37.0263 14.4584 36.9813 14.4701C36.5316 14.5882 36.1571 14.5391 35.9119 14.4715C36.3017 14.3805 36.5279 14.208 36.5399 14.1988C36.574 14.1724 36.5855 14.1261 36.5679 14.0867C36.5501 14.0474 36.5079 14.0259 36.4655 14.0334C35.9518 14.1302 35.5551 14.0982 35.2887 14.0431C35.5639 13.997 35.7826 13.9312 35.7962 13.9271C35.7979 13.9267 35.7989 13.9254 35.8004 13.9249C35.8067 13.9226 35.812 13.919 35.8177 13.9156C35.8225 13.9126 35.8272 13.9101 35.8314 13.9064C35.8358 13.9023 35.839 13.8974 35.8427 13.8926C35.8462 13.8878 35.8499 13.8835 35.8524 13.8782C35.8548 13.8731 35.8559 13.8676 35.8574 13.8622C35.8592 13.8558 35.8609 13.8499 35.8614 13.8432C35.8614 13.8418 35.8623 13.8404 35.8623 13.8389C35.8623 13.834 35.8604 13.8297 35.8596 13.825C35.8589 13.8204 35.8597 13.8157 35.8583 13.811C35.8579 13.8096 35.8566 13.8086 35.8562 13.8071C35.8539 13.8009 35.8504 13.7956 35.847 13.79C35.8439 13.7851 35.8415 13.7801 35.8377 13.7759C35.8337 13.7715 35.8289 13.7683 35.8241 13.7647C35.8192 13.761 35.8148 13.7572 35.8094 13.7546C35.8044 13.7522 35.7988 13.7512 35.7935 13.7497C35.7871 13.7478 35.7811 13.746 35.7744 13.7456C35.7728 13.7455 35.7716 13.7446 35.77 13.7446C34.5717 13.7334 33.9104 13.103 33.6986 12.7813C34.0719 13.0415 34.5624 13.2623 34.9196 13.3891H34.9199C35.395 13.5725 35.9872 13.6894 36.0123 13.6943C36.0627 13.7041 36.1119 13.6714 36.1218 13.6207C36.1317 13.5701 36.0987 13.5211 36.0481 13.5112C36.0421 13.51 35.4449 13.3923 34.9846 13.2141C33.9918 12.8299 33.7906 12.4138 33.7236 12.2036C33.8309 12.2799 33.975 12.3921 34.0523 12.4521C34.6334 12.9041 35.9856 13.3315 36.0429 13.3496C36.0919 13.3651 36.1436 13.3382 36.1595 13.2895C36.1753 13.2409 36.1492 13.1887 36.1009 13.1722C34.7027 12.6959 34.4928 12.2431 34.38 11.9999C34.3702 11.9788 34.361 11.9591 34.352 11.9407C34.3708 11.9466 34.3904 11.9538 34.4064 11.9609C35.1815 12.3946 36.3206 12.9082 36.7512 13.0988C36.6737 13.1361 36.5925 13.1673 36.5387 13.1703C36.5028 13.1724 36.4711 13.1947 36.4575 13.2282C36.4438 13.2615 36.4506 13.2997 36.4748 13.3263C36.4806 13.3325 36.5719 13.4305 36.7494 13.4688L36.6234 13.551C36.5939 13.5703 36.5777 13.6047 36.5817 13.6397C36.5858 13.6749 36.6093 13.7047 36.6425 13.7168C36.6511 13.7199 36.795 13.7706 36.9853 13.7906L36.8804 13.8671C36.8537 13.8865 36.8395 13.9185 36.8426 13.9514C36.8457 13.9842 36.8659 14.0129 36.8958 14.0269C36.908 14.0326 37.0514 14.0977 37.2814 14.0869L37.2735 14.0924C37.2433 14.1137 37.2284 14.1509 37.2356 14.1872C37.2429 14.2235 37.2712 14.252 37.3074 14.2599C37.3217 14.263 37.4978 14.2992 37.7506 14.2705L37.6932 14.3088C37.6626 14.329 37.6469 14.3656 37.6528 14.4017C37.6589 14.438 37.6855 14.4673 37.7212 14.4766C37.7483 14.4837 38.1565 14.5852 38.6923 14.4153C38.58 14.4892 38.4753 14.5429 38.3888 14.5623C38.3493 14.5713 38.32 14.6046 38.3164 14.6449C38.3127 14.6852 38.3355 14.7233 38.3727 14.7392C38.3752 14.7403 38.3844 14.7438 38.3966 14.7482C38.1103 14.9377 37.8177 15.0035 37.6117 15.0232ZM37.1603 13.3309C37.1423 13.2892 37.097 13.2664 37.0526 13.2774C36.9446 13.3038 36.8572 13.3012 36.7898 13.2869C36.9004 13.2377 36.9948 13.179 37.0116 13.1683C37.0185 13.1641 37.0242 13.1589 37.0295 13.1533C37.1955 13.2201 37.3839 13.2843 37.5952 13.3456L37.2371 13.6069C37.1172 13.6196 36.9982 13.6082 36.9034 13.5912L37.1257 13.4463C37.1638 13.4212 37.1784 13.3725 37.1603 13.3309ZM37.9985 15.2504C37.9631 15.25 37.8976 15.2318 37.8733 15.2145C37.8795 15.2048 37.895 15.1855 37.9295 15.1582C38.1497 15.1017 38.4026 14.9947 38.645 14.797C38.8993 14.8154 39.2992 14.755 39.7067 14.3455C39.7218 14.3727 39.7376 14.4004 39.7558 14.4285C39.7117 14.4618 38.6586 15.2562 37.9985 15.2504ZM38.7263 14.6134C39.0279 14.4318 39.3654 14.1161 39.576 13.9051C39.5792 13.9822 39.5941 14.0708 39.6276 14.168C39.6204 14.1723 39.6129 14.1762 39.6067 14.1826C39.2723 14.5352 38.9471 14.6131 38.7263 14.6134ZM40.4786 15.821C40.1715 15.8 39.8855 15.7522 39.781 15.7061C40.0351 15.5078 40.108 15.4203 40.1156 15.4106C40.1413 15.3785 40.1428 15.3333 40.1195 15.2994C40.096 15.2654 40.053 15.2508 40.014 15.2637C39.6793 15.3719 39.2882 15.4774 39.095 15.5046C39.1837 15.425 39.3415 15.3244 39.4839 15.2531C39.5296 15.2303 39.5484 15.1749 39.5262 15.129C39.5039 15.083 39.4488 15.0637 39.4025 15.0852C39.1486 15.2047 38.7851 15.325 38.5577 15.3231C39.1768 15.1002 39.8081 14.6233 39.8681 14.5773C39.9158 14.6341 39.9683 14.6918 40.0316 14.7505C40.5887 15.2684 40.5277 15.6749 40.4786 15.821ZM40.6323 16.3898C40.6272 16.396 40.6204 16.4041 40.6119 16.4134C40.6321 16.2754 40.6466 16.1021 40.6334 15.9374C40.6846 15.8246 40.7885 15.4902 40.5196 15.0467C40.6969 15.0724 41.1041 15.1578 41.2802 15.414C41.3036 15.448 41.3268 15.4857 41.3498 15.5248L41.3496 15.5251C41.3409 15.5457 41.1644 15.9729 41.2208 16.507C41.1795 16.4584 41.1401 16.3988 41.1136 16.329C41.1011 16.2963 41.0716 16.2731 41.0366 16.2694C41.0021 16.2657 40.9677 16.2816 40.9484 16.3109C40.9091 16.3706 40.8522 16.4524 40.7956 16.5269L40.7975 16.4515C40.7986 16.4118 40.7743 16.3758 40.737 16.3618C40.6999 16.3478 40.6577 16.359 40.6323 16.3898ZM41.2338 17.551C41.2152 17.6066 41.1157 17.7139 41.051 17.7722C41.0488 17.7743 41.0466 17.7765 41.0445 17.7788C40.9958 17.6982 40.9975 17.6344 40.9976 17.6309C41.0009 17.5873 40.9733 17.5473 40.9314 17.5346C40.8894 17.522 40.8444 17.5403 40.8231 17.5784C40.7378 17.7307 40.588 17.7464 40.5605 17.7481C40.5653 17.6357 40.6301 17.5336 40.6343 17.5273C40.6601 17.4881 40.6527 17.4357 40.617 17.4052C40.5814 17.3748 40.5286 17.3754 40.4937 17.4069C40.3568 17.5308 40.1393 17.4507 40.1374 17.45C40.1284 17.4465 40.1192 17.4445 40.1099 17.4438C40.1702 17.3128 40.2756 17.302 40.4212 17.2872C40.4767 17.2815 40.5342 17.2756 40.5937 17.2625C40.8808 17.1997 40.9147 16.8823 40.8925 16.7232C40.8918 16.7188 40.8894 16.7152 40.8882 16.7111C40.9331 16.6558 40.9779 16.5953 41.0151 16.543C41.0333 16.5709 41.0528 16.596 41.0724 16.6197C41.073 16.6878 41.0768 16.8976 41.1005 17.0081C41.1192 17.0958 41.1834 17.1549 41.2449 17.1927C41.2347 17.2126 41.2261 17.2335 41.2207 17.2561C41.1987 17.3465 41.2174 17.4458 41.2453 17.5309C41.241 17.5377 41.2362 17.5435 41.2338 17.551ZM41.2829 16.9692C41.2739 16.9276 41.2683 16.8622 41.2647 16.7964C41.2908 16.8143 41.3091 16.8252 41.3118 16.8265C41.3442 16.8445 41.3844 16.8418 41.4139 16.819C41.4433 16.7964 41.4566 16.7584 41.4476 16.7224C41.3491 16.3284 41.4151 15.9597 41.4698 15.7578C41.6304 16.1108 41.7457 16.5465 41.7058 16.8338C41.6997 16.8777 41.7255 16.9199 41.7672 16.9346C41.7759 16.9377 41.7849 16.9386 41.7937 16.939C41.7927 16.9488 41.7918 16.9591 41.7906 16.9682C41.6962 16.9653 41.5407 16.9798 41.39 17.0582C41.3468 17.04 41.291 17.007 41.2829 16.9692ZM42.5114 17.4514C42.504 17.4649 42.4948 17.4804 42.485 17.4965C42.3737 17.349 42.2208 17.1973 42.0899 17.2467C41.9844 17.287 41.9736 17.3884 41.9664 17.4557C41.9578 17.5369 41.9516 17.5707 41.8839 17.5939C41.8546 17.604 41.8321 17.628 41.824 17.6579L41.8135 17.6966C41.778 17.6183 41.7591 17.5238 41.8122 17.4432C41.8393 17.4019 41.8295 17.3467 41.7897 17.3173C41.75 17.2879 41.694 17.2945 41.6624 17.3325C41.6615 17.3335 41.577 17.4329 41.4542 17.4504C41.4415 17.4522 41.4295 17.4566 41.4188 17.4631C41.4009 17.406 41.3907 17.3464 41.4019 17.3002C41.4087 17.2726 41.4223 17.2539 41.446 17.2395C41.6328 17.1264 41.8508 17.1586 41.8527 17.159C41.9019 17.1672 41.9472 17.136 41.9584 17.0882C41.9634 17.067 42.0034 16.885 41.9742 16.7327L42.0949 16.53C42.1382 16.5854 42.1969 16.6535 42.2688 16.7205C42.2292 16.7931 42.1905 16.9105 42.2457 17.0444C42.2678 17.0983 42.3194 17.1352 42.3791 17.1779C42.5312 17.2872 42.5715 17.3421 42.5114 17.4514ZM42.1679 16.3107C42.1508 16.2827 42.1169 16.2676 42.0878 16.2659C42.055 16.266 42.0249 16.2833 42.008 16.3114L41.8868 16.5151C41.8356 16.1026 41.6413 15.6098 41.434 15.3082C41.1644 14.9161 40.4979 14.8418 40.3722 14.8423C40.3111 14.768 40.2428 14.6922 40.1586 14.6138C39.6054 14.0996 39.7873 13.6886 39.7961 13.6694C39.7969 13.6678 39.7967 13.6661 39.7973 13.6644C39.7998 13.6584 39.8009 13.6523 39.8019 13.6461C39.803 13.6404 39.8044 13.6349 39.8044 13.6291C39.8044 13.6231 39.803 13.6177 39.802 13.6118C39.8009 13.6058 39.8 13.6001 39.7978 13.5943C39.7957 13.5891 39.7926 13.5848 39.7894 13.5799C39.786 13.5743 39.7827 13.5688 39.7779 13.5641C39.7766 13.5629 39.7762 13.5611 39.7748 13.5599C39.7715 13.5568 39.7674 13.5557 39.7636 13.5532C39.7598 13.5507 39.7572 13.5471 39.753 13.545C39.7512 13.5441 39.7495 13.5443 39.7477 13.5436C39.7417 13.5412 39.7356 13.5399 39.7293 13.5388C39.7234 13.5377 39.7179 13.5363 39.7123 13.5363C39.7063 13.5363 39.7009 13.5376 39.695 13.5387C39.6889 13.5397 39.6832 13.5406 39.6775 13.5429C39.6723 13.5449 39.6679 13.5481 39.663 13.5512C39.6574 13.5547 39.6519 13.558 39.6472 13.5627C39.646 13.564 39.6442 13.5645 39.643 13.5658L39.6429 13.5659C39.0099 14.2574 38.3474 14.3396 38.0042 14.3252L38.4023 14.0597C38.4806 14.0159 38.5596 13.9639 38.6381 13.9022C38.6775 13.8712 38.6853 13.8147 38.656 13.7742C38.6266 13.7335 38.5704 13.7235 38.5288 13.7514L38.3101 13.8971C38.0405 14.0467 37.78 14.0869 37.5979 14.0926L37.8054 13.9472C37.9647 13.8701 38.1387 13.7544 38.3219 13.5839C38.3577 13.5505 38.3617 13.495 38.3308 13.4569C38.3002 13.4188 38.2452 13.4112 38.2048 13.4391L37.7102 13.7858C37.4753 13.8965 37.2829 13.91 37.1537 13.8982L37.8608 13.382C37.8899 13.3608 37.9042 13.3248 37.8975 13.2894C37.8908 13.2541 37.8644 13.2258 37.8298 13.2165C36.6771 12.9097 36.4 12.5965 36.3375 12.437C36.332 12.423 36.3284 12.4118 36.3263 12.403C36.3495 12.4065 36.3807 12.4153 36.4008 12.4238C37.5302 13.0875 39.646 13.3533 39.7354 13.3644C39.7815 13.369 39.8243 13.3413 39.8366 13.2968C39.8685 13.1819 40.053 12.5995 40.5543 12.4103C41.027 12.2323 41.3993 12.5203 41.4147 12.5323C41.4313 12.5456 41.4518 12.5528 41.473 12.5528C41.6739 12.5528 41.8071 12.5929 41.8479 12.6657C41.861 12.6891 41.8648 12.7158 41.8634 12.7426C41.8308 12.726 41.7949 12.7148 41.7594 12.7096C41.7434 12.7071 41.7271 12.709 41.712 12.7148C41.6936 12.722 41.6472 12.7252 41.6064 12.728C41.4749 12.7371 41.276 12.7508 41.1635 12.9181C41.0971 13.0168 41.0751 13.148 41.1029 13.2781C41.1203 13.3593 41.1637 13.4653 41.2629 13.5688C41.2726 13.5882 41.2882 13.6022 41.3066 13.6108C41.3406 13.641 41.3785 13.6708 41.4237 13.6991C41.6438 13.8367 41.8053 13.9638 41.8912 14.2752C41.8919 14.2862 41.8947 14.2967 41.8992 14.3067C41.9343 14.4473 41.9553 14.6232 41.96 14.8521C41.9611 14.903 42.0027 14.9435 42.0532 14.9435C42.0532 14.9435 42.0546 14.9435 42.0552 14.9435C42.1067 14.9425 42.1476 14.8998 42.1466 14.8483C42.1439 14.7201 42.1355 14.6075 42.1229 14.5055C42.8177 15.073 43.228 15.3551 43.4337 15.4962C43.4627 15.5161 43.4903 15.5349 43.5143 15.5518C43.3049 15.5709 42.9734 15.3798 42.7141 15.1821C42.6289 15.1052 42.5483 15.0416 42.5046 15.0082C42.465 14.9778 42.4085 14.9841 42.3764 15.0224C42.3444 15.0607 42.3482 15.1175 42.385 15.1512C42.4087 15.1727 42.4838 15.24 42.5895 15.3218C42.7117 15.4328 42.806 15.5376 42.8356 15.5979C42.6904 15.5674 42.2921 15.3304 41.9681 15.0992C41.9282 15.0707 41.8732 15.078 41.842 15.1157C41.8108 15.1535 41.8141 15.2091 41.8496 15.2428C42.0732 15.4551 42.2109 15.649 42.2985 16.0646C42.3484 16.3017 42.4451 16.5267 42.5276 16.6898C42.3101 16.5414 42.1699 16.3138 42.1679 16.3107ZM44.2955 16.052C43.8017 16.1169 43.243 15.7405 43.2375 15.7367C43.1976 15.7095 43.1436 15.7171 43.1131 15.7543C43.0823 15.7914 43.0849 15.8457 43.119 15.8797C43.2807 16.0414 43.4457 16.1512 43.566 16.2313C43.5834 16.2429 43.6022 16.2554 43.6202 16.2677C43.4407 16.2588 43.1288 16.0564 42.9568 15.9156C42.9191 15.8846 42.8637 15.8882 42.8299 15.9237C42.7963 15.9592 42.7959 16.0146 42.8288 16.0507C42.8984 16.1269 42.9644 16.2122 43.0044 16.2745C42.8681 16.2247 42.6381 16.0938 42.472 15.9876C42.4337 15.8174 42.3864 15.6789 42.3282 15.5615C42.8701 15.8843 42.9613 15.7754 42.9956 15.7344C43.0155 15.7104 43.0378 15.6693 43.031 15.6088C43.031 15.6085 43.031 15.6081 43.031 15.6081C43.2522 15.72 43.4893 15.786 43.6712 15.701C43.6903 15.692 43.7177 15.6778 43.7397 15.6552C44.0754 15.8428 44.2511 15.9833 44.3045 16.0507C44.3016 16.051 44.2986 16.0515 44.2955 16.052ZM44.1687 15.6975C44.0657 15.6276 43.9337 15.5471 43.7603 15.453C43.7568 15.4511 43.7528 15.451 43.7491 15.4496C43.7796 15.4508 43.8109 15.4516 43.843 15.4516C43.9327 15.4516 44.0271 15.4455 44.1208 15.4318C44.128 15.4364 44.1348 15.4415 44.1434 15.4442C44.4324 15.535 44.6063 15.6041 44.662 15.6503C44.5876 15.6825 44.3744 15.7035 44.1687 15.6975ZM44.7184 15.4651C44.7184 15.4651 44.7173 15.4654 44.7167 15.4654C44.6417 15.4218 44.5351 15.3789 44.3994 15.3321C44.4042 15.3223 44.408 15.3119 44.409 15.3006C44.4113 15.2775 44.4048 15.255 44.3919 15.2369C44.5504 15.2748 44.6921 15.2897 44.8027 15.2701C44.9418 15.2453 45.0679 15.1767 45.1592 15.1151H45.1593C45.253 15.1151 45.5189 15.1118 45.8596 15.0838C45.6136 15.2358 45.1941 15.4444 44.7184 15.4651ZM48.4809 13.8712C48.3539 14.0308 48.0656 14.2922 47.5421 14.5275C46.8272 14.849 45.7713 14.9131 45.3313 14.9255C45.3306 14.9184 45.3298 14.9115 45.3274 14.9047C45.3158 14.8704 45.2853 14.846 45.2493 14.8419C45.241 14.841 44.7686 14.786 44.2432 14.6276C44.5582 14.6574 44.8554 14.6721 45.1335 14.6721C45.919 14.6721 46.5606 14.5627 47.0824 14.3986C47.0851 14.3982 47.0877 14.3988 47.0905 14.3982C47.378 14.3229 48.0631 14.0423 48.4311 13.8916C48.4486 13.8843 48.4651 13.8775 48.4809 13.8712ZM47.9833 13.782C47.3764 14.1577 46.318 14.5591 44.6438 14.4694C44.6763 14.4537 44.6977 14.4211 44.6969 14.3843C44.6961 14.3449 44.6708 14.3103 44.6335 14.2977C44.5586 14.2724 44.4697 14.2389 44.3832 14.2027C44.6394 14.2102 44.973 14.1863 45.2901 14.0641C45.3263 14.0502 45.3501 14.0152 45.3497 13.9764C45.3495 13.9375 45.325 13.9028 45.2885 13.8895L45.1666 13.8449C45.4759 13.832 45.8551 13.7915 46.1196 13.6802C46.1613 13.6626 46.1842 13.6178 46.1744 13.5737C46.1738 13.5715 46.1724 13.5696 46.1718 13.5674C46.7305 13.4274 47.7592 13.1045 48.8211 12.4392C48.5924 12.8192 47.9281 13.526 46.0474 13.9704C45.9987 13.9819 45.9676 14.0298 45.9773 14.0789C45.9869 14.1281 46.0335 14.1603 46.0828 14.1533C46.0968 14.1512 47.3753 13.9504 48.6953 13.1948C48.5389 13.3687 48.3078 13.5811 47.9833 13.782Z" fill="#464655"/>
</g>
<defs>
<clipPath id="clip0_3462_28628">
<rect width="50" height="50" fill="white" transform="translate(0.603516 0.324219)"/>
</clipPath>
</defs>
</svg>
