<svg width="51" height="51" viewBox="0 0 51 51" fill="none" xmlns="http://www.w3.org/2000/svg">
<g clip-path="url(#clip0_3462_28612)">
<path d="M50.0312 13.6253H0.03125V9.80742C0.03125 9.33135 0.417284 8.94531 0.893358 8.94531H49.1691C49.6452 8.94531 50.0312 9.33135 50.0312 9.80742L50.0312 13.6253Z" fill="#73AF00"/>
<path d="M50.0312 13.625H0.03125V18.305H50.0312V13.625Z" fill="#FFE15A"/>
<path d="M50.0312 18.3047H0.03125V22.9847H50.0312V18.3047Z" fill="#FF4B55"/>
<path d="M0.03125 37.0234H50.0312V40.8412C50.0312 41.3173 49.6451 41.7033 49.169 41.7033H0.893358C0.417284 41.7033 0.03125 41.3173 0.03125 40.8412V37.0234Z" fill="#73AF00"/>
<path d="M50.0312 32.3438H0.03125V37.0237H50.0312V32.3438Z" fill="#FFE15A"/>
<path d="M50.0312 27.6641H0.03125V32.344H50.0312V27.6641Z" fill="#FF4B55"/>
<path d="M50.0309 22.9847H19.1538L1.41982 8.94531H0.893065C0.670605 8.94531 0.472265 9.03516 0.319336 9.17363V41.4756C0.472265 41.614 0.670605 41.7038 0.893065 41.7038H1.41992L19.1538 27.6644H50.0309V22.9847Z" fill="#464655"/>
<path d="M0.319628 41.4757L20.7209 25.3248L0.319628 9.17383C0.145215 9.33164 0.03125 9.55391 0.03125 9.80752V40.8419C0.03125 41.0956 0.145215 41.3179 0.319628 41.4757Z" fill="#F5F5F5"/>
<path d="M8.43642 19.0195L10.2531 22.7005L14.3152 23.2908L11.3758 26.1559L12.0697 30.2016L8.43642 28.2915L4.80312 30.2016L5.49706 26.1559L2.55762 23.2908L6.61982 22.7005L8.43642 19.0195Z" fill="#FF4B55"/>
<path d="M13.1493 25.7935L8.3216 22.0562C7.75676 20.7326 6.95393 19.8789 6.27239 19.8789C5.69338 19.8789 5.41028 20.4155 5.32923 20.738C4.91223 20.9311 4.81438 21.3153 4.81028 21.332C4.80344 21.3596 4.80999 21.3889 4.82737 21.4111C4.84495 21.4334 4.87171 21.4465 4.90012 21.4465L4.98655 21.4448C5.37444 21.4358 6.02073 21.4188 6.18596 22.6511C6.28909 23.4205 6.13596 24.7987 5.64915 25.8375C5.30891 26.5633 5.42131 27.1502 5.4263 27.1748C5.43557 27.2211 5.47864 27.2515 5.52669 27.2486C5.53411 27.2478 5.55208 27.2472 5.57493 27.2464L5.96555 29.4548C5.97346 29.4989 6.01165 29.5311 6.05657 29.5311H11.885C11.9276 29.5311 11.9648 29.5019 11.9748 29.4605L12.6259 26.7863C12.6261 26.7855 12.627 26.7851 12.6272 26.7844C12.6276 26.7829 12.6271 26.7814 12.6274 26.78L12.8342 25.9306C12.9872 25.9486 13.0782 25.9581 13.0833 25.9587C13.1275 25.9644 13.1634 25.9392 13.1785 25.9011C13.1937 25.8629 13.182 25.8189 13.1493 25.7935Z" fill="#FFE15A"/>
<path d="M13.1493 25.7935L8.3216 22.0562C7.75676 20.7326 6.95393 19.8789 6.27239 19.8789C5.69338 19.8789 5.41028 20.4155 5.32923 20.738C4.91223 20.9311 4.81438 21.3153 4.81028 21.332C4.80344 21.3596 4.80999 21.3889 4.82737 21.4111C4.84495 21.4334 4.87171 21.4465 4.90012 21.4465L4.98655 21.4448C5.37444 21.4358 6.02073 21.4188 6.18596 22.6511C6.28909 23.4205 6.13596 24.7987 5.64915 25.8375C5.30891 26.5633 5.42131 27.1502 5.4263 27.1748C5.43557 27.2211 5.47864 27.2515 5.52669 27.2486C5.53411 27.2478 5.55208 27.2472 5.57493 27.2464L5.96555 29.4548C5.97346 29.4989 6.01165 29.5311 6.05657 29.5311H11.885C11.9276 29.5311 11.9648 29.5019 11.9748 29.4605L12.6259 26.7863C12.6261 26.7855 12.627 26.7851 12.6272 26.7844C12.6276 26.7829 12.6271 26.7814 12.6274 26.78L12.8342 25.9306C12.9872 25.9486 13.0782 25.9581 13.0833 25.9587C13.1275 25.9644 13.1634 25.9392 13.1785 25.9011C13.1937 25.8629 13.182 25.8189 13.1493 25.7935ZM5.81643 25.9162C6.25706 24.9764 6.49465 23.5621 6.36926 22.6267C6.19036 21.2925 5.44153 21.2506 5.03714 21.2587C5.09446 21.1473 5.2136 20.9836 5.44378 20.8897C5.47229 20.8782 5.49309 20.8529 5.49934 20.8227C5.50579 20.7917 5.66321 20.0641 6.27219 20.0641C6.87366 20.0641 7.63254 20.9027 8.16067 22.1508C8.16682 22.1654 8.17668 22.1782 8.18918 22.1879L12.7741 25.7372C11.966 25.6391 9.85441 25.3482 8.60363 24.8554C7.94983 24.5978 7.8008 24.2059 7.66936 23.8601C7.65129 23.8123 7.59758 23.7887 7.54992 23.8066C7.50217 23.8248 7.47815 23.8783 7.49641 23.9261C7.62707 24.2696 7.80608 24.7403 8.53586 25.0278C8.68459 25.0864 8.84514 25.1422 9.01398 25.1951C8.98459 25.2843 8.79748 25.7387 7.96789 26.0367C7.29563 26.2783 6.81721 26.6855 6.75188 27.0534C6.50618 27.0524 6.28694 27.0528 6.10276 27.054V26.7869C6.10276 26.584 6.29827 26.2901 6.5052 25.9789C6.79358 25.5453 7.12043 25.0538 7.12043 24.5511C7.12043 24.5 7.07893 24.4585 7.02785 24.4585C6.97678 24.4585 6.93528 24.5 6.93528 24.5511C6.93528 24.9978 6.62483 25.4646 6.351 25.8764C6.11838 26.2261 5.9176 26.5281 5.9176 26.7868V27.0555C5.77795 27.0569 5.66848 27.0588 5.5971 27.0608C5.58059 26.8867 5.57112 26.4394 5.81643 25.9162ZM9.48547 25.3302C9.37844 25.6276 9.06164 25.7283 8.82678 25.7605C9.08137 25.5343 9.1673 25.325 9.19143 25.2484C9.28732 25.2767 9.38576 25.3038 9.48547 25.3302ZM9.66379 25.3762C9.76564 25.4017 9.86838 25.4264 9.97218 25.4502C9.87775 25.6423 9.62541 25.7365 9.34963 25.776C9.48635 25.6892 9.60217 25.5613 9.66379 25.3762ZM12.2793 27.4279C11.3414 27.139 8.63478 27.065 6.9385 27.0542C6.99592 26.844 7.26213 26.5681 7.71291 26.3469C7.7175 26.3476 7.7217 26.3497 7.72649 26.3497C10.2587 26.3587 12.0213 26.7343 12.4251 26.8289L12.2793 27.4279ZM12.1599 27.9182L11.79 27.5055C11.9663 27.5362 12.1166 27.5704 12.2355 27.6084L12.1599 27.9182ZM7.37434 27.9835L7.55422 28.1528C7.49885 28.1524 7.44426 28.1518 7.38762 28.1515C7.38274 28.0972 7.37864 28.0397 7.37434 27.9835ZM12.0492 28.3726L11.5792 27.8576C11.5483 27.8236 11.4971 27.8174 11.4595 27.8431L10.9075 28.2127L10.4922 27.7575C10.4601 27.7222 10.4056 27.7175 10.3676 27.7465L9.86867 28.129L9.41594 27.682C9.38195 27.6484 9.32765 27.6463 9.29133 27.677L8.80393 28.087L8.34729 27.6633C8.31272 27.6312 8.2591 27.6306 8.22336 27.6615L7.74699 28.0802L7.3553 27.7116C7.34846 27.6016 7.3424 27.4884 7.33713 27.3719L7.68781 27.7162C7.72199 27.7499 7.77639 27.7513 7.81291 27.7203L8.30344 27.298L8.75158 27.7393C8.78537 27.7726 8.83918 27.7748 8.8758 27.7445L9.36789 27.3345L9.84006 27.7793C9.87336 27.8105 9.92414 27.8131 9.95978 27.7853L10.4536 27.4065L10.8668 27.8806C10.8981 27.9165 10.9515 27.9226 10.9903 27.8951L11.5397 27.5037L12.0858 28.1129C12.0923 28.1201 12.1005 28.1246 12.1085 28.1293L12.0492 28.3726ZM11.7716 28.3429C11.6243 28.3242 11.4187 28.3022 11.1402 28.2797L11.4964 28.0412L11.7716 28.3429ZM10.6889 28.2474C10.5031 28.2357 10.2948 28.2244 10.0622 28.2138L10.4128 27.945L10.6889 28.2474ZM9.67482 28.1975C9.4631 28.1895 9.23293 28.1823 8.98566 28.176L9.34601 27.8728L9.67482 28.1975ZM8.61887 28.1675C8.40559 28.1631 8.17893 28.1595 7.94055 28.1566L8.28303 27.8558L8.61887 28.1675ZM7.47229 27.2454C7.66428 27.2478 7.86428 27.2514 8.06887 27.2556L7.75656 27.5245L7.47229 27.2454ZM8.53566 27.2669C8.73449 27.2723 8.93537 27.2791 9.13586 27.2866L8.8216 27.5484L8.53566 27.2669ZM9.60871 27.307C9.82101 27.3173 10.0306 27.3287 10.2338 27.3418L9.90968 27.5904L9.60871 27.307ZM10.6709 27.3739C10.8992 27.3925 11.1152 27.4135 11.3141 27.4372L10.9513 27.6957L10.6709 27.3739ZM5.76194 27.2426C6.03997 27.2385 6.53831 27.2362 7.14621 27.2417C7.18088 28.121 7.25774 28.8273 7.37444 29.3462H6.13411L5.76194 27.2426ZM11.8123 29.3463H7.56379C7.49885 29.068 7.44621 28.7301 7.40588 28.3367C10.5006 28.3571 11.6763 28.5107 11.9701 28.5588C11.9788 28.5673 11.9885 28.5742 11.9992 28.5785L11.8123 29.3463ZM12.4689 26.6492C12.0776 26.5577 10.4628 26.215 8.13342 26.1703C8.29758 26.1049 8.43752 26.0341 8.55539 25.9608C8.61047 25.9678 8.77268 25.9856 8.976 25.9856C9.39816 25.9856 9.99123 25.9057 10.155 25.4911C11.1165 25.7015 12.1021 25.8397 12.6493 25.9081L12.4689 26.6492Z" fill="#464655"/>
<path d="M6.53379 20.6951C6.53379 20.5251 6.39551 20.3867 6.22539 20.3867C6.05537 20.3867 5.91699 20.525 5.91699 20.6951C5.91699 20.8651 6.05527 21.0035 6.22539 21.0035C6.39541 21.0035 6.53379 20.8651 6.53379 20.6951ZM6.22539 20.8185C6.15732 20.8185 6.10205 20.7632 6.10205 20.6951C6.10205 20.627 6.15732 20.5718 6.22539 20.5718C6.29346 20.5718 6.34873 20.627 6.34873 20.6951C6.34873 20.7632 6.29346 20.8185 6.22539 20.8185Z" fill="#464655"/>
<path d="M8.81103 26.4297C8.64375 26.4297 8.50781 26.5657 8.50781 26.7329C8.50781 26.9001 8.64385 27.0361 8.81103 27.0361C8.97822 27.0361 9.11436 26.9001 9.11436 26.7329C9.11436 26.5657 8.97822 26.4297 8.81103 26.4297ZM8.81103 26.8512C8.7458 26.8512 8.69287 26.7981 8.69287 26.733C8.69287 26.6679 8.7459 26.6148 8.81103 26.6148C8.87627 26.6148 8.92939 26.6679 8.92939 26.733C8.92939 26.7981 8.87617 26.8512 8.81103 26.8512Z" fill="#464655"/>
<path d="M9.71738 26.4824C9.5501 26.4824 9.41406 26.6186 9.41406 26.7857C9.41406 26.9529 9.5502 27.089 9.71738 27.089C9.88467 27.089 10.0206 26.9529 10.0206 26.7857C10.0206 26.6186 9.88467 26.4824 9.71738 26.4824ZM9.71738 26.9039C9.65215 26.9039 9.59902 26.8509 9.59902 26.7857C9.59902 26.7205 9.65215 26.6674 9.71738 26.6674C9.78262 26.6674 9.83555 26.7205 9.83555 26.7857C9.83564 26.8509 9.78262 26.9039 9.71738 26.9039Z" fill="#464655"/>
</g>
<defs>
<clipPath id="clip0_3462_28612">
<rect width="50" height="50" fill="white" transform="translate(0.03125 0.324219)"/>
</clipPath>
</defs>
</svg>
